G04 #@! TF.GenerationSoftware,KiCad,Pcbnew,(5.1.5)-3*
G04 #@! TF.CreationDate,2021-01-25T20:45:38-05:00*
G04 #@! TF.ProjectId,DIP40-XC9572XL,44495034-302d-4584-9339-353732584c2e,1*
G04 #@! TF.SameCoordinates,Original*
G04 #@! TF.FileFunction,Legend,Top*
G04 #@! TF.FilePolarity,Positive*
%FSLAX46Y46*%
G04 Gerber Fmt 4.6, Leading zero omitted, Abs format (unit mm)*
G04 Created by KiCad (PCBNEW (5.1.5)-3) date 2021-01-25 20:45:38*
%MOMM*%
%LPD*%
G04 APERTURE LIST*
%ADD10C,0.120000*%
%ADD11C,0.150000*%
G04 APERTURE END LIST*
D10*
X111820000Y-97850000D02*
X111820000Y-92650000D01*
X104140000Y-97850000D02*
X111820000Y-97850000D01*
X101540000Y-92650000D02*
X111820000Y-92650000D01*
X104140000Y-97850000D02*
X104140000Y-95250000D01*
X104140000Y-95250000D02*
X101540000Y-95250000D01*
X101540000Y-95250000D02*
X101540000Y-92650000D01*
X102870000Y-97850000D02*
X101540000Y-97850000D01*
X101540000Y-97850000D02*
X101540000Y-96520000D01*
X105350000Y-63440000D02*
X108010000Y-63440000D01*
X105350000Y-81340000D02*
X108010000Y-81340000D01*
X108010000Y-65530000D02*
X108010000Y-69090000D01*
X108010000Y-70610000D02*
X108010000Y-74170000D01*
X108010000Y-75690000D02*
X108010000Y-79250000D01*
X105350000Y-63440000D02*
X105350000Y-66550000D01*
X108010000Y-64010000D02*
X109530000Y-64010000D01*
X108010000Y-63440000D02*
X108010000Y-64010000D01*
X105350000Y-80770000D02*
X105350000Y-81340000D01*
X105350000Y-68070000D02*
X105350000Y-71630000D01*
X105350000Y-73150000D02*
X105350000Y-76710000D01*
X105350000Y-78230000D02*
X105350000Y-81340000D01*
X104630000Y-51135000D02*
G75*
G02X105330000Y-50435000I700000J0D01*
G01*
X105330000Y-52435000D02*
G75*
G02X104630000Y-51735000I0J700000D01*
G01*
X108730000Y-51735000D02*
G75*
G02X108030000Y-52435000I-700000J0D01*
G01*
X108030000Y-50435000D02*
G75*
G02X108730000Y-51135000I0J-700000D01*
G01*
X105280000Y-50435000D02*
X108080000Y-50435000D01*
X108730000Y-51135000D02*
X108730000Y-51735000D01*
X108080000Y-52435000D02*
X105280000Y-52435000D01*
X104630000Y-51735000D02*
X104630000Y-51135000D01*
X104630000Y-54945000D02*
G75*
G02X105330000Y-54245000I700000J0D01*
G01*
X105330000Y-56245000D02*
G75*
G02X104630000Y-55545000I0J700000D01*
G01*
X108730000Y-55545000D02*
G75*
G02X108030000Y-56245000I-700000J0D01*
G01*
X108030000Y-54245000D02*
G75*
G02X108730000Y-54945000I0J-700000D01*
G01*
X105280000Y-54245000D02*
X108080000Y-54245000D01*
X108730000Y-54945000D02*
X108730000Y-55545000D01*
X108080000Y-56245000D02*
X105280000Y-56245000D01*
X104630000Y-55545000D02*
X104630000Y-54945000D01*
X104630000Y-59355000D02*
X104630000Y-58755000D01*
X108080000Y-60055000D02*
X105280000Y-60055000D01*
X108730000Y-58755000D02*
X108730000Y-59355000D01*
X105280000Y-58055000D02*
X108080000Y-58055000D01*
X108030000Y-58055000D02*
G75*
G02X108730000Y-58755000I0J-700000D01*
G01*
X108730000Y-59355000D02*
G75*
G02X108030000Y-60055000I-700000J0D01*
G01*
X105330000Y-60055000D02*
G75*
G02X104630000Y-59355000I0J700000D01*
G01*
X104630000Y-58755000D02*
G75*
G02X105330000Y-58055000I700000J0D01*
G01*
X104630000Y-86660000D02*
X104630000Y-86060000D01*
X108080000Y-87360000D02*
X105280000Y-87360000D01*
X108730000Y-86060000D02*
X108730000Y-86660000D01*
X105280000Y-85360000D02*
X108080000Y-85360000D01*
X108030000Y-85360000D02*
G75*
G02X108730000Y-86060000I0J-700000D01*
G01*
X108730000Y-86660000D02*
G75*
G02X108030000Y-87360000I-700000J0D01*
G01*
X105330000Y-87360000D02*
G75*
G02X104630000Y-86660000I0J700000D01*
G01*
X104630000Y-86060000D02*
G75*
G02X105330000Y-85360000I700000J0D01*
G01*
X104630000Y-90470000D02*
X104630000Y-89870000D01*
X108080000Y-91170000D02*
X105280000Y-91170000D01*
X108730000Y-89870000D02*
X108730000Y-90470000D01*
X105280000Y-89170000D02*
X108080000Y-89170000D01*
X108030000Y-89170000D02*
G75*
G02X108730000Y-89870000I0J-700000D01*
G01*
X108730000Y-90470000D02*
G75*
G02X108030000Y-91170000I-700000J0D01*
G01*
X105330000Y-91170000D02*
G75*
G02X104630000Y-90470000I0J700000D01*
G01*
X104630000Y-89870000D02*
G75*
G02X105330000Y-89170000I700000J0D01*
G01*
X107680000Y-46930000D02*
G75*
G02X105680000Y-46930000I-1000000J0D01*
G01*
X105680000Y-46930000D02*
X100220000Y-46930000D01*
X100220000Y-46930000D02*
X100220000Y-97850000D01*
X100220000Y-97850000D02*
X113140000Y-97850000D01*
X113140000Y-97850000D02*
X113140000Y-46930000D01*
X113140000Y-46930000D02*
X107680000Y-46930000D01*
X109634000Y-91309500D02*
X110436470Y-91309500D01*
X111051530Y-91309500D02*
X111854000Y-91309500D01*
X109634000Y-86294500D02*
X109634000Y-91309500D01*
X111854000Y-86294500D02*
X111854000Y-91309500D01*
X109634000Y-86294500D02*
X110180529Y-86294500D01*
X111307471Y-86294500D02*
X111854000Y-86294500D01*
X109634000Y-85534500D02*
X109634000Y-84774500D01*
X109634000Y-84774500D02*
X110744000Y-84774500D01*
D11*
X106346666Y-61892380D02*
X106346666Y-62606666D01*
X106299047Y-62749523D01*
X106203809Y-62844761D01*
X106060952Y-62892380D01*
X105965714Y-62892380D01*
X106775238Y-61987619D02*
X106822857Y-61940000D01*
X106918095Y-61892380D01*
X107156190Y-61892380D01*
X107251428Y-61940000D01*
X107299047Y-61987619D01*
X107346666Y-62082857D01*
X107346666Y-62178095D01*
X107299047Y-62320952D01*
X106727619Y-62892380D01*
X107346666Y-62892380D01*
X105846666Y-49087380D02*
X105846666Y-49801666D01*
X105799047Y-49944523D01*
X105703809Y-50039761D01*
X105560952Y-50087380D01*
X105465714Y-50087380D01*
X106322857Y-50087380D02*
X106322857Y-49087380D01*
X106703809Y-49087380D01*
X106799047Y-49135000D01*
X106846666Y-49182619D01*
X106894285Y-49277857D01*
X106894285Y-49420714D01*
X106846666Y-49515952D01*
X106799047Y-49563571D01*
X106703809Y-49611190D01*
X106322857Y-49611190D01*
X107846666Y-50087380D02*
X107275238Y-50087380D01*
X107560952Y-50087380D02*
X107560952Y-49087380D01*
X107465714Y-49230238D01*
X107370476Y-49325476D01*
X107275238Y-49373095D01*
X104365714Y-51887380D02*
X103794285Y-51887380D01*
X104080000Y-51887380D02*
X104080000Y-50887380D01*
X103984761Y-51030238D01*
X103889523Y-51125476D01*
X103794285Y-51173095D01*
X108946666Y-50887380D02*
X109565714Y-50887380D01*
X109232380Y-51268333D01*
X109375238Y-51268333D01*
X109470476Y-51315952D01*
X109518095Y-51363571D01*
X109565714Y-51458809D01*
X109565714Y-51696904D01*
X109518095Y-51792142D01*
X109470476Y-51839761D01*
X109375238Y-51887380D01*
X109089523Y-51887380D01*
X108994285Y-51839761D01*
X108946666Y-51792142D01*
X105846666Y-52897380D02*
X105846666Y-53611666D01*
X105799047Y-53754523D01*
X105703809Y-53849761D01*
X105560952Y-53897380D01*
X105465714Y-53897380D01*
X106322857Y-53897380D02*
X106322857Y-52897380D01*
X106703809Y-52897380D01*
X106799047Y-52945000D01*
X106846666Y-52992619D01*
X106894285Y-53087857D01*
X106894285Y-53230714D01*
X106846666Y-53325952D01*
X106799047Y-53373571D01*
X106703809Y-53421190D01*
X106322857Y-53421190D01*
X107751428Y-52897380D02*
X107560952Y-52897380D01*
X107465714Y-52945000D01*
X107418095Y-52992619D01*
X107322857Y-53135476D01*
X107275238Y-53325952D01*
X107275238Y-53706904D01*
X107322857Y-53802142D01*
X107370476Y-53849761D01*
X107465714Y-53897380D01*
X107656190Y-53897380D01*
X107751428Y-53849761D01*
X107799047Y-53802142D01*
X107846666Y-53706904D01*
X107846666Y-53468809D01*
X107799047Y-53373571D01*
X107751428Y-53325952D01*
X107656190Y-53278333D01*
X107465714Y-53278333D01*
X107370476Y-53325952D01*
X107322857Y-53373571D01*
X107275238Y-53468809D01*
X104365714Y-55697380D02*
X103794285Y-55697380D01*
X104080000Y-55697380D02*
X104080000Y-54697380D01*
X103984761Y-54840238D01*
X103889523Y-54935476D01*
X103794285Y-54983095D01*
X108946666Y-54697380D02*
X109565714Y-54697380D01*
X109232380Y-55078333D01*
X109375238Y-55078333D01*
X109470476Y-55125952D01*
X109518095Y-55173571D01*
X109565714Y-55268809D01*
X109565714Y-55506904D01*
X109518095Y-55602142D01*
X109470476Y-55649761D01*
X109375238Y-55697380D01*
X109089523Y-55697380D01*
X108994285Y-55649761D01*
X108946666Y-55602142D01*
X105846666Y-56707380D02*
X105846666Y-57421666D01*
X105799047Y-57564523D01*
X105703809Y-57659761D01*
X105560952Y-57707380D01*
X105465714Y-57707380D01*
X106322857Y-57707380D02*
X106322857Y-56707380D01*
X106703809Y-56707380D01*
X106799047Y-56755000D01*
X106846666Y-56802619D01*
X106894285Y-56897857D01*
X106894285Y-57040714D01*
X106846666Y-57135952D01*
X106799047Y-57183571D01*
X106703809Y-57231190D01*
X106322857Y-57231190D01*
X107465714Y-57135952D02*
X107370476Y-57088333D01*
X107322857Y-57040714D01*
X107275238Y-56945476D01*
X107275238Y-56897857D01*
X107322857Y-56802619D01*
X107370476Y-56755000D01*
X107465714Y-56707380D01*
X107656190Y-56707380D01*
X107751428Y-56755000D01*
X107799047Y-56802619D01*
X107846666Y-56897857D01*
X107846666Y-56945476D01*
X107799047Y-57040714D01*
X107751428Y-57088333D01*
X107656190Y-57135952D01*
X107465714Y-57135952D01*
X107370476Y-57183571D01*
X107322857Y-57231190D01*
X107275238Y-57326428D01*
X107275238Y-57516904D01*
X107322857Y-57612142D01*
X107370476Y-57659761D01*
X107465714Y-57707380D01*
X107656190Y-57707380D01*
X107751428Y-57659761D01*
X107799047Y-57612142D01*
X107846666Y-57516904D01*
X107846666Y-57326428D01*
X107799047Y-57231190D01*
X107751428Y-57183571D01*
X107656190Y-57135952D01*
X108946666Y-58507380D02*
X109565714Y-58507380D01*
X109232380Y-58888333D01*
X109375238Y-58888333D01*
X109470476Y-58935952D01*
X109518095Y-58983571D01*
X109565714Y-59078809D01*
X109565714Y-59316904D01*
X109518095Y-59412142D01*
X109470476Y-59459761D01*
X109375238Y-59507380D01*
X109089523Y-59507380D01*
X108994285Y-59459761D01*
X108946666Y-59412142D01*
X104365714Y-59507380D02*
X103794285Y-59507380D01*
X104080000Y-59507380D02*
X104080000Y-58507380D01*
X103984761Y-58650238D01*
X103889523Y-58745476D01*
X103794285Y-58793095D01*
X105370476Y-84012380D02*
X105370476Y-84726666D01*
X105322857Y-84869523D01*
X105227619Y-84964761D01*
X105084761Y-85012380D01*
X104989523Y-85012380D01*
X105846666Y-85012380D02*
X105846666Y-84012380D01*
X106227619Y-84012380D01*
X106322857Y-84060000D01*
X106370476Y-84107619D01*
X106418095Y-84202857D01*
X106418095Y-84345714D01*
X106370476Y-84440952D01*
X106322857Y-84488571D01*
X106227619Y-84536190D01*
X105846666Y-84536190D01*
X106799047Y-84107619D02*
X106846666Y-84060000D01*
X106941904Y-84012380D01*
X107180000Y-84012380D01*
X107275238Y-84060000D01*
X107322857Y-84107619D01*
X107370476Y-84202857D01*
X107370476Y-84298095D01*
X107322857Y-84440952D01*
X106751428Y-85012380D01*
X107370476Y-85012380D01*
X107989523Y-84012380D02*
X108084761Y-84012380D01*
X108180000Y-84060000D01*
X108227619Y-84107619D01*
X108275238Y-84202857D01*
X108322857Y-84393333D01*
X108322857Y-84631428D01*
X108275238Y-84821904D01*
X108227619Y-84917142D01*
X108180000Y-84964761D01*
X108084761Y-85012380D01*
X107989523Y-85012380D01*
X107894285Y-84964761D01*
X107846666Y-84917142D01*
X107799047Y-84821904D01*
X107751428Y-84631428D01*
X107751428Y-84393333D01*
X107799047Y-84202857D01*
X107846666Y-84107619D01*
X107894285Y-84060000D01*
X107989523Y-84012380D01*
X108946666Y-85812380D02*
X109565714Y-85812380D01*
X109232380Y-86193333D01*
X109375238Y-86193333D01*
X109470476Y-86240952D01*
X109518095Y-86288571D01*
X109565714Y-86383809D01*
X109565714Y-86621904D01*
X109518095Y-86717142D01*
X109470476Y-86764761D01*
X109375238Y-86812380D01*
X109089523Y-86812380D01*
X108994285Y-86764761D01*
X108946666Y-86717142D01*
X104365714Y-86812380D02*
X103794285Y-86812380D01*
X104080000Y-86812380D02*
X104080000Y-85812380D01*
X103984761Y-85955238D01*
X103889523Y-86050476D01*
X103794285Y-86098095D01*
X105370476Y-87822380D02*
X105370476Y-88536666D01*
X105322857Y-88679523D01*
X105227619Y-88774761D01*
X105084761Y-88822380D01*
X104989523Y-88822380D01*
X105846666Y-88822380D02*
X105846666Y-87822380D01*
X106227619Y-87822380D01*
X106322857Y-87870000D01*
X106370476Y-87917619D01*
X106418095Y-88012857D01*
X106418095Y-88155714D01*
X106370476Y-88250952D01*
X106322857Y-88298571D01*
X106227619Y-88346190D01*
X105846666Y-88346190D01*
X106799047Y-87917619D02*
X106846666Y-87870000D01*
X106941904Y-87822380D01*
X107180000Y-87822380D01*
X107275238Y-87870000D01*
X107322857Y-87917619D01*
X107370476Y-88012857D01*
X107370476Y-88108095D01*
X107322857Y-88250952D01*
X106751428Y-88822380D01*
X107370476Y-88822380D01*
X108322857Y-88822380D02*
X107751428Y-88822380D01*
X108037142Y-88822380D02*
X108037142Y-87822380D01*
X107941904Y-87965238D01*
X107846666Y-88060476D01*
X107751428Y-88108095D01*
X108946666Y-89622380D02*
X109565714Y-89622380D01*
X109232380Y-90003333D01*
X109375238Y-90003333D01*
X109470476Y-90050952D01*
X109518095Y-90098571D01*
X109565714Y-90193809D01*
X109565714Y-90431904D01*
X109518095Y-90527142D01*
X109470476Y-90574761D01*
X109375238Y-90622380D01*
X109089523Y-90622380D01*
X108994285Y-90574761D01*
X108946666Y-90527142D01*
X104365714Y-90622380D02*
X103794285Y-90622380D01*
X104080000Y-90622380D02*
X104080000Y-89622380D01*
X103984761Y-89765238D01*
X103889523Y-89860476D01*
X103794285Y-89908095D01*
X105918095Y-45382380D02*
X105918095Y-46191904D01*
X105965714Y-46287142D01*
X106013333Y-46334761D01*
X106108571Y-46382380D01*
X106299047Y-46382380D01*
X106394285Y-46334761D01*
X106441904Y-46287142D01*
X106489523Y-46191904D01*
X106489523Y-45382380D01*
X106870476Y-45382380D02*
X107489523Y-45382380D01*
X107156190Y-45763333D01*
X107299047Y-45763333D01*
X107394285Y-45810952D01*
X107441904Y-45858571D01*
X107489523Y-45953809D01*
X107489523Y-46191904D01*
X107441904Y-46287142D01*
X107394285Y-46334761D01*
X107299047Y-46382380D01*
X107013333Y-46382380D01*
X106918095Y-46334761D01*
X106870476Y-46287142D01*
X110410666Y-83291880D02*
X110410666Y-84006166D01*
X110363047Y-84149023D01*
X110267809Y-84244261D01*
X110124952Y-84291880D01*
X110029714Y-84291880D01*
X110791619Y-83291880D02*
X111410666Y-83291880D01*
X111077333Y-83672833D01*
X111220190Y-83672833D01*
X111315428Y-83720452D01*
X111363047Y-83768071D01*
X111410666Y-83863309D01*
X111410666Y-84101404D01*
X111363047Y-84196642D01*
X111315428Y-84244261D01*
X111220190Y-84291880D01*
X110934476Y-84291880D01*
X110839238Y-84244261D01*
X110791619Y-84196642D01*
M02*
