%FSLAX45Y45*%
G04 Gerber Fmt 4.5, Leading zero omitted, Abs format (unit mm)*
G04 Created by KiCad (PCBNEW (5.1.5)-3) date 2021-01-25 20:45:40*
%MOMM*%
%LPD*%
G04 APERTURE LIST*
%TA.AperFunction,Profile*%
%ADD10C,0.100000*%
%TD*%
%ADD11C,0.200000*%
%ADD12C,0.300000*%
G04 APERTURE END LIST*
D10*
X9791700Y-9766300D02*
X9791700Y-4711700D01*
X11544300Y-9766300D02*
X9791700Y-9766300D01*
X11544300Y-4711700D02*
X11544300Y-9766300D01*
X9791700Y-4711700D02*
X11544300Y-4711700D01*
D11*
X10065625Y-8039975D02*
X10095625Y-8069975D01*
X10095625Y-8039975D02*
X10065625Y-8069975D01*
X10106900Y-7998700D02*
X10136900Y-8028700D01*
X10136900Y-7998700D02*
X10106900Y-8028700D01*
X10116425Y-8306675D02*
X10146425Y-8336675D01*
X10146425Y-8306675D02*
X10116425Y-8336675D01*
X10119600Y-4969750D02*
X10149600Y-4999750D01*
X10149600Y-4969750D02*
X10119600Y-4999750D01*
X10170400Y-8379700D02*
X10200400Y-8409700D01*
X10200400Y-8379700D02*
X10170400Y-8409700D01*
X10206749Y-7349249D02*
X10236749Y-7379249D01*
X10236749Y-7349249D02*
X10206749Y-7379249D01*
X10208500Y-7274800D02*
X10238500Y-7304800D01*
X10238500Y-7274800D02*
X10208500Y-7304800D01*
X10214850Y-7014450D02*
X10244850Y-7044450D01*
X10244850Y-7014450D02*
X10214850Y-7044450D01*
X10221200Y-8868650D02*
X10251200Y-8898650D01*
X10251200Y-8868650D02*
X10221200Y-8898650D01*
X10227550Y-7077950D02*
X10257550Y-7107950D01*
X10257550Y-7077950D02*
X10227550Y-7107950D01*
X10252950Y-5420600D02*
X10282950Y-5450600D01*
X10282950Y-5420600D02*
X10252950Y-5450600D01*
X10297400Y-8621000D02*
X10327400Y-8651000D01*
X10327400Y-8621000D02*
X10297400Y-8651000D01*
X10329150Y-6074650D02*
X10359150Y-6104650D01*
X10359150Y-6074650D02*
X10329150Y-6104650D01*
X10348200Y-9071850D02*
X10378200Y-9101850D01*
X10378200Y-9071850D02*
X10348200Y-9101850D01*
X10373600Y-7554200D02*
X10403600Y-7584200D01*
X10403600Y-7554200D02*
X10373600Y-7584200D01*
X10398950Y-9510050D02*
X10428950Y-9540050D01*
X10428950Y-9510050D02*
X10398950Y-9540050D01*
X10405350Y-8392400D02*
X10435350Y-8422400D01*
X10435350Y-8392400D02*
X10405350Y-8422400D01*
X10456150Y-8017750D02*
X10486150Y-8047750D01*
X10486150Y-8017750D02*
X10456150Y-8047750D01*
X10462500Y-8335250D02*
X10492500Y-8365250D01*
X10492500Y-8335250D02*
X10462500Y-8365250D01*
X10472025Y-8147925D02*
X10502025Y-8177925D01*
X10502025Y-8147925D02*
X10472025Y-8177925D01*
X10481550Y-7376400D02*
X10511550Y-7406400D01*
X10511550Y-7376400D02*
X10481550Y-7406400D01*
X10500600Y-8963900D02*
X10530600Y-8993900D01*
X10530600Y-8963900D02*
X10500600Y-8993900D01*
X10519650Y-8284450D02*
X10549650Y-8314450D01*
X10549650Y-8284450D02*
X10519650Y-8314450D01*
X10551400Y-5560300D02*
X10581400Y-5590300D01*
X10581400Y-5560300D02*
X10551400Y-5590300D01*
X10551400Y-5941300D02*
X10581400Y-5971300D01*
X10581400Y-5941300D02*
X10551400Y-5971300D01*
X10559020Y-6817600D02*
X10589020Y-6847600D01*
X10589020Y-6817600D02*
X10559020Y-6847600D01*
X10589500Y-7249400D02*
X10619500Y-7279400D01*
X10619500Y-7249400D02*
X10589500Y-7279400D01*
X10628000Y-5370200D02*
X10658000Y-5400200D01*
X10658000Y-5370200D02*
X10628000Y-5400200D01*
X10640300Y-7071600D02*
X10670300Y-7101600D01*
X10670300Y-7071600D02*
X10640300Y-7101600D01*
X10672050Y-6881100D02*
X10702050Y-6911100D01*
X10702050Y-6881100D02*
X10672050Y-6911100D01*
X10716500Y-7452600D02*
X10746500Y-7482600D01*
X10746500Y-7452600D02*
X10716500Y-7482600D01*
X10780000Y-7312900D02*
X10810000Y-7342900D01*
X10810000Y-7312900D02*
X10780000Y-7342900D01*
X10824450Y-7224000D02*
X10854450Y-7254000D01*
X10854450Y-7224000D02*
X10824450Y-7254000D01*
X10837150Y-7357350D02*
X10867150Y-7387350D01*
X10867150Y-7357350D02*
X10837150Y-7387350D01*
X10887950Y-7154150D02*
X10917950Y-7184150D01*
X10917950Y-7154150D02*
X10887950Y-7184150D01*
X10938750Y-9637000D02*
X10968750Y-9667000D01*
X10968750Y-9637000D02*
X10938750Y-9667000D01*
X10945100Y-8436850D02*
X10975100Y-8466850D01*
X10975100Y-8436850D02*
X10945100Y-8466850D01*
X10995900Y-8201900D02*
X11025900Y-8231900D01*
X11025900Y-8201900D02*
X10995900Y-8231900D01*
X11091150Y-7408150D02*
X11121150Y-7438150D01*
X11121150Y-7408150D02*
X11091150Y-7438150D01*
X11091150Y-7471650D02*
X11121150Y-7501650D01*
X11121150Y-7471650D02*
X11091150Y-7501650D01*
X11103489Y-7268811D02*
X11133489Y-7298811D01*
X11133489Y-7268811D02*
X11103489Y-7298811D01*
X11106099Y-7348751D02*
X11136099Y-7378751D01*
X11136099Y-7348751D02*
X11106099Y-7378751D01*
X11108449Y-7098751D02*
X11138449Y-7128751D01*
X11138449Y-7098751D02*
X11108449Y-7128751D01*
X11109551Y-7199249D02*
X11139551Y-7229249D01*
X11139551Y-7199249D02*
X11109551Y-7229249D01*
X11129250Y-7884400D02*
X11159250Y-7914400D01*
X11159250Y-7884400D02*
X11129250Y-7914400D01*
X11230850Y-6569950D02*
X11260850Y-6599950D01*
X11260850Y-6569950D02*
X11230850Y-6599950D01*
X10434000Y-6972300D02*
G75*
G03X10434000Y-6972300I-20000J0D01*
G01*
X10516550Y-7086600D02*
G75*
G03X10516550Y-7086600I-20000J0D01*
G01*
X10605450Y-7543800D02*
G75*
G03X10605450Y-7543800I-20000J0D01*
G01*
X10707050Y-7670800D02*
G75*
G03X10707050Y-7670800I-20000J0D01*
G01*
X10818000Y-9017000D02*
G75*
G03X10818000Y-9017000I-20000J0D01*
G01*
X10827700Y-5499100D02*
G75*
G03X10827700Y-5499100I-20000J0D01*
G01*
X10917401Y-8319301D02*
G75*
G03X10917401Y-8319301I-20000J0D01*
G01*
X10935650Y-6813550D02*
G75*
G03X10935650Y-6813550I-20000J0D01*
G01*
X10942000Y-7670800D02*
G75*
G03X10942000Y-7670800I-20000J0D01*
G01*
X10954700Y-8134350D02*
G75*
G03X10954700Y-8134350I-20000J0D01*
G01*
X11005500Y-4977500D02*
G75*
G03X11005500Y-4977500I-20000J0D01*
G01*
X11005500Y-5182500D02*
G75*
G03X11005500Y-5182500I-20000J0D01*
G01*
X11134699Y-6963751D02*
G75*
G03X11134699Y-6963751I-20000J0D01*
G01*
X11170600Y-9188450D02*
G75*
G03X11170600Y-9188450I-20000J0D01*
G01*
X11074400Y-8520950D02*
X11074400Y-8585950D01*
X11041900Y-8553450D02*
X11106900Y-8553450D01*
X11074400Y-8647950D02*
X11074400Y-8712950D01*
X11041900Y-8680450D02*
X11106900Y-8680450D01*
X11074400Y-8774950D02*
X11074400Y-8839950D01*
X11041900Y-8807450D02*
X11106900Y-8807450D01*
X11074400Y-8901950D02*
X11074400Y-8966950D01*
X11041900Y-8934450D02*
X11106900Y-8934450D01*
X11074400Y-9028950D02*
X11074400Y-9093950D01*
X11041900Y-9061450D02*
X11106900Y-9061450D01*
X9934285Y-4854285D02*
X9934285Y-4797716D01*
X9877716Y-4797716D01*
X9877716Y-4854285D01*
X9934285Y-4854285D01*
X9934285Y-5108285D02*
X9934285Y-5051716D01*
X9877716Y-5051716D01*
X9877716Y-5108285D01*
X9934285Y-5108285D01*
X9934285Y-5362285D02*
X9934285Y-5305716D01*
X9877716Y-5305716D01*
X9877716Y-5362285D01*
X9934285Y-5362285D01*
X9934285Y-5616284D02*
X9934285Y-5559716D01*
X9877716Y-5559716D01*
X9877716Y-5616284D01*
X9934285Y-5616284D01*
X9934285Y-5870284D02*
X9934285Y-5813715D01*
X9877716Y-5813715D01*
X9877716Y-5870284D01*
X9934285Y-5870284D01*
X9934285Y-6124284D02*
X9934285Y-6067715D01*
X9877716Y-6067715D01*
X9877716Y-6124284D01*
X9934285Y-6124284D01*
X9934285Y-6378284D02*
X9934285Y-6321715D01*
X9877716Y-6321715D01*
X9877716Y-6378284D01*
X9934285Y-6378284D01*
X9934285Y-6632284D02*
X9934285Y-6575715D01*
X9877716Y-6575715D01*
X9877716Y-6632284D01*
X9934285Y-6632284D01*
X9934285Y-6886284D02*
X9934285Y-6829715D01*
X9877716Y-6829715D01*
X9877716Y-6886284D01*
X9934285Y-6886284D01*
X9934285Y-7140284D02*
X9934285Y-7083715D01*
X9877716Y-7083715D01*
X9877716Y-7140284D01*
X9934285Y-7140284D01*
X9934285Y-7394284D02*
X9934285Y-7337715D01*
X9877716Y-7337715D01*
X9877716Y-7394284D01*
X9934285Y-7394284D01*
X9934285Y-7648284D02*
X9934285Y-7591715D01*
X9877716Y-7591715D01*
X9877716Y-7648284D01*
X9934285Y-7648284D01*
X9934285Y-7902284D02*
X9934285Y-7845715D01*
X9877716Y-7845715D01*
X9877716Y-7902284D01*
X9934285Y-7902284D01*
X9934285Y-8156284D02*
X9934285Y-8099715D01*
X9877716Y-8099715D01*
X9877716Y-8156284D01*
X9934285Y-8156284D01*
X9934285Y-8410285D02*
X9934285Y-8353715D01*
X9877716Y-8353715D01*
X9877716Y-8410285D01*
X9934285Y-8410285D01*
X9934285Y-8664285D02*
X9934285Y-8607716D01*
X9877716Y-8607716D01*
X9877716Y-8664285D01*
X9934285Y-8664285D01*
X9934285Y-8918285D02*
X9934285Y-8861716D01*
X9877716Y-8861716D01*
X9877716Y-8918285D01*
X9934285Y-8918285D01*
X9934285Y-9172285D02*
X9934285Y-9115716D01*
X9877716Y-9115716D01*
X9877716Y-9172285D01*
X9934285Y-9172285D01*
X9934285Y-9426285D02*
X9934285Y-9369716D01*
X9877716Y-9369716D01*
X9877716Y-9426285D01*
X9934285Y-9426285D01*
X9934285Y-9680285D02*
X9934285Y-9623716D01*
X9877716Y-9623716D01*
X9877716Y-9680285D01*
X9934285Y-9680285D01*
X11458284Y-4854285D02*
X11458284Y-4797716D01*
X11401715Y-4797716D01*
X11401715Y-4854285D01*
X11458284Y-4854285D01*
X11458284Y-5108285D02*
X11458284Y-5051716D01*
X11401715Y-5051716D01*
X11401715Y-5108285D01*
X11458284Y-5108285D01*
X11458284Y-5362285D02*
X11458284Y-5305716D01*
X11401715Y-5305716D01*
X11401715Y-5362285D01*
X11458284Y-5362285D01*
X11458284Y-5616284D02*
X11458284Y-5559716D01*
X11401715Y-5559716D01*
X11401715Y-5616284D01*
X11458284Y-5616284D01*
X11458284Y-5870284D02*
X11458284Y-5813715D01*
X11401715Y-5813715D01*
X11401715Y-5870284D01*
X11458284Y-5870284D01*
X11458284Y-6124284D02*
X11458284Y-6067715D01*
X11401715Y-6067715D01*
X11401715Y-6124284D01*
X11458284Y-6124284D01*
X11458284Y-6378284D02*
X11458284Y-6321715D01*
X11401715Y-6321715D01*
X11401715Y-6378284D01*
X11458284Y-6378284D01*
X11458284Y-6632284D02*
X11458284Y-6575715D01*
X11401715Y-6575715D01*
X11401715Y-6632284D01*
X11458284Y-6632284D01*
X11458284Y-6886284D02*
X11458284Y-6829715D01*
X11401715Y-6829715D01*
X11401715Y-6886284D01*
X11458284Y-6886284D01*
X11458284Y-7140284D02*
X11458284Y-7083715D01*
X11401715Y-7083715D01*
X11401715Y-7140284D01*
X11458284Y-7140284D01*
X11458284Y-7394284D02*
X11458284Y-7337715D01*
X11401715Y-7337715D01*
X11401715Y-7394284D01*
X11458284Y-7394284D01*
X11458284Y-7648284D02*
X11458284Y-7591715D01*
X11401715Y-7591715D01*
X11401715Y-7648284D01*
X11458284Y-7648284D01*
X11458284Y-7902284D02*
X11458284Y-7845715D01*
X11401715Y-7845715D01*
X11401715Y-7902284D01*
X11458284Y-7902284D01*
X11458284Y-8156284D02*
X11458284Y-8099715D01*
X11401715Y-8099715D01*
X11401715Y-8156284D01*
X11458284Y-8156284D01*
X11458284Y-8410285D02*
X11458284Y-8353715D01*
X11401715Y-8353715D01*
X11401715Y-8410285D01*
X11458284Y-8410285D01*
X11458284Y-8664285D02*
X11458284Y-8607716D01*
X11401715Y-8607716D01*
X11401715Y-8664285D01*
X11458284Y-8664285D01*
X11458284Y-8918285D02*
X11458284Y-8861716D01*
X11401715Y-8861716D01*
X11401715Y-8918285D01*
X11458284Y-8918285D01*
X11458284Y-9172285D02*
X11458284Y-9115716D01*
X11401715Y-9115716D01*
X11401715Y-9172285D01*
X11458284Y-9172285D01*
X11458284Y-9426285D02*
X11458284Y-9369716D01*
X11401715Y-9369716D01*
X11401715Y-9426285D01*
X11458284Y-9426285D01*
X11458284Y-9680285D02*
X11458284Y-9623716D01*
X11401715Y-9623716D01*
X11401715Y-9680285D01*
X11458284Y-9680285D01*
X10287000Y-9448000D02*
X10337000Y-9398000D01*
X10287000Y-9348000D01*
X10237000Y-9398000D01*
X10287000Y-9448000D01*
X10287000Y-9702000D02*
X10337000Y-9652000D01*
X10287000Y-9602000D01*
X10237000Y-9652000D01*
X10287000Y-9702000D01*
X10541000Y-9448000D02*
X10591000Y-9398000D01*
X10541000Y-9348000D01*
X10491000Y-9398000D01*
X10541000Y-9448000D01*
X10541000Y-9702000D02*
X10591000Y-9652000D01*
X10541000Y-9602000D01*
X10491000Y-9652000D01*
X10541000Y-9702000D01*
X10795000Y-9448000D02*
X10845000Y-9398000D01*
X10795000Y-9348000D01*
X10745000Y-9398000D01*
X10795000Y-9448000D01*
X11049000Y-9448000D02*
X11099000Y-9398000D01*
X11049000Y-9348000D01*
X10999000Y-9398000D01*
X11049000Y-9448000D01*
D12*
X10073128Y-10237014D02*
X10073128Y-9937014D01*
X10144557Y-9937014D01*
X10187414Y-9951300D01*
X10215986Y-9979872D01*
X10230271Y-10008443D01*
X10244557Y-10065586D01*
X10244557Y-10108443D01*
X10230271Y-10165586D01*
X10215986Y-10194157D01*
X10187414Y-10222729D01*
X10144557Y-10237014D01*
X10073128Y-10237014D01*
X10373128Y-10237014D02*
X10373128Y-10037014D01*
X10373128Y-10094157D02*
X10387414Y-10065586D01*
X10401700Y-10051300D01*
X10430271Y-10037014D01*
X10458843Y-10037014D01*
X10558843Y-10237014D02*
X10558843Y-10037014D01*
X10558843Y-9937014D02*
X10544557Y-9951300D01*
X10558843Y-9965586D01*
X10573128Y-9951300D01*
X10558843Y-9937014D01*
X10558843Y-9965586D01*
X10744557Y-10237014D02*
X10715986Y-10222729D01*
X10701700Y-10194157D01*
X10701700Y-9937014D01*
X10901700Y-10237014D02*
X10873128Y-10222729D01*
X10858843Y-10194157D01*
X10858843Y-9937014D01*
X11244557Y-10237014D02*
X11244557Y-9937014D01*
X11344557Y-10151300D01*
X11444557Y-9937014D01*
X11444557Y-10237014D01*
X11715986Y-10237014D02*
X11715986Y-10079872D01*
X11701700Y-10051300D01*
X11673128Y-10037014D01*
X11615986Y-10037014D01*
X11587414Y-10051300D01*
X11715986Y-10222729D02*
X11687414Y-10237014D01*
X11615986Y-10237014D01*
X11587414Y-10222729D01*
X11573128Y-10194157D01*
X11573128Y-10165586D01*
X11587414Y-10137014D01*
X11615986Y-10122729D01*
X11687414Y-10122729D01*
X11715986Y-10108443D01*
X11858843Y-10037014D02*
X11858843Y-10337014D01*
X11858843Y-10051300D02*
X11887414Y-10037014D01*
X11944557Y-10037014D01*
X11973128Y-10051300D01*
X11987414Y-10065586D01*
X12001700Y-10094157D01*
X12001700Y-10179872D01*
X11987414Y-10208443D01*
X11973128Y-10222729D01*
X11944557Y-10237014D01*
X11887414Y-10237014D01*
X11858843Y-10222729D01*
X12130271Y-10208443D02*
X12144557Y-10222729D01*
X12130271Y-10237014D01*
X12115986Y-10222729D01*
X12130271Y-10208443D01*
X12130271Y-10237014D01*
X12130271Y-10051300D02*
X12144557Y-10065586D01*
X12130271Y-10079872D01*
X12115986Y-10065586D01*
X12130271Y-10051300D01*
X12130271Y-10079872D01*
X9756700Y-10716300D02*
X9786700Y-10746300D01*
X9786700Y-10716300D02*
X9756700Y-10746300D01*
X10130271Y-10567014D02*
X10158843Y-10567014D01*
X10187414Y-10581300D01*
X10201700Y-10595586D01*
X10215986Y-10624157D01*
X10230271Y-10681300D01*
X10230271Y-10752729D01*
X10215986Y-10809872D01*
X10201700Y-10838443D01*
X10187414Y-10852729D01*
X10158843Y-10867014D01*
X10130271Y-10867014D01*
X10101700Y-10852729D01*
X10087414Y-10838443D01*
X10073128Y-10809872D01*
X10058843Y-10752729D01*
X10058843Y-10681300D01*
X10073128Y-10624157D01*
X10087414Y-10595586D01*
X10101700Y-10581300D01*
X10130271Y-10567014D01*
X10358843Y-10838443D02*
X10373128Y-10852729D01*
X10358843Y-10867014D01*
X10344557Y-10852729D01*
X10358843Y-10838443D01*
X10358843Y-10867014D01*
X10473128Y-10567014D02*
X10658843Y-10567014D01*
X10558843Y-10681300D01*
X10601700Y-10681300D01*
X10630271Y-10695586D01*
X10644557Y-10709872D01*
X10658843Y-10738443D01*
X10658843Y-10809872D01*
X10644557Y-10838443D01*
X10630271Y-10852729D01*
X10601700Y-10867014D01*
X10515986Y-10867014D01*
X10487414Y-10852729D01*
X10473128Y-10838443D01*
X10844557Y-10567014D02*
X10873128Y-10567014D01*
X10901700Y-10581300D01*
X10915986Y-10595586D01*
X10930271Y-10624157D01*
X10944557Y-10681300D01*
X10944557Y-10752729D01*
X10930271Y-10809872D01*
X10915986Y-10838443D01*
X10901700Y-10852729D01*
X10873128Y-10867014D01*
X10844557Y-10867014D01*
X10815986Y-10852729D01*
X10801700Y-10838443D01*
X10787414Y-10809872D01*
X10773128Y-10752729D01*
X10773128Y-10681300D01*
X10787414Y-10624157D01*
X10801700Y-10595586D01*
X10815986Y-10581300D01*
X10844557Y-10567014D01*
X11073128Y-10867014D02*
X11073128Y-10667014D01*
X11073128Y-10695586D02*
X11087414Y-10681300D01*
X11115986Y-10667014D01*
X11158843Y-10667014D01*
X11187414Y-10681300D01*
X11201700Y-10709872D01*
X11201700Y-10867014D01*
X11201700Y-10709872D02*
X11215986Y-10681300D01*
X11244557Y-10667014D01*
X11287414Y-10667014D01*
X11315986Y-10681300D01*
X11330271Y-10709872D01*
X11330271Y-10867014D01*
X11473128Y-10867014D02*
X11473128Y-10667014D01*
X11473128Y-10695586D02*
X11487414Y-10681300D01*
X11515986Y-10667014D01*
X11558843Y-10667014D01*
X11587414Y-10681300D01*
X11601700Y-10709872D01*
X11601700Y-10867014D01*
X11601700Y-10709872D02*
X11615986Y-10681300D01*
X11644557Y-10667014D01*
X11687414Y-10667014D01*
X11715986Y-10681300D01*
X11730271Y-10709872D01*
X11730271Y-10867014D01*
X12315986Y-10552729D02*
X12058843Y-10938443D01*
X12701700Y-10567014D02*
X12730271Y-10567014D01*
X12758843Y-10581300D01*
X12773128Y-10595586D01*
X12787414Y-10624157D01*
X12801700Y-10681300D01*
X12801700Y-10752729D01*
X12787414Y-10809872D01*
X12773128Y-10838443D01*
X12758843Y-10852729D01*
X12730271Y-10867014D01*
X12701700Y-10867014D01*
X12673128Y-10852729D01*
X12658843Y-10838443D01*
X12644557Y-10809872D01*
X12630271Y-10752729D01*
X12630271Y-10681300D01*
X12644557Y-10624157D01*
X12658843Y-10595586D01*
X12673128Y-10581300D01*
X12701700Y-10567014D01*
X12930271Y-10838443D02*
X12944557Y-10852729D01*
X12930271Y-10867014D01*
X12915986Y-10852729D01*
X12930271Y-10838443D01*
X12930271Y-10867014D01*
X13130271Y-10567014D02*
X13158843Y-10567014D01*
X13187414Y-10581300D01*
X13201700Y-10595586D01*
X13215986Y-10624157D01*
X13230271Y-10681300D01*
X13230271Y-10752729D01*
X13215986Y-10809872D01*
X13201700Y-10838443D01*
X13187414Y-10852729D01*
X13158843Y-10867014D01*
X13130271Y-10867014D01*
X13101700Y-10852729D01*
X13087414Y-10838443D01*
X13073128Y-10809872D01*
X13058843Y-10752729D01*
X13058843Y-10681300D01*
X13073128Y-10624157D01*
X13087414Y-10595586D01*
X13101700Y-10581300D01*
X13130271Y-10567014D01*
X13515986Y-10867014D02*
X13344557Y-10867014D01*
X13430271Y-10867014D02*
X13430271Y-10567014D01*
X13401700Y-10609872D01*
X13373128Y-10638443D01*
X13344557Y-10652729D01*
X13630271Y-10595586D02*
X13644557Y-10581300D01*
X13673128Y-10567014D01*
X13744557Y-10567014D01*
X13773128Y-10581300D01*
X13787414Y-10595586D01*
X13801700Y-10624157D01*
X13801700Y-10652729D01*
X13787414Y-10695586D01*
X13615986Y-10867014D01*
X13801700Y-10867014D01*
X13915986Y-10567014D02*
X13915986Y-10624157D01*
X14030271Y-10567014D02*
X14030271Y-10624157D01*
X14473128Y-10981300D02*
X14458843Y-10967014D01*
X14430271Y-10924157D01*
X14415986Y-10895586D01*
X14401700Y-10852729D01*
X14387414Y-10781300D01*
X14387414Y-10724157D01*
X14401700Y-10652729D01*
X14415986Y-10609872D01*
X14430271Y-10581300D01*
X14458843Y-10538443D01*
X14473128Y-10524157D01*
X14715986Y-10667014D02*
X14715986Y-10867014D01*
X14644557Y-10552729D02*
X14573128Y-10767014D01*
X14758843Y-10767014D01*
X15001700Y-10567014D02*
X14944557Y-10567014D01*
X14915986Y-10581300D01*
X14901700Y-10595586D01*
X14873128Y-10638443D01*
X14858843Y-10695586D01*
X14858843Y-10809872D01*
X14873128Y-10838443D01*
X14887414Y-10852729D01*
X14915986Y-10867014D01*
X14973128Y-10867014D01*
X15001700Y-10852729D01*
X15015986Y-10838443D01*
X15030271Y-10809872D01*
X15030271Y-10738443D01*
X15015986Y-10709872D01*
X15001700Y-10695586D01*
X14973128Y-10681300D01*
X14915986Y-10681300D01*
X14887414Y-10695586D01*
X14873128Y-10709872D01*
X14858843Y-10738443D01*
X15387414Y-10867014D02*
X15387414Y-10567014D01*
X15515986Y-10867014D02*
X15515986Y-10709872D01*
X15501700Y-10681300D01*
X15473128Y-10667014D01*
X15430271Y-10667014D01*
X15401700Y-10681300D01*
X15387414Y-10695586D01*
X15701700Y-10867014D02*
X15673128Y-10852729D01*
X15658843Y-10838443D01*
X15644557Y-10809872D01*
X15644557Y-10724157D01*
X15658843Y-10695586D01*
X15673128Y-10681300D01*
X15701700Y-10667014D01*
X15744557Y-10667014D01*
X15773128Y-10681300D01*
X15787414Y-10695586D01*
X15801700Y-10724157D01*
X15801700Y-10809872D01*
X15787414Y-10838443D01*
X15773128Y-10852729D01*
X15744557Y-10867014D01*
X15701700Y-10867014D01*
X15973128Y-10867014D02*
X15944557Y-10852729D01*
X15930271Y-10824157D01*
X15930271Y-10567014D01*
X16201700Y-10852729D02*
X16173128Y-10867014D01*
X16115986Y-10867014D01*
X16087414Y-10852729D01*
X16073128Y-10824157D01*
X16073128Y-10709872D01*
X16087414Y-10681300D01*
X16115986Y-10667014D01*
X16173128Y-10667014D01*
X16201700Y-10681300D01*
X16215986Y-10709872D01*
X16215986Y-10738443D01*
X16073128Y-10767014D01*
X16330271Y-10852729D02*
X16358843Y-10867014D01*
X16415986Y-10867014D01*
X16444557Y-10852729D01*
X16458843Y-10824157D01*
X16458843Y-10809872D01*
X16444557Y-10781300D01*
X16415986Y-10767014D01*
X16373128Y-10767014D01*
X16344557Y-10752729D01*
X16330271Y-10724157D01*
X16330271Y-10709872D01*
X16344557Y-10681300D01*
X16373128Y-10667014D01*
X16415986Y-10667014D01*
X16444557Y-10681300D01*
X16558843Y-10981300D02*
X16573128Y-10967014D01*
X16601700Y-10924157D01*
X16615986Y-10895586D01*
X16630271Y-10852729D01*
X16644557Y-10781300D01*
X16644557Y-10724157D01*
X16630271Y-10652729D01*
X16615986Y-10609872D01*
X16601700Y-10581300D01*
X16573128Y-10538443D01*
X16558843Y-10524157D01*
X9786700Y-11127300D02*
G75*
G03X9786700Y-11127300I-20000J0D01*
G01*
X10130271Y-10963014D02*
X10158843Y-10963014D01*
X10187414Y-10977300D01*
X10201700Y-10991586D01*
X10215986Y-11020157D01*
X10230271Y-11077300D01*
X10230271Y-11148729D01*
X10215986Y-11205871D01*
X10201700Y-11234443D01*
X10187414Y-11248729D01*
X10158843Y-11263014D01*
X10130271Y-11263014D01*
X10101700Y-11248729D01*
X10087414Y-11234443D01*
X10073128Y-11205871D01*
X10058843Y-11148729D01*
X10058843Y-11077300D01*
X10073128Y-11020157D01*
X10087414Y-10991586D01*
X10101700Y-10977300D01*
X10130271Y-10963014D01*
X10358843Y-11234443D02*
X10373128Y-11248729D01*
X10358843Y-11263014D01*
X10344557Y-11248729D01*
X10358843Y-11234443D01*
X10358843Y-11263014D01*
X10630271Y-11063014D02*
X10630271Y-11263014D01*
X10558843Y-10948729D02*
X10487414Y-11163014D01*
X10673128Y-11163014D01*
X10844557Y-10963014D02*
X10873128Y-10963014D01*
X10901700Y-10977300D01*
X10915986Y-10991586D01*
X10930271Y-11020157D01*
X10944557Y-11077300D01*
X10944557Y-11148729D01*
X10930271Y-11205871D01*
X10915986Y-11234443D01*
X10901700Y-11248729D01*
X10873128Y-11263014D01*
X10844557Y-11263014D01*
X10815986Y-11248729D01*
X10801700Y-11234443D01*
X10787414Y-11205871D01*
X10773128Y-11148729D01*
X10773128Y-11077300D01*
X10787414Y-11020157D01*
X10801700Y-10991586D01*
X10815986Y-10977300D01*
X10844557Y-10963014D01*
X11073128Y-11263014D02*
X11073128Y-11063014D01*
X11073128Y-11091586D02*
X11087414Y-11077300D01*
X11115986Y-11063014D01*
X11158843Y-11063014D01*
X11187414Y-11077300D01*
X11201700Y-11105872D01*
X11201700Y-11263014D01*
X11201700Y-11105872D02*
X11215986Y-11077300D01*
X11244557Y-11063014D01*
X11287414Y-11063014D01*
X11315986Y-11077300D01*
X11330271Y-11105872D01*
X11330271Y-11263014D01*
X11473128Y-11263014D02*
X11473128Y-11063014D01*
X11473128Y-11091586D02*
X11487414Y-11077300D01*
X11515986Y-11063014D01*
X11558843Y-11063014D01*
X11587414Y-11077300D01*
X11601700Y-11105872D01*
X11601700Y-11263014D01*
X11601700Y-11105872D02*
X11615986Y-11077300D01*
X11644557Y-11063014D01*
X11687414Y-11063014D01*
X11715986Y-11077300D01*
X11730271Y-11105872D01*
X11730271Y-11263014D01*
X12315986Y-10948729D02*
X12058843Y-11334443D01*
X12701700Y-10963014D02*
X12730271Y-10963014D01*
X12758843Y-10977300D01*
X12773128Y-10991586D01*
X12787414Y-11020157D01*
X12801700Y-11077300D01*
X12801700Y-11148729D01*
X12787414Y-11205871D01*
X12773128Y-11234443D01*
X12758843Y-11248729D01*
X12730271Y-11263014D01*
X12701700Y-11263014D01*
X12673128Y-11248729D01*
X12658843Y-11234443D01*
X12644557Y-11205871D01*
X12630271Y-11148729D01*
X12630271Y-11077300D01*
X12644557Y-11020157D01*
X12658843Y-10991586D01*
X12673128Y-10977300D01*
X12701700Y-10963014D01*
X12930271Y-11234443D02*
X12944557Y-11248729D01*
X12930271Y-11263014D01*
X12915986Y-11248729D01*
X12930271Y-11234443D01*
X12930271Y-11263014D01*
X13130271Y-10963014D02*
X13158843Y-10963014D01*
X13187414Y-10977300D01*
X13201700Y-10991586D01*
X13215986Y-11020157D01*
X13230271Y-11077300D01*
X13230271Y-11148729D01*
X13215986Y-11205871D01*
X13201700Y-11234443D01*
X13187414Y-11248729D01*
X13158843Y-11263014D01*
X13130271Y-11263014D01*
X13101700Y-11248729D01*
X13087414Y-11234443D01*
X13073128Y-11205871D01*
X13058843Y-11148729D01*
X13058843Y-11077300D01*
X13073128Y-11020157D01*
X13087414Y-10991586D01*
X13101700Y-10977300D01*
X13130271Y-10963014D01*
X13515986Y-11263014D02*
X13344557Y-11263014D01*
X13430271Y-11263014D02*
X13430271Y-10963014D01*
X13401700Y-11005872D01*
X13373128Y-11034443D01*
X13344557Y-11048729D01*
X13773128Y-10963014D02*
X13715986Y-10963014D01*
X13687414Y-10977300D01*
X13673128Y-10991586D01*
X13644557Y-11034443D01*
X13630271Y-11091586D01*
X13630271Y-11205871D01*
X13644557Y-11234443D01*
X13658843Y-11248729D01*
X13687414Y-11263014D01*
X13744557Y-11263014D01*
X13773128Y-11248729D01*
X13787414Y-11234443D01*
X13801700Y-11205871D01*
X13801700Y-11134443D01*
X13787414Y-11105872D01*
X13773128Y-11091586D01*
X13744557Y-11077300D01*
X13687414Y-11077300D01*
X13658843Y-11091586D01*
X13644557Y-11105872D01*
X13630271Y-11134443D01*
X13915986Y-10963014D02*
X13915986Y-11020157D01*
X14030271Y-10963014D02*
X14030271Y-11020157D01*
X14473128Y-11377300D02*
X14458843Y-11363014D01*
X14430271Y-11320157D01*
X14415986Y-11291586D01*
X14401700Y-11248729D01*
X14387414Y-11177300D01*
X14387414Y-11120157D01*
X14401700Y-11048729D01*
X14415986Y-11005872D01*
X14430271Y-10977300D01*
X14458843Y-10934443D01*
X14473128Y-10920157D01*
X14744557Y-11263014D02*
X14573128Y-11263014D01*
X14658843Y-11263014D02*
X14658843Y-10963014D01*
X14630271Y-11005872D01*
X14601700Y-11034443D01*
X14573128Y-11048729D01*
X15001700Y-11063014D02*
X15001700Y-11263014D01*
X14930271Y-10948729D02*
X14858843Y-11163014D01*
X15044557Y-11163014D01*
X15387414Y-11263014D02*
X15387414Y-10963014D01*
X15515986Y-11263014D02*
X15515986Y-11105872D01*
X15501700Y-11077300D01*
X15473128Y-11063014D01*
X15430271Y-11063014D01*
X15401700Y-11077300D01*
X15387414Y-11091586D01*
X15701700Y-11263014D02*
X15673128Y-11248729D01*
X15658843Y-11234443D01*
X15644557Y-11205871D01*
X15644557Y-11120157D01*
X15658843Y-11091586D01*
X15673128Y-11077300D01*
X15701700Y-11063014D01*
X15744557Y-11063014D01*
X15773128Y-11077300D01*
X15787414Y-11091586D01*
X15801700Y-11120157D01*
X15801700Y-11205871D01*
X15787414Y-11234443D01*
X15773128Y-11248729D01*
X15744557Y-11263014D01*
X15701700Y-11263014D01*
X15973128Y-11263014D02*
X15944557Y-11248729D01*
X15930271Y-11220157D01*
X15930271Y-10963014D01*
X16201700Y-11248729D02*
X16173128Y-11263014D01*
X16115986Y-11263014D01*
X16087414Y-11248729D01*
X16073128Y-11220157D01*
X16073128Y-11105872D01*
X16087414Y-11077300D01*
X16115986Y-11063014D01*
X16173128Y-11063014D01*
X16201700Y-11077300D01*
X16215986Y-11105872D01*
X16215986Y-11134443D01*
X16073128Y-11163014D01*
X16330271Y-11248729D02*
X16358843Y-11263014D01*
X16415986Y-11263014D01*
X16444557Y-11248729D01*
X16458843Y-11220157D01*
X16458843Y-11205871D01*
X16444557Y-11177300D01*
X16415986Y-11163014D01*
X16373128Y-11163014D01*
X16344557Y-11148729D01*
X16330271Y-11120157D01*
X16330271Y-11105872D01*
X16344557Y-11077300D01*
X16373128Y-11063014D01*
X16415986Y-11063014D01*
X16444557Y-11077300D01*
X16558843Y-11377300D02*
X16573128Y-11363014D01*
X16601700Y-11320157D01*
X16615986Y-11291586D01*
X16630271Y-11248729D01*
X16644557Y-11177300D01*
X16644557Y-11120157D01*
X16630271Y-11048729D01*
X16615986Y-11005872D01*
X16601700Y-10977300D01*
X16573128Y-10934443D01*
X16558843Y-10920157D01*
X9754200Y-11490800D02*
X9754200Y-11555800D01*
X9721700Y-11523300D02*
X9786700Y-11523300D01*
X10130271Y-11359014D02*
X10158843Y-11359014D01*
X10187414Y-11373300D01*
X10201700Y-11387586D01*
X10215986Y-11416157D01*
X10230271Y-11473300D01*
X10230271Y-11544729D01*
X10215986Y-11601871D01*
X10201700Y-11630443D01*
X10187414Y-11644729D01*
X10158843Y-11659014D01*
X10130271Y-11659014D01*
X10101700Y-11644729D01*
X10087414Y-11630443D01*
X10073128Y-11601871D01*
X10058843Y-11544729D01*
X10058843Y-11473300D01*
X10073128Y-11416157D01*
X10087414Y-11387586D01*
X10101700Y-11373300D01*
X10130271Y-11359014D01*
X10358843Y-11630443D02*
X10373128Y-11644729D01*
X10358843Y-11659014D01*
X10344557Y-11644729D01*
X10358843Y-11630443D01*
X10358843Y-11659014D01*
X10630271Y-11359014D02*
X10573128Y-11359014D01*
X10544557Y-11373300D01*
X10530271Y-11387586D01*
X10501700Y-11430443D01*
X10487414Y-11487586D01*
X10487414Y-11601871D01*
X10501700Y-11630443D01*
X10515986Y-11644729D01*
X10544557Y-11659014D01*
X10601700Y-11659014D01*
X10630271Y-11644729D01*
X10644557Y-11630443D01*
X10658843Y-11601871D01*
X10658843Y-11530443D01*
X10644557Y-11501871D01*
X10630271Y-11487586D01*
X10601700Y-11473300D01*
X10544557Y-11473300D01*
X10515986Y-11487586D01*
X10501700Y-11501871D01*
X10487414Y-11530443D01*
X10930271Y-11359014D02*
X10787414Y-11359014D01*
X10773128Y-11501871D01*
X10787414Y-11487586D01*
X10815986Y-11473300D01*
X10887414Y-11473300D01*
X10915986Y-11487586D01*
X10930271Y-11501871D01*
X10944557Y-11530443D01*
X10944557Y-11601871D01*
X10930271Y-11630443D01*
X10915986Y-11644729D01*
X10887414Y-11659014D01*
X10815986Y-11659014D01*
X10787414Y-11644729D01*
X10773128Y-11630443D01*
X11073128Y-11659014D02*
X11073128Y-11459014D01*
X11073128Y-11487586D02*
X11087414Y-11473300D01*
X11115986Y-11459014D01*
X11158843Y-11459014D01*
X11187414Y-11473300D01*
X11201700Y-11501871D01*
X11201700Y-11659014D01*
X11201700Y-11501871D02*
X11215986Y-11473300D01*
X11244557Y-11459014D01*
X11287414Y-11459014D01*
X11315986Y-11473300D01*
X11330271Y-11501871D01*
X11330271Y-11659014D01*
X11473128Y-11659014D02*
X11473128Y-11459014D01*
X11473128Y-11487586D02*
X11487414Y-11473300D01*
X11515986Y-11459014D01*
X11558843Y-11459014D01*
X11587414Y-11473300D01*
X11601700Y-11501871D01*
X11601700Y-11659014D01*
X11601700Y-11501871D02*
X11615986Y-11473300D01*
X11644557Y-11459014D01*
X11687414Y-11459014D01*
X11715986Y-11473300D01*
X11730271Y-11501871D01*
X11730271Y-11659014D01*
X12315986Y-11344729D02*
X12058843Y-11730443D01*
X12701700Y-11359014D02*
X12730271Y-11359014D01*
X12758843Y-11373300D01*
X12773128Y-11387586D01*
X12787414Y-11416157D01*
X12801700Y-11473300D01*
X12801700Y-11544729D01*
X12787414Y-11601871D01*
X12773128Y-11630443D01*
X12758843Y-11644729D01*
X12730271Y-11659014D01*
X12701700Y-11659014D01*
X12673128Y-11644729D01*
X12658843Y-11630443D01*
X12644557Y-11601871D01*
X12630271Y-11544729D01*
X12630271Y-11473300D01*
X12644557Y-11416157D01*
X12658843Y-11387586D01*
X12673128Y-11373300D01*
X12701700Y-11359014D01*
X12930271Y-11630443D02*
X12944557Y-11644729D01*
X12930271Y-11659014D01*
X12915986Y-11644729D01*
X12930271Y-11630443D01*
X12930271Y-11659014D01*
X13130271Y-11359014D02*
X13158843Y-11359014D01*
X13187414Y-11373300D01*
X13201700Y-11387586D01*
X13215986Y-11416157D01*
X13230271Y-11473300D01*
X13230271Y-11544729D01*
X13215986Y-11601871D01*
X13201700Y-11630443D01*
X13187414Y-11644729D01*
X13158843Y-11659014D01*
X13130271Y-11659014D01*
X13101700Y-11644729D01*
X13087414Y-11630443D01*
X13073128Y-11601871D01*
X13058843Y-11544729D01*
X13058843Y-11473300D01*
X13073128Y-11416157D01*
X13087414Y-11387586D01*
X13101700Y-11373300D01*
X13130271Y-11359014D01*
X13344557Y-11387586D02*
X13358843Y-11373300D01*
X13387414Y-11359014D01*
X13458843Y-11359014D01*
X13487414Y-11373300D01*
X13501700Y-11387586D01*
X13515986Y-11416157D01*
X13515986Y-11444729D01*
X13501700Y-11487586D01*
X13330271Y-11659014D01*
X13515986Y-11659014D01*
X13773128Y-11359014D02*
X13715986Y-11359014D01*
X13687414Y-11373300D01*
X13673128Y-11387586D01*
X13644557Y-11430443D01*
X13630271Y-11487586D01*
X13630271Y-11601871D01*
X13644557Y-11630443D01*
X13658843Y-11644729D01*
X13687414Y-11659014D01*
X13744557Y-11659014D01*
X13773128Y-11644729D01*
X13787414Y-11630443D01*
X13801700Y-11601871D01*
X13801700Y-11530443D01*
X13787414Y-11501871D01*
X13773128Y-11487586D01*
X13744557Y-11473300D01*
X13687414Y-11473300D01*
X13658843Y-11487586D01*
X13644557Y-11501871D01*
X13630271Y-11530443D01*
X13915986Y-11359014D02*
X13915986Y-11416157D01*
X14030271Y-11359014D02*
X14030271Y-11416157D01*
X14473128Y-11773300D02*
X14458843Y-11759014D01*
X14430271Y-11716157D01*
X14415986Y-11687586D01*
X14401700Y-11644729D01*
X14387414Y-11573300D01*
X14387414Y-11516157D01*
X14401700Y-11444729D01*
X14415986Y-11401871D01*
X14430271Y-11373300D01*
X14458843Y-11330443D01*
X14473128Y-11316157D01*
X14730271Y-11359014D02*
X14587414Y-11359014D01*
X14573128Y-11501871D01*
X14587414Y-11487586D01*
X14615986Y-11473300D01*
X14687414Y-11473300D01*
X14715986Y-11487586D01*
X14730271Y-11501871D01*
X14744557Y-11530443D01*
X14744557Y-11601871D01*
X14730271Y-11630443D01*
X14715986Y-11644729D01*
X14687414Y-11659014D01*
X14615986Y-11659014D01*
X14587414Y-11644729D01*
X14573128Y-11630443D01*
X15101700Y-11659014D02*
X15101700Y-11359014D01*
X15230271Y-11659014D02*
X15230271Y-11501871D01*
X15215986Y-11473300D01*
X15187414Y-11459014D01*
X15144557Y-11459014D01*
X15115986Y-11473300D01*
X15101700Y-11487586D01*
X15415986Y-11659014D02*
X15387414Y-11644729D01*
X15373128Y-11630443D01*
X15358843Y-11601871D01*
X15358843Y-11516157D01*
X15373128Y-11487586D01*
X15387414Y-11473300D01*
X15415986Y-11459014D01*
X15458843Y-11459014D01*
X15487414Y-11473300D01*
X15501700Y-11487586D01*
X15515986Y-11516157D01*
X15515986Y-11601871D01*
X15501700Y-11630443D01*
X15487414Y-11644729D01*
X15458843Y-11659014D01*
X15415986Y-11659014D01*
X15687414Y-11659014D02*
X15658843Y-11644729D01*
X15644557Y-11616157D01*
X15644557Y-11359014D01*
X15915986Y-11644729D02*
X15887414Y-11659014D01*
X15830271Y-11659014D01*
X15801700Y-11644729D01*
X15787414Y-11616157D01*
X15787414Y-11501871D01*
X15801700Y-11473300D01*
X15830271Y-11459014D01*
X15887414Y-11459014D01*
X15915986Y-11473300D01*
X15930271Y-11501871D01*
X15930271Y-11530443D01*
X15787414Y-11559014D01*
X16044557Y-11644729D02*
X16073128Y-11659014D01*
X16130271Y-11659014D01*
X16158843Y-11644729D01*
X16173128Y-11616157D01*
X16173128Y-11601871D01*
X16158843Y-11573300D01*
X16130271Y-11559014D01*
X16087414Y-11559014D01*
X16058843Y-11544729D01*
X16044557Y-11516157D01*
X16044557Y-11501871D01*
X16058843Y-11473300D01*
X16087414Y-11459014D01*
X16130271Y-11459014D01*
X16158843Y-11473300D01*
X16273128Y-11773300D02*
X16287414Y-11759014D01*
X16315986Y-11716157D01*
X16330271Y-11687586D01*
X16344557Y-11644729D01*
X16358843Y-11573300D01*
X16358843Y-11516157D01*
X16344557Y-11444729D01*
X16330271Y-11401871D01*
X16315986Y-11373300D01*
X16287414Y-11330443D01*
X16273128Y-11316157D01*
X9774984Y-11947585D02*
X9774984Y-11891016D01*
X9718415Y-11891016D01*
X9718415Y-11947585D01*
X9774984Y-11947585D01*
X10130271Y-11755014D02*
X10158843Y-11755014D01*
X10187414Y-11769300D01*
X10201700Y-11783586D01*
X10215986Y-11812157D01*
X10230271Y-11869300D01*
X10230271Y-11940729D01*
X10215986Y-11997871D01*
X10201700Y-12026443D01*
X10187414Y-12040729D01*
X10158843Y-12055014D01*
X10130271Y-12055014D01*
X10101700Y-12040729D01*
X10087414Y-12026443D01*
X10073128Y-11997871D01*
X10058843Y-11940729D01*
X10058843Y-11869300D01*
X10073128Y-11812157D01*
X10087414Y-11783586D01*
X10101700Y-11769300D01*
X10130271Y-11755014D01*
X10358843Y-12026443D02*
X10373128Y-12040729D01*
X10358843Y-12055014D01*
X10344557Y-12040729D01*
X10358843Y-12026443D01*
X10358843Y-12055014D01*
X10544557Y-11883586D02*
X10515986Y-11869300D01*
X10501700Y-11855014D01*
X10487414Y-11826443D01*
X10487414Y-11812157D01*
X10501700Y-11783586D01*
X10515986Y-11769300D01*
X10544557Y-11755014D01*
X10601700Y-11755014D01*
X10630271Y-11769300D01*
X10644557Y-11783586D01*
X10658843Y-11812157D01*
X10658843Y-11826443D01*
X10644557Y-11855014D01*
X10630271Y-11869300D01*
X10601700Y-11883586D01*
X10544557Y-11883586D01*
X10515986Y-11897871D01*
X10501700Y-11912157D01*
X10487414Y-11940729D01*
X10487414Y-11997871D01*
X10501700Y-12026443D01*
X10515986Y-12040729D01*
X10544557Y-12055014D01*
X10601700Y-12055014D01*
X10630271Y-12040729D01*
X10644557Y-12026443D01*
X10658843Y-11997871D01*
X10658843Y-11940729D01*
X10644557Y-11912157D01*
X10630271Y-11897871D01*
X10601700Y-11883586D01*
X10844557Y-11755014D02*
X10873128Y-11755014D01*
X10901700Y-11769300D01*
X10915986Y-11783586D01*
X10930271Y-11812157D01*
X10944557Y-11869300D01*
X10944557Y-11940729D01*
X10930271Y-11997871D01*
X10915986Y-12026443D01*
X10901700Y-12040729D01*
X10873128Y-12055014D01*
X10844557Y-12055014D01*
X10815986Y-12040729D01*
X10801700Y-12026443D01*
X10787414Y-11997871D01*
X10773128Y-11940729D01*
X10773128Y-11869300D01*
X10787414Y-11812157D01*
X10801700Y-11783586D01*
X10815986Y-11769300D01*
X10844557Y-11755014D01*
X11073128Y-12055014D02*
X11073128Y-11855014D01*
X11073128Y-11883586D02*
X11087414Y-11869300D01*
X11115986Y-11855014D01*
X11158843Y-11855014D01*
X11187414Y-11869300D01*
X11201700Y-11897871D01*
X11201700Y-12055014D01*
X11201700Y-11897871D02*
X11215986Y-11869300D01*
X11244557Y-11855014D01*
X11287414Y-11855014D01*
X11315986Y-11869300D01*
X11330271Y-11897871D01*
X11330271Y-12055014D01*
X11473128Y-12055014D02*
X11473128Y-11855014D01*
X11473128Y-11883586D02*
X11487414Y-11869300D01*
X11515986Y-11855014D01*
X11558843Y-11855014D01*
X11587414Y-11869300D01*
X11601700Y-11897871D01*
X11601700Y-12055014D01*
X11601700Y-11897871D02*
X11615986Y-11869300D01*
X11644557Y-11855014D01*
X11687414Y-11855014D01*
X11715986Y-11869300D01*
X11730271Y-11897871D01*
X11730271Y-12055014D01*
X12315986Y-11740729D02*
X12058843Y-12126443D01*
X12701700Y-11755014D02*
X12730271Y-11755014D01*
X12758843Y-11769300D01*
X12773128Y-11783586D01*
X12787414Y-11812157D01*
X12801700Y-11869300D01*
X12801700Y-11940729D01*
X12787414Y-11997871D01*
X12773128Y-12026443D01*
X12758843Y-12040729D01*
X12730271Y-12055014D01*
X12701700Y-12055014D01*
X12673128Y-12040729D01*
X12658843Y-12026443D01*
X12644557Y-11997871D01*
X12630271Y-11940729D01*
X12630271Y-11869300D01*
X12644557Y-11812157D01*
X12658843Y-11783586D01*
X12673128Y-11769300D01*
X12701700Y-11755014D01*
X12930271Y-12026443D02*
X12944557Y-12040729D01*
X12930271Y-12055014D01*
X12915986Y-12040729D01*
X12930271Y-12026443D01*
X12930271Y-12055014D01*
X13130271Y-11755014D02*
X13158843Y-11755014D01*
X13187414Y-11769300D01*
X13201700Y-11783586D01*
X13215986Y-11812157D01*
X13230271Y-11869300D01*
X13230271Y-11940729D01*
X13215986Y-11997871D01*
X13201700Y-12026443D01*
X13187414Y-12040729D01*
X13158843Y-12055014D01*
X13130271Y-12055014D01*
X13101700Y-12040729D01*
X13087414Y-12026443D01*
X13073128Y-11997871D01*
X13058843Y-11940729D01*
X13058843Y-11869300D01*
X13073128Y-11812157D01*
X13087414Y-11783586D01*
X13101700Y-11769300D01*
X13130271Y-11755014D01*
X13330271Y-11755014D02*
X13515986Y-11755014D01*
X13415986Y-11869300D01*
X13458843Y-11869300D01*
X13487414Y-11883586D01*
X13501700Y-11897871D01*
X13515986Y-11926443D01*
X13515986Y-11997871D01*
X13501700Y-12026443D01*
X13487414Y-12040729D01*
X13458843Y-12055014D01*
X13373128Y-12055014D01*
X13344557Y-12040729D01*
X13330271Y-12026443D01*
X13801700Y-12055014D02*
X13630271Y-12055014D01*
X13715986Y-12055014D02*
X13715986Y-11755014D01*
X13687414Y-11797871D01*
X13658843Y-11826443D01*
X13630271Y-11840729D01*
X13915986Y-11755014D02*
X13915986Y-11812157D01*
X14030271Y-11755014D02*
X14030271Y-11812157D01*
X14473128Y-12169300D02*
X14458843Y-12155014D01*
X14430271Y-12112157D01*
X14415986Y-12083586D01*
X14401700Y-12040729D01*
X14387414Y-11969300D01*
X14387414Y-11912157D01*
X14401700Y-11840729D01*
X14415986Y-11797871D01*
X14430271Y-11769300D01*
X14458843Y-11726443D01*
X14473128Y-11712157D01*
X14715986Y-11855014D02*
X14715986Y-12055014D01*
X14644557Y-11740729D02*
X14573128Y-11955014D01*
X14758843Y-11955014D01*
X14930271Y-11755014D02*
X14958843Y-11755014D01*
X14987414Y-11769300D01*
X15001700Y-11783586D01*
X15015986Y-11812157D01*
X15030271Y-11869300D01*
X15030271Y-11940729D01*
X15015986Y-11997871D01*
X15001700Y-12026443D01*
X14987414Y-12040729D01*
X14958843Y-12055014D01*
X14930271Y-12055014D01*
X14901700Y-12040729D01*
X14887414Y-12026443D01*
X14873128Y-11997871D01*
X14858843Y-11940729D01*
X14858843Y-11869300D01*
X14873128Y-11812157D01*
X14887414Y-11783586D01*
X14901700Y-11769300D01*
X14930271Y-11755014D01*
X15387414Y-12055014D02*
X15387414Y-11755014D01*
X15515986Y-12055014D02*
X15515986Y-11897871D01*
X15501700Y-11869300D01*
X15473128Y-11855014D01*
X15430271Y-11855014D01*
X15401700Y-11869300D01*
X15387414Y-11883586D01*
X15701700Y-12055014D02*
X15673128Y-12040729D01*
X15658843Y-12026443D01*
X15644557Y-11997871D01*
X15644557Y-11912157D01*
X15658843Y-11883586D01*
X15673128Y-11869300D01*
X15701700Y-11855014D01*
X15744557Y-11855014D01*
X15773128Y-11869300D01*
X15787414Y-11883586D01*
X15801700Y-11912157D01*
X15801700Y-11997871D01*
X15787414Y-12026443D01*
X15773128Y-12040729D01*
X15744557Y-12055014D01*
X15701700Y-12055014D01*
X15973128Y-12055014D02*
X15944557Y-12040729D01*
X15930271Y-12012157D01*
X15930271Y-11755014D01*
X16201700Y-12040729D02*
X16173128Y-12055014D01*
X16115986Y-12055014D01*
X16087414Y-12040729D01*
X16073128Y-12012157D01*
X16073128Y-11897871D01*
X16087414Y-11869300D01*
X16115986Y-11855014D01*
X16173128Y-11855014D01*
X16201700Y-11869300D01*
X16215986Y-11897871D01*
X16215986Y-11926443D01*
X16073128Y-11955014D01*
X16330271Y-12040729D02*
X16358843Y-12055014D01*
X16415986Y-12055014D01*
X16444557Y-12040729D01*
X16458843Y-12012157D01*
X16458843Y-11997871D01*
X16444557Y-11969300D01*
X16415986Y-11955014D01*
X16373128Y-11955014D01*
X16344557Y-11940729D01*
X16330271Y-11912157D01*
X16330271Y-11897871D01*
X16344557Y-11869300D01*
X16373128Y-11855014D01*
X16415986Y-11855014D01*
X16444557Y-11869300D01*
X16558843Y-12169300D02*
X16573128Y-12155014D01*
X16601700Y-12112157D01*
X16615986Y-12083586D01*
X16630271Y-12040729D01*
X16644557Y-11969300D01*
X16644557Y-11912157D01*
X16630271Y-11840729D01*
X16615986Y-11797871D01*
X16601700Y-11769300D01*
X16573128Y-11726443D01*
X16558843Y-11712157D01*
X9736700Y-12365300D02*
X9786700Y-12315300D01*
X9736700Y-12265300D01*
X9686700Y-12315300D01*
X9736700Y-12365300D01*
X10230271Y-12451014D02*
X10058843Y-12451014D01*
X10144557Y-12451014D02*
X10144557Y-12151014D01*
X10115986Y-12193871D01*
X10087414Y-12222443D01*
X10058843Y-12236729D01*
X10358843Y-12422443D02*
X10373128Y-12436729D01*
X10358843Y-12451014D01*
X10344557Y-12436729D01*
X10358843Y-12422443D01*
X10358843Y-12451014D01*
X10558843Y-12151014D02*
X10587414Y-12151014D01*
X10615986Y-12165300D01*
X10630271Y-12179586D01*
X10644557Y-12208157D01*
X10658843Y-12265300D01*
X10658843Y-12336729D01*
X10644557Y-12393871D01*
X10630271Y-12422443D01*
X10615986Y-12436729D01*
X10587414Y-12451014D01*
X10558843Y-12451014D01*
X10530271Y-12436729D01*
X10515986Y-12422443D01*
X10501700Y-12393871D01*
X10487414Y-12336729D01*
X10487414Y-12265300D01*
X10501700Y-12208157D01*
X10515986Y-12179586D01*
X10530271Y-12165300D01*
X10558843Y-12151014D01*
X10844557Y-12151014D02*
X10873128Y-12151014D01*
X10901700Y-12165300D01*
X10915986Y-12179586D01*
X10930271Y-12208157D01*
X10944557Y-12265300D01*
X10944557Y-12336729D01*
X10930271Y-12393871D01*
X10915986Y-12422443D01*
X10901700Y-12436729D01*
X10873128Y-12451014D01*
X10844557Y-12451014D01*
X10815986Y-12436729D01*
X10801700Y-12422443D01*
X10787414Y-12393871D01*
X10773128Y-12336729D01*
X10773128Y-12265300D01*
X10787414Y-12208157D01*
X10801700Y-12179586D01*
X10815986Y-12165300D01*
X10844557Y-12151014D01*
X11073128Y-12451014D02*
X11073128Y-12251014D01*
X11073128Y-12279586D02*
X11087414Y-12265300D01*
X11115986Y-12251014D01*
X11158843Y-12251014D01*
X11187414Y-12265300D01*
X11201700Y-12293871D01*
X11201700Y-12451014D01*
X11201700Y-12293871D02*
X11215986Y-12265300D01*
X11244557Y-12251014D01*
X11287414Y-12251014D01*
X11315986Y-12265300D01*
X11330271Y-12293871D01*
X11330271Y-12451014D01*
X11473128Y-12451014D02*
X11473128Y-12251014D01*
X11473128Y-12279586D02*
X11487414Y-12265300D01*
X11515986Y-12251014D01*
X11558843Y-12251014D01*
X11587414Y-12265300D01*
X11601700Y-12293871D01*
X11601700Y-12451014D01*
X11601700Y-12293871D02*
X11615986Y-12265300D01*
X11644557Y-12251014D01*
X11687414Y-12251014D01*
X11715986Y-12265300D01*
X11730271Y-12293871D01*
X11730271Y-12451014D01*
X12315986Y-12136729D02*
X12058843Y-12522443D01*
X12701700Y-12151014D02*
X12730271Y-12151014D01*
X12758843Y-12165300D01*
X12773128Y-12179586D01*
X12787414Y-12208157D01*
X12801700Y-12265300D01*
X12801700Y-12336729D01*
X12787414Y-12393871D01*
X12773128Y-12422443D01*
X12758843Y-12436729D01*
X12730271Y-12451014D01*
X12701700Y-12451014D01*
X12673128Y-12436729D01*
X12658843Y-12422443D01*
X12644557Y-12393871D01*
X12630271Y-12336729D01*
X12630271Y-12265300D01*
X12644557Y-12208157D01*
X12658843Y-12179586D01*
X12673128Y-12165300D01*
X12701700Y-12151014D01*
X12930271Y-12422443D02*
X12944557Y-12436729D01*
X12930271Y-12451014D01*
X12915986Y-12436729D01*
X12930271Y-12422443D01*
X12930271Y-12451014D01*
X13130271Y-12151014D02*
X13158843Y-12151014D01*
X13187414Y-12165300D01*
X13201700Y-12179586D01*
X13215986Y-12208157D01*
X13230271Y-12265300D01*
X13230271Y-12336729D01*
X13215986Y-12393871D01*
X13201700Y-12422443D01*
X13187414Y-12436729D01*
X13158843Y-12451014D01*
X13130271Y-12451014D01*
X13101700Y-12436729D01*
X13087414Y-12422443D01*
X13073128Y-12393871D01*
X13058843Y-12336729D01*
X13058843Y-12265300D01*
X13073128Y-12208157D01*
X13087414Y-12179586D01*
X13101700Y-12165300D01*
X13130271Y-12151014D01*
X13330271Y-12151014D02*
X13515986Y-12151014D01*
X13415986Y-12265300D01*
X13458843Y-12265300D01*
X13487414Y-12279586D01*
X13501700Y-12293871D01*
X13515986Y-12322443D01*
X13515986Y-12393871D01*
X13501700Y-12422443D01*
X13487414Y-12436729D01*
X13458843Y-12451014D01*
X13373128Y-12451014D01*
X13344557Y-12436729D01*
X13330271Y-12422443D01*
X13658843Y-12451014D02*
X13715986Y-12451014D01*
X13744557Y-12436729D01*
X13758843Y-12422443D01*
X13787414Y-12379586D01*
X13801700Y-12322443D01*
X13801700Y-12208157D01*
X13787414Y-12179586D01*
X13773128Y-12165300D01*
X13744557Y-12151014D01*
X13687414Y-12151014D01*
X13658843Y-12165300D01*
X13644557Y-12179586D01*
X13630271Y-12208157D01*
X13630271Y-12279586D01*
X13644557Y-12308157D01*
X13658843Y-12322443D01*
X13687414Y-12336729D01*
X13744557Y-12336729D01*
X13773128Y-12322443D01*
X13787414Y-12308157D01*
X13801700Y-12279586D01*
X13915986Y-12151014D02*
X13915986Y-12208157D01*
X14030271Y-12151014D02*
X14030271Y-12208157D01*
X14473128Y-12565300D02*
X14458843Y-12551014D01*
X14430271Y-12508157D01*
X14415986Y-12479586D01*
X14401700Y-12436729D01*
X14387414Y-12365300D01*
X14387414Y-12308157D01*
X14401700Y-12236729D01*
X14415986Y-12193871D01*
X14430271Y-12165300D01*
X14458843Y-12122443D01*
X14473128Y-12108157D01*
X14715986Y-12151014D02*
X14658843Y-12151014D01*
X14630271Y-12165300D01*
X14615986Y-12179586D01*
X14587414Y-12222443D01*
X14573128Y-12279586D01*
X14573128Y-12393871D01*
X14587414Y-12422443D01*
X14601700Y-12436729D01*
X14630271Y-12451014D01*
X14687414Y-12451014D01*
X14715986Y-12436729D01*
X14730271Y-12422443D01*
X14744557Y-12393871D01*
X14744557Y-12322443D01*
X14730271Y-12293871D01*
X14715986Y-12279586D01*
X14687414Y-12265300D01*
X14630271Y-12265300D01*
X14601700Y-12279586D01*
X14587414Y-12293871D01*
X14573128Y-12322443D01*
X15101700Y-12451014D02*
X15101700Y-12151014D01*
X15230271Y-12451014D02*
X15230271Y-12293871D01*
X15215986Y-12265300D01*
X15187414Y-12251014D01*
X15144557Y-12251014D01*
X15115986Y-12265300D01*
X15101700Y-12279586D01*
X15415986Y-12451014D02*
X15387414Y-12436729D01*
X15373128Y-12422443D01*
X15358843Y-12393871D01*
X15358843Y-12308157D01*
X15373128Y-12279586D01*
X15387414Y-12265300D01*
X15415986Y-12251014D01*
X15458843Y-12251014D01*
X15487414Y-12265300D01*
X15501700Y-12279586D01*
X15515986Y-12308157D01*
X15515986Y-12393871D01*
X15501700Y-12422443D01*
X15487414Y-12436729D01*
X15458843Y-12451014D01*
X15415986Y-12451014D01*
X15687414Y-12451014D02*
X15658843Y-12436729D01*
X15644557Y-12408157D01*
X15644557Y-12151014D01*
X15915986Y-12436729D02*
X15887414Y-12451014D01*
X15830271Y-12451014D01*
X15801700Y-12436729D01*
X15787414Y-12408157D01*
X15787414Y-12293871D01*
X15801700Y-12265300D01*
X15830271Y-12251014D01*
X15887414Y-12251014D01*
X15915986Y-12265300D01*
X15930271Y-12293871D01*
X15930271Y-12322443D01*
X15787414Y-12351014D01*
X16044557Y-12436729D02*
X16073128Y-12451014D01*
X16130271Y-12451014D01*
X16158843Y-12436729D01*
X16173128Y-12408157D01*
X16173128Y-12393871D01*
X16158843Y-12365300D01*
X16130271Y-12351014D01*
X16087414Y-12351014D01*
X16058843Y-12336729D01*
X16044557Y-12308157D01*
X16044557Y-12293871D01*
X16058843Y-12265300D01*
X16087414Y-12251014D01*
X16130271Y-12251014D01*
X16158843Y-12265300D01*
X16273128Y-12565300D02*
X16287414Y-12551014D01*
X16315986Y-12508157D01*
X16330271Y-12479586D01*
X16344557Y-12436729D01*
X16358843Y-12365300D01*
X16358843Y-12308157D01*
X16344557Y-12236729D01*
X16330271Y-12193871D01*
X16315986Y-12165300D01*
X16287414Y-12122443D01*
X16273128Y-12108157D01*
M02*
