G04 #@! TF.GenerationSoftware,KiCad,Pcbnew,(5.1.5)-3*
G04 #@! TF.CreationDate,2021-01-25T20:45:38-05:00*
G04 #@! TF.ProjectId,DIP40-XC9572XL,44495034-302d-4584-9339-353732584c2e,1*
G04 #@! TF.SameCoordinates,Original*
G04 #@! TF.FileFunction,Legend,Bot*
G04 #@! TF.FilePolarity,Positive*
%FSLAX46Y46*%
G04 Gerber Fmt 4.6, Leading zero omitted, Abs format (unit mm)*
G04 Created by KiCad (PCBNEW (5.1.5)-3) date 2021-01-25 20:45:38*
%MOMM*%
%LPD*%
G04 APERTURE LIST*
%ADD10C,0.250000*%
%ADD11C,0.180000*%
%ADD12C,0.100000*%
%ADD13C,0.120000*%
%ADD14C,0.150000*%
G04 APERTURE END LIST*
D10*
X102425571Y-82121857D02*
X100925571Y-82121857D01*
X100925571Y-82479000D01*
X100997000Y-82693285D01*
X101139857Y-82836142D01*
X101282714Y-82907571D01*
X101568428Y-82979000D01*
X101782714Y-82979000D01*
X102068428Y-82907571D01*
X102211285Y-82836142D01*
X102354142Y-82693285D01*
X102425571Y-82479000D01*
X102425571Y-82121857D01*
X102425571Y-83621857D02*
X100925571Y-83621857D01*
X102425571Y-84336142D02*
X100925571Y-84336142D01*
X100925571Y-84907571D01*
X100997000Y-85050428D01*
X101068428Y-85121857D01*
X101211285Y-85193285D01*
X101425571Y-85193285D01*
X101568428Y-85121857D01*
X101639857Y-85050428D01*
X101711285Y-84907571D01*
X101711285Y-84336142D01*
X101854142Y-85836142D02*
X101854142Y-86979000D01*
X101425571Y-88336142D02*
X102425571Y-88336142D01*
X100854142Y-87979000D02*
X101925571Y-87621857D01*
X101925571Y-88550428D01*
X100925571Y-89407571D02*
X100925571Y-89550428D01*
X100997000Y-89693285D01*
X101068428Y-89764714D01*
X101211285Y-89836142D01*
X101497000Y-89907571D01*
X101854142Y-89907571D01*
X102139857Y-89836142D01*
X102282714Y-89764714D01*
X102354142Y-89693285D01*
X102425571Y-89550428D01*
X102425571Y-89407571D01*
X102354142Y-89264714D01*
X102282714Y-89193285D01*
X102139857Y-89121857D01*
X101854142Y-89050428D01*
X101497000Y-89050428D01*
X101211285Y-89121857D01*
X101068428Y-89193285D01*
X100997000Y-89264714D01*
X100925571Y-89407571D01*
X103425571Y-80550428D02*
X104925571Y-81550428D01*
X103425571Y-81550428D02*
X104925571Y-80550428D01*
X104782714Y-82979000D02*
X104854142Y-82907571D01*
X104925571Y-82693285D01*
X104925571Y-82550428D01*
X104854142Y-82336142D01*
X104711285Y-82193285D01*
X104568428Y-82121857D01*
X104282714Y-82050428D01*
X104068428Y-82050428D01*
X103782714Y-82121857D01*
X103639857Y-82193285D01*
X103497000Y-82336142D01*
X103425571Y-82550428D01*
X103425571Y-82693285D01*
X103497000Y-82907571D01*
X103568428Y-82979000D01*
X104925571Y-83693285D02*
X104925571Y-83979000D01*
X104854142Y-84121857D01*
X104782714Y-84193285D01*
X104568428Y-84336142D01*
X104282714Y-84407571D01*
X103711285Y-84407571D01*
X103568428Y-84336142D01*
X103497000Y-84264714D01*
X103425571Y-84121857D01*
X103425571Y-83836142D01*
X103497000Y-83693285D01*
X103568428Y-83621857D01*
X103711285Y-83550428D01*
X104068428Y-83550428D01*
X104211285Y-83621857D01*
X104282714Y-83693285D01*
X104354142Y-83836142D01*
X104354142Y-84121857D01*
X104282714Y-84264714D01*
X104211285Y-84336142D01*
X104068428Y-84407571D01*
X103425571Y-85764714D02*
X103425571Y-85050428D01*
X104139857Y-84979000D01*
X104068428Y-85050428D01*
X103997000Y-85193285D01*
X103997000Y-85550428D01*
X104068428Y-85693285D01*
X104139857Y-85764714D01*
X104282714Y-85836142D01*
X104639857Y-85836142D01*
X104782714Y-85764714D01*
X104854142Y-85693285D01*
X104925571Y-85550428D01*
X104925571Y-85193285D01*
X104854142Y-85050428D01*
X104782714Y-84979000D01*
X103425571Y-86336142D02*
X103425571Y-87336142D01*
X104925571Y-86693285D01*
X103568428Y-87836142D02*
X103497000Y-87907571D01*
X103425571Y-88050428D01*
X103425571Y-88407571D01*
X103497000Y-88550428D01*
X103568428Y-88621857D01*
X103711285Y-88693285D01*
X103854142Y-88693285D01*
X104068428Y-88621857D01*
X104925571Y-87764714D01*
X104925571Y-88693285D01*
X103425571Y-89193285D02*
X104925571Y-90193285D01*
X103425571Y-90193285D02*
X104925571Y-89193285D01*
X104925571Y-91479000D02*
X104925571Y-90764714D01*
X103425571Y-90764714D01*
D11*
X107222857Y-80064714D02*
X106022857Y-80064714D01*
X106480000Y-80064714D02*
X106422857Y-80179000D01*
X106422857Y-80407571D01*
X106480000Y-80521857D01*
X106537142Y-80579000D01*
X106651428Y-80636142D01*
X106994285Y-80636142D01*
X107108571Y-80579000D01*
X107165714Y-80521857D01*
X107222857Y-80407571D01*
X107222857Y-80179000D01*
X107165714Y-80064714D01*
X106422857Y-81036142D02*
X107222857Y-81321857D01*
X106422857Y-81607571D02*
X107222857Y-81321857D01*
X107508571Y-81207571D01*
X107565714Y-81150428D01*
X107622857Y-81036142D01*
X106022857Y-83321857D02*
X106880000Y-83321857D01*
X107051428Y-83264714D01*
X107165714Y-83150428D01*
X107222857Y-82979000D01*
X107222857Y-82864714D01*
X107222857Y-84407571D02*
X106594285Y-84407571D01*
X106480000Y-84350428D01*
X106422857Y-84236142D01*
X106422857Y-84007571D01*
X106480000Y-83893285D01*
X107165714Y-84407571D02*
X107222857Y-84293285D01*
X107222857Y-84007571D01*
X107165714Y-83893285D01*
X107051428Y-83836142D01*
X106937142Y-83836142D01*
X106822857Y-83893285D01*
X106765714Y-84007571D01*
X106765714Y-84293285D01*
X106708571Y-84407571D01*
X106422857Y-84864714D02*
X107222857Y-85150428D01*
X106422857Y-85436142D02*
X107222857Y-85150428D01*
X107508571Y-85036142D01*
X107565714Y-84979000D01*
X107622857Y-84864714D01*
X107165714Y-85836142D02*
X107222857Y-85950428D01*
X107222857Y-86179000D01*
X107165714Y-86293285D01*
X107051428Y-86350428D01*
X106994285Y-86350428D01*
X106880000Y-86293285D01*
X106822857Y-86179000D01*
X106822857Y-86007571D01*
X106765714Y-85893285D01*
X106651428Y-85836142D01*
X106594285Y-85836142D01*
X106480000Y-85893285D01*
X106422857Y-86007571D01*
X106422857Y-86179000D01*
X106480000Y-86293285D01*
X106422857Y-86693285D02*
X106422857Y-87150428D01*
X106022857Y-86864714D02*
X107051428Y-86864714D01*
X107165714Y-86921857D01*
X107222857Y-87036142D01*
X107222857Y-87150428D01*
X107222857Y-87721857D02*
X107165714Y-87607571D01*
X107108571Y-87550428D01*
X106994285Y-87493285D01*
X106651428Y-87493285D01*
X106537142Y-87550428D01*
X106480000Y-87607571D01*
X106422857Y-87721857D01*
X106422857Y-87893285D01*
X106480000Y-88007571D01*
X106537142Y-88064714D01*
X106651428Y-88121857D01*
X106994285Y-88121857D01*
X107108571Y-88064714D01*
X107165714Y-88007571D01*
X107222857Y-87893285D01*
X107222857Y-87721857D01*
X106422857Y-88636142D02*
X107222857Y-88636142D01*
X106537142Y-88636142D02*
X106480000Y-88693285D01*
X106422857Y-88807571D01*
X106422857Y-88979000D01*
X106480000Y-89093285D01*
X106594285Y-89150428D01*
X107222857Y-89150428D01*
X107222857Y-89721857D02*
X106422857Y-89721857D01*
X106022857Y-89721857D02*
X106080000Y-89664714D01*
X106137142Y-89721857D01*
X106080000Y-89779000D01*
X106022857Y-89721857D01*
X106137142Y-89721857D01*
X107222857Y-90807571D02*
X106594285Y-90807571D01*
X106480000Y-90750428D01*
X106422857Y-90636142D01*
X106422857Y-90407571D01*
X106480000Y-90293285D01*
X107165714Y-90807571D02*
X107222857Y-90693285D01*
X107222857Y-90407571D01*
X107165714Y-90293285D01*
X107051428Y-90236142D01*
X106937142Y-90236142D01*
X106822857Y-90293285D01*
X106765714Y-90407571D01*
X106765714Y-90693285D01*
X106708571Y-90807571D01*
X106422857Y-91379000D02*
X107222857Y-91379000D01*
X106537142Y-91379000D02*
X106480000Y-91436142D01*
X106422857Y-91550428D01*
X106422857Y-91721857D01*
X106480000Y-91836142D01*
X106594285Y-91893285D01*
X107222857Y-91893285D01*
D12*
G36*
X112395000Y-64135000D02*
G01*
X100965000Y-64135000D01*
X100965000Y-52705000D01*
X112395000Y-52705000D01*
X112395000Y-64135000D01*
G37*
X112395000Y-64135000D02*
X100965000Y-64135000D01*
X100965000Y-52705000D01*
X112395000Y-52705000D01*
X112395000Y-64135000D01*
D13*
X102795000Y-50538748D02*
X102795000Y-51061252D01*
X104215000Y-50538748D02*
X104215000Y-51061252D01*
X110565000Y-50538748D02*
X110565000Y-51061252D01*
X109145000Y-50538748D02*
X109145000Y-51061252D01*
X108256000Y-81844248D02*
X108256000Y-82366752D01*
X109676000Y-81844248D02*
X109676000Y-82366752D01*
X105680000Y-51860000D02*
X107680000Y-51860000D01*
X107180000Y-49740000D02*
X105680000Y-49740000D01*
X102520000Y-77500000D02*
X101570000Y-77500000D01*
X101570000Y-77500000D02*
X101570000Y-76550000D01*
X110840000Y-77500000D02*
X111790000Y-77500000D01*
X111790000Y-77500000D02*
X111790000Y-76550000D01*
X102520000Y-67280000D02*
X101570000Y-67280000D01*
X101570000Y-67280000D02*
X101570000Y-68230000D01*
X110840000Y-67280000D02*
X111790000Y-67280000D01*
X111790000Y-67280000D02*
X111790000Y-68230000D01*
X111790000Y-68230000D02*
X113080000Y-68230000D01*
D14*
X102212142Y-50633333D02*
X102259761Y-50585714D01*
X102307380Y-50442857D01*
X102307380Y-50347619D01*
X102259761Y-50204761D01*
X102164523Y-50109523D01*
X102069285Y-50061904D01*
X101878809Y-50014285D01*
X101735952Y-50014285D01*
X101545476Y-50061904D01*
X101450238Y-50109523D01*
X101355000Y-50204761D01*
X101307380Y-50347619D01*
X101307380Y-50442857D01*
X101355000Y-50585714D01*
X101402619Y-50633333D01*
X102307380Y-51585714D02*
X102307380Y-51014285D01*
X102307380Y-51300000D02*
X101307380Y-51300000D01*
X101450238Y-51204761D01*
X101545476Y-51109523D01*
X101593095Y-51014285D01*
X111926642Y-50633333D02*
X111974261Y-50585714D01*
X112021880Y-50442857D01*
X112021880Y-50347619D01*
X111974261Y-50204761D01*
X111879023Y-50109523D01*
X111783785Y-50061904D01*
X111593309Y-50014285D01*
X111450452Y-50014285D01*
X111259976Y-50061904D01*
X111164738Y-50109523D01*
X111069500Y-50204761D01*
X111021880Y-50347619D01*
X111021880Y-50442857D01*
X111069500Y-50585714D01*
X111117119Y-50633333D01*
X111117119Y-51014285D02*
X111069500Y-51061904D01*
X111021880Y-51157142D01*
X111021880Y-51395238D01*
X111069500Y-51490476D01*
X111117119Y-51538095D01*
X111212357Y-51585714D01*
X111307595Y-51585714D01*
X111450452Y-51538095D01*
X112021880Y-50966666D01*
X112021880Y-51585714D01*
X111228142Y-81938833D02*
X111275761Y-81891214D01*
X111323380Y-81748357D01*
X111323380Y-81653119D01*
X111275761Y-81510261D01*
X111180523Y-81415023D01*
X111085285Y-81367404D01*
X110894809Y-81319785D01*
X110751952Y-81319785D01*
X110561476Y-81367404D01*
X110466238Y-81415023D01*
X110371000Y-81510261D01*
X110323380Y-81653119D01*
X110323380Y-81748357D01*
X110371000Y-81891214D01*
X110418619Y-81938833D01*
X110323380Y-82272166D02*
X110323380Y-82891214D01*
X110704333Y-82557880D01*
X110704333Y-82700738D01*
X110751952Y-82795976D01*
X110799571Y-82843595D01*
X110894809Y-82891214D01*
X111132904Y-82891214D01*
X111228142Y-82843595D01*
X111275761Y-82795976D01*
X111323380Y-82700738D01*
X111323380Y-82415023D01*
X111275761Y-82319785D01*
X111228142Y-82272166D01*
X107441904Y-48252380D02*
X107441904Y-49061904D01*
X107394285Y-49157142D01*
X107346666Y-49204761D01*
X107251428Y-49252380D01*
X107060952Y-49252380D01*
X106965714Y-49204761D01*
X106918095Y-49157142D01*
X106870476Y-49061904D01*
X106870476Y-48252380D01*
X105870476Y-49252380D02*
X106441904Y-49252380D01*
X106156190Y-49252380D02*
X106156190Y-48252380D01*
X106251428Y-48395238D01*
X106346666Y-48490476D01*
X106441904Y-48538095D01*
X107441904Y-64492380D02*
X107441904Y-65301904D01*
X107394285Y-65397142D01*
X107346666Y-65444761D01*
X107251428Y-65492380D01*
X107060952Y-65492380D01*
X106965714Y-65444761D01*
X106918095Y-65397142D01*
X106870476Y-65301904D01*
X106870476Y-64492380D01*
X106441904Y-64587619D02*
X106394285Y-64540000D01*
X106299047Y-64492380D01*
X106060952Y-64492380D01*
X105965714Y-64540000D01*
X105918095Y-64587619D01*
X105870476Y-64682857D01*
X105870476Y-64778095D01*
X105918095Y-64920952D01*
X106489523Y-65492380D01*
X105870476Y-65492380D01*
M02*
