G04 #@! TF.GenerationSoftware,KiCad,Pcbnew,(5.1.5)-3*
G04 #@! TF.CreationDate,2021-01-25T20:45:38-05:00*
G04 #@! TF.ProjectId,DIP40-XC9572XL,44495034-302d-4584-9339-353732584c2e,1*
G04 #@! TF.SameCoordinates,Original*
G04 #@! TF.FileFunction,Copper,L1,Top*
G04 #@! TF.FilePolarity,Positive*
%FSLAX46Y46*%
G04 Gerber Fmt 4.6, Leading zero omitted, Abs format (unit mm)*
G04 Created by KiCad (PCBNEW (5.1.5)-3) date 2021-01-25 20:45:38*
%MOMM*%
%LPD*%
G04 APERTURE LIST*
%ADD10R,1.700000X1.700000*%
%ADD11O,1.700000X1.700000*%
%ADD12R,2.510000X1.000000*%
%ADD13R,1.000000X1.500000*%
%ADD14C,0.100000*%
%ADD15R,1.600000X1.600000*%
%ADD16O,1.600000X1.600000*%
%ADD17R,1.000000X1.000000*%
%ADD18O,1.000000X1.000000*%
%ADD19C,0.500000*%
%ADD20C,0.350000*%
%ADD21C,0.588000*%
%ADD22C,0.295000*%
%ADD23C,0.439000*%
%ADD24C,0.238000*%
G04 APERTURE END LIST*
D10*
X102870000Y-96520000D03*
D11*
X102870000Y-93980000D03*
X105410000Y-96520000D03*
X105410000Y-93980000D03*
X107950000Y-93980000D03*
X110490000Y-93980000D03*
D12*
X105025000Y-67310000D03*
X105025000Y-72390000D03*
X105025000Y-77470000D03*
X108335000Y-64770000D03*
X108335000Y-69850000D03*
X108335000Y-74930000D03*
X108335000Y-80010000D03*
D13*
X106680000Y-51435000D03*
G04 #@! TA.AperFunction,SMDPad,CuDef*
D14*
G36*
X107980000Y-50685602D02*
G01*
X108004534Y-50685602D01*
X108053365Y-50690412D01*
X108101490Y-50699984D01*
X108148445Y-50714228D01*
X108193778Y-50733005D01*
X108237051Y-50756136D01*
X108277850Y-50783396D01*
X108315779Y-50814524D01*
X108350476Y-50849221D01*
X108381604Y-50887150D01*
X108408864Y-50927949D01*
X108431995Y-50971222D01*
X108450772Y-51016555D01*
X108465016Y-51063510D01*
X108474588Y-51111635D01*
X108479398Y-51160466D01*
X108479398Y-51185000D01*
X108480000Y-51185000D01*
X108480000Y-51685000D01*
X108479398Y-51685000D01*
X108479398Y-51709534D01*
X108474588Y-51758365D01*
X108465016Y-51806490D01*
X108450772Y-51853445D01*
X108431995Y-51898778D01*
X108408864Y-51942051D01*
X108381604Y-51982850D01*
X108350476Y-52020779D01*
X108315779Y-52055476D01*
X108277850Y-52086604D01*
X108237051Y-52113864D01*
X108193778Y-52136995D01*
X108148445Y-52155772D01*
X108101490Y-52170016D01*
X108053365Y-52179588D01*
X108004534Y-52184398D01*
X107980000Y-52184398D01*
X107980000Y-52185000D01*
X107430000Y-52185000D01*
X107430000Y-50685000D01*
X107980000Y-50685000D01*
X107980000Y-50685602D01*
G37*
G04 #@! TD.AperFunction*
G04 #@! TA.AperFunction,SMDPad,CuDef*
G36*
X105930000Y-52185000D02*
G01*
X105380000Y-52185000D01*
X105380000Y-52184398D01*
X105355466Y-52184398D01*
X105306635Y-52179588D01*
X105258510Y-52170016D01*
X105211555Y-52155772D01*
X105166222Y-52136995D01*
X105122949Y-52113864D01*
X105082150Y-52086604D01*
X105044221Y-52055476D01*
X105009524Y-52020779D01*
X104978396Y-51982850D01*
X104951136Y-51942051D01*
X104928005Y-51898778D01*
X104909228Y-51853445D01*
X104894984Y-51806490D01*
X104885412Y-51758365D01*
X104880602Y-51709534D01*
X104880602Y-51685000D01*
X104880000Y-51685000D01*
X104880000Y-51185000D01*
X104880602Y-51185000D01*
X104880602Y-51160466D01*
X104885412Y-51111635D01*
X104894984Y-51063510D01*
X104909228Y-51016555D01*
X104928005Y-50971222D01*
X104951136Y-50927949D01*
X104978396Y-50887150D01*
X105009524Y-50849221D01*
X105044221Y-50814524D01*
X105082150Y-50783396D01*
X105122949Y-50756136D01*
X105166222Y-50733005D01*
X105211555Y-50714228D01*
X105258510Y-50699984D01*
X105306635Y-50690412D01*
X105355466Y-50685602D01*
X105380000Y-50685602D01*
X105380000Y-50685000D01*
X105930000Y-50685000D01*
X105930000Y-52185000D01*
G37*
G04 #@! TD.AperFunction*
D13*
X106680000Y-55245000D03*
G04 #@! TA.AperFunction,SMDPad,CuDef*
D14*
G36*
X107980000Y-54495602D02*
G01*
X108004534Y-54495602D01*
X108053365Y-54500412D01*
X108101490Y-54509984D01*
X108148445Y-54524228D01*
X108193778Y-54543005D01*
X108237051Y-54566136D01*
X108277850Y-54593396D01*
X108315779Y-54624524D01*
X108350476Y-54659221D01*
X108381604Y-54697150D01*
X108408864Y-54737949D01*
X108431995Y-54781222D01*
X108450772Y-54826555D01*
X108465016Y-54873510D01*
X108474588Y-54921635D01*
X108479398Y-54970466D01*
X108479398Y-54995000D01*
X108480000Y-54995000D01*
X108480000Y-55495000D01*
X108479398Y-55495000D01*
X108479398Y-55519534D01*
X108474588Y-55568365D01*
X108465016Y-55616490D01*
X108450772Y-55663445D01*
X108431995Y-55708778D01*
X108408864Y-55752051D01*
X108381604Y-55792850D01*
X108350476Y-55830779D01*
X108315779Y-55865476D01*
X108277850Y-55896604D01*
X108237051Y-55923864D01*
X108193778Y-55946995D01*
X108148445Y-55965772D01*
X108101490Y-55980016D01*
X108053365Y-55989588D01*
X108004534Y-55994398D01*
X107980000Y-55994398D01*
X107980000Y-55995000D01*
X107430000Y-55995000D01*
X107430000Y-54495000D01*
X107980000Y-54495000D01*
X107980000Y-54495602D01*
G37*
G04 #@! TD.AperFunction*
G04 #@! TA.AperFunction,SMDPad,CuDef*
G36*
X105930000Y-55995000D02*
G01*
X105380000Y-55995000D01*
X105380000Y-55994398D01*
X105355466Y-55994398D01*
X105306635Y-55989588D01*
X105258510Y-55980016D01*
X105211555Y-55965772D01*
X105166222Y-55946995D01*
X105122949Y-55923864D01*
X105082150Y-55896604D01*
X105044221Y-55865476D01*
X105009524Y-55830779D01*
X104978396Y-55792850D01*
X104951136Y-55752051D01*
X104928005Y-55708778D01*
X104909228Y-55663445D01*
X104894984Y-55616490D01*
X104885412Y-55568365D01*
X104880602Y-55519534D01*
X104880602Y-55495000D01*
X104880000Y-55495000D01*
X104880000Y-54995000D01*
X104880602Y-54995000D01*
X104880602Y-54970466D01*
X104885412Y-54921635D01*
X104894984Y-54873510D01*
X104909228Y-54826555D01*
X104928005Y-54781222D01*
X104951136Y-54737949D01*
X104978396Y-54697150D01*
X105009524Y-54659221D01*
X105044221Y-54624524D01*
X105082150Y-54593396D01*
X105122949Y-54566136D01*
X105166222Y-54543005D01*
X105211555Y-54524228D01*
X105258510Y-54509984D01*
X105306635Y-54500412D01*
X105355466Y-54495602D01*
X105380000Y-54495602D01*
X105380000Y-54495000D01*
X105930000Y-54495000D01*
X105930000Y-55995000D01*
G37*
G04 #@! TD.AperFunction*
G04 #@! TA.AperFunction,SMDPad,CuDef*
G36*
X105930000Y-59805000D02*
G01*
X105380000Y-59805000D01*
X105380000Y-59804398D01*
X105355466Y-59804398D01*
X105306635Y-59799588D01*
X105258510Y-59790016D01*
X105211555Y-59775772D01*
X105166222Y-59756995D01*
X105122949Y-59733864D01*
X105082150Y-59706604D01*
X105044221Y-59675476D01*
X105009524Y-59640779D01*
X104978396Y-59602850D01*
X104951136Y-59562051D01*
X104928005Y-59518778D01*
X104909228Y-59473445D01*
X104894984Y-59426490D01*
X104885412Y-59378365D01*
X104880602Y-59329534D01*
X104880602Y-59305000D01*
X104880000Y-59305000D01*
X104880000Y-58805000D01*
X104880602Y-58805000D01*
X104880602Y-58780466D01*
X104885412Y-58731635D01*
X104894984Y-58683510D01*
X104909228Y-58636555D01*
X104928005Y-58591222D01*
X104951136Y-58547949D01*
X104978396Y-58507150D01*
X105009524Y-58469221D01*
X105044221Y-58434524D01*
X105082150Y-58403396D01*
X105122949Y-58376136D01*
X105166222Y-58353005D01*
X105211555Y-58334228D01*
X105258510Y-58319984D01*
X105306635Y-58310412D01*
X105355466Y-58305602D01*
X105380000Y-58305602D01*
X105380000Y-58305000D01*
X105930000Y-58305000D01*
X105930000Y-59805000D01*
G37*
G04 #@! TD.AperFunction*
G04 #@! TA.AperFunction,SMDPad,CuDef*
G36*
X107980000Y-58305602D02*
G01*
X108004534Y-58305602D01*
X108053365Y-58310412D01*
X108101490Y-58319984D01*
X108148445Y-58334228D01*
X108193778Y-58353005D01*
X108237051Y-58376136D01*
X108277850Y-58403396D01*
X108315779Y-58434524D01*
X108350476Y-58469221D01*
X108381604Y-58507150D01*
X108408864Y-58547949D01*
X108431995Y-58591222D01*
X108450772Y-58636555D01*
X108465016Y-58683510D01*
X108474588Y-58731635D01*
X108479398Y-58780466D01*
X108479398Y-58805000D01*
X108480000Y-58805000D01*
X108480000Y-59305000D01*
X108479398Y-59305000D01*
X108479398Y-59329534D01*
X108474588Y-59378365D01*
X108465016Y-59426490D01*
X108450772Y-59473445D01*
X108431995Y-59518778D01*
X108408864Y-59562051D01*
X108381604Y-59602850D01*
X108350476Y-59640779D01*
X108315779Y-59675476D01*
X108277850Y-59706604D01*
X108237051Y-59733864D01*
X108193778Y-59756995D01*
X108148445Y-59775772D01*
X108101490Y-59790016D01*
X108053365Y-59799588D01*
X108004534Y-59804398D01*
X107980000Y-59804398D01*
X107980000Y-59805000D01*
X107430000Y-59805000D01*
X107430000Y-58305000D01*
X107980000Y-58305000D01*
X107980000Y-58305602D01*
G37*
G04 #@! TD.AperFunction*
D13*
X106680000Y-59055000D03*
G04 #@! TA.AperFunction,SMDPad,CuDef*
D14*
G36*
X105930000Y-87110000D02*
G01*
X105380000Y-87110000D01*
X105380000Y-87109398D01*
X105355466Y-87109398D01*
X105306635Y-87104588D01*
X105258510Y-87095016D01*
X105211555Y-87080772D01*
X105166222Y-87061995D01*
X105122949Y-87038864D01*
X105082150Y-87011604D01*
X105044221Y-86980476D01*
X105009524Y-86945779D01*
X104978396Y-86907850D01*
X104951136Y-86867051D01*
X104928005Y-86823778D01*
X104909228Y-86778445D01*
X104894984Y-86731490D01*
X104885412Y-86683365D01*
X104880602Y-86634534D01*
X104880602Y-86610000D01*
X104880000Y-86610000D01*
X104880000Y-86110000D01*
X104880602Y-86110000D01*
X104880602Y-86085466D01*
X104885412Y-86036635D01*
X104894984Y-85988510D01*
X104909228Y-85941555D01*
X104928005Y-85896222D01*
X104951136Y-85852949D01*
X104978396Y-85812150D01*
X105009524Y-85774221D01*
X105044221Y-85739524D01*
X105082150Y-85708396D01*
X105122949Y-85681136D01*
X105166222Y-85658005D01*
X105211555Y-85639228D01*
X105258510Y-85624984D01*
X105306635Y-85615412D01*
X105355466Y-85610602D01*
X105380000Y-85610602D01*
X105380000Y-85610000D01*
X105930000Y-85610000D01*
X105930000Y-87110000D01*
G37*
G04 #@! TD.AperFunction*
G04 #@! TA.AperFunction,SMDPad,CuDef*
G36*
X107980000Y-85610602D02*
G01*
X108004534Y-85610602D01*
X108053365Y-85615412D01*
X108101490Y-85624984D01*
X108148445Y-85639228D01*
X108193778Y-85658005D01*
X108237051Y-85681136D01*
X108277850Y-85708396D01*
X108315779Y-85739524D01*
X108350476Y-85774221D01*
X108381604Y-85812150D01*
X108408864Y-85852949D01*
X108431995Y-85896222D01*
X108450772Y-85941555D01*
X108465016Y-85988510D01*
X108474588Y-86036635D01*
X108479398Y-86085466D01*
X108479398Y-86110000D01*
X108480000Y-86110000D01*
X108480000Y-86610000D01*
X108479398Y-86610000D01*
X108479398Y-86634534D01*
X108474588Y-86683365D01*
X108465016Y-86731490D01*
X108450772Y-86778445D01*
X108431995Y-86823778D01*
X108408864Y-86867051D01*
X108381604Y-86907850D01*
X108350476Y-86945779D01*
X108315779Y-86980476D01*
X108277850Y-87011604D01*
X108237051Y-87038864D01*
X108193778Y-87061995D01*
X108148445Y-87080772D01*
X108101490Y-87095016D01*
X108053365Y-87104588D01*
X108004534Y-87109398D01*
X107980000Y-87109398D01*
X107980000Y-87110000D01*
X107430000Y-87110000D01*
X107430000Y-85610000D01*
X107980000Y-85610000D01*
X107980000Y-85610602D01*
G37*
G04 #@! TD.AperFunction*
D13*
X106680000Y-86360000D03*
G04 #@! TA.AperFunction,SMDPad,CuDef*
D14*
G36*
X105930000Y-90920000D02*
G01*
X105380000Y-90920000D01*
X105380000Y-90919398D01*
X105355466Y-90919398D01*
X105306635Y-90914588D01*
X105258510Y-90905016D01*
X105211555Y-90890772D01*
X105166222Y-90871995D01*
X105122949Y-90848864D01*
X105082150Y-90821604D01*
X105044221Y-90790476D01*
X105009524Y-90755779D01*
X104978396Y-90717850D01*
X104951136Y-90677051D01*
X104928005Y-90633778D01*
X104909228Y-90588445D01*
X104894984Y-90541490D01*
X104885412Y-90493365D01*
X104880602Y-90444534D01*
X104880602Y-90420000D01*
X104880000Y-90420000D01*
X104880000Y-89920000D01*
X104880602Y-89920000D01*
X104880602Y-89895466D01*
X104885412Y-89846635D01*
X104894984Y-89798510D01*
X104909228Y-89751555D01*
X104928005Y-89706222D01*
X104951136Y-89662949D01*
X104978396Y-89622150D01*
X105009524Y-89584221D01*
X105044221Y-89549524D01*
X105082150Y-89518396D01*
X105122949Y-89491136D01*
X105166222Y-89468005D01*
X105211555Y-89449228D01*
X105258510Y-89434984D01*
X105306635Y-89425412D01*
X105355466Y-89420602D01*
X105380000Y-89420602D01*
X105380000Y-89420000D01*
X105930000Y-89420000D01*
X105930000Y-90920000D01*
G37*
G04 #@! TD.AperFunction*
G04 #@! TA.AperFunction,SMDPad,CuDef*
G36*
X107980000Y-89420602D02*
G01*
X108004534Y-89420602D01*
X108053365Y-89425412D01*
X108101490Y-89434984D01*
X108148445Y-89449228D01*
X108193778Y-89468005D01*
X108237051Y-89491136D01*
X108277850Y-89518396D01*
X108315779Y-89549524D01*
X108350476Y-89584221D01*
X108381604Y-89622150D01*
X108408864Y-89662949D01*
X108431995Y-89706222D01*
X108450772Y-89751555D01*
X108465016Y-89798510D01*
X108474588Y-89846635D01*
X108479398Y-89895466D01*
X108479398Y-89920000D01*
X108480000Y-89920000D01*
X108480000Y-90420000D01*
X108479398Y-90420000D01*
X108479398Y-90444534D01*
X108474588Y-90493365D01*
X108465016Y-90541490D01*
X108450772Y-90588445D01*
X108431995Y-90633778D01*
X108408864Y-90677051D01*
X108381604Y-90717850D01*
X108350476Y-90755779D01*
X108315779Y-90790476D01*
X108277850Y-90821604D01*
X108237051Y-90848864D01*
X108193778Y-90871995D01*
X108148445Y-90890772D01*
X108101490Y-90905016D01*
X108053365Y-90914588D01*
X108004534Y-90919398D01*
X107980000Y-90919398D01*
X107980000Y-90920000D01*
X107430000Y-90920000D01*
X107430000Y-89420000D01*
X107980000Y-89420000D01*
X107980000Y-89420602D01*
G37*
G04 #@! TD.AperFunction*
D13*
X106680000Y-90170000D03*
D15*
X99060000Y-48260000D03*
D16*
X114300000Y-96520000D03*
X99060000Y-50800000D03*
X114300000Y-93980000D03*
X99060000Y-53340000D03*
X114300000Y-91440000D03*
X99060000Y-55880000D03*
X114300000Y-88900000D03*
X99060000Y-58420000D03*
X114300000Y-86360000D03*
X99060000Y-60960000D03*
X114300000Y-83820000D03*
X99060000Y-63500000D03*
X114300000Y-81280000D03*
X99060000Y-66040000D03*
X114300000Y-78740000D03*
X99060000Y-68580000D03*
X114300000Y-76200000D03*
X99060000Y-71120000D03*
X114300000Y-73660000D03*
X99060000Y-73660000D03*
X114300000Y-71120000D03*
X99060000Y-76200000D03*
X114300000Y-68580000D03*
X99060000Y-78740000D03*
X114300000Y-66040000D03*
X99060000Y-81280000D03*
X114300000Y-63500000D03*
X99060000Y-83820000D03*
X114300000Y-60960000D03*
X99060000Y-86360000D03*
X114300000Y-58420000D03*
X99060000Y-88900000D03*
X114300000Y-55880000D03*
X99060000Y-91440000D03*
X114300000Y-53340000D03*
X99060000Y-93980000D03*
X114300000Y-50800000D03*
X99060000Y-96520000D03*
X114300000Y-48260000D03*
D17*
X110744000Y-85534500D03*
D18*
X110744000Y-86804500D03*
X110744000Y-88074500D03*
X110744000Y-89344500D03*
X110744000Y-90614500D03*
D19*
X108077000Y-54991000D03*
X109855000Y-51825000D03*
X108974010Y-83193010D03*
X107980000Y-90170000D03*
X105854500Y-75438000D03*
X106870500Y-76708000D03*
X104965500Y-70866000D03*
X104140000Y-69723000D03*
D20*
X111061500Y-74866500D03*
X110109000Y-82169000D03*
X101346000Y-49847500D03*
X102679500Y-54356000D03*
X103441500Y-60896500D03*
X104965500Y-73914000D03*
X102362000Y-88836500D03*
X103632000Y-90868500D03*
X109537500Y-96520000D03*
X104139501Y-95250499D03*
X109601000Y-84518500D03*
X112458500Y-65849500D03*
X106870500Y-68961000D03*
X111442500Y-78994000D03*
D19*
X109347000Y-81343500D03*
X109855000Y-49775000D03*
X111146990Y-69637510D03*
X109220000Y-76708000D03*
X109156500Y-68135500D03*
D20*
X105740200Y-68326000D03*
X109029500Y-71691500D03*
X106553000Y-70866000D03*
X106045000Y-72644000D03*
X108394500Y-72390000D03*
X108521500Y-73723500D03*
X107315000Y-74676000D03*
X107950000Y-73279000D03*
X103886000Y-75692000D03*
X104203500Y-84074000D03*
X104711500Y-80327500D03*
X104775000Y-83502500D03*
X104870250Y-81629250D03*
X105346500Y-82994500D03*
D19*
X111506000Y-91884500D03*
D20*
X106430000Y-53852000D03*
X105664000Y-55753000D03*
X105664000Y-59563000D03*
X103124000Y-86360000D03*
X105156000Y-89789000D03*
X111061500Y-74231500D03*
X111234490Y-71137510D03*
X111245510Y-72142490D03*
X111184891Y-72838109D03*
X111210990Y-73637510D03*
X102298500Y-70294500D03*
X100806250Y-80549750D03*
X102425500Y-70929500D03*
X101219000Y-80137000D03*
X102235000Y-72898000D03*
X101314250Y-83216750D03*
X102217490Y-73642490D03*
X101854000Y-83947000D03*
D21*
X107980000Y-55245000D02*
X107980000Y-59055000D01*
X107980000Y-85310500D02*
X107980000Y-86360000D01*
X107505500Y-84836000D02*
X107980000Y-85310500D01*
X103441500Y-84836000D02*
X107505500Y-84836000D01*
X102616000Y-84010500D02*
X103441500Y-84836000D01*
X102933500Y-71437500D02*
X102933500Y-73977500D01*
X103187500Y-71183500D02*
X102933500Y-71437500D01*
X107980000Y-59055000D02*
X107980000Y-60295000D01*
X107980000Y-60295000D02*
X103187500Y-65087500D01*
X102393040Y-74517960D02*
X102393040Y-78930458D01*
X102393040Y-78930458D02*
X102878021Y-79415438D01*
X102878021Y-79415438D02*
X102878021Y-80847260D01*
X103187500Y-65087500D02*
X103187500Y-71183500D01*
X102878021Y-80847260D02*
X102616000Y-81109281D01*
X102933500Y-73977500D02*
X102393040Y-74517960D01*
X102616000Y-81109281D02*
X102616000Y-84010500D01*
X109465000Y-51435000D02*
X109855000Y-51825000D01*
X107980000Y-51435000D02*
X109465000Y-51435000D01*
X108906500Y-64198500D02*
X108335000Y-64770000D01*
X109156500Y-64198500D02*
X108906500Y-64198500D01*
X109156500Y-53276500D02*
X109156500Y-64198500D01*
X109855000Y-51825000D02*
X109855000Y-52578000D01*
X109855000Y-52578000D02*
X109156500Y-53276500D01*
X108974010Y-89175990D02*
X108974010Y-83193010D01*
X107980000Y-90170000D02*
X107980000Y-90170000D01*
X108974010Y-83193010D02*
X108974010Y-83193010D01*
X107980000Y-90170000D02*
X108974010Y-89175990D01*
X108974010Y-83193010D02*
X106553000Y-80772000D01*
X106553000Y-80772000D02*
X106553000Y-78930500D01*
X106553000Y-78930500D02*
X106807000Y-78676500D01*
X106807000Y-78676500D02*
X106807000Y-77470000D01*
X106807000Y-76607798D02*
X106589702Y-76390500D01*
X106807000Y-77470000D02*
X106807000Y-76607798D01*
X106589702Y-76390500D02*
X106235500Y-76390500D01*
X106235500Y-76390500D02*
X105854500Y-76009500D01*
X105854500Y-76009500D02*
X105854500Y-75438000D01*
X105854500Y-75438000D02*
X105854500Y-75438000D01*
X108335000Y-64770000D02*
X108335000Y-65858000D01*
X104965500Y-70167500D02*
X104965500Y-70866000D01*
X104965500Y-70866000D02*
X104965500Y-70866000D01*
X108335000Y-66798000D02*
X108335000Y-65858000D01*
X104140000Y-70040500D02*
X104965500Y-70866000D01*
X104140000Y-69723000D02*
X104140000Y-70040500D01*
X104493553Y-69723000D02*
X105410000Y-69723000D01*
X104140000Y-69723000D02*
X104493553Y-69723000D01*
X104965500Y-70167500D02*
X105410000Y-69723000D01*
X105410000Y-69723000D02*
X108335000Y-66798000D01*
D22*
X111061500Y-74866500D02*
X111061500Y-81216500D01*
X111061500Y-81216500D02*
X110109000Y-82169000D01*
X110109000Y-82169000D02*
X110109000Y-82169000D01*
D21*
X110749001Y-51244001D02*
X110749001Y-52806966D01*
X109855000Y-49775000D02*
X109855000Y-50350000D01*
X109855000Y-50350000D02*
X110749001Y-51244001D01*
X110088967Y-53487033D02*
X109944510Y-53631490D01*
X110749001Y-52806966D02*
X110088967Y-53467000D01*
X110088967Y-53467000D02*
X110088967Y-53487033D01*
X109944510Y-53631490D02*
X109944510Y-62992000D01*
X109944510Y-62992000D02*
X110363000Y-63410490D01*
X110363000Y-63410490D02*
X110363000Y-65087500D01*
X110363000Y-65087500D02*
X111146990Y-65871490D01*
D23*
X105410000Y-96520000D02*
X106680499Y-95249501D01*
X110616501Y-95249501D02*
X110617000Y-95250000D01*
X106680499Y-95249501D02*
X110616501Y-95249501D01*
X112219510Y-94129352D02*
X112219510Y-85295510D01*
X110616501Y-95249501D02*
X111099361Y-95249501D01*
X111099361Y-95249501D02*
X112219510Y-94129352D01*
X112219510Y-85295510D02*
X109347000Y-82423000D01*
X109347000Y-82423000D02*
X109347000Y-81343500D01*
D21*
X110392499Y-70392001D02*
X111146990Y-69637510D01*
X110392499Y-75662501D02*
X110392499Y-70392001D01*
X109700553Y-81343500D02*
X110236000Y-80808053D01*
X109347000Y-81343500D02*
X109700553Y-81343500D01*
X110236000Y-80808053D02*
X110236000Y-79184500D01*
X109156500Y-78105000D02*
X109156500Y-76898500D01*
X109156500Y-76898500D02*
X110392499Y-75662501D01*
X110236000Y-79184500D02*
X109156500Y-78105000D01*
D22*
X110578900Y-68135500D02*
X111150400Y-68707000D01*
X109156500Y-68135500D02*
X110578900Y-68135500D01*
D21*
X111150400Y-68707000D02*
X111146990Y-69637510D01*
D22*
X110578900Y-68135500D02*
X111150400Y-67564000D01*
D21*
X111146990Y-65871490D02*
X111150400Y-67564000D01*
X111150400Y-67564000D02*
X111150400Y-68707000D01*
D22*
X105025000Y-68105000D02*
X105246000Y-68326000D01*
X105025000Y-67310000D02*
X105025000Y-68105000D01*
X105246000Y-68326000D02*
X105740200Y-68326000D01*
X105740200Y-68326000D02*
X105740200Y-68326000D01*
X108204000Y-70866000D02*
X109029500Y-71691500D01*
X106553000Y-70866000D02*
X108204000Y-70866000D01*
X105025000Y-77470000D02*
X105025000Y-76675000D01*
X105025000Y-76675000D02*
X105025000Y-76069000D01*
X105025000Y-75159449D02*
X106527460Y-73656989D01*
X105025000Y-76069000D02*
X105025000Y-75159449D01*
X106527460Y-73656989D02*
X106792725Y-73391725D01*
X106792725Y-73391725D02*
X107794450Y-72390000D01*
X107794450Y-72390000D02*
X108267500Y-72390000D01*
X108267500Y-72390000D02*
X108394500Y-72390000D01*
X108394500Y-72390000D02*
X108394500Y-72390000D01*
X109093000Y-69850000D02*
X108335000Y-69850000D01*
X109728000Y-70485000D02*
X109093000Y-69850000D01*
X109728000Y-72764487D02*
X109728000Y-70485000D01*
X108768987Y-73723500D02*
X109728000Y-72764487D01*
X108521500Y-73723500D02*
X108768987Y-73723500D01*
X108335000Y-79215000D02*
X108331000Y-79211000D01*
X108335000Y-80010000D02*
X108335000Y-79215000D01*
X108331000Y-79211000D02*
X108331000Y-76644500D01*
X108331000Y-76644500D02*
X107950000Y-76263500D01*
X107950000Y-76263500D02*
X107759500Y-76073000D01*
X107179434Y-76073000D02*
X106732499Y-75626065D01*
X107759500Y-76073000D02*
X107179434Y-76073000D01*
X106732499Y-75626065D02*
X106732499Y-74993500D01*
X106732499Y-74151999D02*
X107224498Y-73660000D01*
X106732499Y-74993500D02*
X106732499Y-74151999D01*
X107224498Y-73660000D02*
X107569000Y-73660000D01*
X107569000Y-73660000D02*
X107950000Y-73279000D01*
X107950000Y-73279000D02*
X107950000Y-73279000D01*
X104203500Y-84074000D02*
X104203500Y-84074000D01*
X103892510Y-83763010D02*
X104203500Y-84074000D01*
X103378000Y-83248500D02*
X103892510Y-83763010D01*
X103378000Y-81343500D02*
X103378000Y-83248500D01*
X103422499Y-76155501D02*
X103422499Y-78546233D01*
X103886000Y-75692000D02*
X103422499Y-76155501D01*
X103645020Y-78768754D02*
X103645020Y-81076480D01*
X103422499Y-78546233D02*
X103645020Y-78768754D01*
X103645020Y-81076480D02*
X103378000Y-81343500D01*
X104347749Y-81262751D02*
X104347749Y-83075249D01*
X104711500Y-80327500D02*
X104711500Y-80899000D01*
X104711500Y-80899000D02*
X104347749Y-81262751D01*
X104347749Y-83075249D02*
X104775000Y-83502500D01*
X104775000Y-83502500D02*
X104775000Y-83502500D01*
X105045249Y-81804249D02*
X105045249Y-82693249D01*
X104870250Y-81629250D02*
X105045249Y-81804249D01*
X105045249Y-82693249D02*
X105346500Y-82994500D01*
X105346500Y-82994500D02*
X105346500Y-82994500D01*
D21*
X106680000Y-50097000D02*
X106680000Y-51435000D01*
X104843000Y-48260000D02*
X106680000Y-50097000D01*
X99060000Y-48260000D02*
X104843000Y-48260000D01*
X106680000Y-91508000D02*
X107056500Y-91884500D01*
X106680000Y-90170000D02*
X106680000Y-91508000D01*
X107056500Y-91884500D02*
X110617000Y-91884500D01*
X110617000Y-91884500D02*
X111506000Y-91884500D01*
X111506000Y-91884500D02*
X111506000Y-91884500D01*
X106680000Y-56583000D02*
X106680000Y-55245000D01*
X105452010Y-57810990D02*
X106680000Y-56583000D01*
X102209010Y-57810990D02*
X105452010Y-57810990D01*
X99060000Y-60960000D02*
X102209010Y-57810990D01*
X106680000Y-60393000D02*
X106680000Y-59055000D01*
X99859999Y-65240001D02*
X101832999Y-65240001D01*
X101832999Y-65240001D02*
X106680000Y-60393000D01*
X99060000Y-66040000D02*
X99859999Y-65240001D01*
X106680000Y-87058638D02*
X106680000Y-86360000D01*
X106680000Y-87884000D02*
X106680000Y-87058638D01*
X101525999Y-94054001D02*
X101525999Y-91260001D01*
X99060000Y-96520000D02*
X101525999Y-94054001D01*
X101525999Y-91260001D02*
X104013000Y-88773000D01*
X104013000Y-88773000D02*
X105791000Y-88773000D01*
X105791000Y-88773000D02*
X106680000Y-87884000D01*
D22*
X105380000Y-52802000D02*
X106430000Y-53852000D01*
X105380000Y-51435000D02*
X105380000Y-52802000D01*
X105380000Y-86360000D02*
X104880000Y-86360000D01*
X104880000Y-86360000D02*
X103632000Y-86360000D01*
X103632000Y-86360000D02*
X103441500Y-86360000D01*
X103441500Y-86360000D02*
X103124000Y-86360000D01*
X103124000Y-86360000D02*
X103124000Y-86360000D01*
X114300000Y-78740000D02*
X113093500Y-77533500D01*
X113093500Y-77533500D02*
X113093500Y-72517000D01*
X111714010Y-71137510D02*
X113093500Y-72517000D01*
X111234490Y-71137510D02*
X111714010Y-71137510D01*
X113091952Y-80071952D02*
X114300000Y-81280000D01*
X112018942Y-72142490D02*
X112598490Y-72722038D01*
X112598490Y-77738539D02*
X113091952Y-78232000D01*
X111245510Y-72142490D02*
X112018942Y-72142490D01*
X112598490Y-72722038D02*
X112598490Y-77738539D01*
X113091952Y-78232000D02*
X113091952Y-80071952D01*
X113093500Y-82613500D02*
X114300000Y-83820000D01*
X113093500Y-80773548D02*
X113093500Y-82613500D01*
X112596942Y-80276991D02*
X113093500Y-80773548D01*
X112103480Y-77943578D02*
X112596942Y-78437040D01*
X112103480Y-73755993D02*
X112103480Y-77943578D01*
X112596942Y-78437040D02*
X112596942Y-80276991D01*
X112102775Y-73755993D02*
X111184891Y-72838109D01*
X112103480Y-73755993D02*
X112102775Y-73755993D01*
X113093500Y-83313548D02*
X113093500Y-85153500D01*
X112598490Y-82818539D02*
X113093500Y-83313548D01*
X112598490Y-80978588D02*
X112598490Y-82818539D01*
X111608470Y-74034990D02*
X111608470Y-78148617D01*
X112101932Y-78642078D02*
X112101932Y-80482030D01*
X113093500Y-85153500D02*
X114300000Y-86360000D01*
X111210990Y-73637510D02*
X111608470Y-74034990D01*
X112101932Y-80482030D02*
X112598490Y-80978588D01*
X111608470Y-78148617D02*
X112101932Y-78642078D01*
X102051013Y-70294500D02*
X102298500Y-70294500D01*
X100266500Y-72079013D02*
X102051013Y-70294500D01*
X100806250Y-80549750D02*
X100266500Y-80010000D01*
X100266500Y-80010000D02*
X100266500Y-72079013D01*
X100825010Y-79743010D02*
X101219000Y-80137000D01*
X100761510Y-79679510D02*
X100825010Y-79743010D01*
X100774500Y-72390000D02*
X100761510Y-72402990D01*
X102178013Y-70929500D02*
X101168490Y-71939023D01*
X102425500Y-70929500D02*
X102178013Y-70929500D01*
X100774500Y-72326500D02*
X100774500Y-72390000D01*
X101168490Y-71939023D02*
X101161977Y-71939023D01*
X100761510Y-72402990D02*
X100761510Y-79679510D01*
X101161977Y-71939023D02*
X100774500Y-72326500D01*
X101917500Y-72898000D02*
X101269510Y-73545990D01*
X102235000Y-72898000D02*
X101917500Y-72898000D01*
X101269510Y-73609490D02*
X101256520Y-73622480D01*
X101269510Y-73545990D02*
X101269510Y-73609490D01*
X101741501Y-79886199D02*
X101741501Y-80376499D01*
X101256520Y-73622480D02*
X101256520Y-79401218D01*
X101256520Y-79401218D02*
X101741501Y-79886199D01*
X101741501Y-80376499D02*
X101219000Y-80899000D01*
X101219000Y-80899000D02*
X101219000Y-83121500D01*
X101219000Y-83121500D02*
X101314250Y-83216750D01*
X101764520Y-74095460D02*
X101764520Y-74130480D01*
X102217490Y-73642490D02*
X101764520Y-74095460D01*
X101764520Y-74130480D02*
X101751530Y-74143470D01*
X101751530Y-74143470D02*
X101751530Y-78689728D01*
X102236511Y-80581538D02*
X101946540Y-80871509D01*
X102236511Y-79681160D02*
X102236511Y-80581538D01*
X101751530Y-78689728D02*
X101751530Y-79196180D01*
X101751530Y-79196180D02*
X102236511Y-79681160D01*
X101946540Y-80871509D02*
X101727774Y-81090274D01*
X101727774Y-81090274D02*
X101714010Y-81104038D01*
X101714010Y-82843208D02*
X101854000Y-82983198D01*
X101714010Y-81104038D02*
X101714010Y-82843208D01*
X101854000Y-82983198D02*
X101854000Y-83947000D01*
X101854000Y-83947000D02*
X101854000Y-83947000D01*
D24*
G36*
X101932462Y-94749418D02*
G01*
X102100582Y-94917538D01*
X102285973Y-95041412D01*
X102020000Y-95039966D01*
X101897086Y-95052072D01*
X101778896Y-95087924D01*
X101669972Y-95146146D01*
X101574499Y-95224499D01*
X101496146Y-95319972D01*
X101437924Y-95428896D01*
X101402072Y-95547086D01*
X101389966Y-95670000D01*
X101393000Y-96228250D01*
X101549750Y-96385000D01*
X102735000Y-96385000D01*
X102735000Y-96365000D01*
X103005000Y-96365000D01*
X103005000Y-96385000D01*
X103025000Y-96385000D01*
X103025000Y-96655000D01*
X103005000Y-96655000D01*
X103005000Y-96675000D01*
X102735000Y-96675000D01*
X102735000Y-96655000D01*
X101549750Y-96655000D01*
X101393000Y-96811750D01*
X101390586Y-97256000D01*
X99959732Y-97256000D01*
X100085320Y-97068045D01*
X100172537Y-96857484D01*
X100217000Y-96633955D01*
X100217000Y-96406045D01*
X100196694Y-96303959D01*
X101859873Y-94640780D01*
X101932462Y-94749418D01*
G37*
X101932462Y-94749418D02*
X102100582Y-94917538D01*
X102285973Y-95041412D01*
X102020000Y-95039966D01*
X101897086Y-95052072D01*
X101778896Y-95087924D01*
X101669972Y-95146146D01*
X101574499Y-95224499D01*
X101496146Y-95319972D01*
X101437924Y-95428896D01*
X101402072Y-95547086D01*
X101389966Y-95670000D01*
X101393000Y-96228250D01*
X101549750Y-96385000D01*
X102735000Y-96385000D01*
X102735000Y-96365000D01*
X103005000Y-96365000D01*
X103005000Y-96385000D01*
X103025000Y-96385000D01*
X103025000Y-96655000D01*
X103005000Y-96655000D01*
X103005000Y-96675000D01*
X102735000Y-96675000D01*
X102735000Y-96655000D01*
X101549750Y-96655000D01*
X101393000Y-96811750D01*
X101390586Y-97256000D01*
X99959732Y-97256000D01*
X100085320Y-97068045D01*
X100172537Y-96857484D01*
X100217000Y-96633955D01*
X100217000Y-96406045D01*
X100196694Y-96303959D01*
X101859873Y-94640780D01*
X101932462Y-94749418D01*
G36*
X113205500Y-85978970D02*
G01*
X113187463Y-86022516D01*
X113143000Y-86246045D01*
X113143000Y-86473955D01*
X113187463Y-86697484D01*
X113274680Y-86908045D01*
X113401300Y-87097544D01*
X113562456Y-87258700D01*
X113751955Y-87385320D01*
X113962516Y-87472537D01*
X114186045Y-87517000D01*
X114413955Y-87517000D01*
X114637484Y-87472537D01*
X114848045Y-87385320D01*
X115036001Y-87259731D01*
X115036001Y-88000269D01*
X114848045Y-87874680D01*
X114637484Y-87787463D01*
X114413955Y-87743000D01*
X114186045Y-87743000D01*
X113962516Y-87787463D01*
X113751955Y-87874680D01*
X113562456Y-88001300D01*
X113401300Y-88162456D01*
X113274680Y-88351955D01*
X113187463Y-88562516D01*
X113143000Y-88786045D01*
X113143000Y-89013955D01*
X113187463Y-89237484D01*
X113274680Y-89448045D01*
X113401300Y-89637544D01*
X113562456Y-89798700D01*
X113751955Y-89925320D01*
X113962516Y-90012537D01*
X114186045Y-90057000D01*
X114413955Y-90057000D01*
X114637484Y-90012537D01*
X114848045Y-89925320D01*
X115036001Y-89799731D01*
X115036001Y-90540269D01*
X114848045Y-90414680D01*
X114637484Y-90327463D01*
X114413955Y-90283000D01*
X114186045Y-90283000D01*
X113962516Y-90327463D01*
X113751955Y-90414680D01*
X113562456Y-90541300D01*
X113401300Y-90702456D01*
X113274680Y-90891955D01*
X113187463Y-91102516D01*
X113143000Y-91326045D01*
X113143000Y-91553955D01*
X113187463Y-91777484D01*
X113274680Y-91988045D01*
X113401300Y-92177544D01*
X113562456Y-92338700D01*
X113751955Y-92465320D01*
X113962516Y-92552537D01*
X114186045Y-92597000D01*
X114413955Y-92597000D01*
X114637484Y-92552537D01*
X114848045Y-92465320D01*
X115036001Y-92339731D01*
X115036001Y-93080269D01*
X114848045Y-92954680D01*
X114637484Y-92867463D01*
X114413955Y-92823000D01*
X114186045Y-92823000D01*
X113962516Y-92867463D01*
X113751955Y-92954680D01*
X113562456Y-93081300D01*
X113401300Y-93242456D01*
X113274680Y-93431955D01*
X113187463Y-93642516D01*
X113143000Y-93866045D01*
X113143000Y-94093955D01*
X113187463Y-94317484D01*
X113274680Y-94528045D01*
X113401300Y-94717544D01*
X113562456Y-94878700D01*
X113751955Y-95005320D01*
X113962516Y-95092537D01*
X114186045Y-95137000D01*
X114413955Y-95137000D01*
X114637484Y-95092537D01*
X114848045Y-95005320D01*
X115036001Y-94879731D01*
X115036001Y-95620269D01*
X114848045Y-95494680D01*
X114637484Y-95407463D01*
X114413955Y-95363000D01*
X114186045Y-95363000D01*
X113962516Y-95407463D01*
X113751955Y-95494680D01*
X113562456Y-95621300D01*
X113401300Y-95782456D01*
X113274680Y-95971955D01*
X113187463Y-96182516D01*
X113143000Y-96406045D01*
X113143000Y-96633955D01*
X113187463Y-96857484D01*
X113274680Y-97068045D01*
X113400268Y-97256000D01*
X106369867Y-97256000D01*
X106479629Y-97091729D01*
X106570616Y-96872069D01*
X106617000Y-96638879D01*
X106617000Y-96401121D01*
X106571735Y-96173558D01*
X106919293Y-95826001D01*
X110583624Y-95826001D01*
X110617000Y-95829288D01*
X110650376Y-95826001D01*
X111071052Y-95826001D01*
X111099361Y-95828789D01*
X111127670Y-95826001D01*
X111127678Y-95826001D01*
X111212375Y-95817659D01*
X111321045Y-95784694D01*
X111421197Y-95731162D01*
X111508980Y-95659120D01*
X111527035Y-95637120D01*
X112607135Y-94557021D01*
X112629129Y-94538971D01*
X112701171Y-94451188D01*
X112754703Y-94351036D01*
X112787668Y-94242366D01*
X112796010Y-94157669D01*
X112796010Y-94157661D01*
X112798798Y-94129352D01*
X112796010Y-94101043D01*
X112796010Y-85569480D01*
X113205500Y-85978970D01*
G37*
X113205500Y-85978970D02*
X113187463Y-86022516D01*
X113143000Y-86246045D01*
X113143000Y-86473955D01*
X113187463Y-86697484D01*
X113274680Y-86908045D01*
X113401300Y-87097544D01*
X113562456Y-87258700D01*
X113751955Y-87385320D01*
X113962516Y-87472537D01*
X114186045Y-87517000D01*
X114413955Y-87517000D01*
X114637484Y-87472537D01*
X114848045Y-87385320D01*
X115036001Y-87259731D01*
X115036001Y-88000269D01*
X114848045Y-87874680D01*
X114637484Y-87787463D01*
X114413955Y-87743000D01*
X114186045Y-87743000D01*
X113962516Y-87787463D01*
X113751955Y-87874680D01*
X113562456Y-88001300D01*
X113401300Y-88162456D01*
X113274680Y-88351955D01*
X113187463Y-88562516D01*
X113143000Y-88786045D01*
X113143000Y-89013955D01*
X113187463Y-89237484D01*
X113274680Y-89448045D01*
X113401300Y-89637544D01*
X113562456Y-89798700D01*
X113751955Y-89925320D01*
X113962516Y-90012537D01*
X114186045Y-90057000D01*
X114413955Y-90057000D01*
X114637484Y-90012537D01*
X114848045Y-89925320D01*
X115036001Y-89799731D01*
X115036001Y-90540269D01*
X114848045Y-90414680D01*
X114637484Y-90327463D01*
X114413955Y-90283000D01*
X114186045Y-90283000D01*
X113962516Y-90327463D01*
X113751955Y-90414680D01*
X113562456Y-90541300D01*
X113401300Y-90702456D01*
X113274680Y-90891955D01*
X113187463Y-91102516D01*
X113143000Y-91326045D01*
X113143000Y-91553955D01*
X113187463Y-91777484D01*
X113274680Y-91988045D01*
X113401300Y-92177544D01*
X113562456Y-92338700D01*
X113751955Y-92465320D01*
X113962516Y-92552537D01*
X114186045Y-92597000D01*
X114413955Y-92597000D01*
X114637484Y-92552537D01*
X114848045Y-92465320D01*
X115036001Y-92339731D01*
X115036001Y-93080269D01*
X114848045Y-92954680D01*
X114637484Y-92867463D01*
X114413955Y-92823000D01*
X114186045Y-92823000D01*
X113962516Y-92867463D01*
X113751955Y-92954680D01*
X113562456Y-93081300D01*
X113401300Y-93242456D01*
X113274680Y-93431955D01*
X113187463Y-93642516D01*
X113143000Y-93866045D01*
X113143000Y-94093955D01*
X113187463Y-94317484D01*
X113274680Y-94528045D01*
X113401300Y-94717544D01*
X113562456Y-94878700D01*
X113751955Y-95005320D01*
X113962516Y-95092537D01*
X114186045Y-95137000D01*
X114413955Y-95137000D01*
X114637484Y-95092537D01*
X114848045Y-95005320D01*
X115036001Y-94879731D01*
X115036001Y-95620269D01*
X114848045Y-95494680D01*
X114637484Y-95407463D01*
X114413955Y-95363000D01*
X114186045Y-95363000D01*
X113962516Y-95407463D01*
X113751955Y-95494680D01*
X113562456Y-95621300D01*
X113401300Y-95782456D01*
X113274680Y-95971955D01*
X113187463Y-96182516D01*
X113143000Y-96406045D01*
X113143000Y-96633955D01*
X113187463Y-96857484D01*
X113274680Y-97068045D01*
X113400268Y-97256000D01*
X106369867Y-97256000D01*
X106479629Y-97091729D01*
X106570616Y-96872069D01*
X106617000Y-96638879D01*
X106617000Y-96401121D01*
X106571735Y-96173558D01*
X106919293Y-95826001D01*
X110583624Y-95826001D01*
X110617000Y-95829288D01*
X110650376Y-95826001D01*
X111071052Y-95826001D01*
X111099361Y-95828789D01*
X111127670Y-95826001D01*
X111127678Y-95826001D01*
X111212375Y-95817659D01*
X111321045Y-95784694D01*
X111421197Y-95731162D01*
X111508980Y-95659120D01*
X111527035Y-95637120D01*
X112607135Y-94557021D01*
X112629129Y-94538971D01*
X112701171Y-94451188D01*
X112754703Y-94351036D01*
X112787668Y-94242366D01*
X112796010Y-94157669D01*
X112796010Y-94157661D01*
X112798798Y-94129352D01*
X112796010Y-94101043D01*
X112796010Y-85569480D01*
X113205500Y-85978970D01*
G36*
X104640769Y-89485004D02*
G01*
X104607618Y-89547025D01*
X104570109Y-89637581D01*
X104549696Y-89704874D01*
X104530574Y-89801007D01*
X104523681Y-89870991D01*
X104523681Y-89895552D01*
X104521273Y-89920000D01*
X104521273Y-90420000D01*
X104523681Y-90444448D01*
X104523681Y-90469009D01*
X104530574Y-90538993D01*
X104549696Y-90635126D01*
X104570109Y-90702419D01*
X104607618Y-90792975D01*
X104640769Y-90854996D01*
X104695225Y-90936495D01*
X104739837Y-90990855D01*
X104809145Y-91060163D01*
X104863505Y-91104775D01*
X104945004Y-91159231D01*
X105007025Y-91192382D01*
X105097581Y-91229891D01*
X105164874Y-91250304D01*
X105261007Y-91269426D01*
X105330991Y-91276319D01*
X105355552Y-91276319D01*
X105380000Y-91278727D01*
X105930000Y-91278727D01*
X105999984Y-91271834D01*
X106029001Y-91263032D01*
X106029001Y-91476028D01*
X106025852Y-91508000D01*
X106038421Y-91635617D01*
X106075646Y-91758332D01*
X106136095Y-91871426D01*
X106171158Y-91914149D01*
X106217448Y-91970553D01*
X106242281Y-91990933D01*
X106573562Y-92322214D01*
X106593947Y-92347053D01*
X106693074Y-92428405D01*
X106806168Y-92488855D01*
X106928882Y-92526080D01*
X107024527Y-92535500D01*
X107024536Y-92535500D01*
X107056499Y-92538648D01*
X107088462Y-92535500D01*
X111537973Y-92535500D01*
X111633618Y-92526080D01*
X111643010Y-92523231D01*
X111643010Y-93609569D01*
X111559629Y-93408271D01*
X111427538Y-93210582D01*
X111259418Y-93042462D01*
X111061729Y-92910371D01*
X110842069Y-92819384D01*
X110608879Y-92773000D01*
X110371121Y-92773000D01*
X110137931Y-92819384D01*
X109918271Y-92910371D01*
X109720582Y-93042462D01*
X109552462Y-93210582D01*
X109420371Y-93408271D01*
X109329384Y-93627931D01*
X109283000Y-93861121D01*
X109283000Y-94098879D01*
X109329384Y-94332069D01*
X109420371Y-94551729D01*
X109501402Y-94673001D01*
X108938598Y-94673001D01*
X109019629Y-94551729D01*
X109110616Y-94332069D01*
X109157000Y-94098879D01*
X109157000Y-93861121D01*
X109110616Y-93627931D01*
X109019629Y-93408271D01*
X108887538Y-93210582D01*
X108719418Y-93042462D01*
X108521729Y-92910371D01*
X108302069Y-92819384D01*
X108068879Y-92773000D01*
X107831121Y-92773000D01*
X107597931Y-92819384D01*
X107378271Y-92910371D01*
X107180582Y-93042462D01*
X107012462Y-93210582D01*
X106880371Y-93408271D01*
X106789384Y-93627931D01*
X106743000Y-93861121D01*
X106743000Y-94098879D01*
X106789384Y-94332069D01*
X106880371Y-94551729D01*
X106961402Y-94673001D01*
X106708808Y-94673001D01*
X106680499Y-94670213D01*
X106652190Y-94673001D01*
X106652182Y-94673001D01*
X106567485Y-94681343D01*
X106458815Y-94714308D01*
X106358663Y-94767840D01*
X106270880Y-94839882D01*
X106252829Y-94861877D01*
X105756442Y-95358265D01*
X105528879Y-95313000D01*
X105291121Y-95313000D01*
X105057931Y-95359384D01*
X104838271Y-95450371D01*
X104640582Y-95582462D01*
X104472462Y-95750582D01*
X104348588Y-95935973D01*
X104350034Y-95670000D01*
X104337928Y-95547086D01*
X104302076Y-95428896D01*
X104243854Y-95319972D01*
X104165501Y-95224499D01*
X104070028Y-95146146D01*
X103961104Y-95087924D01*
X103842914Y-95052072D01*
X103720000Y-95039966D01*
X103454027Y-95041412D01*
X103639418Y-94917538D01*
X103807538Y-94749418D01*
X103939629Y-94551729D01*
X104030616Y-94332069D01*
X104077000Y-94098879D01*
X104077000Y-93861121D01*
X104203000Y-93861121D01*
X104203000Y-94098879D01*
X104249384Y-94332069D01*
X104340371Y-94551729D01*
X104472462Y-94749418D01*
X104640582Y-94917538D01*
X104838271Y-95049629D01*
X105057931Y-95140616D01*
X105291121Y-95187000D01*
X105528879Y-95187000D01*
X105762069Y-95140616D01*
X105981729Y-95049629D01*
X106179418Y-94917538D01*
X106347538Y-94749418D01*
X106479629Y-94551729D01*
X106570616Y-94332069D01*
X106617000Y-94098879D01*
X106617000Y-93861121D01*
X106570616Y-93627931D01*
X106479629Y-93408271D01*
X106347538Y-93210582D01*
X106179418Y-93042462D01*
X105981729Y-92910371D01*
X105762069Y-92819384D01*
X105528879Y-92773000D01*
X105291121Y-92773000D01*
X105057931Y-92819384D01*
X104838271Y-92910371D01*
X104640582Y-93042462D01*
X104472462Y-93210582D01*
X104340371Y-93408271D01*
X104249384Y-93627931D01*
X104203000Y-93861121D01*
X104077000Y-93861121D01*
X104030616Y-93627931D01*
X103939629Y-93408271D01*
X103807538Y-93210582D01*
X103639418Y-93042462D01*
X103441729Y-92910371D01*
X103222069Y-92819384D01*
X102988879Y-92773000D01*
X102751121Y-92773000D01*
X102517931Y-92819384D01*
X102298271Y-92910371D01*
X102176999Y-92991402D01*
X102176999Y-91529653D01*
X104282653Y-89424000D01*
X104681531Y-89424000D01*
X104640769Y-89485004D01*
G37*
X104640769Y-89485004D02*
X104607618Y-89547025D01*
X104570109Y-89637581D01*
X104549696Y-89704874D01*
X104530574Y-89801007D01*
X104523681Y-89870991D01*
X104523681Y-89895552D01*
X104521273Y-89920000D01*
X104521273Y-90420000D01*
X104523681Y-90444448D01*
X104523681Y-90469009D01*
X104530574Y-90538993D01*
X104549696Y-90635126D01*
X104570109Y-90702419D01*
X104607618Y-90792975D01*
X104640769Y-90854996D01*
X104695225Y-90936495D01*
X104739837Y-90990855D01*
X104809145Y-91060163D01*
X104863505Y-91104775D01*
X104945004Y-91159231D01*
X105007025Y-91192382D01*
X105097581Y-91229891D01*
X105164874Y-91250304D01*
X105261007Y-91269426D01*
X105330991Y-91276319D01*
X105355552Y-91276319D01*
X105380000Y-91278727D01*
X105930000Y-91278727D01*
X105999984Y-91271834D01*
X106029001Y-91263032D01*
X106029001Y-91476028D01*
X106025852Y-91508000D01*
X106038421Y-91635617D01*
X106075646Y-91758332D01*
X106136095Y-91871426D01*
X106171158Y-91914149D01*
X106217448Y-91970553D01*
X106242281Y-91990933D01*
X106573562Y-92322214D01*
X106593947Y-92347053D01*
X106693074Y-92428405D01*
X106806168Y-92488855D01*
X106928882Y-92526080D01*
X107024527Y-92535500D01*
X107024536Y-92535500D01*
X107056499Y-92538648D01*
X107088462Y-92535500D01*
X111537973Y-92535500D01*
X111633618Y-92526080D01*
X111643010Y-92523231D01*
X111643010Y-93609569D01*
X111559629Y-93408271D01*
X111427538Y-93210582D01*
X111259418Y-93042462D01*
X111061729Y-92910371D01*
X110842069Y-92819384D01*
X110608879Y-92773000D01*
X110371121Y-92773000D01*
X110137931Y-92819384D01*
X109918271Y-92910371D01*
X109720582Y-93042462D01*
X109552462Y-93210582D01*
X109420371Y-93408271D01*
X109329384Y-93627931D01*
X109283000Y-93861121D01*
X109283000Y-94098879D01*
X109329384Y-94332069D01*
X109420371Y-94551729D01*
X109501402Y-94673001D01*
X108938598Y-94673001D01*
X109019629Y-94551729D01*
X109110616Y-94332069D01*
X109157000Y-94098879D01*
X109157000Y-93861121D01*
X109110616Y-93627931D01*
X109019629Y-93408271D01*
X108887538Y-93210582D01*
X108719418Y-93042462D01*
X108521729Y-92910371D01*
X108302069Y-92819384D01*
X108068879Y-92773000D01*
X107831121Y-92773000D01*
X107597931Y-92819384D01*
X107378271Y-92910371D01*
X107180582Y-93042462D01*
X107012462Y-93210582D01*
X106880371Y-93408271D01*
X106789384Y-93627931D01*
X106743000Y-93861121D01*
X106743000Y-94098879D01*
X106789384Y-94332069D01*
X106880371Y-94551729D01*
X106961402Y-94673001D01*
X106708808Y-94673001D01*
X106680499Y-94670213D01*
X106652190Y-94673001D01*
X106652182Y-94673001D01*
X106567485Y-94681343D01*
X106458815Y-94714308D01*
X106358663Y-94767840D01*
X106270880Y-94839882D01*
X106252829Y-94861877D01*
X105756442Y-95358265D01*
X105528879Y-95313000D01*
X105291121Y-95313000D01*
X105057931Y-95359384D01*
X104838271Y-95450371D01*
X104640582Y-95582462D01*
X104472462Y-95750582D01*
X104348588Y-95935973D01*
X104350034Y-95670000D01*
X104337928Y-95547086D01*
X104302076Y-95428896D01*
X104243854Y-95319972D01*
X104165501Y-95224499D01*
X104070028Y-95146146D01*
X103961104Y-95087924D01*
X103842914Y-95052072D01*
X103720000Y-95039966D01*
X103454027Y-95041412D01*
X103639418Y-94917538D01*
X103807538Y-94749418D01*
X103939629Y-94551729D01*
X104030616Y-94332069D01*
X104077000Y-94098879D01*
X104077000Y-93861121D01*
X104203000Y-93861121D01*
X104203000Y-94098879D01*
X104249384Y-94332069D01*
X104340371Y-94551729D01*
X104472462Y-94749418D01*
X104640582Y-94917538D01*
X104838271Y-95049629D01*
X105057931Y-95140616D01*
X105291121Y-95187000D01*
X105528879Y-95187000D01*
X105762069Y-95140616D01*
X105981729Y-95049629D01*
X106179418Y-94917538D01*
X106347538Y-94749418D01*
X106479629Y-94551729D01*
X106570616Y-94332069D01*
X106617000Y-94098879D01*
X106617000Y-93861121D01*
X106570616Y-93627931D01*
X106479629Y-93408271D01*
X106347538Y-93210582D01*
X106179418Y-93042462D01*
X105981729Y-92910371D01*
X105762069Y-92819384D01*
X105528879Y-92773000D01*
X105291121Y-92773000D01*
X105057931Y-92819384D01*
X104838271Y-92910371D01*
X104640582Y-93042462D01*
X104472462Y-93210582D01*
X104340371Y-93408271D01*
X104249384Y-93627931D01*
X104203000Y-93861121D01*
X104077000Y-93861121D01*
X104030616Y-93627931D01*
X103939629Y-93408271D01*
X103807538Y-93210582D01*
X103639418Y-93042462D01*
X103441729Y-92910371D01*
X103222069Y-92819384D01*
X102988879Y-92773000D01*
X102751121Y-92773000D01*
X102517931Y-92819384D01*
X102298271Y-92910371D01*
X102176999Y-92991402D01*
X102176999Y-91529653D01*
X104282653Y-89424000D01*
X104681531Y-89424000D01*
X104640769Y-89485004D01*
G36*
X98511955Y-79765320D02*
G01*
X98722516Y-79852537D01*
X98946045Y-79897000D01*
X99173955Y-79897000D01*
X99397484Y-79852537D01*
X99608045Y-79765320D01*
X99762000Y-79662450D01*
X99762000Y-79985224D01*
X99759560Y-80010000D01*
X99762000Y-80034776D01*
X99762000Y-80034782D01*
X99766749Y-80082994D01*
X99769300Y-80108899D01*
X99792825Y-80186451D01*
X99798148Y-80203997D01*
X99844994Y-80291641D01*
X99908039Y-80368461D01*
X99927290Y-80384260D01*
X100327742Y-80784712D01*
X100334798Y-80801746D01*
X100393019Y-80888880D01*
X100467120Y-80962981D01*
X100554254Y-81021202D01*
X100651071Y-81061305D01*
X100714500Y-81073922D01*
X100714501Y-83096715D01*
X100712060Y-83121500D01*
X100721800Y-83220399D01*
X100750648Y-83315497D01*
X100797495Y-83403141D01*
X100834098Y-83447742D01*
X100842798Y-83468746D01*
X100901019Y-83555880D01*
X100975120Y-83629981D01*
X101062254Y-83688202D01*
X101159071Y-83728305D01*
X101261853Y-83748750D01*
X101349501Y-83748750D01*
X101349501Y-83774787D01*
X101342445Y-83791821D01*
X101322000Y-83894603D01*
X101322000Y-83999397D01*
X101342445Y-84102179D01*
X101382548Y-84198996D01*
X101440769Y-84286130D01*
X101514870Y-84360231D01*
X101602004Y-84418452D01*
X101698821Y-84458555D01*
X101801603Y-84479000D01*
X101906397Y-84479000D01*
X102009179Y-84458555D01*
X102105996Y-84418452D01*
X102107702Y-84417312D01*
X102133066Y-84448218D01*
X102153448Y-84473053D01*
X102178281Y-84493433D01*
X102958565Y-85273718D01*
X102978947Y-85298553D01*
X103003780Y-85318933D01*
X103003781Y-85318934D01*
X103033451Y-85343284D01*
X103078074Y-85379905D01*
X103191168Y-85440355D01*
X103313882Y-85477580D01*
X103409527Y-85487000D01*
X103409536Y-85487000D01*
X103441499Y-85490148D01*
X103473462Y-85487000D01*
X104791982Y-85487000D01*
X104739837Y-85539145D01*
X104695225Y-85593505D01*
X104640769Y-85675004D01*
X104607618Y-85737025D01*
X104570109Y-85827581D01*
X104561640Y-85855500D01*
X103296211Y-85855500D01*
X103279179Y-85848445D01*
X103176397Y-85828000D01*
X103071603Y-85828000D01*
X102968821Y-85848445D01*
X102872004Y-85888548D01*
X102784870Y-85946769D01*
X102710769Y-86020870D01*
X102652548Y-86108004D01*
X102612445Y-86204821D01*
X102592000Y-86307603D01*
X102592000Y-86412397D01*
X102612445Y-86515179D01*
X102652548Y-86611996D01*
X102710769Y-86699130D01*
X102784870Y-86773231D01*
X102872004Y-86831452D01*
X102968821Y-86871555D01*
X103071603Y-86892000D01*
X103176397Y-86892000D01*
X103279179Y-86871555D01*
X103296211Y-86864500D01*
X104561640Y-86864500D01*
X104570109Y-86892419D01*
X104607618Y-86982975D01*
X104640769Y-87044996D01*
X104695225Y-87126495D01*
X104739837Y-87180855D01*
X104809145Y-87250163D01*
X104863505Y-87294775D01*
X104945004Y-87349231D01*
X105007025Y-87382382D01*
X105097581Y-87419891D01*
X105164874Y-87440304D01*
X105261007Y-87459426D01*
X105330991Y-87466319D01*
X105355552Y-87466319D01*
X105380000Y-87468727D01*
X105930000Y-87468727D01*
X105999984Y-87461834D01*
X106029000Y-87453032D01*
X106029000Y-87614347D01*
X105521348Y-88122000D01*
X104044973Y-88122000D01*
X104013000Y-88118851D01*
X103981027Y-88122000D01*
X103885382Y-88131420D01*
X103762668Y-88168645D01*
X103649574Y-88229095D01*
X103550447Y-88310447D01*
X103530067Y-88335280D01*
X101088280Y-90777068D01*
X101063447Y-90797448D01*
X101043067Y-90822281D01*
X101043065Y-90822283D01*
X100982094Y-90896575D01*
X100932167Y-90989984D01*
X100921645Y-91009669D01*
X100888390Y-91119298D01*
X100884420Y-91132384D01*
X100871851Y-91260001D01*
X100875000Y-91291974D01*
X100874999Y-93784348D01*
X99992725Y-94666623D01*
X100085320Y-94528045D01*
X100172537Y-94317484D01*
X100217000Y-94093955D01*
X100217000Y-93866045D01*
X100172537Y-93642516D01*
X100085320Y-93431955D01*
X99958700Y-93242456D01*
X99797544Y-93081300D01*
X99608045Y-92954680D01*
X99397484Y-92867463D01*
X99173955Y-92823000D01*
X98946045Y-92823000D01*
X98722516Y-92867463D01*
X98511955Y-92954680D01*
X98324000Y-93080268D01*
X98324000Y-92339732D01*
X98511955Y-92465320D01*
X98722516Y-92552537D01*
X98946045Y-92597000D01*
X99173955Y-92597000D01*
X99397484Y-92552537D01*
X99608045Y-92465320D01*
X99797544Y-92338700D01*
X99958700Y-92177544D01*
X100085320Y-91988045D01*
X100172537Y-91777484D01*
X100217000Y-91553955D01*
X100217000Y-91326045D01*
X100172537Y-91102516D01*
X100085320Y-90891955D01*
X99958700Y-90702456D01*
X99797544Y-90541300D01*
X99608045Y-90414680D01*
X99397484Y-90327463D01*
X99173955Y-90283000D01*
X98946045Y-90283000D01*
X98722516Y-90327463D01*
X98511955Y-90414680D01*
X98324000Y-90540268D01*
X98324000Y-89799732D01*
X98511955Y-89925320D01*
X98722516Y-90012537D01*
X98946045Y-90057000D01*
X99173955Y-90057000D01*
X99397484Y-90012537D01*
X99608045Y-89925320D01*
X99797544Y-89798700D01*
X99958700Y-89637544D01*
X100085320Y-89448045D01*
X100172537Y-89237484D01*
X100217000Y-89013955D01*
X100217000Y-88786045D01*
X100172537Y-88562516D01*
X100085320Y-88351955D01*
X99958700Y-88162456D01*
X99797544Y-88001300D01*
X99608045Y-87874680D01*
X99397484Y-87787463D01*
X99173955Y-87743000D01*
X98946045Y-87743000D01*
X98722516Y-87787463D01*
X98511955Y-87874680D01*
X98324000Y-88000268D01*
X98324000Y-87259732D01*
X98511955Y-87385320D01*
X98722516Y-87472537D01*
X98946045Y-87517000D01*
X99173955Y-87517000D01*
X99397484Y-87472537D01*
X99608045Y-87385320D01*
X99797544Y-87258700D01*
X99958700Y-87097544D01*
X100085320Y-86908045D01*
X100172537Y-86697484D01*
X100217000Y-86473955D01*
X100217000Y-86246045D01*
X100172537Y-86022516D01*
X100085320Y-85811955D01*
X99958700Y-85622456D01*
X99797544Y-85461300D01*
X99608045Y-85334680D01*
X99397484Y-85247463D01*
X99173955Y-85203000D01*
X98946045Y-85203000D01*
X98722516Y-85247463D01*
X98511955Y-85334680D01*
X98324000Y-85460268D01*
X98324000Y-84719732D01*
X98511955Y-84845320D01*
X98722516Y-84932537D01*
X98946045Y-84977000D01*
X99173955Y-84977000D01*
X99397484Y-84932537D01*
X99608045Y-84845320D01*
X99797544Y-84718700D01*
X99958700Y-84557544D01*
X100085320Y-84368045D01*
X100172537Y-84157484D01*
X100217000Y-83933955D01*
X100217000Y-83706045D01*
X100172537Y-83482516D01*
X100085320Y-83271955D01*
X99958700Y-83082456D01*
X99797544Y-82921300D01*
X99608045Y-82794680D01*
X99397484Y-82707463D01*
X99173955Y-82663000D01*
X98946045Y-82663000D01*
X98722516Y-82707463D01*
X98511955Y-82794680D01*
X98324000Y-82920268D01*
X98324000Y-82179732D01*
X98511955Y-82305320D01*
X98722516Y-82392537D01*
X98946045Y-82437000D01*
X99173955Y-82437000D01*
X99397484Y-82392537D01*
X99608045Y-82305320D01*
X99797544Y-82178700D01*
X99958700Y-82017544D01*
X100085320Y-81828045D01*
X100172537Y-81617484D01*
X100217000Y-81393955D01*
X100217000Y-81166045D01*
X100172537Y-80942516D01*
X100085320Y-80731955D01*
X99958700Y-80542456D01*
X99797544Y-80381300D01*
X99608045Y-80254680D01*
X99397484Y-80167463D01*
X99173955Y-80123000D01*
X98946045Y-80123000D01*
X98722516Y-80167463D01*
X98511955Y-80254680D01*
X98324000Y-80380268D01*
X98324000Y-79639732D01*
X98511955Y-79765320D01*
G37*
X98511955Y-79765320D02*
X98722516Y-79852537D01*
X98946045Y-79897000D01*
X99173955Y-79897000D01*
X99397484Y-79852537D01*
X99608045Y-79765320D01*
X99762000Y-79662450D01*
X99762000Y-79985224D01*
X99759560Y-80010000D01*
X99762000Y-80034776D01*
X99762000Y-80034782D01*
X99766749Y-80082994D01*
X99769300Y-80108899D01*
X99792825Y-80186451D01*
X99798148Y-80203997D01*
X99844994Y-80291641D01*
X99908039Y-80368461D01*
X99927290Y-80384260D01*
X100327742Y-80784712D01*
X100334798Y-80801746D01*
X100393019Y-80888880D01*
X100467120Y-80962981D01*
X100554254Y-81021202D01*
X100651071Y-81061305D01*
X100714500Y-81073922D01*
X100714501Y-83096715D01*
X100712060Y-83121500D01*
X100721800Y-83220399D01*
X100750648Y-83315497D01*
X100797495Y-83403141D01*
X100834098Y-83447742D01*
X100842798Y-83468746D01*
X100901019Y-83555880D01*
X100975120Y-83629981D01*
X101062254Y-83688202D01*
X101159071Y-83728305D01*
X101261853Y-83748750D01*
X101349501Y-83748750D01*
X101349501Y-83774787D01*
X101342445Y-83791821D01*
X101322000Y-83894603D01*
X101322000Y-83999397D01*
X101342445Y-84102179D01*
X101382548Y-84198996D01*
X101440769Y-84286130D01*
X101514870Y-84360231D01*
X101602004Y-84418452D01*
X101698821Y-84458555D01*
X101801603Y-84479000D01*
X101906397Y-84479000D01*
X102009179Y-84458555D01*
X102105996Y-84418452D01*
X102107702Y-84417312D01*
X102133066Y-84448218D01*
X102153448Y-84473053D01*
X102178281Y-84493433D01*
X102958565Y-85273718D01*
X102978947Y-85298553D01*
X103003780Y-85318933D01*
X103003781Y-85318934D01*
X103033451Y-85343284D01*
X103078074Y-85379905D01*
X103191168Y-85440355D01*
X103313882Y-85477580D01*
X103409527Y-85487000D01*
X103409536Y-85487000D01*
X103441499Y-85490148D01*
X103473462Y-85487000D01*
X104791982Y-85487000D01*
X104739837Y-85539145D01*
X104695225Y-85593505D01*
X104640769Y-85675004D01*
X104607618Y-85737025D01*
X104570109Y-85827581D01*
X104561640Y-85855500D01*
X103296211Y-85855500D01*
X103279179Y-85848445D01*
X103176397Y-85828000D01*
X103071603Y-85828000D01*
X102968821Y-85848445D01*
X102872004Y-85888548D01*
X102784870Y-85946769D01*
X102710769Y-86020870D01*
X102652548Y-86108004D01*
X102612445Y-86204821D01*
X102592000Y-86307603D01*
X102592000Y-86412397D01*
X102612445Y-86515179D01*
X102652548Y-86611996D01*
X102710769Y-86699130D01*
X102784870Y-86773231D01*
X102872004Y-86831452D01*
X102968821Y-86871555D01*
X103071603Y-86892000D01*
X103176397Y-86892000D01*
X103279179Y-86871555D01*
X103296211Y-86864500D01*
X104561640Y-86864500D01*
X104570109Y-86892419D01*
X104607618Y-86982975D01*
X104640769Y-87044996D01*
X104695225Y-87126495D01*
X104739837Y-87180855D01*
X104809145Y-87250163D01*
X104863505Y-87294775D01*
X104945004Y-87349231D01*
X105007025Y-87382382D01*
X105097581Y-87419891D01*
X105164874Y-87440304D01*
X105261007Y-87459426D01*
X105330991Y-87466319D01*
X105355552Y-87466319D01*
X105380000Y-87468727D01*
X105930000Y-87468727D01*
X105999984Y-87461834D01*
X106029000Y-87453032D01*
X106029000Y-87614347D01*
X105521348Y-88122000D01*
X104044973Y-88122000D01*
X104013000Y-88118851D01*
X103981027Y-88122000D01*
X103885382Y-88131420D01*
X103762668Y-88168645D01*
X103649574Y-88229095D01*
X103550447Y-88310447D01*
X103530067Y-88335280D01*
X101088280Y-90777068D01*
X101063447Y-90797448D01*
X101043067Y-90822281D01*
X101043065Y-90822283D01*
X100982094Y-90896575D01*
X100932167Y-90989984D01*
X100921645Y-91009669D01*
X100888390Y-91119298D01*
X100884420Y-91132384D01*
X100871851Y-91260001D01*
X100875000Y-91291974D01*
X100874999Y-93784348D01*
X99992725Y-94666623D01*
X100085320Y-94528045D01*
X100172537Y-94317484D01*
X100217000Y-94093955D01*
X100217000Y-93866045D01*
X100172537Y-93642516D01*
X100085320Y-93431955D01*
X99958700Y-93242456D01*
X99797544Y-93081300D01*
X99608045Y-92954680D01*
X99397484Y-92867463D01*
X99173955Y-92823000D01*
X98946045Y-92823000D01*
X98722516Y-92867463D01*
X98511955Y-92954680D01*
X98324000Y-93080268D01*
X98324000Y-92339732D01*
X98511955Y-92465320D01*
X98722516Y-92552537D01*
X98946045Y-92597000D01*
X99173955Y-92597000D01*
X99397484Y-92552537D01*
X99608045Y-92465320D01*
X99797544Y-92338700D01*
X99958700Y-92177544D01*
X100085320Y-91988045D01*
X100172537Y-91777484D01*
X100217000Y-91553955D01*
X100217000Y-91326045D01*
X100172537Y-91102516D01*
X100085320Y-90891955D01*
X99958700Y-90702456D01*
X99797544Y-90541300D01*
X99608045Y-90414680D01*
X99397484Y-90327463D01*
X99173955Y-90283000D01*
X98946045Y-90283000D01*
X98722516Y-90327463D01*
X98511955Y-90414680D01*
X98324000Y-90540268D01*
X98324000Y-89799732D01*
X98511955Y-89925320D01*
X98722516Y-90012537D01*
X98946045Y-90057000D01*
X99173955Y-90057000D01*
X99397484Y-90012537D01*
X99608045Y-89925320D01*
X99797544Y-89798700D01*
X99958700Y-89637544D01*
X100085320Y-89448045D01*
X100172537Y-89237484D01*
X100217000Y-89013955D01*
X100217000Y-88786045D01*
X100172537Y-88562516D01*
X100085320Y-88351955D01*
X99958700Y-88162456D01*
X99797544Y-88001300D01*
X99608045Y-87874680D01*
X99397484Y-87787463D01*
X99173955Y-87743000D01*
X98946045Y-87743000D01*
X98722516Y-87787463D01*
X98511955Y-87874680D01*
X98324000Y-88000268D01*
X98324000Y-87259732D01*
X98511955Y-87385320D01*
X98722516Y-87472537D01*
X98946045Y-87517000D01*
X99173955Y-87517000D01*
X99397484Y-87472537D01*
X99608045Y-87385320D01*
X99797544Y-87258700D01*
X99958700Y-87097544D01*
X100085320Y-86908045D01*
X100172537Y-86697484D01*
X100217000Y-86473955D01*
X100217000Y-86246045D01*
X100172537Y-86022516D01*
X100085320Y-85811955D01*
X99958700Y-85622456D01*
X99797544Y-85461300D01*
X99608045Y-85334680D01*
X99397484Y-85247463D01*
X99173955Y-85203000D01*
X98946045Y-85203000D01*
X98722516Y-85247463D01*
X98511955Y-85334680D01*
X98324000Y-85460268D01*
X98324000Y-84719732D01*
X98511955Y-84845320D01*
X98722516Y-84932537D01*
X98946045Y-84977000D01*
X99173955Y-84977000D01*
X99397484Y-84932537D01*
X99608045Y-84845320D01*
X99797544Y-84718700D01*
X99958700Y-84557544D01*
X100085320Y-84368045D01*
X100172537Y-84157484D01*
X100217000Y-83933955D01*
X100217000Y-83706045D01*
X100172537Y-83482516D01*
X100085320Y-83271955D01*
X99958700Y-83082456D01*
X99797544Y-82921300D01*
X99608045Y-82794680D01*
X99397484Y-82707463D01*
X99173955Y-82663000D01*
X98946045Y-82663000D01*
X98722516Y-82707463D01*
X98511955Y-82794680D01*
X98324000Y-82920268D01*
X98324000Y-82179732D01*
X98511955Y-82305320D01*
X98722516Y-82392537D01*
X98946045Y-82437000D01*
X99173955Y-82437000D01*
X99397484Y-82392537D01*
X99608045Y-82305320D01*
X99797544Y-82178700D01*
X99958700Y-82017544D01*
X100085320Y-81828045D01*
X100172537Y-81617484D01*
X100217000Y-81393955D01*
X100217000Y-81166045D01*
X100172537Y-80942516D01*
X100085320Y-80731955D01*
X99958700Y-80542456D01*
X99797544Y-80381300D01*
X99608045Y-80254680D01*
X99397484Y-80167463D01*
X99173955Y-80123000D01*
X98946045Y-80123000D01*
X98722516Y-80167463D01*
X98511955Y-80254680D01*
X98324000Y-80380268D01*
X98324000Y-79639732D01*
X98511955Y-79765320D01*
G36*
X106227999Y-75018282D02*
G01*
X106228000Y-75018291D01*
X106227999Y-75601289D01*
X106225559Y-75626065D01*
X106227999Y-75650841D01*
X106227999Y-75650847D01*
X106232296Y-75694473D01*
X106235299Y-75724964D01*
X106255064Y-75790119D01*
X106264147Y-75820062D01*
X106310993Y-75907706D01*
X106374038Y-75984526D01*
X106393289Y-76000325D01*
X106805174Y-76412210D01*
X106820973Y-76431461D01*
X106897793Y-76494506D01*
X106985436Y-76541352D01*
X107080534Y-76570200D01*
X107089541Y-76571087D01*
X107154651Y-76577500D01*
X107154658Y-76577500D01*
X107179434Y-76579940D01*
X107204210Y-76577500D01*
X107550531Y-76577500D01*
X107575737Y-76602706D01*
X107575741Y-76602711D01*
X107826501Y-76853472D01*
X107826500Y-79151273D01*
X107080000Y-79151273D01*
X107010016Y-79158166D01*
X106942721Y-79178579D01*
X106880702Y-79211729D01*
X106826342Y-79256342D01*
X106781729Y-79310702D01*
X106748579Y-79372721D01*
X106728166Y-79440016D01*
X106721273Y-79510000D01*
X106721273Y-80510000D01*
X106728166Y-80579984D01*
X106748579Y-80647279D01*
X106781729Y-80709298D01*
X106826342Y-80763658D01*
X106880702Y-80808271D01*
X106942721Y-80841421D01*
X107010016Y-80861834D01*
X107080000Y-80868727D01*
X108899337Y-80868727D01*
X108884447Y-80880947D01*
X108803095Y-80980074D01*
X108742645Y-81093168D01*
X108705420Y-81215882D01*
X108692851Y-81343500D01*
X108705420Y-81471118D01*
X108742645Y-81593832D01*
X108770501Y-81645946D01*
X108770500Y-82394690D01*
X108767712Y-82423000D01*
X108770500Y-82451309D01*
X108770500Y-82451316D01*
X108778842Y-82536013D01*
X108811807Y-82644683D01*
X108865339Y-82744835D01*
X108937381Y-82832619D01*
X108959381Y-82850674D01*
X110784479Y-84675773D01*
X110244000Y-84675773D01*
X110174016Y-84682666D01*
X110106721Y-84703079D01*
X110044702Y-84736229D01*
X109990342Y-84780842D01*
X109945729Y-84835202D01*
X109912579Y-84897221D01*
X109892166Y-84964516D01*
X109885273Y-85034500D01*
X109885273Y-86034500D01*
X109892166Y-86104484D01*
X109912579Y-86171779D01*
X109945729Y-86233798D01*
X109990342Y-86288158D01*
X110034234Y-86324180D01*
X109984536Y-86398558D01*
X109919934Y-86554522D01*
X109887000Y-86720093D01*
X109887000Y-86888907D01*
X109919934Y-87054478D01*
X109984536Y-87210442D01*
X110078324Y-87350806D01*
X110167018Y-87439500D01*
X110078324Y-87528194D01*
X109984536Y-87668558D01*
X109919934Y-87824522D01*
X109887000Y-87990093D01*
X109887000Y-88158907D01*
X109919934Y-88324478D01*
X109984536Y-88480442D01*
X110078324Y-88620806D01*
X110167018Y-88709500D01*
X110078324Y-88798194D01*
X109984536Y-88938558D01*
X109919934Y-89094522D01*
X109887000Y-89260093D01*
X109887000Y-89428907D01*
X109919934Y-89594478D01*
X109984536Y-89750442D01*
X110078324Y-89890806D01*
X110167018Y-89979500D01*
X110078324Y-90068194D01*
X109984536Y-90208558D01*
X109919934Y-90364522D01*
X109887000Y-90530093D01*
X109887000Y-90698907D01*
X109919934Y-90864478D01*
X109984536Y-91020442D01*
X110078324Y-91160806D01*
X110151018Y-91233500D01*
X107350807Y-91233500D01*
X107379298Y-91218271D01*
X107433658Y-91173658D01*
X107478271Y-91119298D01*
X107511421Y-91057279D01*
X107531834Y-90989984D01*
X107538727Y-90920000D01*
X107538727Y-89420000D01*
X107531834Y-89350016D01*
X107511421Y-89282721D01*
X107478271Y-89220702D01*
X107433658Y-89166342D01*
X107379298Y-89121729D01*
X107317279Y-89088579D01*
X107249984Y-89068166D01*
X107180000Y-89061273D01*
X106423379Y-89061273D01*
X107117721Y-88366932D01*
X107142553Y-88346553D01*
X107223905Y-88247426D01*
X107284355Y-88134332D01*
X107321580Y-88011618D01*
X107331000Y-87915973D01*
X107331000Y-87915965D01*
X107334148Y-87884000D01*
X107331000Y-87852035D01*
X107331000Y-87453032D01*
X107360016Y-87461834D01*
X107430000Y-87468727D01*
X107980000Y-87468727D01*
X108004448Y-87466319D01*
X108029009Y-87466319D01*
X108098993Y-87459426D01*
X108195126Y-87440304D01*
X108262419Y-87419891D01*
X108352975Y-87382382D01*
X108414996Y-87349231D01*
X108496495Y-87294775D01*
X108550855Y-87250163D01*
X108620163Y-87180855D01*
X108664775Y-87126495D01*
X108719231Y-87044996D01*
X108752382Y-86982975D01*
X108789891Y-86892419D01*
X108810304Y-86825126D01*
X108829426Y-86728993D01*
X108836319Y-86659009D01*
X108836319Y-86634448D01*
X108838727Y-86610000D01*
X108838727Y-86110000D01*
X108836319Y-86085552D01*
X108836319Y-86060991D01*
X108829426Y-85991007D01*
X108810304Y-85894874D01*
X108789891Y-85827581D01*
X108752382Y-85737025D01*
X108719231Y-85675004D01*
X108664775Y-85593505D01*
X108631000Y-85552350D01*
X108631000Y-85342462D01*
X108634148Y-85310499D01*
X108631000Y-85278536D01*
X108631000Y-85278527D01*
X108621580Y-85182882D01*
X108584355Y-85060168D01*
X108523905Y-84947074D01*
X108442553Y-84847947D01*
X108417720Y-84827567D01*
X107988438Y-84398285D01*
X107968053Y-84373447D01*
X107868926Y-84292095D01*
X107755832Y-84231645D01*
X107633118Y-84194420D01*
X107537473Y-84185000D01*
X107537463Y-84185000D01*
X107505500Y-84181852D01*
X107473537Y-84185000D01*
X104723843Y-84185000D01*
X104735500Y-84126397D01*
X104735500Y-84034500D01*
X104827397Y-84034500D01*
X104930179Y-84014055D01*
X105026996Y-83973952D01*
X105114130Y-83915731D01*
X105188231Y-83841630D01*
X105246452Y-83754496D01*
X105286555Y-83657679D01*
X105307000Y-83554897D01*
X105307000Y-83526500D01*
X105398897Y-83526500D01*
X105501679Y-83506055D01*
X105598496Y-83465952D01*
X105685630Y-83407731D01*
X105759731Y-83333630D01*
X105817952Y-83246496D01*
X105858055Y-83149679D01*
X105878500Y-83046897D01*
X105878500Y-82942103D01*
X105858055Y-82839321D01*
X105817952Y-82742504D01*
X105759731Y-82655370D01*
X105685630Y-82581269D01*
X105598496Y-82523048D01*
X105581462Y-82515992D01*
X105549749Y-82484279D01*
X105549749Y-81829025D01*
X105552189Y-81804249D01*
X105549749Y-81779473D01*
X105549749Y-81779466D01*
X105542449Y-81705350D01*
X105513601Y-81610251D01*
X105466755Y-81522608D01*
X105403710Y-81445788D01*
X105384459Y-81429989D01*
X105348758Y-81394288D01*
X105341702Y-81377254D01*
X105283481Y-81290120D01*
X105209380Y-81216019D01*
X105139171Y-81169107D01*
X105179852Y-81092998D01*
X105189466Y-81061305D01*
X105208700Y-80997900D01*
X105211324Y-80971255D01*
X105216000Y-80923783D01*
X105216000Y-80923776D01*
X105218440Y-80899000D01*
X105216000Y-80874224D01*
X105216000Y-80499711D01*
X105223055Y-80482679D01*
X105243500Y-80379897D01*
X105243500Y-80275103D01*
X105223055Y-80172321D01*
X105182952Y-80075504D01*
X105124731Y-79988370D01*
X105050630Y-79914269D01*
X104963496Y-79856048D01*
X104866679Y-79815945D01*
X104763897Y-79795500D01*
X104659103Y-79795500D01*
X104556321Y-79815945D01*
X104459504Y-79856048D01*
X104372370Y-79914269D01*
X104298269Y-79988370D01*
X104240048Y-80075504D01*
X104199945Y-80172321D01*
X104179500Y-80275103D01*
X104179500Y-80379897D01*
X104199945Y-80482679D01*
X104207000Y-80499712D01*
X104207001Y-80690029D01*
X104149520Y-80747510D01*
X104149520Y-78793526D01*
X104151960Y-78768753D01*
X104149520Y-78743980D01*
X104149520Y-78743971D01*
X104142220Y-78669855D01*
X104113372Y-78574756D01*
X104066526Y-78487113D01*
X104003481Y-78410293D01*
X103984230Y-78394494D01*
X103926999Y-78337263D01*
X103926999Y-78328727D01*
X106280000Y-78328727D01*
X106349984Y-78321834D01*
X106417279Y-78301421D01*
X106479298Y-78268271D01*
X106533658Y-78223658D01*
X106578271Y-78169298D01*
X106611421Y-78107279D01*
X106631834Y-78039984D01*
X106638727Y-77970000D01*
X106638727Y-76970000D01*
X106631834Y-76900016D01*
X106611421Y-76832721D01*
X106578271Y-76770702D01*
X106533658Y-76716342D01*
X106479298Y-76671729D01*
X106417279Y-76638579D01*
X106349984Y-76618166D01*
X106280000Y-76611273D01*
X105529500Y-76611273D01*
X105529500Y-75368419D01*
X106227999Y-74669920D01*
X106227999Y-75018282D01*
G37*
X106227999Y-75018282D02*
X106228000Y-75018291D01*
X106227999Y-75601289D01*
X106225559Y-75626065D01*
X106227999Y-75650841D01*
X106227999Y-75650847D01*
X106232296Y-75694473D01*
X106235299Y-75724964D01*
X106255064Y-75790119D01*
X106264147Y-75820062D01*
X106310993Y-75907706D01*
X106374038Y-75984526D01*
X106393289Y-76000325D01*
X106805174Y-76412210D01*
X106820973Y-76431461D01*
X106897793Y-76494506D01*
X106985436Y-76541352D01*
X107080534Y-76570200D01*
X107089541Y-76571087D01*
X107154651Y-76577500D01*
X107154658Y-76577500D01*
X107179434Y-76579940D01*
X107204210Y-76577500D01*
X107550531Y-76577500D01*
X107575737Y-76602706D01*
X107575741Y-76602711D01*
X107826501Y-76853472D01*
X107826500Y-79151273D01*
X107080000Y-79151273D01*
X107010016Y-79158166D01*
X106942721Y-79178579D01*
X106880702Y-79211729D01*
X106826342Y-79256342D01*
X106781729Y-79310702D01*
X106748579Y-79372721D01*
X106728166Y-79440016D01*
X106721273Y-79510000D01*
X106721273Y-80510000D01*
X106728166Y-80579984D01*
X106748579Y-80647279D01*
X106781729Y-80709298D01*
X106826342Y-80763658D01*
X106880702Y-80808271D01*
X106942721Y-80841421D01*
X107010016Y-80861834D01*
X107080000Y-80868727D01*
X108899337Y-80868727D01*
X108884447Y-80880947D01*
X108803095Y-80980074D01*
X108742645Y-81093168D01*
X108705420Y-81215882D01*
X108692851Y-81343500D01*
X108705420Y-81471118D01*
X108742645Y-81593832D01*
X108770501Y-81645946D01*
X108770500Y-82394690D01*
X108767712Y-82423000D01*
X108770500Y-82451309D01*
X108770500Y-82451316D01*
X108778842Y-82536013D01*
X108811807Y-82644683D01*
X108865339Y-82744835D01*
X108937381Y-82832619D01*
X108959381Y-82850674D01*
X110784479Y-84675773D01*
X110244000Y-84675773D01*
X110174016Y-84682666D01*
X110106721Y-84703079D01*
X110044702Y-84736229D01*
X109990342Y-84780842D01*
X109945729Y-84835202D01*
X109912579Y-84897221D01*
X109892166Y-84964516D01*
X109885273Y-85034500D01*
X109885273Y-86034500D01*
X109892166Y-86104484D01*
X109912579Y-86171779D01*
X109945729Y-86233798D01*
X109990342Y-86288158D01*
X110034234Y-86324180D01*
X109984536Y-86398558D01*
X109919934Y-86554522D01*
X109887000Y-86720093D01*
X109887000Y-86888907D01*
X109919934Y-87054478D01*
X109984536Y-87210442D01*
X110078324Y-87350806D01*
X110167018Y-87439500D01*
X110078324Y-87528194D01*
X109984536Y-87668558D01*
X109919934Y-87824522D01*
X109887000Y-87990093D01*
X109887000Y-88158907D01*
X109919934Y-88324478D01*
X109984536Y-88480442D01*
X110078324Y-88620806D01*
X110167018Y-88709500D01*
X110078324Y-88798194D01*
X109984536Y-88938558D01*
X109919934Y-89094522D01*
X109887000Y-89260093D01*
X109887000Y-89428907D01*
X109919934Y-89594478D01*
X109984536Y-89750442D01*
X110078324Y-89890806D01*
X110167018Y-89979500D01*
X110078324Y-90068194D01*
X109984536Y-90208558D01*
X109919934Y-90364522D01*
X109887000Y-90530093D01*
X109887000Y-90698907D01*
X109919934Y-90864478D01*
X109984536Y-91020442D01*
X110078324Y-91160806D01*
X110151018Y-91233500D01*
X107350807Y-91233500D01*
X107379298Y-91218271D01*
X107433658Y-91173658D01*
X107478271Y-91119298D01*
X107511421Y-91057279D01*
X107531834Y-90989984D01*
X107538727Y-90920000D01*
X107538727Y-89420000D01*
X107531834Y-89350016D01*
X107511421Y-89282721D01*
X107478271Y-89220702D01*
X107433658Y-89166342D01*
X107379298Y-89121729D01*
X107317279Y-89088579D01*
X107249984Y-89068166D01*
X107180000Y-89061273D01*
X106423379Y-89061273D01*
X107117721Y-88366932D01*
X107142553Y-88346553D01*
X107223905Y-88247426D01*
X107284355Y-88134332D01*
X107321580Y-88011618D01*
X107331000Y-87915973D01*
X107331000Y-87915965D01*
X107334148Y-87884000D01*
X107331000Y-87852035D01*
X107331000Y-87453032D01*
X107360016Y-87461834D01*
X107430000Y-87468727D01*
X107980000Y-87468727D01*
X108004448Y-87466319D01*
X108029009Y-87466319D01*
X108098993Y-87459426D01*
X108195126Y-87440304D01*
X108262419Y-87419891D01*
X108352975Y-87382382D01*
X108414996Y-87349231D01*
X108496495Y-87294775D01*
X108550855Y-87250163D01*
X108620163Y-87180855D01*
X108664775Y-87126495D01*
X108719231Y-87044996D01*
X108752382Y-86982975D01*
X108789891Y-86892419D01*
X108810304Y-86825126D01*
X108829426Y-86728993D01*
X108836319Y-86659009D01*
X108836319Y-86634448D01*
X108838727Y-86610000D01*
X108838727Y-86110000D01*
X108836319Y-86085552D01*
X108836319Y-86060991D01*
X108829426Y-85991007D01*
X108810304Y-85894874D01*
X108789891Y-85827581D01*
X108752382Y-85737025D01*
X108719231Y-85675004D01*
X108664775Y-85593505D01*
X108631000Y-85552350D01*
X108631000Y-85342462D01*
X108634148Y-85310499D01*
X108631000Y-85278536D01*
X108631000Y-85278527D01*
X108621580Y-85182882D01*
X108584355Y-85060168D01*
X108523905Y-84947074D01*
X108442553Y-84847947D01*
X108417720Y-84827567D01*
X107988438Y-84398285D01*
X107968053Y-84373447D01*
X107868926Y-84292095D01*
X107755832Y-84231645D01*
X107633118Y-84194420D01*
X107537473Y-84185000D01*
X107537463Y-84185000D01*
X107505500Y-84181852D01*
X107473537Y-84185000D01*
X104723843Y-84185000D01*
X104735500Y-84126397D01*
X104735500Y-84034500D01*
X104827397Y-84034500D01*
X104930179Y-84014055D01*
X105026996Y-83973952D01*
X105114130Y-83915731D01*
X105188231Y-83841630D01*
X105246452Y-83754496D01*
X105286555Y-83657679D01*
X105307000Y-83554897D01*
X105307000Y-83526500D01*
X105398897Y-83526500D01*
X105501679Y-83506055D01*
X105598496Y-83465952D01*
X105685630Y-83407731D01*
X105759731Y-83333630D01*
X105817952Y-83246496D01*
X105858055Y-83149679D01*
X105878500Y-83046897D01*
X105878500Y-82942103D01*
X105858055Y-82839321D01*
X105817952Y-82742504D01*
X105759731Y-82655370D01*
X105685630Y-82581269D01*
X105598496Y-82523048D01*
X105581462Y-82515992D01*
X105549749Y-82484279D01*
X105549749Y-81829025D01*
X105552189Y-81804249D01*
X105549749Y-81779473D01*
X105549749Y-81779466D01*
X105542449Y-81705350D01*
X105513601Y-81610251D01*
X105466755Y-81522608D01*
X105403710Y-81445788D01*
X105384459Y-81429989D01*
X105348758Y-81394288D01*
X105341702Y-81377254D01*
X105283481Y-81290120D01*
X105209380Y-81216019D01*
X105139171Y-81169107D01*
X105179852Y-81092998D01*
X105189466Y-81061305D01*
X105208700Y-80997900D01*
X105211324Y-80971255D01*
X105216000Y-80923783D01*
X105216000Y-80923776D01*
X105218440Y-80899000D01*
X105216000Y-80874224D01*
X105216000Y-80499711D01*
X105223055Y-80482679D01*
X105243500Y-80379897D01*
X105243500Y-80275103D01*
X105223055Y-80172321D01*
X105182952Y-80075504D01*
X105124731Y-79988370D01*
X105050630Y-79914269D01*
X104963496Y-79856048D01*
X104866679Y-79815945D01*
X104763897Y-79795500D01*
X104659103Y-79795500D01*
X104556321Y-79815945D01*
X104459504Y-79856048D01*
X104372370Y-79914269D01*
X104298269Y-79988370D01*
X104240048Y-80075504D01*
X104199945Y-80172321D01*
X104179500Y-80275103D01*
X104179500Y-80379897D01*
X104199945Y-80482679D01*
X104207000Y-80499712D01*
X104207001Y-80690029D01*
X104149520Y-80747510D01*
X104149520Y-78793526D01*
X104151960Y-78768753D01*
X104149520Y-78743980D01*
X104149520Y-78743971D01*
X104142220Y-78669855D01*
X104113372Y-78574756D01*
X104066526Y-78487113D01*
X104003481Y-78410293D01*
X103984230Y-78394494D01*
X103926999Y-78337263D01*
X103926999Y-78328727D01*
X106280000Y-78328727D01*
X106349984Y-78321834D01*
X106417279Y-78301421D01*
X106479298Y-78268271D01*
X106533658Y-78223658D01*
X106578271Y-78169298D01*
X106611421Y-78107279D01*
X106631834Y-78039984D01*
X106638727Y-77970000D01*
X106638727Y-76970000D01*
X106631834Y-76900016D01*
X106611421Y-76832721D01*
X106578271Y-76770702D01*
X106533658Y-76716342D01*
X106479298Y-76671729D01*
X106417279Y-76638579D01*
X106349984Y-76618166D01*
X106280000Y-76611273D01*
X105529500Y-76611273D01*
X105529500Y-75368419D01*
X106227999Y-74669920D01*
X106227999Y-75018282D01*
G36*
X111103971Y-78123832D02*
G01*
X111101530Y-78148617D01*
X111111271Y-78247516D01*
X111140119Y-78342615D01*
X111186965Y-78430258D01*
X111234211Y-78487828D01*
X111234216Y-78487833D01*
X111250010Y-78507078D01*
X111269256Y-78522873D01*
X111597432Y-78851048D01*
X111597433Y-80457245D01*
X111594992Y-80482030D01*
X111604732Y-80580929D01*
X111633580Y-80676027D01*
X111680427Y-80763671D01*
X111727673Y-80821241D01*
X111727678Y-80821246D01*
X111743472Y-80840491D01*
X111762717Y-80856285D01*
X112093990Y-81187559D01*
X112093991Y-82793754D01*
X112091550Y-82818539D01*
X112101291Y-82917438D01*
X112130139Y-83012537D01*
X112176985Y-83100180D01*
X112224231Y-83157750D01*
X112224236Y-83157755D01*
X112240030Y-83177000D01*
X112259276Y-83192795D01*
X112589000Y-83522518D01*
X112589001Y-84849707D01*
X109923500Y-82184207D01*
X109923500Y-81956162D01*
X109950885Y-81947855D01*
X110063979Y-81887405D01*
X110163106Y-81806053D01*
X110183491Y-81781215D01*
X110673720Y-81290986D01*
X110698553Y-81270606D01*
X110779905Y-81171479D01*
X110840355Y-81058385D01*
X110877580Y-80935671D01*
X110887000Y-80840026D01*
X110887000Y-80840017D01*
X110890148Y-80808054D01*
X110887000Y-80776091D01*
X110887000Y-79216473D01*
X110890149Y-79184500D01*
X110877580Y-79056882D01*
X110840355Y-78934168D01*
X110779905Y-78821074D01*
X110718935Y-78746782D01*
X110718933Y-78746780D01*
X110698553Y-78721947D01*
X110673719Y-78701566D01*
X109807500Y-77835348D01*
X109807500Y-77168152D01*
X110830220Y-76145433D01*
X110855052Y-76125054D01*
X110880196Y-76094417D01*
X110936404Y-76025927D01*
X110996854Y-75912833D01*
X111034079Y-75790119D01*
X111046648Y-75662501D01*
X111043499Y-75630528D01*
X111043499Y-74763500D01*
X111103970Y-74763500D01*
X111103971Y-78123832D01*
G37*
X111103971Y-78123832D02*
X111101530Y-78148617D01*
X111111271Y-78247516D01*
X111140119Y-78342615D01*
X111186965Y-78430258D01*
X111234211Y-78487828D01*
X111234216Y-78487833D01*
X111250010Y-78507078D01*
X111269256Y-78522873D01*
X111597432Y-78851048D01*
X111597433Y-80457245D01*
X111594992Y-80482030D01*
X111604732Y-80580929D01*
X111633580Y-80676027D01*
X111680427Y-80763671D01*
X111727673Y-80821241D01*
X111727678Y-80821246D01*
X111743472Y-80840491D01*
X111762717Y-80856285D01*
X112093990Y-81187559D01*
X112093991Y-82793754D01*
X112091550Y-82818539D01*
X112101291Y-82917438D01*
X112130139Y-83012537D01*
X112176985Y-83100180D01*
X112224231Y-83157750D01*
X112224236Y-83157755D01*
X112240030Y-83177000D01*
X112259276Y-83192795D01*
X112589000Y-83522518D01*
X112589001Y-84849707D01*
X109923500Y-82184207D01*
X109923500Y-81956162D01*
X109950885Y-81947855D01*
X110063979Y-81887405D01*
X110163106Y-81806053D01*
X110183491Y-81781215D01*
X110673720Y-81290986D01*
X110698553Y-81270606D01*
X110779905Y-81171479D01*
X110840355Y-81058385D01*
X110877580Y-80935671D01*
X110887000Y-80840026D01*
X110887000Y-80840017D01*
X110890148Y-80808054D01*
X110887000Y-80776091D01*
X110887000Y-79216473D01*
X110890149Y-79184500D01*
X110877580Y-79056882D01*
X110840355Y-78934168D01*
X110779905Y-78821074D01*
X110718935Y-78746782D01*
X110718933Y-78746780D01*
X110698553Y-78721947D01*
X110673719Y-78701566D01*
X109807500Y-77835348D01*
X109807500Y-77168152D01*
X110830220Y-76145433D01*
X110855052Y-76125054D01*
X110880196Y-76094417D01*
X110936404Y-76025927D01*
X110996854Y-75912833D01*
X111034079Y-75790119D01*
X111046648Y-75662501D01*
X111043499Y-75630528D01*
X111043499Y-74763500D01*
X111103970Y-74763500D01*
X111103971Y-78123832D01*
G36*
X103632721Y-73221421D02*
G01*
X103700016Y-73241834D01*
X103770000Y-73248727D01*
X106222253Y-73248727D01*
X106188259Y-73282721D01*
X106188248Y-73282730D01*
X104685785Y-74785194D01*
X104666540Y-74800988D01*
X104650746Y-74820233D01*
X104650741Y-74820238D01*
X104603495Y-74877808D01*
X104556648Y-74965452D01*
X104527800Y-75060550D01*
X104518060Y-75159449D01*
X104520501Y-75184234D01*
X104520500Y-76093782D01*
X104520501Y-76093791D01*
X104520500Y-76611273D01*
X103926999Y-76611273D01*
X103926999Y-76364471D01*
X104120964Y-76170507D01*
X104137996Y-76163452D01*
X104225130Y-76105231D01*
X104299231Y-76031130D01*
X104357452Y-75943996D01*
X104397555Y-75847179D01*
X104418000Y-75744397D01*
X104418000Y-75639603D01*
X104397555Y-75536821D01*
X104357452Y-75440004D01*
X104299231Y-75352870D01*
X104225130Y-75278769D01*
X104137996Y-75220548D01*
X104041179Y-75180445D01*
X103938397Y-75160000D01*
X103833603Y-75160000D01*
X103730821Y-75180445D01*
X103634004Y-75220548D01*
X103546870Y-75278769D01*
X103472769Y-75352870D01*
X103414548Y-75440004D01*
X103407493Y-75457036D01*
X103083289Y-75781241D01*
X103064038Y-75797040D01*
X103044040Y-75821407D01*
X103044040Y-74787612D01*
X103371219Y-74460434D01*
X103396053Y-74440053D01*
X103430940Y-74397544D01*
X103477405Y-74340926D01*
X103537855Y-74227832D01*
X103575080Y-74105118D01*
X103577361Y-74081961D01*
X103584500Y-74009473D01*
X103584500Y-74009465D01*
X103587648Y-73977500D01*
X103584500Y-73945535D01*
X103584500Y-73195646D01*
X103632721Y-73221421D01*
G37*
X103632721Y-73221421D02*
X103700016Y-73241834D01*
X103770000Y-73248727D01*
X106222253Y-73248727D01*
X106188259Y-73282721D01*
X106188248Y-73282730D01*
X104685785Y-74785194D01*
X104666540Y-74800988D01*
X104650746Y-74820233D01*
X104650741Y-74820238D01*
X104603495Y-74877808D01*
X104556648Y-74965452D01*
X104527800Y-75060550D01*
X104518060Y-75159449D01*
X104520501Y-75184234D01*
X104520500Y-76093782D01*
X104520501Y-76093791D01*
X104520500Y-76611273D01*
X103926999Y-76611273D01*
X103926999Y-76364471D01*
X104120964Y-76170507D01*
X104137996Y-76163452D01*
X104225130Y-76105231D01*
X104299231Y-76031130D01*
X104357452Y-75943996D01*
X104397555Y-75847179D01*
X104418000Y-75744397D01*
X104418000Y-75639603D01*
X104397555Y-75536821D01*
X104357452Y-75440004D01*
X104299231Y-75352870D01*
X104225130Y-75278769D01*
X104137996Y-75220548D01*
X104041179Y-75180445D01*
X103938397Y-75160000D01*
X103833603Y-75160000D01*
X103730821Y-75180445D01*
X103634004Y-75220548D01*
X103546870Y-75278769D01*
X103472769Y-75352870D01*
X103414548Y-75440004D01*
X103407493Y-75457036D01*
X103083289Y-75781241D01*
X103064038Y-75797040D01*
X103044040Y-75821407D01*
X103044040Y-74787612D01*
X103371219Y-74460434D01*
X103396053Y-74440053D01*
X103430940Y-74397544D01*
X103477405Y-74340926D01*
X103537855Y-74227832D01*
X103575080Y-74105118D01*
X103577361Y-74081961D01*
X103584500Y-74009473D01*
X103584500Y-74009465D01*
X103587648Y-73977500D01*
X103584500Y-73945535D01*
X103584500Y-73195646D01*
X103632721Y-73221421D01*
G36*
X113274680Y-47711955D02*
G01*
X113187463Y-47922516D01*
X113143000Y-48146045D01*
X113143000Y-48373955D01*
X113187463Y-48597484D01*
X113274680Y-48808045D01*
X113401300Y-48997544D01*
X113562456Y-49158700D01*
X113751955Y-49285320D01*
X113962516Y-49372537D01*
X114186045Y-49417000D01*
X114413955Y-49417000D01*
X114637484Y-49372537D01*
X114848045Y-49285320D01*
X115036000Y-49159732D01*
X115036000Y-49900268D01*
X114848045Y-49774680D01*
X114637484Y-49687463D01*
X114413955Y-49643000D01*
X114186045Y-49643000D01*
X113962516Y-49687463D01*
X113751955Y-49774680D01*
X113562456Y-49901300D01*
X113401300Y-50062456D01*
X113274680Y-50251955D01*
X113187463Y-50462516D01*
X113143000Y-50686045D01*
X113143000Y-50913955D01*
X113187463Y-51137484D01*
X113274680Y-51348045D01*
X113401300Y-51537544D01*
X113562456Y-51698700D01*
X113751955Y-51825320D01*
X113962516Y-51912537D01*
X114186045Y-51957000D01*
X114413955Y-51957000D01*
X114637484Y-51912537D01*
X114848045Y-51825320D01*
X115036000Y-51699732D01*
X115036000Y-52440268D01*
X114848045Y-52314680D01*
X114637484Y-52227463D01*
X114413955Y-52183000D01*
X114186045Y-52183000D01*
X113962516Y-52227463D01*
X113751955Y-52314680D01*
X113562456Y-52441300D01*
X113401300Y-52602456D01*
X113274680Y-52791955D01*
X113187463Y-53002516D01*
X113143000Y-53226045D01*
X113143000Y-53453955D01*
X113187463Y-53677484D01*
X113274680Y-53888045D01*
X113401300Y-54077544D01*
X113562456Y-54238700D01*
X113751955Y-54365320D01*
X113962516Y-54452537D01*
X114186045Y-54497000D01*
X114413955Y-54497000D01*
X114637484Y-54452537D01*
X114848045Y-54365320D01*
X115036000Y-54239732D01*
X115036000Y-54980268D01*
X114848045Y-54854680D01*
X114637484Y-54767463D01*
X114413955Y-54723000D01*
X114186045Y-54723000D01*
X113962516Y-54767463D01*
X113751955Y-54854680D01*
X113562456Y-54981300D01*
X113401300Y-55142456D01*
X113274680Y-55331955D01*
X113187463Y-55542516D01*
X113143000Y-55766045D01*
X113143000Y-55993955D01*
X113187463Y-56217484D01*
X113274680Y-56428045D01*
X113401300Y-56617544D01*
X113562456Y-56778700D01*
X113751955Y-56905320D01*
X113962516Y-56992537D01*
X114186045Y-57037000D01*
X114413955Y-57037000D01*
X114637484Y-56992537D01*
X114848045Y-56905320D01*
X115036000Y-56779732D01*
X115036000Y-57520268D01*
X114848045Y-57394680D01*
X114637484Y-57307463D01*
X114413955Y-57263000D01*
X114186045Y-57263000D01*
X113962516Y-57307463D01*
X113751955Y-57394680D01*
X113562456Y-57521300D01*
X113401300Y-57682456D01*
X113274680Y-57871955D01*
X113187463Y-58082516D01*
X113143000Y-58306045D01*
X113143000Y-58533955D01*
X113187463Y-58757484D01*
X113274680Y-58968045D01*
X113401300Y-59157544D01*
X113562456Y-59318700D01*
X113751955Y-59445320D01*
X113962516Y-59532537D01*
X114186045Y-59577000D01*
X114413955Y-59577000D01*
X114637484Y-59532537D01*
X114848045Y-59445320D01*
X115036000Y-59319732D01*
X115036000Y-60060268D01*
X114848045Y-59934680D01*
X114637484Y-59847463D01*
X114413955Y-59803000D01*
X114186045Y-59803000D01*
X113962516Y-59847463D01*
X113751955Y-59934680D01*
X113562456Y-60061300D01*
X113401300Y-60222456D01*
X113274680Y-60411955D01*
X113187463Y-60622516D01*
X113143000Y-60846045D01*
X113143000Y-61073955D01*
X113187463Y-61297484D01*
X113274680Y-61508045D01*
X113401300Y-61697544D01*
X113562456Y-61858700D01*
X113751955Y-61985320D01*
X113962516Y-62072537D01*
X114186045Y-62117000D01*
X114413955Y-62117000D01*
X114637484Y-62072537D01*
X114848045Y-61985320D01*
X115036000Y-61859731D01*
X115036000Y-62600269D01*
X114848045Y-62474680D01*
X114637484Y-62387463D01*
X114413955Y-62343000D01*
X114186045Y-62343000D01*
X113962516Y-62387463D01*
X113751955Y-62474680D01*
X113562456Y-62601300D01*
X113401300Y-62762456D01*
X113274680Y-62951955D01*
X113187463Y-63162516D01*
X113143000Y-63386045D01*
X113143000Y-63613955D01*
X113187463Y-63837484D01*
X113274680Y-64048045D01*
X113401300Y-64237544D01*
X113562456Y-64398700D01*
X113751955Y-64525320D01*
X113962516Y-64612537D01*
X114186045Y-64657000D01*
X114413955Y-64657000D01*
X114637484Y-64612537D01*
X114848045Y-64525320D01*
X115036000Y-64399731D01*
X115036000Y-65140269D01*
X114848045Y-65014680D01*
X114637484Y-64927463D01*
X114413955Y-64883000D01*
X114186045Y-64883000D01*
X113962516Y-64927463D01*
X113751955Y-65014680D01*
X113562456Y-65141300D01*
X113401300Y-65302456D01*
X113274680Y-65491955D01*
X113187463Y-65702516D01*
X113143000Y-65926045D01*
X113143000Y-66153955D01*
X113187463Y-66377484D01*
X113274680Y-66588045D01*
X113401300Y-66777544D01*
X113562456Y-66938700D01*
X113751955Y-67065320D01*
X113962516Y-67152537D01*
X114186045Y-67197000D01*
X114413955Y-67197000D01*
X114637484Y-67152537D01*
X114848045Y-67065320D01*
X115036000Y-66939731D01*
X115036000Y-67680269D01*
X114848045Y-67554680D01*
X114637484Y-67467463D01*
X114413955Y-67423000D01*
X114186045Y-67423000D01*
X113962516Y-67467463D01*
X113751955Y-67554680D01*
X113562456Y-67681300D01*
X113401300Y-67842456D01*
X113274680Y-68031955D01*
X113187463Y-68242516D01*
X113143000Y-68466045D01*
X113143000Y-68693955D01*
X113187463Y-68917484D01*
X113274680Y-69128045D01*
X113401300Y-69317544D01*
X113562456Y-69478700D01*
X113751955Y-69605320D01*
X113962516Y-69692537D01*
X114186045Y-69737000D01*
X114413955Y-69737000D01*
X114637484Y-69692537D01*
X114848045Y-69605320D01*
X115036000Y-69479731D01*
X115036000Y-70220269D01*
X114848045Y-70094680D01*
X114637484Y-70007463D01*
X114413955Y-69963000D01*
X114186045Y-69963000D01*
X113962516Y-70007463D01*
X113751955Y-70094680D01*
X113562456Y-70221300D01*
X113401300Y-70382456D01*
X113274680Y-70571955D01*
X113187463Y-70782516D01*
X113143000Y-71006045D01*
X113143000Y-71233955D01*
X113187463Y-71457484D01*
X113274680Y-71668045D01*
X113401300Y-71857544D01*
X113562456Y-72018700D01*
X113751955Y-72145320D01*
X113962516Y-72232537D01*
X114186045Y-72277000D01*
X114413955Y-72277000D01*
X114637484Y-72232537D01*
X114848045Y-72145320D01*
X115036000Y-72019731D01*
X115036001Y-72760269D01*
X114848045Y-72634680D01*
X114637484Y-72547463D01*
X114413955Y-72503000D01*
X114186045Y-72503000D01*
X113962516Y-72547463D01*
X113751955Y-72634680D01*
X113598000Y-72737550D01*
X113598000Y-72541772D01*
X113600440Y-72516999D01*
X113598000Y-72492226D01*
X113598000Y-72492217D01*
X113590700Y-72418101D01*
X113561852Y-72323002D01*
X113515006Y-72235359D01*
X113484707Y-72198440D01*
X113467759Y-72177788D01*
X113467755Y-72177784D01*
X113451961Y-72158539D01*
X113432715Y-72142744D01*
X112088270Y-70798300D01*
X112072471Y-70779049D01*
X111995651Y-70716004D01*
X111908008Y-70669158D01*
X111812909Y-70640310D01*
X111738793Y-70633010D01*
X111738786Y-70633010D01*
X111714010Y-70630570D01*
X111689234Y-70633010D01*
X111406701Y-70633010D01*
X111389669Y-70625955D01*
X111286887Y-70605510D01*
X111182093Y-70605510D01*
X111079311Y-70625955D01*
X111079117Y-70626035D01*
X111583871Y-70121282D01*
X111607844Y-70101754D01*
X111629069Y-70076084D01*
X111629924Y-70075229D01*
X111649649Y-70051194D01*
X111689559Y-70002926D01*
X111690129Y-70001870D01*
X111690894Y-70000937D01*
X111720591Y-69945377D01*
X111750423Y-69890055D01*
X111750777Y-69888905D01*
X111751344Y-69887843D01*
X111769584Y-69827715D01*
X111788098Y-69767478D01*
X111788221Y-69766277D01*
X111788569Y-69765129D01*
X111794722Y-69702651D01*
X111797868Y-69671868D01*
X111797872Y-69670668D01*
X111801138Y-69637511D01*
X111798107Y-69606733D01*
X111801282Y-68740171D01*
X111801400Y-68738973D01*
X111801400Y-68707979D01*
X111801512Y-68677414D01*
X111801400Y-68676232D01*
X111801400Y-67595313D01*
X111801463Y-67594660D01*
X111801400Y-67563392D01*
X111801400Y-67532027D01*
X111801335Y-67531372D01*
X111798054Y-65902801D01*
X111801138Y-65871489D01*
X111797925Y-65838870D01*
X111797924Y-65838206D01*
X111794766Y-65806791D01*
X111788569Y-65743871D01*
X111788377Y-65743239D01*
X111788311Y-65742580D01*
X111769749Y-65681831D01*
X111751344Y-65621157D01*
X111751032Y-65620574D01*
X111750839Y-65619941D01*
X111720839Y-65564087D01*
X111690894Y-65508063D01*
X111690473Y-65507550D01*
X111690161Y-65506969D01*
X111650014Y-65458251D01*
X111629924Y-65433771D01*
X111629453Y-65433300D01*
X111608610Y-65408007D01*
X111584250Y-65388097D01*
X111014000Y-64817848D01*
X111014000Y-63442452D01*
X111017148Y-63410489D01*
X111014000Y-63378526D01*
X111014000Y-63378517D01*
X111004580Y-63282872D01*
X110967355Y-63160158D01*
X110906905Y-63047064D01*
X110825553Y-62947937D01*
X110800715Y-62927553D01*
X110595510Y-62722348D01*
X110595510Y-53895984D01*
X110602025Y-53888045D01*
X110632872Y-53850459D01*
X110640579Y-53836040D01*
X111186720Y-53289900D01*
X111211554Y-53269519D01*
X111238487Y-53236701D01*
X111292906Y-53170393D01*
X111353355Y-53057299D01*
X111353356Y-53057298D01*
X111390581Y-52934584D01*
X111400001Y-52838939D01*
X111400001Y-52838930D01*
X111403149Y-52806967D01*
X111400001Y-52775004D01*
X111400001Y-51275963D01*
X111403149Y-51244000D01*
X111400001Y-51212037D01*
X111400001Y-51212028D01*
X111390581Y-51116383D01*
X111353356Y-50993669D01*
X111292906Y-50880575D01*
X111211554Y-50781448D01*
X111186722Y-50761069D01*
X110506000Y-50080348D01*
X110506000Y-49743027D01*
X110496580Y-49647382D01*
X110459355Y-49524668D01*
X110398905Y-49411574D01*
X110317553Y-49312447D01*
X110218425Y-49231095D01*
X110105331Y-49170645D01*
X109982617Y-49133420D01*
X109855000Y-49120851D01*
X109727382Y-49133420D01*
X109604668Y-49170645D01*
X109491574Y-49231095D01*
X109392447Y-49312447D01*
X109311095Y-49411575D01*
X109250645Y-49524669D01*
X109213420Y-49647383D01*
X109204000Y-49743028D01*
X109204000Y-50318037D01*
X109200852Y-50350000D01*
X109204000Y-50381963D01*
X109204000Y-50381973D01*
X109213420Y-50477618D01*
X109250645Y-50600332D01*
X109311095Y-50713426D01*
X109392448Y-50812553D01*
X109417281Y-50832933D01*
X110098001Y-51513654D01*
X110098002Y-52537312D01*
X109651253Y-52984062D01*
X109626414Y-53004447D01*
X109606033Y-53029282D01*
X109545062Y-53103574D01*
X109537355Y-53117993D01*
X109506796Y-53148552D01*
X109481957Y-53168937D01*
X109438612Y-53221753D01*
X109400605Y-53268064D01*
X109383963Y-53299200D01*
X109340155Y-53381159D01*
X109302930Y-53503873D01*
X109293510Y-53599518D01*
X109293510Y-53599527D01*
X109290362Y-53631490D01*
X109293510Y-53663453D01*
X109293511Y-62960027D01*
X109290362Y-62992000D01*
X109293511Y-63023973D01*
X109302931Y-63119618D01*
X109315229Y-63160158D01*
X109340156Y-63242332D01*
X109400605Y-63355426D01*
X109445795Y-63410489D01*
X109481958Y-63454553D01*
X109506791Y-63474933D01*
X109680763Y-63648905D01*
X109590000Y-63639966D01*
X108626750Y-63643000D01*
X108470000Y-63799750D01*
X108470000Y-64635000D01*
X108490000Y-64635000D01*
X108490000Y-64905000D01*
X108470000Y-64905000D01*
X108470000Y-65740250D01*
X108626750Y-65897000D01*
X109590000Y-65900034D01*
X109712914Y-65887928D01*
X109831104Y-65852076D01*
X109940028Y-65793854D01*
X110035501Y-65715501D01*
X110051209Y-65696361D01*
X110496533Y-66141686D01*
X110499273Y-67501656D01*
X110369930Y-67631000D01*
X109494033Y-67631000D01*
X109444022Y-67597584D01*
X109333555Y-67551827D01*
X109216284Y-67528500D01*
X109096716Y-67528500D01*
X108979445Y-67551827D01*
X108868978Y-67597584D01*
X108769560Y-67664012D01*
X108685012Y-67748560D01*
X108618584Y-67847978D01*
X108572827Y-67958445D01*
X108549500Y-68075716D01*
X108549500Y-68195284D01*
X108572827Y-68312555D01*
X108618584Y-68423022D01*
X108685012Y-68522440D01*
X108769560Y-68606988D01*
X108868978Y-68673416D01*
X108979445Y-68719173D01*
X109096716Y-68742500D01*
X109216284Y-68742500D01*
X109333555Y-68719173D01*
X109444022Y-68673416D01*
X109494033Y-68640000D01*
X110369930Y-68640000D01*
X110499168Y-68769239D01*
X110496978Y-69366869D01*
X109954780Y-69909068D01*
X109948727Y-69914036D01*
X109948727Y-69350000D01*
X109941834Y-69280016D01*
X109921421Y-69212721D01*
X109888271Y-69150702D01*
X109843658Y-69096342D01*
X109789298Y-69051729D01*
X109727279Y-69018579D01*
X109659984Y-68998166D01*
X109590000Y-68991273D01*
X107080000Y-68991273D01*
X107010016Y-68998166D01*
X106942721Y-69018579D01*
X106880702Y-69051729D01*
X106826342Y-69096342D01*
X106781729Y-69150702D01*
X106748579Y-69212721D01*
X106728166Y-69280016D01*
X106721273Y-69350000D01*
X106721273Y-70350000D01*
X106722286Y-70360288D01*
X106708179Y-70354445D01*
X106605397Y-70334000D01*
X106500603Y-70334000D01*
X106397821Y-70354445D01*
X106301004Y-70394548D01*
X106213870Y-70452769D01*
X106139769Y-70526870D01*
X106081548Y-70614004D01*
X106041445Y-70710821D01*
X106021000Y-70813603D01*
X106021000Y-70918397D01*
X106041445Y-71021179D01*
X106081548Y-71117996D01*
X106139769Y-71205130D01*
X106213870Y-71279231D01*
X106301004Y-71337452D01*
X106397821Y-71377555D01*
X106500603Y-71398000D01*
X106605397Y-71398000D01*
X106708179Y-71377555D01*
X106725211Y-71370500D01*
X107995030Y-71370500D01*
X108491377Y-71866848D01*
X108446897Y-71858000D01*
X108342103Y-71858000D01*
X108239321Y-71878445D01*
X108222289Y-71885500D01*
X107819222Y-71885500D01*
X107794449Y-71883060D01*
X107769676Y-71885500D01*
X107769667Y-71885500D01*
X107695551Y-71892800D01*
X107600452Y-71921648D01*
X107512809Y-71968494D01*
X107512807Y-71968495D01*
X107512808Y-71968495D01*
X107455238Y-72015741D01*
X107455234Y-72015745D01*
X107435989Y-72031539D01*
X107420194Y-72050785D01*
X106638727Y-72832253D01*
X106638727Y-71890000D01*
X106631834Y-71820016D01*
X106611421Y-71752721D01*
X106578271Y-71690702D01*
X106533658Y-71636342D01*
X106479298Y-71591729D01*
X106417279Y-71558579D01*
X106349984Y-71538166D01*
X106280000Y-71531273D01*
X103770000Y-71531273D01*
X103738092Y-71534416D01*
X103791855Y-71433832D01*
X103829080Y-71311118D01*
X103838500Y-71215473D01*
X103838500Y-71215464D01*
X103841648Y-71183501D01*
X103838500Y-71151538D01*
X103838500Y-68168727D01*
X104524336Y-68168727D01*
X104527800Y-68203899D01*
X104556648Y-68298997D01*
X104603495Y-68386641D01*
X104650741Y-68444211D01*
X104650746Y-68444216D01*
X104666540Y-68463461D01*
X104685785Y-68479255D01*
X104871740Y-68665210D01*
X104887539Y-68684461D01*
X104964359Y-68747506D01*
X105052002Y-68794352D01*
X105147101Y-68823200D01*
X105221217Y-68830500D01*
X105221226Y-68830500D01*
X105245999Y-68832940D01*
X105270772Y-68830500D01*
X105567989Y-68830500D01*
X105585021Y-68837555D01*
X105687803Y-68858000D01*
X105792597Y-68858000D01*
X105895379Y-68837555D01*
X105992196Y-68797452D01*
X106079330Y-68739231D01*
X106153431Y-68665130D01*
X106211652Y-68577996D01*
X106251755Y-68481179D01*
X106272200Y-68378397D01*
X106272200Y-68273603D01*
X106251755Y-68170821D01*
X106250888Y-68168727D01*
X106280000Y-68168727D01*
X106349984Y-68161834D01*
X106417279Y-68141421D01*
X106479298Y-68108271D01*
X106533658Y-68063658D01*
X106578271Y-68009298D01*
X106611421Y-67947279D01*
X106631834Y-67879984D01*
X106638727Y-67810000D01*
X106638727Y-66810000D01*
X106631834Y-66740016D01*
X106611421Y-66672721D01*
X106578271Y-66610702D01*
X106533658Y-66556342D01*
X106479298Y-66511729D01*
X106417279Y-66478579D01*
X106349984Y-66458166D01*
X106280000Y-66451273D01*
X103838500Y-66451273D01*
X103838500Y-65357152D01*
X103925652Y-65270000D01*
X106449966Y-65270000D01*
X106462072Y-65392914D01*
X106497924Y-65511104D01*
X106556146Y-65620028D01*
X106634499Y-65715501D01*
X106729972Y-65793854D01*
X106838896Y-65852076D01*
X106957086Y-65887928D01*
X107080000Y-65900034D01*
X108043250Y-65897000D01*
X108200000Y-65740250D01*
X108200000Y-64905000D01*
X106609750Y-64905000D01*
X106453000Y-65061750D01*
X106449966Y-65270000D01*
X103925652Y-65270000D01*
X104925652Y-64270000D01*
X106449966Y-64270000D01*
X106453000Y-64478250D01*
X106609750Y-64635000D01*
X108200000Y-64635000D01*
X108200000Y-63799750D01*
X108043250Y-63643000D01*
X107080000Y-63639966D01*
X106957086Y-63652072D01*
X106838896Y-63687924D01*
X106729972Y-63746146D01*
X106634499Y-63824499D01*
X106556146Y-63919972D01*
X106497924Y-64028896D01*
X106462072Y-64147086D01*
X106449966Y-64270000D01*
X104925652Y-64270000D01*
X108417720Y-60777933D01*
X108442553Y-60757553D01*
X108481852Y-60709668D01*
X108523904Y-60658427D01*
X108523905Y-60658426D01*
X108584355Y-60545332D01*
X108621580Y-60422618D01*
X108631000Y-60326973D01*
X108631000Y-60326964D01*
X108634148Y-60295001D01*
X108631000Y-60263038D01*
X108631000Y-59862650D01*
X108664775Y-59821495D01*
X108719231Y-59739996D01*
X108752382Y-59677975D01*
X108789891Y-59587419D01*
X108810304Y-59520126D01*
X108829426Y-59423993D01*
X108836319Y-59354009D01*
X108836319Y-59329448D01*
X108838727Y-59305000D01*
X108838727Y-58805000D01*
X108836319Y-58780552D01*
X108836319Y-58755991D01*
X108829426Y-58686007D01*
X108810304Y-58589874D01*
X108789891Y-58522581D01*
X108752382Y-58432025D01*
X108719231Y-58370004D01*
X108664775Y-58288505D01*
X108631000Y-58247350D01*
X108631000Y-56052650D01*
X108664775Y-56011495D01*
X108719231Y-55929996D01*
X108752382Y-55867975D01*
X108789891Y-55777419D01*
X108810304Y-55710126D01*
X108829426Y-55613993D01*
X108836319Y-55544009D01*
X108836319Y-55519448D01*
X108838727Y-55495000D01*
X108838727Y-54995000D01*
X108836319Y-54970552D01*
X108836319Y-54945991D01*
X108829426Y-54876007D01*
X108810304Y-54779874D01*
X108789891Y-54712581D01*
X108752382Y-54622025D01*
X108719231Y-54560004D01*
X108664775Y-54478505D01*
X108620163Y-54424145D01*
X108550855Y-54354837D01*
X108496495Y-54310225D01*
X108414996Y-54255769D01*
X108352975Y-54222618D01*
X108262419Y-54185109D01*
X108195126Y-54164696D01*
X108098993Y-54145574D01*
X108029009Y-54138681D01*
X108004448Y-54138681D01*
X107980000Y-54136273D01*
X107430000Y-54136273D01*
X107360016Y-54143166D01*
X107305000Y-54159854D01*
X107249984Y-54143166D01*
X107180000Y-54136273D01*
X106879885Y-54136273D01*
X106901452Y-54103996D01*
X106941555Y-54007179D01*
X106962000Y-53904397D01*
X106962000Y-53799603D01*
X106941555Y-53696821D01*
X106901452Y-53600004D01*
X106843231Y-53512870D01*
X106769130Y-53438769D01*
X106681996Y-53380548D01*
X106664964Y-53373493D01*
X105884500Y-52593030D01*
X105884500Y-52543727D01*
X105930000Y-52543727D01*
X105999984Y-52536834D01*
X106055000Y-52520146D01*
X106110016Y-52536834D01*
X106180000Y-52543727D01*
X107180000Y-52543727D01*
X107249984Y-52536834D01*
X107317279Y-52516421D01*
X107379298Y-52483271D01*
X107433658Y-52438658D01*
X107478271Y-52384298D01*
X107511421Y-52322279D01*
X107531834Y-52254984D01*
X107538727Y-52185000D01*
X107538727Y-50685000D01*
X107531834Y-50615016D01*
X107511421Y-50547721D01*
X107478271Y-50485702D01*
X107433658Y-50431342D01*
X107379298Y-50386729D01*
X107331000Y-50360913D01*
X107331000Y-50128962D01*
X107334148Y-50096999D01*
X107331000Y-50065036D01*
X107331000Y-50065027D01*
X107321580Y-49969382D01*
X107284355Y-49846668D01*
X107223905Y-49733574D01*
X107142553Y-49634447D01*
X107117721Y-49614068D01*
X105325938Y-47822286D01*
X105305553Y-47797447D01*
X105206426Y-47716095D01*
X105093332Y-47655645D01*
X104970618Y-47618420D01*
X104874973Y-47609000D01*
X104874963Y-47609000D01*
X104843000Y-47605852D01*
X104811037Y-47609000D01*
X100218727Y-47609000D01*
X100218727Y-47524000D01*
X113400268Y-47524000D01*
X113274680Y-47711955D01*
G37*
X113274680Y-47711955D02*
X113187463Y-47922516D01*
X113143000Y-48146045D01*
X113143000Y-48373955D01*
X113187463Y-48597484D01*
X113274680Y-48808045D01*
X113401300Y-48997544D01*
X113562456Y-49158700D01*
X113751955Y-49285320D01*
X113962516Y-49372537D01*
X114186045Y-49417000D01*
X114413955Y-49417000D01*
X114637484Y-49372537D01*
X114848045Y-49285320D01*
X115036000Y-49159732D01*
X115036000Y-49900268D01*
X114848045Y-49774680D01*
X114637484Y-49687463D01*
X114413955Y-49643000D01*
X114186045Y-49643000D01*
X113962516Y-49687463D01*
X113751955Y-49774680D01*
X113562456Y-49901300D01*
X113401300Y-50062456D01*
X113274680Y-50251955D01*
X113187463Y-50462516D01*
X113143000Y-50686045D01*
X113143000Y-50913955D01*
X113187463Y-51137484D01*
X113274680Y-51348045D01*
X113401300Y-51537544D01*
X113562456Y-51698700D01*
X113751955Y-51825320D01*
X113962516Y-51912537D01*
X114186045Y-51957000D01*
X114413955Y-51957000D01*
X114637484Y-51912537D01*
X114848045Y-51825320D01*
X115036000Y-51699732D01*
X115036000Y-52440268D01*
X114848045Y-52314680D01*
X114637484Y-52227463D01*
X114413955Y-52183000D01*
X114186045Y-52183000D01*
X113962516Y-52227463D01*
X113751955Y-52314680D01*
X113562456Y-52441300D01*
X113401300Y-52602456D01*
X113274680Y-52791955D01*
X113187463Y-53002516D01*
X113143000Y-53226045D01*
X113143000Y-53453955D01*
X113187463Y-53677484D01*
X113274680Y-53888045D01*
X113401300Y-54077544D01*
X113562456Y-54238700D01*
X113751955Y-54365320D01*
X113962516Y-54452537D01*
X114186045Y-54497000D01*
X114413955Y-54497000D01*
X114637484Y-54452537D01*
X114848045Y-54365320D01*
X115036000Y-54239732D01*
X115036000Y-54980268D01*
X114848045Y-54854680D01*
X114637484Y-54767463D01*
X114413955Y-54723000D01*
X114186045Y-54723000D01*
X113962516Y-54767463D01*
X113751955Y-54854680D01*
X113562456Y-54981300D01*
X113401300Y-55142456D01*
X113274680Y-55331955D01*
X113187463Y-55542516D01*
X113143000Y-55766045D01*
X113143000Y-55993955D01*
X113187463Y-56217484D01*
X113274680Y-56428045D01*
X113401300Y-56617544D01*
X113562456Y-56778700D01*
X113751955Y-56905320D01*
X113962516Y-56992537D01*
X114186045Y-57037000D01*
X114413955Y-57037000D01*
X114637484Y-56992537D01*
X114848045Y-56905320D01*
X115036000Y-56779732D01*
X115036000Y-57520268D01*
X114848045Y-57394680D01*
X114637484Y-57307463D01*
X114413955Y-57263000D01*
X114186045Y-57263000D01*
X113962516Y-57307463D01*
X113751955Y-57394680D01*
X113562456Y-57521300D01*
X113401300Y-57682456D01*
X113274680Y-57871955D01*
X113187463Y-58082516D01*
X113143000Y-58306045D01*
X113143000Y-58533955D01*
X113187463Y-58757484D01*
X113274680Y-58968045D01*
X113401300Y-59157544D01*
X113562456Y-59318700D01*
X113751955Y-59445320D01*
X113962516Y-59532537D01*
X114186045Y-59577000D01*
X114413955Y-59577000D01*
X114637484Y-59532537D01*
X114848045Y-59445320D01*
X115036000Y-59319732D01*
X115036000Y-60060268D01*
X114848045Y-59934680D01*
X114637484Y-59847463D01*
X114413955Y-59803000D01*
X114186045Y-59803000D01*
X113962516Y-59847463D01*
X113751955Y-59934680D01*
X113562456Y-60061300D01*
X113401300Y-60222456D01*
X113274680Y-60411955D01*
X113187463Y-60622516D01*
X113143000Y-60846045D01*
X113143000Y-61073955D01*
X113187463Y-61297484D01*
X113274680Y-61508045D01*
X113401300Y-61697544D01*
X113562456Y-61858700D01*
X113751955Y-61985320D01*
X113962516Y-62072537D01*
X114186045Y-62117000D01*
X114413955Y-62117000D01*
X114637484Y-62072537D01*
X114848045Y-61985320D01*
X115036000Y-61859731D01*
X115036000Y-62600269D01*
X114848045Y-62474680D01*
X114637484Y-62387463D01*
X114413955Y-62343000D01*
X114186045Y-62343000D01*
X113962516Y-62387463D01*
X113751955Y-62474680D01*
X113562456Y-62601300D01*
X113401300Y-62762456D01*
X113274680Y-62951955D01*
X113187463Y-63162516D01*
X113143000Y-63386045D01*
X113143000Y-63613955D01*
X113187463Y-63837484D01*
X113274680Y-64048045D01*
X113401300Y-64237544D01*
X113562456Y-64398700D01*
X113751955Y-64525320D01*
X113962516Y-64612537D01*
X114186045Y-64657000D01*
X114413955Y-64657000D01*
X114637484Y-64612537D01*
X114848045Y-64525320D01*
X115036000Y-64399731D01*
X115036000Y-65140269D01*
X114848045Y-65014680D01*
X114637484Y-64927463D01*
X114413955Y-64883000D01*
X114186045Y-64883000D01*
X113962516Y-64927463D01*
X113751955Y-65014680D01*
X113562456Y-65141300D01*
X113401300Y-65302456D01*
X113274680Y-65491955D01*
X113187463Y-65702516D01*
X113143000Y-65926045D01*
X113143000Y-66153955D01*
X113187463Y-66377484D01*
X113274680Y-66588045D01*
X113401300Y-66777544D01*
X113562456Y-66938700D01*
X113751955Y-67065320D01*
X113962516Y-67152537D01*
X114186045Y-67197000D01*
X114413955Y-67197000D01*
X114637484Y-67152537D01*
X114848045Y-67065320D01*
X115036000Y-66939731D01*
X115036000Y-67680269D01*
X114848045Y-67554680D01*
X114637484Y-67467463D01*
X114413955Y-67423000D01*
X114186045Y-67423000D01*
X113962516Y-67467463D01*
X113751955Y-67554680D01*
X113562456Y-67681300D01*
X113401300Y-67842456D01*
X113274680Y-68031955D01*
X113187463Y-68242516D01*
X113143000Y-68466045D01*
X113143000Y-68693955D01*
X113187463Y-68917484D01*
X113274680Y-69128045D01*
X113401300Y-69317544D01*
X113562456Y-69478700D01*
X113751955Y-69605320D01*
X113962516Y-69692537D01*
X114186045Y-69737000D01*
X114413955Y-69737000D01*
X114637484Y-69692537D01*
X114848045Y-69605320D01*
X115036000Y-69479731D01*
X115036000Y-70220269D01*
X114848045Y-70094680D01*
X114637484Y-70007463D01*
X114413955Y-69963000D01*
X114186045Y-69963000D01*
X113962516Y-70007463D01*
X113751955Y-70094680D01*
X113562456Y-70221300D01*
X113401300Y-70382456D01*
X113274680Y-70571955D01*
X113187463Y-70782516D01*
X113143000Y-71006045D01*
X113143000Y-71233955D01*
X113187463Y-71457484D01*
X113274680Y-71668045D01*
X113401300Y-71857544D01*
X113562456Y-72018700D01*
X113751955Y-72145320D01*
X113962516Y-72232537D01*
X114186045Y-72277000D01*
X114413955Y-72277000D01*
X114637484Y-72232537D01*
X114848045Y-72145320D01*
X115036000Y-72019731D01*
X115036001Y-72760269D01*
X114848045Y-72634680D01*
X114637484Y-72547463D01*
X114413955Y-72503000D01*
X114186045Y-72503000D01*
X113962516Y-72547463D01*
X113751955Y-72634680D01*
X113598000Y-72737550D01*
X113598000Y-72541772D01*
X113600440Y-72516999D01*
X113598000Y-72492226D01*
X113598000Y-72492217D01*
X113590700Y-72418101D01*
X113561852Y-72323002D01*
X113515006Y-72235359D01*
X113484707Y-72198440D01*
X113467759Y-72177788D01*
X113467755Y-72177784D01*
X113451961Y-72158539D01*
X113432715Y-72142744D01*
X112088270Y-70798300D01*
X112072471Y-70779049D01*
X111995651Y-70716004D01*
X111908008Y-70669158D01*
X111812909Y-70640310D01*
X111738793Y-70633010D01*
X111738786Y-70633010D01*
X111714010Y-70630570D01*
X111689234Y-70633010D01*
X111406701Y-70633010D01*
X111389669Y-70625955D01*
X111286887Y-70605510D01*
X111182093Y-70605510D01*
X111079311Y-70625955D01*
X111079117Y-70626035D01*
X111583871Y-70121282D01*
X111607844Y-70101754D01*
X111629069Y-70076084D01*
X111629924Y-70075229D01*
X111649649Y-70051194D01*
X111689559Y-70002926D01*
X111690129Y-70001870D01*
X111690894Y-70000937D01*
X111720591Y-69945377D01*
X111750423Y-69890055D01*
X111750777Y-69888905D01*
X111751344Y-69887843D01*
X111769584Y-69827715D01*
X111788098Y-69767478D01*
X111788221Y-69766277D01*
X111788569Y-69765129D01*
X111794722Y-69702651D01*
X111797868Y-69671868D01*
X111797872Y-69670668D01*
X111801138Y-69637511D01*
X111798107Y-69606733D01*
X111801282Y-68740171D01*
X111801400Y-68738973D01*
X111801400Y-68707979D01*
X111801512Y-68677414D01*
X111801400Y-68676232D01*
X111801400Y-67595313D01*
X111801463Y-67594660D01*
X111801400Y-67563392D01*
X111801400Y-67532027D01*
X111801335Y-67531372D01*
X111798054Y-65902801D01*
X111801138Y-65871489D01*
X111797925Y-65838870D01*
X111797924Y-65838206D01*
X111794766Y-65806791D01*
X111788569Y-65743871D01*
X111788377Y-65743239D01*
X111788311Y-65742580D01*
X111769749Y-65681831D01*
X111751344Y-65621157D01*
X111751032Y-65620574D01*
X111750839Y-65619941D01*
X111720839Y-65564087D01*
X111690894Y-65508063D01*
X111690473Y-65507550D01*
X111690161Y-65506969D01*
X111650014Y-65458251D01*
X111629924Y-65433771D01*
X111629453Y-65433300D01*
X111608610Y-65408007D01*
X111584250Y-65388097D01*
X111014000Y-64817848D01*
X111014000Y-63442452D01*
X111017148Y-63410489D01*
X111014000Y-63378526D01*
X111014000Y-63378517D01*
X111004580Y-63282872D01*
X110967355Y-63160158D01*
X110906905Y-63047064D01*
X110825553Y-62947937D01*
X110800715Y-62927553D01*
X110595510Y-62722348D01*
X110595510Y-53895984D01*
X110602025Y-53888045D01*
X110632872Y-53850459D01*
X110640579Y-53836040D01*
X111186720Y-53289900D01*
X111211554Y-53269519D01*
X111238487Y-53236701D01*
X111292906Y-53170393D01*
X111353355Y-53057299D01*
X111353356Y-53057298D01*
X111390581Y-52934584D01*
X111400001Y-52838939D01*
X111400001Y-52838930D01*
X111403149Y-52806967D01*
X111400001Y-52775004D01*
X111400001Y-51275963D01*
X111403149Y-51244000D01*
X111400001Y-51212037D01*
X111400001Y-51212028D01*
X111390581Y-51116383D01*
X111353356Y-50993669D01*
X111292906Y-50880575D01*
X111211554Y-50781448D01*
X111186722Y-50761069D01*
X110506000Y-50080348D01*
X110506000Y-49743027D01*
X110496580Y-49647382D01*
X110459355Y-49524668D01*
X110398905Y-49411574D01*
X110317553Y-49312447D01*
X110218425Y-49231095D01*
X110105331Y-49170645D01*
X109982617Y-49133420D01*
X109855000Y-49120851D01*
X109727382Y-49133420D01*
X109604668Y-49170645D01*
X109491574Y-49231095D01*
X109392447Y-49312447D01*
X109311095Y-49411575D01*
X109250645Y-49524669D01*
X109213420Y-49647383D01*
X109204000Y-49743028D01*
X109204000Y-50318037D01*
X109200852Y-50350000D01*
X109204000Y-50381963D01*
X109204000Y-50381973D01*
X109213420Y-50477618D01*
X109250645Y-50600332D01*
X109311095Y-50713426D01*
X109392448Y-50812553D01*
X109417281Y-50832933D01*
X110098001Y-51513654D01*
X110098002Y-52537312D01*
X109651253Y-52984062D01*
X109626414Y-53004447D01*
X109606033Y-53029282D01*
X109545062Y-53103574D01*
X109537355Y-53117993D01*
X109506796Y-53148552D01*
X109481957Y-53168937D01*
X109438612Y-53221753D01*
X109400605Y-53268064D01*
X109383963Y-53299200D01*
X109340155Y-53381159D01*
X109302930Y-53503873D01*
X109293510Y-53599518D01*
X109293510Y-53599527D01*
X109290362Y-53631490D01*
X109293510Y-53663453D01*
X109293511Y-62960027D01*
X109290362Y-62992000D01*
X109293511Y-63023973D01*
X109302931Y-63119618D01*
X109315229Y-63160158D01*
X109340156Y-63242332D01*
X109400605Y-63355426D01*
X109445795Y-63410489D01*
X109481958Y-63454553D01*
X109506791Y-63474933D01*
X109680763Y-63648905D01*
X109590000Y-63639966D01*
X108626750Y-63643000D01*
X108470000Y-63799750D01*
X108470000Y-64635000D01*
X108490000Y-64635000D01*
X108490000Y-64905000D01*
X108470000Y-64905000D01*
X108470000Y-65740250D01*
X108626750Y-65897000D01*
X109590000Y-65900034D01*
X109712914Y-65887928D01*
X109831104Y-65852076D01*
X109940028Y-65793854D01*
X110035501Y-65715501D01*
X110051209Y-65696361D01*
X110496533Y-66141686D01*
X110499273Y-67501656D01*
X110369930Y-67631000D01*
X109494033Y-67631000D01*
X109444022Y-67597584D01*
X109333555Y-67551827D01*
X109216284Y-67528500D01*
X109096716Y-67528500D01*
X108979445Y-67551827D01*
X108868978Y-67597584D01*
X108769560Y-67664012D01*
X108685012Y-67748560D01*
X108618584Y-67847978D01*
X108572827Y-67958445D01*
X108549500Y-68075716D01*
X108549500Y-68195284D01*
X108572827Y-68312555D01*
X108618584Y-68423022D01*
X108685012Y-68522440D01*
X108769560Y-68606988D01*
X108868978Y-68673416D01*
X108979445Y-68719173D01*
X109096716Y-68742500D01*
X109216284Y-68742500D01*
X109333555Y-68719173D01*
X109444022Y-68673416D01*
X109494033Y-68640000D01*
X110369930Y-68640000D01*
X110499168Y-68769239D01*
X110496978Y-69366869D01*
X109954780Y-69909068D01*
X109948727Y-69914036D01*
X109948727Y-69350000D01*
X109941834Y-69280016D01*
X109921421Y-69212721D01*
X109888271Y-69150702D01*
X109843658Y-69096342D01*
X109789298Y-69051729D01*
X109727279Y-69018579D01*
X109659984Y-68998166D01*
X109590000Y-68991273D01*
X107080000Y-68991273D01*
X107010016Y-68998166D01*
X106942721Y-69018579D01*
X106880702Y-69051729D01*
X106826342Y-69096342D01*
X106781729Y-69150702D01*
X106748579Y-69212721D01*
X106728166Y-69280016D01*
X106721273Y-69350000D01*
X106721273Y-70350000D01*
X106722286Y-70360288D01*
X106708179Y-70354445D01*
X106605397Y-70334000D01*
X106500603Y-70334000D01*
X106397821Y-70354445D01*
X106301004Y-70394548D01*
X106213870Y-70452769D01*
X106139769Y-70526870D01*
X106081548Y-70614004D01*
X106041445Y-70710821D01*
X106021000Y-70813603D01*
X106021000Y-70918397D01*
X106041445Y-71021179D01*
X106081548Y-71117996D01*
X106139769Y-71205130D01*
X106213870Y-71279231D01*
X106301004Y-71337452D01*
X106397821Y-71377555D01*
X106500603Y-71398000D01*
X106605397Y-71398000D01*
X106708179Y-71377555D01*
X106725211Y-71370500D01*
X107995030Y-71370500D01*
X108491377Y-71866848D01*
X108446897Y-71858000D01*
X108342103Y-71858000D01*
X108239321Y-71878445D01*
X108222289Y-71885500D01*
X107819222Y-71885500D01*
X107794449Y-71883060D01*
X107769676Y-71885500D01*
X107769667Y-71885500D01*
X107695551Y-71892800D01*
X107600452Y-71921648D01*
X107512809Y-71968494D01*
X107512807Y-71968495D01*
X107512808Y-71968495D01*
X107455238Y-72015741D01*
X107455234Y-72015745D01*
X107435989Y-72031539D01*
X107420194Y-72050785D01*
X106638727Y-72832253D01*
X106638727Y-71890000D01*
X106631834Y-71820016D01*
X106611421Y-71752721D01*
X106578271Y-71690702D01*
X106533658Y-71636342D01*
X106479298Y-71591729D01*
X106417279Y-71558579D01*
X106349984Y-71538166D01*
X106280000Y-71531273D01*
X103770000Y-71531273D01*
X103738092Y-71534416D01*
X103791855Y-71433832D01*
X103829080Y-71311118D01*
X103838500Y-71215473D01*
X103838500Y-71215464D01*
X103841648Y-71183501D01*
X103838500Y-71151538D01*
X103838500Y-68168727D01*
X104524336Y-68168727D01*
X104527800Y-68203899D01*
X104556648Y-68298997D01*
X104603495Y-68386641D01*
X104650741Y-68444211D01*
X104650746Y-68444216D01*
X104666540Y-68463461D01*
X104685785Y-68479255D01*
X104871740Y-68665210D01*
X104887539Y-68684461D01*
X104964359Y-68747506D01*
X105052002Y-68794352D01*
X105147101Y-68823200D01*
X105221217Y-68830500D01*
X105221226Y-68830500D01*
X105245999Y-68832940D01*
X105270772Y-68830500D01*
X105567989Y-68830500D01*
X105585021Y-68837555D01*
X105687803Y-68858000D01*
X105792597Y-68858000D01*
X105895379Y-68837555D01*
X105992196Y-68797452D01*
X106079330Y-68739231D01*
X106153431Y-68665130D01*
X106211652Y-68577996D01*
X106251755Y-68481179D01*
X106272200Y-68378397D01*
X106272200Y-68273603D01*
X106251755Y-68170821D01*
X106250888Y-68168727D01*
X106280000Y-68168727D01*
X106349984Y-68161834D01*
X106417279Y-68141421D01*
X106479298Y-68108271D01*
X106533658Y-68063658D01*
X106578271Y-68009298D01*
X106611421Y-67947279D01*
X106631834Y-67879984D01*
X106638727Y-67810000D01*
X106638727Y-66810000D01*
X106631834Y-66740016D01*
X106611421Y-66672721D01*
X106578271Y-66610702D01*
X106533658Y-66556342D01*
X106479298Y-66511729D01*
X106417279Y-66478579D01*
X106349984Y-66458166D01*
X106280000Y-66451273D01*
X103838500Y-66451273D01*
X103838500Y-65357152D01*
X103925652Y-65270000D01*
X106449966Y-65270000D01*
X106462072Y-65392914D01*
X106497924Y-65511104D01*
X106556146Y-65620028D01*
X106634499Y-65715501D01*
X106729972Y-65793854D01*
X106838896Y-65852076D01*
X106957086Y-65887928D01*
X107080000Y-65900034D01*
X108043250Y-65897000D01*
X108200000Y-65740250D01*
X108200000Y-64905000D01*
X106609750Y-64905000D01*
X106453000Y-65061750D01*
X106449966Y-65270000D01*
X103925652Y-65270000D01*
X104925652Y-64270000D01*
X106449966Y-64270000D01*
X106453000Y-64478250D01*
X106609750Y-64635000D01*
X108200000Y-64635000D01*
X108200000Y-63799750D01*
X108043250Y-63643000D01*
X107080000Y-63639966D01*
X106957086Y-63652072D01*
X106838896Y-63687924D01*
X106729972Y-63746146D01*
X106634499Y-63824499D01*
X106556146Y-63919972D01*
X106497924Y-64028896D01*
X106462072Y-64147086D01*
X106449966Y-64270000D01*
X104925652Y-64270000D01*
X108417720Y-60777933D01*
X108442553Y-60757553D01*
X108481852Y-60709668D01*
X108523904Y-60658427D01*
X108523905Y-60658426D01*
X108584355Y-60545332D01*
X108621580Y-60422618D01*
X108631000Y-60326973D01*
X108631000Y-60326964D01*
X108634148Y-60295001D01*
X108631000Y-60263038D01*
X108631000Y-59862650D01*
X108664775Y-59821495D01*
X108719231Y-59739996D01*
X108752382Y-59677975D01*
X108789891Y-59587419D01*
X108810304Y-59520126D01*
X108829426Y-59423993D01*
X108836319Y-59354009D01*
X108836319Y-59329448D01*
X108838727Y-59305000D01*
X108838727Y-58805000D01*
X108836319Y-58780552D01*
X108836319Y-58755991D01*
X108829426Y-58686007D01*
X108810304Y-58589874D01*
X108789891Y-58522581D01*
X108752382Y-58432025D01*
X108719231Y-58370004D01*
X108664775Y-58288505D01*
X108631000Y-58247350D01*
X108631000Y-56052650D01*
X108664775Y-56011495D01*
X108719231Y-55929996D01*
X108752382Y-55867975D01*
X108789891Y-55777419D01*
X108810304Y-55710126D01*
X108829426Y-55613993D01*
X108836319Y-55544009D01*
X108836319Y-55519448D01*
X108838727Y-55495000D01*
X108838727Y-54995000D01*
X108836319Y-54970552D01*
X108836319Y-54945991D01*
X108829426Y-54876007D01*
X108810304Y-54779874D01*
X108789891Y-54712581D01*
X108752382Y-54622025D01*
X108719231Y-54560004D01*
X108664775Y-54478505D01*
X108620163Y-54424145D01*
X108550855Y-54354837D01*
X108496495Y-54310225D01*
X108414996Y-54255769D01*
X108352975Y-54222618D01*
X108262419Y-54185109D01*
X108195126Y-54164696D01*
X108098993Y-54145574D01*
X108029009Y-54138681D01*
X108004448Y-54138681D01*
X107980000Y-54136273D01*
X107430000Y-54136273D01*
X107360016Y-54143166D01*
X107305000Y-54159854D01*
X107249984Y-54143166D01*
X107180000Y-54136273D01*
X106879885Y-54136273D01*
X106901452Y-54103996D01*
X106941555Y-54007179D01*
X106962000Y-53904397D01*
X106962000Y-53799603D01*
X106941555Y-53696821D01*
X106901452Y-53600004D01*
X106843231Y-53512870D01*
X106769130Y-53438769D01*
X106681996Y-53380548D01*
X106664964Y-53373493D01*
X105884500Y-52593030D01*
X105884500Y-52543727D01*
X105930000Y-52543727D01*
X105999984Y-52536834D01*
X106055000Y-52520146D01*
X106110016Y-52536834D01*
X106180000Y-52543727D01*
X107180000Y-52543727D01*
X107249984Y-52536834D01*
X107317279Y-52516421D01*
X107379298Y-52483271D01*
X107433658Y-52438658D01*
X107478271Y-52384298D01*
X107511421Y-52322279D01*
X107531834Y-52254984D01*
X107538727Y-52185000D01*
X107538727Y-50685000D01*
X107531834Y-50615016D01*
X107511421Y-50547721D01*
X107478271Y-50485702D01*
X107433658Y-50431342D01*
X107379298Y-50386729D01*
X107331000Y-50360913D01*
X107331000Y-50128962D01*
X107334148Y-50096999D01*
X107331000Y-50065036D01*
X107331000Y-50065027D01*
X107321580Y-49969382D01*
X107284355Y-49846668D01*
X107223905Y-49733574D01*
X107142553Y-49634447D01*
X107117721Y-49614068D01*
X105325938Y-47822286D01*
X105305553Y-47797447D01*
X105206426Y-47716095D01*
X105093332Y-47655645D01*
X104970618Y-47618420D01*
X104874973Y-47609000D01*
X104874963Y-47609000D01*
X104843000Y-47605852D01*
X104811037Y-47609000D01*
X100218727Y-47609000D01*
X100218727Y-47524000D01*
X113400268Y-47524000D01*
X113274680Y-47711955D01*
G36*
X104570109Y-58522581D02*
G01*
X104549696Y-58589874D01*
X104530574Y-58686007D01*
X104523681Y-58755991D01*
X104523681Y-58780552D01*
X104521273Y-58805000D01*
X104521273Y-59305000D01*
X104523681Y-59329448D01*
X104523681Y-59354009D01*
X104530574Y-59423993D01*
X104549696Y-59520126D01*
X104570109Y-59587419D01*
X104607618Y-59677975D01*
X104640769Y-59739996D01*
X104695225Y-59821495D01*
X104739837Y-59875855D01*
X104809145Y-59945163D01*
X104863505Y-59989775D01*
X104945004Y-60044231D01*
X105007025Y-60077382D01*
X105097581Y-60114891D01*
X105164874Y-60135304D01*
X105261007Y-60154426D01*
X105330991Y-60161319D01*
X105355552Y-60161319D01*
X105380000Y-60163727D01*
X105930000Y-60163727D01*
X105995025Y-60157322D01*
X101563347Y-64589001D01*
X99891961Y-64589001D01*
X99859998Y-64585853D01*
X99828035Y-64589001D01*
X99828026Y-64589001D01*
X99732381Y-64598421D01*
X99609667Y-64635646D01*
X99496573Y-64696096D01*
X99397446Y-64777448D01*
X99377065Y-64802282D01*
X99276041Y-64903306D01*
X99173955Y-64883000D01*
X98946045Y-64883000D01*
X98722516Y-64927463D01*
X98511955Y-65014680D01*
X98324000Y-65140268D01*
X98324000Y-64399732D01*
X98511955Y-64525320D01*
X98722516Y-64612537D01*
X98946045Y-64657000D01*
X99173955Y-64657000D01*
X99397484Y-64612537D01*
X99608045Y-64525320D01*
X99797544Y-64398700D01*
X99958700Y-64237544D01*
X100085320Y-64048045D01*
X100172537Y-63837484D01*
X100217000Y-63613955D01*
X100217000Y-63386045D01*
X100172537Y-63162516D01*
X100085320Y-62951955D01*
X99958700Y-62762456D01*
X99797544Y-62601300D01*
X99608045Y-62474680D01*
X99397484Y-62387463D01*
X99173955Y-62343000D01*
X98946045Y-62343000D01*
X98722516Y-62387463D01*
X98511955Y-62474680D01*
X98324000Y-62600268D01*
X98324000Y-61859732D01*
X98511955Y-61985320D01*
X98722516Y-62072537D01*
X98946045Y-62117000D01*
X99173955Y-62117000D01*
X99397484Y-62072537D01*
X99608045Y-61985320D01*
X99797544Y-61858700D01*
X99958700Y-61697544D01*
X100085320Y-61508045D01*
X100172537Y-61297484D01*
X100217000Y-61073955D01*
X100217000Y-60846045D01*
X100196694Y-60743959D01*
X102478663Y-58461990D01*
X104595206Y-58461990D01*
X104570109Y-58522581D01*
G37*
X104570109Y-58522581D02*
X104549696Y-58589874D01*
X104530574Y-58686007D01*
X104523681Y-58755991D01*
X104523681Y-58780552D01*
X104521273Y-58805000D01*
X104521273Y-59305000D01*
X104523681Y-59329448D01*
X104523681Y-59354009D01*
X104530574Y-59423993D01*
X104549696Y-59520126D01*
X104570109Y-59587419D01*
X104607618Y-59677975D01*
X104640769Y-59739996D01*
X104695225Y-59821495D01*
X104739837Y-59875855D01*
X104809145Y-59945163D01*
X104863505Y-59989775D01*
X104945004Y-60044231D01*
X105007025Y-60077382D01*
X105097581Y-60114891D01*
X105164874Y-60135304D01*
X105261007Y-60154426D01*
X105330991Y-60161319D01*
X105355552Y-60161319D01*
X105380000Y-60163727D01*
X105930000Y-60163727D01*
X105995025Y-60157322D01*
X101563347Y-64589001D01*
X99891961Y-64589001D01*
X99859998Y-64585853D01*
X99828035Y-64589001D01*
X99828026Y-64589001D01*
X99732381Y-64598421D01*
X99609667Y-64635646D01*
X99496573Y-64696096D01*
X99397446Y-64777448D01*
X99377065Y-64802282D01*
X99276041Y-64903306D01*
X99173955Y-64883000D01*
X98946045Y-64883000D01*
X98722516Y-64927463D01*
X98511955Y-65014680D01*
X98324000Y-65140268D01*
X98324000Y-64399732D01*
X98511955Y-64525320D01*
X98722516Y-64612537D01*
X98946045Y-64657000D01*
X99173955Y-64657000D01*
X99397484Y-64612537D01*
X99608045Y-64525320D01*
X99797544Y-64398700D01*
X99958700Y-64237544D01*
X100085320Y-64048045D01*
X100172537Y-63837484D01*
X100217000Y-63613955D01*
X100217000Y-63386045D01*
X100172537Y-63162516D01*
X100085320Y-62951955D01*
X99958700Y-62762456D01*
X99797544Y-62601300D01*
X99608045Y-62474680D01*
X99397484Y-62387463D01*
X99173955Y-62343000D01*
X98946045Y-62343000D01*
X98722516Y-62387463D01*
X98511955Y-62474680D01*
X98324000Y-62600268D01*
X98324000Y-61859732D01*
X98511955Y-61985320D01*
X98722516Y-62072537D01*
X98946045Y-62117000D01*
X99173955Y-62117000D01*
X99397484Y-62072537D01*
X99608045Y-61985320D01*
X99797544Y-61858700D01*
X99958700Y-61697544D01*
X100085320Y-61508045D01*
X100172537Y-61297484D01*
X100217000Y-61073955D01*
X100217000Y-60846045D01*
X100196694Y-60743959D01*
X102478663Y-58461990D01*
X104595206Y-58461990D01*
X104570109Y-58522581D01*
G36*
X105995025Y-50332678D02*
G01*
X105930000Y-50326273D01*
X105380000Y-50326273D01*
X105355552Y-50328681D01*
X105330991Y-50328681D01*
X105261007Y-50335574D01*
X105164874Y-50354696D01*
X105097581Y-50375109D01*
X105007025Y-50412618D01*
X104945004Y-50445769D01*
X104863505Y-50500225D01*
X104809145Y-50544837D01*
X104739837Y-50614145D01*
X104695225Y-50668505D01*
X104640769Y-50750004D01*
X104607618Y-50812025D01*
X104570109Y-50902581D01*
X104549696Y-50969874D01*
X104530574Y-51066007D01*
X104523681Y-51135991D01*
X104523681Y-51160552D01*
X104521273Y-51185000D01*
X104521273Y-51685000D01*
X104523681Y-51709448D01*
X104523681Y-51734009D01*
X104530574Y-51803993D01*
X104549696Y-51900126D01*
X104570109Y-51967419D01*
X104607618Y-52057975D01*
X104640769Y-52119996D01*
X104695225Y-52201495D01*
X104739837Y-52255855D01*
X104809145Y-52325163D01*
X104863505Y-52369775D01*
X104875501Y-52377790D01*
X104875501Y-52777215D01*
X104873060Y-52802000D01*
X104882800Y-52900899D01*
X104911648Y-52995997D01*
X104958495Y-53083641D01*
X105005741Y-53141211D01*
X105005746Y-53141216D01*
X105021540Y-53160461D01*
X105040785Y-53176255D01*
X105951493Y-54086964D01*
X105958548Y-54103996D01*
X105983645Y-54141557D01*
X105930000Y-54136273D01*
X105380000Y-54136273D01*
X105355552Y-54138681D01*
X105330991Y-54138681D01*
X105261007Y-54145574D01*
X105164874Y-54164696D01*
X105097581Y-54185109D01*
X105007025Y-54222618D01*
X104945004Y-54255769D01*
X104863505Y-54310225D01*
X104809145Y-54354837D01*
X104739837Y-54424145D01*
X104695225Y-54478505D01*
X104640769Y-54560004D01*
X104607618Y-54622025D01*
X104570109Y-54712581D01*
X104549696Y-54779874D01*
X104530574Y-54876007D01*
X104523681Y-54945991D01*
X104523681Y-54970552D01*
X104521273Y-54995000D01*
X104521273Y-55495000D01*
X104523681Y-55519448D01*
X104523681Y-55544009D01*
X104530574Y-55613993D01*
X104549696Y-55710126D01*
X104570109Y-55777419D01*
X104607618Y-55867975D01*
X104640769Y-55929996D01*
X104695225Y-56011495D01*
X104739837Y-56065855D01*
X104809145Y-56135163D01*
X104863505Y-56179775D01*
X104945004Y-56234231D01*
X105007025Y-56267382D01*
X105097581Y-56304891D01*
X105164874Y-56325304D01*
X105261007Y-56344426D01*
X105330991Y-56351319D01*
X105355552Y-56351319D01*
X105380000Y-56353727D01*
X105930000Y-56353727D01*
X105995025Y-56347322D01*
X105182358Y-57159990D01*
X102240975Y-57159990D01*
X102209010Y-57156842D01*
X102177045Y-57159990D01*
X102177037Y-57159990D01*
X102081392Y-57169410D01*
X101958678Y-57206635D01*
X101845584Y-57267085D01*
X101796384Y-57307463D01*
X101746457Y-57348437D01*
X101726077Y-57373270D01*
X99992725Y-59106623D01*
X100085320Y-58968045D01*
X100172537Y-58757484D01*
X100217000Y-58533955D01*
X100217000Y-58306045D01*
X100172537Y-58082516D01*
X100085320Y-57871955D01*
X99958700Y-57682456D01*
X99797544Y-57521300D01*
X99608045Y-57394680D01*
X99397484Y-57307463D01*
X99173955Y-57263000D01*
X98946045Y-57263000D01*
X98722516Y-57307463D01*
X98511955Y-57394680D01*
X98324000Y-57520268D01*
X98324000Y-56779732D01*
X98511955Y-56905320D01*
X98722516Y-56992537D01*
X98946045Y-57037000D01*
X99173955Y-57037000D01*
X99397484Y-56992537D01*
X99608045Y-56905320D01*
X99797544Y-56778700D01*
X99958700Y-56617544D01*
X100085320Y-56428045D01*
X100172537Y-56217484D01*
X100217000Y-55993955D01*
X100217000Y-55766045D01*
X100172537Y-55542516D01*
X100085320Y-55331955D01*
X99958700Y-55142456D01*
X99797544Y-54981300D01*
X99608045Y-54854680D01*
X99397484Y-54767463D01*
X99173955Y-54723000D01*
X98946045Y-54723000D01*
X98722516Y-54767463D01*
X98511955Y-54854680D01*
X98324000Y-54980268D01*
X98324000Y-54239732D01*
X98511955Y-54365320D01*
X98722516Y-54452537D01*
X98946045Y-54497000D01*
X99173955Y-54497000D01*
X99397484Y-54452537D01*
X99608045Y-54365320D01*
X99797544Y-54238700D01*
X99958700Y-54077544D01*
X100085320Y-53888045D01*
X100172537Y-53677484D01*
X100217000Y-53453955D01*
X100217000Y-53226045D01*
X100172537Y-53002516D01*
X100085320Y-52791955D01*
X99958700Y-52602456D01*
X99797544Y-52441300D01*
X99608045Y-52314680D01*
X99397484Y-52227463D01*
X99173955Y-52183000D01*
X98946045Y-52183000D01*
X98722516Y-52227463D01*
X98511955Y-52314680D01*
X98324000Y-52440268D01*
X98324000Y-51699732D01*
X98511955Y-51825320D01*
X98722516Y-51912537D01*
X98946045Y-51957000D01*
X99173955Y-51957000D01*
X99397484Y-51912537D01*
X99608045Y-51825320D01*
X99797544Y-51698700D01*
X99958700Y-51537544D01*
X100085320Y-51348045D01*
X100172537Y-51137484D01*
X100217000Y-50913955D01*
X100217000Y-50686045D01*
X100172537Y-50462516D01*
X100085320Y-50251955D01*
X99958700Y-50062456D01*
X99797544Y-49901300D01*
X99608045Y-49774680D01*
X99397484Y-49687463D01*
X99173955Y-49643000D01*
X98946045Y-49643000D01*
X98722516Y-49687463D01*
X98511955Y-49774680D01*
X98324000Y-49900268D01*
X98324000Y-49418727D01*
X99860000Y-49418727D01*
X99929984Y-49411834D01*
X99997279Y-49391421D01*
X100059298Y-49358271D01*
X100113658Y-49313658D01*
X100158271Y-49259298D01*
X100191421Y-49197279D01*
X100211834Y-49129984D01*
X100218727Y-49060000D01*
X100218727Y-48911000D01*
X104573348Y-48911000D01*
X105995025Y-50332678D01*
G37*
X105995025Y-50332678D02*
X105930000Y-50326273D01*
X105380000Y-50326273D01*
X105355552Y-50328681D01*
X105330991Y-50328681D01*
X105261007Y-50335574D01*
X105164874Y-50354696D01*
X105097581Y-50375109D01*
X105007025Y-50412618D01*
X104945004Y-50445769D01*
X104863505Y-50500225D01*
X104809145Y-50544837D01*
X104739837Y-50614145D01*
X104695225Y-50668505D01*
X104640769Y-50750004D01*
X104607618Y-50812025D01*
X104570109Y-50902581D01*
X104549696Y-50969874D01*
X104530574Y-51066007D01*
X104523681Y-51135991D01*
X104523681Y-51160552D01*
X104521273Y-51185000D01*
X104521273Y-51685000D01*
X104523681Y-51709448D01*
X104523681Y-51734009D01*
X104530574Y-51803993D01*
X104549696Y-51900126D01*
X104570109Y-51967419D01*
X104607618Y-52057975D01*
X104640769Y-52119996D01*
X104695225Y-52201495D01*
X104739837Y-52255855D01*
X104809145Y-52325163D01*
X104863505Y-52369775D01*
X104875501Y-52377790D01*
X104875501Y-52777215D01*
X104873060Y-52802000D01*
X104882800Y-52900899D01*
X104911648Y-52995997D01*
X104958495Y-53083641D01*
X105005741Y-53141211D01*
X105005746Y-53141216D01*
X105021540Y-53160461D01*
X105040785Y-53176255D01*
X105951493Y-54086964D01*
X105958548Y-54103996D01*
X105983645Y-54141557D01*
X105930000Y-54136273D01*
X105380000Y-54136273D01*
X105355552Y-54138681D01*
X105330991Y-54138681D01*
X105261007Y-54145574D01*
X105164874Y-54164696D01*
X105097581Y-54185109D01*
X105007025Y-54222618D01*
X104945004Y-54255769D01*
X104863505Y-54310225D01*
X104809145Y-54354837D01*
X104739837Y-54424145D01*
X104695225Y-54478505D01*
X104640769Y-54560004D01*
X104607618Y-54622025D01*
X104570109Y-54712581D01*
X104549696Y-54779874D01*
X104530574Y-54876007D01*
X104523681Y-54945991D01*
X104523681Y-54970552D01*
X104521273Y-54995000D01*
X104521273Y-55495000D01*
X104523681Y-55519448D01*
X104523681Y-55544009D01*
X104530574Y-55613993D01*
X104549696Y-55710126D01*
X104570109Y-55777419D01*
X104607618Y-55867975D01*
X104640769Y-55929996D01*
X104695225Y-56011495D01*
X104739837Y-56065855D01*
X104809145Y-56135163D01*
X104863505Y-56179775D01*
X104945004Y-56234231D01*
X105007025Y-56267382D01*
X105097581Y-56304891D01*
X105164874Y-56325304D01*
X105261007Y-56344426D01*
X105330991Y-56351319D01*
X105355552Y-56351319D01*
X105380000Y-56353727D01*
X105930000Y-56353727D01*
X105995025Y-56347322D01*
X105182358Y-57159990D01*
X102240975Y-57159990D01*
X102209010Y-57156842D01*
X102177045Y-57159990D01*
X102177037Y-57159990D01*
X102081392Y-57169410D01*
X101958678Y-57206635D01*
X101845584Y-57267085D01*
X101796384Y-57307463D01*
X101746457Y-57348437D01*
X101726077Y-57373270D01*
X99992725Y-59106623D01*
X100085320Y-58968045D01*
X100172537Y-58757484D01*
X100217000Y-58533955D01*
X100217000Y-58306045D01*
X100172537Y-58082516D01*
X100085320Y-57871955D01*
X99958700Y-57682456D01*
X99797544Y-57521300D01*
X99608045Y-57394680D01*
X99397484Y-57307463D01*
X99173955Y-57263000D01*
X98946045Y-57263000D01*
X98722516Y-57307463D01*
X98511955Y-57394680D01*
X98324000Y-57520268D01*
X98324000Y-56779732D01*
X98511955Y-56905320D01*
X98722516Y-56992537D01*
X98946045Y-57037000D01*
X99173955Y-57037000D01*
X99397484Y-56992537D01*
X99608045Y-56905320D01*
X99797544Y-56778700D01*
X99958700Y-56617544D01*
X100085320Y-56428045D01*
X100172537Y-56217484D01*
X100217000Y-55993955D01*
X100217000Y-55766045D01*
X100172537Y-55542516D01*
X100085320Y-55331955D01*
X99958700Y-55142456D01*
X99797544Y-54981300D01*
X99608045Y-54854680D01*
X99397484Y-54767463D01*
X99173955Y-54723000D01*
X98946045Y-54723000D01*
X98722516Y-54767463D01*
X98511955Y-54854680D01*
X98324000Y-54980268D01*
X98324000Y-54239732D01*
X98511955Y-54365320D01*
X98722516Y-54452537D01*
X98946045Y-54497000D01*
X99173955Y-54497000D01*
X99397484Y-54452537D01*
X99608045Y-54365320D01*
X99797544Y-54238700D01*
X99958700Y-54077544D01*
X100085320Y-53888045D01*
X100172537Y-53677484D01*
X100217000Y-53453955D01*
X100217000Y-53226045D01*
X100172537Y-53002516D01*
X100085320Y-52791955D01*
X99958700Y-52602456D01*
X99797544Y-52441300D01*
X99608045Y-52314680D01*
X99397484Y-52227463D01*
X99173955Y-52183000D01*
X98946045Y-52183000D01*
X98722516Y-52227463D01*
X98511955Y-52314680D01*
X98324000Y-52440268D01*
X98324000Y-51699732D01*
X98511955Y-51825320D01*
X98722516Y-51912537D01*
X98946045Y-51957000D01*
X99173955Y-51957000D01*
X99397484Y-51912537D01*
X99608045Y-51825320D01*
X99797544Y-51698700D01*
X99958700Y-51537544D01*
X100085320Y-51348045D01*
X100172537Y-51137484D01*
X100217000Y-50913955D01*
X100217000Y-50686045D01*
X100172537Y-50462516D01*
X100085320Y-50251955D01*
X99958700Y-50062456D01*
X99797544Y-49901300D01*
X99608045Y-49774680D01*
X99397484Y-49687463D01*
X99173955Y-49643000D01*
X98946045Y-49643000D01*
X98722516Y-49687463D01*
X98511955Y-49774680D01*
X98324000Y-49900268D01*
X98324000Y-49418727D01*
X99860000Y-49418727D01*
X99929984Y-49411834D01*
X99997279Y-49391421D01*
X100059298Y-49358271D01*
X100113658Y-49313658D01*
X100158271Y-49259298D01*
X100191421Y-49197279D01*
X100211834Y-49129984D01*
X100218727Y-49060000D01*
X100218727Y-48911000D01*
X104573348Y-48911000D01*
X105995025Y-50332678D01*
M02*
