G04 #@! TF.GenerationSoftware,KiCad,Pcbnew,(5.1.5)-3*
G04 #@! TF.CreationDate,2021-01-25T20:45:38-05:00*
G04 #@! TF.ProjectId,DIP40-XC9572XL,44495034-302d-4584-9339-353732584c2e,1*
G04 #@! TF.SameCoordinates,Original*
G04 #@! TF.FileFunction,Soldermask,Bot*
G04 #@! TF.FilePolarity,Negative*
%FSLAX46Y46*%
G04 Gerber Fmt 4.6, Leading zero omitted, Abs format (unit mm)*
G04 Created by KiCad (PCBNEW (5.1.5)-3) date 2021-01-25 20:45:38*
%MOMM*%
%LPD*%
G04 APERTURE LIST*
%ADD10R,1.700000X1.700000*%
%ADD11O,1.700000X1.700000*%
%ADD12C,0.100000*%
%ADD13R,0.650000X0.280000*%
%ADD14R,1.600000X1.600000*%
%ADD15O,1.600000X1.600000*%
%ADD16R,1.000000X1.000000*%
%ADD17O,1.000000X1.000000*%
G04 APERTURE END LIST*
D10*
X102870000Y-96520000D03*
D11*
X102870000Y-93980000D03*
X105410000Y-96520000D03*
X105410000Y-93980000D03*
X107950000Y-93980000D03*
X110490000Y-93980000D03*
D12*
G36*
X103979505Y-49201204D02*
G01*
X104003773Y-49204804D01*
X104027572Y-49210765D01*
X104050671Y-49219030D01*
X104072850Y-49229520D01*
X104093893Y-49242132D01*
X104113599Y-49256747D01*
X104131777Y-49273223D01*
X104148253Y-49291401D01*
X104162868Y-49311107D01*
X104175480Y-49332150D01*
X104185970Y-49354329D01*
X104194235Y-49377428D01*
X104200196Y-49401227D01*
X104203796Y-49425495D01*
X104205000Y-49449999D01*
X104205000Y-50100001D01*
X104203796Y-50124505D01*
X104200196Y-50148773D01*
X104194235Y-50172572D01*
X104185970Y-50195671D01*
X104175480Y-50217850D01*
X104162868Y-50238893D01*
X104148253Y-50258599D01*
X104131777Y-50276777D01*
X104113599Y-50293253D01*
X104093893Y-50307868D01*
X104072850Y-50320480D01*
X104050671Y-50330970D01*
X104027572Y-50339235D01*
X104003773Y-50345196D01*
X103979505Y-50348796D01*
X103955001Y-50350000D01*
X103054999Y-50350000D01*
X103030495Y-50348796D01*
X103006227Y-50345196D01*
X102982428Y-50339235D01*
X102959329Y-50330970D01*
X102937150Y-50320480D01*
X102916107Y-50307868D01*
X102896401Y-50293253D01*
X102878223Y-50276777D01*
X102861747Y-50258599D01*
X102847132Y-50238893D01*
X102834520Y-50217850D01*
X102824030Y-50195671D01*
X102815765Y-50172572D01*
X102809804Y-50148773D01*
X102806204Y-50124505D01*
X102805000Y-50100001D01*
X102805000Y-49449999D01*
X102806204Y-49425495D01*
X102809804Y-49401227D01*
X102815765Y-49377428D01*
X102824030Y-49354329D01*
X102834520Y-49332150D01*
X102847132Y-49311107D01*
X102861747Y-49291401D01*
X102878223Y-49273223D01*
X102896401Y-49256747D01*
X102916107Y-49242132D01*
X102937150Y-49229520D01*
X102959329Y-49219030D01*
X102982428Y-49210765D01*
X103006227Y-49204804D01*
X103030495Y-49201204D01*
X103054999Y-49200000D01*
X103955001Y-49200000D01*
X103979505Y-49201204D01*
G37*
G36*
X103979505Y-51251204D02*
G01*
X104003773Y-51254804D01*
X104027572Y-51260765D01*
X104050671Y-51269030D01*
X104072850Y-51279520D01*
X104093893Y-51292132D01*
X104113599Y-51306747D01*
X104131777Y-51323223D01*
X104148253Y-51341401D01*
X104162868Y-51361107D01*
X104175480Y-51382150D01*
X104185970Y-51404329D01*
X104194235Y-51427428D01*
X104200196Y-51451227D01*
X104203796Y-51475495D01*
X104205000Y-51499999D01*
X104205000Y-52150001D01*
X104203796Y-52174505D01*
X104200196Y-52198773D01*
X104194235Y-52222572D01*
X104185970Y-52245671D01*
X104175480Y-52267850D01*
X104162868Y-52288893D01*
X104148253Y-52308599D01*
X104131777Y-52326777D01*
X104113599Y-52343253D01*
X104093893Y-52357868D01*
X104072850Y-52370480D01*
X104050671Y-52380970D01*
X104027572Y-52389235D01*
X104003773Y-52395196D01*
X103979505Y-52398796D01*
X103955001Y-52400000D01*
X103054999Y-52400000D01*
X103030495Y-52398796D01*
X103006227Y-52395196D01*
X102982428Y-52389235D01*
X102959329Y-52380970D01*
X102937150Y-52370480D01*
X102916107Y-52357868D01*
X102896401Y-52343253D01*
X102878223Y-52326777D01*
X102861747Y-52308599D01*
X102847132Y-52288893D01*
X102834520Y-52267850D01*
X102824030Y-52245671D01*
X102815765Y-52222572D01*
X102809804Y-52198773D01*
X102806204Y-52174505D01*
X102805000Y-52150001D01*
X102805000Y-51499999D01*
X102806204Y-51475495D01*
X102809804Y-51451227D01*
X102815765Y-51427428D01*
X102824030Y-51404329D01*
X102834520Y-51382150D01*
X102847132Y-51361107D01*
X102861747Y-51341401D01*
X102878223Y-51323223D01*
X102896401Y-51306747D01*
X102916107Y-51292132D01*
X102937150Y-51279520D01*
X102959329Y-51269030D01*
X102982428Y-51260765D01*
X103006227Y-51254804D01*
X103030495Y-51251204D01*
X103054999Y-51250000D01*
X103955001Y-51250000D01*
X103979505Y-51251204D01*
G37*
G36*
X110329505Y-51251204D02*
G01*
X110353773Y-51254804D01*
X110377572Y-51260765D01*
X110400671Y-51269030D01*
X110422850Y-51279520D01*
X110443893Y-51292132D01*
X110463599Y-51306747D01*
X110481777Y-51323223D01*
X110498253Y-51341401D01*
X110512868Y-51361107D01*
X110525480Y-51382150D01*
X110535970Y-51404329D01*
X110544235Y-51427428D01*
X110550196Y-51451227D01*
X110553796Y-51475495D01*
X110555000Y-51499999D01*
X110555000Y-52150001D01*
X110553796Y-52174505D01*
X110550196Y-52198773D01*
X110544235Y-52222572D01*
X110535970Y-52245671D01*
X110525480Y-52267850D01*
X110512868Y-52288893D01*
X110498253Y-52308599D01*
X110481777Y-52326777D01*
X110463599Y-52343253D01*
X110443893Y-52357868D01*
X110422850Y-52370480D01*
X110400671Y-52380970D01*
X110377572Y-52389235D01*
X110353773Y-52395196D01*
X110329505Y-52398796D01*
X110305001Y-52400000D01*
X109404999Y-52400000D01*
X109380495Y-52398796D01*
X109356227Y-52395196D01*
X109332428Y-52389235D01*
X109309329Y-52380970D01*
X109287150Y-52370480D01*
X109266107Y-52357868D01*
X109246401Y-52343253D01*
X109228223Y-52326777D01*
X109211747Y-52308599D01*
X109197132Y-52288893D01*
X109184520Y-52267850D01*
X109174030Y-52245671D01*
X109165765Y-52222572D01*
X109159804Y-52198773D01*
X109156204Y-52174505D01*
X109155000Y-52150001D01*
X109155000Y-51499999D01*
X109156204Y-51475495D01*
X109159804Y-51451227D01*
X109165765Y-51427428D01*
X109174030Y-51404329D01*
X109184520Y-51382150D01*
X109197132Y-51361107D01*
X109211747Y-51341401D01*
X109228223Y-51323223D01*
X109246401Y-51306747D01*
X109266107Y-51292132D01*
X109287150Y-51279520D01*
X109309329Y-51269030D01*
X109332428Y-51260765D01*
X109356227Y-51254804D01*
X109380495Y-51251204D01*
X109404999Y-51250000D01*
X110305001Y-51250000D01*
X110329505Y-51251204D01*
G37*
G36*
X110329505Y-49201204D02*
G01*
X110353773Y-49204804D01*
X110377572Y-49210765D01*
X110400671Y-49219030D01*
X110422850Y-49229520D01*
X110443893Y-49242132D01*
X110463599Y-49256747D01*
X110481777Y-49273223D01*
X110498253Y-49291401D01*
X110512868Y-49311107D01*
X110525480Y-49332150D01*
X110535970Y-49354329D01*
X110544235Y-49377428D01*
X110550196Y-49401227D01*
X110553796Y-49425495D01*
X110555000Y-49449999D01*
X110555000Y-50100001D01*
X110553796Y-50124505D01*
X110550196Y-50148773D01*
X110544235Y-50172572D01*
X110535970Y-50195671D01*
X110525480Y-50217850D01*
X110512868Y-50238893D01*
X110498253Y-50258599D01*
X110481777Y-50276777D01*
X110463599Y-50293253D01*
X110443893Y-50307868D01*
X110422850Y-50320480D01*
X110400671Y-50330970D01*
X110377572Y-50339235D01*
X110353773Y-50345196D01*
X110329505Y-50348796D01*
X110305001Y-50350000D01*
X109404999Y-50350000D01*
X109380495Y-50348796D01*
X109356227Y-50345196D01*
X109332428Y-50339235D01*
X109309329Y-50330970D01*
X109287150Y-50320480D01*
X109266107Y-50307868D01*
X109246401Y-50293253D01*
X109228223Y-50276777D01*
X109211747Y-50258599D01*
X109197132Y-50238893D01*
X109184520Y-50217850D01*
X109174030Y-50195671D01*
X109165765Y-50172572D01*
X109159804Y-50148773D01*
X109156204Y-50124505D01*
X109155000Y-50100001D01*
X109155000Y-49449999D01*
X109156204Y-49425495D01*
X109159804Y-49401227D01*
X109165765Y-49377428D01*
X109174030Y-49354329D01*
X109184520Y-49332150D01*
X109197132Y-49311107D01*
X109211747Y-49291401D01*
X109228223Y-49273223D01*
X109246401Y-49256747D01*
X109266107Y-49242132D01*
X109287150Y-49229520D01*
X109309329Y-49219030D01*
X109332428Y-49210765D01*
X109356227Y-49204804D01*
X109380495Y-49201204D01*
X109404999Y-49200000D01*
X110305001Y-49200000D01*
X110329505Y-49201204D01*
G37*
G36*
X109440505Y-80506704D02*
G01*
X109464773Y-80510304D01*
X109488572Y-80516265D01*
X109511671Y-80524530D01*
X109533850Y-80535020D01*
X109554893Y-80547632D01*
X109574599Y-80562247D01*
X109592777Y-80578723D01*
X109609253Y-80596901D01*
X109623868Y-80616607D01*
X109636480Y-80637650D01*
X109646970Y-80659829D01*
X109655235Y-80682928D01*
X109661196Y-80706727D01*
X109664796Y-80730995D01*
X109666000Y-80755499D01*
X109666000Y-81405501D01*
X109664796Y-81430005D01*
X109661196Y-81454273D01*
X109655235Y-81478072D01*
X109646970Y-81501171D01*
X109636480Y-81523350D01*
X109623868Y-81544393D01*
X109609253Y-81564099D01*
X109592777Y-81582277D01*
X109574599Y-81598753D01*
X109554893Y-81613368D01*
X109533850Y-81625980D01*
X109511671Y-81636470D01*
X109488572Y-81644735D01*
X109464773Y-81650696D01*
X109440505Y-81654296D01*
X109416001Y-81655500D01*
X108515999Y-81655500D01*
X108491495Y-81654296D01*
X108467227Y-81650696D01*
X108443428Y-81644735D01*
X108420329Y-81636470D01*
X108398150Y-81625980D01*
X108377107Y-81613368D01*
X108357401Y-81598753D01*
X108339223Y-81582277D01*
X108322747Y-81564099D01*
X108308132Y-81544393D01*
X108295520Y-81523350D01*
X108285030Y-81501171D01*
X108276765Y-81478072D01*
X108270804Y-81454273D01*
X108267204Y-81430005D01*
X108266000Y-81405501D01*
X108266000Y-80755499D01*
X108267204Y-80730995D01*
X108270804Y-80706727D01*
X108276765Y-80682928D01*
X108285030Y-80659829D01*
X108295520Y-80637650D01*
X108308132Y-80616607D01*
X108322747Y-80596901D01*
X108339223Y-80578723D01*
X108357401Y-80562247D01*
X108377107Y-80547632D01*
X108398150Y-80535020D01*
X108420329Y-80524530D01*
X108443428Y-80516265D01*
X108467227Y-80510304D01*
X108491495Y-80506704D01*
X108515999Y-80505500D01*
X109416001Y-80505500D01*
X109440505Y-80506704D01*
G37*
G36*
X109440505Y-82556704D02*
G01*
X109464773Y-82560304D01*
X109488572Y-82566265D01*
X109511671Y-82574530D01*
X109533850Y-82585020D01*
X109554893Y-82597632D01*
X109574599Y-82612247D01*
X109592777Y-82628723D01*
X109609253Y-82646901D01*
X109623868Y-82666607D01*
X109636480Y-82687650D01*
X109646970Y-82709829D01*
X109655235Y-82732928D01*
X109661196Y-82756727D01*
X109664796Y-82780995D01*
X109666000Y-82805499D01*
X109666000Y-83455501D01*
X109664796Y-83480005D01*
X109661196Y-83504273D01*
X109655235Y-83528072D01*
X109646970Y-83551171D01*
X109636480Y-83573350D01*
X109623868Y-83594393D01*
X109609253Y-83614099D01*
X109592777Y-83632277D01*
X109574599Y-83648753D01*
X109554893Y-83663368D01*
X109533850Y-83675980D01*
X109511671Y-83686470D01*
X109488572Y-83694735D01*
X109464773Y-83700696D01*
X109440505Y-83704296D01*
X109416001Y-83705500D01*
X108515999Y-83705500D01*
X108491495Y-83704296D01*
X108467227Y-83700696D01*
X108443428Y-83694735D01*
X108420329Y-83686470D01*
X108398150Y-83675980D01*
X108377107Y-83663368D01*
X108357401Y-83648753D01*
X108339223Y-83632277D01*
X108322747Y-83614099D01*
X108308132Y-83594393D01*
X108295520Y-83573350D01*
X108285030Y-83551171D01*
X108276765Y-83528072D01*
X108270804Y-83504273D01*
X108267204Y-83480005D01*
X108266000Y-83455501D01*
X108266000Y-82805499D01*
X108267204Y-82780995D01*
X108270804Y-82756727D01*
X108276765Y-82732928D01*
X108285030Y-82709829D01*
X108295520Y-82687650D01*
X108308132Y-82666607D01*
X108322747Y-82646901D01*
X108339223Y-82628723D01*
X108357401Y-82612247D01*
X108377107Y-82597632D01*
X108398150Y-82585020D01*
X108420329Y-82574530D01*
X108443428Y-82566265D01*
X108467227Y-82560304D01*
X108491495Y-82556704D01*
X108515999Y-82555500D01*
X109416001Y-82555500D01*
X109440505Y-82556704D01*
G37*
D13*
X107630000Y-50150000D03*
X107630000Y-50800000D03*
X107630000Y-51450000D03*
X105730000Y-51450000D03*
X105730000Y-50800000D03*
X105730000Y-50150000D03*
D12*
G36*
X106954504Y-50001204D02*
G01*
X106978773Y-50004804D01*
X107002571Y-50010765D01*
X107025671Y-50019030D01*
X107047849Y-50029520D01*
X107068893Y-50042133D01*
X107088598Y-50056747D01*
X107106777Y-50073223D01*
X107123253Y-50091402D01*
X107137867Y-50111107D01*
X107150480Y-50132151D01*
X107160970Y-50154329D01*
X107169235Y-50177429D01*
X107175196Y-50201227D01*
X107178796Y-50225496D01*
X107180000Y-50250000D01*
X107180000Y-51350000D01*
X107178796Y-51374504D01*
X107175196Y-51398773D01*
X107169235Y-51422571D01*
X107160970Y-51445671D01*
X107150480Y-51467849D01*
X107137867Y-51488893D01*
X107123253Y-51508598D01*
X107106777Y-51526777D01*
X107088598Y-51543253D01*
X107068893Y-51557867D01*
X107047849Y-51570480D01*
X107025671Y-51580970D01*
X107002571Y-51589235D01*
X106978773Y-51595196D01*
X106954504Y-51598796D01*
X106930000Y-51600000D01*
X106430000Y-51600000D01*
X106405496Y-51598796D01*
X106381227Y-51595196D01*
X106357429Y-51589235D01*
X106334329Y-51580970D01*
X106312151Y-51570480D01*
X106291107Y-51557867D01*
X106271402Y-51543253D01*
X106253223Y-51526777D01*
X106236747Y-51508598D01*
X106222133Y-51488893D01*
X106209520Y-51467849D01*
X106199030Y-51445671D01*
X106190765Y-51422571D01*
X106184804Y-51398773D01*
X106181204Y-51374504D01*
X106180000Y-51350000D01*
X106180000Y-50250000D01*
X106181204Y-50225496D01*
X106184804Y-50201227D01*
X106190765Y-50177429D01*
X106199030Y-50154329D01*
X106209520Y-50132151D01*
X106222133Y-50111107D01*
X106236747Y-50091402D01*
X106253223Y-50073223D01*
X106271402Y-50056747D01*
X106291107Y-50042133D01*
X106312151Y-50029520D01*
X106334329Y-50019030D01*
X106357429Y-50010765D01*
X106381227Y-50004804D01*
X106405496Y-50001204D01*
X106430000Y-50000000D01*
X106930000Y-50000000D01*
X106954504Y-50001204D01*
G37*
G36*
X113012351Y-68490361D02*
G01*
X113019632Y-68491441D01*
X113026771Y-68493229D01*
X113033701Y-68495709D01*
X113040355Y-68498856D01*
X113046668Y-68502640D01*
X113052579Y-68507024D01*
X113058033Y-68511967D01*
X113062976Y-68517421D01*
X113067360Y-68523332D01*
X113071144Y-68529645D01*
X113074291Y-68536299D01*
X113076771Y-68543229D01*
X113078559Y-68550368D01*
X113079639Y-68557649D01*
X113080000Y-68565000D01*
X113080000Y-68715000D01*
X113079639Y-68722351D01*
X113078559Y-68729632D01*
X113076771Y-68736771D01*
X113074291Y-68743701D01*
X113071144Y-68750355D01*
X113067360Y-68756668D01*
X113062976Y-68762579D01*
X113058033Y-68768033D01*
X113052579Y-68772976D01*
X113046668Y-68777360D01*
X113040355Y-68781144D01*
X113033701Y-68784291D01*
X113026771Y-68786771D01*
X113019632Y-68788559D01*
X113012351Y-68789639D01*
X113005000Y-68790000D01*
X111680000Y-68790000D01*
X111672649Y-68789639D01*
X111665368Y-68788559D01*
X111658229Y-68786771D01*
X111651299Y-68784291D01*
X111644645Y-68781144D01*
X111638332Y-68777360D01*
X111632421Y-68772976D01*
X111626967Y-68768033D01*
X111622024Y-68762579D01*
X111617640Y-68756668D01*
X111613856Y-68750355D01*
X111610709Y-68743701D01*
X111608229Y-68736771D01*
X111606441Y-68729632D01*
X111605361Y-68722351D01*
X111605000Y-68715000D01*
X111605000Y-68565000D01*
X111605361Y-68557649D01*
X111606441Y-68550368D01*
X111608229Y-68543229D01*
X111610709Y-68536299D01*
X111613856Y-68529645D01*
X111617640Y-68523332D01*
X111622024Y-68517421D01*
X111626967Y-68511967D01*
X111632421Y-68507024D01*
X111638332Y-68502640D01*
X111644645Y-68498856D01*
X111651299Y-68495709D01*
X111658229Y-68493229D01*
X111665368Y-68491441D01*
X111672649Y-68490361D01*
X111680000Y-68490000D01*
X113005000Y-68490000D01*
X113012351Y-68490361D01*
G37*
G36*
X113012351Y-68990361D02*
G01*
X113019632Y-68991441D01*
X113026771Y-68993229D01*
X113033701Y-68995709D01*
X113040355Y-68998856D01*
X113046668Y-69002640D01*
X113052579Y-69007024D01*
X113058033Y-69011967D01*
X113062976Y-69017421D01*
X113067360Y-69023332D01*
X113071144Y-69029645D01*
X113074291Y-69036299D01*
X113076771Y-69043229D01*
X113078559Y-69050368D01*
X113079639Y-69057649D01*
X113080000Y-69065000D01*
X113080000Y-69215000D01*
X113079639Y-69222351D01*
X113078559Y-69229632D01*
X113076771Y-69236771D01*
X113074291Y-69243701D01*
X113071144Y-69250355D01*
X113067360Y-69256668D01*
X113062976Y-69262579D01*
X113058033Y-69268033D01*
X113052579Y-69272976D01*
X113046668Y-69277360D01*
X113040355Y-69281144D01*
X113033701Y-69284291D01*
X113026771Y-69286771D01*
X113019632Y-69288559D01*
X113012351Y-69289639D01*
X113005000Y-69290000D01*
X111680000Y-69290000D01*
X111672649Y-69289639D01*
X111665368Y-69288559D01*
X111658229Y-69286771D01*
X111651299Y-69284291D01*
X111644645Y-69281144D01*
X111638332Y-69277360D01*
X111632421Y-69272976D01*
X111626967Y-69268033D01*
X111622024Y-69262579D01*
X111617640Y-69256668D01*
X111613856Y-69250355D01*
X111610709Y-69243701D01*
X111608229Y-69236771D01*
X111606441Y-69229632D01*
X111605361Y-69222351D01*
X111605000Y-69215000D01*
X111605000Y-69065000D01*
X111605361Y-69057649D01*
X111606441Y-69050368D01*
X111608229Y-69043229D01*
X111610709Y-69036299D01*
X111613856Y-69029645D01*
X111617640Y-69023332D01*
X111622024Y-69017421D01*
X111626967Y-69011967D01*
X111632421Y-69007024D01*
X111638332Y-69002640D01*
X111644645Y-68998856D01*
X111651299Y-68995709D01*
X111658229Y-68993229D01*
X111665368Y-68991441D01*
X111672649Y-68990361D01*
X111680000Y-68990000D01*
X113005000Y-68990000D01*
X113012351Y-68990361D01*
G37*
G36*
X113012351Y-69490361D02*
G01*
X113019632Y-69491441D01*
X113026771Y-69493229D01*
X113033701Y-69495709D01*
X113040355Y-69498856D01*
X113046668Y-69502640D01*
X113052579Y-69507024D01*
X113058033Y-69511967D01*
X113062976Y-69517421D01*
X113067360Y-69523332D01*
X113071144Y-69529645D01*
X113074291Y-69536299D01*
X113076771Y-69543229D01*
X113078559Y-69550368D01*
X113079639Y-69557649D01*
X113080000Y-69565000D01*
X113080000Y-69715000D01*
X113079639Y-69722351D01*
X113078559Y-69729632D01*
X113076771Y-69736771D01*
X113074291Y-69743701D01*
X113071144Y-69750355D01*
X113067360Y-69756668D01*
X113062976Y-69762579D01*
X113058033Y-69768033D01*
X113052579Y-69772976D01*
X113046668Y-69777360D01*
X113040355Y-69781144D01*
X113033701Y-69784291D01*
X113026771Y-69786771D01*
X113019632Y-69788559D01*
X113012351Y-69789639D01*
X113005000Y-69790000D01*
X111680000Y-69790000D01*
X111672649Y-69789639D01*
X111665368Y-69788559D01*
X111658229Y-69786771D01*
X111651299Y-69784291D01*
X111644645Y-69781144D01*
X111638332Y-69777360D01*
X111632421Y-69772976D01*
X111626967Y-69768033D01*
X111622024Y-69762579D01*
X111617640Y-69756668D01*
X111613856Y-69750355D01*
X111610709Y-69743701D01*
X111608229Y-69736771D01*
X111606441Y-69729632D01*
X111605361Y-69722351D01*
X111605000Y-69715000D01*
X111605000Y-69565000D01*
X111605361Y-69557649D01*
X111606441Y-69550368D01*
X111608229Y-69543229D01*
X111610709Y-69536299D01*
X111613856Y-69529645D01*
X111617640Y-69523332D01*
X111622024Y-69517421D01*
X111626967Y-69511967D01*
X111632421Y-69507024D01*
X111638332Y-69502640D01*
X111644645Y-69498856D01*
X111651299Y-69495709D01*
X111658229Y-69493229D01*
X111665368Y-69491441D01*
X111672649Y-69490361D01*
X111680000Y-69490000D01*
X113005000Y-69490000D01*
X113012351Y-69490361D01*
G37*
G36*
X113012351Y-69990361D02*
G01*
X113019632Y-69991441D01*
X113026771Y-69993229D01*
X113033701Y-69995709D01*
X113040355Y-69998856D01*
X113046668Y-70002640D01*
X113052579Y-70007024D01*
X113058033Y-70011967D01*
X113062976Y-70017421D01*
X113067360Y-70023332D01*
X113071144Y-70029645D01*
X113074291Y-70036299D01*
X113076771Y-70043229D01*
X113078559Y-70050368D01*
X113079639Y-70057649D01*
X113080000Y-70065000D01*
X113080000Y-70215000D01*
X113079639Y-70222351D01*
X113078559Y-70229632D01*
X113076771Y-70236771D01*
X113074291Y-70243701D01*
X113071144Y-70250355D01*
X113067360Y-70256668D01*
X113062976Y-70262579D01*
X113058033Y-70268033D01*
X113052579Y-70272976D01*
X113046668Y-70277360D01*
X113040355Y-70281144D01*
X113033701Y-70284291D01*
X113026771Y-70286771D01*
X113019632Y-70288559D01*
X113012351Y-70289639D01*
X113005000Y-70290000D01*
X111680000Y-70290000D01*
X111672649Y-70289639D01*
X111665368Y-70288559D01*
X111658229Y-70286771D01*
X111651299Y-70284291D01*
X111644645Y-70281144D01*
X111638332Y-70277360D01*
X111632421Y-70272976D01*
X111626967Y-70268033D01*
X111622024Y-70262579D01*
X111617640Y-70256668D01*
X111613856Y-70250355D01*
X111610709Y-70243701D01*
X111608229Y-70236771D01*
X111606441Y-70229632D01*
X111605361Y-70222351D01*
X111605000Y-70215000D01*
X111605000Y-70065000D01*
X111605361Y-70057649D01*
X111606441Y-70050368D01*
X111608229Y-70043229D01*
X111610709Y-70036299D01*
X111613856Y-70029645D01*
X111617640Y-70023332D01*
X111622024Y-70017421D01*
X111626967Y-70011967D01*
X111632421Y-70007024D01*
X111638332Y-70002640D01*
X111644645Y-69998856D01*
X111651299Y-69995709D01*
X111658229Y-69993229D01*
X111665368Y-69991441D01*
X111672649Y-69990361D01*
X111680000Y-69990000D01*
X113005000Y-69990000D01*
X113012351Y-69990361D01*
G37*
G36*
X113012351Y-70490361D02*
G01*
X113019632Y-70491441D01*
X113026771Y-70493229D01*
X113033701Y-70495709D01*
X113040355Y-70498856D01*
X113046668Y-70502640D01*
X113052579Y-70507024D01*
X113058033Y-70511967D01*
X113062976Y-70517421D01*
X113067360Y-70523332D01*
X113071144Y-70529645D01*
X113074291Y-70536299D01*
X113076771Y-70543229D01*
X113078559Y-70550368D01*
X113079639Y-70557649D01*
X113080000Y-70565000D01*
X113080000Y-70715000D01*
X113079639Y-70722351D01*
X113078559Y-70729632D01*
X113076771Y-70736771D01*
X113074291Y-70743701D01*
X113071144Y-70750355D01*
X113067360Y-70756668D01*
X113062976Y-70762579D01*
X113058033Y-70768033D01*
X113052579Y-70772976D01*
X113046668Y-70777360D01*
X113040355Y-70781144D01*
X113033701Y-70784291D01*
X113026771Y-70786771D01*
X113019632Y-70788559D01*
X113012351Y-70789639D01*
X113005000Y-70790000D01*
X111680000Y-70790000D01*
X111672649Y-70789639D01*
X111665368Y-70788559D01*
X111658229Y-70786771D01*
X111651299Y-70784291D01*
X111644645Y-70781144D01*
X111638332Y-70777360D01*
X111632421Y-70772976D01*
X111626967Y-70768033D01*
X111622024Y-70762579D01*
X111617640Y-70756668D01*
X111613856Y-70750355D01*
X111610709Y-70743701D01*
X111608229Y-70736771D01*
X111606441Y-70729632D01*
X111605361Y-70722351D01*
X111605000Y-70715000D01*
X111605000Y-70565000D01*
X111605361Y-70557649D01*
X111606441Y-70550368D01*
X111608229Y-70543229D01*
X111610709Y-70536299D01*
X111613856Y-70529645D01*
X111617640Y-70523332D01*
X111622024Y-70517421D01*
X111626967Y-70511967D01*
X111632421Y-70507024D01*
X111638332Y-70502640D01*
X111644645Y-70498856D01*
X111651299Y-70495709D01*
X111658229Y-70493229D01*
X111665368Y-70491441D01*
X111672649Y-70490361D01*
X111680000Y-70490000D01*
X113005000Y-70490000D01*
X113012351Y-70490361D01*
G37*
G36*
X113012351Y-70990361D02*
G01*
X113019632Y-70991441D01*
X113026771Y-70993229D01*
X113033701Y-70995709D01*
X113040355Y-70998856D01*
X113046668Y-71002640D01*
X113052579Y-71007024D01*
X113058033Y-71011967D01*
X113062976Y-71017421D01*
X113067360Y-71023332D01*
X113071144Y-71029645D01*
X113074291Y-71036299D01*
X113076771Y-71043229D01*
X113078559Y-71050368D01*
X113079639Y-71057649D01*
X113080000Y-71065000D01*
X113080000Y-71215000D01*
X113079639Y-71222351D01*
X113078559Y-71229632D01*
X113076771Y-71236771D01*
X113074291Y-71243701D01*
X113071144Y-71250355D01*
X113067360Y-71256668D01*
X113062976Y-71262579D01*
X113058033Y-71268033D01*
X113052579Y-71272976D01*
X113046668Y-71277360D01*
X113040355Y-71281144D01*
X113033701Y-71284291D01*
X113026771Y-71286771D01*
X113019632Y-71288559D01*
X113012351Y-71289639D01*
X113005000Y-71290000D01*
X111680000Y-71290000D01*
X111672649Y-71289639D01*
X111665368Y-71288559D01*
X111658229Y-71286771D01*
X111651299Y-71284291D01*
X111644645Y-71281144D01*
X111638332Y-71277360D01*
X111632421Y-71272976D01*
X111626967Y-71268033D01*
X111622024Y-71262579D01*
X111617640Y-71256668D01*
X111613856Y-71250355D01*
X111610709Y-71243701D01*
X111608229Y-71236771D01*
X111606441Y-71229632D01*
X111605361Y-71222351D01*
X111605000Y-71215000D01*
X111605000Y-71065000D01*
X111605361Y-71057649D01*
X111606441Y-71050368D01*
X111608229Y-71043229D01*
X111610709Y-71036299D01*
X111613856Y-71029645D01*
X111617640Y-71023332D01*
X111622024Y-71017421D01*
X111626967Y-71011967D01*
X111632421Y-71007024D01*
X111638332Y-71002640D01*
X111644645Y-70998856D01*
X111651299Y-70995709D01*
X111658229Y-70993229D01*
X111665368Y-70991441D01*
X111672649Y-70990361D01*
X111680000Y-70990000D01*
X113005000Y-70990000D01*
X113012351Y-70990361D01*
G37*
G36*
X113012351Y-71490361D02*
G01*
X113019632Y-71491441D01*
X113026771Y-71493229D01*
X113033701Y-71495709D01*
X113040355Y-71498856D01*
X113046668Y-71502640D01*
X113052579Y-71507024D01*
X113058033Y-71511967D01*
X113062976Y-71517421D01*
X113067360Y-71523332D01*
X113071144Y-71529645D01*
X113074291Y-71536299D01*
X113076771Y-71543229D01*
X113078559Y-71550368D01*
X113079639Y-71557649D01*
X113080000Y-71565000D01*
X113080000Y-71715000D01*
X113079639Y-71722351D01*
X113078559Y-71729632D01*
X113076771Y-71736771D01*
X113074291Y-71743701D01*
X113071144Y-71750355D01*
X113067360Y-71756668D01*
X113062976Y-71762579D01*
X113058033Y-71768033D01*
X113052579Y-71772976D01*
X113046668Y-71777360D01*
X113040355Y-71781144D01*
X113033701Y-71784291D01*
X113026771Y-71786771D01*
X113019632Y-71788559D01*
X113012351Y-71789639D01*
X113005000Y-71790000D01*
X111680000Y-71790000D01*
X111672649Y-71789639D01*
X111665368Y-71788559D01*
X111658229Y-71786771D01*
X111651299Y-71784291D01*
X111644645Y-71781144D01*
X111638332Y-71777360D01*
X111632421Y-71772976D01*
X111626967Y-71768033D01*
X111622024Y-71762579D01*
X111617640Y-71756668D01*
X111613856Y-71750355D01*
X111610709Y-71743701D01*
X111608229Y-71736771D01*
X111606441Y-71729632D01*
X111605361Y-71722351D01*
X111605000Y-71715000D01*
X111605000Y-71565000D01*
X111605361Y-71557649D01*
X111606441Y-71550368D01*
X111608229Y-71543229D01*
X111610709Y-71536299D01*
X111613856Y-71529645D01*
X111617640Y-71523332D01*
X111622024Y-71517421D01*
X111626967Y-71511967D01*
X111632421Y-71507024D01*
X111638332Y-71502640D01*
X111644645Y-71498856D01*
X111651299Y-71495709D01*
X111658229Y-71493229D01*
X111665368Y-71491441D01*
X111672649Y-71490361D01*
X111680000Y-71490000D01*
X113005000Y-71490000D01*
X113012351Y-71490361D01*
G37*
G36*
X113012351Y-71990361D02*
G01*
X113019632Y-71991441D01*
X113026771Y-71993229D01*
X113033701Y-71995709D01*
X113040355Y-71998856D01*
X113046668Y-72002640D01*
X113052579Y-72007024D01*
X113058033Y-72011967D01*
X113062976Y-72017421D01*
X113067360Y-72023332D01*
X113071144Y-72029645D01*
X113074291Y-72036299D01*
X113076771Y-72043229D01*
X113078559Y-72050368D01*
X113079639Y-72057649D01*
X113080000Y-72065000D01*
X113080000Y-72215000D01*
X113079639Y-72222351D01*
X113078559Y-72229632D01*
X113076771Y-72236771D01*
X113074291Y-72243701D01*
X113071144Y-72250355D01*
X113067360Y-72256668D01*
X113062976Y-72262579D01*
X113058033Y-72268033D01*
X113052579Y-72272976D01*
X113046668Y-72277360D01*
X113040355Y-72281144D01*
X113033701Y-72284291D01*
X113026771Y-72286771D01*
X113019632Y-72288559D01*
X113012351Y-72289639D01*
X113005000Y-72290000D01*
X111680000Y-72290000D01*
X111672649Y-72289639D01*
X111665368Y-72288559D01*
X111658229Y-72286771D01*
X111651299Y-72284291D01*
X111644645Y-72281144D01*
X111638332Y-72277360D01*
X111632421Y-72272976D01*
X111626967Y-72268033D01*
X111622024Y-72262579D01*
X111617640Y-72256668D01*
X111613856Y-72250355D01*
X111610709Y-72243701D01*
X111608229Y-72236771D01*
X111606441Y-72229632D01*
X111605361Y-72222351D01*
X111605000Y-72215000D01*
X111605000Y-72065000D01*
X111605361Y-72057649D01*
X111606441Y-72050368D01*
X111608229Y-72043229D01*
X111610709Y-72036299D01*
X111613856Y-72029645D01*
X111617640Y-72023332D01*
X111622024Y-72017421D01*
X111626967Y-72011967D01*
X111632421Y-72007024D01*
X111638332Y-72002640D01*
X111644645Y-71998856D01*
X111651299Y-71995709D01*
X111658229Y-71993229D01*
X111665368Y-71991441D01*
X111672649Y-71990361D01*
X111680000Y-71990000D01*
X113005000Y-71990000D01*
X113012351Y-71990361D01*
G37*
G36*
X113012351Y-72490361D02*
G01*
X113019632Y-72491441D01*
X113026771Y-72493229D01*
X113033701Y-72495709D01*
X113040355Y-72498856D01*
X113046668Y-72502640D01*
X113052579Y-72507024D01*
X113058033Y-72511967D01*
X113062976Y-72517421D01*
X113067360Y-72523332D01*
X113071144Y-72529645D01*
X113074291Y-72536299D01*
X113076771Y-72543229D01*
X113078559Y-72550368D01*
X113079639Y-72557649D01*
X113080000Y-72565000D01*
X113080000Y-72715000D01*
X113079639Y-72722351D01*
X113078559Y-72729632D01*
X113076771Y-72736771D01*
X113074291Y-72743701D01*
X113071144Y-72750355D01*
X113067360Y-72756668D01*
X113062976Y-72762579D01*
X113058033Y-72768033D01*
X113052579Y-72772976D01*
X113046668Y-72777360D01*
X113040355Y-72781144D01*
X113033701Y-72784291D01*
X113026771Y-72786771D01*
X113019632Y-72788559D01*
X113012351Y-72789639D01*
X113005000Y-72790000D01*
X111680000Y-72790000D01*
X111672649Y-72789639D01*
X111665368Y-72788559D01*
X111658229Y-72786771D01*
X111651299Y-72784291D01*
X111644645Y-72781144D01*
X111638332Y-72777360D01*
X111632421Y-72772976D01*
X111626967Y-72768033D01*
X111622024Y-72762579D01*
X111617640Y-72756668D01*
X111613856Y-72750355D01*
X111610709Y-72743701D01*
X111608229Y-72736771D01*
X111606441Y-72729632D01*
X111605361Y-72722351D01*
X111605000Y-72715000D01*
X111605000Y-72565000D01*
X111605361Y-72557649D01*
X111606441Y-72550368D01*
X111608229Y-72543229D01*
X111610709Y-72536299D01*
X111613856Y-72529645D01*
X111617640Y-72523332D01*
X111622024Y-72517421D01*
X111626967Y-72511967D01*
X111632421Y-72507024D01*
X111638332Y-72502640D01*
X111644645Y-72498856D01*
X111651299Y-72495709D01*
X111658229Y-72493229D01*
X111665368Y-72491441D01*
X111672649Y-72490361D01*
X111680000Y-72490000D01*
X113005000Y-72490000D01*
X113012351Y-72490361D01*
G37*
G36*
X113012351Y-72990361D02*
G01*
X113019632Y-72991441D01*
X113026771Y-72993229D01*
X113033701Y-72995709D01*
X113040355Y-72998856D01*
X113046668Y-73002640D01*
X113052579Y-73007024D01*
X113058033Y-73011967D01*
X113062976Y-73017421D01*
X113067360Y-73023332D01*
X113071144Y-73029645D01*
X113074291Y-73036299D01*
X113076771Y-73043229D01*
X113078559Y-73050368D01*
X113079639Y-73057649D01*
X113080000Y-73065000D01*
X113080000Y-73215000D01*
X113079639Y-73222351D01*
X113078559Y-73229632D01*
X113076771Y-73236771D01*
X113074291Y-73243701D01*
X113071144Y-73250355D01*
X113067360Y-73256668D01*
X113062976Y-73262579D01*
X113058033Y-73268033D01*
X113052579Y-73272976D01*
X113046668Y-73277360D01*
X113040355Y-73281144D01*
X113033701Y-73284291D01*
X113026771Y-73286771D01*
X113019632Y-73288559D01*
X113012351Y-73289639D01*
X113005000Y-73290000D01*
X111680000Y-73290000D01*
X111672649Y-73289639D01*
X111665368Y-73288559D01*
X111658229Y-73286771D01*
X111651299Y-73284291D01*
X111644645Y-73281144D01*
X111638332Y-73277360D01*
X111632421Y-73272976D01*
X111626967Y-73268033D01*
X111622024Y-73262579D01*
X111617640Y-73256668D01*
X111613856Y-73250355D01*
X111610709Y-73243701D01*
X111608229Y-73236771D01*
X111606441Y-73229632D01*
X111605361Y-73222351D01*
X111605000Y-73215000D01*
X111605000Y-73065000D01*
X111605361Y-73057649D01*
X111606441Y-73050368D01*
X111608229Y-73043229D01*
X111610709Y-73036299D01*
X111613856Y-73029645D01*
X111617640Y-73023332D01*
X111622024Y-73017421D01*
X111626967Y-73011967D01*
X111632421Y-73007024D01*
X111638332Y-73002640D01*
X111644645Y-72998856D01*
X111651299Y-72995709D01*
X111658229Y-72993229D01*
X111665368Y-72991441D01*
X111672649Y-72990361D01*
X111680000Y-72990000D01*
X113005000Y-72990000D01*
X113012351Y-72990361D01*
G37*
G36*
X113012351Y-73490361D02*
G01*
X113019632Y-73491441D01*
X113026771Y-73493229D01*
X113033701Y-73495709D01*
X113040355Y-73498856D01*
X113046668Y-73502640D01*
X113052579Y-73507024D01*
X113058033Y-73511967D01*
X113062976Y-73517421D01*
X113067360Y-73523332D01*
X113071144Y-73529645D01*
X113074291Y-73536299D01*
X113076771Y-73543229D01*
X113078559Y-73550368D01*
X113079639Y-73557649D01*
X113080000Y-73565000D01*
X113080000Y-73715000D01*
X113079639Y-73722351D01*
X113078559Y-73729632D01*
X113076771Y-73736771D01*
X113074291Y-73743701D01*
X113071144Y-73750355D01*
X113067360Y-73756668D01*
X113062976Y-73762579D01*
X113058033Y-73768033D01*
X113052579Y-73772976D01*
X113046668Y-73777360D01*
X113040355Y-73781144D01*
X113033701Y-73784291D01*
X113026771Y-73786771D01*
X113019632Y-73788559D01*
X113012351Y-73789639D01*
X113005000Y-73790000D01*
X111680000Y-73790000D01*
X111672649Y-73789639D01*
X111665368Y-73788559D01*
X111658229Y-73786771D01*
X111651299Y-73784291D01*
X111644645Y-73781144D01*
X111638332Y-73777360D01*
X111632421Y-73772976D01*
X111626967Y-73768033D01*
X111622024Y-73762579D01*
X111617640Y-73756668D01*
X111613856Y-73750355D01*
X111610709Y-73743701D01*
X111608229Y-73736771D01*
X111606441Y-73729632D01*
X111605361Y-73722351D01*
X111605000Y-73715000D01*
X111605000Y-73565000D01*
X111605361Y-73557649D01*
X111606441Y-73550368D01*
X111608229Y-73543229D01*
X111610709Y-73536299D01*
X111613856Y-73529645D01*
X111617640Y-73523332D01*
X111622024Y-73517421D01*
X111626967Y-73511967D01*
X111632421Y-73507024D01*
X111638332Y-73502640D01*
X111644645Y-73498856D01*
X111651299Y-73495709D01*
X111658229Y-73493229D01*
X111665368Y-73491441D01*
X111672649Y-73490361D01*
X111680000Y-73490000D01*
X113005000Y-73490000D01*
X113012351Y-73490361D01*
G37*
G36*
X113012351Y-73990361D02*
G01*
X113019632Y-73991441D01*
X113026771Y-73993229D01*
X113033701Y-73995709D01*
X113040355Y-73998856D01*
X113046668Y-74002640D01*
X113052579Y-74007024D01*
X113058033Y-74011967D01*
X113062976Y-74017421D01*
X113067360Y-74023332D01*
X113071144Y-74029645D01*
X113074291Y-74036299D01*
X113076771Y-74043229D01*
X113078559Y-74050368D01*
X113079639Y-74057649D01*
X113080000Y-74065000D01*
X113080000Y-74215000D01*
X113079639Y-74222351D01*
X113078559Y-74229632D01*
X113076771Y-74236771D01*
X113074291Y-74243701D01*
X113071144Y-74250355D01*
X113067360Y-74256668D01*
X113062976Y-74262579D01*
X113058033Y-74268033D01*
X113052579Y-74272976D01*
X113046668Y-74277360D01*
X113040355Y-74281144D01*
X113033701Y-74284291D01*
X113026771Y-74286771D01*
X113019632Y-74288559D01*
X113012351Y-74289639D01*
X113005000Y-74290000D01*
X111680000Y-74290000D01*
X111672649Y-74289639D01*
X111665368Y-74288559D01*
X111658229Y-74286771D01*
X111651299Y-74284291D01*
X111644645Y-74281144D01*
X111638332Y-74277360D01*
X111632421Y-74272976D01*
X111626967Y-74268033D01*
X111622024Y-74262579D01*
X111617640Y-74256668D01*
X111613856Y-74250355D01*
X111610709Y-74243701D01*
X111608229Y-74236771D01*
X111606441Y-74229632D01*
X111605361Y-74222351D01*
X111605000Y-74215000D01*
X111605000Y-74065000D01*
X111605361Y-74057649D01*
X111606441Y-74050368D01*
X111608229Y-74043229D01*
X111610709Y-74036299D01*
X111613856Y-74029645D01*
X111617640Y-74023332D01*
X111622024Y-74017421D01*
X111626967Y-74011967D01*
X111632421Y-74007024D01*
X111638332Y-74002640D01*
X111644645Y-73998856D01*
X111651299Y-73995709D01*
X111658229Y-73993229D01*
X111665368Y-73991441D01*
X111672649Y-73990361D01*
X111680000Y-73990000D01*
X113005000Y-73990000D01*
X113012351Y-73990361D01*
G37*
G36*
X113012351Y-74490361D02*
G01*
X113019632Y-74491441D01*
X113026771Y-74493229D01*
X113033701Y-74495709D01*
X113040355Y-74498856D01*
X113046668Y-74502640D01*
X113052579Y-74507024D01*
X113058033Y-74511967D01*
X113062976Y-74517421D01*
X113067360Y-74523332D01*
X113071144Y-74529645D01*
X113074291Y-74536299D01*
X113076771Y-74543229D01*
X113078559Y-74550368D01*
X113079639Y-74557649D01*
X113080000Y-74565000D01*
X113080000Y-74715000D01*
X113079639Y-74722351D01*
X113078559Y-74729632D01*
X113076771Y-74736771D01*
X113074291Y-74743701D01*
X113071144Y-74750355D01*
X113067360Y-74756668D01*
X113062976Y-74762579D01*
X113058033Y-74768033D01*
X113052579Y-74772976D01*
X113046668Y-74777360D01*
X113040355Y-74781144D01*
X113033701Y-74784291D01*
X113026771Y-74786771D01*
X113019632Y-74788559D01*
X113012351Y-74789639D01*
X113005000Y-74790000D01*
X111680000Y-74790000D01*
X111672649Y-74789639D01*
X111665368Y-74788559D01*
X111658229Y-74786771D01*
X111651299Y-74784291D01*
X111644645Y-74781144D01*
X111638332Y-74777360D01*
X111632421Y-74772976D01*
X111626967Y-74768033D01*
X111622024Y-74762579D01*
X111617640Y-74756668D01*
X111613856Y-74750355D01*
X111610709Y-74743701D01*
X111608229Y-74736771D01*
X111606441Y-74729632D01*
X111605361Y-74722351D01*
X111605000Y-74715000D01*
X111605000Y-74565000D01*
X111605361Y-74557649D01*
X111606441Y-74550368D01*
X111608229Y-74543229D01*
X111610709Y-74536299D01*
X111613856Y-74529645D01*
X111617640Y-74523332D01*
X111622024Y-74517421D01*
X111626967Y-74511967D01*
X111632421Y-74507024D01*
X111638332Y-74502640D01*
X111644645Y-74498856D01*
X111651299Y-74495709D01*
X111658229Y-74493229D01*
X111665368Y-74491441D01*
X111672649Y-74490361D01*
X111680000Y-74490000D01*
X113005000Y-74490000D01*
X113012351Y-74490361D01*
G37*
G36*
X113012351Y-74990361D02*
G01*
X113019632Y-74991441D01*
X113026771Y-74993229D01*
X113033701Y-74995709D01*
X113040355Y-74998856D01*
X113046668Y-75002640D01*
X113052579Y-75007024D01*
X113058033Y-75011967D01*
X113062976Y-75017421D01*
X113067360Y-75023332D01*
X113071144Y-75029645D01*
X113074291Y-75036299D01*
X113076771Y-75043229D01*
X113078559Y-75050368D01*
X113079639Y-75057649D01*
X113080000Y-75065000D01*
X113080000Y-75215000D01*
X113079639Y-75222351D01*
X113078559Y-75229632D01*
X113076771Y-75236771D01*
X113074291Y-75243701D01*
X113071144Y-75250355D01*
X113067360Y-75256668D01*
X113062976Y-75262579D01*
X113058033Y-75268033D01*
X113052579Y-75272976D01*
X113046668Y-75277360D01*
X113040355Y-75281144D01*
X113033701Y-75284291D01*
X113026771Y-75286771D01*
X113019632Y-75288559D01*
X113012351Y-75289639D01*
X113005000Y-75290000D01*
X111680000Y-75290000D01*
X111672649Y-75289639D01*
X111665368Y-75288559D01*
X111658229Y-75286771D01*
X111651299Y-75284291D01*
X111644645Y-75281144D01*
X111638332Y-75277360D01*
X111632421Y-75272976D01*
X111626967Y-75268033D01*
X111622024Y-75262579D01*
X111617640Y-75256668D01*
X111613856Y-75250355D01*
X111610709Y-75243701D01*
X111608229Y-75236771D01*
X111606441Y-75229632D01*
X111605361Y-75222351D01*
X111605000Y-75215000D01*
X111605000Y-75065000D01*
X111605361Y-75057649D01*
X111606441Y-75050368D01*
X111608229Y-75043229D01*
X111610709Y-75036299D01*
X111613856Y-75029645D01*
X111617640Y-75023332D01*
X111622024Y-75017421D01*
X111626967Y-75011967D01*
X111632421Y-75007024D01*
X111638332Y-75002640D01*
X111644645Y-74998856D01*
X111651299Y-74995709D01*
X111658229Y-74993229D01*
X111665368Y-74991441D01*
X111672649Y-74990361D01*
X111680000Y-74990000D01*
X113005000Y-74990000D01*
X113012351Y-74990361D01*
G37*
G36*
X113012351Y-75490361D02*
G01*
X113019632Y-75491441D01*
X113026771Y-75493229D01*
X113033701Y-75495709D01*
X113040355Y-75498856D01*
X113046668Y-75502640D01*
X113052579Y-75507024D01*
X113058033Y-75511967D01*
X113062976Y-75517421D01*
X113067360Y-75523332D01*
X113071144Y-75529645D01*
X113074291Y-75536299D01*
X113076771Y-75543229D01*
X113078559Y-75550368D01*
X113079639Y-75557649D01*
X113080000Y-75565000D01*
X113080000Y-75715000D01*
X113079639Y-75722351D01*
X113078559Y-75729632D01*
X113076771Y-75736771D01*
X113074291Y-75743701D01*
X113071144Y-75750355D01*
X113067360Y-75756668D01*
X113062976Y-75762579D01*
X113058033Y-75768033D01*
X113052579Y-75772976D01*
X113046668Y-75777360D01*
X113040355Y-75781144D01*
X113033701Y-75784291D01*
X113026771Y-75786771D01*
X113019632Y-75788559D01*
X113012351Y-75789639D01*
X113005000Y-75790000D01*
X111680000Y-75790000D01*
X111672649Y-75789639D01*
X111665368Y-75788559D01*
X111658229Y-75786771D01*
X111651299Y-75784291D01*
X111644645Y-75781144D01*
X111638332Y-75777360D01*
X111632421Y-75772976D01*
X111626967Y-75768033D01*
X111622024Y-75762579D01*
X111617640Y-75756668D01*
X111613856Y-75750355D01*
X111610709Y-75743701D01*
X111608229Y-75736771D01*
X111606441Y-75729632D01*
X111605361Y-75722351D01*
X111605000Y-75715000D01*
X111605000Y-75565000D01*
X111605361Y-75557649D01*
X111606441Y-75550368D01*
X111608229Y-75543229D01*
X111610709Y-75536299D01*
X111613856Y-75529645D01*
X111617640Y-75523332D01*
X111622024Y-75517421D01*
X111626967Y-75511967D01*
X111632421Y-75507024D01*
X111638332Y-75502640D01*
X111644645Y-75498856D01*
X111651299Y-75495709D01*
X111658229Y-75493229D01*
X111665368Y-75491441D01*
X111672649Y-75490361D01*
X111680000Y-75490000D01*
X113005000Y-75490000D01*
X113012351Y-75490361D01*
G37*
G36*
X113012351Y-75990361D02*
G01*
X113019632Y-75991441D01*
X113026771Y-75993229D01*
X113033701Y-75995709D01*
X113040355Y-75998856D01*
X113046668Y-76002640D01*
X113052579Y-76007024D01*
X113058033Y-76011967D01*
X113062976Y-76017421D01*
X113067360Y-76023332D01*
X113071144Y-76029645D01*
X113074291Y-76036299D01*
X113076771Y-76043229D01*
X113078559Y-76050368D01*
X113079639Y-76057649D01*
X113080000Y-76065000D01*
X113080000Y-76215000D01*
X113079639Y-76222351D01*
X113078559Y-76229632D01*
X113076771Y-76236771D01*
X113074291Y-76243701D01*
X113071144Y-76250355D01*
X113067360Y-76256668D01*
X113062976Y-76262579D01*
X113058033Y-76268033D01*
X113052579Y-76272976D01*
X113046668Y-76277360D01*
X113040355Y-76281144D01*
X113033701Y-76284291D01*
X113026771Y-76286771D01*
X113019632Y-76288559D01*
X113012351Y-76289639D01*
X113005000Y-76290000D01*
X111680000Y-76290000D01*
X111672649Y-76289639D01*
X111665368Y-76288559D01*
X111658229Y-76286771D01*
X111651299Y-76284291D01*
X111644645Y-76281144D01*
X111638332Y-76277360D01*
X111632421Y-76272976D01*
X111626967Y-76268033D01*
X111622024Y-76262579D01*
X111617640Y-76256668D01*
X111613856Y-76250355D01*
X111610709Y-76243701D01*
X111608229Y-76236771D01*
X111606441Y-76229632D01*
X111605361Y-76222351D01*
X111605000Y-76215000D01*
X111605000Y-76065000D01*
X111605361Y-76057649D01*
X111606441Y-76050368D01*
X111608229Y-76043229D01*
X111610709Y-76036299D01*
X111613856Y-76029645D01*
X111617640Y-76023332D01*
X111622024Y-76017421D01*
X111626967Y-76011967D01*
X111632421Y-76007024D01*
X111638332Y-76002640D01*
X111644645Y-75998856D01*
X111651299Y-75995709D01*
X111658229Y-75993229D01*
X111665368Y-75991441D01*
X111672649Y-75990361D01*
X111680000Y-75990000D01*
X113005000Y-75990000D01*
X113012351Y-75990361D01*
G37*
G36*
X110512351Y-77315361D02*
G01*
X110519632Y-77316441D01*
X110526771Y-77318229D01*
X110533701Y-77320709D01*
X110540355Y-77323856D01*
X110546668Y-77327640D01*
X110552579Y-77332024D01*
X110558033Y-77336967D01*
X110562976Y-77342421D01*
X110567360Y-77348332D01*
X110571144Y-77354645D01*
X110574291Y-77361299D01*
X110576771Y-77368229D01*
X110578559Y-77375368D01*
X110579639Y-77382649D01*
X110580000Y-77390000D01*
X110580000Y-78715000D01*
X110579639Y-78722351D01*
X110578559Y-78729632D01*
X110576771Y-78736771D01*
X110574291Y-78743701D01*
X110571144Y-78750355D01*
X110567360Y-78756668D01*
X110562976Y-78762579D01*
X110558033Y-78768033D01*
X110552579Y-78772976D01*
X110546668Y-78777360D01*
X110540355Y-78781144D01*
X110533701Y-78784291D01*
X110526771Y-78786771D01*
X110519632Y-78788559D01*
X110512351Y-78789639D01*
X110505000Y-78790000D01*
X110355000Y-78790000D01*
X110347649Y-78789639D01*
X110340368Y-78788559D01*
X110333229Y-78786771D01*
X110326299Y-78784291D01*
X110319645Y-78781144D01*
X110313332Y-78777360D01*
X110307421Y-78772976D01*
X110301967Y-78768033D01*
X110297024Y-78762579D01*
X110292640Y-78756668D01*
X110288856Y-78750355D01*
X110285709Y-78743701D01*
X110283229Y-78736771D01*
X110281441Y-78729632D01*
X110280361Y-78722351D01*
X110280000Y-78715000D01*
X110280000Y-77390000D01*
X110280361Y-77382649D01*
X110281441Y-77375368D01*
X110283229Y-77368229D01*
X110285709Y-77361299D01*
X110288856Y-77354645D01*
X110292640Y-77348332D01*
X110297024Y-77342421D01*
X110301967Y-77336967D01*
X110307421Y-77332024D01*
X110313332Y-77327640D01*
X110319645Y-77323856D01*
X110326299Y-77320709D01*
X110333229Y-77318229D01*
X110340368Y-77316441D01*
X110347649Y-77315361D01*
X110355000Y-77315000D01*
X110505000Y-77315000D01*
X110512351Y-77315361D01*
G37*
G36*
X110012351Y-77315361D02*
G01*
X110019632Y-77316441D01*
X110026771Y-77318229D01*
X110033701Y-77320709D01*
X110040355Y-77323856D01*
X110046668Y-77327640D01*
X110052579Y-77332024D01*
X110058033Y-77336967D01*
X110062976Y-77342421D01*
X110067360Y-77348332D01*
X110071144Y-77354645D01*
X110074291Y-77361299D01*
X110076771Y-77368229D01*
X110078559Y-77375368D01*
X110079639Y-77382649D01*
X110080000Y-77390000D01*
X110080000Y-78715000D01*
X110079639Y-78722351D01*
X110078559Y-78729632D01*
X110076771Y-78736771D01*
X110074291Y-78743701D01*
X110071144Y-78750355D01*
X110067360Y-78756668D01*
X110062976Y-78762579D01*
X110058033Y-78768033D01*
X110052579Y-78772976D01*
X110046668Y-78777360D01*
X110040355Y-78781144D01*
X110033701Y-78784291D01*
X110026771Y-78786771D01*
X110019632Y-78788559D01*
X110012351Y-78789639D01*
X110005000Y-78790000D01*
X109855000Y-78790000D01*
X109847649Y-78789639D01*
X109840368Y-78788559D01*
X109833229Y-78786771D01*
X109826299Y-78784291D01*
X109819645Y-78781144D01*
X109813332Y-78777360D01*
X109807421Y-78772976D01*
X109801967Y-78768033D01*
X109797024Y-78762579D01*
X109792640Y-78756668D01*
X109788856Y-78750355D01*
X109785709Y-78743701D01*
X109783229Y-78736771D01*
X109781441Y-78729632D01*
X109780361Y-78722351D01*
X109780000Y-78715000D01*
X109780000Y-77390000D01*
X109780361Y-77382649D01*
X109781441Y-77375368D01*
X109783229Y-77368229D01*
X109785709Y-77361299D01*
X109788856Y-77354645D01*
X109792640Y-77348332D01*
X109797024Y-77342421D01*
X109801967Y-77336967D01*
X109807421Y-77332024D01*
X109813332Y-77327640D01*
X109819645Y-77323856D01*
X109826299Y-77320709D01*
X109833229Y-77318229D01*
X109840368Y-77316441D01*
X109847649Y-77315361D01*
X109855000Y-77315000D01*
X110005000Y-77315000D01*
X110012351Y-77315361D01*
G37*
G36*
X109512351Y-77315361D02*
G01*
X109519632Y-77316441D01*
X109526771Y-77318229D01*
X109533701Y-77320709D01*
X109540355Y-77323856D01*
X109546668Y-77327640D01*
X109552579Y-77332024D01*
X109558033Y-77336967D01*
X109562976Y-77342421D01*
X109567360Y-77348332D01*
X109571144Y-77354645D01*
X109574291Y-77361299D01*
X109576771Y-77368229D01*
X109578559Y-77375368D01*
X109579639Y-77382649D01*
X109580000Y-77390000D01*
X109580000Y-78715000D01*
X109579639Y-78722351D01*
X109578559Y-78729632D01*
X109576771Y-78736771D01*
X109574291Y-78743701D01*
X109571144Y-78750355D01*
X109567360Y-78756668D01*
X109562976Y-78762579D01*
X109558033Y-78768033D01*
X109552579Y-78772976D01*
X109546668Y-78777360D01*
X109540355Y-78781144D01*
X109533701Y-78784291D01*
X109526771Y-78786771D01*
X109519632Y-78788559D01*
X109512351Y-78789639D01*
X109505000Y-78790000D01*
X109355000Y-78790000D01*
X109347649Y-78789639D01*
X109340368Y-78788559D01*
X109333229Y-78786771D01*
X109326299Y-78784291D01*
X109319645Y-78781144D01*
X109313332Y-78777360D01*
X109307421Y-78772976D01*
X109301967Y-78768033D01*
X109297024Y-78762579D01*
X109292640Y-78756668D01*
X109288856Y-78750355D01*
X109285709Y-78743701D01*
X109283229Y-78736771D01*
X109281441Y-78729632D01*
X109280361Y-78722351D01*
X109280000Y-78715000D01*
X109280000Y-77390000D01*
X109280361Y-77382649D01*
X109281441Y-77375368D01*
X109283229Y-77368229D01*
X109285709Y-77361299D01*
X109288856Y-77354645D01*
X109292640Y-77348332D01*
X109297024Y-77342421D01*
X109301967Y-77336967D01*
X109307421Y-77332024D01*
X109313332Y-77327640D01*
X109319645Y-77323856D01*
X109326299Y-77320709D01*
X109333229Y-77318229D01*
X109340368Y-77316441D01*
X109347649Y-77315361D01*
X109355000Y-77315000D01*
X109505000Y-77315000D01*
X109512351Y-77315361D01*
G37*
G36*
X109012351Y-77315361D02*
G01*
X109019632Y-77316441D01*
X109026771Y-77318229D01*
X109033701Y-77320709D01*
X109040355Y-77323856D01*
X109046668Y-77327640D01*
X109052579Y-77332024D01*
X109058033Y-77336967D01*
X109062976Y-77342421D01*
X109067360Y-77348332D01*
X109071144Y-77354645D01*
X109074291Y-77361299D01*
X109076771Y-77368229D01*
X109078559Y-77375368D01*
X109079639Y-77382649D01*
X109080000Y-77390000D01*
X109080000Y-78715000D01*
X109079639Y-78722351D01*
X109078559Y-78729632D01*
X109076771Y-78736771D01*
X109074291Y-78743701D01*
X109071144Y-78750355D01*
X109067360Y-78756668D01*
X109062976Y-78762579D01*
X109058033Y-78768033D01*
X109052579Y-78772976D01*
X109046668Y-78777360D01*
X109040355Y-78781144D01*
X109033701Y-78784291D01*
X109026771Y-78786771D01*
X109019632Y-78788559D01*
X109012351Y-78789639D01*
X109005000Y-78790000D01*
X108855000Y-78790000D01*
X108847649Y-78789639D01*
X108840368Y-78788559D01*
X108833229Y-78786771D01*
X108826299Y-78784291D01*
X108819645Y-78781144D01*
X108813332Y-78777360D01*
X108807421Y-78772976D01*
X108801967Y-78768033D01*
X108797024Y-78762579D01*
X108792640Y-78756668D01*
X108788856Y-78750355D01*
X108785709Y-78743701D01*
X108783229Y-78736771D01*
X108781441Y-78729632D01*
X108780361Y-78722351D01*
X108780000Y-78715000D01*
X108780000Y-77390000D01*
X108780361Y-77382649D01*
X108781441Y-77375368D01*
X108783229Y-77368229D01*
X108785709Y-77361299D01*
X108788856Y-77354645D01*
X108792640Y-77348332D01*
X108797024Y-77342421D01*
X108801967Y-77336967D01*
X108807421Y-77332024D01*
X108813332Y-77327640D01*
X108819645Y-77323856D01*
X108826299Y-77320709D01*
X108833229Y-77318229D01*
X108840368Y-77316441D01*
X108847649Y-77315361D01*
X108855000Y-77315000D01*
X109005000Y-77315000D01*
X109012351Y-77315361D01*
G37*
G36*
X108512351Y-77315361D02*
G01*
X108519632Y-77316441D01*
X108526771Y-77318229D01*
X108533701Y-77320709D01*
X108540355Y-77323856D01*
X108546668Y-77327640D01*
X108552579Y-77332024D01*
X108558033Y-77336967D01*
X108562976Y-77342421D01*
X108567360Y-77348332D01*
X108571144Y-77354645D01*
X108574291Y-77361299D01*
X108576771Y-77368229D01*
X108578559Y-77375368D01*
X108579639Y-77382649D01*
X108580000Y-77390000D01*
X108580000Y-78715000D01*
X108579639Y-78722351D01*
X108578559Y-78729632D01*
X108576771Y-78736771D01*
X108574291Y-78743701D01*
X108571144Y-78750355D01*
X108567360Y-78756668D01*
X108562976Y-78762579D01*
X108558033Y-78768033D01*
X108552579Y-78772976D01*
X108546668Y-78777360D01*
X108540355Y-78781144D01*
X108533701Y-78784291D01*
X108526771Y-78786771D01*
X108519632Y-78788559D01*
X108512351Y-78789639D01*
X108505000Y-78790000D01*
X108355000Y-78790000D01*
X108347649Y-78789639D01*
X108340368Y-78788559D01*
X108333229Y-78786771D01*
X108326299Y-78784291D01*
X108319645Y-78781144D01*
X108313332Y-78777360D01*
X108307421Y-78772976D01*
X108301967Y-78768033D01*
X108297024Y-78762579D01*
X108292640Y-78756668D01*
X108288856Y-78750355D01*
X108285709Y-78743701D01*
X108283229Y-78736771D01*
X108281441Y-78729632D01*
X108280361Y-78722351D01*
X108280000Y-78715000D01*
X108280000Y-77390000D01*
X108280361Y-77382649D01*
X108281441Y-77375368D01*
X108283229Y-77368229D01*
X108285709Y-77361299D01*
X108288856Y-77354645D01*
X108292640Y-77348332D01*
X108297024Y-77342421D01*
X108301967Y-77336967D01*
X108307421Y-77332024D01*
X108313332Y-77327640D01*
X108319645Y-77323856D01*
X108326299Y-77320709D01*
X108333229Y-77318229D01*
X108340368Y-77316441D01*
X108347649Y-77315361D01*
X108355000Y-77315000D01*
X108505000Y-77315000D01*
X108512351Y-77315361D01*
G37*
G36*
X108012351Y-77315361D02*
G01*
X108019632Y-77316441D01*
X108026771Y-77318229D01*
X108033701Y-77320709D01*
X108040355Y-77323856D01*
X108046668Y-77327640D01*
X108052579Y-77332024D01*
X108058033Y-77336967D01*
X108062976Y-77342421D01*
X108067360Y-77348332D01*
X108071144Y-77354645D01*
X108074291Y-77361299D01*
X108076771Y-77368229D01*
X108078559Y-77375368D01*
X108079639Y-77382649D01*
X108080000Y-77390000D01*
X108080000Y-78715000D01*
X108079639Y-78722351D01*
X108078559Y-78729632D01*
X108076771Y-78736771D01*
X108074291Y-78743701D01*
X108071144Y-78750355D01*
X108067360Y-78756668D01*
X108062976Y-78762579D01*
X108058033Y-78768033D01*
X108052579Y-78772976D01*
X108046668Y-78777360D01*
X108040355Y-78781144D01*
X108033701Y-78784291D01*
X108026771Y-78786771D01*
X108019632Y-78788559D01*
X108012351Y-78789639D01*
X108005000Y-78790000D01*
X107855000Y-78790000D01*
X107847649Y-78789639D01*
X107840368Y-78788559D01*
X107833229Y-78786771D01*
X107826299Y-78784291D01*
X107819645Y-78781144D01*
X107813332Y-78777360D01*
X107807421Y-78772976D01*
X107801967Y-78768033D01*
X107797024Y-78762579D01*
X107792640Y-78756668D01*
X107788856Y-78750355D01*
X107785709Y-78743701D01*
X107783229Y-78736771D01*
X107781441Y-78729632D01*
X107780361Y-78722351D01*
X107780000Y-78715000D01*
X107780000Y-77390000D01*
X107780361Y-77382649D01*
X107781441Y-77375368D01*
X107783229Y-77368229D01*
X107785709Y-77361299D01*
X107788856Y-77354645D01*
X107792640Y-77348332D01*
X107797024Y-77342421D01*
X107801967Y-77336967D01*
X107807421Y-77332024D01*
X107813332Y-77327640D01*
X107819645Y-77323856D01*
X107826299Y-77320709D01*
X107833229Y-77318229D01*
X107840368Y-77316441D01*
X107847649Y-77315361D01*
X107855000Y-77315000D01*
X108005000Y-77315000D01*
X108012351Y-77315361D01*
G37*
G36*
X107512351Y-77315361D02*
G01*
X107519632Y-77316441D01*
X107526771Y-77318229D01*
X107533701Y-77320709D01*
X107540355Y-77323856D01*
X107546668Y-77327640D01*
X107552579Y-77332024D01*
X107558033Y-77336967D01*
X107562976Y-77342421D01*
X107567360Y-77348332D01*
X107571144Y-77354645D01*
X107574291Y-77361299D01*
X107576771Y-77368229D01*
X107578559Y-77375368D01*
X107579639Y-77382649D01*
X107580000Y-77390000D01*
X107580000Y-78715000D01*
X107579639Y-78722351D01*
X107578559Y-78729632D01*
X107576771Y-78736771D01*
X107574291Y-78743701D01*
X107571144Y-78750355D01*
X107567360Y-78756668D01*
X107562976Y-78762579D01*
X107558033Y-78768033D01*
X107552579Y-78772976D01*
X107546668Y-78777360D01*
X107540355Y-78781144D01*
X107533701Y-78784291D01*
X107526771Y-78786771D01*
X107519632Y-78788559D01*
X107512351Y-78789639D01*
X107505000Y-78790000D01*
X107355000Y-78790000D01*
X107347649Y-78789639D01*
X107340368Y-78788559D01*
X107333229Y-78786771D01*
X107326299Y-78784291D01*
X107319645Y-78781144D01*
X107313332Y-78777360D01*
X107307421Y-78772976D01*
X107301967Y-78768033D01*
X107297024Y-78762579D01*
X107292640Y-78756668D01*
X107288856Y-78750355D01*
X107285709Y-78743701D01*
X107283229Y-78736771D01*
X107281441Y-78729632D01*
X107280361Y-78722351D01*
X107280000Y-78715000D01*
X107280000Y-77390000D01*
X107280361Y-77382649D01*
X107281441Y-77375368D01*
X107283229Y-77368229D01*
X107285709Y-77361299D01*
X107288856Y-77354645D01*
X107292640Y-77348332D01*
X107297024Y-77342421D01*
X107301967Y-77336967D01*
X107307421Y-77332024D01*
X107313332Y-77327640D01*
X107319645Y-77323856D01*
X107326299Y-77320709D01*
X107333229Y-77318229D01*
X107340368Y-77316441D01*
X107347649Y-77315361D01*
X107355000Y-77315000D01*
X107505000Y-77315000D01*
X107512351Y-77315361D01*
G37*
G36*
X107012351Y-77315361D02*
G01*
X107019632Y-77316441D01*
X107026771Y-77318229D01*
X107033701Y-77320709D01*
X107040355Y-77323856D01*
X107046668Y-77327640D01*
X107052579Y-77332024D01*
X107058033Y-77336967D01*
X107062976Y-77342421D01*
X107067360Y-77348332D01*
X107071144Y-77354645D01*
X107074291Y-77361299D01*
X107076771Y-77368229D01*
X107078559Y-77375368D01*
X107079639Y-77382649D01*
X107080000Y-77390000D01*
X107080000Y-78715000D01*
X107079639Y-78722351D01*
X107078559Y-78729632D01*
X107076771Y-78736771D01*
X107074291Y-78743701D01*
X107071144Y-78750355D01*
X107067360Y-78756668D01*
X107062976Y-78762579D01*
X107058033Y-78768033D01*
X107052579Y-78772976D01*
X107046668Y-78777360D01*
X107040355Y-78781144D01*
X107033701Y-78784291D01*
X107026771Y-78786771D01*
X107019632Y-78788559D01*
X107012351Y-78789639D01*
X107005000Y-78790000D01*
X106855000Y-78790000D01*
X106847649Y-78789639D01*
X106840368Y-78788559D01*
X106833229Y-78786771D01*
X106826299Y-78784291D01*
X106819645Y-78781144D01*
X106813332Y-78777360D01*
X106807421Y-78772976D01*
X106801967Y-78768033D01*
X106797024Y-78762579D01*
X106792640Y-78756668D01*
X106788856Y-78750355D01*
X106785709Y-78743701D01*
X106783229Y-78736771D01*
X106781441Y-78729632D01*
X106780361Y-78722351D01*
X106780000Y-78715000D01*
X106780000Y-77390000D01*
X106780361Y-77382649D01*
X106781441Y-77375368D01*
X106783229Y-77368229D01*
X106785709Y-77361299D01*
X106788856Y-77354645D01*
X106792640Y-77348332D01*
X106797024Y-77342421D01*
X106801967Y-77336967D01*
X106807421Y-77332024D01*
X106813332Y-77327640D01*
X106819645Y-77323856D01*
X106826299Y-77320709D01*
X106833229Y-77318229D01*
X106840368Y-77316441D01*
X106847649Y-77315361D01*
X106855000Y-77315000D01*
X107005000Y-77315000D01*
X107012351Y-77315361D01*
G37*
G36*
X106512351Y-77315361D02*
G01*
X106519632Y-77316441D01*
X106526771Y-77318229D01*
X106533701Y-77320709D01*
X106540355Y-77323856D01*
X106546668Y-77327640D01*
X106552579Y-77332024D01*
X106558033Y-77336967D01*
X106562976Y-77342421D01*
X106567360Y-77348332D01*
X106571144Y-77354645D01*
X106574291Y-77361299D01*
X106576771Y-77368229D01*
X106578559Y-77375368D01*
X106579639Y-77382649D01*
X106580000Y-77390000D01*
X106580000Y-78715000D01*
X106579639Y-78722351D01*
X106578559Y-78729632D01*
X106576771Y-78736771D01*
X106574291Y-78743701D01*
X106571144Y-78750355D01*
X106567360Y-78756668D01*
X106562976Y-78762579D01*
X106558033Y-78768033D01*
X106552579Y-78772976D01*
X106546668Y-78777360D01*
X106540355Y-78781144D01*
X106533701Y-78784291D01*
X106526771Y-78786771D01*
X106519632Y-78788559D01*
X106512351Y-78789639D01*
X106505000Y-78790000D01*
X106355000Y-78790000D01*
X106347649Y-78789639D01*
X106340368Y-78788559D01*
X106333229Y-78786771D01*
X106326299Y-78784291D01*
X106319645Y-78781144D01*
X106313332Y-78777360D01*
X106307421Y-78772976D01*
X106301967Y-78768033D01*
X106297024Y-78762579D01*
X106292640Y-78756668D01*
X106288856Y-78750355D01*
X106285709Y-78743701D01*
X106283229Y-78736771D01*
X106281441Y-78729632D01*
X106280361Y-78722351D01*
X106280000Y-78715000D01*
X106280000Y-77390000D01*
X106280361Y-77382649D01*
X106281441Y-77375368D01*
X106283229Y-77368229D01*
X106285709Y-77361299D01*
X106288856Y-77354645D01*
X106292640Y-77348332D01*
X106297024Y-77342421D01*
X106301967Y-77336967D01*
X106307421Y-77332024D01*
X106313332Y-77327640D01*
X106319645Y-77323856D01*
X106326299Y-77320709D01*
X106333229Y-77318229D01*
X106340368Y-77316441D01*
X106347649Y-77315361D01*
X106355000Y-77315000D01*
X106505000Y-77315000D01*
X106512351Y-77315361D01*
G37*
G36*
X106012351Y-77315361D02*
G01*
X106019632Y-77316441D01*
X106026771Y-77318229D01*
X106033701Y-77320709D01*
X106040355Y-77323856D01*
X106046668Y-77327640D01*
X106052579Y-77332024D01*
X106058033Y-77336967D01*
X106062976Y-77342421D01*
X106067360Y-77348332D01*
X106071144Y-77354645D01*
X106074291Y-77361299D01*
X106076771Y-77368229D01*
X106078559Y-77375368D01*
X106079639Y-77382649D01*
X106080000Y-77390000D01*
X106080000Y-78715000D01*
X106079639Y-78722351D01*
X106078559Y-78729632D01*
X106076771Y-78736771D01*
X106074291Y-78743701D01*
X106071144Y-78750355D01*
X106067360Y-78756668D01*
X106062976Y-78762579D01*
X106058033Y-78768033D01*
X106052579Y-78772976D01*
X106046668Y-78777360D01*
X106040355Y-78781144D01*
X106033701Y-78784291D01*
X106026771Y-78786771D01*
X106019632Y-78788559D01*
X106012351Y-78789639D01*
X106005000Y-78790000D01*
X105855000Y-78790000D01*
X105847649Y-78789639D01*
X105840368Y-78788559D01*
X105833229Y-78786771D01*
X105826299Y-78784291D01*
X105819645Y-78781144D01*
X105813332Y-78777360D01*
X105807421Y-78772976D01*
X105801967Y-78768033D01*
X105797024Y-78762579D01*
X105792640Y-78756668D01*
X105788856Y-78750355D01*
X105785709Y-78743701D01*
X105783229Y-78736771D01*
X105781441Y-78729632D01*
X105780361Y-78722351D01*
X105780000Y-78715000D01*
X105780000Y-77390000D01*
X105780361Y-77382649D01*
X105781441Y-77375368D01*
X105783229Y-77368229D01*
X105785709Y-77361299D01*
X105788856Y-77354645D01*
X105792640Y-77348332D01*
X105797024Y-77342421D01*
X105801967Y-77336967D01*
X105807421Y-77332024D01*
X105813332Y-77327640D01*
X105819645Y-77323856D01*
X105826299Y-77320709D01*
X105833229Y-77318229D01*
X105840368Y-77316441D01*
X105847649Y-77315361D01*
X105855000Y-77315000D01*
X106005000Y-77315000D01*
X106012351Y-77315361D01*
G37*
G36*
X105512351Y-77315361D02*
G01*
X105519632Y-77316441D01*
X105526771Y-77318229D01*
X105533701Y-77320709D01*
X105540355Y-77323856D01*
X105546668Y-77327640D01*
X105552579Y-77332024D01*
X105558033Y-77336967D01*
X105562976Y-77342421D01*
X105567360Y-77348332D01*
X105571144Y-77354645D01*
X105574291Y-77361299D01*
X105576771Y-77368229D01*
X105578559Y-77375368D01*
X105579639Y-77382649D01*
X105580000Y-77390000D01*
X105580000Y-78715000D01*
X105579639Y-78722351D01*
X105578559Y-78729632D01*
X105576771Y-78736771D01*
X105574291Y-78743701D01*
X105571144Y-78750355D01*
X105567360Y-78756668D01*
X105562976Y-78762579D01*
X105558033Y-78768033D01*
X105552579Y-78772976D01*
X105546668Y-78777360D01*
X105540355Y-78781144D01*
X105533701Y-78784291D01*
X105526771Y-78786771D01*
X105519632Y-78788559D01*
X105512351Y-78789639D01*
X105505000Y-78790000D01*
X105355000Y-78790000D01*
X105347649Y-78789639D01*
X105340368Y-78788559D01*
X105333229Y-78786771D01*
X105326299Y-78784291D01*
X105319645Y-78781144D01*
X105313332Y-78777360D01*
X105307421Y-78772976D01*
X105301967Y-78768033D01*
X105297024Y-78762579D01*
X105292640Y-78756668D01*
X105288856Y-78750355D01*
X105285709Y-78743701D01*
X105283229Y-78736771D01*
X105281441Y-78729632D01*
X105280361Y-78722351D01*
X105280000Y-78715000D01*
X105280000Y-77390000D01*
X105280361Y-77382649D01*
X105281441Y-77375368D01*
X105283229Y-77368229D01*
X105285709Y-77361299D01*
X105288856Y-77354645D01*
X105292640Y-77348332D01*
X105297024Y-77342421D01*
X105301967Y-77336967D01*
X105307421Y-77332024D01*
X105313332Y-77327640D01*
X105319645Y-77323856D01*
X105326299Y-77320709D01*
X105333229Y-77318229D01*
X105340368Y-77316441D01*
X105347649Y-77315361D01*
X105355000Y-77315000D01*
X105505000Y-77315000D01*
X105512351Y-77315361D01*
G37*
G36*
X105012351Y-77315361D02*
G01*
X105019632Y-77316441D01*
X105026771Y-77318229D01*
X105033701Y-77320709D01*
X105040355Y-77323856D01*
X105046668Y-77327640D01*
X105052579Y-77332024D01*
X105058033Y-77336967D01*
X105062976Y-77342421D01*
X105067360Y-77348332D01*
X105071144Y-77354645D01*
X105074291Y-77361299D01*
X105076771Y-77368229D01*
X105078559Y-77375368D01*
X105079639Y-77382649D01*
X105080000Y-77390000D01*
X105080000Y-78715000D01*
X105079639Y-78722351D01*
X105078559Y-78729632D01*
X105076771Y-78736771D01*
X105074291Y-78743701D01*
X105071144Y-78750355D01*
X105067360Y-78756668D01*
X105062976Y-78762579D01*
X105058033Y-78768033D01*
X105052579Y-78772976D01*
X105046668Y-78777360D01*
X105040355Y-78781144D01*
X105033701Y-78784291D01*
X105026771Y-78786771D01*
X105019632Y-78788559D01*
X105012351Y-78789639D01*
X105005000Y-78790000D01*
X104855000Y-78790000D01*
X104847649Y-78789639D01*
X104840368Y-78788559D01*
X104833229Y-78786771D01*
X104826299Y-78784291D01*
X104819645Y-78781144D01*
X104813332Y-78777360D01*
X104807421Y-78772976D01*
X104801967Y-78768033D01*
X104797024Y-78762579D01*
X104792640Y-78756668D01*
X104788856Y-78750355D01*
X104785709Y-78743701D01*
X104783229Y-78736771D01*
X104781441Y-78729632D01*
X104780361Y-78722351D01*
X104780000Y-78715000D01*
X104780000Y-77390000D01*
X104780361Y-77382649D01*
X104781441Y-77375368D01*
X104783229Y-77368229D01*
X104785709Y-77361299D01*
X104788856Y-77354645D01*
X104792640Y-77348332D01*
X104797024Y-77342421D01*
X104801967Y-77336967D01*
X104807421Y-77332024D01*
X104813332Y-77327640D01*
X104819645Y-77323856D01*
X104826299Y-77320709D01*
X104833229Y-77318229D01*
X104840368Y-77316441D01*
X104847649Y-77315361D01*
X104855000Y-77315000D01*
X105005000Y-77315000D01*
X105012351Y-77315361D01*
G37*
G36*
X104512351Y-77315361D02*
G01*
X104519632Y-77316441D01*
X104526771Y-77318229D01*
X104533701Y-77320709D01*
X104540355Y-77323856D01*
X104546668Y-77327640D01*
X104552579Y-77332024D01*
X104558033Y-77336967D01*
X104562976Y-77342421D01*
X104567360Y-77348332D01*
X104571144Y-77354645D01*
X104574291Y-77361299D01*
X104576771Y-77368229D01*
X104578559Y-77375368D01*
X104579639Y-77382649D01*
X104580000Y-77390000D01*
X104580000Y-78715000D01*
X104579639Y-78722351D01*
X104578559Y-78729632D01*
X104576771Y-78736771D01*
X104574291Y-78743701D01*
X104571144Y-78750355D01*
X104567360Y-78756668D01*
X104562976Y-78762579D01*
X104558033Y-78768033D01*
X104552579Y-78772976D01*
X104546668Y-78777360D01*
X104540355Y-78781144D01*
X104533701Y-78784291D01*
X104526771Y-78786771D01*
X104519632Y-78788559D01*
X104512351Y-78789639D01*
X104505000Y-78790000D01*
X104355000Y-78790000D01*
X104347649Y-78789639D01*
X104340368Y-78788559D01*
X104333229Y-78786771D01*
X104326299Y-78784291D01*
X104319645Y-78781144D01*
X104313332Y-78777360D01*
X104307421Y-78772976D01*
X104301967Y-78768033D01*
X104297024Y-78762579D01*
X104292640Y-78756668D01*
X104288856Y-78750355D01*
X104285709Y-78743701D01*
X104283229Y-78736771D01*
X104281441Y-78729632D01*
X104280361Y-78722351D01*
X104280000Y-78715000D01*
X104280000Y-77390000D01*
X104280361Y-77382649D01*
X104281441Y-77375368D01*
X104283229Y-77368229D01*
X104285709Y-77361299D01*
X104288856Y-77354645D01*
X104292640Y-77348332D01*
X104297024Y-77342421D01*
X104301967Y-77336967D01*
X104307421Y-77332024D01*
X104313332Y-77327640D01*
X104319645Y-77323856D01*
X104326299Y-77320709D01*
X104333229Y-77318229D01*
X104340368Y-77316441D01*
X104347649Y-77315361D01*
X104355000Y-77315000D01*
X104505000Y-77315000D01*
X104512351Y-77315361D01*
G37*
G36*
X104012351Y-77315361D02*
G01*
X104019632Y-77316441D01*
X104026771Y-77318229D01*
X104033701Y-77320709D01*
X104040355Y-77323856D01*
X104046668Y-77327640D01*
X104052579Y-77332024D01*
X104058033Y-77336967D01*
X104062976Y-77342421D01*
X104067360Y-77348332D01*
X104071144Y-77354645D01*
X104074291Y-77361299D01*
X104076771Y-77368229D01*
X104078559Y-77375368D01*
X104079639Y-77382649D01*
X104080000Y-77390000D01*
X104080000Y-78715000D01*
X104079639Y-78722351D01*
X104078559Y-78729632D01*
X104076771Y-78736771D01*
X104074291Y-78743701D01*
X104071144Y-78750355D01*
X104067360Y-78756668D01*
X104062976Y-78762579D01*
X104058033Y-78768033D01*
X104052579Y-78772976D01*
X104046668Y-78777360D01*
X104040355Y-78781144D01*
X104033701Y-78784291D01*
X104026771Y-78786771D01*
X104019632Y-78788559D01*
X104012351Y-78789639D01*
X104005000Y-78790000D01*
X103855000Y-78790000D01*
X103847649Y-78789639D01*
X103840368Y-78788559D01*
X103833229Y-78786771D01*
X103826299Y-78784291D01*
X103819645Y-78781144D01*
X103813332Y-78777360D01*
X103807421Y-78772976D01*
X103801967Y-78768033D01*
X103797024Y-78762579D01*
X103792640Y-78756668D01*
X103788856Y-78750355D01*
X103785709Y-78743701D01*
X103783229Y-78736771D01*
X103781441Y-78729632D01*
X103780361Y-78722351D01*
X103780000Y-78715000D01*
X103780000Y-77390000D01*
X103780361Y-77382649D01*
X103781441Y-77375368D01*
X103783229Y-77368229D01*
X103785709Y-77361299D01*
X103788856Y-77354645D01*
X103792640Y-77348332D01*
X103797024Y-77342421D01*
X103801967Y-77336967D01*
X103807421Y-77332024D01*
X103813332Y-77327640D01*
X103819645Y-77323856D01*
X103826299Y-77320709D01*
X103833229Y-77318229D01*
X103840368Y-77316441D01*
X103847649Y-77315361D01*
X103855000Y-77315000D01*
X104005000Y-77315000D01*
X104012351Y-77315361D01*
G37*
G36*
X103512351Y-77315361D02*
G01*
X103519632Y-77316441D01*
X103526771Y-77318229D01*
X103533701Y-77320709D01*
X103540355Y-77323856D01*
X103546668Y-77327640D01*
X103552579Y-77332024D01*
X103558033Y-77336967D01*
X103562976Y-77342421D01*
X103567360Y-77348332D01*
X103571144Y-77354645D01*
X103574291Y-77361299D01*
X103576771Y-77368229D01*
X103578559Y-77375368D01*
X103579639Y-77382649D01*
X103580000Y-77390000D01*
X103580000Y-78715000D01*
X103579639Y-78722351D01*
X103578559Y-78729632D01*
X103576771Y-78736771D01*
X103574291Y-78743701D01*
X103571144Y-78750355D01*
X103567360Y-78756668D01*
X103562976Y-78762579D01*
X103558033Y-78768033D01*
X103552579Y-78772976D01*
X103546668Y-78777360D01*
X103540355Y-78781144D01*
X103533701Y-78784291D01*
X103526771Y-78786771D01*
X103519632Y-78788559D01*
X103512351Y-78789639D01*
X103505000Y-78790000D01*
X103355000Y-78790000D01*
X103347649Y-78789639D01*
X103340368Y-78788559D01*
X103333229Y-78786771D01*
X103326299Y-78784291D01*
X103319645Y-78781144D01*
X103313332Y-78777360D01*
X103307421Y-78772976D01*
X103301967Y-78768033D01*
X103297024Y-78762579D01*
X103292640Y-78756668D01*
X103288856Y-78750355D01*
X103285709Y-78743701D01*
X103283229Y-78736771D01*
X103281441Y-78729632D01*
X103280361Y-78722351D01*
X103280000Y-78715000D01*
X103280000Y-77390000D01*
X103280361Y-77382649D01*
X103281441Y-77375368D01*
X103283229Y-77368229D01*
X103285709Y-77361299D01*
X103288856Y-77354645D01*
X103292640Y-77348332D01*
X103297024Y-77342421D01*
X103301967Y-77336967D01*
X103307421Y-77332024D01*
X103313332Y-77327640D01*
X103319645Y-77323856D01*
X103326299Y-77320709D01*
X103333229Y-77318229D01*
X103340368Y-77316441D01*
X103347649Y-77315361D01*
X103355000Y-77315000D01*
X103505000Y-77315000D01*
X103512351Y-77315361D01*
G37*
G36*
X103012351Y-77315361D02*
G01*
X103019632Y-77316441D01*
X103026771Y-77318229D01*
X103033701Y-77320709D01*
X103040355Y-77323856D01*
X103046668Y-77327640D01*
X103052579Y-77332024D01*
X103058033Y-77336967D01*
X103062976Y-77342421D01*
X103067360Y-77348332D01*
X103071144Y-77354645D01*
X103074291Y-77361299D01*
X103076771Y-77368229D01*
X103078559Y-77375368D01*
X103079639Y-77382649D01*
X103080000Y-77390000D01*
X103080000Y-78715000D01*
X103079639Y-78722351D01*
X103078559Y-78729632D01*
X103076771Y-78736771D01*
X103074291Y-78743701D01*
X103071144Y-78750355D01*
X103067360Y-78756668D01*
X103062976Y-78762579D01*
X103058033Y-78768033D01*
X103052579Y-78772976D01*
X103046668Y-78777360D01*
X103040355Y-78781144D01*
X103033701Y-78784291D01*
X103026771Y-78786771D01*
X103019632Y-78788559D01*
X103012351Y-78789639D01*
X103005000Y-78790000D01*
X102855000Y-78790000D01*
X102847649Y-78789639D01*
X102840368Y-78788559D01*
X102833229Y-78786771D01*
X102826299Y-78784291D01*
X102819645Y-78781144D01*
X102813332Y-78777360D01*
X102807421Y-78772976D01*
X102801967Y-78768033D01*
X102797024Y-78762579D01*
X102792640Y-78756668D01*
X102788856Y-78750355D01*
X102785709Y-78743701D01*
X102783229Y-78736771D01*
X102781441Y-78729632D01*
X102780361Y-78722351D01*
X102780000Y-78715000D01*
X102780000Y-77390000D01*
X102780361Y-77382649D01*
X102781441Y-77375368D01*
X102783229Y-77368229D01*
X102785709Y-77361299D01*
X102788856Y-77354645D01*
X102792640Y-77348332D01*
X102797024Y-77342421D01*
X102801967Y-77336967D01*
X102807421Y-77332024D01*
X102813332Y-77327640D01*
X102819645Y-77323856D01*
X102826299Y-77320709D01*
X102833229Y-77318229D01*
X102840368Y-77316441D01*
X102847649Y-77315361D01*
X102855000Y-77315000D01*
X103005000Y-77315000D01*
X103012351Y-77315361D01*
G37*
G36*
X101687351Y-75990361D02*
G01*
X101694632Y-75991441D01*
X101701771Y-75993229D01*
X101708701Y-75995709D01*
X101715355Y-75998856D01*
X101721668Y-76002640D01*
X101727579Y-76007024D01*
X101733033Y-76011967D01*
X101737976Y-76017421D01*
X101742360Y-76023332D01*
X101746144Y-76029645D01*
X101749291Y-76036299D01*
X101751771Y-76043229D01*
X101753559Y-76050368D01*
X101754639Y-76057649D01*
X101755000Y-76065000D01*
X101755000Y-76215000D01*
X101754639Y-76222351D01*
X101753559Y-76229632D01*
X101751771Y-76236771D01*
X101749291Y-76243701D01*
X101746144Y-76250355D01*
X101742360Y-76256668D01*
X101737976Y-76262579D01*
X101733033Y-76268033D01*
X101727579Y-76272976D01*
X101721668Y-76277360D01*
X101715355Y-76281144D01*
X101708701Y-76284291D01*
X101701771Y-76286771D01*
X101694632Y-76288559D01*
X101687351Y-76289639D01*
X101680000Y-76290000D01*
X100355000Y-76290000D01*
X100347649Y-76289639D01*
X100340368Y-76288559D01*
X100333229Y-76286771D01*
X100326299Y-76284291D01*
X100319645Y-76281144D01*
X100313332Y-76277360D01*
X100307421Y-76272976D01*
X100301967Y-76268033D01*
X100297024Y-76262579D01*
X100292640Y-76256668D01*
X100288856Y-76250355D01*
X100285709Y-76243701D01*
X100283229Y-76236771D01*
X100281441Y-76229632D01*
X100280361Y-76222351D01*
X100280000Y-76215000D01*
X100280000Y-76065000D01*
X100280361Y-76057649D01*
X100281441Y-76050368D01*
X100283229Y-76043229D01*
X100285709Y-76036299D01*
X100288856Y-76029645D01*
X100292640Y-76023332D01*
X100297024Y-76017421D01*
X100301967Y-76011967D01*
X100307421Y-76007024D01*
X100313332Y-76002640D01*
X100319645Y-75998856D01*
X100326299Y-75995709D01*
X100333229Y-75993229D01*
X100340368Y-75991441D01*
X100347649Y-75990361D01*
X100355000Y-75990000D01*
X101680000Y-75990000D01*
X101687351Y-75990361D01*
G37*
G36*
X101687351Y-75490361D02*
G01*
X101694632Y-75491441D01*
X101701771Y-75493229D01*
X101708701Y-75495709D01*
X101715355Y-75498856D01*
X101721668Y-75502640D01*
X101727579Y-75507024D01*
X101733033Y-75511967D01*
X101737976Y-75517421D01*
X101742360Y-75523332D01*
X101746144Y-75529645D01*
X101749291Y-75536299D01*
X101751771Y-75543229D01*
X101753559Y-75550368D01*
X101754639Y-75557649D01*
X101755000Y-75565000D01*
X101755000Y-75715000D01*
X101754639Y-75722351D01*
X101753559Y-75729632D01*
X101751771Y-75736771D01*
X101749291Y-75743701D01*
X101746144Y-75750355D01*
X101742360Y-75756668D01*
X101737976Y-75762579D01*
X101733033Y-75768033D01*
X101727579Y-75772976D01*
X101721668Y-75777360D01*
X101715355Y-75781144D01*
X101708701Y-75784291D01*
X101701771Y-75786771D01*
X101694632Y-75788559D01*
X101687351Y-75789639D01*
X101680000Y-75790000D01*
X100355000Y-75790000D01*
X100347649Y-75789639D01*
X100340368Y-75788559D01*
X100333229Y-75786771D01*
X100326299Y-75784291D01*
X100319645Y-75781144D01*
X100313332Y-75777360D01*
X100307421Y-75772976D01*
X100301967Y-75768033D01*
X100297024Y-75762579D01*
X100292640Y-75756668D01*
X100288856Y-75750355D01*
X100285709Y-75743701D01*
X100283229Y-75736771D01*
X100281441Y-75729632D01*
X100280361Y-75722351D01*
X100280000Y-75715000D01*
X100280000Y-75565000D01*
X100280361Y-75557649D01*
X100281441Y-75550368D01*
X100283229Y-75543229D01*
X100285709Y-75536299D01*
X100288856Y-75529645D01*
X100292640Y-75523332D01*
X100297024Y-75517421D01*
X100301967Y-75511967D01*
X100307421Y-75507024D01*
X100313332Y-75502640D01*
X100319645Y-75498856D01*
X100326299Y-75495709D01*
X100333229Y-75493229D01*
X100340368Y-75491441D01*
X100347649Y-75490361D01*
X100355000Y-75490000D01*
X101680000Y-75490000D01*
X101687351Y-75490361D01*
G37*
G36*
X101687351Y-74990361D02*
G01*
X101694632Y-74991441D01*
X101701771Y-74993229D01*
X101708701Y-74995709D01*
X101715355Y-74998856D01*
X101721668Y-75002640D01*
X101727579Y-75007024D01*
X101733033Y-75011967D01*
X101737976Y-75017421D01*
X101742360Y-75023332D01*
X101746144Y-75029645D01*
X101749291Y-75036299D01*
X101751771Y-75043229D01*
X101753559Y-75050368D01*
X101754639Y-75057649D01*
X101755000Y-75065000D01*
X101755000Y-75215000D01*
X101754639Y-75222351D01*
X101753559Y-75229632D01*
X101751771Y-75236771D01*
X101749291Y-75243701D01*
X101746144Y-75250355D01*
X101742360Y-75256668D01*
X101737976Y-75262579D01*
X101733033Y-75268033D01*
X101727579Y-75272976D01*
X101721668Y-75277360D01*
X101715355Y-75281144D01*
X101708701Y-75284291D01*
X101701771Y-75286771D01*
X101694632Y-75288559D01*
X101687351Y-75289639D01*
X101680000Y-75290000D01*
X100355000Y-75290000D01*
X100347649Y-75289639D01*
X100340368Y-75288559D01*
X100333229Y-75286771D01*
X100326299Y-75284291D01*
X100319645Y-75281144D01*
X100313332Y-75277360D01*
X100307421Y-75272976D01*
X100301967Y-75268033D01*
X100297024Y-75262579D01*
X100292640Y-75256668D01*
X100288856Y-75250355D01*
X100285709Y-75243701D01*
X100283229Y-75236771D01*
X100281441Y-75229632D01*
X100280361Y-75222351D01*
X100280000Y-75215000D01*
X100280000Y-75065000D01*
X100280361Y-75057649D01*
X100281441Y-75050368D01*
X100283229Y-75043229D01*
X100285709Y-75036299D01*
X100288856Y-75029645D01*
X100292640Y-75023332D01*
X100297024Y-75017421D01*
X100301967Y-75011967D01*
X100307421Y-75007024D01*
X100313332Y-75002640D01*
X100319645Y-74998856D01*
X100326299Y-74995709D01*
X100333229Y-74993229D01*
X100340368Y-74991441D01*
X100347649Y-74990361D01*
X100355000Y-74990000D01*
X101680000Y-74990000D01*
X101687351Y-74990361D01*
G37*
G36*
X101687351Y-74490361D02*
G01*
X101694632Y-74491441D01*
X101701771Y-74493229D01*
X101708701Y-74495709D01*
X101715355Y-74498856D01*
X101721668Y-74502640D01*
X101727579Y-74507024D01*
X101733033Y-74511967D01*
X101737976Y-74517421D01*
X101742360Y-74523332D01*
X101746144Y-74529645D01*
X101749291Y-74536299D01*
X101751771Y-74543229D01*
X101753559Y-74550368D01*
X101754639Y-74557649D01*
X101755000Y-74565000D01*
X101755000Y-74715000D01*
X101754639Y-74722351D01*
X101753559Y-74729632D01*
X101751771Y-74736771D01*
X101749291Y-74743701D01*
X101746144Y-74750355D01*
X101742360Y-74756668D01*
X101737976Y-74762579D01*
X101733033Y-74768033D01*
X101727579Y-74772976D01*
X101721668Y-74777360D01*
X101715355Y-74781144D01*
X101708701Y-74784291D01*
X101701771Y-74786771D01*
X101694632Y-74788559D01*
X101687351Y-74789639D01*
X101680000Y-74790000D01*
X100355000Y-74790000D01*
X100347649Y-74789639D01*
X100340368Y-74788559D01*
X100333229Y-74786771D01*
X100326299Y-74784291D01*
X100319645Y-74781144D01*
X100313332Y-74777360D01*
X100307421Y-74772976D01*
X100301967Y-74768033D01*
X100297024Y-74762579D01*
X100292640Y-74756668D01*
X100288856Y-74750355D01*
X100285709Y-74743701D01*
X100283229Y-74736771D01*
X100281441Y-74729632D01*
X100280361Y-74722351D01*
X100280000Y-74715000D01*
X100280000Y-74565000D01*
X100280361Y-74557649D01*
X100281441Y-74550368D01*
X100283229Y-74543229D01*
X100285709Y-74536299D01*
X100288856Y-74529645D01*
X100292640Y-74523332D01*
X100297024Y-74517421D01*
X100301967Y-74511967D01*
X100307421Y-74507024D01*
X100313332Y-74502640D01*
X100319645Y-74498856D01*
X100326299Y-74495709D01*
X100333229Y-74493229D01*
X100340368Y-74491441D01*
X100347649Y-74490361D01*
X100355000Y-74490000D01*
X101680000Y-74490000D01*
X101687351Y-74490361D01*
G37*
G36*
X101687351Y-73990361D02*
G01*
X101694632Y-73991441D01*
X101701771Y-73993229D01*
X101708701Y-73995709D01*
X101715355Y-73998856D01*
X101721668Y-74002640D01*
X101727579Y-74007024D01*
X101733033Y-74011967D01*
X101737976Y-74017421D01*
X101742360Y-74023332D01*
X101746144Y-74029645D01*
X101749291Y-74036299D01*
X101751771Y-74043229D01*
X101753559Y-74050368D01*
X101754639Y-74057649D01*
X101755000Y-74065000D01*
X101755000Y-74215000D01*
X101754639Y-74222351D01*
X101753559Y-74229632D01*
X101751771Y-74236771D01*
X101749291Y-74243701D01*
X101746144Y-74250355D01*
X101742360Y-74256668D01*
X101737976Y-74262579D01*
X101733033Y-74268033D01*
X101727579Y-74272976D01*
X101721668Y-74277360D01*
X101715355Y-74281144D01*
X101708701Y-74284291D01*
X101701771Y-74286771D01*
X101694632Y-74288559D01*
X101687351Y-74289639D01*
X101680000Y-74290000D01*
X100355000Y-74290000D01*
X100347649Y-74289639D01*
X100340368Y-74288559D01*
X100333229Y-74286771D01*
X100326299Y-74284291D01*
X100319645Y-74281144D01*
X100313332Y-74277360D01*
X100307421Y-74272976D01*
X100301967Y-74268033D01*
X100297024Y-74262579D01*
X100292640Y-74256668D01*
X100288856Y-74250355D01*
X100285709Y-74243701D01*
X100283229Y-74236771D01*
X100281441Y-74229632D01*
X100280361Y-74222351D01*
X100280000Y-74215000D01*
X100280000Y-74065000D01*
X100280361Y-74057649D01*
X100281441Y-74050368D01*
X100283229Y-74043229D01*
X100285709Y-74036299D01*
X100288856Y-74029645D01*
X100292640Y-74023332D01*
X100297024Y-74017421D01*
X100301967Y-74011967D01*
X100307421Y-74007024D01*
X100313332Y-74002640D01*
X100319645Y-73998856D01*
X100326299Y-73995709D01*
X100333229Y-73993229D01*
X100340368Y-73991441D01*
X100347649Y-73990361D01*
X100355000Y-73990000D01*
X101680000Y-73990000D01*
X101687351Y-73990361D01*
G37*
G36*
X101687351Y-73490361D02*
G01*
X101694632Y-73491441D01*
X101701771Y-73493229D01*
X101708701Y-73495709D01*
X101715355Y-73498856D01*
X101721668Y-73502640D01*
X101727579Y-73507024D01*
X101733033Y-73511967D01*
X101737976Y-73517421D01*
X101742360Y-73523332D01*
X101746144Y-73529645D01*
X101749291Y-73536299D01*
X101751771Y-73543229D01*
X101753559Y-73550368D01*
X101754639Y-73557649D01*
X101755000Y-73565000D01*
X101755000Y-73715000D01*
X101754639Y-73722351D01*
X101753559Y-73729632D01*
X101751771Y-73736771D01*
X101749291Y-73743701D01*
X101746144Y-73750355D01*
X101742360Y-73756668D01*
X101737976Y-73762579D01*
X101733033Y-73768033D01*
X101727579Y-73772976D01*
X101721668Y-73777360D01*
X101715355Y-73781144D01*
X101708701Y-73784291D01*
X101701771Y-73786771D01*
X101694632Y-73788559D01*
X101687351Y-73789639D01*
X101680000Y-73790000D01*
X100355000Y-73790000D01*
X100347649Y-73789639D01*
X100340368Y-73788559D01*
X100333229Y-73786771D01*
X100326299Y-73784291D01*
X100319645Y-73781144D01*
X100313332Y-73777360D01*
X100307421Y-73772976D01*
X100301967Y-73768033D01*
X100297024Y-73762579D01*
X100292640Y-73756668D01*
X100288856Y-73750355D01*
X100285709Y-73743701D01*
X100283229Y-73736771D01*
X100281441Y-73729632D01*
X100280361Y-73722351D01*
X100280000Y-73715000D01*
X100280000Y-73565000D01*
X100280361Y-73557649D01*
X100281441Y-73550368D01*
X100283229Y-73543229D01*
X100285709Y-73536299D01*
X100288856Y-73529645D01*
X100292640Y-73523332D01*
X100297024Y-73517421D01*
X100301967Y-73511967D01*
X100307421Y-73507024D01*
X100313332Y-73502640D01*
X100319645Y-73498856D01*
X100326299Y-73495709D01*
X100333229Y-73493229D01*
X100340368Y-73491441D01*
X100347649Y-73490361D01*
X100355000Y-73490000D01*
X101680000Y-73490000D01*
X101687351Y-73490361D01*
G37*
G36*
X101687351Y-72990361D02*
G01*
X101694632Y-72991441D01*
X101701771Y-72993229D01*
X101708701Y-72995709D01*
X101715355Y-72998856D01*
X101721668Y-73002640D01*
X101727579Y-73007024D01*
X101733033Y-73011967D01*
X101737976Y-73017421D01*
X101742360Y-73023332D01*
X101746144Y-73029645D01*
X101749291Y-73036299D01*
X101751771Y-73043229D01*
X101753559Y-73050368D01*
X101754639Y-73057649D01*
X101755000Y-73065000D01*
X101755000Y-73215000D01*
X101754639Y-73222351D01*
X101753559Y-73229632D01*
X101751771Y-73236771D01*
X101749291Y-73243701D01*
X101746144Y-73250355D01*
X101742360Y-73256668D01*
X101737976Y-73262579D01*
X101733033Y-73268033D01*
X101727579Y-73272976D01*
X101721668Y-73277360D01*
X101715355Y-73281144D01*
X101708701Y-73284291D01*
X101701771Y-73286771D01*
X101694632Y-73288559D01*
X101687351Y-73289639D01*
X101680000Y-73290000D01*
X100355000Y-73290000D01*
X100347649Y-73289639D01*
X100340368Y-73288559D01*
X100333229Y-73286771D01*
X100326299Y-73284291D01*
X100319645Y-73281144D01*
X100313332Y-73277360D01*
X100307421Y-73272976D01*
X100301967Y-73268033D01*
X100297024Y-73262579D01*
X100292640Y-73256668D01*
X100288856Y-73250355D01*
X100285709Y-73243701D01*
X100283229Y-73236771D01*
X100281441Y-73229632D01*
X100280361Y-73222351D01*
X100280000Y-73215000D01*
X100280000Y-73065000D01*
X100280361Y-73057649D01*
X100281441Y-73050368D01*
X100283229Y-73043229D01*
X100285709Y-73036299D01*
X100288856Y-73029645D01*
X100292640Y-73023332D01*
X100297024Y-73017421D01*
X100301967Y-73011967D01*
X100307421Y-73007024D01*
X100313332Y-73002640D01*
X100319645Y-72998856D01*
X100326299Y-72995709D01*
X100333229Y-72993229D01*
X100340368Y-72991441D01*
X100347649Y-72990361D01*
X100355000Y-72990000D01*
X101680000Y-72990000D01*
X101687351Y-72990361D01*
G37*
G36*
X101687351Y-72490361D02*
G01*
X101694632Y-72491441D01*
X101701771Y-72493229D01*
X101708701Y-72495709D01*
X101715355Y-72498856D01*
X101721668Y-72502640D01*
X101727579Y-72507024D01*
X101733033Y-72511967D01*
X101737976Y-72517421D01*
X101742360Y-72523332D01*
X101746144Y-72529645D01*
X101749291Y-72536299D01*
X101751771Y-72543229D01*
X101753559Y-72550368D01*
X101754639Y-72557649D01*
X101755000Y-72565000D01*
X101755000Y-72715000D01*
X101754639Y-72722351D01*
X101753559Y-72729632D01*
X101751771Y-72736771D01*
X101749291Y-72743701D01*
X101746144Y-72750355D01*
X101742360Y-72756668D01*
X101737976Y-72762579D01*
X101733033Y-72768033D01*
X101727579Y-72772976D01*
X101721668Y-72777360D01*
X101715355Y-72781144D01*
X101708701Y-72784291D01*
X101701771Y-72786771D01*
X101694632Y-72788559D01*
X101687351Y-72789639D01*
X101680000Y-72790000D01*
X100355000Y-72790000D01*
X100347649Y-72789639D01*
X100340368Y-72788559D01*
X100333229Y-72786771D01*
X100326299Y-72784291D01*
X100319645Y-72781144D01*
X100313332Y-72777360D01*
X100307421Y-72772976D01*
X100301967Y-72768033D01*
X100297024Y-72762579D01*
X100292640Y-72756668D01*
X100288856Y-72750355D01*
X100285709Y-72743701D01*
X100283229Y-72736771D01*
X100281441Y-72729632D01*
X100280361Y-72722351D01*
X100280000Y-72715000D01*
X100280000Y-72565000D01*
X100280361Y-72557649D01*
X100281441Y-72550368D01*
X100283229Y-72543229D01*
X100285709Y-72536299D01*
X100288856Y-72529645D01*
X100292640Y-72523332D01*
X100297024Y-72517421D01*
X100301967Y-72511967D01*
X100307421Y-72507024D01*
X100313332Y-72502640D01*
X100319645Y-72498856D01*
X100326299Y-72495709D01*
X100333229Y-72493229D01*
X100340368Y-72491441D01*
X100347649Y-72490361D01*
X100355000Y-72490000D01*
X101680000Y-72490000D01*
X101687351Y-72490361D01*
G37*
G36*
X101687351Y-71990361D02*
G01*
X101694632Y-71991441D01*
X101701771Y-71993229D01*
X101708701Y-71995709D01*
X101715355Y-71998856D01*
X101721668Y-72002640D01*
X101727579Y-72007024D01*
X101733033Y-72011967D01*
X101737976Y-72017421D01*
X101742360Y-72023332D01*
X101746144Y-72029645D01*
X101749291Y-72036299D01*
X101751771Y-72043229D01*
X101753559Y-72050368D01*
X101754639Y-72057649D01*
X101755000Y-72065000D01*
X101755000Y-72215000D01*
X101754639Y-72222351D01*
X101753559Y-72229632D01*
X101751771Y-72236771D01*
X101749291Y-72243701D01*
X101746144Y-72250355D01*
X101742360Y-72256668D01*
X101737976Y-72262579D01*
X101733033Y-72268033D01*
X101727579Y-72272976D01*
X101721668Y-72277360D01*
X101715355Y-72281144D01*
X101708701Y-72284291D01*
X101701771Y-72286771D01*
X101694632Y-72288559D01*
X101687351Y-72289639D01*
X101680000Y-72290000D01*
X100355000Y-72290000D01*
X100347649Y-72289639D01*
X100340368Y-72288559D01*
X100333229Y-72286771D01*
X100326299Y-72284291D01*
X100319645Y-72281144D01*
X100313332Y-72277360D01*
X100307421Y-72272976D01*
X100301967Y-72268033D01*
X100297024Y-72262579D01*
X100292640Y-72256668D01*
X100288856Y-72250355D01*
X100285709Y-72243701D01*
X100283229Y-72236771D01*
X100281441Y-72229632D01*
X100280361Y-72222351D01*
X100280000Y-72215000D01*
X100280000Y-72065000D01*
X100280361Y-72057649D01*
X100281441Y-72050368D01*
X100283229Y-72043229D01*
X100285709Y-72036299D01*
X100288856Y-72029645D01*
X100292640Y-72023332D01*
X100297024Y-72017421D01*
X100301967Y-72011967D01*
X100307421Y-72007024D01*
X100313332Y-72002640D01*
X100319645Y-71998856D01*
X100326299Y-71995709D01*
X100333229Y-71993229D01*
X100340368Y-71991441D01*
X100347649Y-71990361D01*
X100355000Y-71990000D01*
X101680000Y-71990000D01*
X101687351Y-71990361D01*
G37*
G36*
X101687351Y-71490361D02*
G01*
X101694632Y-71491441D01*
X101701771Y-71493229D01*
X101708701Y-71495709D01*
X101715355Y-71498856D01*
X101721668Y-71502640D01*
X101727579Y-71507024D01*
X101733033Y-71511967D01*
X101737976Y-71517421D01*
X101742360Y-71523332D01*
X101746144Y-71529645D01*
X101749291Y-71536299D01*
X101751771Y-71543229D01*
X101753559Y-71550368D01*
X101754639Y-71557649D01*
X101755000Y-71565000D01*
X101755000Y-71715000D01*
X101754639Y-71722351D01*
X101753559Y-71729632D01*
X101751771Y-71736771D01*
X101749291Y-71743701D01*
X101746144Y-71750355D01*
X101742360Y-71756668D01*
X101737976Y-71762579D01*
X101733033Y-71768033D01*
X101727579Y-71772976D01*
X101721668Y-71777360D01*
X101715355Y-71781144D01*
X101708701Y-71784291D01*
X101701771Y-71786771D01*
X101694632Y-71788559D01*
X101687351Y-71789639D01*
X101680000Y-71790000D01*
X100355000Y-71790000D01*
X100347649Y-71789639D01*
X100340368Y-71788559D01*
X100333229Y-71786771D01*
X100326299Y-71784291D01*
X100319645Y-71781144D01*
X100313332Y-71777360D01*
X100307421Y-71772976D01*
X100301967Y-71768033D01*
X100297024Y-71762579D01*
X100292640Y-71756668D01*
X100288856Y-71750355D01*
X100285709Y-71743701D01*
X100283229Y-71736771D01*
X100281441Y-71729632D01*
X100280361Y-71722351D01*
X100280000Y-71715000D01*
X100280000Y-71565000D01*
X100280361Y-71557649D01*
X100281441Y-71550368D01*
X100283229Y-71543229D01*
X100285709Y-71536299D01*
X100288856Y-71529645D01*
X100292640Y-71523332D01*
X100297024Y-71517421D01*
X100301967Y-71511967D01*
X100307421Y-71507024D01*
X100313332Y-71502640D01*
X100319645Y-71498856D01*
X100326299Y-71495709D01*
X100333229Y-71493229D01*
X100340368Y-71491441D01*
X100347649Y-71490361D01*
X100355000Y-71490000D01*
X101680000Y-71490000D01*
X101687351Y-71490361D01*
G37*
G36*
X101687351Y-70990361D02*
G01*
X101694632Y-70991441D01*
X101701771Y-70993229D01*
X101708701Y-70995709D01*
X101715355Y-70998856D01*
X101721668Y-71002640D01*
X101727579Y-71007024D01*
X101733033Y-71011967D01*
X101737976Y-71017421D01*
X101742360Y-71023332D01*
X101746144Y-71029645D01*
X101749291Y-71036299D01*
X101751771Y-71043229D01*
X101753559Y-71050368D01*
X101754639Y-71057649D01*
X101755000Y-71065000D01*
X101755000Y-71215000D01*
X101754639Y-71222351D01*
X101753559Y-71229632D01*
X101751771Y-71236771D01*
X101749291Y-71243701D01*
X101746144Y-71250355D01*
X101742360Y-71256668D01*
X101737976Y-71262579D01*
X101733033Y-71268033D01*
X101727579Y-71272976D01*
X101721668Y-71277360D01*
X101715355Y-71281144D01*
X101708701Y-71284291D01*
X101701771Y-71286771D01*
X101694632Y-71288559D01*
X101687351Y-71289639D01*
X101680000Y-71290000D01*
X100355000Y-71290000D01*
X100347649Y-71289639D01*
X100340368Y-71288559D01*
X100333229Y-71286771D01*
X100326299Y-71284291D01*
X100319645Y-71281144D01*
X100313332Y-71277360D01*
X100307421Y-71272976D01*
X100301967Y-71268033D01*
X100297024Y-71262579D01*
X100292640Y-71256668D01*
X100288856Y-71250355D01*
X100285709Y-71243701D01*
X100283229Y-71236771D01*
X100281441Y-71229632D01*
X100280361Y-71222351D01*
X100280000Y-71215000D01*
X100280000Y-71065000D01*
X100280361Y-71057649D01*
X100281441Y-71050368D01*
X100283229Y-71043229D01*
X100285709Y-71036299D01*
X100288856Y-71029645D01*
X100292640Y-71023332D01*
X100297024Y-71017421D01*
X100301967Y-71011967D01*
X100307421Y-71007024D01*
X100313332Y-71002640D01*
X100319645Y-70998856D01*
X100326299Y-70995709D01*
X100333229Y-70993229D01*
X100340368Y-70991441D01*
X100347649Y-70990361D01*
X100355000Y-70990000D01*
X101680000Y-70990000D01*
X101687351Y-70990361D01*
G37*
G36*
X101687351Y-70490361D02*
G01*
X101694632Y-70491441D01*
X101701771Y-70493229D01*
X101708701Y-70495709D01*
X101715355Y-70498856D01*
X101721668Y-70502640D01*
X101727579Y-70507024D01*
X101733033Y-70511967D01*
X101737976Y-70517421D01*
X101742360Y-70523332D01*
X101746144Y-70529645D01*
X101749291Y-70536299D01*
X101751771Y-70543229D01*
X101753559Y-70550368D01*
X101754639Y-70557649D01*
X101755000Y-70565000D01*
X101755000Y-70715000D01*
X101754639Y-70722351D01*
X101753559Y-70729632D01*
X101751771Y-70736771D01*
X101749291Y-70743701D01*
X101746144Y-70750355D01*
X101742360Y-70756668D01*
X101737976Y-70762579D01*
X101733033Y-70768033D01*
X101727579Y-70772976D01*
X101721668Y-70777360D01*
X101715355Y-70781144D01*
X101708701Y-70784291D01*
X101701771Y-70786771D01*
X101694632Y-70788559D01*
X101687351Y-70789639D01*
X101680000Y-70790000D01*
X100355000Y-70790000D01*
X100347649Y-70789639D01*
X100340368Y-70788559D01*
X100333229Y-70786771D01*
X100326299Y-70784291D01*
X100319645Y-70781144D01*
X100313332Y-70777360D01*
X100307421Y-70772976D01*
X100301967Y-70768033D01*
X100297024Y-70762579D01*
X100292640Y-70756668D01*
X100288856Y-70750355D01*
X100285709Y-70743701D01*
X100283229Y-70736771D01*
X100281441Y-70729632D01*
X100280361Y-70722351D01*
X100280000Y-70715000D01*
X100280000Y-70565000D01*
X100280361Y-70557649D01*
X100281441Y-70550368D01*
X100283229Y-70543229D01*
X100285709Y-70536299D01*
X100288856Y-70529645D01*
X100292640Y-70523332D01*
X100297024Y-70517421D01*
X100301967Y-70511967D01*
X100307421Y-70507024D01*
X100313332Y-70502640D01*
X100319645Y-70498856D01*
X100326299Y-70495709D01*
X100333229Y-70493229D01*
X100340368Y-70491441D01*
X100347649Y-70490361D01*
X100355000Y-70490000D01*
X101680000Y-70490000D01*
X101687351Y-70490361D01*
G37*
G36*
X101687351Y-69990361D02*
G01*
X101694632Y-69991441D01*
X101701771Y-69993229D01*
X101708701Y-69995709D01*
X101715355Y-69998856D01*
X101721668Y-70002640D01*
X101727579Y-70007024D01*
X101733033Y-70011967D01*
X101737976Y-70017421D01*
X101742360Y-70023332D01*
X101746144Y-70029645D01*
X101749291Y-70036299D01*
X101751771Y-70043229D01*
X101753559Y-70050368D01*
X101754639Y-70057649D01*
X101755000Y-70065000D01*
X101755000Y-70215000D01*
X101754639Y-70222351D01*
X101753559Y-70229632D01*
X101751771Y-70236771D01*
X101749291Y-70243701D01*
X101746144Y-70250355D01*
X101742360Y-70256668D01*
X101737976Y-70262579D01*
X101733033Y-70268033D01*
X101727579Y-70272976D01*
X101721668Y-70277360D01*
X101715355Y-70281144D01*
X101708701Y-70284291D01*
X101701771Y-70286771D01*
X101694632Y-70288559D01*
X101687351Y-70289639D01*
X101680000Y-70290000D01*
X100355000Y-70290000D01*
X100347649Y-70289639D01*
X100340368Y-70288559D01*
X100333229Y-70286771D01*
X100326299Y-70284291D01*
X100319645Y-70281144D01*
X100313332Y-70277360D01*
X100307421Y-70272976D01*
X100301967Y-70268033D01*
X100297024Y-70262579D01*
X100292640Y-70256668D01*
X100288856Y-70250355D01*
X100285709Y-70243701D01*
X100283229Y-70236771D01*
X100281441Y-70229632D01*
X100280361Y-70222351D01*
X100280000Y-70215000D01*
X100280000Y-70065000D01*
X100280361Y-70057649D01*
X100281441Y-70050368D01*
X100283229Y-70043229D01*
X100285709Y-70036299D01*
X100288856Y-70029645D01*
X100292640Y-70023332D01*
X100297024Y-70017421D01*
X100301967Y-70011967D01*
X100307421Y-70007024D01*
X100313332Y-70002640D01*
X100319645Y-69998856D01*
X100326299Y-69995709D01*
X100333229Y-69993229D01*
X100340368Y-69991441D01*
X100347649Y-69990361D01*
X100355000Y-69990000D01*
X101680000Y-69990000D01*
X101687351Y-69990361D01*
G37*
G36*
X101687351Y-69490361D02*
G01*
X101694632Y-69491441D01*
X101701771Y-69493229D01*
X101708701Y-69495709D01*
X101715355Y-69498856D01*
X101721668Y-69502640D01*
X101727579Y-69507024D01*
X101733033Y-69511967D01*
X101737976Y-69517421D01*
X101742360Y-69523332D01*
X101746144Y-69529645D01*
X101749291Y-69536299D01*
X101751771Y-69543229D01*
X101753559Y-69550368D01*
X101754639Y-69557649D01*
X101755000Y-69565000D01*
X101755000Y-69715000D01*
X101754639Y-69722351D01*
X101753559Y-69729632D01*
X101751771Y-69736771D01*
X101749291Y-69743701D01*
X101746144Y-69750355D01*
X101742360Y-69756668D01*
X101737976Y-69762579D01*
X101733033Y-69768033D01*
X101727579Y-69772976D01*
X101721668Y-69777360D01*
X101715355Y-69781144D01*
X101708701Y-69784291D01*
X101701771Y-69786771D01*
X101694632Y-69788559D01*
X101687351Y-69789639D01*
X101680000Y-69790000D01*
X100355000Y-69790000D01*
X100347649Y-69789639D01*
X100340368Y-69788559D01*
X100333229Y-69786771D01*
X100326299Y-69784291D01*
X100319645Y-69781144D01*
X100313332Y-69777360D01*
X100307421Y-69772976D01*
X100301967Y-69768033D01*
X100297024Y-69762579D01*
X100292640Y-69756668D01*
X100288856Y-69750355D01*
X100285709Y-69743701D01*
X100283229Y-69736771D01*
X100281441Y-69729632D01*
X100280361Y-69722351D01*
X100280000Y-69715000D01*
X100280000Y-69565000D01*
X100280361Y-69557649D01*
X100281441Y-69550368D01*
X100283229Y-69543229D01*
X100285709Y-69536299D01*
X100288856Y-69529645D01*
X100292640Y-69523332D01*
X100297024Y-69517421D01*
X100301967Y-69511967D01*
X100307421Y-69507024D01*
X100313332Y-69502640D01*
X100319645Y-69498856D01*
X100326299Y-69495709D01*
X100333229Y-69493229D01*
X100340368Y-69491441D01*
X100347649Y-69490361D01*
X100355000Y-69490000D01*
X101680000Y-69490000D01*
X101687351Y-69490361D01*
G37*
G36*
X101687351Y-68990361D02*
G01*
X101694632Y-68991441D01*
X101701771Y-68993229D01*
X101708701Y-68995709D01*
X101715355Y-68998856D01*
X101721668Y-69002640D01*
X101727579Y-69007024D01*
X101733033Y-69011967D01*
X101737976Y-69017421D01*
X101742360Y-69023332D01*
X101746144Y-69029645D01*
X101749291Y-69036299D01*
X101751771Y-69043229D01*
X101753559Y-69050368D01*
X101754639Y-69057649D01*
X101755000Y-69065000D01*
X101755000Y-69215000D01*
X101754639Y-69222351D01*
X101753559Y-69229632D01*
X101751771Y-69236771D01*
X101749291Y-69243701D01*
X101746144Y-69250355D01*
X101742360Y-69256668D01*
X101737976Y-69262579D01*
X101733033Y-69268033D01*
X101727579Y-69272976D01*
X101721668Y-69277360D01*
X101715355Y-69281144D01*
X101708701Y-69284291D01*
X101701771Y-69286771D01*
X101694632Y-69288559D01*
X101687351Y-69289639D01*
X101680000Y-69290000D01*
X100355000Y-69290000D01*
X100347649Y-69289639D01*
X100340368Y-69288559D01*
X100333229Y-69286771D01*
X100326299Y-69284291D01*
X100319645Y-69281144D01*
X100313332Y-69277360D01*
X100307421Y-69272976D01*
X100301967Y-69268033D01*
X100297024Y-69262579D01*
X100292640Y-69256668D01*
X100288856Y-69250355D01*
X100285709Y-69243701D01*
X100283229Y-69236771D01*
X100281441Y-69229632D01*
X100280361Y-69222351D01*
X100280000Y-69215000D01*
X100280000Y-69065000D01*
X100280361Y-69057649D01*
X100281441Y-69050368D01*
X100283229Y-69043229D01*
X100285709Y-69036299D01*
X100288856Y-69029645D01*
X100292640Y-69023332D01*
X100297024Y-69017421D01*
X100301967Y-69011967D01*
X100307421Y-69007024D01*
X100313332Y-69002640D01*
X100319645Y-68998856D01*
X100326299Y-68995709D01*
X100333229Y-68993229D01*
X100340368Y-68991441D01*
X100347649Y-68990361D01*
X100355000Y-68990000D01*
X101680000Y-68990000D01*
X101687351Y-68990361D01*
G37*
G36*
X101687351Y-68490361D02*
G01*
X101694632Y-68491441D01*
X101701771Y-68493229D01*
X101708701Y-68495709D01*
X101715355Y-68498856D01*
X101721668Y-68502640D01*
X101727579Y-68507024D01*
X101733033Y-68511967D01*
X101737976Y-68517421D01*
X101742360Y-68523332D01*
X101746144Y-68529645D01*
X101749291Y-68536299D01*
X101751771Y-68543229D01*
X101753559Y-68550368D01*
X101754639Y-68557649D01*
X101755000Y-68565000D01*
X101755000Y-68715000D01*
X101754639Y-68722351D01*
X101753559Y-68729632D01*
X101751771Y-68736771D01*
X101749291Y-68743701D01*
X101746144Y-68750355D01*
X101742360Y-68756668D01*
X101737976Y-68762579D01*
X101733033Y-68768033D01*
X101727579Y-68772976D01*
X101721668Y-68777360D01*
X101715355Y-68781144D01*
X101708701Y-68784291D01*
X101701771Y-68786771D01*
X101694632Y-68788559D01*
X101687351Y-68789639D01*
X101680000Y-68790000D01*
X100355000Y-68790000D01*
X100347649Y-68789639D01*
X100340368Y-68788559D01*
X100333229Y-68786771D01*
X100326299Y-68784291D01*
X100319645Y-68781144D01*
X100313332Y-68777360D01*
X100307421Y-68772976D01*
X100301967Y-68768033D01*
X100297024Y-68762579D01*
X100292640Y-68756668D01*
X100288856Y-68750355D01*
X100285709Y-68743701D01*
X100283229Y-68736771D01*
X100281441Y-68729632D01*
X100280361Y-68722351D01*
X100280000Y-68715000D01*
X100280000Y-68565000D01*
X100280361Y-68557649D01*
X100281441Y-68550368D01*
X100283229Y-68543229D01*
X100285709Y-68536299D01*
X100288856Y-68529645D01*
X100292640Y-68523332D01*
X100297024Y-68517421D01*
X100301967Y-68511967D01*
X100307421Y-68507024D01*
X100313332Y-68502640D01*
X100319645Y-68498856D01*
X100326299Y-68495709D01*
X100333229Y-68493229D01*
X100340368Y-68491441D01*
X100347649Y-68490361D01*
X100355000Y-68490000D01*
X101680000Y-68490000D01*
X101687351Y-68490361D01*
G37*
G36*
X103012351Y-65990361D02*
G01*
X103019632Y-65991441D01*
X103026771Y-65993229D01*
X103033701Y-65995709D01*
X103040355Y-65998856D01*
X103046668Y-66002640D01*
X103052579Y-66007024D01*
X103058033Y-66011967D01*
X103062976Y-66017421D01*
X103067360Y-66023332D01*
X103071144Y-66029645D01*
X103074291Y-66036299D01*
X103076771Y-66043229D01*
X103078559Y-66050368D01*
X103079639Y-66057649D01*
X103080000Y-66065000D01*
X103080000Y-67390000D01*
X103079639Y-67397351D01*
X103078559Y-67404632D01*
X103076771Y-67411771D01*
X103074291Y-67418701D01*
X103071144Y-67425355D01*
X103067360Y-67431668D01*
X103062976Y-67437579D01*
X103058033Y-67443033D01*
X103052579Y-67447976D01*
X103046668Y-67452360D01*
X103040355Y-67456144D01*
X103033701Y-67459291D01*
X103026771Y-67461771D01*
X103019632Y-67463559D01*
X103012351Y-67464639D01*
X103005000Y-67465000D01*
X102855000Y-67465000D01*
X102847649Y-67464639D01*
X102840368Y-67463559D01*
X102833229Y-67461771D01*
X102826299Y-67459291D01*
X102819645Y-67456144D01*
X102813332Y-67452360D01*
X102807421Y-67447976D01*
X102801967Y-67443033D01*
X102797024Y-67437579D01*
X102792640Y-67431668D01*
X102788856Y-67425355D01*
X102785709Y-67418701D01*
X102783229Y-67411771D01*
X102781441Y-67404632D01*
X102780361Y-67397351D01*
X102780000Y-67390000D01*
X102780000Y-66065000D01*
X102780361Y-66057649D01*
X102781441Y-66050368D01*
X102783229Y-66043229D01*
X102785709Y-66036299D01*
X102788856Y-66029645D01*
X102792640Y-66023332D01*
X102797024Y-66017421D01*
X102801967Y-66011967D01*
X102807421Y-66007024D01*
X102813332Y-66002640D01*
X102819645Y-65998856D01*
X102826299Y-65995709D01*
X102833229Y-65993229D01*
X102840368Y-65991441D01*
X102847649Y-65990361D01*
X102855000Y-65990000D01*
X103005000Y-65990000D01*
X103012351Y-65990361D01*
G37*
G36*
X103512351Y-65990361D02*
G01*
X103519632Y-65991441D01*
X103526771Y-65993229D01*
X103533701Y-65995709D01*
X103540355Y-65998856D01*
X103546668Y-66002640D01*
X103552579Y-66007024D01*
X103558033Y-66011967D01*
X103562976Y-66017421D01*
X103567360Y-66023332D01*
X103571144Y-66029645D01*
X103574291Y-66036299D01*
X103576771Y-66043229D01*
X103578559Y-66050368D01*
X103579639Y-66057649D01*
X103580000Y-66065000D01*
X103580000Y-67390000D01*
X103579639Y-67397351D01*
X103578559Y-67404632D01*
X103576771Y-67411771D01*
X103574291Y-67418701D01*
X103571144Y-67425355D01*
X103567360Y-67431668D01*
X103562976Y-67437579D01*
X103558033Y-67443033D01*
X103552579Y-67447976D01*
X103546668Y-67452360D01*
X103540355Y-67456144D01*
X103533701Y-67459291D01*
X103526771Y-67461771D01*
X103519632Y-67463559D01*
X103512351Y-67464639D01*
X103505000Y-67465000D01*
X103355000Y-67465000D01*
X103347649Y-67464639D01*
X103340368Y-67463559D01*
X103333229Y-67461771D01*
X103326299Y-67459291D01*
X103319645Y-67456144D01*
X103313332Y-67452360D01*
X103307421Y-67447976D01*
X103301967Y-67443033D01*
X103297024Y-67437579D01*
X103292640Y-67431668D01*
X103288856Y-67425355D01*
X103285709Y-67418701D01*
X103283229Y-67411771D01*
X103281441Y-67404632D01*
X103280361Y-67397351D01*
X103280000Y-67390000D01*
X103280000Y-66065000D01*
X103280361Y-66057649D01*
X103281441Y-66050368D01*
X103283229Y-66043229D01*
X103285709Y-66036299D01*
X103288856Y-66029645D01*
X103292640Y-66023332D01*
X103297024Y-66017421D01*
X103301967Y-66011967D01*
X103307421Y-66007024D01*
X103313332Y-66002640D01*
X103319645Y-65998856D01*
X103326299Y-65995709D01*
X103333229Y-65993229D01*
X103340368Y-65991441D01*
X103347649Y-65990361D01*
X103355000Y-65990000D01*
X103505000Y-65990000D01*
X103512351Y-65990361D01*
G37*
G36*
X104012351Y-65990361D02*
G01*
X104019632Y-65991441D01*
X104026771Y-65993229D01*
X104033701Y-65995709D01*
X104040355Y-65998856D01*
X104046668Y-66002640D01*
X104052579Y-66007024D01*
X104058033Y-66011967D01*
X104062976Y-66017421D01*
X104067360Y-66023332D01*
X104071144Y-66029645D01*
X104074291Y-66036299D01*
X104076771Y-66043229D01*
X104078559Y-66050368D01*
X104079639Y-66057649D01*
X104080000Y-66065000D01*
X104080000Y-67390000D01*
X104079639Y-67397351D01*
X104078559Y-67404632D01*
X104076771Y-67411771D01*
X104074291Y-67418701D01*
X104071144Y-67425355D01*
X104067360Y-67431668D01*
X104062976Y-67437579D01*
X104058033Y-67443033D01*
X104052579Y-67447976D01*
X104046668Y-67452360D01*
X104040355Y-67456144D01*
X104033701Y-67459291D01*
X104026771Y-67461771D01*
X104019632Y-67463559D01*
X104012351Y-67464639D01*
X104005000Y-67465000D01*
X103855000Y-67465000D01*
X103847649Y-67464639D01*
X103840368Y-67463559D01*
X103833229Y-67461771D01*
X103826299Y-67459291D01*
X103819645Y-67456144D01*
X103813332Y-67452360D01*
X103807421Y-67447976D01*
X103801967Y-67443033D01*
X103797024Y-67437579D01*
X103792640Y-67431668D01*
X103788856Y-67425355D01*
X103785709Y-67418701D01*
X103783229Y-67411771D01*
X103781441Y-67404632D01*
X103780361Y-67397351D01*
X103780000Y-67390000D01*
X103780000Y-66065000D01*
X103780361Y-66057649D01*
X103781441Y-66050368D01*
X103783229Y-66043229D01*
X103785709Y-66036299D01*
X103788856Y-66029645D01*
X103792640Y-66023332D01*
X103797024Y-66017421D01*
X103801967Y-66011967D01*
X103807421Y-66007024D01*
X103813332Y-66002640D01*
X103819645Y-65998856D01*
X103826299Y-65995709D01*
X103833229Y-65993229D01*
X103840368Y-65991441D01*
X103847649Y-65990361D01*
X103855000Y-65990000D01*
X104005000Y-65990000D01*
X104012351Y-65990361D01*
G37*
G36*
X104512351Y-65990361D02*
G01*
X104519632Y-65991441D01*
X104526771Y-65993229D01*
X104533701Y-65995709D01*
X104540355Y-65998856D01*
X104546668Y-66002640D01*
X104552579Y-66007024D01*
X104558033Y-66011967D01*
X104562976Y-66017421D01*
X104567360Y-66023332D01*
X104571144Y-66029645D01*
X104574291Y-66036299D01*
X104576771Y-66043229D01*
X104578559Y-66050368D01*
X104579639Y-66057649D01*
X104580000Y-66065000D01*
X104580000Y-67390000D01*
X104579639Y-67397351D01*
X104578559Y-67404632D01*
X104576771Y-67411771D01*
X104574291Y-67418701D01*
X104571144Y-67425355D01*
X104567360Y-67431668D01*
X104562976Y-67437579D01*
X104558033Y-67443033D01*
X104552579Y-67447976D01*
X104546668Y-67452360D01*
X104540355Y-67456144D01*
X104533701Y-67459291D01*
X104526771Y-67461771D01*
X104519632Y-67463559D01*
X104512351Y-67464639D01*
X104505000Y-67465000D01*
X104355000Y-67465000D01*
X104347649Y-67464639D01*
X104340368Y-67463559D01*
X104333229Y-67461771D01*
X104326299Y-67459291D01*
X104319645Y-67456144D01*
X104313332Y-67452360D01*
X104307421Y-67447976D01*
X104301967Y-67443033D01*
X104297024Y-67437579D01*
X104292640Y-67431668D01*
X104288856Y-67425355D01*
X104285709Y-67418701D01*
X104283229Y-67411771D01*
X104281441Y-67404632D01*
X104280361Y-67397351D01*
X104280000Y-67390000D01*
X104280000Y-66065000D01*
X104280361Y-66057649D01*
X104281441Y-66050368D01*
X104283229Y-66043229D01*
X104285709Y-66036299D01*
X104288856Y-66029645D01*
X104292640Y-66023332D01*
X104297024Y-66017421D01*
X104301967Y-66011967D01*
X104307421Y-66007024D01*
X104313332Y-66002640D01*
X104319645Y-65998856D01*
X104326299Y-65995709D01*
X104333229Y-65993229D01*
X104340368Y-65991441D01*
X104347649Y-65990361D01*
X104355000Y-65990000D01*
X104505000Y-65990000D01*
X104512351Y-65990361D01*
G37*
G36*
X105012351Y-65990361D02*
G01*
X105019632Y-65991441D01*
X105026771Y-65993229D01*
X105033701Y-65995709D01*
X105040355Y-65998856D01*
X105046668Y-66002640D01*
X105052579Y-66007024D01*
X105058033Y-66011967D01*
X105062976Y-66017421D01*
X105067360Y-66023332D01*
X105071144Y-66029645D01*
X105074291Y-66036299D01*
X105076771Y-66043229D01*
X105078559Y-66050368D01*
X105079639Y-66057649D01*
X105080000Y-66065000D01*
X105080000Y-67390000D01*
X105079639Y-67397351D01*
X105078559Y-67404632D01*
X105076771Y-67411771D01*
X105074291Y-67418701D01*
X105071144Y-67425355D01*
X105067360Y-67431668D01*
X105062976Y-67437579D01*
X105058033Y-67443033D01*
X105052579Y-67447976D01*
X105046668Y-67452360D01*
X105040355Y-67456144D01*
X105033701Y-67459291D01*
X105026771Y-67461771D01*
X105019632Y-67463559D01*
X105012351Y-67464639D01*
X105005000Y-67465000D01*
X104855000Y-67465000D01*
X104847649Y-67464639D01*
X104840368Y-67463559D01*
X104833229Y-67461771D01*
X104826299Y-67459291D01*
X104819645Y-67456144D01*
X104813332Y-67452360D01*
X104807421Y-67447976D01*
X104801967Y-67443033D01*
X104797024Y-67437579D01*
X104792640Y-67431668D01*
X104788856Y-67425355D01*
X104785709Y-67418701D01*
X104783229Y-67411771D01*
X104781441Y-67404632D01*
X104780361Y-67397351D01*
X104780000Y-67390000D01*
X104780000Y-66065000D01*
X104780361Y-66057649D01*
X104781441Y-66050368D01*
X104783229Y-66043229D01*
X104785709Y-66036299D01*
X104788856Y-66029645D01*
X104792640Y-66023332D01*
X104797024Y-66017421D01*
X104801967Y-66011967D01*
X104807421Y-66007024D01*
X104813332Y-66002640D01*
X104819645Y-65998856D01*
X104826299Y-65995709D01*
X104833229Y-65993229D01*
X104840368Y-65991441D01*
X104847649Y-65990361D01*
X104855000Y-65990000D01*
X105005000Y-65990000D01*
X105012351Y-65990361D01*
G37*
G36*
X105512351Y-65990361D02*
G01*
X105519632Y-65991441D01*
X105526771Y-65993229D01*
X105533701Y-65995709D01*
X105540355Y-65998856D01*
X105546668Y-66002640D01*
X105552579Y-66007024D01*
X105558033Y-66011967D01*
X105562976Y-66017421D01*
X105567360Y-66023332D01*
X105571144Y-66029645D01*
X105574291Y-66036299D01*
X105576771Y-66043229D01*
X105578559Y-66050368D01*
X105579639Y-66057649D01*
X105580000Y-66065000D01*
X105580000Y-67390000D01*
X105579639Y-67397351D01*
X105578559Y-67404632D01*
X105576771Y-67411771D01*
X105574291Y-67418701D01*
X105571144Y-67425355D01*
X105567360Y-67431668D01*
X105562976Y-67437579D01*
X105558033Y-67443033D01*
X105552579Y-67447976D01*
X105546668Y-67452360D01*
X105540355Y-67456144D01*
X105533701Y-67459291D01*
X105526771Y-67461771D01*
X105519632Y-67463559D01*
X105512351Y-67464639D01*
X105505000Y-67465000D01*
X105355000Y-67465000D01*
X105347649Y-67464639D01*
X105340368Y-67463559D01*
X105333229Y-67461771D01*
X105326299Y-67459291D01*
X105319645Y-67456144D01*
X105313332Y-67452360D01*
X105307421Y-67447976D01*
X105301967Y-67443033D01*
X105297024Y-67437579D01*
X105292640Y-67431668D01*
X105288856Y-67425355D01*
X105285709Y-67418701D01*
X105283229Y-67411771D01*
X105281441Y-67404632D01*
X105280361Y-67397351D01*
X105280000Y-67390000D01*
X105280000Y-66065000D01*
X105280361Y-66057649D01*
X105281441Y-66050368D01*
X105283229Y-66043229D01*
X105285709Y-66036299D01*
X105288856Y-66029645D01*
X105292640Y-66023332D01*
X105297024Y-66017421D01*
X105301967Y-66011967D01*
X105307421Y-66007024D01*
X105313332Y-66002640D01*
X105319645Y-65998856D01*
X105326299Y-65995709D01*
X105333229Y-65993229D01*
X105340368Y-65991441D01*
X105347649Y-65990361D01*
X105355000Y-65990000D01*
X105505000Y-65990000D01*
X105512351Y-65990361D01*
G37*
G36*
X106012351Y-65990361D02*
G01*
X106019632Y-65991441D01*
X106026771Y-65993229D01*
X106033701Y-65995709D01*
X106040355Y-65998856D01*
X106046668Y-66002640D01*
X106052579Y-66007024D01*
X106058033Y-66011967D01*
X106062976Y-66017421D01*
X106067360Y-66023332D01*
X106071144Y-66029645D01*
X106074291Y-66036299D01*
X106076771Y-66043229D01*
X106078559Y-66050368D01*
X106079639Y-66057649D01*
X106080000Y-66065000D01*
X106080000Y-67390000D01*
X106079639Y-67397351D01*
X106078559Y-67404632D01*
X106076771Y-67411771D01*
X106074291Y-67418701D01*
X106071144Y-67425355D01*
X106067360Y-67431668D01*
X106062976Y-67437579D01*
X106058033Y-67443033D01*
X106052579Y-67447976D01*
X106046668Y-67452360D01*
X106040355Y-67456144D01*
X106033701Y-67459291D01*
X106026771Y-67461771D01*
X106019632Y-67463559D01*
X106012351Y-67464639D01*
X106005000Y-67465000D01*
X105855000Y-67465000D01*
X105847649Y-67464639D01*
X105840368Y-67463559D01*
X105833229Y-67461771D01*
X105826299Y-67459291D01*
X105819645Y-67456144D01*
X105813332Y-67452360D01*
X105807421Y-67447976D01*
X105801967Y-67443033D01*
X105797024Y-67437579D01*
X105792640Y-67431668D01*
X105788856Y-67425355D01*
X105785709Y-67418701D01*
X105783229Y-67411771D01*
X105781441Y-67404632D01*
X105780361Y-67397351D01*
X105780000Y-67390000D01*
X105780000Y-66065000D01*
X105780361Y-66057649D01*
X105781441Y-66050368D01*
X105783229Y-66043229D01*
X105785709Y-66036299D01*
X105788856Y-66029645D01*
X105792640Y-66023332D01*
X105797024Y-66017421D01*
X105801967Y-66011967D01*
X105807421Y-66007024D01*
X105813332Y-66002640D01*
X105819645Y-65998856D01*
X105826299Y-65995709D01*
X105833229Y-65993229D01*
X105840368Y-65991441D01*
X105847649Y-65990361D01*
X105855000Y-65990000D01*
X106005000Y-65990000D01*
X106012351Y-65990361D01*
G37*
G36*
X106512351Y-65990361D02*
G01*
X106519632Y-65991441D01*
X106526771Y-65993229D01*
X106533701Y-65995709D01*
X106540355Y-65998856D01*
X106546668Y-66002640D01*
X106552579Y-66007024D01*
X106558033Y-66011967D01*
X106562976Y-66017421D01*
X106567360Y-66023332D01*
X106571144Y-66029645D01*
X106574291Y-66036299D01*
X106576771Y-66043229D01*
X106578559Y-66050368D01*
X106579639Y-66057649D01*
X106580000Y-66065000D01*
X106580000Y-67390000D01*
X106579639Y-67397351D01*
X106578559Y-67404632D01*
X106576771Y-67411771D01*
X106574291Y-67418701D01*
X106571144Y-67425355D01*
X106567360Y-67431668D01*
X106562976Y-67437579D01*
X106558033Y-67443033D01*
X106552579Y-67447976D01*
X106546668Y-67452360D01*
X106540355Y-67456144D01*
X106533701Y-67459291D01*
X106526771Y-67461771D01*
X106519632Y-67463559D01*
X106512351Y-67464639D01*
X106505000Y-67465000D01*
X106355000Y-67465000D01*
X106347649Y-67464639D01*
X106340368Y-67463559D01*
X106333229Y-67461771D01*
X106326299Y-67459291D01*
X106319645Y-67456144D01*
X106313332Y-67452360D01*
X106307421Y-67447976D01*
X106301967Y-67443033D01*
X106297024Y-67437579D01*
X106292640Y-67431668D01*
X106288856Y-67425355D01*
X106285709Y-67418701D01*
X106283229Y-67411771D01*
X106281441Y-67404632D01*
X106280361Y-67397351D01*
X106280000Y-67390000D01*
X106280000Y-66065000D01*
X106280361Y-66057649D01*
X106281441Y-66050368D01*
X106283229Y-66043229D01*
X106285709Y-66036299D01*
X106288856Y-66029645D01*
X106292640Y-66023332D01*
X106297024Y-66017421D01*
X106301967Y-66011967D01*
X106307421Y-66007024D01*
X106313332Y-66002640D01*
X106319645Y-65998856D01*
X106326299Y-65995709D01*
X106333229Y-65993229D01*
X106340368Y-65991441D01*
X106347649Y-65990361D01*
X106355000Y-65990000D01*
X106505000Y-65990000D01*
X106512351Y-65990361D01*
G37*
G36*
X107012351Y-65990361D02*
G01*
X107019632Y-65991441D01*
X107026771Y-65993229D01*
X107033701Y-65995709D01*
X107040355Y-65998856D01*
X107046668Y-66002640D01*
X107052579Y-66007024D01*
X107058033Y-66011967D01*
X107062976Y-66017421D01*
X107067360Y-66023332D01*
X107071144Y-66029645D01*
X107074291Y-66036299D01*
X107076771Y-66043229D01*
X107078559Y-66050368D01*
X107079639Y-66057649D01*
X107080000Y-66065000D01*
X107080000Y-67390000D01*
X107079639Y-67397351D01*
X107078559Y-67404632D01*
X107076771Y-67411771D01*
X107074291Y-67418701D01*
X107071144Y-67425355D01*
X107067360Y-67431668D01*
X107062976Y-67437579D01*
X107058033Y-67443033D01*
X107052579Y-67447976D01*
X107046668Y-67452360D01*
X107040355Y-67456144D01*
X107033701Y-67459291D01*
X107026771Y-67461771D01*
X107019632Y-67463559D01*
X107012351Y-67464639D01*
X107005000Y-67465000D01*
X106855000Y-67465000D01*
X106847649Y-67464639D01*
X106840368Y-67463559D01*
X106833229Y-67461771D01*
X106826299Y-67459291D01*
X106819645Y-67456144D01*
X106813332Y-67452360D01*
X106807421Y-67447976D01*
X106801967Y-67443033D01*
X106797024Y-67437579D01*
X106792640Y-67431668D01*
X106788856Y-67425355D01*
X106785709Y-67418701D01*
X106783229Y-67411771D01*
X106781441Y-67404632D01*
X106780361Y-67397351D01*
X106780000Y-67390000D01*
X106780000Y-66065000D01*
X106780361Y-66057649D01*
X106781441Y-66050368D01*
X106783229Y-66043229D01*
X106785709Y-66036299D01*
X106788856Y-66029645D01*
X106792640Y-66023332D01*
X106797024Y-66017421D01*
X106801967Y-66011967D01*
X106807421Y-66007024D01*
X106813332Y-66002640D01*
X106819645Y-65998856D01*
X106826299Y-65995709D01*
X106833229Y-65993229D01*
X106840368Y-65991441D01*
X106847649Y-65990361D01*
X106855000Y-65990000D01*
X107005000Y-65990000D01*
X107012351Y-65990361D01*
G37*
G36*
X107512351Y-65990361D02*
G01*
X107519632Y-65991441D01*
X107526771Y-65993229D01*
X107533701Y-65995709D01*
X107540355Y-65998856D01*
X107546668Y-66002640D01*
X107552579Y-66007024D01*
X107558033Y-66011967D01*
X107562976Y-66017421D01*
X107567360Y-66023332D01*
X107571144Y-66029645D01*
X107574291Y-66036299D01*
X107576771Y-66043229D01*
X107578559Y-66050368D01*
X107579639Y-66057649D01*
X107580000Y-66065000D01*
X107580000Y-67390000D01*
X107579639Y-67397351D01*
X107578559Y-67404632D01*
X107576771Y-67411771D01*
X107574291Y-67418701D01*
X107571144Y-67425355D01*
X107567360Y-67431668D01*
X107562976Y-67437579D01*
X107558033Y-67443033D01*
X107552579Y-67447976D01*
X107546668Y-67452360D01*
X107540355Y-67456144D01*
X107533701Y-67459291D01*
X107526771Y-67461771D01*
X107519632Y-67463559D01*
X107512351Y-67464639D01*
X107505000Y-67465000D01*
X107355000Y-67465000D01*
X107347649Y-67464639D01*
X107340368Y-67463559D01*
X107333229Y-67461771D01*
X107326299Y-67459291D01*
X107319645Y-67456144D01*
X107313332Y-67452360D01*
X107307421Y-67447976D01*
X107301967Y-67443033D01*
X107297024Y-67437579D01*
X107292640Y-67431668D01*
X107288856Y-67425355D01*
X107285709Y-67418701D01*
X107283229Y-67411771D01*
X107281441Y-67404632D01*
X107280361Y-67397351D01*
X107280000Y-67390000D01*
X107280000Y-66065000D01*
X107280361Y-66057649D01*
X107281441Y-66050368D01*
X107283229Y-66043229D01*
X107285709Y-66036299D01*
X107288856Y-66029645D01*
X107292640Y-66023332D01*
X107297024Y-66017421D01*
X107301967Y-66011967D01*
X107307421Y-66007024D01*
X107313332Y-66002640D01*
X107319645Y-65998856D01*
X107326299Y-65995709D01*
X107333229Y-65993229D01*
X107340368Y-65991441D01*
X107347649Y-65990361D01*
X107355000Y-65990000D01*
X107505000Y-65990000D01*
X107512351Y-65990361D01*
G37*
G36*
X108012351Y-65990361D02*
G01*
X108019632Y-65991441D01*
X108026771Y-65993229D01*
X108033701Y-65995709D01*
X108040355Y-65998856D01*
X108046668Y-66002640D01*
X108052579Y-66007024D01*
X108058033Y-66011967D01*
X108062976Y-66017421D01*
X108067360Y-66023332D01*
X108071144Y-66029645D01*
X108074291Y-66036299D01*
X108076771Y-66043229D01*
X108078559Y-66050368D01*
X108079639Y-66057649D01*
X108080000Y-66065000D01*
X108080000Y-67390000D01*
X108079639Y-67397351D01*
X108078559Y-67404632D01*
X108076771Y-67411771D01*
X108074291Y-67418701D01*
X108071144Y-67425355D01*
X108067360Y-67431668D01*
X108062976Y-67437579D01*
X108058033Y-67443033D01*
X108052579Y-67447976D01*
X108046668Y-67452360D01*
X108040355Y-67456144D01*
X108033701Y-67459291D01*
X108026771Y-67461771D01*
X108019632Y-67463559D01*
X108012351Y-67464639D01*
X108005000Y-67465000D01*
X107855000Y-67465000D01*
X107847649Y-67464639D01*
X107840368Y-67463559D01*
X107833229Y-67461771D01*
X107826299Y-67459291D01*
X107819645Y-67456144D01*
X107813332Y-67452360D01*
X107807421Y-67447976D01*
X107801967Y-67443033D01*
X107797024Y-67437579D01*
X107792640Y-67431668D01*
X107788856Y-67425355D01*
X107785709Y-67418701D01*
X107783229Y-67411771D01*
X107781441Y-67404632D01*
X107780361Y-67397351D01*
X107780000Y-67390000D01*
X107780000Y-66065000D01*
X107780361Y-66057649D01*
X107781441Y-66050368D01*
X107783229Y-66043229D01*
X107785709Y-66036299D01*
X107788856Y-66029645D01*
X107792640Y-66023332D01*
X107797024Y-66017421D01*
X107801967Y-66011967D01*
X107807421Y-66007024D01*
X107813332Y-66002640D01*
X107819645Y-65998856D01*
X107826299Y-65995709D01*
X107833229Y-65993229D01*
X107840368Y-65991441D01*
X107847649Y-65990361D01*
X107855000Y-65990000D01*
X108005000Y-65990000D01*
X108012351Y-65990361D01*
G37*
G36*
X108512351Y-65990361D02*
G01*
X108519632Y-65991441D01*
X108526771Y-65993229D01*
X108533701Y-65995709D01*
X108540355Y-65998856D01*
X108546668Y-66002640D01*
X108552579Y-66007024D01*
X108558033Y-66011967D01*
X108562976Y-66017421D01*
X108567360Y-66023332D01*
X108571144Y-66029645D01*
X108574291Y-66036299D01*
X108576771Y-66043229D01*
X108578559Y-66050368D01*
X108579639Y-66057649D01*
X108580000Y-66065000D01*
X108580000Y-67390000D01*
X108579639Y-67397351D01*
X108578559Y-67404632D01*
X108576771Y-67411771D01*
X108574291Y-67418701D01*
X108571144Y-67425355D01*
X108567360Y-67431668D01*
X108562976Y-67437579D01*
X108558033Y-67443033D01*
X108552579Y-67447976D01*
X108546668Y-67452360D01*
X108540355Y-67456144D01*
X108533701Y-67459291D01*
X108526771Y-67461771D01*
X108519632Y-67463559D01*
X108512351Y-67464639D01*
X108505000Y-67465000D01*
X108355000Y-67465000D01*
X108347649Y-67464639D01*
X108340368Y-67463559D01*
X108333229Y-67461771D01*
X108326299Y-67459291D01*
X108319645Y-67456144D01*
X108313332Y-67452360D01*
X108307421Y-67447976D01*
X108301967Y-67443033D01*
X108297024Y-67437579D01*
X108292640Y-67431668D01*
X108288856Y-67425355D01*
X108285709Y-67418701D01*
X108283229Y-67411771D01*
X108281441Y-67404632D01*
X108280361Y-67397351D01*
X108280000Y-67390000D01*
X108280000Y-66065000D01*
X108280361Y-66057649D01*
X108281441Y-66050368D01*
X108283229Y-66043229D01*
X108285709Y-66036299D01*
X108288856Y-66029645D01*
X108292640Y-66023332D01*
X108297024Y-66017421D01*
X108301967Y-66011967D01*
X108307421Y-66007024D01*
X108313332Y-66002640D01*
X108319645Y-65998856D01*
X108326299Y-65995709D01*
X108333229Y-65993229D01*
X108340368Y-65991441D01*
X108347649Y-65990361D01*
X108355000Y-65990000D01*
X108505000Y-65990000D01*
X108512351Y-65990361D01*
G37*
G36*
X109012351Y-65990361D02*
G01*
X109019632Y-65991441D01*
X109026771Y-65993229D01*
X109033701Y-65995709D01*
X109040355Y-65998856D01*
X109046668Y-66002640D01*
X109052579Y-66007024D01*
X109058033Y-66011967D01*
X109062976Y-66017421D01*
X109067360Y-66023332D01*
X109071144Y-66029645D01*
X109074291Y-66036299D01*
X109076771Y-66043229D01*
X109078559Y-66050368D01*
X109079639Y-66057649D01*
X109080000Y-66065000D01*
X109080000Y-67390000D01*
X109079639Y-67397351D01*
X109078559Y-67404632D01*
X109076771Y-67411771D01*
X109074291Y-67418701D01*
X109071144Y-67425355D01*
X109067360Y-67431668D01*
X109062976Y-67437579D01*
X109058033Y-67443033D01*
X109052579Y-67447976D01*
X109046668Y-67452360D01*
X109040355Y-67456144D01*
X109033701Y-67459291D01*
X109026771Y-67461771D01*
X109019632Y-67463559D01*
X109012351Y-67464639D01*
X109005000Y-67465000D01*
X108855000Y-67465000D01*
X108847649Y-67464639D01*
X108840368Y-67463559D01*
X108833229Y-67461771D01*
X108826299Y-67459291D01*
X108819645Y-67456144D01*
X108813332Y-67452360D01*
X108807421Y-67447976D01*
X108801967Y-67443033D01*
X108797024Y-67437579D01*
X108792640Y-67431668D01*
X108788856Y-67425355D01*
X108785709Y-67418701D01*
X108783229Y-67411771D01*
X108781441Y-67404632D01*
X108780361Y-67397351D01*
X108780000Y-67390000D01*
X108780000Y-66065000D01*
X108780361Y-66057649D01*
X108781441Y-66050368D01*
X108783229Y-66043229D01*
X108785709Y-66036299D01*
X108788856Y-66029645D01*
X108792640Y-66023332D01*
X108797024Y-66017421D01*
X108801967Y-66011967D01*
X108807421Y-66007024D01*
X108813332Y-66002640D01*
X108819645Y-65998856D01*
X108826299Y-65995709D01*
X108833229Y-65993229D01*
X108840368Y-65991441D01*
X108847649Y-65990361D01*
X108855000Y-65990000D01*
X109005000Y-65990000D01*
X109012351Y-65990361D01*
G37*
G36*
X109512351Y-65990361D02*
G01*
X109519632Y-65991441D01*
X109526771Y-65993229D01*
X109533701Y-65995709D01*
X109540355Y-65998856D01*
X109546668Y-66002640D01*
X109552579Y-66007024D01*
X109558033Y-66011967D01*
X109562976Y-66017421D01*
X109567360Y-66023332D01*
X109571144Y-66029645D01*
X109574291Y-66036299D01*
X109576771Y-66043229D01*
X109578559Y-66050368D01*
X109579639Y-66057649D01*
X109580000Y-66065000D01*
X109580000Y-67390000D01*
X109579639Y-67397351D01*
X109578559Y-67404632D01*
X109576771Y-67411771D01*
X109574291Y-67418701D01*
X109571144Y-67425355D01*
X109567360Y-67431668D01*
X109562976Y-67437579D01*
X109558033Y-67443033D01*
X109552579Y-67447976D01*
X109546668Y-67452360D01*
X109540355Y-67456144D01*
X109533701Y-67459291D01*
X109526771Y-67461771D01*
X109519632Y-67463559D01*
X109512351Y-67464639D01*
X109505000Y-67465000D01*
X109355000Y-67465000D01*
X109347649Y-67464639D01*
X109340368Y-67463559D01*
X109333229Y-67461771D01*
X109326299Y-67459291D01*
X109319645Y-67456144D01*
X109313332Y-67452360D01*
X109307421Y-67447976D01*
X109301967Y-67443033D01*
X109297024Y-67437579D01*
X109292640Y-67431668D01*
X109288856Y-67425355D01*
X109285709Y-67418701D01*
X109283229Y-67411771D01*
X109281441Y-67404632D01*
X109280361Y-67397351D01*
X109280000Y-67390000D01*
X109280000Y-66065000D01*
X109280361Y-66057649D01*
X109281441Y-66050368D01*
X109283229Y-66043229D01*
X109285709Y-66036299D01*
X109288856Y-66029645D01*
X109292640Y-66023332D01*
X109297024Y-66017421D01*
X109301967Y-66011967D01*
X109307421Y-66007024D01*
X109313332Y-66002640D01*
X109319645Y-65998856D01*
X109326299Y-65995709D01*
X109333229Y-65993229D01*
X109340368Y-65991441D01*
X109347649Y-65990361D01*
X109355000Y-65990000D01*
X109505000Y-65990000D01*
X109512351Y-65990361D01*
G37*
G36*
X110012351Y-65990361D02*
G01*
X110019632Y-65991441D01*
X110026771Y-65993229D01*
X110033701Y-65995709D01*
X110040355Y-65998856D01*
X110046668Y-66002640D01*
X110052579Y-66007024D01*
X110058033Y-66011967D01*
X110062976Y-66017421D01*
X110067360Y-66023332D01*
X110071144Y-66029645D01*
X110074291Y-66036299D01*
X110076771Y-66043229D01*
X110078559Y-66050368D01*
X110079639Y-66057649D01*
X110080000Y-66065000D01*
X110080000Y-67390000D01*
X110079639Y-67397351D01*
X110078559Y-67404632D01*
X110076771Y-67411771D01*
X110074291Y-67418701D01*
X110071144Y-67425355D01*
X110067360Y-67431668D01*
X110062976Y-67437579D01*
X110058033Y-67443033D01*
X110052579Y-67447976D01*
X110046668Y-67452360D01*
X110040355Y-67456144D01*
X110033701Y-67459291D01*
X110026771Y-67461771D01*
X110019632Y-67463559D01*
X110012351Y-67464639D01*
X110005000Y-67465000D01*
X109855000Y-67465000D01*
X109847649Y-67464639D01*
X109840368Y-67463559D01*
X109833229Y-67461771D01*
X109826299Y-67459291D01*
X109819645Y-67456144D01*
X109813332Y-67452360D01*
X109807421Y-67447976D01*
X109801967Y-67443033D01*
X109797024Y-67437579D01*
X109792640Y-67431668D01*
X109788856Y-67425355D01*
X109785709Y-67418701D01*
X109783229Y-67411771D01*
X109781441Y-67404632D01*
X109780361Y-67397351D01*
X109780000Y-67390000D01*
X109780000Y-66065000D01*
X109780361Y-66057649D01*
X109781441Y-66050368D01*
X109783229Y-66043229D01*
X109785709Y-66036299D01*
X109788856Y-66029645D01*
X109792640Y-66023332D01*
X109797024Y-66017421D01*
X109801967Y-66011967D01*
X109807421Y-66007024D01*
X109813332Y-66002640D01*
X109819645Y-65998856D01*
X109826299Y-65995709D01*
X109833229Y-65993229D01*
X109840368Y-65991441D01*
X109847649Y-65990361D01*
X109855000Y-65990000D01*
X110005000Y-65990000D01*
X110012351Y-65990361D01*
G37*
G36*
X110512351Y-65990361D02*
G01*
X110519632Y-65991441D01*
X110526771Y-65993229D01*
X110533701Y-65995709D01*
X110540355Y-65998856D01*
X110546668Y-66002640D01*
X110552579Y-66007024D01*
X110558033Y-66011967D01*
X110562976Y-66017421D01*
X110567360Y-66023332D01*
X110571144Y-66029645D01*
X110574291Y-66036299D01*
X110576771Y-66043229D01*
X110578559Y-66050368D01*
X110579639Y-66057649D01*
X110580000Y-66065000D01*
X110580000Y-67390000D01*
X110579639Y-67397351D01*
X110578559Y-67404632D01*
X110576771Y-67411771D01*
X110574291Y-67418701D01*
X110571144Y-67425355D01*
X110567360Y-67431668D01*
X110562976Y-67437579D01*
X110558033Y-67443033D01*
X110552579Y-67447976D01*
X110546668Y-67452360D01*
X110540355Y-67456144D01*
X110533701Y-67459291D01*
X110526771Y-67461771D01*
X110519632Y-67463559D01*
X110512351Y-67464639D01*
X110505000Y-67465000D01*
X110355000Y-67465000D01*
X110347649Y-67464639D01*
X110340368Y-67463559D01*
X110333229Y-67461771D01*
X110326299Y-67459291D01*
X110319645Y-67456144D01*
X110313332Y-67452360D01*
X110307421Y-67447976D01*
X110301967Y-67443033D01*
X110297024Y-67437579D01*
X110292640Y-67431668D01*
X110288856Y-67425355D01*
X110285709Y-67418701D01*
X110283229Y-67411771D01*
X110281441Y-67404632D01*
X110280361Y-67397351D01*
X110280000Y-67390000D01*
X110280000Y-66065000D01*
X110280361Y-66057649D01*
X110281441Y-66050368D01*
X110283229Y-66043229D01*
X110285709Y-66036299D01*
X110288856Y-66029645D01*
X110292640Y-66023332D01*
X110297024Y-66017421D01*
X110301967Y-66011967D01*
X110307421Y-66007024D01*
X110313332Y-66002640D01*
X110319645Y-65998856D01*
X110326299Y-65995709D01*
X110333229Y-65993229D01*
X110340368Y-65991441D01*
X110347649Y-65990361D01*
X110355000Y-65990000D01*
X110505000Y-65990000D01*
X110512351Y-65990361D01*
G37*
D14*
X99060000Y-48260000D03*
D15*
X114300000Y-96520000D03*
X99060000Y-50800000D03*
X114300000Y-93980000D03*
X99060000Y-53340000D03*
X114300000Y-91440000D03*
X99060000Y-55880000D03*
X114300000Y-88900000D03*
X99060000Y-58420000D03*
X114300000Y-86360000D03*
X99060000Y-60960000D03*
X114300000Y-83820000D03*
X99060000Y-63500000D03*
X114300000Y-81280000D03*
X99060000Y-66040000D03*
X114300000Y-78740000D03*
X99060000Y-68580000D03*
X114300000Y-76200000D03*
X99060000Y-71120000D03*
X114300000Y-73660000D03*
X99060000Y-73660000D03*
X114300000Y-71120000D03*
X99060000Y-76200000D03*
X114300000Y-68580000D03*
X99060000Y-78740000D03*
X114300000Y-66040000D03*
X99060000Y-81280000D03*
X114300000Y-63500000D03*
X99060000Y-83820000D03*
X114300000Y-60960000D03*
X99060000Y-86360000D03*
X114300000Y-58420000D03*
X99060000Y-88900000D03*
X114300000Y-55880000D03*
X99060000Y-91440000D03*
X114300000Y-53340000D03*
X99060000Y-93980000D03*
X114300000Y-50800000D03*
X99060000Y-96520000D03*
X114300000Y-48260000D03*
D16*
X110744000Y-85534500D03*
D17*
X110744000Y-86804500D03*
X110744000Y-88074500D03*
X110744000Y-89344500D03*
X110744000Y-90614500D03*
M02*
