G04 #@! TF.GenerationSoftware,KiCad,Pcbnew,(5.1.5)-3*
G04 #@! TF.CreationDate,2021-01-25T20:45:38-05:00*
G04 #@! TF.ProjectId,DIP40-XC9572XL,44495034-302d-4584-9339-353732584c2e,1*
G04 #@! TF.SameCoordinates,Original*
G04 #@! TF.FileFunction,Soldermask,Top*
G04 #@! TF.FilePolarity,Negative*
%FSLAX46Y46*%
G04 Gerber Fmt 4.6, Leading zero omitted, Abs format (unit mm)*
G04 Created by KiCad (PCBNEW (5.1.5)-3) date 2021-01-25 20:45:38*
%MOMM*%
%LPD*%
G04 APERTURE LIST*
%ADD10R,1.700000X1.700000*%
%ADD11O,1.700000X1.700000*%
%ADD12R,2.510000X1.000000*%
%ADD13R,1.000000X1.500000*%
%ADD14C,0.100000*%
%ADD15R,1.600000X1.600000*%
%ADD16O,1.600000X1.600000*%
%ADD17R,1.000000X1.000000*%
%ADD18O,1.000000X1.000000*%
G04 APERTURE END LIST*
D10*
X102870000Y-96520000D03*
D11*
X102870000Y-93980000D03*
X105410000Y-96520000D03*
X105410000Y-93980000D03*
X107950000Y-93980000D03*
X110490000Y-93980000D03*
D12*
X105025000Y-67310000D03*
X105025000Y-72390000D03*
X105025000Y-77470000D03*
X108335000Y-64770000D03*
X108335000Y-69850000D03*
X108335000Y-74930000D03*
X108335000Y-80010000D03*
D13*
X106680000Y-51435000D03*
D14*
G36*
X107980000Y-50685602D02*
G01*
X108004534Y-50685602D01*
X108053365Y-50690412D01*
X108101490Y-50699984D01*
X108148445Y-50714228D01*
X108193778Y-50733005D01*
X108237051Y-50756136D01*
X108277850Y-50783396D01*
X108315779Y-50814524D01*
X108350476Y-50849221D01*
X108381604Y-50887150D01*
X108408864Y-50927949D01*
X108431995Y-50971222D01*
X108450772Y-51016555D01*
X108465016Y-51063510D01*
X108474588Y-51111635D01*
X108479398Y-51160466D01*
X108479398Y-51185000D01*
X108480000Y-51185000D01*
X108480000Y-51685000D01*
X108479398Y-51685000D01*
X108479398Y-51709534D01*
X108474588Y-51758365D01*
X108465016Y-51806490D01*
X108450772Y-51853445D01*
X108431995Y-51898778D01*
X108408864Y-51942051D01*
X108381604Y-51982850D01*
X108350476Y-52020779D01*
X108315779Y-52055476D01*
X108277850Y-52086604D01*
X108237051Y-52113864D01*
X108193778Y-52136995D01*
X108148445Y-52155772D01*
X108101490Y-52170016D01*
X108053365Y-52179588D01*
X108004534Y-52184398D01*
X107980000Y-52184398D01*
X107980000Y-52185000D01*
X107430000Y-52185000D01*
X107430000Y-50685000D01*
X107980000Y-50685000D01*
X107980000Y-50685602D01*
G37*
G36*
X105930000Y-52185000D02*
G01*
X105380000Y-52185000D01*
X105380000Y-52184398D01*
X105355466Y-52184398D01*
X105306635Y-52179588D01*
X105258510Y-52170016D01*
X105211555Y-52155772D01*
X105166222Y-52136995D01*
X105122949Y-52113864D01*
X105082150Y-52086604D01*
X105044221Y-52055476D01*
X105009524Y-52020779D01*
X104978396Y-51982850D01*
X104951136Y-51942051D01*
X104928005Y-51898778D01*
X104909228Y-51853445D01*
X104894984Y-51806490D01*
X104885412Y-51758365D01*
X104880602Y-51709534D01*
X104880602Y-51685000D01*
X104880000Y-51685000D01*
X104880000Y-51185000D01*
X104880602Y-51185000D01*
X104880602Y-51160466D01*
X104885412Y-51111635D01*
X104894984Y-51063510D01*
X104909228Y-51016555D01*
X104928005Y-50971222D01*
X104951136Y-50927949D01*
X104978396Y-50887150D01*
X105009524Y-50849221D01*
X105044221Y-50814524D01*
X105082150Y-50783396D01*
X105122949Y-50756136D01*
X105166222Y-50733005D01*
X105211555Y-50714228D01*
X105258510Y-50699984D01*
X105306635Y-50690412D01*
X105355466Y-50685602D01*
X105380000Y-50685602D01*
X105380000Y-50685000D01*
X105930000Y-50685000D01*
X105930000Y-52185000D01*
G37*
D13*
X106680000Y-55245000D03*
D14*
G36*
X107980000Y-54495602D02*
G01*
X108004534Y-54495602D01*
X108053365Y-54500412D01*
X108101490Y-54509984D01*
X108148445Y-54524228D01*
X108193778Y-54543005D01*
X108237051Y-54566136D01*
X108277850Y-54593396D01*
X108315779Y-54624524D01*
X108350476Y-54659221D01*
X108381604Y-54697150D01*
X108408864Y-54737949D01*
X108431995Y-54781222D01*
X108450772Y-54826555D01*
X108465016Y-54873510D01*
X108474588Y-54921635D01*
X108479398Y-54970466D01*
X108479398Y-54995000D01*
X108480000Y-54995000D01*
X108480000Y-55495000D01*
X108479398Y-55495000D01*
X108479398Y-55519534D01*
X108474588Y-55568365D01*
X108465016Y-55616490D01*
X108450772Y-55663445D01*
X108431995Y-55708778D01*
X108408864Y-55752051D01*
X108381604Y-55792850D01*
X108350476Y-55830779D01*
X108315779Y-55865476D01*
X108277850Y-55896604D01*
X108237051Y-55923864D01*
X108193778Y-55946995D01*
X108148445Y-55965772D01*
X108101490Y-55980016D01*
X108053365Y-55989588D01*
X108004534Y-55994398D01*
X107980000Y-55994398D01*
X107980000Y-55995000D01*
X107430000Y-55995000D01*
X107430000Y-54495000D01*
X107980000Y-54495000D01*
X107980000Y-54495602D01*
G37*
G36*
X105930000Y-55995000D02*
G01*
X105380000Y-55995000D01*
X105380000Y-55994398D01*
X105355466Y-55994398D01*
X105306635Y-55989588D01*
X105258510Y-55980016D01*
X105211555Y-55965772D01*
X105166222Y-55946995D01*
X105122949Y-55923864D01*
X105082150Y-55896604D01*
X105044221Y-55865476D01*
X105009524Y-55830779D01*
X104978396Y-55792850D01*
X104951136Y-55752051D01*
X104928005Y-55708778D01*
X104909228Y-55663445D01*
X104894984Y-55616490D01*
X104885412Y-55568365D01*
X104880602Y-55519534D01*
X104880602Y-55495000D01*
X104880000Y-55495000D01*
X104880000Y-54995000D01*
X104880602Y-54995000D01*
X104880602Y-54970466D01*
X104885412Y-54921635D01*
X104894984Y-54873510D01*
X104909228Y-54826555D01*
X104928005Y-54781222D01*
X104951136Y-54737949D01*
X104978396Y-54697150D01*
X105009524Y-54659221D01*
X105044221Y-54624524D01*
X105082150Y-54593396D01*
X105122949Y-54566136D01*
X105166222Y-54543005D01*
X105211555Y-54524228D01*
X105258510Y-54509984D01*
X105306635Y-54500412D01*
X105355466Y-54495602D01*
X105380000Y-54495602D01*
X105380000Y-54495000D01*
X105930000Y-54495000D01*
X105930000Y-55995000D01*
G37*
G36*
X105930000Y-59805000D02*
G01*
X105380000Y-59805000D01*
X105380000Y-59804398D01*
X105355466Y-59804398D01*
X105306635Y-59799588D01*
X105258510Y-59790016D01*
X105211555Y-59775772D01*
X105166222Y-59756995D01*
X105122949Y-59733864D01*
X105082150Y-59706604D01*
X105044221Y-59675476D01*
X105009524Y-59640779D01*
X104978396Y-59602850D01*
X104951136Y-59562051D01*
X104928005Y-59518778D01*
X104909228Y-59473445D01*
X104894984Y-59426490D01*
X104885412Y-59378365D01*
X104880602Y-59329534D01*
X104880602Y-59305000D01*
X104880000Y-59305000D01*
X104880000Y-58805000D01*
X104880602Y-58805000D01*
X104880602Y-58780466D01*
X104885412Y-58731635D01*
X104894984Y-58683510D01*
X104909228Y-58636555D01*
X104928005Y-58591222D01*
X104951136Y-58547949D01*
X104978396Y-58507150D01*
X105009524Y-58469221D01*
X105044221Y-58434524D01*
X105082150Y-58403396D01*
X105122949Y-58376136D01*
X105166222Y-58353005D01*
X105211555Y-58334228D01*
X105258510Y-58319984D01*
X105306635Y-58310412D01*
X105355466Y-58305602D01*
X105380000Y-58305602D01*
X105380000Y-58305000D01*
X105930000Y-58305000D01*
X105930000Y-59805000D01*
G37*
G36*
X107980000Y-58305602D02*
G01*
X108004534Y-58305602D01*
X108053365Y-58310412D01*
X108101490Y-58319984D01*
X108148445Y-58334228D01*
X108193778Y-58353005D01*
X108237051Y-58376136D01*
X108277850Y-58403396D01*
X108315779Y-58434524D01*
X108350476Y-58469221D01*
X108381604Y-58507150D01*
X108408864Y-58547949D01*
X108431995Y-58591222D01*
X108450772Y-58636555D01*
X108465016Y-58683510D01*
X108474588Y-58731635D01*
X108479398Y-58780466D01*
X108479398Y-58805000D01*
X108480000Y-58805000D01*
X108480000Y-59305000D01*
X108479398Y-59305000D01*
X108479398Y-59329534D01*
X108474588Y-59378365D01*
X108465016Y-59426490D01*
X108450772Y-59473445D01*
X108431995Y-59518778D01*
X108408864Y-59562051D01*
X108381604Y-59602850D01*
X108350476Y-59640779D01*
X108315779Y-59675476D01*
X108277850Y-59706604D01*
X108237051Y-59733864D01*
X108193778Y-59756995D01*
X108148445Y-59775772D01*
X108101490Y-59790016D01*
X108053365Y-59799588D01*
X108004534Y-59804398D01*
X107980000Y-59804398D01*
X107980000Y-59805000D01*
X107430000Y-59805000D01*
X107430000Y-58305000D01*
X107980000Y-58305000D01*
X107980000Y-58305602D01*
G37*
D13*
X106680000Y-59055000D03*
D14*
G36*
X105930000Y-87110000D02*
G01*
X105380000Y-87110000D01*
X105380000Y-87109398D01*
X105355466Y-87109398D01*
X105306635Y-87104588D01*
X105258510Y-87095016D01*
X105211555Y-87080772D01*
X105166222Y-87061995D01*
X105122949Y-87038864D01*
X105082150Y-87011604D01*
X105044221Y-86980476D01*
X105009524Y-86945779D01*
X104978396Y-86907850D01*
X104951136Y-86867051D01*
X104928005Y-86823778D01*
X104909228Y-86778445D01*
X104894984Y-86731490D01*
X104885412Y-86683365D01*
X104880602Y-86634534D01*
X104880602Y-86610000D01*
X104880000Y-86610000D01*
X104880000Y-86110000D01*
X104880602Y-86110000D01*
X104880602Y-86085466D01*
X104885412Y-86036635D01*
X104894984Y-85988510D01*
X104909228Y-85941555D01*
X104928005Y-85896222D01*
X104951136Y-85852949D01*
X104978396Y-85812150D01*
X105009524Y-85774221D01*
X105044221Y-85739524D01*
X105082150Y-85708396D01*
X105122949Y-85681136D01*
X105166222Y-85658005D01*
X105211555Y-85639228D01*
X105258510Y-85624984D01*
X105306635Y-85615412D01*
X105355466Y-85610602D01*
X105380000Y-85610602D01*
X105380000Y-85610000D01*
X105930000Y-85610000D01*
X105930000Y-87110000D01*
G37*
G36*
X107980000Y-85610602D02*
G01*
X108004534Y-85610602D01*
X108053365Y-85615412D01*
X108101490Y-85624984D01*
X108148445Y-85639228D01*
X108193778Y-85658005D01*
X108237051Y-85681136D01*
X108277850Y-85708396D01*
X108315779Y-85739524D01*
X108350476Y-85774221D01*
X108381604Y-85812150D01*
X108408864Y-85852949D01*
X108431995Y-85896222D01*
X108450772Y-85941555D01*
X108465016Y-85988510D01*
X108474588Y-86036635D01*
X108479398Y-86085466D01*
X108479398Y-86110000D01*
X108480000Y-86110000D01*
X108480000Y-86610000D01*
X108479398Y-86610000D01*
X108479398Y-86634534D01*
X108474588Y-86683365D01*
X108465016Y-86731490D01*
X108450772Y-86778445D01*
X108431995Y-86823778D01*
X108408864Y-86867051D01*
X108381604Y-86907850D01*
X108350476Y-86945779D01*
X108315779Y-86980476D01*
X108277850Y-87011604D01*
X108237051Y-87038864D01*
X108193778Y-87061995D01*
X108148445Y-87080772D01*
X108101490Y-87095016D01*
X108053365Y-87104588D01*
X108004534Y-87109398D01*
X107980000Y-87109398D01*
X107980000Y-87110000D01*
X107430000Y-87110000D01*
X107430000Y-85610000D01*
X107980000Y-85610000D01*
X107980000Y-85610602D01*
G37*
D13*
X106680000Y-86360000D03*
D14*
G36*
X105930000Y-90920000D02*
G01*
X105380000Y-90920000D01*
X105380000Y-90919398D01*
X105355466Y-90919398D01*
X105306635Y-90914588D01*
X105258510Y-90905016D01*
X105211555Y-90890772D01*
X105166222Y-90871995D01*
X105122949Y-90848864D01*
X105082150Y-90821604D01*
X105044221Y-90790476D01*
X105009524Y-90755779D01*
X104978396Y-90717850D01*
X104951136Y-90677051D01*
X104928005Y-90633778D01*
X104909228Y-90588445D01*
X104894984Y-90541490D01*
X104885412Y-90493365D01*
X104880602Y-90444534D01*
X104880602Y-90420000D01*
X104880000Y-90420000D01*
X104880000Y-89920000D01*
X104880602Y-89920000D01*
X104880602Y-89895466D01*
X104885412Y-89846635D01*
X104894984Y-89798510D01*
X104909228Y-89751555D01*
X104928005Y-89706222D01*
X104951136Y-89662949D01*
X104978396Y-89622150D01*
X105009524Y-89584221D01*
X105044221Y-89549524D01*
X105082150Y-89518396D01*
X105122949Y-89491136D01*
X105166222Y-89468005D01*
X105211555Y-89449228D01*
X105258510Y-89434984D01*
X105306635Y-89425412D01*
X105355466Y-89420602D01*
X105380000Y-89420602D01*
X105380000Y-89420000D01*
X105930000Y-89420000D01*
X105930000Y-90920000D01*
G37*
G36*
X107980000Y-89420602D02*
G01*
X108004534Y-89420602D01*
X108053365Y-89425412D01*
X108101490Y-89434984D01*
X108148445Y-89449228D01*
X108193778Y-89468005D01*
X108237051Y-89491136D01*
X108277850Y-89518396D01*
X108315779Y-89549524D01*
X108350476Y-89584221D01*
X108381604Y-89622150D01*
X108408864Y-89662949D01*
X108431995Y-89706222D01*
X108450772Y-89751555D01*
X108465016Y-89798510D01*
X108474588Y-89846635D01*
X108479398Y-89895466D01*
X108479398Y-89920000D01*
X108480000Y-89920000D01*
X108480000Y-90420000D01*
X108479398Y-90420000D01*
X108479398Y-90444534D01*
X108474588Y-90493365D01*
X108465016Y-90541490D01*
X108450772Y-90588445D01*
X108431995Y-90633778D01*
X108408864Y-90677051D01*
X108381604Y-90717850D01*
X108350476Y-90755779D01*
X108315779Y-90790476D01*
X108277850Y-90821604D01*
X108237051Y-90848864D01*
X108193778Y-90871995D01*
X108148445Y-90890772D01*
X108101490Y-90905016D01*
X108053365Y-90914588D01*
X108004534Y-90919398D01*
X107980000Y-90919398D01*
X107980000Y-90920000D01*
X107430000Y-90920000D01*
X107430000Y-89420000D01*
X107980000Y-89420000D01*
X107980000Y-89420602D01*
G37*
D13*
X106680000Y-90170000D03*
D15*
X99060000Y-48260000D03*
D16*
X114300000Y-96520000D03*
X99060000Y-50800000D03*
X114300000Y-93980000D03*
X99060000Y-53340000D03*
X114300000Y-91440000D03*
X99060000Y-55880000D03*
X114300000Y-88900000D03*
X99060000Y-58420000D03*
X114300000Y-86360000D03*
X99060000Y-60960000D03*
X114300000Y-83820000D03*
X99060000Y-63500000D03*
X114300000Y-81280000D03*
X99060000Y-66040000D03*
X114300000Y-78740000D03*
X99060000Y-68580000D03*
X114300000Y-76200000D03*
X99060000Y-71120000D03*
X114300000Y-73660000D03*
X99060000Y-73660000D03*
X114300000Y-71120000D03*
X99060000Y-76200000D03*
X114300000Y-68580000D03*
X99060000Y-78740000D03*
X114300000Y-66040000D03*
X99060000Y-81280000D03*
X114300000Y-63500000D03*
X99060000Y-83820000D03*
X114300000Y-60960000D03*
X99060000Y-86360000D03*
X114300000Y-58420000D03*
X99060000Y-88900000D03*
X114300000Y-55880000D03*
X99060000Y-91440000D03*
X114300000Y-53340000D03*
X99060000Y-93980000D03*
X114300000Y-50800000D03*
X99060000Y-96520000D03*
X114300000Y-48260000D03*
D17*
X110744000Y-85534500D03*
D18*
X110744000Y-86804500D03*
X110744000Y-88074500D03*
X110744000Y-89344500D03*
X110744000Y-90614500D03*
M02*
