%FSLAX45Y45*%
G04 Gerber Fmt 4.5, Leading zero omitted, Abs format (unit mm)*
G04 Created by KiCad (PCBNEW (5.1.5)-3) date 2021-01-25 20:45:40*
%MOMM*%
%LPD*%
G04 APERTURE LIST*
%TA.AperFunction,Profile*%
%ADD10C,0.100000*%
%TD*%
%ADD11C,0.200000*%
%ADD12C,0.300000*%
G04 APERTURE END LIST*
D10*
X9791700Y-9766300D02*
X9791700Y-4711700D01*
X11544300Y-9766300D02*
X9791700Y-9766300D01*
X11544300Y-4711700D02*
X11544300Y-9766300D01*
X9791700Y-4711700D02*
X11544300Y-4711700D01*
D11*
D12*
X10073128Y-10237014D02*
X10073128Y-9937014D01*
X10144557Y-9937014D01*
X10187414Y-9951300D01*
X10215986Y-9979872D01*
X10230271Y-10008443D01*
X10244557Y-10065586D01*
X10244557Y-10108443D01*
X10230271Y-10165586D01*
X10215986Y-10194157D01*
X10187414Y-10222729D01*
X10144557Y-10237014D01*
X10073128Y-10237014D01*
X10373128Y-10237014D02*
X10373128Y-10037014D01*
X10373128Y-10094157D02*
X10387414Y-10065586D01*
X10401700Y-10051300D01*
X10430271Y-10037014D01*
X10458843Y-10037014D01*
X10558843Y-10237014D02*
X10558843Y-10037014D01*
X10558843Y-9937014D02*
X10544557Y-9951300D01*
X10558843Y-9965586D01*
X10573128Y-9951300D01*
X10558843Y-9937014D01*
X10558843Y-9965586D01*
X10744557Y-10237014D02*
X10715986Y-10222729D01*
X10701700Y-10194157D01*
X10701700Y-9937014D01*
X10901700Y-10237014D02*
X10873128Y-10222729D01*
X10858843Y-10194157D01*
X10858843Y-9937014D01*
X11244557Y-10237014D02*
X11244557Y-9937014D01*
X11344557Y-10151300D01*
X11444557Y-9937014D01*
X11444557Y-10237014D01*
X11715986Y-10237014D02*
X11715986Y-10079872D01*
X11701700Y-10051300D01*
X11673128Y-10037014D01*
X11615986Y-10037014D01*
X11587414Y-10051300D01*
X11715986Y-10222729D02*
X11687414Y-10237014D01*
X11615986Y-10237014D01*
X11587414Y-10222729D01*
X11573128Y-10194157D01*
X11573128Y-10165586D01*
X11587414Y-10137014D01*
X11615986Y-10122729D01*
X11687414Y-10122729D01*
X11715986Y-10108443D01*
X11858843Y-10037014D02*
X11858843Y-10337014D01*
X11858843Y-10051300D02*
X11887414Y-10037014D01*
X11944557Y-10037014D01*
X11973128Y-10051300D01*
X11987414Y-10065586D01*
X12001700Y-10094157D01*
X12001700Y-10179872D01*
X11987414Y-10208443D01*
X11973128Y-10222729D01*
X11944557Y-10237014D01*
X11887414Y-10237014D01*
X11858843Y-10222729D01*
X12130271Y-10208443D02*
X12144557Y-10222729D01*
X12130271Y-10237014D01*
X12115986Y-10222729D01*
X12130271Y-10208443D01*
X12130271Y-10237014D01*
X12130271Y-10051300D02*
X12144557Y-10065586D01*
X12130271Y-10079872D01*
X12115986Y-10065586D01*
X12130271Y-10051300D01*
X12130271Y-10079872D01*
M02*
