M48
; DRILL file {KiCad (5.1.5)-3} date 1/25/2021 8:45:40 PM
; FORMAT={-:-/ absolute / inch / decimal}
; #@! TF.CreationDate,2021-01-25T20:45:40-05:00
; #@! TF.GenerationSoftware,Kicad,Pcbnew,(5.1.5)-3
; #@! TF.FileFunction,Plated,1,2,PTH
FMAT,2
INCH
T1C0.0118
T2C0.0157
T3C0.0256
T4C0.0315
T5C0.0394
%
G90
G05
T1
X3.9688Y-3.1713
X3.985Y-3.155
X3.9888Y-3.2763
X3.99Y-1.9625
X4.01Y-3.305
X4.0243Y-2.8993
X4.025Y-2.87
X4.0275Y-2.7675
X4.03Y-3.4975
X4.0325Y-2.7925
X4.0425Y-2.14
X4.06Y-3.4
X4.0725Y-2.3975
X4.08Y-3.5775
X4.09Y-2.98
X4.1Y-3.75
X4.1025Y-3.31
X4.1225Y-3.1625
X4.125Y-3.2875
X4.1288Y-3.2138
X4.1325Y-2.91
X4.14Y-3.535
X4.1475Y-3.2675
X4.16Y-2.195
X4.16Y-2.345
X4.163Y-2.69
X4.175Y-2.86
X4.1902Y-2.1202
X4.195Y-2.79
X4.2075Y-2.715
X4.225Y-2.94
X4.25Y-2.885
X4.2675Y-2.85
X4.2725Y-2.9025
X4.2925Y-2.8225
X4.3125Y-3.8
X4.315Y-3.3275
X4.335Y-3.235
X4.3725Y-2.9225
X4.3725Y-2.9475
X4.3774Y-2.8676
X4.3784Y-2.8991
X4.3793Y-2.8007
X4.3797Y-2.8403
X4.3875Y-3.11
X4.4275Y-2.5925
T2
X4.1Y-2.745
X4.1325Y-2.79
X4.1675Y-2.97
X4.2075Y-3.02
X4.2512Y-3.55
X4.255Y-2.165
X4.2903Y-3.2753
X4.2975Y-2.6825
X4.3Y-3.02
X4.305Y-3.2025
X4.325Y-1.9596
X4.325Y-2.0404
X4.3759Y-2.7416
X4.39Y-3.6175
T3
X4.36Y-3.3675
X4.36Y-3.4175
X4.36Y-3.4675
X4.36Y-3.5175
X4.36Y-3.5675
T4
X3.9Y-1.9
X3.9Y-2.0
X3.9Y-2.1
X3.9Y-2.2
X3.9Y-2.3
X3.9Y-2.4
X3.9Y-2.5
X3.9Y-2.6
X3.9Y-2.7
X3.9Y-2.8
X3.9Y-2.9
X3.9Y-3.0
X3.9Y-3.1
X3.9Y-3.2
X3.9Y-3.3
X3.9Y-3.4
X3.9Y-3.5
X3.9Y-3.6
X3.9Y-3.7
X3.9Y-3.8
X4.5Y-1.9
X4.5Y-2.0
X4.5Y-2.1
X4.5Y-2.2
X4.5Y-2.3
X4.5Y-2.4
X4.5Y-2.5
X4.5Y-2.6
X4.5Y-2.7
X4.5Y-2.8
X4.5Y-2.9
X4.5Y-3.0
X4.5Y-3.1
X4.5Y-3.2
X4.5Y-3.3
X4.5Y-3.4
X4.5Y-3.5
X4.5Y-3.6
X4.5Y-3.7
X4.5Y-3.8
T5
X4.05Y-3.7
X4.05Y-3.8
X4.15Y-3.7
X4.15Y-3.8
X4.25Y-3.7
X4.35Y-3.7
T0
M30
