G04 #@! TF.GenerationSoftware,KiCad,Pcbnew,(5.1.2)-1*
G04 #@! TF.CreationDate,2020-03-13T04:35:35-04:00*
G04 #@! TF.ProjectId,6502-65816,36353032-2d36-4353-9831-362e6b696361,rev?*
G04 #@! TF.SameCoordinates,Original*
G04 #@! TF.FileFunction,Legend,Bot*
G04 #@! TF.FilePolarity,Positive*
%FSLAX46Y46*%
G04 Gerber Fmt 4.6, Leading zero omitted, Abs format (unit mm)*
G04 Created by KiCad (PCBNEW (5.1.2)-1) date 2020-03-13 04:35:35*
%MOMM*%
%LPD*%
G04 APERTURE LIST*
%ADD10C,0.300000*%
%ADD11C,0.120000*%
%ADD12C,0.150000*%
G04 APERTURE END LIST*
D10*
X89193285Y-53209000D02*
X88479000Y-53209000D01*
X89336142Y-53637571D02*
X88836142Y-52137571D01*
X88336142Y-53637571D01*
X87336142Y-52851857D02*
X87121857Y-52923285D01*
X87050428Y-52994714D01*
X86979000Y-53137571D01*
X86979000Y-53351857D01*
X87050428Y-53494714D01*
X87121857Y-53566142D01*
X87264714Y-53637571D01*
X87836142Y-53637571D01*
X87836142Y-52137571D01*
X87336142Y-52137571D01*
X87193285Y-52209000D01*
X87121857Y-52280428D01*
X87050428Y-52423285D01*
X87050428Y-52566142D01*
X87121857Y-52709000D01*
X87193285Y-52780428D01*
X87336142Y-52851857D01*
X87836142Y-52851857D01*
X86050428Y-52137571D02*
X85764714Y-52137571D01*
X85621857Y-52209000D01*
X85479000Y-52351857D01*
X85407571Y-52637571D01*
X85407571Y-53137571D01*
X85479000Y-53423285D01*
X85621857Y-53566142D01*
X85764714Y-53637571D01*
X86050428Y-53637571D01*
X86193285Y-53566142D01*
X86336142Y-53423285D01*
X86407571Y-53137571D01*
X86407571Y-52637571D01*
X86336142Y-52351857D01*
X86193285Y-52209000D01*
X86050428Y-52137571D01*
X83907571Y-53637571D02*
X84407571Y-52923285D01*
X84764714Y-53637571D02*
X84764714Y-52137571D01*
X84193285Y-52137571D01*
X84050428Y-52209000D01*
X83979000Y-52280428D01*
X83907571Y-52423285D01*
X83907571Y-52637571D01*
X83979000Y-52780428D01*
X84050428Y-52851857D01*
X84193285Y-52923285D01*
X84764714Y-52923285D01*
X83479000Y-52137571D02*
X82621857Y-52137571D01*
X83050428Y-53637571D02*
X83050428Y-52137571D01*
D11*
X89610000Y-63761252D02*
X89610000Y-63238748D01*
X88190000Y-63761252D02*
X88190000Y-63238748D01*
X85650000Y-63761252D02*
X85650000Y-63238748D01*
X87070000Y-63761252D02*
X87070000Y-63238748D01*
X87046000Y-56426000D02*
X87046000Y-54826000D01*
X90246000Y-54826000D02*
X90246000Y-57126000D01*
D12*
X89352380Y-63333333D02*
X88876190Y-63000000D01*
X89352380Y-62761904D02*
X88352380Y-62761904D01*
X88352380Y-63142857D01*
X88400000Y-63238095D01*
X88447619Y-63285714D01*
X88542857Y-63333333D01*
X88685714Y-63333333D01*
X88780952Y-63285714D01*
X88828571Y-63238095D01*
X88876190Y-63142857D01*
X88876190Y-62761904D01*
X89352380Y-64285714D02*
X89352380Y-63714285D01*
X89352380Y-64000000D02*
X88352380Y-64000000D01*
X88495238Y-63904761D01*
X88590476Y-63809523D01*
X88638095Y-63714285D01*
X86812380Y-63333333D02*
X86336190Y-63000000D01*
X86812380Y-62761904D02*
X85812380Y-62761904D01*
X85812380Y-63142857D01*
X85860000Y-63238095D01*
X85907619Y-63285714D01*
X86002857Y-63333333D01*
X86145714Y-63333333D01*
X86240952Y-63285714D01*
X86288571Y-63238095D01*
X86336190Y-63142857D01*
X86336190Y-62761904D01*
X85907619Y-63714285D02*
X85860000Y-63761904D01*
X85812380Y-63857142D01*
X85812380Y-64095238D01*
X85860000Y-64190476D01*
X85907619Y-64238095D01*
X86002857Y-64285714D01*
X86098095Y-64285714D01*
X86240952Y-64238095D01*
X86812380Y-63666666D01*
X86812380Y-64285714D01*
X90548380Y-54864095D02*
X91357904Y-54864095D01*
X91453142Y-54911714D01*
X91500761Y-54959333D01*
X91548380Y-55054571D01*
X91548380Y-55245047D01*
X91500761Y-55340285D01*
X91453142Y-55387904D01*
X91357904Y-55435523D01*
X90548380Y-55435523D01*
X91548380Y-56435523D02*
X91548380Y-55864095D01*
X91548380Y-56149809D02*
X90548380Y-56149809D01*
X90691238Y-56054571D01*
X90786476Y-55959333D01*
X90834095Y-55864095D01*
M02*
