G04 #@! TF.GenerationSoftware,KiCad,Pcbnew,(5.1.2)-1*
G04 #@! TF.CreationDate,2020-03-13T04:35:35-04:00*
G04 #@! TF.ProjectId,6502-65816,36353032-2d36-4353-9831-362e6b696361,rev?*
G04 #@! TF.SameCoordinates,Original*
G04 #@! TF.FileFunction,Copper,L2,Bot*
G04 #@! TF.FilePolarity,Positive*
%FSLAX46Y46*%
G04 Gerber Fmt 4.6, Leading zero omitted, Abs format (unit mm)*
G04 Created by KiCad (PCBNEW (5.1.2)-1) date 2020-03-13 04:35:35*
%MOMM*%
%LPD*%
G04 APERTURE LIST*
%ADD10C,0.100000*%
%ADD11C,1.150000*%
%ADD12R,0.510000X0.700000*%
%ADD13R,1.600000X1.600000*%
%ADD14O,1.600000X1.600000*%
%ADD15R,1.700000X1.700000*%
%ADD16O,1.700000X1.700000*%
%ADD17C,0.350000*%
%ADD18C,0.800000*%
%ADD19C,0.534000*%
%ADD20C,1.500000*%
%ADD21C,0.237000*%
G04 APERTURE END LIST*
D10*
G36*
X89374505Y-63951204D02*
G01*
X89398773Y-63954804D01*
X89422572Y-63960765D01*
X89445671Y-63969030D01*
X89467850Y-63979520D01*
X89488893Y-63992132D01*
X89508599Y-64006747D01*
X89526777Y-64023223D01*
X89543253Y-64041401D01*
X89557868Y-64061107D01*
X89570480Y-64082150D01*
X89580970Y-64104329D01*
X89589235Y-64127428D01*
X89595196Y-64151227D01*
X89598796Y-64175495D01*
X89600000Y-64199999D01*
X89600000Y-64850001D01*
X89598796Y-64874505D01*
X89595196Y-64898773D01*
X89589235Y-64922572D01*
X89580970Y-64945671D01*
X89570480Y-64967850D01*
X89557868Y-64988893D01*
X89543253Y-65008599D01*
X89526777Y-65026777D01*
X89508599Y-65043253D01*
X89488893Y-65057868D01*
X89467850Y-65070480D01*
X89445671Y-65080970D01*
X89422572Y-65089235D01*
X89398773Y-65095196D01*
X89374505Y-65098796D01*
X89350001Y-65100000D01*
X88449999Y-65100000D01*
X88425495Y-65098796D01*
X88401227Y-65095196D01*
X88377428Y-65089235D01*
X88354329Y-65080970D01*
X88332150Y-65070480D01*
X88311107Y-65057868D01*
X88291401Y-65043253D01*
X88273223Y-65026777D01*
X88256747Y-65008599D01*
X88242132Y-64988893D01*
X88229520Y-64967850D01*
X88219030Y-64945671D01*
X88210765Y-64922572D01*
X88204804Y-64898773D01*
X88201204Y-64874505D01*
X88200000Y-64850001D01*
X88200000Y-64199999D01*
X88201204Y-64175495D01*
X88204804Y-64151227D01*
X88210765Y-64127428D01*
X88219030Y-64104329D01*
X88229520Y-64082150D01*
X88242132Y-64061107D01*
X88256747Y-64041401D01*
X88273223Y-64023223D01*
X88291401Y-64006747D01*
X88311107Y-63992132D01*
X88332150Y-63979520D01*
X88354329Y-63969030D01*
X88377428Y-63960765D01*
X88401227Y-63954804D01*
X88425495Y-63951204D01*
X88449999Y-63950000D01*
X89350001Y-63950000D01*
X89374505Y-63951204D01*
X89374505Y-63951204D01*
G37*
D11*
X88900000Y-64525000D03*
D10*
G36*
X89374505Y-61901204D02*
G01*
X89398773Y-61904804D01*
X89422572Y-61910765D01*
X89445671Y-61919030D01*
X89467850Y-61929520D01*
X89488893Y-61942132D01*
X89508599Y-61956747D01*
X89526777Y-61973223D01*
X89543253Y-61991401D01*
X89557868Y-62011107D01*
X89570480Y-62032150D01*
X89580970Y-62054329D01*
X89589235Y-62077428D01*
X89595196Y-62101227D01*
X89598796Y-62125495D01*
X89600000Y-62149999D01*
X89600000Y-62800001D01*
X89598796Y-62824505D01*
X89595196Y-62848773D01*
X89589235Y-62872572D01*
X89580970Y-62895671D01*
X89570480Y-62917850D01*
X89557868Y-62938893D01*
X89543253Y-62958599D01*
X89526777Y-62976777D01*
X89508599Y-62993253D01*
X89488893Y-63007868D01*
X89467850Y-63020480D01*
X89445671Y-63030970D01*
X89422572Y-63039235D01*
X89398773Y-63045196D01*
X89374505Y-63048796D01*
X89350001Y-63050000D01*
X88449999Y-63050000D01*
X88425495Y-63048796D01*
X88401227Y-63045196D01*
X88377428Y-63039235D01*
X88354329Y-63030970D01*
X88332150Y-63020480D01*
X88311107Y-63007868D01*
X88291401Y-62993253D01*
X88273223Y-62976777D01*
X88256747Y-62958599D01*
X88242132Y-62938893D01*
X88229520Y-62917850D01*
X88219030Y-62895671D01*
X88210765Y-62872572D01*
X88204804Y-62848773D01*
X88201204Y-62824505D01*
X88200000Y-62800001D01*
X88200000Y-62149999D01*
X88201204Y-62125495D01*
X88204804Y-62101227D01*
X88210765Y-62077428D01*
X88219030Y-62054329D01*
X88229520Y-62032150D01*
X88242132Y-62011107D01*
X88256747Y-61991401D01*
X88273223Y-61973223D01*
X88291401Y-61956747D01*
X88311107Y-61942132D01*
X88332150Y-61929520D01*
X88354329Y-61919030D01*
X88377428Y-61910765D01*
X88401227Y-61904804D01*
X88425495Y-61901204D01*
X88449999Y-61900000D01*
X89350001Y-61900000D01*
X89374505Y-61901204D01*
X89374505Y-61901204D01*
G37*
D11*
X88900000Y-62475000D03*
D10*
G36*
X86834505Y-61901204D02*
G01*
X86858773Y-61904804D01*
X86882572Y-61910765D01*
X86905671Y-61919030D01*
X86927850Y-61929520D01*
X86948893Y-61942132D01*
X86968599Y-61956747D01*
X86986777Y-61973223D01*
X87003253Y-61991401D01*
X87017868Y-62011107D01*
X87030480Y-62032150D01*
X87040970Y-62054329D01*
X87049235Y-62077428D01*
X87055196Y-62101227D01*
X87058796Y-62125495D01*
X87060000Y-62149999D01*
X87060000Y-62800001D01*
X87058796Y-62824505D01*
X87055196Y-62848773D01*
X87049235Y-62872572D01*
X87040970Y-62895671D01*
X87030480Y-62917850D01*
X87017868Y-62938893D01*
X87003253Y-62958599D01*
X86986777Y-62976777D01*
X86968599Y-62993253D01*
X86948893Y-63007868D01*
X86927850Y-63020480D01*
X86905671Y-63030970D01*
X86882572Y-63039235D01*
X86858773Y-63045196D01*
X86834505Y-63048796D01*
X86810001Y-63050000D01*
X85909999Y-63050000D01*
X85885495Y-63048796D01*
X85861227Y-63045196D01*
X85837428Y-63039235D01*
X85814329Y-63030970D01*
X85792150Y-63020480D01*
X85771107Y-63007868D01*
X85751401Y-62993253D01*
X85733223Y-62976777D01*
X85716747Y-62958599D01*
X85702132Y-62938893D01*
X85689520Y-62917850D01*
X85679030Y-62895671D01*
X85670765Y-62872572D01*
X85664804Y-62848773D01*
X85661204Y-62824505D01*
X85660000Y-62800001D01*
X85660000Y-62149999D01*
X85661204Y-62125495D01*
X85664804Y-62101227D01*
X85670765Y-62077428D01*
X85679030Y-62054329D01*
X85689520Y-62032150D01*
X85702132Y-62011107D01*
X85716747Y-61991401D01*
X85733223Y-61973223D01*
X85751401Y-61956747D01*
X85771107Y-61942132D01*
X85792150Y-61929520D01*
X85814329Y-61919030D01*
X85837428Y-61910765D01*
X85861227Y-61904804D01*
X85885495Y-61901204D01*
X85909999Y-61900000D01*
X86810001Y-61900000D01*
X86834505Y-61901204D01*
X86834505Y-61901204D01*
G37*
D11*
X86360000Y-62475000D03*
D10*
G36*
X86834505Y-63951204D02*
G01*
X86858773Y-63954804D01*
X86882572Y-63960765D01*
X86905671Y-63969030D01*
X86927850Y-63979520D01*
X86948893Y-63992132D01*
X86968599Y-64006747D01*
X86986777Y-64023223D01*
X87003253Y-64041401D01*
X87017868Y-64061107D01*
X87030480Y-64082150D01*
X87040970Y-64104329D01*
X87049235Y-64127428D01*
X87055196Y-64151227D01*
X87058796Y-64175495D01*
X87060000Y-64199999D01*
X87060000Y-64850001D01*
X87058796Y-64874505D01*
X87055196Y-64898773D01*
X87049235Y-64922572D01*
X87040970Y-64945671D01*
X87030480Y-64967850D01*
X87017868Y-64988893D01*
X87003253Y-65008599D01*
X86986777Y-65026777D01*
X86968599Y-65043253D01*
X86948893Y-65057868D01*
X86927850Y-65070480D01*
X86905671Y-65080970D01*
X86882572Y-65089235D01*
X86858773Y-65095196D01*
X86834505Y-65098796D01*
X86810001Y-65100000D01*
X85909999Y-65100000D01*
X85885495Y-65098796D01*
X85861227Y-65095196D01*
X85837428Y-65089235D01*
X85814329Y-65080970D01*
X85792150Y-65070480D01*
X85771107Y-65057868D01*
X85751401Y-65043253D01*
X85733223Y-65026777D01*
X85716747Y-65008599D01*
X85702132Y-64988893D01*
X85689520Y-64967850D01*
X85679030Y-64945671D01*
X85670765Y-64922572D01*
X85664804Y-64898773D01*
X85661204Y-64874505D01*
X85660000Y-64850001D01*
X85660000Y-64199999D01*
X85661204Y-64175495D01*
X85664804Y-64151227D01*
X85670765Y-64127428D01*
X85679030Y-64104329D01*
X85689520Y-64082150D01*
X85702132Y-64061107D01*
X85716747Y-64041401D01*
X85733223Y-64023223D01*
X85751401Y-64006747D01*
X85771107Y-63992132D01*
X85792150Y-63979520D01*
X85814329Y-63969030D01*
X85837428Y-63960765D01*
X85861227Y-63954804D01*
X85885495Y-63951204D01*
X85909999Y-63950000D01*
X86810001Y-63950000D01*
X86834505Y-63951204D01*
X86834505Y-63951204D01*
G37*
D11*
X86360000Y-64525000D03*
D12*
X89596000Y-56786000D03*
X88646000Y-56786000D03*
X87696000Y-56786000D03*
X87696000Y-54466000D03*
X88646000Y-54466000D03*
X89596000Y-54466000D03*
D13*
X78740000Y-50800000D03*
D14*
X93980000Y-99060000D03*
X78740000Y-53340000D03*
X93980000Y-96520000D03*
X78740000Y-55880000D03*
X93980000Y-93980000D03*
X78740000Y-58420000D03*
X93980000Y-91440000D03*
X78740000Y-60960000D03*
X93980000Y-88900000D03*
X78740000Y-63500000D03*
X93980000Y-86360000D03*
X78740000Y-66040000D03*
X93980000Y-83820000D03*
X78740000Y-68580000D03*
X93980000Y-81280000D03*
X78740000Y-71120000D03*
X93980000Y-78740000D03*
X78740000Y-73660000D03*
X93980000Y-76200000D03*
X78740000Y-76200000D03*
X93980000Y-73660000D03*
X78740000Y-78740000D03*
X93980000Y-71120000D03*
X78740000Y-81280000D03*
X93980000Y-68580000D03*
X78740000Y-83820000D03*
X93980000Y-66040000D03*
X78740000Y-86360000D03*
X93980000Y-63500000D03*
X78740000Y-88900000D03*
X93980000Y-60960000D03*
X78740000Y-91440000D03*
X93980000Y-58420000D03*
X78740000Y-93980000D03*
X93980000Y-55880000D03*
X78740000Y-96520000D03*
X93980000Y-53340000D03*
X78740000Y-99060000D03*
X93980000Y-50800000D03*
D13*
X81280000Y-50800000D03*
D14*
X96520000Y-99060000D03*
X81280000Y-53340000D03*
X96520000Y-96520000D03*
X81280000Y-55880000D03*
X96520000Y-93980000D03*
X81280000Y-58420000D03*
X96520000Y-91440000D03*
X81280000Y-60960000D03*
X96520000Y-88900000D03*
X81280000Y-63500000D03*
X96520000Y-86360000D03*
X81280000Y-66040000D03*
X96520000Y-83820000D03*
X81280000Y-68580000D03*
X96520000Y-81280000D03*
X81280000Y-71120000D03*
X96520000Y-78740000D03*
X81280000Y-73660000D03*
X96520000Y-76200000D03*
X81280000Y-76200000D03*
X96520000Y-73660000D03*
X81280000Y-78740000D03*
X96520000Y-71120000D03*
X81280000Y-81280000D03*
X96520000Y-68580000D03*
X81280000Y-83820000D03*
X96520000Y-66040000D03*
X81280000Y-86360000D03*
X96520000Y-63500000D03*
X81280000Y-88900000D03*
X96520000Y-60960000D03*
X81280000Y-91440000D03*
X96520000Y-58420000D03*
X81280000Y-93980000D03*
X96520000Y-55880000D03*
X81280000Y-96520000D03*
X96520000Y-53340000D03*
X81280000Y-99060000D03*
X96520000Y-50800000D03*
D15*
X87122000Y-50927000D03*
D16*
X84582000Y-50927000D03*
D17*
X86360000Y-64525000D03*
X88904500Y-64520500D03*
X88582500Y-54292500D03*
X88900000Y-62230000D03*
X86360000Y-62230000D03*
D18*
X83693000Y-56007000D03*
X83058000Y-64770000D03*
X83820000Y-70485000D03*
X84328000Y-58547000D03*
D17*
X86233000Y-57150000D03*
D19*
X95247001Y-62232999D02*
X88900000Y-62230000D01*
X96520000Y-60960000D02*
X95247001Y-62232999D01*
X88900000Y-62230000D02*
X88902999Y-62232999D01*
X81280000Y-56544838D02*
X82547001Y-57811839D01*
X81280000Y-55880000D02*
X81280000Y-56544838D01*
X82547001Y-58417001D02*
X86360000Y-62230000D01*
X82547001Y-57811839D02*
X82547001Y-58417001D01*
X81280000Y-55880000D02*
X84582000Y-52578000D01*
X84582000Y-52578000D02*
X84582000Y-50800000D01*
X91230000Y-58420000D02*
X89596000Y-56786000D01*
X93980000Y-58420000D02*
X91230000Y-58420000D01*
X83693000Y-56007000D02*
X83693000Y-57912000D01*
X83693000Y-57912000D02*
X84328000Y-58547000D01*
D20*
X83820000Y-65532000D02*
X83058000Y-64770000D01*
X83820000Y-70485000D02*
X83820000Y-65532000D01*
D19*
X88646000Y-57670000D02*
X88646000Y-56786000D01*
X87769000Y-58547000D02*
X88646000Y-57670000D01*
X84328000Y-58547000D02*
X87769000Y-58547000D01*
X87696000Y-55902000D02*
X87972000Y-55626000D01*
X87696000Y-56786000D02*
X87696000Y-55902000D01*
X89596000Y-55350000D02*
X89596000Y-54466000D01*
X89320000Y-55626000D02*
X89596000Y-55350000D01*
X87972000Y-55626000D02*
X89320000Y-55626000D01*
X87332000Y-57150000D02*
X87696000Y-56786000D01*
X86233000Y-57150000D02*
X87332000Y-57150000D01*
X92848630Y-53340000D02*
X93980000Y-53340000D01*
X88326398Y-53340000D02*
X92848630Y-53340000D01*
X87696000Y-53970398D02*
X88326398Y-53340000D01*
X87696000Y-54466000D02*
X87696000Y-53970398D01*
D21*
G36*
X85748564Y-49727251D02*
G01*
X85690389Y-49836089D01*
X85654565Y-49954185D01*
X85642469Y-50077000D01*
X85643988Y-50356547D01*
X85589186Y-50254020D01*
X85438541Y-50070459D01*
X85254980Y-49919814D01*
X85045557Y-49807875D01*
X84818319Y-49738943D01*
X84641214Y-49721500D01*
X84522786Y-49721500D01*
X84345681Y-49738943D01*
X84118443Y-49807875D01*
X83909020Y-49919814D01*
X83725459Y-50070459D01*
X83574814Y-50254020D01*
X83462875Y-50463443D01*
X83393943Y-50690681D01*
X83370668Y-50927000D01*
X83393943Y-51163319D01*
X83462875Y-51390557D01*
X83574814Y-51599980D01*
X83725459Y-51783541D01*
X83909020Y-51934186D01*
X83959500Y-51961168D01*
X83959500Y-52320152D01*
X81531005Y-54748648D01*
X81506517Y-54741220D01*
X81336756Y-54724500D01*
X81223244Y-54724500D01*
X81053483Y-54741220D01*
X80835670Y-54807293D01*
X80634933Y-54914589D01*
X80458985Y-55058985D01*
X80314589Y-55234933D01*
X80207293Y-55435670D01*
X80141220Y-55653483D01*
X80118910Y-55880000D01*
X80141220Y-56106517D01*
X80207293Y-56324330D01*
X80314589Y-56525067D01*
X80458985Y-56701015D01*
X80634933Y-56845411D01*
X80788938Y-56927728D01*
X80837697Y-56987142D01*
X80861452Y-57006637D01*
X81128633Y-57273818D01*
X81053483Y-57281220D01*
X80835670Y-57347293D01*
X80634933Y-57454589D01*
X80458985Y-57598985D01*
X80314589Y-57774933D01*
X80207293Y-57975670D01*
X80141220Y-58193483D01*
X80118910Y-58420000D01*
X80141220Y-58646517D01*
X80207293Y-58864330D01*
X80314589Y-59065067D01*
X80458985Y-59241015D01*
X80634933Y-59385411D01*
X80835670Y-59492707D01*
X81053483Y-59558780D01*
X81223244Y-59575500D01*
X81336756Y-59575500D01*
X81506517Y-59558780D01*
X81724330Y-59492707D01*
X81925067Y-59385411D01*
X82101015Y-59241015D01*
X82245411Y-59065067D01*
X82269553Y-59019900D01*
X85311466Y-62061814D01*
X85302780Y-62149999D01*
X85302780Y-62800001D01*
X85314448Y-62918464D01*
X85349002Y-63032374D01*
X85405115Y-63137354D01*
X85480630Y-63229370D01*
X85572646Y-63304885D01*
X85677626Y-63360998D01*
X85791536Y-63395552D01*
X85909999Y-63407220D01*
X86810001Y-63407220D01*
X86928464Y-63395552D01*
X87042374Y-63360998D01*
X87147354Y-63304885D01*
X87239370Y-63229370D01*
X87314885Y-63137354D01*
X87370998Y-63032374D01*
X87405552Y-62918464D01*
X87417220Y-62800001D01*
X87417220Y-62149999D01*
X87405552Y-62031536D01*
X87370998Y-61917626D01*
X87314885Y-61812646D01*
X87239370Y-61720630D01*
X87147354Y-61645115D01*
X87042374Y-61589002D01*
X86928464Y-61554448D01*
X86810001Y-61542780D01*
X86553128Y-61542780D01*
X83169501Y-58159154D01*
X83169501Y-57842418D01*
X83172513Y-57811839D01*
X83167751Y-57763492D01*
X83160494Y-57689808D01*
X83124899Y-57572466D01*
X83070647Y-57470968D01*
X83067095Y-57464322D01*
X83008799Y-57393289D01*
X82989305Y-57369535D01*
X82965550Y-57350040D01*
X82765510Y-57150000D01*
X85607488Y-57150000D01*
X85619507Y-57272031D01*
X85655102Y-57389373D01*
X85712906Y-57497516D01*
X85790696Y-57592304D01*
X85885484Y-57670094D01*
X85993627Y-57727898D01*
X86110969Y-57763493D01*
X86202419Y-57772500D01*
X87301421Y-57772500D01*
X87332000Y-57775512D01*
X87362579Y-57772500D01*
X87362581Y-57772500D01*
X87454031Y-57763493D01*
X87571373Y-57727898D01*
X87679516Y-57670094D01*
X87774304Y-57592304D01*
X87793804Y-57568543D01*
X87869127Y-57493220D01*
X87875227Y-57493220D01*
X87933575Y-57568518D01*
X88026744Y-57649446D01*
X88133912Y-57710643D01*
X88250959Y-57749757D01*
X88353875Y-57762500D01*
X88510500Y-57605875D01*
X88510500Y-56921500D01*
X88490500Y-56921500D01*
X88490500Y-56650500D01*
X88510500Y-56650500D01*
X88510500Y-56630500D01*
X88781500Y-56630500D01*
X88781500Y-56650500D01*
X88801500Y-56650500D01*
X88801500Y-56921500D01*
X88781500Y-56921500D01*
X88781500Y-57605875D01*
X88938125Y-57762500D01*
X89041041Y-57749757D01*
X89158088Y-57710643D01*
X89265256Y-57649446D01*
X89358425Y-57568518D01*
X89416773Y-57493220D01*
X89422873Y-57493220D01*
X90768200Y-58838548D01*
X90787696Y-58862304D01*
X90811450Y-58881798D01*
X90882483Y-58940094D01*
X90940287Y-58970991D01*
X90990627Y-58997898D01*
X91107969Y-59033493D01*
X91199419Y-59042500D01*
X91199421Y-59042500D01*
X91230000Y-59045512D01*
X91260579Y-59042500D01*
X93002527Y-59042500D01*
X93014589Y-59065067D01*
X93158985Y-59241015D01*
X93334933Y-59385411D01*
X93535670Y-59492707D01*
X93753483Y-59558780D01*
X93923244Y-59575500D01*
X94036756Y-59575500D01*
X94206517Y-59558780D01*
X94424330Y-59492707D01*
X94625067Y-59385411D01*
X94801015Y-59241015D01*
X94945411Y-59065067D01*
X95052707Y-58864330D01*
X95118780Y-58646517D01*
X95141090Y-58420000D01*
X95118780Y-58193483D01*
X95052707Y-57975670D01*
X94945411Y-57774933D01*
X94801015Y-57598985D01*
X94625067Y-57454589D01*
X94424330Y-57347293D01*
X94206517Y-57281220D01*
X94036756Y-57264500D01*
X93923244Y-57264500D01*
X93753483Y-57281220D01*
X93535670Y-57347293D01*
X93334933Y-57454589D01*
X93158985Y-57598985D01*
X93014589Y-57774933D01*
X93002527Y-57797500D01*
X91487848Y-57797500D01*
X90208220Y-56517873D01*
X90208220Y-56436000D01*
X90201356Y-56366310D01*
X90181028Y-56299298D01*
X90148018Y-56237539D01*
X90103593Y-56183407D01*
X90049461Y-56138982D01*
X89987702Y-56105972D01*
X89920690Y-56085644D01*
X89851000Y-56078780D01*
X89749539Y-56078780D01*
X89762304Y-56068304D01*
X89781804Y-56044543D01*
X89946347Y-55880000D01*
X92818910Y-55880000D01*
X92841220Y-56106517D01*
X92907293Y-56324330D01*
X93014589Y-56525067D01*
X93158985Y-56701015D01*
X93334933Y-56845411D01*
X93535670Y-56952707D01*
X93753483Y-57018780D01*
X93923244Y-57035500D01*
X94036756Y-57035500D01*
X94206517Y-57018780D01*
X94424330Y-56952707D01*
X94625067Y-56845411D01*
X94801015Y-56701015D01*
X94945411Y-56525067D01*
X95052707Y-56324330D01*
X95118780Y-56106517D01*
X95141090Y-55880000D01*
X95118780Y-55653483D01*
X95052707Y-55435670D01*
X94945411Y-55234933D01*
X94801015Y-55058985D01*
X94625067Y-54914589D01*
X94424330Y-54807293D01*
X94206517Y-54741220D01*
X94036756Y-54724500D01*
X93923244Y-54724500D01*
X93753483Y-54741220D01*
X93535670Y-54807293D01*
X93334933Y-54914589D01*
X93158985Y-55058985D01*
X93014589Y-55234933D01*
X92907293Y-55435670D01*
X92841220Y-55653483D01*
X92818910Y-55880000D01*
X89946347Y-55880000D01*
X90014544Y-55811803D01*
X90038304Y-55792304D01*
X90116094Y-55697516D01*
X90173898Y-55589373D01*
X90209493Y-55472031D01*
X90218500Y-55380581D01*
X90218500Y-55380579D01*
X90221512Y-55350000D01*
X90218500Y-55319421D01*
X90218500Y-54435419D01*
X90209493Y-54343969D01*
X90208220Y-54339772D01*
X90208220Y-54116000D01*
X90201356Y-54046310D01*
X90181028Y-53979298D01*
X90172050Y-53962500D01*
X93002527Y-53962500D01*
X93014589Y-53985067D01*
X93158985Y-54161015D01*
X93334933Y-54305411D01*
X93535670Y-54412707D01*
X93753483Y-54478780D01*
X93923244Y-54495500D01*
X94036756Y-54495500D01*
X94206517Y-54478780D01*
X94424330Y-54412707D01*
X94625067Y-54305411D01*
X94801015Y-54161015D01*
X94945411Y-53985067D01*
X95052707Y-53784330D01*
X95118780Y-53566517D01*
X95141090Y-53340000D01*
X95118780Y-53113483D01*
X95052707Y-52895670D01*
X94945411Y-52694933D01*
X94801015Y-52518985D01*
X94625067Y-52374589D01*
X94424330Y-52267293D01*
X94206517Y-52201220D01*
X94036756Y-52184500D01*
X93923244Y-52184500D01*
X93753483Y-52201220D01*
X93535670Y-52267293D01*
X93334933Y-52374589D01*
X93158985Y-52518985D01*
X93014589Y-52694933D01*
X93002527Y-52717500D01*
X88356976Y-52717500D01*
X88326397Y-52714488D01*
X88295818Y-52717500D01*
X88295817Y-52717500D01*
X88204367Y-52726507D01*
X88087025Y-52762102D01*
X87978882Y-52819906D01*
X87884094Y-52897696D01*
X87864598Y-52921452D01*
X87277452Y-53508599D01*
X87253697Y-53528094D01*
X87234202Y-53551849D01*
X87175906Y-53622882D01*
X87147005Y-53676953D01*
X87118102Y-53731025D01*
X87082507Y-53848367D01*
X87075659Y-53917898D01*
X87070488Y-53970398D01*
X87073500Y-54000977D01*
X87073500Y-54496580D01*
X87082507Y-54588030D01*
X87083780Y-54592227D01*
X87083780Y-54816000D01*
X87090644Y-54885690D01*
X87110972Y-54952702D01*
X87143982Y-55014461D01*
X87188407Y-55068593D01*
X87242539Y-55113018D01*
X87304298Y-55146028D01*
X87371310Y-55166356D01*
X87441000Y-55173220D01*
X87542461Y-55173220D01*
X87529696Y-55183696D01*
X87510196Y-55207457D01*
X87277453Y-55440200D01*
X87253697Y-55459696D01*
X87234202Y-55483451D01*
X87175906Y-55554484D01*
X87129862Y-55640627D01*
X87118103Y-55662627D01*
X87082508Y-55779969D01*
X87074096Y-55865374D01*
X87070488Y-55902000D01*
X87073500Y-55932579D01*
X87073500Y-56527500D01*
X86202419Y-56527500D01*
X86110969Y-56536507D01*
X85993627Y-56572102D01*
X85885484Y-56629906D01*
X85790696Y-56707696D01*
X85712906Y-56802484D01*
X85655102Y-56910627D01*
X85619507Y-57027969D01*
X85607488Y-57150000D01*
X82765510Y-57150000D01*
X82198156Y-56582647D01*
X82245411Y-56525067D01*
X82352707Y-56324330D01*
X82418780Y-56106517D01*
X82441090Y-55880000D01*
X82418780Y-55653483D01*
X82411352Y-55628995D01*
X85000550Y-53039798D01*
X85024304Y-53020304D01*
X85102094Y-52925516D01*
X85159898Y-52817373D01*
X85195493Y-52700031D01*
X85204500Y-52608581D01*
X85204500Y-52608580D01*
X85207512Y-52578001D01*
X85204500Y-52547422D01*
X85204500Y-51961168D01*
X85254980Y-51934186D01*
X85438541Y-51783541D01*
X85589186Y-51599980D01*
X85643988Y-51497453D01*
X85642469Y-51777000D01*
X85654565Y-51899815D01*
X85690389Y-52017911D01*
X85748564Y-52126749D01*
X85826854Y-52222146D01*
X85922251Y-52300436D01*
X86031089Y-52358611D01*
X86149185Y-52394435D01*
X86272000Y-52406531D01*
X86829875Y-52403500D01*
X86986500Y-52246875D01*
X86986500Y-51062500D01*
X87257500Y-51062500D01*
X87257500Y-52246875D01*
X87414125Y-52403500D01*
X87972000Y-52406531D01*
X88094815Y-52394435D01*
X88212911Y-52358611D01*
X88321749Y-52300436D01*
X88417146Y-52222146D01*
X88495436Y-52126749D01*
X88553611Y-52017911D01*
X88589435Y-51899815D01*
X88601531Y-51777000D01*
X88598500Y-51219125D01*
X88441875Y-51062500D01*
X87257500Y-51062500D01*
X86986500Y-51062500D01*
X86966500Y-51062500D01*
X86966500Y-50800000D01*
X92818910Y-50800000D01*
X92841220Y-51026517D01*
X92907293Y-51244330D01*
X93014589Y-51445067D01*
X93158985Y-51621015D01*
X93334933Y-51765411D01*
X93535670Y-51872707D01*
X93753483Y-51938780D01*
X93923244Y-51955500D01*
X94036756Y-51955500D01*
X94206517Y-51938780D01*
X94424330Y-51872707D01*
X94625067Y-51765411D01*
X94801015Y-51621015D01*
X94945411Y-51445067D01*
X95052707Y-51244330D01*
X95118780Y-51026517D01*
X95141090Y-50800000D01*
X95118780Y-50573483D01*
X95052707Y-50355670D01*
X94945411Y-50154933D01*
X94801015Y-49978985D01*
X94625067Y-49834589D01*
X94424330Y-49727293D01*
X94206517Y-49661220D01*
X94036756Y-49644500D01*
X93923244Y-49644500D01*
X93753483Y-49661220D01*
X93535670Y-49727293D01*
X93334933Y-49834589D01*
X93158985Y-49978985D01*
X93014589Y-50154933D01*
X92907293Y-50355670D01*
X92841220Y-50573483D01*
X92818910Y-50800000D01*
X86966500Y-50800000D01*
X86966500Y-50791500D01*
X86986500Y-50791500D01*
X86986500Y-50771500D01*
X87257500Y-50771500D01*
X87257500Y-50791500D01*
X88441875Y-50791500D01*
X88598500Y-50634875D01*
X88601531Y-50077000D01*
X88589435Y-49954185D01*
X88553611Y-49836089D01*
X88495436Y-49727251D01*
X88420959Y-49636500D01*
X97175500Y-49636500D01*
X97175500Y-49843151D01*
X97165067Y-49834589D01*
X96964330Y-49727293D01*
X96746517Y-49661220D01*
X96576756Y-49644500D01*
X96463244Y-49644500D01*
X96293483Y-49661220D01*
X96075670Y-49727293D01*
X95874933Y-49834589D01*
X95698985Y-49978985D01*
X95554589Y-50154933D01*
X95447293Y-50355670D01*
X95381220Y-50573483D01*
X95358910Y-50800000D01*
X95381220Y-51026517D01*
X95447293Y-51244330D01*
X95554589Y-51445067D01*
X95698985Y-51621015D01*
X95874933Y-51765411D01*
X96075670Y-51872707D01*
X96293483Y-51938780D01*
X96463244Y-51955500D01*
X96576756Y-51955500D01*
X96746517Y-51938780D01*
X96964330Y-51872707D01*
X97165067Y-51765411D01*
X97175500Y-51756849D01*
X97175500Y-52383151D01*
X97165067Y-52374589D01*
X96964330Y-52267293D01*
X96746517Y-52201220D01*
X96576756Y-52184500D01*
X96463244Y-52184500D01*
X96293483Y-52201220D01*
X96075670Y-52267293D01*
X95874933Y-52374589D01*
X95698985Y-52518985D01*
X95554589Y-52694933D01*
X95447293Y-52895670D01*
X95381220Y-53113483D01*
X95358910Y-53340000D01*
X95381220Y-53566517D01*
X95447293Y-53784330D01*
X95554589Y-53985067D01*
X95698985Y-54161015D01*
X95874933Y-54305411D01*
X96075670Y-54412707D01*
X96293483Y-54478780D01*
X96463244Y-54495500D01*
X96576756Y-54495500D01*
X96746517Y-54478780D01*
X96964330Y-54412707D01*
X97165067Y-54305411D01*
X97175500Y-54296849D01*
X97175500Y-54923151D01*
X97165067Y-54914589D01*
X96964330Y-54807293D01*
X96746517Y-54741220D01*
X96576756Y-54724500D01*
X96463244Y-54724500D01*
X96293483Y-54741220D01*
X96075670Y-54807293D01*
X95874933Y-54914589D01*
X95698985Y-55058985D01*
X95554589Y-55234933D01*
X95447293Y-55435670D01*
X95381220Y-55653483D01*
X95358910Y-55880000D01*
X95381220Y-56106517D01*
X95447293Y-56324330D01*
X95554589Y-56525067D01*
X95698985Y-56701015D01*
X95874933Y-56845411D01*
X96075670Y-56952707D01*
X96293483Y-57018780D01*
X96463244Y-57035500D01*
X96576756Y-57035500D01*
X96746517Y-57018780D01*
X96964330Y-56952707D01*
X97165067Y-56845411D01*
X97175500Y-56836849D01*
X97175500Y-57463151D01*
X97165067Y-57454589D01*
X96964330Y-57347293D01*
X96746517Y-57281220D01*
X96576756Y-57264500D01*
X96463244Y-57264500D01*
X96293483Y-57281220D01*
X96075670Y-57347293D01*
X95874933Y-57454589D01*
X95698985Y-57598985D01*
X95554589Y-57774933D01*
X95447293Y-57975670D01*
X95381220Y-58193483D01*
X95358910Y-58420000D01*
X95381220Y-58646517D01*
X95447293Y-58864330D01*
X95554589Y-59065067D01*
X95698985Y-59241015D01*
X95874933Y-59385411D01*
X96075670Y-59492707D01*
X96293483Y-59558780D01*
X96463244Y-59575500D01*
X96576756Y-59575500D01*
X96746517Y-59558780D01*
X96964330Y-59492707D01*
X97165067Y-59385411D01*
X97175500Y-59376849D01*
X97175500Y-60003151D01*
X97165067Y-59994589D01*
X96964330Y-59887293D01*
X96746517Y-59821220D01*
X96576756Y-59804500D01*
X96463244Y-59804500D01*
X96293483Y-59821220D01*
X96075670Y-59887293D01*
X95874933Y-59994589D01*
X95698985Y-60138985D01*
X95554589Y-60314933D01*
X95447293Y-60515670D01*
X95381220Y-60733483D01*
X95358910Y-60960000D01*
X95381220Y-61186517D01*
X95388648Y-61211004D01*
X94989275Y-61610378D01*
X94941071Y-61610355D01*
X94945411Y-61605067D01*
X95052707Y-61404330D01*
X95118780Y-61186517D01*
X95141090Y-60960000D01*
X95118780Y-60733483D01*
X95052707Y-60515670D01*
X94945411Y-60314933D01*
X94801015Y-60138985D01*
X94625067Y-59994589D01*
X94424330Y-59887293D01*
X94206517Y-59821220D01*
X94036756Y-59804500D01*
X93923244Y-59804500D01*
X93753483Y-59821220D01*
X93535670Y-59887293D01*
X93334933Y-59994589D01*
X93158985Y-60138985D01*
X93014589Y-60314933D01*
X92907293Y-60515670D01*
X92841220Y-60733483D01*
X92818910Y-60960000D01*
X92841220Y-61186517D01*
X92907293Y-61404330D01*
X93014589Y-61605067D01*
X93018183Y-61609446D01*
X89617616Y-61607839D01*
X89582374Y-61589002D01*
X89468464Y-61554448D01*
X89350001Y-61542780D01*
X88449999Y-61542780D01*
X88331536Y-61554448D01*
X88217626Y-61589002D01*
X88112646Y-61645115D01*
X88020630Y-61720630D01*
X87945115Y-61812646D01*
X87889002Y-61917626D01*
X87854448Y-62031536D01*
X87842780Y-62149999D01*
X87842780Y-62800001D01*
X87854448Y-62918464D01*
X87889002Y-63032374D01*
X87945115Y-63137354D01*
X88020630Y-63229370D01*
X88112646Y-63304885D01*
X88217626Y-63360998D01*
X88331536Y-63395552D01*
X88449999Y-63407220D01*
X89350001Y-63407220D01*
X89468464Y-63395552D01*
X89582374Y-63360998D01*
X89687354Y-63304885D01*
X89779370Y-63229370D01*
X89854885Y-63137354D01*
X89910998Y-63032374D01*
X89945552Y-62918464D01*
X89952000Y-62852997D01*
X93014990Y-62854444D01*
X93014589Y-62854933D01*
X92907293Y-63055670D01*
X92841220Y-63273483D01*
X92818910Y-63500000D01*
X92841220Y-63726517D01*
X92907293Y-63944330D01*
X93014589Y-64145067D01*
X93158985Y-64321015D01*
X93334933Y-64465411D01*
X93535670Y-64572707D01*
X93753483Y-64638780D01*
X93923244Y-64655500D01*
X94036756Y-64655500D01*
X94206517Y-64638780D01*
X94424330Y-64572707D01*
X94625067Y-64465411D01*
X94801015Y-64321015D01*
X94945411Y-64145067D01*
X95052707Y-63944330D01*
X95118780Y-63726517D01*
X95141090Y-63500000D01*
X95118780Y-63273483D01*
X95052707Y-63055670D01*
X94945637Y-62855356D01*
X95216272Y-62855484D01*
X95247001Y-62858511D01*
X95307809Y-62852521D01*
X95368742Y-62846549D01*
X95368886Y-62846505D01*
X95369032Y-62846491D01*
X95426254Y-62829133D01*
X95486101Y-62811010D01*
X95486236Y-62810938D01*
X95486374Y-62810896D01*
X95539689Y-62782399D01*
X95594271Y-62753257D01*
X95594385Y-62753164D01*
X95594517Y-62753093D01*
X95641650Y-62714411D01*
X95689096Y-62675511D01*
X95708697Y-62651650D01*
X96268996Y-62091352D01*
X96293483Y-62098780D01*
X96463244Y-62115500D01*
X96576756Y-62115500D01*
X96746517Y-62098780D01*
X96964330Y-62032707D01*
X97165067Y-61925411D01*
X97175500Y-61916849D01*
X97175500Y-62543151D01*
X97165067Y-62534589D01*
X96964330Y-62427293D01*
X96746517Y-62361220D01*
X96576756Y-62344500D01*
X96463244Y-62344500D01*
X96293483Y-62361220D01*
X96075670Y-62427293D01*
X95874933Y-62534589D01*
X95698985Y-62678985D01*
X95554589Y-62854933D01*
X95447293Y-63055670D01*
X95381220Y-63273483D01*
X95358910Y-63500000D01*
X95381220Y-63726517D01*
X95447293Y-63944330D01*
X95554589Y-64145067D01*
X95698985Y-64321015D01*
X95874933Y-64465411D01*
X96075670Y-64572707D01*
X96293483Y-64638780D01*
X96463244Y-64655500D01*
X96576756Y-64655500D01*
X96746517Y-64638780D01*
X96964330Y-64572707D01*
X97165067Y-64465411D01*
X97175500Y-64456849D01*
X97175500Y-65083151D01*
X97165067Y-65074589D01*
X96964330Y-64967293D01*
X96746517Y-64901220D01*
X96576756Y-64884500D01*
X96463244Y-64884500D01*
X96293483Y-64901220D01*
X96075670Y-64967293D01*
X95874933Y-65074589D01*
X95698985Y-65218985D01*
X95554589Y-65394933D01*
X95447293Y-65595670D01*
X95381220Y-65813483D01*
X95358910Y-66040000D01*
X95381220Y-66266517D01*
X95447293Y-66484330D01*
X95554589Y-66685067D01*
X95698985Y-66861015D01*
X95874933Y-67005411D01*
X96075670Y-67112707D01*
X96293483Y-67178780D01*
X96463244Y-67195500D01*
X96576756Y-67195500D01*
X96746517Y-67178780D01*
X96964330Y-67112707D01*
X97165067Y-67005411D01*
X97175500Y-66996849D01*
X97175500Y-67623151D01*
X97165067Y-67614589D01*
X96964330Y-67507293D01*
X96746517Y-67441220D01*
X96576756Y-67424500D01*
X96463244Y-67424500D01*
X96293483Y-67441220D01*
X96075670Y-67507293D01*
X95874933Y-67614589D01*
X95698985Y-67758985D01*
X95554589Y-67934933D01*
X95447293Y-68135670D01*
X95381220Y-68353483D01*
X95358910Y-68580000D01*
X95381220Y-68806517D01*
X95447293Y-69024330D01*
X95554589Y-69225067D01*
X95698985Y-69401015D01*
X95874933Y-69545411D01*
X96075670Y-69652707D01*
X96293483Y-69718780D01*
X96463244Y-69735500D01*
X96576756Y-69735500D01*
X96746517Y-69718780D01*
X96964330Y-69652707D01*
X97165067Y-69545411D01*
X97175500Y-69536849D01*
X97175500Y-70163151D01*
X97165067Y-70154589D01*
X96964330Y-70047293D01*
X96746517Y-69981220D01*
X96576756Y-69964500D01*
X96463244Y-69964500D01*
X96293483Y-69981220D01*
X96075670Y-70047293D01*
X95874933Y-70154589D01*
X95698985Y-70298985D01*
X95554589Y-70474933D01*
X95447293Y-70675670D01*
X95381220Y-70893483D01*
X95358910Y-71120000D01*
X95381220Y-71346517D01*
X95447293Y-71564330D01*
X95554589Y-71765067D01*
X95698985Y-71941015D01*
X95874933Y-72085411D01*
X96075670Y-72192707D01*
X96293483Y-72258780D01*
X96463244Y-72275500D01*
X96576756Y-72275500D01*
X96746517Y-72258780D01*
X96964330Y-72192707D01*
X97165067Y-72085411D01*
X97175500Y-72076849D01*
X97175500Y-72703151D01*
X97165067Y-72694589D01*
X96964330Y-72587293D01*
X96746517Y-72521220D01*
X96576756Y-72504500D01*
X96463244Y-72504500D01*
X96293483Y-72521220D01*
X96075670Y-72587293D01*
X95874933Y-72694589D01*
X95698985Y-72838985D01*
X95554589Y-73014933D01*
X95447293Y-73215670D01*
X95381220Y-73433483D01*
X95358910Y-73660000D01*
X95381220Y-73886517D01*
X95447293Y-74104330D01*
X95554589Y-74305067D01*
X95698985Y-74481015D01*
X95874933Y-74625411D01*
X96075670Y-74732707D01*
X96293483Y-74798780D01*
X96463244Y-74815500D01*
X96576756Y-74815500D01*
X96746517Y-74798780D01*
X96964330Y-74732707D01*
X97165067Y-74625411D01*
X97175500Y-74616848D01*
X97175501Y-75243152D01*
X97165067Y-75234589D01*
X96964330Y-75127293D01*
X96746517Y-75061220D01*
X96576756Y-75044500D01*
X96463244Y-75044500D01*
X96293483Y-75061220D01*
X96075670Y-75127293D01*
X95874933Y-75234589D01*
X95698985Y-75378985D01*
X95554589Y-75554933D01*
X95447293Y-75755670D01*
X95381220Y-75973483D01*
X95358910Y-76200000D01*
X95381220Y-76426517D01*
X95447293Y-76644330D01*
X95554589Y-76845067D01*
X95698985Y-77021015D01*
X95874933Y-77165411D01*
X96075670Y-77272707D01*
X96293483Y-77338780D01*
X96463244Y-77355500D01*
X96576756Y-77355500D01*
X96746517Y-77338780D01*
X96964330Y-77272707D01*
X97165067Y-77165411D01*
X97175501Y-77156848D01*
X97175501Y-77783152D01*
X97165067Y-77774589D01*
X96964330Y-77667293D01*
X96746517Y-77601220D01*
X96576756Y-77584500D01*
X96463244Y-77584500D01*
X96293483Y-77601220D01*
X96075670Y-77667293D01*
X95874933Y-77774589D01*
X95698985Y-77918985D01*
X95554589Y-78094933D01*
X95447293Y-78295670D01*
X95381220Y-78513483D01*
X95358910Y-78740000D01*
X95381220Y-78966517D01*
X95447293Y-79184330D01*
X95554589Y-79385067D01*
X95698985Y-79561015D01*
X95874933Y-79705411D01*
X96075670Y-79812707D01*
X96293483Y-79878780D01*
X96463244Y-79895500D01*
X96576756Y-79895500D01*
X96746517Y-79878780D01*
X96964330Y-79812707D01*
X97165067Y-79705411D01*
X97175501Y-79696848D01*
X97175501Y-80323152D01*
X97165067Y-80314589D01*
X96964330Y-80207293D01*
X96746517Y-80141220D01*
X96576756Y-80124500D01*
X96463244Y-80124500D01*
X96293483Y-80141220D01*
X96075670Y-80207293D01*
X95874933Y-80314589D01*
X95698985Y-80458985D01*
X95554589Y-80634933D01*
X95447293Y-80835670D01*
X95381220Y-81053483D01*
X95358910Y-81280000D01*
X95381220Y-81506517D01*
X95447293Y-81724330D01*
X95554589Y-81925067D01*
X95698985Y-82101015D01*
X95874933Y-82245411D01*
X96075670Y-82352707D01*
X96293483Y-82418780D01*
X96463244Y-82435500D01*
X96576756Y-82435500D01*
X96746517Y-82418780D01*
X96964330Y-82352707D01*
X97165067Y-82245411D01*
X97175501Y-82236848D01*
X97175501Y-82863152D01*
X97165067Y-82854589D01*
X96964330Y-82747293D01*
X96746517Y-82681220D01*
X96576756Y-82664500D01*
X96463244Y-82664500D01*
X96293483Y-82681220D01*
X96075670Y-82747293D01*
X95874933Y-82854589D01*
X95698985Y-82998985D01*
X95554589Y-83174933D01*
X95447293Y-83375670D01*
X95381220Y-83593483D01*
X95358910Y-83820000D01*
X95381220Y-84046517D01*
X95447293Y-84264330D01*
X95554589Y-84465067D01*
X95698985Y-84641015D01*
X95874933Y-84785411D01*
X96075670Y-84892707D01*
X96293483Y-84958780D01*
X96463244Y-84975500D01*
X96576756Y-84975500D01*
X96746517Y-84958780D01*
X96964330Y-84892707D01*
X97165067Y-84785411D01*
X97175501Y-84776848D01*
X97175501Y-85403152D01*
X97165067Y-85394589D01*
X96964330Y-85287293D01*
X96746517Y-85221220D01*
X96576756Y-85204500D01*
X96463244Y-85204500D01*
X96293483Y-85221220D01*
X96075670Y-85287293D01*
X95874933Y-85394589D01*
X95698985Y-85538985D01*
X95554589Y-85714933D01*
X95447293Y-85915670D01*
X95381220Y-86133483D01*
X95358910Y-86360000D01*
X95381220Y-86586517D01*
X95447293Y-86804330D01*
X95554589Y-87005067D01*
X95698985Y-87181015D01*
X95874933Y-87325411D01*
X96075670Y-87432707D01*
X96293483Y-87498780D01*
X96463244Y-87515500D01*
X96576756Y-87515500D01*
X96746517Y-87498780D01*
X96964330Y-87432707D01*
X97165067Y-87325411D01*
X97175501Y-87316848D01*
X97175501Y-87943152D01*
X97165067Y-87934589D01*
X96964330Y-87827293D01*
X96746517Y-87761220D01*
X96576756Y-87744500D01*
X96463244Y-87744500D01*
X96293483Y-87761220D01*
X96075670Y-87827293D01*
X95874933Y-87934589D01*
X95698985Y-88078985D01*
X95554589Y-88254933D01*
X95447293Y-88455670D01*
X95381220Y-88673483D01*
X95358910Y-88900000D01*
X95381220Y-89126517D01*
X95447293Y-89344330D01*
X95554589Y-89545067D01*
X95698985Y-89721015D01*
X95874933Y-89865411D01*
X96075670Y-89972707D01*
X96293483Y-90038780D01*
X96463244Y-90055500D01*
X96576756Y-90055500D01*
X96746517Y-90038780D01*
X96964330Y-89972707D01*
X97165067Y-89865411D01*
X97175501Y-89856848D01*
X97175501Y-90483152D01*
X97165067Y-90474589D01*
X96964330Y-90367293D01*
X96746517Y-90301220D01*
X96576756Y-90284500D01*
X96463244Y-90284500D01*
X96293483Y-90301220D01*
X96075670Y-90367293D01*
X95874933Y-90474589D01*
X95698985Y-90618985D01*
X95554589Y-90794933D01*
X95447293Y-90995670D01*
X95381220Y-91213483D01*
X95358910Y-91440000D01*
X95381220Y-91666517D01*
X95447293Y-91884330D01*
X95554589Y-92085067D01*
X95698985Y-92261015D01*
X95874933Y-92405411D01*
X96075670Y-92512707D01*
X96293483Y-92578780D01*
X96463244Y-92595500D01*
X96576756Y-92595500D01*
X96746517Y-92578780D01*
X96964330Y-92512707D01*
X97165067Y-92405411D01*
X97175501Y-92396848D01*
X97175501Y-93023152D01*
X97165067Y-93014589D01*
X96964330Y-92907293D01*
X96746517Y-92841220D01*
X96576756Y-92824500D01*
X96463244Y-92824500D01*
X96293483Y-92841220D01*
X96075670Y-92907293D01*
X95874933Y-93014589D01*
X95698985Y-93158985D01*
X95554589Y-93334933D01*
X95447293Y-93535670D01*
X95381220Y-93753483D01*
X95358910Y-93980000D01*
X95381220Y-94206517D01*
X95447293Y-94424330D01*
X95554589Y-94625067D01*
X95698985Y-94801015D01*
X95874933Y-94945411D01*
X96075670Y-95052707D01*
X96293483Y-95118780D01*
X96463244Y-95135500D01*
X96576756Y-95135500D01*
X96746517Y-95118780D01*
X96964330Y-95052707D01*
X97165067Y-94945411D01*
X97175501Y-94936848D01*
X97175501Y-95563152D01*
X97165067Y-95554589D01*
X96964330Y-95447293D01*
X96746517Y-95381220D01*
X96576756Y-95364500D01*
X96463244Y-95364500D01*
X96293483Y-95381220D01*
X96075670Y-95447293D01*
X95874933Y-95554589D01*
X95698985Y-95698985D01*
X95554589Y-95874933D01*
X95447293Y-96075670D01*
X95381220Y-96293483D01*
X95358910Y-96520000D01*
X95381220Y-96746517D01*
X95447293Y-96964330D01*
X95554589Y-97165067D01*
X95698985Y-97341015D01*
X95874933Y-97485411D01*
X96075670Y-97592707D01*
X96293483Y-97658780D01*
X96384498Y-97667744D01*
X96384498Y-97796569D01*
X96164023Y-97678625D01*
X95901370Y-97774615D01*
X95662491Y-97920002D01*
X95456565Y-98109198D01*
X95291506Y-98334933D01*
X95250000Y-98424250D01*
X95208494Y-98334933D01*
X95043435Y-98109198D01*
X94837509Y-97920002D01*
X94598630Y-97774615D01*
X94335977Y-97678625D01*
X94115502Y-97796569D01*
X94115502Y-97667744D01*
X94206517Y-97658780D01*
X94424330Y-97592707D01*
X94625067Y-97485411D01*
X94801015Y-97341015D01*
X94945411Y-97165067D01*
X95052707Y-96964330D01*
X95118780Y-96746517D01*
X95141090Y-96520000D01*
X95118780Y-96293483D01*
X95052707Y-96075670D01*
X94945411Y-95874933D01*
X94801015Y-95698985D01*
X94625067Y-95554589D01*
X94424330Y-95447293D01*
X94206517Y-95381220D01*
X94036756Y-95364500D01*
X93923244Y-95364500D01*
X93753483Y-95381220D01*
X93535670Y-95447293D01*
X93334933Y-95554589D01*
X93158985Y-95698985D01*
X93014589Y-95874933D01*
X92907293Y-96075670D01*
X92841220Y-96293483D01*
X92818910Y-96520000D01*
X92841220Y-96746517D01*
X92907293Y-96964330D01*
X93014589Y-97165067D01*
X93158985Y-97341015D01*
X93334933Y-97485411D01*
X93535670Y-97592707D01*
X93753483Y-97658780D01*
X93844498Y-97667744D01*
X93844498Y-97796569D01*
X93624023Y-97678625D01*
X93361370Y-97774615D01*
X93122491Y-97920002D01*
X92916565Y-98109198D01*
X92751506Y-98334933D01*
X92633658Y-98588532D01*
X92598630Y-98704023D01*
X92717375Y-98924500D01*
X93844500Y-98924500D01*
X93844500Y-98904500D01*
X94115500Y-98904500D01*
X94115500Y-98924500D01*
X95242625Y-98924500D01*
X95250000Y-98910807D01*
X95257375Y-98924500D01*
X96384500Y-98924500D01*
X96384500Y-98904500D01*
X96655500Y-98904500D01*
X96655500Y-98924500D01*
X96675500Y-98924500D01*
X96675500Y-99195500D01*
X96655500Y-99195500D01*
X96655500Y-99215500D01*
X96384500Y-99215500D01*
X96384500Y-99195500D01*
X95257375Y-99195500D01*
X95250000Y-99209193D01*
X95242625Y-99195500D01*
X94115500Y-99195500D01*
X94115500Y-99215500D01*
X93844500Y-99215500D01*
X93844500Y-99195500D01*
X92717375Y-99195500D01*
X92598630Y-99415977D01*
X92633658Y-99531468D01*
X92751506Y-99785067D01*
X92886365Y-99969500D01*
X81993195Y-99969500D01*
X82101015Y-99881015D01*
X82245411Y-99705067D01*
X82352707Y-99504330D01*
X82418780Y-99286517D01*
X82441090Y-99060000D01*
X82418780Y-98833483D01*
X82352707Y-98615670D01*
X82245411Y-98414933D01*
X82101015Y-98238985D01*
X81925067Y-98094589D01*
X81724330Y-97987293D01*
X81506517Y-97921220D01*
X81336756Y-97904500D01*
X81223244Y-97904500D01*
X81053483Y-97921220D01*
X80835670Y-97987293D01*
X80634933Y-98094589D01*
X80458985Y-98238985D01*
X80314589Y-98414933D01*
X80207293Y-98615670D01*
X80141220Y-98833483D01*
X80118910Y-99060000D01*
X80141220Y-99286517D01*
X80207293Y-99504330D01*
X80314589Y-99705067D01*
X80458985Y-99881015D01*
X80566805Y-99969500D01*
X79453195Y-99969500D01*
X79561015Y-99881015D01*
X79705411Y-99705067D01*
X79812707Y-99504330D01*
X79878780Y-99286517D01*
X79901090Y-99060000D01*
X79878780Y-98833483D01*
X79812707Y-98615670D01*
X79705411Y-98414933D01*
X79561015Y-98238985D01*
X79385067Y-98094589D01*
X79184330Y-97987293D01*
X78966517Y-97921220D01*
X78796756Y-97904500D01*
X78683244Y-97904500D01*
X78513483Y-97921220D01*
X78295670Y-97987293D01*
X78094933Y-98094589D01*
X78084500Y-98103151D01*
X78084500Y-97476849D01*
X78094933Y-97485411D01*
X78295670Y-97592707D01*
X78513483Y-97658780D01*
X78683244Y-97675500D01*
X78796756Y-97675500D01*
X78966517Y-97658780D01*
X79184330Y-97592707D01*
X79385067Y-97485411D01*
X79561015Y-97341015D01*
X79705411Y-97165067D01*
X79812707Y-96964330D01*
X79878780Y-96746517D01*
X79901090Y-96520000D01*
X80118910Y-96520000D01*
X80141220Y-96746517D01*
X80207293Y-96964330D01*
X80314589Y-97165067D01*
X80458985Y-97341015D01*
X80634933Y-97485411D01*
X80835670Y-97592707D01*
X81053483Y-97658780D01*
X81223244Y-97675500D01*
X81336756Y-97675500D01*
X81506517Y-97658780D01*
X81724330Y-97592707D01*
X81925067Y-97485411D01*
X82101015Y-97341015D01*
X82245411Y-97165067D01*
X82352707Y-96964330D01*
X82418780Y-96746517D01*
X82441090Y-96520000D01*
X82418780Y-96293483D01*
X82352707Y-96075670D01*
X82245411Y-95874933D01*
X82101015Y-95698985D01*
X81925067Y-95554589D01*
X81724330Y-95447293D01*
X81506517Y-95381220D01*
X81336756Y-95364500D01*
X81223244Y-95364500D01*
X81053483Y-95381220D01*
X80835670Y-95447293D01*
X80634933Y-95554589D01*
X80458985Y-95698985D01*
X80314589Y-95874933D01*
X80207293Y-96075670D01*
X80141220Y-96293483D01*
X80118910Y-96520000D01*
X79901090Y-96520000D01*
X79878780Y-96293483D01*
X79812707Y-96075670D01*
X79705411Y-95874933D01*
X79561015Y-95698985D01*
X79385067Y-95554589D01*
X79184330Y-95447293D01*
X78966517Y-95381220D01*
X78796756Y-95364500D01*
X78683244Y-95364500D01*
X78513483Y-95381220D01*
X78295670Y-95447293D01*
X78094933Y-95554589D01*
X78084500Y-95563151D01*
X78084500Y-94936849D01*
X78094933Y-94945411D01*
X78295670Y-95052707D01*
X78513483Y-95118780D01*
X78683244Y-95135500D01*
X78796756Y-95135500D01*
X78966517Y-95118780D01*
X79184330Y-95052707D01*
X79385067Y-94945411D01*
X79561015Y-94801015D01*
X79705411Y-94625067D01*
X79812707Y-94424330D01*
X79878780Y-94206517D01*
X79901090Y-93980000D01*
X80118910Y-93980000D01*
X80141220Y-94206517D01*
X80207293Y-94424330D01*
X80314589Y-94625067D01*
X80458985Y-94801015D01*
X80634933Y-94945411D01*
X80835670Y-95052707D01*
X81053483Y-95118780D01*
X81223244Y-95135500D01*
X81336756Y-95135500D01*
X81506517Y-95118780D01*
X81724330Y-95052707D01*
X81925067Y-94945411D01*
X82101015Y-94801015D01*
X82245411Y-94625067D01*
X82352707Y-94424330D01*
X82418780Y-94206517D01*
X82441090Y-93980000D01*
X92818910Y-93980000D01*
X92841220Y-94206517D01*
X92907293Y-94424330D01*
X93014589Y-94625067D01*
X93158985Y-94801015D01*
X93334933Y-94945411D01*
X93535670Y-95052707D01*
X93753483Y-95118780D01*
X93923244Y-95135500D01*
X94036756Y-95135500D01*
X94206517Y-95118780D01*
X94424330Y-95052707D01*
X94625067Y-94945411D01*
X94801015Y-94801015D01*
X94945411Y-94625067D01*
X95052707Y-94424330D01*
X95118780Y-94206517D01*
X95141090Y-93980000D01*
X95118780Y-93753483D01*
X95052707Y-93535670D01*
X94945411Y-93334933D01*
X94801015Y-93158985D01*
X94625067Y-93014589D01*
X94424330Y-92907293D01*
X94206517Y-92841220D01*
X94036756Y-92824500D01*
X93923244Y-92824500D01*
X93753483Y-92841220D01*
X93535670Y-92907293D01*
X93334933Y-93014589D01*
X93158985Y-93158985D01*
X93014589Y-93334933D01*
X92907293Y-93535670D01*
X92841220Y-93753483D01*
X92818910Y-93980000D01*
X82441090Y-93980000D01*
X82418780Y-93753483D01*
X82352707Y-93535670D01*
X82245411Y-93334933D01*
X82101015Y-93158985D01*
X81925067Y-93014589D01*
X81724330Y-92907293D01*
X81506517Y-92841220D01*
X81336756Y-92824500D01*
X81223244Y-92824500D01*
X81053483Y-92841220D01*
X80835670Y-92907293D01*
X80634933Y-93014589D01*
X80458985Y-93158985D01*
X80314589Y-93334933D01*
X80207293Y-93535670D01*
X80141220Y-93753483D01*
X80118910Y-93980000D01*
X79901090Y-93980000D01*
X79878780Y-93753483D01*
X79812707Y-93535670D01*
X79705411Y-93334933D01*
X79561015Y-93158985D01*
X79385067Y-93014589D01*
X79184330Y-92907293D01*
X78966517Y-92841220D01*
X78796756Y-92824500D01*
X78683244Y-92824500D01*
X78513483Y-92841220D01*
X78295670Y-92907293D01*
X78094933Y-93014589D01*
X78084500Y-93023151D01*
X78084500Y-92396849D01*
X78094933Y-92405411D01*
X78295670Y-92512707D01*
X78513483Y-92578780D01*
X78683244Y-92595500D01*
X78796756Y-92595500D01*
X78966517Y-92578780D01*
X79184330Y-92512707D01*
X79385067Y-92405411D01*
X79561015Y-92261015D01*
X79705411Y-92085067D01*
X79812707Y-91884330D01*
X79878780Y-91666517D01*
X79901090Y-91440000D01*
X80118910Y-91440000D01*
X80141220Y-91666517D01*
X80207293Y-91884330D01*
X80314589Y-92085067D01*
X80458985Y-92261015D01*
X80634933Y-92405411D01*
X80835670Y-92512707D01*
X81053483Y-92578780D01*
X81223244Y-92595500D01*
X81336756Y-92595500D01*
X81506517Y-92578780D01*
X81724330Y-92512707D01*
X81925067Y-92405411D01*
X82101015Y-92261015D01*
X82245411Y-92085067D01*
X82352707Y-91884330D01*
X82418780Y-91666517D01*
X82441090Y-91440000D01*
X92818910Y-91440000D01*
X92841220Y-91666517D01*
X92907293Y-91884330D01*
X93014589Y-92085067D01*
X93158985Y-92261015D01*
X93334933Y-92405411D01*
X93535670Y-92512707D01*
X93753483Y-92578780D01*
X93923244Y-92595500D01*
X94036756Y-92595500D01*
X94206517Y-92578780D01*
X94424330Y-92512707D01*
X94625067Y-92405411D01*
X94801015Y-92261015D01*
X94945411Y-92085067D01*
X95052707Y-91884330D01*
X95118780Y-91666517D01*
X95141090Y-91440000D01*
X95118780Y-91213483D01*
X95052707Y-90995670D01*
X94945411Y-90794933D01*
X94801015Y-90618985D01*
X94625067Y-90474589D01*
X94424330Y-90367293D01*
X94206517Y-90301220D01*
X94036756Y-90284500D01*
X93923244Y-90284500D01*
X93753483Y-90301220D01*
X93535670Y-90367293D01*
X93334933Y-90474589D01*
X93158985Y-90618985D01*
X93014589Y-90794933D01*
X92907293Y-90995670D01*
X92841220Y-91213483D01*
X92818910Y-91440000D01*
X82441090Y-91440000D01*
X82418780Y-91213483D01*
X82352707Y-90995670D01*
X82245411Y-90794933D01*
X82101015Y-90618985D01*
X81925067Y-90474589D01*
X81724330Y-90367293D01*
X81506517Y-90301220D01*
X81336756Y-90284500D01*
X81223244Y-90284500D01*
X81053483Y-90301220D01*
X80835670Y-90367293D01*
X80634933Y-90474589D01*
X80458985Y-90618985D01*
X80314589Y-90794933D01*
X80207293Y-90995670D01*
X80141220Y-91213483D01*
X80118910Y-91440000D01*
X79901090Y-91440000D01*
X79878780Y-91213483D01*
X79812707Y-90995670D01*
X79705411Y-90794933D01*
X79561015Y-90618985D01*
X79385067Y-90474589D01*
X79184330Y-90367293D01*
X78966517Y-90301220D01*
X78796756Y-90284500D01*
X78683244Y-90284500D01*
X78513483Y-90301220D01*
X78295670Y-90367293D01*
X78094933Y-90474589D01*
X78084500Y-90483151D01*
X78084500Y-89856849D01*
X78094933Y-89865411D01*
X78295670Y-89972707D01*
X78513483Y-90038780D01*
X78683244Y-90055500D01*
X78796756Y-90055500D01*
X78966517Y-90038780D01*
X79184330Y-89972707D01*
X79385067Y-89865411D01*
X79561015Y-89721015D01*
X79705411Y-89545067D01*
X79812707Y-89344330D01*
X79878780Y-89126517D01*
X79901090Y-88900000D01*
X80118910Y-88900000D01*
X80141220Y-89126517D01*
X80207293Y-89344330D01*
X80314589Y-89545067D01*
X80458985Y-89721015D01*
X80634933Y-89865411D01*
X80835670Y-89972707D01*
X81053483Y-90038780D01*
X81223244Y-90055500D01*
X81336756Y-90055500D01*
X81506517Y-90038780D01*
X81724330Y-89972707D01*
X81925067Y-89865411D01*
X82101015Y-89721015D01*
X82245411Y-89545067D01*
X82352707Y-89344330D01*
X82418780Y-89126517D01*
X82441090Y-88900000D01*
X92818910Y-88900000D01*
X92841220Y-89126517D01*
X92907293Y-89344330D01*
X93014589Y-89545067D01*
X93158985Y-89721015D01*
X93334933Y-89865411D01*
X93535670Y-89972707D01*
X93753483Y-90038780D01*
X93923244Y-90055500D01*
X94036756Y-90055500D01*
X94206517Y-90038780D01*
X94424330Y-89972707D01*
X94625067Y-89865411D01*
X94801015Y-89721015D01*
X94945411Y-89545067D01*
X95052707Y-89344330D01*
X95118780Y-89126517D01*
X95141090Y-88900000D01*
X95118780Y-88673483D01*
X95052707Y-88455670D01*
X94945411Y-88254933D01*
X94801015Y-88078985D01*
X94625067Y-87934589D01*
X94424330Y-87827293D01*
X94206517Y-87761220D01*
X94036756Y-87744500D01*
X93923244Y-87744500D01*
X93753483Y-87761220D01*
X93535670Y-87827293D01*
X93334933Y-87934589D01*
X93158985Y-88078985D01*
X93014589Y-88254933D01*
X92907293Y-88455670D01*
X92841220Y-88673483D01*
X92818910Y-88900000D01*
X82441090Y-88900000D01*
X82418780Y-88673483D01*
X82352707Y-88455670D01*
X82245411Y-88254933D01*
X82101015Y-88078985D01*
X81925067Y-87934589D01*
X81724330Y-87827293D01*
X81506517Y-87761220D01*
X81336756Y-87744500D01*
X81223244Y-87744500D01*
X81053483Y-87761220D01*
X80835670Y-87827293D01*
X80634933Y-87934589D01*
X80458985Y-88078985D01*
X80314589Y-88254933D01*
X80207293Y-88455670D01*
X80141220Y-88673483D01*
X80118910Y-88900000D01*
X79901090Y-88900000D01*
X79878780Y-88673483D01*
X79812707Y-88455670D01*
X79705411Y-88254933D01*
X79561015Y-88078985D01*
X79385067Y-87934589D01*
X79184330Y-87827293D01*
X78966517Y-87761220D01*
X78796756Y-87744500D01*
X78683244Y-87744500D01*
X78513483Y-87761220D01*
X78295670Y-87827293D01*
X78094933Y-87934589D01*
X78084500Y-87943151D01*
X78084500Y-87316849D01*
X78094933Y-87325411D01*
X78295670Y-87432707D01*
X78513483Y-87498780D01*
X78683244Y-87515500D01*
X78796756Y-87515500D01*
X78966517Y-87498780D01*
X79184330Y-87432707D01*
X79385067Y-87325411D01*
X79561015Y-87181015D01*
X79705411Y-87005067D01*
X79812707Y-86804330D01*
X79878780Y-86586517D01*
X79901090Y-86360000D01*
X80118910Y-86360000D01*
X80141220Y-86586517D01*
X80207293Y-86804330D01*
X80314589Y-87005067D01*
X80458985Y-87181015D01*
X80634933Y-87325411D01*
X80835670Y-87432707D01*
X81053483Y-87498780D01*
X81223244Y-87515500D01*
X81336756Y-87515500D01*
X81506517Y-87498780D01*
X81724330Y-87432707D01*
X81925067Y-87325411D01*
X82101015Y-87181015D01*
X82245411Y-87005067D01*
X82352707Y-86804330D01*
X82418780Y-86586517D01*
X82441090Y-86360000D01*
X92818910Y-86360000D01*
X92841220Y-86586517D01*
X92907293Y-86804330D01*
X93014589Y-87005067D01*
X93158985Y-87181015D01*
X93334933Y-87325411D01*
X93535670Y-87432707D01*
X93753483Y-87498780D01*
X93923244Y-87515500D01*
X94036756Y-87515500D01*
X94206517Y-87498780D01*
X94424330Y-87432707D01*
X94625067Y-87325411D01*
X94801015Y-87181015D01*
X94945411Y-87005067D01*
X95052707Y-86804330D01*
X95118780Y-86586517D01*
X95141090Y-86360000D01*
X95118780Y-86133483D01*
X95052707Y-85915670D01*
X94945411Y-85714933D01*
X94801015Y-85538985D01*
X94625067Y-85394589D01*
X94424330Y-85287293D01*
X94206517Y-85221220D01*
X94036756Y-85204500D01*
X93923244Y-85204500D01*
X93753483Y-85221220D01*
X93535670Y-85287293D01*
X93334933Y-85394589D01*
X93158985Y-85538985D01*
X93014589Y-85714933D01*
X92907293Y-85915670D01*
X92841220Y-86133483D01*
X92818910Y-86360000D01*
X82441090Y-86360000D01*
X82418780Y-86133483D01*
X82352707Y-85915670D01*
X82245411Y-85714933D01*
X82101015Y-85538985D01*
X81925067Y-85394589D01*
X81724330Y-85287293D01*
X81506517Y-85221220D01*
X81336756Y-85204500D01*
X81223244Y-85204500D01*
X81053483Y-85221220D01*
X80835670Y-85287293D01*
X80634933Y-85394589D01*
X80458985Y-85538985D01*
X80314589Y-85714933D01*
X80207293Y-85915670D01*
X80141220Y-86133483D01*
X80118910Y-86360000D01*
X79901090Y-86360000D01*
X79878780Y-86133483D01*
X79812707Y-85915670D01*
X79705411Y-85714933D01*
X79561015Y-85538985D01*
X79385067Y-85394589D01*
X79184330Y-85287293D01*
X78966517Y-85221220D01*
X78796756Y-85204500D01*
X78683244Y-85204500D01*
X78513483Y-85221220D01*
X78295670Y-85287293D01*
X78094933Y-85394589D01*
X78084500Y-85403151D01*
X78084500Y-84776849D01*
X78094933Y-84785411D01*
X78295670Y-84892707D01*
X78513483Y-84958780D01*
X78683244Y-84975500D01*
X78796756Y-84975500D01*
X78966517Y-84958780D01*
X79184330Y-84892707D01*
X79385067Y-84785411D01*
X79561015Y-84641015D01*
X79705411Y-84465067D01*
X79812707Y-84264330D01*
X79878780Y-84046517D01*
X79901090Y-83820000D01*
X80118910Y-83820000D01*
X80141220Y-84046517D01*
X80207293Y-84264330D01*
X80314589Y-84465067D01*
X80458985Y-84641015D01*
X80634933Y-84785411D01*
X80835670Y-84892707D01*
X81053483Y-84958780D01*
X81223244Y-84975500D01*
X81336756Y-84975500D01*
X81506517Y-84958780D01*
X81724330Y-84892707D01*
X81925067Y-84785411D01*
X82101015Y-84641015D01*
X82245411Y-84465067D01*
X82352707Y-84264330D01*
X82418780Y-84046517D01*
X82441090Y-83820000D01*
X92818910Y-83820000D01*
X92841220Y-84046517D01*
X92907293Y-84264330D01*
X93014589Y-84465067D01*
X93158985Y-84641015D01*
X93334933Y-84785411D01*
X93535670Y-84892707D01*
X93753483Y-84958780D01*
X93923244Y-84975500D01*
X94036756Y-84975500D01*
X94206517Y-84958780D01*
X94424330Y-84892707D01*
X94625067Y-84785411D01*
X94801015Y-84641015D01*
X94945411Y-84465067D01*
X95052707Y-84264330D01*
X95118780Y-84046517D01*
X95141090Y-83820000D01*
X95118780Y-83593483D01*
X95052707Y-83375670D01*
X94945411Y-83174933D01*
X94801015Y-82998985D01*
X94625067Y-82854589D01*
X94424330Y-82747293D01*
X94206517Y-82681220D01*
X94036756Y-82664500D01*
X93923244Y-82664500D01*
X93753483Y-82681220D01*
X93535670Y-82747293D01*
X93334933Y-82854589D01*
X93158985Y-82998985D01*
X93014589Y-83174933D01*
X92907293Y-83375670D01*
X92841220Y-83593483D01*
X92818910Y-83820000D01*
X82441090Y-83820000D01*
X82418780Y-83593483D01*
X82352707Y-83375670D01*
X82245411Y-83174933D01*
X82101015Y-82998985D01*
X81925067Y-82854589D01*
X81724330Y-82747293D01*
X81506517Y-82681220D01*
X81336756Y-82664500D01*
X81223244Y-82664500D01*
X81053483Y-82681220D01*
X80835670Y-82747293D01*
X80634933Y-82854589D01*
X80458985Y-82998985D01*
X80314589Y-83174933D01*
X80207293Y-83375670D01*
X80141220Y-83593483D01*
X80118910Y-83820000D01*
X79901090Y-83820000D01*
X79878780Y-83593483D01*
X79812707Y-83375670D01*
X79705411Y-83174933D01*
X79561015Y-82998985D01*
X79385067Y-82854589D01*
X79184330Y-82747293D01*
X78966517Y-82681220D01*
X78796756Y-82664500D01*
X78683244Y-82664500D01*
X78513483Y-82681220D01*
X78295670Y-82747293D01*
X78094933Y-82854589D01*
X78084500Y-82863151D01*
X78084500Y-82236849D01*
X78094933Y-82245411D01*
X78295670Y-82352707D01*
X78513483Y-82418780D01*
X78683244Y-82435500D01*
X78796756Y-82435500D01*
X78966517Y-82418780D01*
X79184330Y-82352707D01*
X79385067Y-82245411D01*
X79561015Y-82101015D01*
X79705411Y-81925067D01*
X79812707Y-81724330D01*
X79878780Y-81506517D01*
X79901090Y-81280000D01*
X80118910Y-81280000D01*
X80141220Y-81506517D01*
X80207293Y-81724330D01*
X80314589Y-81925067D01*
X80458985Y-82101015D01*
X80634933Y-82245411D01*
X80835670Y-82352707D01*
X81053483Y-82418780D01*
X81223244Y-82435500D01*
X81336756Y-82435500D01*
X81506517Y-82418780D01*
X81724330Y-82352707D01*
X81925067Y-82245411D01*
X82101015Y-82101015D01*
X82245411Y-81925067D01*
X82352707Y-81724330D01*
X82418780Y-81506517D01*
X82441090Y-81280000D01*
X92818910Y-81280000D01*
X92841220Y-81506517D01*
X92907293Y-81724330D01*
X93014589Y-81925067D01*
X93158985Y-82101015D01*
X93334933Y-82245411D01*
X93535670Y-82352707D01*
X93753483Y-82418780D01*
X93923244Y-82435500D01*
X94036756Y-82435500D01*
X94206517Y-82418780D01*
X94424330Y-82352707D01*
X94625067Y-82245411D01*
X94801015Y-82101015D01*
X94945411Y-81925067D01*
X95052707Y-81724330D01*
X95118780Y-81506517D01*
X95141090Y-81280000D01*
X95118780Y-81053483D01*
X95052707Y-80835670D01*
X94945411Y-80634933D01*
X94801015Y-80458985D01*
X94625067Y-80314589D01*
X94424330Y-80207293D01*
X94206517Y-80141220D01*
X94036756Y-80124500D01*
X93923244Y-80124500D01*
X93753483Y-80141220D01*
X93535670Y-80207293D01*
X93334933Y-80314589D01*
X93158985Y-80458985D01*
X93014589Y-80634933D01*
X92907293Y-80835670D01*
X92841220Y-81053483D01*
X92818910Y-81280000D01*
X82441090Y-81280000D01*
X82418780Y-81053483D01*
X82352707Y-80835670D01*
X82245411Y-80634933D01*
X82101015Y-80458985D01*
X81925067Y-80314589D01*
X81724330Y-80207293D01*
X81506517Y-80141220D01*
X81336756Y-80124500D01*
X81223244Y-80124500D01*
X81053483Y-80141220D01*
X80835670Y-80207293D01*
X80634933Y-80314589D01*
X80458985Y-80458985D01*
X80314589Y-80634933D01*
X80207293Y-80835670D01*
X80141220Y-81053483D01*
X80118910Y-81280000D01*
X79901090Y-81280000D01*
X79878780Y-81053483D01*
X79812707Y-80835670D01*
X79705411Y-80634933D01*
X79561015Y-80458985D01*
X79385067Y-80314589D01*
X79184330Y-80207293D01*
X78966517Y-80141220D01*
X78796756Y-80124500D01*
X78683244Y-80124500D01*
X78513483Y-80141220D01*
X78295670Y-80207293D01*
X78094933Y-80314589D01*
X78084500Y-80323151D01*
X78084500Y-79696849D01*
X78094933Y-79705411D01*
X78295670Y-79812707D01*
X78513483Y-79878780D01*
X78683244Y-79895500D01*
X78796756Y-79895500D01*
X78966517Y-79878780D01*
X79184330Y-79812707D01*
X79385067Y-79705411D01*
X79561015Y-79561015D01*
X79705411Y-79385067D01*
X79812707Y-79184330D01*
X79878780Y-78966517D01*
X79901090Y-78740000D01*
X80118910Y-78740000D01*
X80141220Y-78966517D01*
X80207293Y-79184330D01*
X80314589Y-79385067D01*
X80458985Y-79561015D01*
X80634933Y-79705411D01*
X80835670Y-79812707D01*
X81053483Y-79878780D01*
X81223244Y-79895500D01*
X81336756Y-79895500D01*
X81506517Y-79878780D01*
X81724330Y-79812707D01*
X81925067Y-79705411D01*
X82101015Y-79561015D01*
X82245411Y-79385067D01*
X82352707Y-79184330D01*
X82418780Y-78966517D01*
X82441090Y-78740000D01*
X92818910Y-78740000D01*
X92841220Y-78966517D01*
X92907293Y-79184330D01*
X93014589Y-79385067D01*
X93158985Y-79561015D01*
X93334933Y-79705411D01*
X93535670Y-79812707D01*
X93753483Y-79878780D01*
X93923244Y-79895500D01*
X94036756Y-79895500D01*
X94206517Y-79878780D01*
X94424330Y-79812707D01*
X94625067Y-79705411D01*
X94801015Y-79561015D01*
X94945411Y-79385067D01*
X95052707Y-79184330D01*
X95118780Y-78966517D01*
X95141090Y-78740000D01*
X95118780Y-78513483D01*
X95052707Y-78295670D01*
X94945411Y-78094933D01*
X94801015Y-77918985D01*
X94625067Y-77774589D01*
X94424330Y-77667293D01*
X94206517Y-77601220D01*
X94036756Y-77584500D01*
X93923244Y-77584500D01*
X93753483Y-77601220D01*
X93535670Y-77667293D01*
X93334933Y-77774589D01*
X93158985Y-77918985D01*
X93014589Y-78094933D01*
X92907293Y-78295670D01*
X92841220Y-78513483D01*
X92818910Y-78740000D01*
X82441090Y-78740000D01*
X82418780Y-78513483D01*
X82352707Y-78295670D01*
X82245411Y-78094933D01*
X82101015Y-77918985D01*
X81925067Y-77774589D01*
X81724330Y-77667293D01*
X81506517Y-77601220D01*
X81336756Y-77584500D01*
X81223244Y-77584500D01*
X81053483Y-77601220D01*
X80835670Y-77667293D01*
X80634933Y-77774589D01*
X80458985Y-77918985D01*
X80314589Y-78094933D01*
X80207293Y-78295670D01*
X80141220Y-78513483D01*
X80118910Y-78740000D01*
X79901090Y-78740000D01*
X79878780Y-78513483D01*
X79812707Y-78295670D01*
X79705411Y-78094933D01*
X79561015Y-77918985D01*
X79385067Y-77774589D01*
X79184330Y-77667293D01*
X78966517Y-77601220D01*
X78796756Y-77584500D01*
X78683244Y-77584500D01*
X78513483Y-77601220D01*
X78295670Y-77667293D01*
X78094933Y-77774589D01*
X78084500Y-77783151D01*
X78084500Y-77156849D01*
X78094933Y-77165411D01*
X78295670Y-77272707D01*
X78513483Y-77338780D01*
X78683244Y-77355500D01*
X78796756Y-77355500D01*
X78966517Y-77338780D01*
X79184330Y-77272707D01*
X79385067Y-77165411D01*
X79561015Y-77021015D01*
X79705411Y-76845067D01*
X79812707Y-76644330D01*
X79878780Y-76426517D01*
X79901090Y-76200000D01*
X80118910Y-76200000D01*
X80141220Y-76426517D01*
X80207293Y-76644330D01*
X80314589Y-76845067D01*
X80458985Y-77021015D01*
X80634933Y-77165411D01*
X80835670Y-77272707D01*
X81053483Y-77338780D01*
X81223244Y-77355500D01*
X81336756Y-77355500D01*
X81506517Y-77338780D01*
X81724330Y-77272707D01*
X81925067Y-77165411D01*
X82101015Y-77021015D01*
X82245411Y-76845067D01*
X82352707Y-76644330D01*
X82418780Y-76426517D01*
X82441090Y-76200000D01*
X92818910Y-76200000D01*
X92841220Y-76426517D01*
X92907293Y-76644330D01*
X93014589Y-76845067D01*
X93158985Y-77021015D01*
X93334933Y-77165411D01*
X93535670Y-77272707D01*
X93753483Y-77338780D01*
X93923244Y-77355500D01*
X94036756Y-77355500D01*
X94206517Y-77338780D01*
X94424330Y-77272707D01*
X94625067Y-77165411D01*
X94801015Y-77021015D01*
X94945411Y-76845067D01*
X95052707Y-76644330D01*
X95118780Y-76426517D01*
X95141090Y-76200000D01*
X95118780Y-75973483D01*
X95052707Y-75755670D01*
X94945411Y-75554933D01*
X94801015Y-75378985D01*
X94625067Y-75234589D01*
X94424330Y-75127293D01*
X94206517Y-75061220D01*
X94036756Y-75044500D01*
X93923244Y-75044500D01*
X93753483Y-75061220D01*
X93535670Y-75127293D01*
X93334933Y-75234589D01*
X93158985Y-75378985D01*
X93014589Y-75554933D01*
X92907293Y-75755670D01*
X92841220Y-75973483D01*
X92818910Y-76200000D01*
X82441090Y-76200000D01*
X82418780Y-75973483D01*
X82352707Y-75755670D01*
X82245411Y-75554933D01*
X82101015Y-75378985D01*
X81925067Y-75234589D01*
X81724330Y-75127293D01*
X81506517Y-75061220D01*
X81336756Y-75044500D01*
X81223244Y-75044500D01*
X81053483Y-75061220D01*
X80835670Y-75127293D01*
X80634933Y-75234589D01*
X80458985Y-75378985D01*
X80314589Y-75554933D01*
X80207293Y-75755670D01*
X80141220Y-75973483D01*
X80118910Y-76200000D01*
X79901090Y-76200000D01*
X79878780Y-75973483D01*
X79812707Y-75755670D01*
X79705411Y-75554933D01*
X79561015Y-75378985D01*
X79385067Y-75234589D01*
X79184330Y-75127293D01*
X78966517Y-75061220D01*
X78796756Y-75044500D01*
X78683244Y-75044500D01*
X78513483Y-75061220D01*
X78295670Y-75127293D01*
X78094933Y-75234589D01*
X78084500Y-75243151D01*
X78084500Y-74616849D01*
X78094933Y-74625411D01*
X78295670Y-74732707D01*
X78513483Y-74798780D01*
X78683244Y-74815500D01*
X78796756Y-74815500D01*
X78966517Y-74798780D01*
X79184330Y-74732707D01*
X79385067Y-74625411D01*
X79561015Y-74481015D01*
X79705411Y-74305067D01*
X79812707Y-74104330D01*
X79878780Y-73886517D01*
X79901090Y-73660000D01*
X80118910Y-73660000D01*
X80141220Y-73886517D01*
X80207293Y-74104330D01*
X80314589Y-74305067D01*
X80458985Y-74481015D01*
X80634933Y-74625411D01*
X80835670Y-74732707D01*
X81053483Y-74798780D01*
X81223244Y-74815500D01*
X81336756Y-74815500D01*
X81506517Y-74798780D01*
X81724330Y-74732707D01*
X81925067Y-74625411D01*
X82101015Y-74481015D01*
X82245411Y-74305067D01*
X82352707Y-74104330D01*
X82418780Y-73886517D01*
X82441090Y-73660000D01*
X92818910Y-73660000D01*
X92841220Y-73886517D01*
X92907293Y-74104330D01*
X93014589Y-74305067D01*
X93158985Y-74481015D01*
X93334933Y-74625411D01*
X93535670Y-74732707D01*
X93753483Y-74798780D01*
X93923244Y-74815500D01*
X94036756Y-74815500D01*
X94206517Y-74798780D01*
X94424330Y-74732707D01*
X94625067Y-74625411D01*
X94801015Y-74481015D01*
X94945411Y-74305067D01*
X95052707Y-74104330D01*
X95118780Y-73886517D01*
X95141090Y-73660000D01*
X95118780Y-73433483D01*
X95052707Y-73215670D01*
X94945411Y-73014933D01*
X94801015Y-72838985D01*
X94625067Y-72694589D01*
X94424330Y-72587293D01*
X94206517Y-72521220D01*
X94036756Y-72504500D01*
X93923244Y-72504500D01*
X93753483Y-72521220D01*
X93535670Y-72587293D01*
X93334933Y-72694589D01*
X93158985Y-72838985D01*
X93014589Y-73014933D01*
X92907293Y-73215670D01*
X92841220Y-73433483D01*
X92818910Y-73660000D01*
X82441090Y-73660000D01*
X82418780Y-73433483D01*
X82352707Y-73215670D01*
X82245411Y-73014933D01*
X82101015Y-72838985D01*
X81925067Y-72694589D01*
X81724330Y-72587293D01*
X81506517Y-72521220D01*
X81336756Y-72504500D01*
X81223244Y-72504500D01*
X81053483Y-72521220D01*
X80835670Y-72587293D01*
X80634933Y-72694589D01*
X80458985Y-72838985D01*
X80314589Y-73014933D01*
X80207293Y-73215670D01*
X80141220Y-73433483D01*
X80118910Y-73660000D01*
X79901090Y-73660000D01*
X79878780Y-73433483D01*
X79812707Y-73215670D01*
X79705411Y-73014933D01*
X79561015Y-72838985D01*
X79385067Y-72694589D01*
X79184330Y-72587293D01*
X78966517Y-72521220D01*
X78796756Y-72504500D01*
X78683244Y-72504500D01*
X78513483Y-72521220D01*
X78295670Y-72587293D01*
X78094933Y-72694589D01*
X78084500Y-72703151D01*
X78084500Y-72076849D01*
X78094933Y-72085411D01*
X78295670Y-72192707D01*
X78513483Y-72258780D01*
X78683244Y-72275500D01*
X78796756Y-72275500D01*
X78966517Y-72258780D01*
X79184330Y-72192707D01*
X79385067Y-72085411D01*
X79561015Y-71941015D01*
X79705411Y-71765067D01*
X79812707Y-71564330D01*
X79878780Y-71346517D01*
X79901090Y-71120000D01*
X80118910Y-71120000D01*
X80141220Y-71346517D01*
X80207293Y-71564330D01*
X80314589Y-71765067D01*
X80458985Y-71941015D01*
X80634933Y-72085411D01*
X80835670Y-72192707D01*
X81053483Y-72258780D01*
X81223244Y-72275500D01*
X81336756Y-72275500D01*
X81506517Y-72258780D01*
X81724330Y-72192707D01*
X81925067Y-72085411D01*
X82101015Y-71941015D01*
X82245411Y-71765067D01*
X82352707Y-71564330D01*
X82418780Y-71346517D01*
X82441090Y-71120000D01*
X92818910Y-71120000D01*
X92841220Y-71346517D01*
X92907293Y-71564330D01*
X93014589Y-71765067D01*
X93158985Y-71941015D01*
X93334933Y-72085411D01*
X93535670Y-72192707D01*
X93753483Y-72258780D01*
X93923244Y-72275500D01*
X94036756Y-72275500D01*
X94206517Y-72258780D01*
X94424330Y-72192707D01*
X94625067Y-72085411D01*
X94801015Y-71941015D01*
X94945411Y-71765067D01*
X95052707Y-71564330D01*
X95118780Y-71346517D01*
X95141090Y-71120000D01*
X95118780Y-70893483D01*
X95052707Y-70675670D01*
X94945411Y-70474933D01*
X94801015Y-70298985D01*
X94625067Y-70154589D01*
X94424330Y-70047293D01*
X94206517Y-69981220D01*
X94036756Y-69964500D01*
X93923244Y-69964500D01*
X93753483Y-69981220D01*
X93535670Y-70047293D01*
X93334933Y-70154589D01*
X93158985Y-70298985D01*
X93014589Y-70474933D01*
X92907293Y-70675670D01*
X92841220Y-70893483D01*
X92818910Y-71120000D01*
X82441090Y-71120000D01*
X82418780Y-70893483D01*
X82352707Y-70675670D01*
X82245411Y-70474933D01*
X82101015Y-70298985D01*
X81925067Y-70154589D01*
X81724330Y-70047293D01*
X81506517Y-69981220D01*
X81336756Y-69964500D01*
X81223244Y-69964500D01*
X81053483Y-69981220D01*
X80835670Y-70047293D01*
X80634933Y-70154589D01*
X80458985Y-70298985D01*
X80314589Y-70474933D01*
X80207293Y-70675670D01*
X80141220Y-70893483D01*
X80118910Y-71120000D01*
X79901090Y-71120000D01*
X79878780Y-70893483D01*
X79812707Y-70675670D01*
X79705411Y-70474933D01*
X79561015Y-70298985D01*
X79385067Y-70154589D01*
X79184330Y-70047293D01*
X78966517Y-69981220D01*
X78796756Y-69964500D01*
X78683244Y-69964500D01*
X78513483Y-69981220D01*
X78295670Y-70047293D01*
X78094933Y-70154589D01*
X78084500Y-70163151D01*
X78084500Y-69536849D01*
X78094933Y-69545411D01*
X78295670Y-69652707D01*
X78513483Y-69718780D01*
X78683244Y-69735500D01*
X78796756Y-69735500D01*
X78966517Y-69718780D01*
X79184330Y-69652707D01*
X79385067Y-69545411D01*
X79561015Y-69401015D01*
X79705411Y-69225067D01*
X79812707Y-69024330D01*
X79878780Y-68806517D01*
X79901090Y-68580000D01*
X80118910Y-68580000D01*
X80141220Y-68806517D01*
X80207293Y-69024330D01*
X80314589Y-69225067D01*
X80458985Y-69401015D01*
X80634933Y-69545411D01*
X80835670Y-69652707D01*
X81053483Y-69718780D01*
X81223244Y-69735500D01*
X81336756Y-69735500D01*
X81506517Y-69718780D01*
X81724330Y-69652707D01*
X81925067Y-69545411D01*
X82101015Y-69401015D01*
X82245411Y-69225067D01*
X82352707Y-69024330D01*
X82418780Y-68806517D01*
X82441090Y-68580000D01*
X92818910Y-68580000D01*
X92841220Y-68806517D01*
X92907293Y-69024330D01*
X93014589Y-69225067D01*
X93158985Y-69401015D01*
X93334933Y-69545411D01*
X93535670Y-69652707D01*
X93753483Y-69718780D01*
X93923244Y-69735500D01*
X94036756Y-69735500D01*
X94206517Y-69718780D01*
X94424330Y-69652707D01*
X94625067Y-69545411D01*
X94801015Y-69401015D01*
X94945411Y-69225067D01*
X95052707Y-69024330D01*
X95118780Y-68806517D01*
X95141090Y-68580000D01*
X95118780Y-68353483D01*
X95052707Y-68135670D01*
X94945411Y-67934933D01*
X94801015Y-67758985D01*
X94625067Y-67614589D01*
X94424330Y-67507293D01*
X94206517Y-67441220D01*
X94036756Y-67424500D01*
X93923244Y-67424500D01*
X93753483Y-67441220D01*
X93535670Y-67507293D01*
X93334933Y-67614589D01*
X93158985Y-67758985D01*
X93014589Y-67934933D01*
X92907293Y-68135670D01*
X92841220Y-68353483D01*
X92818910Y-68580000D01*
X82441090Y-68580000D01*
X82418780Y-68353483D01*
X82352707Y-68135670D01*
X82245411Y-67934933D01*
X82101015Y-67758985D01*
X81925067Y-67614589D01*
X81724330Y-67507293D01*
X81506517Y-67441220D01*
X81336756Y-67424500D01*
X81223244Y-67424500D01*
X81053483Y-67441220D01*
X80835670Y-67507293D01*
X80634933Y-67614589D01*
X80458985Y-67758985D01*
X80314589Y-67934933D01*
X80207293Y-68135670D01*
X80141220Y-68353483D01*
X80118910Y-68580000D01*
X79901090Y-68580000D01*
X79878780Y-68353483D01*
X79812707Y-68135670D01*
X79705411Y-67934933D01*
X79561015Y-67758985D01*
X79385067Y-67614589D01*
X79184330Y-67507293D01*
X78966517Y-67441220D01*
X78875502Y-67432256D01*
X78875502Y-67303431D01*
X79095977Y-67421375D01*
X79358630Y-67325385D01*
X79597509Y-67179998D01*
X79803435Y-66990802D01*
X79968494Y-66765067D01*
X80086342Y-66511468D01*
X80121370Y-66395977D01*
X80002626Y-66175502D01*
X80132256Y-66175502D01*
X80141220Y-66266517D01*
X80207293Y-66484330D01*
X80314589Y-66685067D01*
X80458985Y-66861015D01*
X80634933Y-67005411D01*
X80835670Y-67112707D01*
X81053483Y-67178780D01*
X81223244Y-67195500D01*
X81336756Y-67195500D01*
X81506517Y-67178780D01*
X81724330Y-67112707D01*
X81925067Y-67005411D01*
X82101015Y-66861015D01*
X82245411Y-66685067D01*
X82352707Y-66484330D01*
X82418780Y-66266517D01*
X82441090Y-66040000D01*
X92818910Y-66040000D01*
X92841220Y-66266517D01*
X92907293Y-66484330D01*
X93014589Y-66685067D01*
X93158985Y-66861015D01*
X93334933Y-67005411D01*
X93535670Y-67112707D01*
X93753483Y-67178780D01*
X93923244Y-67195500D01*
X94036756Y-67195500D01*
X94206517Y-67178780D01*
X94424330Y-67112707D01*
X94625067Y-67005411D01*
X94801015Y-66861015D01*
X94945411Y-66685067D01*
X95052707Y-66484330D01*
X95118780Y-66266517D01*
X95141090Y-66040000D01*
X95118780Y-65813483D01*
X95052707Y-65595670D01*
X94945411Y-65394933D01*
X94801015Y-65218985D01*
X94625067Y-65074589D01*
X94424330Y-64967293D01*
X94206517Y-64901220D01*
X94036756Y-64884500D01*
X93923244Y-64884500D01*
X93753483Y-64901220D01*
X93535670Y-64967293D01*
X93334933Y-65074589D01*
X93158985Y-65218985D01*
X93014589Y-65394933D01*
X92907293Y-65595670D01*
X92841220Y-65813483D01*
X92818910Y-66040000D01*
X82441090Y-66040000D01*
X82418780Y-65813483D01*
X82352707Y-65595670D01*
X82245411Y-65394933D01*
X82101015Y-65218985D01*
X81925067Y-65074589D01*
X81724330Y-64967293D01*
X81506517Y-64901220D01*
X81336756Y-64884500D01*
X81223244Y-64884500D01*
X81053483Y-64901220D01*
X80835670Y-64967293D01*
X80634933Y-65074589D01*
X80458985Y-65218985D01*
X80314589Y-65394933D01*
X80207293Y-65595670D01*
X80141220Y-65813483D01*
X80132256Y-65904498D01*
X80002626Y-65904498D01*
X80121370Y-65684023D01*
X80086342Y-65568532D01*
X79968494Y-65314933D01*
X79803435Y-65089198D01*
X79597509Y-64900002D01*
X79358630Y-64754615D01*
X79095977Y-64658625D01*
X78875502Y-64776569D01*
X78875502Y-64647744D01*
X78966517Y-64638780D01*
X79184330Y-64572707D01*
X79385067Y-64465411D01*
X79561015Y-64321015D01*
X79705411Y-64145067D01*
X79812707Y-63944330D01*
X79878780Y-63726517D01*
X79901090Y-63500000D01*
X80118910Y-63500000D01*
X80141220Y-63726517D01*
X80207293Y-63944330D01*
X80314589Y-64145067D01*
X80458985Y-64321015D01*
X80634933Y-64465411D01*
X80835670Y-64572707D01*
X81053483Y-64638780D01*
X81223244Y-64655500D01*
X81336756Y-64655500D01*
X81506517Y-64638780D01*
X81724330Y-64572707D01*
X81925067Y-64465411D01*
X82101015Y-64321015D01*
X82200329Y-64199999D01*
X85302780Y-64199999D01*
X85302780Y-64850001D01*
X85314448Y-64968464D01*
X85349002Y-65082374D01*
X85405115Y-65187354D01*
X85480630Y-65279370D01*
X85572646Y-65354885D01*
X85677626Y-65410998D01*
X85791536Y-65445552D01*
X85909999Y-65457220D01*
X86810001Y-65457220D01*
X86928464Y-65445552D01*
X87042374Y-65410998D01*
X87147354Y-65354885D01*
X87239370Y-65279370D01*
X87314885Y-65187354D01*
X87370998Y-65082374D01*
X87405552Y-64968464D01*
X87417220Y-64850001D01*
X87417220Y-64199999D01*
X87842780Y-64199999D01*
X87842780Y-64850001D01*
X87854448Y-64968464D01*
X87889002Y-65082374D01*
X87945115Y-65187354D01*
X88020630Y-65279370D01*
X88112646Y-65354885D01*
X88217626Y-65410998D01*
X88331536Y-65445552D01*
X88449999Y-65457220D01*
X89350001Y-65457220D01*
X89468464Y-65445552D01*
X89582374Y-65410998D01*
X89687354Y-65354885D01*
X89779370Y-65279370D01*
X89854885Y-65187354D01*
X89910998Y-65082374D01*
X89945552Y-64968464D01*
X89957220Y-64850001D01*
X89957220Y-64199999D01*
X89945552Y-64081536D01*
X89910998Y-63967626D01*
X89854885Y-63862646D01*
X89779370Y-63770630D01*
X89687354Y-63695115D01*
X89582374Y-63639002D01*
X89468464Y-63604448D01*
X89350001Y-63592780D01*
X88449999Y-63592780D01*
X88331536Y-63604448D01*
X88217626Y-63639002D01*
X88112646Y-63695115D01*
X88020630Y-63770630D01*
X87945115Y-63862646D01*
X87889002Y-63967626D01*
X87854448Y-64081536D01*
X87842780Y-64199999D01*
X87417220Y-64199999D01*
X87405552Y-64081536D01*
X87370998Y-63967626D01*
X87314885Y-63862646D01*
X87239370Y-63770630D01*
X87147354Y-63695115D01*
X87042374Y-63639002D01*
X86928464Y-63604448D01*
X86810001Y-63592780D01*
X85909999Y-63592780D01*
X85791536Y-63604448D01*
X85677626Y-63639002D01*
X85572646Y-63695115D01*
X85480630Y-63770630D01*
X85405115Y-63862646D01*
X85349002Y-63967626D01*
X85314448Y-64081536D01*
X85302780Y-64199999D01*
X82200329Y-64199999D01*
X82245411Y-64145067D01*
X82352707Y-63944330D01*
X82418780Y-63726517D01*
X82441090Y-63500000D01*
X82418780Y-63273483D01*
X82352707Y-63055670D01*
X82245411Y-62854933D01*
X82101015Y-62678985D01*
X81925067Y-62534589D01*
X81724330Y-62427293D01*
X81506517Y-62361220D01*
X81336756Y-62344500D01*
X81223244Y-62344500D01*
X81053483Y-62361220D01*
X80835670Y-62427293D01*
X80634933Y-62534589D01*
X80458985Y-62678985D01*
X80314589Y-62854933D01*
X80207293Y-63055670D01*
X80141220Y-63273483D01*
X80118910Y-63500000D01*
X79901090Y-63500000D01*
X79878780Y-63273483D01*
X79812707Y-63055670D01*
X79705411Y-62854933D01*
X79561015Y-62678985D01*
X79385067Y-62534589D01*
X79184330Y-62427293D01*
X78966517Y-62361220D01*
X78796756Y-62344500D01*
X78683244Y-62344500D01*
X78513483Y-62361220D01*
X78295670Y-62427293D01*
X78094933Y-62534589D01*
X78084500Y-62543151D01*
X78084500Y-61916849D01*
X78094933Y-61925411D01*
X78295670Y-62032707D01*
X78513483Y-62098780D01*
X78683244Y-62115500D01*
X78796756Y-62115500D01*
X78966517Y-62098780D01*
X79184330Y-62032707D01*
X79385067Y-61925411D01*
X79561015Y-61781015D01*
X79705411Y-61605067D01*
X79812707Y-61404330D01*
X79878780Y-61186517D01*
X79901090Y-60960000D01*
X80118910Y-60960000D01*
X80141220Y-61186517D01*
X80207293Y-61404330D01*
X80314589Y-61605067D01*
X80458985Y-61781015D01*
X80634933Y-61925411D01*
X80835670Y-62032707D01*
X81053483Y-62098780D01*
X81223244Y-62115500D01*
X81336756Y-62115500D01*
X81506517Y-62098780D01*
X81724330Y-62032707D01*
X81925067Y-61925411D01*
X82101015Y-61781015D01*
X82245411Y-61605067D01*
X82352707Y-61404330D01*
X82418780Y-61186517D01*
X82441090Y-60960000D01*
X82418780Y-60733483D01*
X82352707Y-60515670D01*
X82245411Y-60314933D01*
X82101015Y-60138985D01*
X81925067Y-59994589D01*
X81724330Y-59887293D01*
X81506517Y-59821220D01*
X81336756Y-59804500D01*
X81223244Y-59804500D01*
X81053483Y-59821220D01*
X80835670Y-59887293D01*
X80634933Y-59994589D01*
X80458985Y-60138985D01*
X80314589Y-60314933D01*
X80207293Y-60515670D01*
X80141220Y-60733483D01*
X80118910Y-60960000D01*
X79901090Y-60960000D01*
X79878780Y-60733483D01*
X79812707Y-60515670D01*
X79705411Y-60314933D01*
X79561015Y-60138985D01*
X79385067Y-59994589D01*
X79184330Y-59887293D01*
X78966517Y-59821220D01*
X78796756Y-59804500D01*
X78683244Y-59804500D01*
X78513483Y-59821220D01*
X78295670Y-59887293D01*
X78094933Y-59994589D01*
X78084500Y-60003151D01*
X78084500Y-59376849D01*
X78094933Y-59385411D01*
X78295670Y-59492707D01*
X78513483Y-59558780D01*
X78683244Y-59575500D01*
X78796756Y-59575500D01*
X78966517Y-59558780D01*
X79184330Y-59492707D01*
X79385067Y-59385411D01*
X79561015Y-59241015D01*
X79705411Y-59065067D01*
X79812707Y-58864330D01*
X79878780Y-58646517D01*
X79901090Y-58420000D01*
X79878780Y-58193483D01*
X79812707Y-57975670D01*
X79705411Y-57774933D01*
X79561015Y-57598985D01*
X79385067Y-57454589D01*
X79184330Y-57347293D01*
X78966517Y-57281220D01*
X78796756Y-57264500D01*
X78683244Y-57264500D01*
X78513483Y-57281220D01*
X78295670Y-57347293D01*
X78094933Y-57454589D01*
X78084500Y-57463151D01*
X78084500Y-56836849D01*
X78094933Y-56845411D01*
X78295670Y-56952707D01*
X78513483Y-57018780D01*
X78683244Y-57035500D01*
X78796756Y-57035500D01*
X78966517Y-57018780D01*
X79184330Y-56952707D01*
X79385067Y-56845411D01*
X79561015Y-56701015D01*
X79705411Y-56525067D01*
X79812707Y-56324330D01*
X79878780Y-56106517D01*
X79901090Y-55880000D01*
X79878780Y-55653483D01*
X79812707Y-55435670D01*
X79705411Y-55234933D01*
X79561015Y-55058985D01*
X79385067Y-54914589D01*
X79184330Y-54807293D01*
X78966517Y-54741220D01*
X78796756Y-54724500D01*
X78683244Y-54724500D01*
X78513483Y-54741220D01*
X78295670Y-54807293D01*
X78094933Y-54914589D01*
X78084500Y-54923151D01*
X78084500Y-54296849D01*
X78094933Y-54305411D01*
X78295670Y-54412707D01*
X78513483Y-54478780D01*
X78683244Y-54495500D01*
X78796756Y-54495500D01*
X78966517Y-54478780D01*
X79184330Y-54412707D01*
X79385067Y-54305411D01*
X79561015Y-54161015D01*
X79705411Y-53985067D01*
X79812707Y-53784330D01*
X79878780Y-53566517D01*
X79901090Y-53340000D01*
X80118910Y-53340000D01*
X80141220Y-53566517D01*
X80207293Y-53784330D01*
X80314589Y-53985067D01*
X80458985Y-54161015D01*
X80634933Y-54305411D01*
X80835670Y-54412707D01*
X81053483Y-54478780D01*
X81223244Y-54495500D01*
X81336756Y-54495500D01*
X81506517Y-54478780D01*
X81724330Y-54412707D01*
X81925067Y-54305411D01*
X82101015Y-54161015D01*
X82245411Y-53985067D01*
X82352707Y-53784330D01*
X82418780Y-53566517D01*
X82441090Y-53340000D01*
X82418780Y-53113483D01*
X82352707Y-52895670D01*
X82245411Y-52694933D01*
X82101015Y-52518985D01*
X81925067Y-52374589D01*
X81724330Y-52267293D01*
X81506517Y-52201220D01*
X81336756Y-52184500D01*
X81223244Y-52184500D01*
X81053483Y-52201220D01*
X80835670Y-52267293D01*
X80634933Y-52374589D01*
X80458985Y-52518985D01*
X80314589Y-52694933D01*
X80207293Y-52895670D01*
X80141220Y-53113483D01*
X80118910Y-53340000D01*
X79901090Y-53340000D01*
X79878780Y-53113483D01*
X79812707Y-52895670D01*
X79705411Y-52694933D01*
X79561015Y-52518985D01*
X79385067Y-52374589D01*
X79184330Y-52267293D01*
X79050210Y-52226608D01*
X79540000Y-52229531D01*
X79662815Y-52217435D01*
X79780911Y-52181611D01*
X79889749Y-52123436D01*
X79985146Y-52045146D01*
X80063436Y-51949749D01*
X80121611Y-51840911D01*
X80152046Y-51740582D01*
X80182982Y-51798461D01*
X80227407Y-51852593D01*
X80281539Y-51897018D01*
X80343298Y-51930028D01*
X80410310Y-51950356D01*
X80480000Y-51957220D01*
X82080000Y-51957220D01*
X82149690Y-51950356D01*
X82216702Y-51930028D01*
X82278461Y-51897018D01*
X82332593Y-51852593D01*
X82377018Y-51798461D01*
X82410028Y-51736702D01*
X82430356Y-51669690D01*
X82437220Y-51600000D01*
X82437220Y-50000000D01*
X82430356Y-49930310D01*
X82410028Y-49863298D01*
X82377018Y-49801539D01*
X82332593Y-49747407D01*
X82278461Y-49702982D01*
X82216702Y-49669972D01*
X82149690Y-49649644D01*
X82080000Y-49642780D01*
X80480000Y-49642780D01*
X80410310Y-49649644D01*
X80343298Y-49669972D01*
X80281539Y-49702982D01*
X80227407Y-49747407D01*
X80182982Y-49801539D01*
X80152046Y-49859418D01*
X80121611Y-49759089D01*
X80063436Y-49650251D01*
X80052151Y-49636500D01*
X85823041Y-49636500D01*
X85748564Y-49727251D01*
X85748564Y-49727251D01*
G37*
X85748564Y-49727251D02*
X85690389Y-49836089D01*
X85654565Y-49954185D01*
X85642469Y-50077000D01*
X85643988Y-50356547D01*
X85589186Y-50254020D01*
X85438541Y-50070459D01*
X85254980Y-49919814D01*
X85045557Y-49807875D01*
X84818319Y-49738943D01*
X84641214Y-49721500D01*
X84522786Y-49721500D01*
X84345681Y-49738943D01*
X84118443Y-49807875D01*
X83909020Y-49919814D01*
X83725459Y-50070459D01*
X83574814Y-50254020D01*
X83462875Y-50463443D01*
X83393943Y-50690681D01*
X83370668Y-50927000D01*
X83393943Y-51163319D01*
X83462875Y-51390557D01*
X83574814Y-51599980D01*
X83725459Y-51783541D01*
X83909020Y-51934186D01*
X83959500Y-51961168D01*
X83959500Y-52320152D01*
X81531005Y-54748648D01*
X81506517Y-54741220D01*
X81336756Y-54724500D01*
X81223244Y-54724500D01*
X81053483Y-54741220D01*
X80835670Y-54807293D01*
X80634933Y-54914589D01*
X80458985Y-55058985D01*
X80314589Y-55234933D01*
X80207293Y-55435670D01*
X80141220Y-55653483D01*
X80118910Y-55880000D01*
X80141220Y-56106517D01*
X80207293Y-56324330D01*
X80314589Y-56525067D01*
X80458985Y-56701015D01*
X80634933Y-56845411D01*
X80788938Y-56927728D01*
X80837697Y-56987142D01*
X80861452Y-57006637D01*
X81128633Y-57273818D01*
X81053483Y-57281220D01*
X80835670Y-57347293D01*
X80634933Y-57454589D01*
X80458985Y-57598985D01*
X80314589Y-57774933D01*
X80207293Y-57975670D01*
X80141220Y-58193483D01*
X80118910Y-58420000D01*
X80141220Y-58646517D01*
X80207293Y-58864330D01*
X80314589Y-59065067D01*
X80458985Y-59241015D01*
X80634933Y-59385411D01*
X80835670Y-59492707D01*
X81053483Y-59558780D01*
X81223244Y-59575500D01*
X81336756Y-59575500D01*
X81506517Y-59558780D01*
X81724330Y-59492707D01*
X81925067Y-59385411D01*
X82101015Y-59241015D01*
X82245411Y-59065067D01*
X82269553Y-59019900D01*
X85311466Y-62061814D01*
X85302780Y-62149999D01*
X85302780Y-62800001D01*
X85314448Y-62918464D01*
X85349002Y-63032374D01*
X85405115Y-63137354D01*
X85480630Y-63229370D01*
X85572646Y-63304885D01*
X85677626Y-63360998D01*
X85791536Y-63395552D01*
X85909999Y-63407220D01*
X86810001Y-63407220D01*
X86928464Y-63395552D01*
X87042374Y-63360998D01*
X87147354Y-63304885D01*
X87239370Y-63229370D01*
X87314885Y-63137354D01*
X87370998Y-63032374D01*
X87405552Y-62918464D01*
X87417220Y-62800001D01*
X87417220Y-62149999D01*
X87405552Y-62031536D01*
X87370998Y-61917626D01*
X87314885Y-61812646D01*
X87239370Y-61720630D01*
X87147354Y-61645115D01*
X87042374Y-61589002D01*
X86928464Y-61554448D01*
X86810001Y-61542780D01*
X86553128Y-61542780D01*
X83169501Y-58159154D01*
X83169501Y-57842418D01*
X83172513Y-57811839D01*
X83167751Y-57763492D01*
X83160494Y-57689808D01*
X83124899Y-57572466D01*
X83070647Y-57470968D01*
X83067095Y-57464322D01*
X83008799Y-57393289D01*
X82989305Y-57369535D01*
X82965550Y-57350040D01*
X82765510Y-57150000D01*
X85607488Y-57150000D01*
X85619507Y-57272031D01*
X85655102Y-57389373D01*
X85712906Y-57497516D01*
X85790696Y-57592304D01*
X85885484Y-57670094D01*
X85993627Y-57727898D01*
X86110969Y-57763493D01*
X86202419Y-57772500D01*
X87301421Y-57772500D01*
X87332000Y-57775512D01*
X87362579Y-57772500D01*
X87362581Y-57772500D01*
X87454031Y-57763493D01*
X87571373Y-57727898D01*
X87679516Y-57670094D01*
X87774304Y-57592304D01*
X87793804Y-57568543D01*
X87869127Y-57493220D01*
X87875227Y-57493220D01*
X87933575Y-57568518D01*
X88026744Y-57649446D01*
X88133912Y-57710643D01*
X88250959Y-57749757D01*
X88353875Y-57762500D01*
X88510500Y-57605875D01*
X88510500Y-56921500D01*
X88490500Y-56921500D01*
X88490500Y-56650500D01*
X88510500Y-56650500D01*
X88510500Y-56630500D01*
X88781500Y-56630500D01*
X88781500Y-56650500D01*
X88801500Y-56650500D01*
X88801500Y-56921500D01*
X88781500Y-56921500D01*
X88781500Y-57605875D01*
X88938125Y-57762500D01*
X89041041Y-57749757D01*
X89158088Y-57710643D01*
X89265256Y-57649446D01*
X89358425Y-57568518D01*
X89416773Y-57493220D01*
X89422873Y-57493220D01*
X90768200Y-58838548D01*
X90787696Y-58862304D01*
X90811450Y-58881798D01*
X90882483Y-58940094D01*
X90940287Y-58970991D01*
X90990627Y-58997898D01*
X91107969Y-59033493D01*
X91199419Y-59042500D01*
X91199421Y-59042500D01*
X91230000Y-59045512D01*
X91260579Y-59042500D01*
X93002527Y-59042500D01*
X93014589Y-59065067D01*
X93158985Y-59241015D01*
X93334933Y-59385411D01*
X93535670Y-59492707D01*
X93753483Y-59558780D01*
X93923244Y-59575500D01*
X94036756Y-59575500D01*
X94206517Y-59558780D01*
X94424330Y-59492707D01*
X94625067Y-59385411D01*
X94801015Y-59241015D01*
X94945411Y-59065067D01*
X95052707Y-58864330D01*
X95118780Y-58646517D01*
X95141090Y-58420000D01*
X95118780Y-58193483D01*
X95052707Y-57975670D01*
X94945411Y-57774933D01*
X94801015Y-57598985D01*
X94625067Y-57454589D01*
X94424330Y-57347293D01*
X94206517Y-57281220D01*
X94036756Y-57264500D01*
X93923244Y-57264500D01*
X93753483Y-57281220D01*
X93535670Y-57347293D01*
X93334933Y-57454589D01*
X93158985Y-57598985D01*
X93014589Y-57774933D01*
X93002527Y-57797500D01*
X91487848Y-57797500D01*
X90208220Y-56517873D01*
X90208220Y-56436000D01*
X90201356Y-56366310D01*
X90181028Y-56299298D01*
X90148018Y-56237539D01*
X90103593Y-56183407D01*
X90049461Y-56138982D01*
X89987702Y-56105972D01*
X89920690Y-56085644D01*
X89851000Y-56078780D01*
X89749539Y-56078780D01*
X89762304Y-56068304D01*
X89781804Y-56044543D01*
X89946347Y-55880000D01*
X92818910Y-55880000D01*
X92841220Y-56106517D01*
X92907293Y-56324330D01*
X93014589Y-56525067D01*
X93158985Y-56701015D01*
X93334933Y-56845411D01*
X93535670Y-56952707D01*
X93753483Y-57018780D01*
X93923244Y-57035500D01*
X94036756Y-57035500D01*
X94206517Y-57018780D01*
X94424330Y-56952707D01*
X94625067Y-56845411D01*
X94801015Y-56701015D01*
X94945411Y-56525067D01*
X95052707Y-56324330D01*
X95118780Y-56106517D01*
X95141090Y-55880000D01*
X95118780Y-55653483D01*
X95052707Y-55435670D01*
X94945411Y-55234933D01*
X94801015Y-55058985D01*
X94625067Y-54914589D01*
X94424330Y-54807293D01*
X94206517Y-54741220D01*
X94036756Y-54724500D01*
X93923244Y-54724500D01*
X93753483Y-54741220D01*
X93535670Y-54807293D01*
X93334933Y-54914589D01*
X93158985Y-55058985D01*
X93014589Y-55234933D01*
X92907293Y-55435670D01*
X92841220Y-55653483D01*
X92818910Y-55880000D01*
X89946347Y-55880000D01*
X90014544Y-55811803D01*
X90038304Y-55792304D01*
X90116094Y-55697516D01*
X90173898Y-55589373D01*
X90209493Y-55472031D01*
X90218500Y-55380581D01*
X90218500Y-55380579D01*
X90221512Y-55350000D01*
X90218500Y-55319421D01*
X90218500Y-54435419D01*
X90209493Y-54343969D01*
X90208220Y-54339772D01*
X90208220Y-54116000D01*
X90201356Y-54046310D01*
X90181028Y-53979298D01*
X90172050Y-53962500D01*
X93002527Y-53962500D01*
X93014589Y-53985067D01*
X93158985Y-54161015D01*
X93334933Y-54305411D01*
X93535670Y-54412707D01*
X93753483Y-54478780D01*
X93923244Y-54495500D01*
X94036756Y-54495500D01*
X94206517Y-54478780D01*
X94424330Y-54412707D01*
X94625067Y-54305411D01*
X94801015Y-54161015D01*
X94945411Y-53985067D01*
X95052707Y-53784330D01*
X95118780Y-53566517D01*
X95141090Y-53340000D01*
X95118780Y-53113483D01*
X95052707Y-52895670D01*
X94945411Y-52694933D01*
X94801015Y-52518985D01*
X94625067Y-52374589D01*
X94424330Y-52267293D01*
X94206517Y-52201220D01*
X94036756Y-52184500D01*
X93923244Y-52184500D01*
X93753483Y-52201220D01*
X93535670Y-52267293D01*
X93334933Y-52374589D01*
X93158985Y-52518985D01*
X93014589Y-52694933D01*
X93002527Y-52717500D01*
X88356976Y-52717500D01*
X88326397Y-52714488D01*
X88295818Y-52717500D01*
X88295817Y-52717500D01*
X88204367Y-52726507D01*
X88087025Y-52762102D01*
X87978882Y-52819906D01*
X87884094Y-52897696D01*
X87864598Y-52921452D01*
X87277452Y-53508599D01*
X87253697Y-53528094D01*
X87234202Y-53551849D01*
X87175906Y-53622882D01*
X87147005Y-53676953D01*
X87118102Y-53731025D01*
X87082507Y-53848367D01*
X87075659Y-53917898D01*
X87070488Y-53970398D01*
X87073500Y-54000977D01*
X87073500Y-54496580D01*
X87082507Y-54588030D01*
X87083780Y-54592227D01*
X87083780Y-54816000D01*
X87090644Y-54885690D01*
X87110972Y-54952702D01*
X87143982Y-55014461D01*
X87188407Y-55068593D01*
X87242539Y-55113018D01*
X87304298Y-55146028D01*
X87371310Y-55166356D01*
X87441000Y-55173220D01*
X87542461Y-55173220D01*
X87529696Y-55183696D01*
X87510196Y-55207457D01*
X87277453Y-55440200D01*
X87253697Y-55459696D01*
X87234202Y-55483451D01*
X87175906Y-55554484D01*
X87129862Y-55640627D01*
X87118103Y-55662627D01*
X87082508Y-55779969D01*
X87074096Y-55865374D01*
X87070488Y-55902000D01*
X87073500Y-55932579D01*
X87073500Y-56527500D01*
X86202419Y-56527500D01*
X86110969Y-56536507D01*
X85993627Y-56572102D01*
X85885484Y-56629906D01*
X85790696Y-56707696D01*
X85712906Y-56802484D01*
X85655102Y-56910627D01*
X85619507Y-57027969D01*
X85607488Y-57150000D01*
X82765510Y-57150000D01*
X82198156Y-56582647D01*
X82245411Y-56525067D01*
X82352707Y-56324330D01*
X82418780Y-56106517D01*
X82441090Y-55880000D01*
X82418780Y-55653483D01*
X82411352Y-55628995D01*
X85000550Y-53039798D01*
X85024304Y-53020304D01*
X85102094Y-52925516D01*
X85159898Y-52817373D01*
X85195493Y-52700031D01*
X85204500Y-52608581D01*
X85204500Y-52608580D01*
X85207512Y-52578001D01*
X85204500Y-52547422D01*
X85204500Y-51961168D01*
X85254980Y-51934186D01*
X85438541Y-51783541D01*
X85589186Y-51599980D01*
X85643988Y-51497453D01*
X85642469Y-51777000D01*
X85654565Y-51899815D01*
X85690389Y-52017911D01*
X85748564Y-52126749D01*
X85826854Y-52222146D01*
X85922251Y-52300436D01*
X86031089Y-52358611D01*
X86149185Y-52394435D01*
X86272000Y-52406531D01*
X86829875Y-52403500D01*
X86986500Y-52246875D01*
X86986500Y-51062500D01*
X87257500Y-51062500D01*
X87257500Y-52246875D01*
X87414125Y-52403500D01*
X87972000Y-52406531D01*
X88094815Y-52394435D01*
X88212911Y-52358611D01*
X88321749Y-52300436D01*
X88417146Y-52222146D01*
X88495436Y-52126749D01*
X88553611Y-52017911D01*
X88589435Y-51899815D01*
X88601531Y-51777000D01*
X88598500Y-51219125D01*
X88441875Y-51062500D01*
X87257500Y-51062500D01*
X86986500Y-51062500D01*
X86966500Y-51062500D01*
X86966500Y-50800000D01*
X92818910Y-50800000D01*
X92841220Y-51026517D01*
X92907293Y-51244330D01*
X93014589Y-51445067D01*
X93158985Y-51621015D01*
X93334933Y-51765411D01*
X93535670Y-51872707D01*
X93753483Y-51938780D01*
X93923244Y-51955500D01*
X94036756Y-51955500D01*
X94206517Y-51938780D01*
X94424330Y-51872707D01*
X94625067Y-51765411D01*
X94801015Y-51621015D01*
X94945411Y-51445067D01*
X95052707Y-51244330D01*
X95118780Y-51026517D01*
X95141090Y-50800000D01*
X95118780Y-50573483D01*
X95052707Y-50355670D01*
X94945411Y-50154933D01*
X94801015Y-49978985D01*
X94625067Y-49834589D01*
X94424330Y-49727293D01*
X94206517Y-49661220D01*
X94036756Y-49644500D01*
X93923244Y-49644500D01*
X93753483Y-49661220D01*
X93535670Y-49727293D01*
X93334933Y-49834589D01*
X93158985Y-49978985D01*
X93014589Y-50154933D01*
X92907293Y-50355670D01*
X92841220Y-50573483D01*
X92818910Y-50800000D01*
X86966500Y-50800000D01*
X86966500Y-50791500D01*
X86986500Y-50791500D01*
X86986500Y-50771500D01*
X87257500Y-50771500D01*
X87257500Y-50791500D01*
X88441875Y-50791500D01*
X88598500Y-50634875D01*
X88601531Y-50077000D01*
X88589435Y-49954185D01*
X88553611Y-49836089D01*
X88495436Y-49727251D01*
X88420959Y-49636500D01*
X97175500Y-49636500D01*
X97175500Y-49843151D01*
X97165067Y-49834589D01*
X96964330Y-49727293D01*
X96746517Y-49661220D01*
X96576756Y-49644500D01*
X96463244Y-49644500D01*
X96293483Y-49661220D01*
X96075670Y-49727293D01*
X95874933Y-49834589D01*
X95698985Y-49978985D01*
X95554589Y-50154933D01*
X95447293Y-50355670D01*
X95381220Y-50573483D01*
X95358910Y-50800000D01*
X95381220Y-51026517D01*
X95447293Y-51244330D01*
X95554589Y-51445067D01*
X95698985Y-51621015D01*
X95874933Y-51765411D01*
X96075670Y-51872707D01*
X96293483Y-51938780D01*
X96463244Y-51955500D01*
X96576756Y-51955500D01*
X96746517Y-51938780D01*
X96964330Y-51872707D01*
X97165067Y-51765411D01*
X97175500Y-51756849D01*
X97175500Y-52383151D01*
X97165067Y-52374589D01*
X96964330Y-52267293D01*
X96746517Y-52201220D01*
X96576756Y-52184500D01*
X96463244Y-52184500D01*
X96293483Y-52201220D01*
X96075670Y-52267293D01*
X95874933Y-52374589D01*
X95698985Y-52518985D01*
X95554589Y-52694933D01*
X95447293Y-52895670D01*
X95381220Y-53113483D01*
X95358910Y-53340000D01*
X95381220Y-53566517D01*
X95447293Y-53784330D01*
X95554589Y-53985067D01*
X95698985Y-54161015D01*
X95874933Y-54305411D01*
X96075670Y-54412707D01*
X96293483Y-54478780D01*
X96463244Y-54495500D01*
X96576756Y-54495500D01*
X96746517Y-54478780D01*
X96964330Y-54412707D01*
X97165067Y-54305411D01*
X97175500Y-54296849D01*
X97175500Y-54923151D01*
X97165067Y-54914589D01*
X96964330Y-54807293D01*
X96746517Y-54741220D01*
X96576756Y-54724500D01*
X96463244Y-54724500D01*
X96293483Y-54741220D01*
X96075670Y-54807293D01*
X95874933Y-54914589D01*
X95698985Y-55058985D01*
X95554589Y-55234933D01*
X95447293Y-55435670D01*
X95381220Y-55653483D01*
X95358910Y-55880000D01*
X95381220Y-56106517D01*
X95447293Y-56324330D01*
X95554589Y-56525067D01*
X95698985Y-56701015D01*
X95874933Y-56845411D01*
X96075670Y-56952707D01*
X96293483Y-57018780D01*
X96463244Y-57035500D01*
X96576756Y-57035500D01*
X96746517Y-57018780D01*
X96964330Y-56952707D01*
X97165067Y-56845411D01*
X97175500Y-56836849D01*
X97175500Y-57463151D01*
X97165067Y-57454589D01*
X96964330Y-57347293D01*
X96746517Y-57281220D01*
X96576756Y-57264500D01*
X96463244Y-57264500D01*
X96293483Y-57281220D01*
X96075670Y-57347293D01*
X95874933Y-57454589D01*
X95698985Y-57598985D01*
X95554589Y-57774933D01*
X95447293Y-57975670D01*
X95381220Y-58193483D01*
X95358910Y-58420000D01*
X95381220Y-58646517D01*
X95447293Y-58864330D01*
X95554589Y-59065067D01*
X95698985Y-59241015D01*
X95874933Y-59385411D01*
X96075670Y-59492707D01*
X96293483Y-59558780D01*
X96463244Y-59575500D01*
X96576756Y-59575500D01*
X96746517Y-59558780D01*
X96964330Y-59492707D01*
X97165067Y-59385411D01*
X97175500Y-59376849D01*
X97175500Y-60003151D01*
X97165067Y-59994589D01*
X96964330Y-59887293D01*
X96746517Y-59821220D01*
X96576756Y-59804500D01*
X96463244Y-59804500D01*
X96293483Y-59821220D01*
X96075670Y-59887293D01*
X95874933Y-59994589D01*
X95698985Y-60138985D01*
X95554589Y-60314933D01*
X95447293Y-60515670D01*
X95381220Y-60733483D01*
X95358910Y-60960000D01*
X95381220Y-61186517D01*
X95388648Y-61211004D01*
X94989275Y-61610378D01*
X94941071Y-61610355D01*
X94945411Y-61605067D01*
X95052707Y-61404330D01*
X95118780Y-61186517D01*
X95141090Y-60960000D01*
X95118780Y-60733483D01*
X95052707Y-60515670D01*
X94945411Y-60314933D01*
X94801015Y-60138985D01*
X94625067Y-59994589D01*
X94424330Y-59887293D01*
X94206517Y-59821220D01*
X94036756Y-59804500D01*
X93923244Y-59804500D01*
X93753483Y-59821220D01*
X93535670Y-59887293D01*
X93334933Y-59994589D01*
X93158985Y-60138985D01*
X93014589Y-60314933D01*
X92907293Y-60515670D01*
X92841220Y-60733483D01*
X92818910Y-60960000D01*
X92841220Y-61186517D01*
X92907293Y-61404330D01*
X93014589Y-61605067D01*
X93018183Y-61609446D01*
X89617616Y-61607839D01*
X89582374Y-61589002D01*
X89468464Y-61554448D01*
X89350001Y-61542780D01*
X88449999Y-61542780D01*
X88331536Y-61554448D01*
X88217626Y-61589002D01*
X88112646Y-61645115D01*
X88020630Y-61720630D01*
X87945115Y-61812646D01*
X87889002Y-61917626D01*
X87854448Y-62031536D01*
X87842780Y-62149999D01*
X87842780Y-62800001D01*
X87854448Y-62918464D01*
X87889002Y-63032374D01*
X87945115Y-63137354D01*
X88020630Y-63229370D01*
X88112646Y-63304885D01*
X88217626Y-63360998D01*
X88331536Y-63395552D01*
X88449999Y-63407220D01*
X89350001Y-63407220D01*
X89468464Y-63395552D01*
X89582374Y-63360998D01*
X89687354Y-63304885D01*
X89779370Y-63229370D01*
X89854885Y-63137354D01*
X89910998Y-63032374D01*
X89945552Y-62918464D01*
X89952000Y-62852997D01*
X93014990Y-62854444D01*
X93014589Y-62854933D01*
X92907293Y-63055670D01*
X92841220Y-63273483D01*
X92818910Y-63500000D01*
X92841220Y-63726517D01*
X92907293Y-63944330D01*
X93014589Y-64145067D01*
X93158985Y-64321015D01*
X93334933Y-64465411D01*
X93535670Y-64572707D01*
X93753483Y-64638780D01*
X93923244Y-64655500D01*
X94036756Y-64655500D01*
X94206517Y-64638780D01*
X94424330Y-64572707D01*
X94625067Y-64465411D01*
X94801015Y-64321015D01*
X94945411Y-64145067D01*
X95052707Y-63944330D01*
X95118780Y-63726517D01*
X95141090Y-63500000D01*
X95118780Y-63273483D01*
X95052707Y-63055670D01*
X94945637Y-62855356D01*
X95216272Y-62855484D01*
X95247001Y-62858511D01*
X95307809Y-62852521D01*
X95368742Y-62846549D01*
X95368886Y-62846505D01*
X95369032Y-62846491D01*
X95426254Y-62829133D01*
X95486101Y-62811010D01*
X95486236Y-62810938D01*
X95486374Y-62810896D01*
X95539689Y-62782399D01*
X95594271Y-62753257D01*
X95594385Y-62753164D01*
X95594517Y-62753093D01*
X95641650Y-62714411D01*
X95689096Y-62675511D01*
X95708697Y-62651650D01*
X96268996Y-62091352D01*
X96293483Y-62098780D01*
X96463244Y-62115500D01*
X96576756Y-62115500D01*
X96746517Y-62098780D01*
X96964330Y-62032707D01*
X97165067Y-61925411D01*
X97175500Y-61916849D01*
X97175500Y-62543151D01*
X97165067Y-62534589D01*
X96964330Y-62427293D01*
X96746517Y-62361220D01*
X96576756Y-62344500D01*
X96463244Y-62344500D01*
X96293483Y-62361220D01*
X96075670Y-62427293D01*
X95874933Y-62534589D01*
X95698985Y-62678985D01*
X95554589Y-62854933D01*
X95447293Y-63055670D01*
X95381220Y-63273483D01*
X95358910Y-63500000D01*
X95381220Y-63726517D01*
X95447293Y-63944330D01*
X95554589Y-64145067D01*
X95698985Y-64321015D01*
X95874933Y-64465411D01*
X96075670Y-64572707D01*
X96293483Y-64638780D01*
X96463244Y-64655500D01*
X96576756Y-64655500D01*
X96746517Y-64638780D01*
X96964330Y-64572707D01*
X97165067Y-64465411D01*
X97175500Y-64456849D01*
X97175500Y-65083151D01*
X97165067Y-65074589D01*
X96964330Y-64967293D01*
X96746517Y-64901220D01*
X96576756Y-64884500D01*
X96463244Y-64884500D01*
X96293483Y-64901220D01*
X96075670Y-64967293D01*
X95874933Y-65074589D01*
X95698985Y-65218985D01*
X95554589Y-65394933D01*
X95447293Y-65595670D01*
X95381220Y-65813483D01*
X95358910Y-66040000D01*
X95381220Y-66266517D01*
X95447293Y-66484330D01*
X95554589Y-66685067D01*
X95698985Y-66861015D01*
X95874933Y-67005411D01*
X96075670Y-67112707D01*
X96293483Y-67178780D01*
X96463244Y-67195500D01*
X96576756Y-67195500D01*
X96746517Y-67178780D01*
X96964330Y-67112707D01*
X97165067Y-67005411D01*
X97175500Y-66996849D01*
X97175500Y-67623151D01*
X97165067Y-67614589D01*
X96964330Y-67507293D01*
X96746517Y-67441220D01*
X96576756Y-67424500D01*
X96463244Y-67424500D01*
X96293483Y-67441220D01*
X96075670Y-67507293D01*
X95874933Y-67614589D01*
X95698985Y-67758985D01*
X95554589Y-67934933D01*
X95447293Y-68135670D01*
X95381220Y-68353483D01*
X95358910Y-68580000D01*
X95381220Y-68806517D01*
X95447293Y-69024330D01*
X95554589Y-69225067D01*
X95698985Y-69401015D01*
X95874933Y-69545411D01*
X96075670Y-69652707D01*
X96293483Y-69718780D01*
X96463244Y-69735500D01*
X96576756Y-69735500D01*
X96746517Y-69718780D01*
X96964330Y-69652707D01*
X97165067Y-69545411D01*
X97175500Y-69536849D01*
X97175500Y-70163151D01*
X97165067Y-70154589D01*
X96964330Y-70047293D01*
X96746517Y-69981220D01*
X96576756Y-69964500D01*
X96463244Y-69964500D01*
X96293483Y-69981220D01*
X96075670Y-70047293D01*
X95874933Y-70154589D01*
X95698985Y-70298985D01*
X95554589Y-70474933D01*
X95447293Y-70675670D01*
X95381220Y-70893483D01*
X95358910Y-71120000D01*
X95381220Y-71346517D01*
X95447293Y-71564330D01*
X95554589Y-71765067D01*
X95698985Y-71941015D01*
X95874933Y-72085411D01*
X96075670Y-72192707D01*
X96293483Y-72258780D01*
X96463244Y-72275500D01*
X96576756Y-72275500D01*
X96746517Y-72258780D01*
X96964330Y-72192707D01*
X97165067Y-72085411D01*
X97175500Y-72076849D01*
X97175500Y-72703151D01*
X97165067Y-72694589D01*
X96964330Y-72587293D01*
X96746517Y-72521220D01*
X96576756Y-72504500D01*
X96463244Y-72504500D01*
X96293483Y-72521220D01*
X96075670Y-72587293D01*
X95874933Y-72694589D01*
X95698985Y-72838985D01*
X95554589Y-73014933D01*
X95447293Y-73215670D01*
X95381220Y-73433483D01*
X95358910Y-73660000D01*
X95381220Y-73886517D01*
X95447293Y-74104330D01*
X95554589Y-74305067D01*
X95698985Y-74481015D01*
X95874933Y-74625411D01*
X96075670Y-74732707D01*
X96293483Y-74798780D01*
X96463244Y-74815500D01*
X96576756Y-74815500D01*
X96746517Y-74798780D01*
X96964330Y-74732707D01*
X97165067Y-74625411D01*
X97175500Y-74616848D01*
X97175501Y-75243152D01*
X97165067Y-75234589D01*
X96964330Y-75127293D01*
X96746517Y-75061220D01*
X96576756Y-75044500D01*
X96463244Y-75044500D01*
X96293483Y-75061220D01*
X96075670Y-75127293D01*
X95874933Y-75234589D01*
X95698985Y-75378985D01*
X95554589Y-75554933D01*
X95447293Y-75755670D01*
X95381220Y-75973483D01*
X95358910Y-76200000D01*
X95381220Y-76426517D01*
X95447293Y-76644330D01*
X95554589Y-76845067D01*
X95698985Y-77021015D01*
X95874933Y-77165411D01*
X96075670Y-77272707D01*
X96293483Y-77338780D01*
X96463244Y-77355500D01*
X96576756Y-77355500D01*
X96746517Y-77338780D01*
X96964330Y-77272707D01*
X97165067Y-77165411D01*
X97175501Y-77156848D01*
X97175501Y-77783152D01*
X97165067Y-77774589D01*
X96964330Y-77667293D01*
X96746517Y-77601220D01*
X96576756Y-77584500D01*
X96463244Y-77584500D01*
X96293483Y-77601220D01*
X96075670Y-77667293D01*
X95874933Y-77774589D01*
X95698985Y-77918985D01*
X95554589Y-78094933D01*
X95447293Y-78295670D01*
X95381220Y-78513483D01*
X95358910Y-78740000D01*
X95381220Y-78966517D01*
X95447293Y-79184330D01*
X95554589Y-79385067D01*
X95698985Y-79561015D01*
X95874933Y-79705411D01*
X96075670Y-79812707D01*
X96293483Y-79878780D01*
X96463244Y-79895500D01*
X96576756Y-79895500D01*
X96746517Y-79878780D01*
X96964330Y-79812707D01*
X97165067Y-79705411D01*
X97175501Y-79696848D01*
X97175501Y-80323152D01*
X97165067Y-80314589D01*
X96964330Y-80207293D01*
X96746517Y-80141220D01*
X96576756Y-80124500D01*
X96463244Y-80124500D01*
X96293483Y-80141220D01*
X96075670Y-80207293D01*
X95874933Y-80314589D01*
X95698985Y-80458985D01*
X95554589Y-80634933D01*
X95447293Y-80835670D01*
X95381220Y-81053483D01*
X95358910Y-81280000D01*
X95381220Y-81506517D01*
X95447293Y-81724330D01*
X95554589Y-81925067D01*
X95698985Y-82101015D01*
X95874933Y-82245411D01*
X96075670Y-82352707D01*
X96293483Y-82418780D01*
X96463244Y-82435500D01*
X96576756Y-82435500D01*
X96746517Y-82418780D01*
X96964330Y-82352707D01*
X97165067Y-82245411D01*
X97175501Y-82236848D01*
X97175501Y-82863152D01*
X97165067Y-82854589D01*
X96964330Y-82747293D01*
X96746517Y-82681220D01*
X96576756Y-82664500D01*
X96463244Y-82664500D01*
X96293483Y-82681220D01*
X96075670Y-82747293D01*
X95874933Y-82854589D01*
X95698985Y-82998985D01*
X95554589Y-83174933D01*
X95447293Y-83375670D01*
X95381220Y-83593483D01*
X95358910Y-83820000D01*
X95381220Y-84046517D01*
X95447293Y-84264330D01*
X95554589Y-84465067D01*
X95698985Y-84641015D01*
X95874933Y-84785411D01*
X96075670Y-84892707D01*
X96293483Y-84958780D01*
X96463244Y-84975500D01*
X96576756Y-84975500D01*
X96746517Y-84958780D01*
X96964330Y-84892707D01*
X97165067Y-84785411D01*
X97175501Y-84776848D01*
X97175501Y-85403152D01*
X97165067Y-85394589D01*
X96964330Y-85287293D01*
X96746517Y-85221220D01*
X96576756Y-85204500D01*
X96463244Y-85204500D01*
X96293483Y-85221220D01*
X96075670Y-85287293D01*
X95874933Y-85394589D01*
X95698985Y-85538985D01*
X95554589Y-85714933D01*
X95447293Y-85915670D01*
X95381220Y-86133483D01*
X95358910Y-86360000D01*
X95381220Y-86586517D01*
X95447293Y-86804330D01*
X95554589Y-87005067D01*
X95698985Y-87181015D01*
X95874933Y-87325411D01*
X96075670Y-87432707D01*
X96293483Y-87498780D01*
X96463244Y-87515500D01*
X96576756Y-87515500D01*
X96746517Y-87498780D01*
X96964330Y-87432707D01*
X97165067Y-87325411D01*
X97175501Y-87316848D01*
X97175501Y-87943152D01*
X97165067Y-87934589D01*
X96964330Y-87827293D01*
X96746517Y-87761220D01*
X96576756Y-87744500D01*
X96463244Y-87744500D01*
X96293483Y-87761220D01*
X96075670Y-87827293D01*
X95874933Y-87934589D01*
X95698985Y-88078985D01*
X95554589Y-88254933D01*
X95447293Y-88455670D01*
X95381220Y-88673483D01*
X95358910Y-88900000D01*
X95381220Y-89126517D01*
X95447293Y-89344330D01*
X95554589Y-89545067D01*
X95698985Y-89721015D01*
X95874933Y-89865411D01*
X96075670Y-89972707D01*
X96293483Y-90038780D01*
X96463244Y-90055500D01*
X96576756Y-90055500D01*
X96746517Y-90038780D01*
X96964330Y-89972707D01*
X97165067Y-89865411D01*
X97175501Y-89856848D01*
X97175501Y-90483152D01*
X97165067Y-90474589D01*
X96964330Y-90367293D01*
X96746517Y-90301220D01*
X96576756Y-90284500D01*
X96463244Y-90284500D01*
X96293483Y-90301220D01*
X96075670Y-90367293D01*
X95874933Y-90474589D01*
X95698985Y-90618985D01*
X95554589Y-90794933D01*
X95447293Y-90995670D01*
X95381220Y-91213483D01*
X95358910Y-91440000D01*
X95381220Y-91666517D01*
X95447293Y-91884330D01*
X95554589Y-92085067D01*
X95698985Y-92261015D01*
X95874933Y-92405411D01*
X96075670Y-92512707D01*
X96293483Y-92578780D01*
X96463244Y-92595500D01*
X96576756Y-92595500D01*
X96746517Y-92578780D01*
X96964330Y-92512707D01*
X97165067Y-92405411D01*
X97175501Y-92396848D01*
X97175501Y-93023152D01*
X97165067Y-93014589D01*
X96964330Y-92907293D01*
X96746517Y-92841220D01*
X96576756Y-92824500D01*
X96463244Y-92824500D01*
X96293483Y-92841220D01*
X96075670Y-92907293D01*
X95874933Y-93014589D01*
X95698985Y-93158985D01*
X95554589Y-93334933D01*
X95447293Y-93535670D01*
X95381220Y-93753483D01*
X95358910Y-93980000D01*
X95381220Y-94206517D01*
X95447293Y-94424330D01*
X95554589Y-94625067D01*
X95698985Y-94801015D01*
X95874933Y-94945411D01*
X96075670Y-95052707D01*
X96293483Y-95118780D01*
X96463244Y-95135500D01*
X96576756Y-95135500D01*
X96746517Y-95118780D01*
X96964330Y-95052707D01*
X97165067Y-94945411D01*
X97175501Y-94936848D01*
X97175501Y-95563152D01*
X97165067Y-95554589D01*
X96964330Y-95447293D01*
X96746517Y-95381220D01*
X96576756Y-95364500D01*
X96463244Y-95364500D01*
X96293483Y-95381220D01*
X96075670Y-95447293D01*
X95874933Y-95554589D01*
X95698985Y-95698985D01*
X95554589Y-95874933D01*
X95447293Y-96075670D01*
X95381220Y-96293483D01*
X95358910Y-96520000D01*
X95381220Y-96746517D01*
X95447293Y-96964330D01*
X95554589Y-97165067D01*
X95698985Y-97341015D01*
X95874933Y-97485411D01*
X96075670Y-97592707D01*
X96293483Y-97658780D01*
X96384498Y-97667744D01*
X96384498Y-97796569D01*
X96164023Y-97678625D01*
X95901370Y-97774615D01*
X95662491Y-97920002D01*
X95456565Y-98109198D01*
X95291506Y-98334933D01*
X95250000Y-98424250D01*
X95208494Y-98334933D01*
X95043435Y-98109198D01*
X94837509Y-97920002D01*
X94598630Y-97774615D01*
X94335977Y-97678625D01*
X94115502Y-97796569D01*
X94115502Y-97667744D01*
X94206517Y-97658780D01*
X94424330Y-97592707D01*
X94625067Y-97485411D01*
X94801015Y-97341015D01*
X94945411Y-97165067D01*
X95052707Y-96964330D01*
X95118780Y-96746517D01*
X95141090Y-96520000D01*
X95118780Y-96293483D01*
X95052707Y-96075670D01*
X94945411Y-95874933D01*
X94801015Y-95698985D01*
X94625067Y-95554589D01*
X94424330Y-95447293D01*
X94206517Y-95381220D01*
X94036756Y-95364500D01*
X93923244Y-95364500D01*
X93753483Y-95381220D01*
X93535670Y-95447293D01*
X93334933Y-95554589D01*
X93158985Y-95698985D01*
X93014589Y-95874933D01*
X92907293Y-96075670D01*
X92841220Y-96293483D01*
X92818910Y-96520000D01*
X92841220Y-96746517D01*
X92907293Y-96964330D01*
X93014589Y-97165067D01*
X93158985Y-97341015D01*
X93334933Y-97485411D01*
X93535670Y-97592707D01*
X93753483Y-97658780D01*
X93844498Y-97667744D01*
X93844498Y-97796569D01*
X93624023Y-97678625D01*
X93361370Y-97774615D01*
X93122491Y-97920002D01*
X92916565Y-98109198D01*
X92751506Y-98334933D01*
X92633658Y-98588532D01*
X92598630Y-98704023D01*
X92717375Y-98924500D01*
X93844500Y-98924500D01*
X93844500Y-98904500D01*
X94115500Y-98904500D01*
X94115500Y-98924500D01*
X95242625Y-98924500D01*
X95250000Y-98910807D01*
X95257375Y-98924500D01*
X96384500Y-98924500D01*
X96384500Y-98904500D01*
X96655500Y-98904500D01*
X96655500Y-98924500D01*
X96675500Y-98924500D01*
X96675500Y-99195500D01*
X96655500Y-99195500D01*
X96655500Y-99215500D01*
X96384500Y-99215500D01*
X96384500Y-99195500D01*
X95257375Y-99195500D01*
X95250000Y-99209193D01*
X95242625Y-99195500D01*
X94115500Y-99195500D01*
X94115500Y-99215500D01*
X93844500Y-99215500D01*
X93844500Y-99195500D01*
X92717375Y-99195500D01*
X92598630Y-99415977D01*
X92633658Y-99531468D01*
X92751506Y-99785067D01*
X92886365Y-99969500D01*
X81993195Y-99969500D01*
X82101015Y-99881015D01*
X82245411Y-99705067D01*
X82352707Y-99504330D01*
X82418780Y-99286517D01*
X82441090Y-99060000D01*
X82418780Y-98833483D01*
X82352707Y-98615670D01*
X82245411Y-98414933D01*
X82101015Y-98238985D01*
X81925067Y-98094589D01*
X81724330Y-97987293D01*
X81506517Y-97921220D01*
X81336756Y-97904500D01*
X81223244Y-97904500D01*
X81053483Y-97921220D01*
X80835670Y-97987293D01*
X80634933Y-98094589D01*
X80458985Y-98238985D01*
X80314589Y-98414933D01*
X80207293Y-98615670D01*
X80141220Y-98833483D01*
X80118910Y-99060000D01*
X80141220Y-99286517D01*
X80207293Y-99504330D01*
X80314589Y-99705067D01*
X80458985Y-99881015D01*
X80566805Y-99969500D01*
X79453195Y-99969500D01*
X79561015Y-99881015D01*
X79705411Y-99705067D01*
X79812707Y-99504330D01*
X79878780Y-99286517D01*
X79901090Y-99060000D01*
X79878780Y-98833483D01*
X79812707Y-98615670D01*
X79705411Y-98414933D01*
X79561015Y-98238985D01*
X79385067Y-98094589D01*
X79184330Y-97987293D01*
X78966517Y-97921220D01*
X78796756Y-97904500D01*
X78683244Y-97904500D01*
X78513483Y-97921220D01*
X78295670Y-97987293D01*
X78094933Y-98094589D01*
X78084500Y-98103151D01*
X78084500Y-97476849D01*
X78094933Y-97485411D01*
X78295670Y-97592707D01*
X78513483Y-97658780D01*
X78683244Y-97675500D01*
X78796756Y-97675500D01*
X78966517Y-97658780D01*
X79184330Y-97592707D01*
X79385067Y-97485411D01*
X79561015Y-97341015D01*
X79705411Y-97165067D01*
X79812707Y-96964330D01*
X79878780Y-96746517D01*
X79901090Y-96520000D01*
X80118910Y-96520000D01*
X80141220Y-96746517D01*
X80207293Y-96964330D01*
X80314589Y-97165067D01*
X80458985Y-97341015D01*
X80634933Y-97485411D01*
X80835670Y-97592707D01*
X81053483Y-97658780D01*
X81223244Y-97675500D01*
X81336756Y-97675500D01*
X81506517Y-97658780D01*
X81724330Y-97592707D01*
X81925067Y-97485411D01*
X82101015Y-97341015D01*
X82245411Y-97165067D01*
X82352707Y-96964330D01*
X82418780Y-96746517D01*
X82441090Y-96520000D01*
X82418780Y-96293483D01*
X82352707Y-96075670D01*
X82245411Y-95874933D01*
X82101015Y-95698985D01*
X81925067Y-95554589D01*
X81724330Y-95447293D01*
X81506517Y-95381220D01*
X81336756Y-95364500D01*
X81223244Y-95364500D01*
X81053483Y-95381220D01*
X80835670Y-95447293D01*
X80634933Y-95554589D01*
X80458985Y-95698985D01*
X80314589Y-95874933D01*
X80207293Y-96075670D01*
X80141220Y-96293483D01*
X80118910Y-96520000D01*
X79901090Y-96520000D01*
X79878780Y-96293483D01*
X79812707Y-96075670D01*
X79705411Y-95874933D01*
X79561015Y-95698985D01*
X79385067Y-95554589D01*
X79184330Y-95447293D01*
X78966517Y-95381220D01*
X78796756Y-95364500D01*
X78683244Y-95364500D01*
X78513483Y-95381220D01*
X78295670Y-95447293D01*
X78094933Y-95554589D01*
X78084500Y-95563151D01*
X78084500Y-94936849D01*
X78094933Y-94945411D01*
X78295670Y-95052707D01*
X78513483Y-95118780D01*
X78683244Y-95135500D01*
X78796756Y-95135500D01*
X78966517Y-95118780D01*
X79184330Y-95052707D01*
X79385067Y-94945411D01*
X79561015Y-94801015D01*
X79705411Y-94625067D01*
X79812707Y-94424330D01*
X79878780Y-94206517D01*
X79901090Y-93980000D01*
X80118910Y-93980000D01*
X80141220Y-94206517D01*
X80207293Y-94424330D01*
X80314589Y-94625067D01*
X80458985Y-94801015D01*
X80634933Y-94945411D01*
X80835670Y-95052707D01*
X81053483Y-95118780D01*
X81223244Y-95135500D01*
X81336756Y-95135500D01*
X81506517Y-95118780D01*
X81724330Y-95052707D01*
X81925067Y-94945411D01*
X82101015Y-94801015D01*
X82245411Y-94625067D01*
X82352707Y-94424330D01*
X82418780Y-94206517D01*
X82441090Y-93980000D01*
X92818910Y-93980000D01*
X92841220Y-94206517D01*
X92907293Y-94424330D01*
X93014589Y-94625067D01*
X93158985Y-94801015D01*
X93334933Y-94945411D01*
X93535670Y-95052707D01*
X93753483Y-95118780D01*
X93923244Y-95135500D01*
X94036756Y-95135500D01*
X94206517Y-95118780D01*
X94424330Y-95052707D01*
X94625067Y-94945411D01*
X94801015Y-94801015D01*
X94945411Y-94625067D01*
X95052707Y-94424330D01*
X95118780Y-94206517D01*
X95141090Y-93980000D01*
X95118780Y-93753483D01*
X95052707Y-93535670D01*
X94945411Y-93334933D01*
X94801015Y-93158985D01*
X94625067Y-93014589D01*
X94424330Y-92907293D01*
X94206517Y-92841220D01*
X94036756Y-92824500D01*
X93923244Y-92824500D01*
X93753483Y-92841220D01*
X93535670Y-92907293D01*
X93334933Y-93014589D01*
X93158985Y-93158985D01*
X93014589Y-93334933D01*
X92907293Y-93535670D01*
X92841220Y-93753483D01*
X92818910Y-93980000D01*
X82441090Y-93980000D01*
X82418780Y-93753483D01*
X82352707Y-93535670D01*
X82245411Y-93334933D01*
X82101015Y-93158985D01*
X81925067Y-93014589D01*
X81724330Y-92907293D01*
X81506517Y-92841220D01*
X81336756Y-92824500D01*
X81223244Y-92824500D01*
X81053483Y-92841220D01*
X80835670Y-92907293D01*
X80634933Y-93014589D01*
X80458985Y-93158985D01*
X80314589Y-93334933D01*
X80207293Y-93535670D01*
X80141220Y-93753483D01*
X80118910Y-93980000D01*
X79901090Y-93980000D01*
X79878780Y-93753483D01*
X79812707Y-93535670D01*
X79705411Y-93334933D01*
X79561015Y-93158985D01*
X79385067Y-93014589D01*
X79184330Y-92907293D01*
X78966517Y-92841220D01*
X78796756Y-92824500D01*
X78683244Y-92824500D01*
X78513483Y-92841220D01*
X78295670Y-92907293D01*
X78094933Y-93014589D01*
X78084500Y-93023151D01*
X78084500Y-92396849D01*
X78094933Y-92405411D01*
X78295670Y-92512707D01*
X78513483Y-92578780D01*
X78683244Y-92595500D01*
X78796756Y-92595500D01*
X78966517Y-92578780D01*
X79184330Y-92512707D01*
X79385067Y-92405411D01*
X79561015Y-92261015D01*
X79705411Y-92085067D01*
X79812707Y-91884330D01*
X79878780Y-91666517D01*
X79901090Y-91440000D01*
X80118910Y-91440000D01*
X80141220Y-91666517D01*
X80207293Y-91884330D01*
X80314589Y-92085067D01*
X80458985Y-92261015D01*
X80634933Y-92405411D01*
X80835670Y-92512707D01*
X81053483Y-92578780D01*
X81223244Y-92595500D01*
X81336756Y-92595500D01*
X81506517Y-92578780D01*
X81724330Y-92512707D01*
X81925067Y-92405411D01*
X82101015Y-92261015D01*
X82245411Y-92085067D01*
X82352707Y-91884330D01*
X82418780Y-91666517D01*
X82441090Y-91440000D01*
X92818910Y-91440000D01*
X92841220Y-91666517D01*
X92907293Y-91884330D01*
X93014589Y-92085067D01*
X93158985Y-92261015D01*
X93334933Y-92405411D01*
X93535670Y-92512707D01*
X93753483Y-92578780D01*
X93923244Y-92595500D01*
X94036756Y-92595500D01*
X94206517Y-92578780D01*
X94424330Y-92512707D01*
X94625067Y-92405411D01*
X94801015Y-92261015D01*
X94945411Y-92085067D01*
X95052707Y-91884330D01*
X95118780Y-91666517D01*
X95141090Y-91440000D01*
X95118780Y-91213483D01*
X95052707Y-90995670D01*
X94945411Y-90794933D01*
X94801015Y-90618985D01*
X94625067Y-90474589D01*
X94424330Y-90367293D01*
X94206517Y-90301220D01*
X94036756Y-90284500D01*
X93923244Y-90284500D01*
X93753483Y-90301220D01*
X93535670Y-90367293D01*
X93334933Y-90474589D01*
X93158985Y-90618985D01*
X93014589Y-90794933D01*
X92907293Y-90995670D01*
X92841220Y-91213483D01*
X92818910Y-91440000D01*
X82441090Y-91440000D01*
X82418780Y-91213483D01*
X82352707Y-90995670D01*
X82245411Y-90794933D01*
X82101015Y-90618985D01*
X81925067Y-90474589D01*
X81724330Y-90367293D01*
X81506517Y-90301220D01*
X81336756Y-90284500D01*
X81223244Y-90284500D01*
X81053483Y-90301220D01*
X80835670Y-90367293D01*
X80634933Y-90474589D01*
X80458985Y-90618985D01*
X80314589Y-90794933D01*
X80207293Y-90995670D01*
X80141220Y-91213483D01*
X80118910Y-91440000D01*
X79901090Y-91440000D01*
X79878780Y-91213483D01*
X79812707Y-90995670D01*
X79705411Y-90794933D01*
X79561015Y-90618985D01*
X79385067Y-90474589D01*
X79184330Y-90367293D01*
X78966517Y-90301220D01*
X78796756Y-90284500D01*
X78683244Y-90284500D01*
X78513483Y-90301220D01*
X78295670Y-90367293D01*
X78094933Y-90474589D01*
X78084500Y-90483151D01*
X78084500Y-89856849D01*
X78094933Y-89865411D01*
X78295670Y-89972707D01*
X78513483Y-90038780D01*
X78683244Y-90055500D01*
X78796756Y-90055500D01*
X78966517Y-90038780D01*
X79184330Y-89972707D01*
X79385067Y-89865411D01*
X79561015Y-89721015D01*
X79705411Y-89545067D01*
X79812707Y-89344330D01*
X79878780Y-89126517D01*
X79901090Y-88900000D01*
X80118910Y-88900000D01*
X80141220Y-89126517D01*
X80207293Y-89344330D01*
X80314589Y-89545067D01*
X80458985Y-89721015D01*
X80634933Y-89865411D01*
X80835670Y-89972707D01*
X81053483Y-90038780D01*
X81223244Y-90055500D01*
X81336756Y-90055500D01*
X81506517Y-90038780D01*
X81724330Y-89972707D01*
X81925067Y-89865411D01*
X82101015Y-89721015D01*
X82245411Y-89545067D01*
X82352707Y-89344330D01*
X82418780Y-89126517D01*
X82441090Y-88900000D01*
X92818910Y-88900000D01*
X92841220Y-89126517D01*
X92907293Y-89344330D01*
X93014589Y-89545067D01*
X93158985Y-89721015D01*
X93334933Y-89865411D01*
X93535670Y-89972707D01*
X93753483Y-90038780D01*
X93923244Y-90055500D01*
X94036756Y-90055500D01*
X94206517Y-90038780D01*
X94424330Y-89972707D01*
X94625067Y-89865411D01*
X94801015Y-89721015D01*
X94945411Y-89545067D01*
X95052707Y-89344330D01*
X95118780Y-89126517D01*
X95141090Y-88900000D01*
X95118780Y-88673483D01*
X95052707Y-88455670D01*
X94945411Y-88254933D01*
X94801015Y-88078985D01*
X94625067Y-87934589D01*
X94424330Y-87827293D01*
X94206517Y-87761220D01*
X94036756Y-87744500D01*
X93923244Y-87744500D01*
X93753483Y-87761220D01*
X93535670Y-87827293D01*
X93334933Y-87934589D01*
X93158985Y-88078985D01*
X93014589Y-88254933D01*
X92907293Y-88455670D01*
X92841220Y-88673483D01*
X92818910Y-88900000D01*
X82441090Y-88900000D01*
X82418780Y-88673483D01*
X82352707Y-88455670D01*
X82245411Y-88254933D01*
X82101015Y-88078985D01*
X81925067Y-87934589D01*
X81724330Y-87827293D01*
X81506517Y-87761220D01*
X81336756Y-87744500D01*
X81223244Y-87744500D01*
X81053483Y-87761220D01*
X80835670Y-87827293D01*
X80634933Y-87934589D01*
X80458985Y-88078985D01*
X80314589Y-88254933D01*
X80207293Y-88455670D01*
X80141220Y-88673483D01*
X80118910Y-88900000D01*
X79901090Y-88900000D01*
X79878780Y-88673483D01*
X79812707Y-88455670D01*
X79705411Y-88254933D01*
X79561015Y-88078985D01*
X79385067Y-87934589D01*
X79184330Y-87827293D01*
X78966517Y-87761220D01*
X78796756Y-87744500D01*
X78683244Y-87744500D01*
X78513483Y-87761220D01*
X78295670Y-87827293D01*
X78094933Y-87934589D01*
X78084500Y-87943151D01*
X78084500Y-87316849D01*
X78094933Y-87325411D01*
X78295670Y-87432707D01*
X78513483Y-87498780D01*
X78683244Y-87515500D01*
X78796756Y-87515500D01*
X78966517Y-87498780D01*
X79184330Y-87432707D01*
X79385067Y-87325411D01*
X79561015Y-87181015D01*
X79705411Y-87005067D01*
X79812707Y-86804330D01*
X79878780Y-86586517D01*
X79901090Y-86360000D01*
X80118910Y-86360000D01*
X80141220Y-86586517D01*
X80207293Y-86804330D01*
X80314589Y-87005067D01*
X80458985Y-87181015D01*
X80634933Y-87325411D01*
X80835670Y-87432707D01*
X81053483Y-87498780D01*
X81223244Y-87515500D01*
X81336756Y-87515500D01*
X81506517Y-87498780D01*
X81724330Y-87432707D01*
X81925067Y-87325411D01*
X82101015Y-87181015D01*
X82245411Y-87005067D01*
X82352707Y-86804330D01*
X82418780Y-86586517D01*
X82441090Y-86360000D01*
X92818910Y-86360000D01*
X92841220Y-86586517D01*
X92907293Y-86804330D01*
X93014589Y-87005067D01*
X93158985Y-87181015D01*
X93334933Y-87325411D01*
X93535670Y-87432707D01*
X93753483Y-87498780D01*
X93923244Y-87515500D01*
X94036756Y-87515500D01*
X94206517Y-87498780D01*
X94424330Y-87432707D01*
X94625067Y-87325411D01*
X94801015Y-87181015D01*
X94945411Y-87005067D01*
X95052707Y-86804330D01*
X95118780Y-86586517D01*
X95141090Y-86360000D01*
X95118780Y-86133483D01*
X95052707Y-85915670D01*
X94945411Y-85714933D01*
X94801015Y-85538985D01*
X94625067Y-85394589D01*
X94424330Y-85287293D01*
X94206517Y-85221220D01*
X94036756Y-85204500D01*
X93923244Y-85204500D01*
X93753483Y-85221220D01*
X93535670Y-85287293D01*
X93334933Y-85394589D01*
X93158985Y-85538985D01*
X93014589Y-85714933D01*
X92907293Y-85915670D01*
X92841220Y-86133483D01*
X92818910Y-86360000D01*
X82441090Y-86360000D01*
X82418780Y-86133483D01*
X82352707Y-85915670D01*
X82245411Y-85714933D01*
X82101015Y-85538985D01*
X81925067Y-85394589D01*
X81724330Y-85287293D01*
X81506517Y-85221220D01*
X81336756Y-85204500D01*
X81223244Y-85204500D01*
X81053483Y-85221220D01*
X80835670Y-85287293D01*
X80634933Y-85394589D01*
X80458985Y-85538985D01*
X80314589Y-85714933D01*
X80207293Y-85915670D01*
X80141220Y-86133483D01*
X80118910Y-86360000D01*
X79901090Y-86360000D01*
X79878780Y-86133483D01*
X79812707Y-85915670D01*
X79705411Y-85714933D01*
X79561015Y-85538985D01*
X79385067Y-85394589D01*
X79184330Y-85287293D01*
X78966517Y-85221220D01*
X78796756Y-85204500D01*
X78683244Y-85204500D01*
X78513483Y-85221220D01*
X78295670Y-85287293D01*
X78094933Y-85394589D01*
X78084500Y-85403151D01*
X78084500Y-84776849D01*
X78094933Y-84785411D01*
X78295670Y-84892707D01*
X78513483Y-84958780D01*
X78683244Y-84975500D01*
X78796756Y-84975500D01*
X78966517Y-84958780D01*
X79184330Y-84892707D01*
X79385067Y-84785411D01*
X79561015Y-84641015D01*
X79705411Y-84465067D01*
X79812707Y-84264330D01*
X79878780Y-84046517D01*
X79901090Y-83820000D01*
X80118910Y-83820000D01*
X80141220Y-84046517D01*
X80207293Y-84264330D01*
X80314589Y-84465067D01*
X80458985Y-84641015D01*
X80634933Y-84785411D01*
X80835670Y-84892707D01*
X81053483Y-84958780D01*
X81223244Y-84975500D01*
X81336756Y-84975500D01*
X81506517Y-84958780D01*
X81724330Y-84892707D01*
X81925067Y-84785411D01*
X82101015Y-84641015D01*
X82245411Y-84465067D01*
X82352707Y-84264330D01*
X82418780Y-84046517D01*
X82441090Y-83820000D01*
X92818910Y-83820000D01*
X92841220Y-84046517D01*
X92907293Y-84264330D01*
X93014589Y-84465067D01*
X93158985Y-84641015D01*
X93334933Y-84785411D01*
X93535670Y-84892707D01*
X93753483Y-84958780D01*
X93923244Y-84975500D01*
X94036756Y-84975500D01*
X94206517Y-84958780D01*
X94424330Y-84892707D01*
X94625067Y-84785411D01*
X94801015Y-84641015D01*
X94945411Y-84465067D01*
X95052707Y-84264330D01*
X95118780Y-84046517D01*
X95141090Y-83820000D01*
X95118780Y-83593483D01*
X95052707Y-83375670D01*
X94945411Y-83174933D01*
X94801015Y-82998985D01*
X94625067Y-82854589D01*
X94424330Y-82747293D01*
X94206517Y-82681220D01*
X94036756Y-82664500D01*
X93923244Y-82664500D01*
X93753483Y-82681220D01*
X93535670Y-82747293D01*
X93334933Y-82854589D01*
X93158985Y-82998985D01*
X93014589Y-83174933D01*
X92907293Y-83375670D01*
X92841220Y-83593483D01*
X92818910Y-83820000D01*
X82441090Y-83820000D01*
X82418780Y-83593483D01*
X82352707Y-83375670D01*
X82245411Y-83174933D01*
X82101015Y-82998985D01*
X81925067Y-82854589D01*
X81724330Y-82747293D01*
X81506517Y-82681220D01*
X81336756Y-82664500D01*
X81223244Y-82664500D01*
X81053483Y-82681220D01*
X80835670Y-82747293D01*
X80634933Y-82854589D01*
X80458985Y-82998985D01*
X80314589Y-83174933D01*
X80207293Y-83375670D01*
X80141220Y-83593483D01*
X80118910Y-83820000D01*
X79901090Y-83820000D01*
X79878780Y-83593483D01*
X79812707Y-83375670D01*
X79705411Y-83174933D01*
X79561015Y-82998985D01*
X79385067Y-82854589D01*
X79184330Y-82747293D01*
X78966517Y-82681220D01*
X78796756Y-82664500D01*
X78683244Y-82664500D01*
X78513483Y-82681220D01*
X78295670Y-82747293D01*
X78094933Y-82854589D01*
X78084500Y-82863151D01*
X78084500Y-82236849D01*
X78094933Y-82245411D01*
X78295670Y-82352707D01*
X78513483Y-82418780D01*
X78683244Y-82435500D01*
X78796756Y-82435500D01*
X78966517Y-82418780D01*
X79184330Y-82352707D01*
X79385067Y-82245411D01*
X79561015Y-82101015D01*
X79705411Y-81925067D01*
X79812707Y-81724330D01*
X79878780Y-81506517D01*
X79901090Y-81280000D01*
X80118910Y-81280000D01*
X80141220Y-81506517D01*
X80207293Y-81724330D01*
X80314589Y-81925067D01*
X80458985Y-82101015D01*
X80634933Y-82245411D01*
X80835670Y-82352707D01*
X81053483Y-82418780D01*
X81223244Y-82435500D01*
X81336756Y-82435500D01*
X81506517Y-82418780D01*
X81724330Y-82352707D01*
X81925067Y-82245411D01*
X82101015Y-82101015D01*
X82245411Y-81925067D01*
X82352707Y-81724330D01*
X82418780Y-81506517D01*
X82441090Y-81280000D01*
X92818910Y-81280000D01*
X92841220Y-81506517D01*
X92907293Y-81724330D01*
X93014589Y-81925067D01*
X93158985Y-82101015D01*
X93334933Y-82245411D01*
X93535670Y-82352707D01*
X93753483Y-82418780D01*
X93923244Y-82435500D01*
X94036756Y-82435500D01*
X94206517Y-82418780D01*
X94424330Y-82352707D01*
X94625067Y-82245411D01*
X94801015Y-82101015D01*
X94945411Y-81925067D01*
X95052707Y-81724330D01*
X95118780Y-81506517D01*
X95141090Y-81280000D01*
X95118780Y-81053483D01*
X95052707Y-80835670D01*
X94945411Y-80634933D01*
X94801015Y-80458985D01*
X94625067Y-80314589D01*
X94424330Y-80207293D01*
X94206517Y-80141220D01*
X94036756Y-80124500D01*
X93923244Y-80124500D01*
X93753483Y-80141220D01*
X93535670Y-80207293D01*
X93334933Y-80314589D01*
X93158985Y-80458985D01*
X93014589Y-80634933D01*
X92907293Y-80835670D01*
X92841220Y-81053483D01*
X92818910Y-81280000D01*
X82441090Y-81280000D01*
X82418780Y-81053483D01*
X82352707Y-80835670D01*
X82245411Y-80634933D01*
X82101015Y-80458985D01*
X81925067Y-80314589D01*
X81724330Y-80207293D01*
X81506517Y-80141220D01*
X81336756Y-80124500D01*
X81223244Y-80124500D01*
X81053483Y-80141220D01*
X80835670Y-80207293D01*
X80634933Y-80314589D01*
X80458985Y-80458985D01*
X80314589Y-80634933D01*
X80207293Y-80835670D01*
X80141220Y-81053483D01*
X80118910Y-81280000D01*
X79901090Y-81280000D01*
X79878780Y-81053483D01*
X79812707Y-80835670D01*
X79705411Y-80634933D01*
X79561015Y-80458985D01*
X79385067Y-80314589D01*
X79184330Y-80207293D01*
X78966517Y-80141220D01*
X78796756Y-80124500D01*
X78683244Y-80124500D01*
X78513483Y-80141220D01*
X78295670Y-80207293D01*
X78094933Y-80314589D01*
X78084500Y-80323151D01*
X78084500Y-79696849D01*
X78094933Y-79705411D01*
X78295670Y-79812707D01*
X78513483Y-79878780D01*
X78683244Y-79895500D01*
X78796756Y-79895500D01*
X78966517Y-79878780D01*
X79184330Y-79812707D01*
X79385067Y-79705411D01*
X79561015Y-79561015D01*
X79705411Y-79385067D01*
X79812707Y-79184330D01*
X79878780Y-78966517D01*
X79901090Y-78740000D01*
X80118910Y-78740000D01*
X80141220Y-78966517D01*
X80207293Y-79184330D01*
X80314589Y-79385067D01*
X80458985Y-79561015D01*
X80634933Y-79705411D01*
X80835670Y-79812707D01*
X81053483Y-79878780D01*
X81223244Y-79895500D01*
X81336756Y-79895500D01*
X81506517Y-79878780D01*
X81724330Y-79812707D01*
X81925067Y-79705411D01*
X82101015Y-79561015D01*
X82245411Y-79385067D01*
X82352707Y-79184330D01*
X82418780Y-78966517D01*
X82441090Y-78740000D01*
X92818910Y-78740000D01*
X92841220Y-78966517D01*
X92907293Y-79184330D01*
X93014589Y-79385067D01*
X93158985Y-79561015D01*
X93334933Y-79705411D01*
X93535670Y-79812707D01*
X93753483Y-79878780D01*
X93923244Y-79895500D01*
X94036756Y-79895500D01*
X94206517Y-79878780D01*
X94424330Y-79812707D01*
X94625067Y-79705411D01*
X94801015Y-79561015D01*
X94945411Y-79385067D01*
X95052707Y-79184330D01*
X95118780Y-78966517D01*
X95141090Y-78740000D01*
X95118780Y-78513483D01*
X95052707Y-78295670D01*
X94945411Y-78094933D01*
X94801015Y-77918985D01*
X94625067Y-77774589D01*
X94424330Y-77667293D01*
X94206517Y-77601220D01*
X94036756Y-77584500D01*
X93923244Y-77584500D01*
X93753483Y-77601220D01*
X93535670Y-77667293D01*
X93334933Y-77774589D01*
X93158985Y-77918985D01*
X93014589Y-78094933D01*
X92907293Y-78295670D01*
X92841220Y-78513483D01*
X92818910Y-78740000D01*
X82441090Y-78740000D01*
X82418780Y-78513483D01*
X82352707Y-78295670D01*
X82245411Y-78094933D01*
X82101015Y-77918985D01*
X81925067Y-77774589D01*
X81724330Y-77667293D01*
X81506517Y-77601220D01*
X81336756Y-77584500D01*
X81223244Y-77584500D01*
X81053483Y-77601220D01*
X80835670Y-77667293D01*
X80634933Y-77774589D01*
X80458985Y-77918985D01*
X80314589Y-78094933D01*
X80207293Y-78295670D01*
X80141220Y-78513483D01*
X80118910Y-78740000D01*
X79901090Y-78740000D01*
X79878780Y-78513483D01*
X79812707Y-78295670D01*
X79705411Y-78094933D01*
X79561015Y-77918985D01*
X79385067Y-77774589D01*
X79184330Y-77667293D01*
X78966517Y-77601220D01*
X78796756Y-77584500D01*
X78683244Y-77584500D01*
X78513483Y-77601220D01*
X78295670Y-77667293D01*
X78094933Y-77774589D01*
X78084500Y-77783151D01*
X78084500Y-77156849D01*
X78094933Y-77165411D01*
X78295670Y-77272707D01*
X78513483Y-77338780D01*
X78683244Y-77355500D01*
X78796756Y-77355500D01*
X78966517Y-77338780D01*
X79184330Y-77272707D01*
X79385067Y-77165411D01*
X79561015Y-77021015D01*
X79705411Y-76845067D01*
X79812707Y-76644330D01*
X79878780Y-76426517D01*
X79901090Y-76200000D01*
X80118910Y-76200000D01*
X80141220Y-76426517D01*
X80207293Y-76644330D01*
X80314589Y-76845067D01*
X80458985Y-77021015D01*
X80634933Y-77165411D01*
X80835670Y-77272707D01*
X81053483Y-77338780D01*
X81223244Y-77355500D01*
X81336756Y-77355500D01*
X81506517Y-77338780D01*
X81724330Y-77272707D01*
X81925067Y-77165411D01*
X82101015Y-77021015D01*
X82245411Y-76845067D01*
X82352707Y-76644330D01*
X82418780Y-76426517D01*
X82441090Y-76200000D01*
X92818910Y-76200000D01*
X92841220Y-76426517D01*
X92907293Y-76644330D01*
X93014589Y-76845067D01*
X93158985Y-77021015D01*
X93334933Y-77165411D01*
X93535670Y-77272707D01*
X93753483Y-77338780D01*
X93923244Y-77355500D01*
X94036756Y-77355500D01*
X94206517Y-77338780D01*
X94424330Y-77272707D01*
X94625067Y-77165411D01*
X94801015Y-77021015D01*
X94945411Y-76845067D01*
X95052707Y-76644330D01*
X95118780Y-76426517D01*
X95141090Y-76200000D01*
X95118780Y-75973483D01*
X95052707Y-75755670D01*
X94945411Y-75554933D01*
X94801015Y-75378985D01*
X94625067Y-75234589D01*
X94424330Y-75127293D01*
X94206517Y-75061220D01*
X94036756Y-75044500D01*
X93923244Y-75044500D01*
X93753483Y-75061220D01*
X93535670Y-75127293D01*
X93334933Y-75234589D01*
X93158985Y-75378985D01*
X93014589Y-75554933D01*
X92907293Y-75755670D01*
X92841220Y-75973483D01*
X92818910Y-76200000D01*
X82441090Y-76200000D01*
X82418780Y-75973483D01*
X82352707Y-75755670D01*
X82245411Y-75554933D01*
X82101015Y-75378985D01*
X81925067Y-75234589D01*
X81724330Y-75127293D01*
X81506517Y-75061220D01*
X81336756Y-75044500D01*
X81223244Y-75044500D01*
X81053483Y-75061220D01*
X80835670Y-75127293D01*
X80634933Y-75234589D01*
X80458985Y-75378985D01*
X80314589Y-75554933D01*
X80207293Y-75755670D01*
X80141220Y-75973483D01*
X80118910Y-76200000D01*
X79901090Y-76200000D01*
X79878780Y-75973483D01*
X79812707Y-75755670D01*
X79705411Y-75554933D01*
X79561015Y-75378985D01*
X79385067Y-75234589D01*
X79184330Y-75127293D01*
X78966517Y-75061220D01*
X78796756Y-75044500D01*
X78683244Y-75044500D01*
X78513483Y-75061220D01*
X78295670Y-75127293D01*
X78094933Y-75234589D01*
X78084500Y-75243151D01*
X78084500Y-74616849D01*
X78094933Y-74625411D01*
X78295670Y-74732707D01*
X78513483Y-74798780D01*
X78683244Y-74815500D01*
X78796756Y-74815500D01*
X78966517Y-74798780D01*
X79184330Y-74732707D01*
X79385067Y-74625411D01*
X79561015Y-74481015D01*
X79705411Y-74305067D01*
X79812707Y-74104330D01*
X79878780Y-73886517D01*
X79901090Y-73660000D01*
X80118910Y-73660000D01*
X80141220Y-73886517D01*
X80207293Y-74104330D01*
X80314589Y-74305067D01*
X80458985Y-74481015D01*
X80634933Y-74625411D01*
X80835670Y-74732707D01*
X81053483Y-74798780D01*
X81223244Y-74815500D01*
X81336756Y-74815500D01*
X81506517Y-74798780D01*
X81724330Y-74732707D01*
X81925067Y-74625411D01*
X82101015Y-74481015D01*
X82245411Y-74305067D01*
X82352707Y-74104330D01*
X82418780Y-73886517D01*
X82441090Y-73660000D01*
X92818910Y-73660000D01*
X92841220Y-73886517D01*
X92907293Y-74104330D01*
X93014589Y-74305067D01*
X93158985Y-74481015D01*
X93334933Y-74625411D01*
X93535670Y-74732707D01*
X93753483Y-74798780D01*
X93923244Y-74815500D01*
X94036756Y-74815500D01*
X94206517Y-74798780D01*
X94424330Y-74732707D01*
X94625067Y-74625411D01*
X94801015Y-74481015D01*
X94945411Y-74305067D01*
X95052707Y-74104330D01*
X95118780Y-73886517D01*
X95141090Y-73660000D01*
X95118780Y-73433483D01*
X95052707Y-73215670D01*
X94945411Y-73014933D01*
X94801015Y-72838985D01*
X94625067Y-72694589D01*
X94424330Y-72587293D01*
X94206517Y-72521220D01*
X94036756Y-72504500D01*
X93923244Y-72504500D01*
X93753483Y-72521220D01*
X93535670Y-72587293D01*
X93334933Y-72694589D01*
X93158985Y-72838985D01*
X93014589Y-73014933D01*
X92907293Y-73215670D01*
X92841220Y-73433483D01*
X92818910Y-73660000D01*
X82441090Y-73660000D01*
X82418780Y-73433483D01*
X82352707Y-73215670D01*
X82245411Y-73014933D01*
X82101015Y-72838985D01*
X81925067Y-72694589D01*
X81724330Y-72587293D01*
X81506517Y-72521220D01*
X81336756Y-72504500D01*
X81223244Y-72504500D01*
X81053483Y-72521220D01*
X80835670Y-72587293D01*
X80634933Y-72694589D01*
X80458985Y-72838985D01*
X80314589Y-73014933D01*
X80207293Y-73215670D01*
X80141220Y-73433483D01*
X80118910Y-73660000D01*
X79901090Y-73660000D01*
X79878780Y-73433483D01*
X79812707Y-73215670D01*
X79705411Y-73014933D01*
X79561015Y-72838985D01*
X79385067Y-72694589D01*
X79184330Y-72587293D01*
X78966517Y-72521220D01*
X78796756Y-72504500D01*
X78683244Y-72504500D01*
X78513483Y-72521220D01*
X78295670Y-72587293D01*
X78094933Y-72694589D01*
X78084500Y-72703151D01*
X78084500Y-72076849D01*
X78094933Y-72085411D01*
X78295670Y-72192707D01*
X78513483Y-72258780D01*
X78683244Y-72275500D01*
X78796756Y-72275500D01*
X78966517Y-72258780D01*
X79184330Y-72192707D01*
X79385067Y-72085411D01*
X79561015Y-71941015D01*
X79705411Y-71765067D01*
X79812707Y-71564330D01*
X79878780Y-71346517D01*
X79901090Y-71120000D01*
X80118910Y-71120000D01*
X80141220Y-71346517D01*
X80207293Y-71564330D01*
X80314589Y-71765067D01*
X80458985Y-71941015D01*
X80634933Y-72085411D01*
X80835670Y-72192707D01*
X81053483Y-72258780D01*
X81223244Y-72275500D01*
X81336756Y-72275500D01*
X81506517Y-72258780D01*
X81724330Y-72192707D01*
X81925067Y-72085411D01*
X82101015Y-71941015D01*
X82245411Y-71765067D01*
X82352707Y-71564330D01*
X82418780Y-71346517D01*
X82441090Y-71120000D01*
X92818910Y-71120000D01*
X92841220Y-71346517D01*
X92907293Y-71564330D01*
X93014589Y-71765067D01*
X93158985Y-71941015D01*
X93334933Y-72085411D01*
X93535670Y-72192707D01*
X93753483Y-72258780D01*
X93923244Y-72275500D01*
X94036756Y-72275500D01*
X94206517Y-72258780D01*
X94424330Y-72192707D01*
X94625067Y-72085411D01*
X94801015Y-71941015D01*
X94945411Y-71765067D01*
X95052707Y-71564330D01*
X95118780Y-71346517D01*
X95141090Y-71120000D01*
X95118780Y-70893483D01*
X95052707Y-70675670D01*
X94945411Y-70474933D01*
X94801015Y-70298985D01*
X94625067Y-70154589D01*
X94424330Y-70047293D01*
X94206517Y-69981220D01*
X94036756Y-69964500D01*
X93923244Y-69964500D01*
X93753483Y-69981220D01*
X93535670Y-70047293D01*
X93334933Y-70154589D01*
X93158985Y-70298985D01*
X93014589Y-70474933D01*
X92907293Y-70675670D01*
X92841220Y-70893483D01*
X92818910Y-71120000D01*
X82441090Y-71120000D01*
X82418780Y-70893483D01*
X82352707Y-70675670D01*
X82245411Y-70474933D01*
X82101015Y-70298985D01*
X81925067Y-70154589D01*
X81724330Y-70047293D01*
X81506517Y-69981220D01*
X81336756Y-69964500D01*
X81223244Y-69964500D01*
X81053483Y-69981220D01*
X80835670Y-70047293D01*
X80634933Y-70154589D01*
X80458985Y-70298985D01*
X80314589Y-70474933D01*
X80207293Y-70675670D01*
X80141220Y-70893483D01*
X80118910Y-71120000D01*
X79901090Y-71120000D01*
X79878780Y-70893483D01*
X79812707Y-70675670D01*
X79705411Y-70474933D01*
X79561015Y-70298985D01*
X79385067Y-70154589D01*
X79184330Y-70047293D01*
X78966517Y-69981220D01*
X78796756Y-69964500D01*
X78683244Y-69964500D01*
X78513483Y-69981220D01*
X78295670Y-70047293D01*
X78094933Y-70154589D01*
X78084500Y-70163151D01*
X78084500Y-69536849D01*
X78094933Y-69545411D01*
X78295670Y-69652707D01*
X78513483Y-69718780D01*
X78683244Y-69735500D01*
X78796756Y-69735500D01*
X78966517Y-69718780D01*
X79184330Y-69652707D01*
X79385067Y-69545411D01*
X79561015Y-69401015D01*
X79705411Y-69225067D01*
X79812707Y-69024330D01*
X79878780Y-68806517D01*
X79901090Y-68580000D01*
X80118910Y-68580000D01*
X80141220Y-68806517D01*
X80207293Y-69024330D01*
X80314589Y-69225067D01*
X80458985Y-69401015D01*
X80634933Y-69545411D01*
X80835670Y-69652707D01*
X81053483Y-69718780D01*
X81223244Y-69735500D01*
X81336756Y-69735500D01*
X81506517Y-69718780D01*
X81724330Y-69652707D01*
X81925067Y-69545411D01*
X82101015Y-69401015D01*
X82245411Y-69225067D01*
X82352707Y-69024330D01*
X82418780Y-68806517D01*
X82441090Y-68580000D01*
X92818910Y-68580000D01*
X92841220Y-68806517D01*
X92907293Y-69024330D01*
X93014589Y-69225067D01*
X93158985Y-69401015D01*
X93334933Y-69545411D01*
X93535670Y-69652707D01*
X93753483Y-69718780D01*
X93923244Y-69735500D01*
X94036756Y-69735500D01*
X94206517Y-69718780D01*
X94424330Y-69652707D01*
X94625067Y-69545411D01*
X94801015Y-69401015D01*
X94945411Y-69225067D01*
X95052707Y-69024330D01*
X95118780Y-68806517D01*
X95141090Y-68580000D01*
X95118780Y-68353483D01*
X95052707Y-68135670D01*
X94945411Y-67934933D01*
X94801015Y-67758985D01*
X94625067Y-67614589D01*
X94424330Y-67507293D01*
X94206517Y-67441220D01*
X94036756Y-67424500D01*
X93923244Y-67424500D01*
X93753483Y-67441220D01*
X93535670Y-67507293D01*
X93334933Y-67614589D01*
X93158985Y-67758985D01*
X93014589Y-67934933D01*
X92907293Y-68135670D01*
X92841220Y-68353483D01*
X92818910Y-68580000D01*
X82441090Y-68580000D01*
X82418780Y-68353483D01*
X82352707Y-68135670D01*
X82245411Y-67934933D01*
X82101015Y-67758985D01*
X81925067Y-67614589D01*
X81724330Y-67507293D01*
X81506517Y-67441220D01*
X81336756Y-67424500D01*
X81223244Y-67424500D01*
X81053483Y-67441220D01*
X80835670Y-67507293D01*
X80634933Y-67614589D01*
X80458985Y-67758985D01*
X80314589Y-67934933D01*
X80207293Y-68135670D01*
X80141220Y-68353483D01*
X80118910Y-68580000D01*
X79901090Y-68580000D01*
X79878780Y-68353483D01*
X79812707Y-68135670D01*
X79705411Y-67934933D01*
X79561015Y-67758985D01*
X79385067Y-67614589D01*
X79184330Y-67507293D01*
X78966517Y-67441220D01*
X78875502Y-67432256D01*
X78875502Y-67303431D01*
X79095977Y-67421375D01*
X79358630Y-67325385D01*
X79597509Y-67179998D01*
X79803435Y-66990802D01*
X79968494Y-66765067D01*
X80086342Y-66511468D01*
X80121370Y-66395977D01*
X80002626Y-66175502D01*
X80132256Y-66175502D01*
X80141220Y-66266517D01*
X80207293Y-66484330D01*
X80314589Y-66685067D01*
X80458985Y-66861015D01*
X80634933Y-67005411D01*
X80835670Y-67112707D01*
X81053483Y-67178780D01*
X81223244Y-67195500D01*
X81336756Y-67195500D01*
X81506517Y-67178780D01*
X81724330Y-67112707D01*
X81925067Y-67005411D01*
X82101015Y-66861015D01*
X82245411Y-66685067D01*
X82352707Y-66484330D01*
X82418780Y-66266517D01*
X82441090Y-66040000D01*
X92818910Y-66040000D01*
X92841220Y-66266517D01*
X92907293Y-66484330D01*
X93014589Y-66685067D01*
X93158985Y-66861015D01*
X93334933Y-67005411D01*
X93535670Y-67112707D01*
X93753483Y-67178780D01*
X93923244Y-67195500D01*
X94036756Y-67195500D01*
X94206517Y-67178780D01*
X94424330Y-67112707D01*
X94625067Y-67005411D01*
X94801015Y-66861015D01*
X94945411Y-66685067D01*
X95052707Y-66484330D01*
X95118780Y-66266517D01*
X95141090Y-66040000D01*
X95118780Y-65813483D01*
X95052707Y-65595670D01*
X94945411Y-65394933D01*
X94801015Y-65218985D01*
X94625067Y-65074589D01*
X94424330Y-64967293D01*
X94206517Y-64901220D01*
X94036756Y-64884500D01*
X93923244Y-64884500D01*
X93753483Y-64901220D01*
X93535670Y-64967293D01*
X93334933Y-65074589D01*
X93158985Y-65218985D01*
X93014589Y-65394933D01*
X92907293Y-65595670D01*
X92841220Y-65813483D01*
X92818910Y-66040000D01*
X82441090Y-66040000D01*
X82418780Y-65813483D01*
X82352707Y-65595670D01*
X82245411Y-65394933D01*
X82101015Y-65218985D01*
X81925067Y-65074589D01*
X81724330Y-64967293D01*
X81506517Y-64901220D01*
X81336756Y-64884500D01*
X81223244Y-64884500D01*
X81053483Y-64901220D01*
X80835670Y-64967293D01*
X80634933Y-65074589D01*
X80458985Y-65218985D01*
X80314589Y-65394933D01*
X80207293Y-65595670D01*
X80141220Y-65813483D01*
X80132256Y-65904498D01*
X80002626Y-65904498D01*
X80121370Y-65684023D01*
X80086342Y-65568532D01*
X79968494Y-65314933D01*
X79803435Y-65089198D01*
X79597509Y-64900002D01*
X79358630Y-64754615D01*
X79095977Y-64658625D01*
X78875502Y-64776569D01*
X78875502Y-64647744D01*
X78966517Y-64638780D01*
X79184330Y-64572707D01*
X79385067Y-64465411D01*
X79561015Y-64321015D01*
X79705411Y-64145067D01*
X79812707Y-63944330D01*
X79878780Y-63726517D01*
X79901090Y-63500000D01*
X80118910Y-63500000D01*
X80141220Y-63726517D01*
X80207293Y-63944330D01*
X80314589Y-64145067D01*
X80458985Y-64321015D01*
X80634933Y-64465411D01*
X80835670Y-64572707D01*
X81053483Y-64638780D01*
X81223244Y-64655500D01*
X81336756Y-64655500D01*
X81506517Y-64638780D01*
X81724330Y-64572707D01*
X81925067Y-64465411D01*
X82101015Y-64321015D01*
X82200329Y-64199999D01*
X85302780Y-64199999D01*
X85302780Y-64850001D01*
X85314448Y-64968464D01*
X85349002Y-65082374D01*
X85405115Y-65187354D01*
X85480630Y-65279370D01*
X85572646Y-65354885D01*
X85677626Y-65410998D01*
X85791536Y-65445552D01*
X85909999Y-65457220D01*
X86810001Y-65457220D01*
X86928464Y-65445552D01*
X87042374Y-65410998D01*
X87147354Y-65354885D01*
X87239370Y-65279370D01*
X87314885Y-65187354D01*
X87370998Y-65082374D01*
X87405552Y-64968464D01*
X87417220Y-64850001D01*
X87417220Y-64199999D01*
X87842780Y-64199999D01*
X87842780Y-64850001D01*
X87854448Y-64968464D01*
X87889002Y-65082374D01*
X87945115Y-65187354D01*
X88020630Y-65279370D01*
X88112646Y-65354885D01*
X88217626Y-65410998D01*
X88331536Y-65445552D01*
X88449999Y-65457220D01*
X89350001Y-65457220D01*
X89468464Y-65445552D01*
X89582374Y-65410998D01*
X89687354Y-65354885D01*
X89779370Y-65279370D01*
X89854885Y-65187354D01*
X89910998Y-65082374D01*
X89945552Y-64968464D01*
X89957220Y-64850001D01*
X89957220Y-64199999D01*
X89945552Y-64081536D01*
X89910998Y-63967626D01*
X89854885Y-63862646D01*
X89779370Y-63770630D01*
X89687354Y-63695115D01*
X89582374Y-63639002D01*
X89468464Y-63604448D01*
X89350001Y-63592780D01*
X88449999Y-63592780D01*
X88331536Y-63604448D01*
X88217626Y-63639002D01*
X88112646Y-63695115D01*
X88020630Y-63770630D01*
X87945115Y-63862646D01*
X87889002Y-63967626D01*
X87854448Y-64081536D01*
X87842780Y-64199999D01*
X87417220Y-64199999D01*
X87405552Y-64081536D01*
X87370998Y-63967626D01*
X87314885Y-63862646D01*
X87239370Y-63770630D01*
X87147354Y-63695115D01*
X87042374Y-63639002D01*
X86928464Y-63604448D01*
X86810001Y-63592780D01*
X85909999Y-63592780D01*
X85791536Y-63604448D01*
X85677626Y-63639002D01*
X85572646Y-63695115D01*
X85480630Y-63770630D01*
X85405115Y-63862646D01*
X85349002Y-63967626D01*
X85314448Y-64081536D01*
X85302780Y-64199999D01*
X82200329Y-64199999D01*
X82245411Y-64145067D01*
X82352707Y-63944330D01*
X82418780Y-63726517D01*
X82441090Y-63500000D01*
X82418780Y-63273483D01*
X82352707Y-63055670D01*
X82245411Y-62854933D01*
X82101015Y-62678985D01*
X81925067Y-62534589D01*
X81724330Y-62427293D01*
X81506517Y-62361220D01*
X81336756Y-62344500D01*
X81223244Y-62344500D01*
X81053483Y-62361220D01*
X80835670Y-62427293D01*
X80634933Y-62534589D01*
X80458985Y-62678985D01*
X80314589Y-62854933D01*
X80207293Y-63055670D01*
X80141220Y-63273483D01*
X80118910Y-63500000D01*
X79901090Y-63500000D01*
X79878780Y-63273483D01*
X79812707Y-63055670D01*
X79705411Y-62854933D01*
X79561015Y-62678985D01*
X79385067Y-62534589D01*
X79184330Y-62427293D01*
X78966517Y-62361220D01*
X78796756Y-62344500D01*
X78683244Y-62344500D01*
X78513483Y-62361220D01*
X78295670Y-62427293D01*
X78094933Y-62534589D01*
X78084500Y-62543151D01*
X78084500Y-61916849D01*
X78094933Y-61925411D01*
X78295670Y-62032707D01*
X78513483Y-62098780D01*
X78683244Y-62115500D01*
X78796756Y-62115500D01*
X78966517Y-62098780D01*
X79184330Y-62032707D01*
X79385067Y-61925411D01*
X79561015Y-61781015D01*
X79705411Y-61605067D01*
X79812707Y-61404330D01*
X79878780Y-61186517D01*
X79901090Y-60960000D01*
X80118910Y-60960000D01*
X80141220Y-61186517D01*
X80207293Y-61404330D01*
X80314589Y-61605067D01*
X80458985Y-61781015D01*
X80634933Y-61925411D01*
X80835670Y-62032707D01*
X81053483Y-62098780D01*
X81223244Y-62115500D01*
X81336756Y-62115500D01*
X81506517Y-62098780D01*
X81724330Y-62032707D01*
X81925067Y-61925411D01*
X82101015Y-61781015D01*
X82245411Y-61605067D01*
X82352707Y-61404330D01*
X82418780Y-61186517D01*
X82441090Y-60960000D01*
X82418780Y-60733483D01*
X82352707Y-60515670D01*
X82245411Y-60314933D01*
X82101015Y-60138985D01*
X81925067Y-59994589D01*
X81724330Y-59887293D01*
X81506517Y-59821220D01*
X81336756Y-59804500D01*
X81223244Y-59804500D01*
X81053483Y-59821220D01*
X80835670Y-59887293D01*
X80634933Y-59994589D01*
X80458985Y-60138985D01*
X80314589Y-60314933D01*
X80207293Y-60515670D01*
X80141220Y-60733483D01*
X80118910Y-60960000D01*
X79901090Y-60960000D01*
X79878780Y-60733483D01*
X79812707Y-60515670D01*
X79705411Y-60314933D01*
X79561015Y-60138985D01*
X79385067Y-59994589D01*
X79184330Y-59887293D01*
X78966517Y-59821220D01*
X78796756Y-59804500D01*
X78683244Y-59804500D01*
X78513483Y-59821220D01*
X78295670Y-59887293D01*
X78094933Y-59994589D01*
X78084500Y-60003151D01*
X78084500Y-59376849D01*
X78094933Y-59385411D01*
X78295670Y-59492707D01*
X78513483Y-59558780D01*
X78683244Y-59575500D01*
X78796756Y-59575500D01*
X78966517Y-59558780D01*
X79184330Y-59492707D01*
X79385067Y-59385411D01*
X79561015Y-59241015D01*
X79705411Y-59065067D01*
X79812707Y-58864330D01*
X79878780Y-58646517D01*
X79901090Y-58420000D01*
X79878780Y-58193483D01*
X79812707Y-57975670D01*
X79705411Y-57774933D01*
X79561015Y-57598985D01*
X79385067Y-57454589D01*
X79184330Y-57347293D01*
X78966517Y-57281220D01*
X78796756Y-57264500D01*
X78683244Y-57264500D01*
X78513483Y-57281220D01*
X78295670Y-57347293D01*
X78094933Y-57454589D01*
X78084500Y-57463151D01*
X78084500Y-56836849D01*
X78094933Y-56845411D01*
X78295670Y-56952707D01*
X78513483Y-57018780D01*
X78683244Y-57035500D01*
X78796756Y-57035500D01*
X78966517Y-57018780D01*
X79184330Y-56952707D01*
X79385067Y-56845411D01*
X79561015Y-56701015D01*
X79705411Y-56525067D01*
X79812707Y-56324330D01*
X79878780Y-56106517D01*
X79901090Y-55880000D01*
X79878780Y-55653483D01*
X79812707Y-55435670D01*
X79705411Y-55234933D01*
X79561015Y-55058985D01*
X79385067Y-54914589D01*
X79184330Y-54807293D01*
X78966517Y-54741220D01*
X78796756Y-54724500D01*
X78683244Y-54724500D01*
X78513483Y-54741220D01*
X78295670Y-54807293D01*
X78094933Y-54914589D01*
X78084500Y-54923151D01*
X78084500Y-54296849D01*
X78094933Y-54305411D01*
X78295670Y-54412707D01*
X78513483Y-54478780D01*
X78683244Y-54495500D01*
X78796756Y-54495500D01*
X78966517Y-54478780D01*
X79184330Y-54412707D01*
X79385067Y-54305411D01*
X79561015Y-54161015D01*
X79705411Y-53985067D01*
X79812707Y-53784330D01*
X79878780Y-53566517D01*
X79901090Y-53340000D01*
X80118910Y-53340000D01*
X80141220Y-53566517D01*
X80207293Y-53784330D01*
X80314589Y-53985067D01*
X80458985Y-54161015D01*
X80634933Y-54305411D01*
X80835670Y-54412707D01*
X81053483Y-54478780D01*
X81223244Y-54495500D01*
X81336756Y-54495500D01*
X81506517Y-54478780D01*
X81724330Y-54412707D01*
X81925067Y-54305411D01*
X82101015Y-54161015D01*
X82245411Y-53985067D01*
X82352707Y-53784330D01*
X82418780Y-53566517D01*
X82441090Y-53340000D01*
X82418780Y-53113483D01*
X82352707Y-52895670D01*
X82245411Y-52694933D01*
X82101015Y-52518985D01*
X81925067Y-52374589D01*
X81724330Y-52267293D01*
X81506517Y-52201220D01*
X81336756Y-52184500D01*
X81223244Y-52184500D01*
X81053483Y-52201220D01*
X80835670Y-52267293D01*
X80634933Y-52374589D01*
X80458985Y-52518985D01*
X80314589Y-52694933D01*
X80207293Y-52895670D01*
X80141220Y-53113483D01*
X80118910Y-53340000D01*
X79901090Y-53340000D01*
X79878780Y-53113483D01*
X79812707Y-52895670D01*
X79705411Y-52694933D01*
X79561015Y-52518985D01*
X79385067Y-52374589D01*
X79184330Y-52267293D01*
X79050210Y-52226608D01*
X79540000Y-52229531D01*
X79662815Y-52217435D01*
X79780911Y-52181611D01*
X79889749Y-52123436D01*
X79985146Y-52045146D01*
X80063436Y-51949749D01*
X80121611Y-51840911D01*
X80152046Y-51740582D01*
X80182982Y-51798461D01*
X80227407Y-51852593D01*
X80281539Y-51897018D01*
X80343298Y-51930028D01*
X80410310Y-51950356D01*
X80480000Y-51957220D01*
X82080000Y-51957220D01*
X82149690Y-51950356D01*
X82216702Y-51930028D01*
X82278461Y-51897018D01*
X82332593Y-51852593D01*
X82377018Y-51798461D01*
X82410028Y-51736702D01*
X82430356Y-51669690D01*
X82437220Y-51600000D01*
X82437220Y-50000000D01*
X82430356Y-49930310D01*
X82410028Y-49863298D01*
X82377018Y-49801539D01*
X82332593Y-49747407D01*
X82278461Y-49702982D01*
X82216702Y-49669972D01*
X82149690Y-49649644D01*
X82080000Y-49642780D01*
X80480000Y-49642780D01*
X80410310Y-49649644D01*
X80343298Y-49669972D01*
X80281539Y-49702982D01*
X80227407Y-49747407D01*
X80182982Y-49801539D01*
X80152046Y-49859418D01*
X80121611Y-49759089D01*
X80063436Y-49650251D01*
X80052151Y-49636500D01*
X85823041Y-49636500D01*
X85748564Y-49727251D01*
G36*
X78875500Y-65904500D02*
G01*
X78895500Y-65904500D01*
X78895500Y-66175500D01*
X78875500Y-66175500D01*
X78875500Y-66195500D01*
X78604500Y-66195500D01*
X78604500Y-66175500D01*
X78584500Y-66175500D01*
X78584500Y-65904500D01*
X78604500Y-65904500D01*
X78604500Y-65884500D01*
X78875500Y-65884500D01*
X78875500Y-65904500D01*
X78875500Y-65904500D01*
G37*
X78875500Y-65904500D02*
X78895500Y-65904500D01*
X78895500Y-66175500D01*
X78875500Y-66175500D01*
X78875500Y-66195500D01*
X78604500Y-66195500D01*
X78604500Y-66175500D01*
X78584500Y-66175500D01*
X78584500Y-65904500D01*
X78604500Y-65904500D01*
X78604500Y-65884500D01*
X78875500Y-65884500D01*
X78875500Y-65904500D01*
G36*
X78875500Y-50664500D02*
G01*
X78895500Y-50664500D01*
X78895500Y-50935500D01*
X78875500Y-50935500D01*
X78875500Y-50955500D01*
X78604500Y-50955500D01*
X78604500Y-50935500D01*
X78584500Y-50935500D01*
X78584500Y-50664500D01*
X78604500Y-50664500D01*
X78604500Y-50644500D01*
X78875500Y-50644500D01*
X78875500Y-50664500D01*
X78875500Y-50664500D01*
G37*
X78875500Y-50664500D02*
X78895500Y-50664500D01*
X78895500Y-50935500D01*
X78875500Y-50935500D01*
X78875500Y-50955500D01*
X78604500Y-50955500D01*
X78604500Y-50935500D01*
X78584500Y-50935500D01*
X78584500Y-50664500D01*
X78604500Y-50664500D01*
X78604500Y-50644500D01*
X78875500Y-50644500D01*
X78875500Y-50664500D01*
M02*
