G04 #@! TF.GenerationSoftware,KiCad,Pcbnew,(5.1.2)-1*
G04 #@! TF.CreationDate,2020-03-13T04:35:35-04:00*
G04 #@! TF.ProjectId,6502-65816,36353032-2d36-4353-9831-362e6b696361,rev?*
G04 #@! TF.SameCoordinates,Original*
G04 #@! TF.FileFunction,Legend,Top*
G04 #@! TF.FilePolarity,Positive*
%FSLAX46Y46*%
G04 Gerber Fmt 4.6, Leading zero omitted, Abs format (unit mm)*
G04 Created by KiCad (PCBNEW (5.1.2)-1) date 2020-03-13 04:35:35*
%MOMM*%
%LPD*%
G04 APERTURE LIST*
%ADD10C,0.120000*%
%ADD11C,0.150000*%
G04 APERTURE END LIST*
D10*
X87360000Y-49470000D02*
G75*
G02X85360000Y-49470000I-1000000J0D01*
G01*
X85360000Y-49470000D02*
X79900000Y-49470000D01*
X79900000Y-49470000D02*
X79900000Y-100390000D01*
X79900000Y-100390000D02*
X92820000Y-100390000D01*
X92820000Y-100390000D02*
X92820000Y-49470000D01*
X92820000Y-49470000D02*
X87360000Y-49470000D01*
X89900000Y-49470000D02*
G75*
G02X87900000Y-49470000I-1000000J0D01*
G01*
X87900000Y-49470000D02*
X82440000Y-49470000D01*
X82440000Y-49470000D02*
X82440000Y-100390000D01*
X82440000Y-100390000D02*
X95360000Y-100390000D01*
X95360000Y-100390000D02*
X95360000Y-49470000D01*
X95360000Y-49470000D02*
X89900000Y-49470000D01*
X83252000Y-49597000D02*
X83252000Y-52257000D01*
X85852000Y-49597000D02*
X83252000Y-49597000D01*
X85852000Y-52257000D02*
X83252000Y-52257000D01*
X85852000Y-49597000D02*
X85852000Y-52257000D01*
X87122000Y-49597000D02*
X88452000Y-49597000D01*
X88452000Y-49597000D02*
X88452000Y-50927000D01*
D11*
X85598095Y-47922380D02*
X85598095Y-48731904D01*
X85645714Y-48827142D01*
X85693333Y-48874761D01*
X85788571Y-48922380D01*
X85979047Y-48922380D01*
X86074285Y-48874761D01*
X86121904Y-48827142D01*
X86169523Y-48731904D01*
X86169523Y-47922380D01*
X86598095Y-48017619D02*
X86645714Y-47970000D01*
X86740952Y-47922380D01*
X86979047Y-47922380D01*
X87074285Y-47970000D01*
X87121904Y-48017619D01*
X87169523Y-48112857D01*
X87169523Y-48208095D01*
X87121904Y-48350952D01*
X86550476Y-48922380D01*
X87169523Y-48922380D01*
X75086785Y-50300000D02*
X74991547Y-50252380D01*
X74848690Y-50252380D01*
X74705833Y-50300000D01*
X74610595Y-50395238D01*
X74562976Y-50490476D01*
X74515357Y-50680952D01*
X74515357Y-50823809D01*
X74562976Y-51014285D01*
X74610595Y-51109523D01*
X74705833Y-51204761D01*
X74848690Y-51252380D01*
X74943928Y-51252380D01*
X75086785Y-51204761D01*
X75134404Y-51157142D01*
X75134404Y-50823809D01*
X74943928Y-50823809D01*
X75562976Y-51252380D02*
X75562976Y-50252380D01*
X76134404Y-51252380D01*
X76134404Y-50252380D01*
X76610595Y-51252380D02*
X76610595Y-50252380D01*
X76848690Y-50252380D01*
X76991547Y-50300000D01*
X77086785Y-50395238D01*
X77134404Y-50490476D01*
X77182023Y-50680952D01*
X77182023Y-50823809D01*
X77134404Y-51014285D01*
X77086785Y-51109523D01*
X76991547Y-51204761D01*
X76848690Y-51252380D01*
X76610595Y-51252380D01*
X74943880Y-53792380D02*
X74610547Y-53316190D01*
X74372452Y-53792380D02*
X74372452Y-52792380D01*
X74753404Y-52792380D01*
X74848642Y-52840000D01*
X74896261Y-52887619D01*
X74943880Y-52982857D01*
X74943880Y-53125714D01*
X74896261Y-53220952D01*
X74848642Y-53268571D01*
X74753404Y-53316190D01*
X74372452Y-53316190D01*
X75372452Y-53792380D02*
X75372452Y-52792380D01*
X75610547Y-52792380D01*
X75753404Y-52840000D01*
X75848642Y-52935238D01*
X75896261Y-53030476D01*
X75943880Y-53220952D01*
X75943880Y-53363809D01*
X75896261Y-53554285D01*
X75848642Y-53649523D01*
X75753404Y-53744761D01*
X75610547Y-53792380D01*
X75372452Y-53792380D01*
X76562928Y-53316190D02*
X76562928Y-53792380D01*
X76229595Y-52792380D02*
X76562928Y-53316190D01*
X76896261Y-52792380D01*
X68181261Y-56332380D02*
X68181261Y-55332380D01*
X68562214Y-55332380D01*
X68657452Y-55380000D01*
X68705071Y-55427619D01*
X68752690Y-55522857D01*
X68752690Y-55665714D01*
X68705071Y-55760952D01*
X68657452Y-55808571D01*
X68562214Y-55856190D01*
X68181261Y-55856190D01*
X69181261Y-56332380D02*
X69181261Y-55332380D01*
X69609833Y-56332380D02*
X69609833Y-55808571D01*
X69562214Y-55713333D01*
X69466976Y-55665714D01*
X69324119Y-55665714D01*
X69228880Y-55713333D01*
X69181261Y-55760952D01*
X70086023Y-56332380D02*
X70086023Y-55665714D01*
X70086023Y-55332380D02*
X70038404Y-55380000D01*
X70086023Y-55427619D01*
X70133642Y-55380000D01*
X70086023Y-55332380D01*
X70086023Y-55427619D01*
X71086023Y-56332380D02*
X70514595Y-56332380D01*
X70800309Y-56332380D02*
X70800309Y-55332380D01*
X70705071Y-55475238D01*
X70609833Y-55570476D01*
X70514595Y-55618095D01*
X73451690Y-57505000D02*
X73927880Y-57505000D01*
X73689785Y-58872380D02*
X73689785Y-57872380D01*
X73927880Y-57505000D02*
X74927880Y-57505000D01*
X74737404Y-58872380D02*
X74404071Y-58396190D01*
X74165976Y-58872380D02*
X74165976Y-57872380D01*
X74546928Y-57872380D01*
X74642166Y-57920000D01*
X74689785Y-57967619D01*
X74737404Y-58062857D01*
X74737404Y-58205714D01*
X74689785Y-58300952D01*
X74642166Y-58348571D01*
X74546928Y-58396190D01*
X74165976Y-58396190D01*
X74927880Y-57505000D02*
X75975500Y-57505000D01*
X75832642Y-58967619D02*
X75737404Y-58920000D01*
X75642166Y-58824761D01*
X75499309Y-58681904D01*
X75404071Y-58634285D01*
X75308833Y-58634285D01*
X75356452Y-58872380D02*
X75261214Y-58824761D01*
X75165976Y-58729523D01*
X75118357Y-58539047D01*
X75118357Y-58205714D01*
X75165976Y-58015238D01*
X75261214Y-57920000D01*
X75356452Y-57872380D01*
X75546928Y-57872380D01*
X75642166Y-57920000D01*
X75737404Y-58015238D01*
X75785023Y-58205714D01*
X75785023Y-58539047D01*
X75737404Y-58729523D01*
X75642166Y-58824761D01*
X75546928Y-58872380D01*
X75356452Y-58872380D01*
X68958976Y-61412380D02*
X68958976Y-60412380D01*
X69530404Y-61412380D01*
X69530404Y-60412380D01*
X70578023Y-61317142D02*
X70530404Y-61364761D01*
X70387547Y-61412380D01*
X70292309Y-61412380D01*
X70149452Y-61364761D01*
X70054214Y-61269523D01*
X70006595Y-61174285D01*
X69958976Y-60983809D01*
X69958976Y-60840952D01*
X70006595Y-60650476D01*
X70054214Y-60555238D01*
X70149452Y-60460000D01*
X70292309Y-60412380D01*
X70387547Y-60412380D01*
X70530404Y-60460000D01*
X70578023Y-60507619D01*
X73816833Y-62585000D02*
X74864452Y-62585000D01*
X74054928Y-63952380D02*
X74054928Y-62952380D01*
X74626357Y-63952380D01*
X74626357Y-62952380D01*
X74864452Y-62585000D02*
X76007309Y-62585000D01*
X75102547Y-63952380D02*
X75102547Y-62952380D01*
X75435880Y-63666666D01*
X75769214Y-62952380D01*
X75769214Y-63952380D01*
X76007309Y-62585000D02*
X76483500Y-62585000D01*
X76245404Y-63952380D02*
X76245404Y-62952380D01*
X67482833Y-66444761D02*
X67625690Y-66492380D01*
X67863785Y-66492380D01*
X67959023Y-66444761D01*
X68006642Y-66397142D01*
X68054261Y-66301904D01*
X68054261Y-66206666D01*
X68006642Y-66111428D01*
X67959023Y-66063809D01*
X67863785Y-66016190D01*
X67673309Y-65968571D01*
X67578071Y-65920952D01*
X67530452Y-65873333D01*
X67482833Y-65778095D01*
X67482833Y-65682857D01*
X67530452Y-65587619D01*
X67578071Y-65540000D01*
X67673309Y-65492380D01*
X67911404Y-65492380D01*
X68054261Y-65540000D01*
X68673309Y-66016190D02*
X68673309Y-66492380D01*
X68339976Y-65492380D02*
X68673309Y-66016190D01*
X69006642Y-65492380D01*
X69339976Y-66492380D02*
X69339976Y-65492380D01*
X69911404Y-66492380D01*
X69911404Y-65492380D01*
X70959023Y-66397142D02*
X70911404Y-66444761D01*
X70768547Y-66492380D01*
X70673309Y-66492380D01*
X70530452Y-66444761D01*
X70435214Y-66349523D01*
X70387595Y-66254285D01*
X70339976Y-66063809D01*
X70339976Y-65920952D01*
X70387595Y-65730476D01*
X70435214Y-65635238D01*
X70530452Y-65540000D01*
X70673309Y-65492380D01*
X70768547Y-65492380D01*
X70911404Y-65540000D01*
X70959023Y-65587619D01*
X73880309Y-68032380D02*
X74213642Y-69032380D01*
X74546976Y-68032380D01*
X75308880Y-68984761D02*
X75213642Y-69032380D01*
X75023166Y-69032380D01*
X74927928Y-68984761D01*
X74880309Y-68937142D01*
X74832690Y-68841904D01*
X74832690Y-68556190D01*
X74880309Y-68460952D01*
X74927928Y-68413333D01*
X75023166Y-68365714D01*
X75213642Y-68365714D01*
X75308880Y-68413333D01*
X76166023Y-68984761D02*
X76070785Y-69032380D01*
X75880309Y-69032380D01*
X75785071Y-68984761D01*
X75737452Y-68937142D01*
X75689833Y-68841904D01*
X75689833Y-68556190D01*
X75737452Y-68460952D01*
X75785071Y-68413333D01*
X75880309Y-68365714D01*
X76070785Y-68365714D01*
X76166023Y-68413333D01*
X75753452Y-71286666D02*
X76229642Y-71286666D01*
X75658214Y-71572380D02*
X75991547Y-70572380D01*
X76324880Y-71572380D01*
X76848690Y-70572380D02*
X76943928Y-70572380D01*
X77039166Y-70620000D01*
X77086785Y-70667619D01*
X77134404Y-70762857D01*
X77182023Y-70953333D01*
X77182023Y-71191428D01*
X77134404Y-71381904D01*
X77086785Y-71477142D01*
X77039166Y-71524761D01*
X76943928Y-71572380D01*
X76848690Y-71572380D01*
X76753452Y-71524761D01*
X76705833Y-71477142D01*
X76658214Y-71381904D01*
X76610595Y-71191428D01*
X76610595Y-70953333D01*
X76658214Y-70762857D01*
X76705833Y-70667619D01*
X76753452Y-70620000D01*
X76848690Y-70572380D01*
X75753452Y-73826666D02*
X76229642Y-73826666D01*
X75658214Y-74112380D02*
X75991547Y-73112380D01*
X76324880Y-74112380D01*
X77182023Y-74112380D02*
X76610595Y-74112380D01*
X76896309Y-74112380D02*
X76896309Y-73112380D01*
X76801071Y-73255238D01*
X76705833Y-73350476D01*
X76610595Y-73398095D01*
X75753452Y-76366666D02*
X76229642Y-76366666D01*
X75658214Y-76652380D02*
X75991547Y-75652380D01*
X76324880Y-76652380D01*
X76610595Y-75747619D02*
X76658214Y-75700000D01*
X76753452Y-75652380D01*
X76991547Y-75652380D01*
X77086785Y-75700000D01*
X77134404Y-75747619D01*
X77182023Y-75842857D01*
X77182023Y-75938095D01*
X77134404Y-76080952D01*
X76562976Y-76652380D01*
X77182023Y-76652380D01*
X75753452Y-78906666D02*
X76229642Y-78906666D01*
X75658214Y-79192380D02*
X75991547Y-78192380D01*
X76324880Y-79192380D01*
X76562976Y-78192380D02*
X77182023Y-78192380D01*
X76848690Y-78573333D01*
X76991547Y-78573333D01*
X77086785Y-78620952D01*
X77134404Y-78668571D01*
X77182023Y-78763809D01*
X77182023Y-79001904D01*
X77134404Y-79097142D01*
X77086785Y-79144761D01*
X76991547Y-79192380D01*
X76705833Y-79192380D01*
X76610595Y-79144761D01*
X76562976Y-79097142D01*
X75753452Y-81446666D02*
X76229642Y-81446666D01*
X75658214Y-81732380D02*
X75991547Y-80732380D01*
X76324880Y-81732380D01*
X77086785Y-81065714D02*
X77086785Y-81732380D01*
X76848690Y-80684761D02*
X76610595Y-81399047D01*
X77229642Y-81399047D01*
X75753452Y-83986666D02*
X76229642Y-83986666D01*
X75658214Y-84272380D02*
X75991547Y-83272380D01*
X76324880Y-84272380D01*
X77134404Y-83272380D02*
X76658214Y-83272380D01*
X76610595Y-83748571D01*
X76658214Y-83700952D01*
X76753452Y-83653333D01*
X76991547Y-83653333D01*
X77086785Y-83700952D01*
X77134404Y-83748571D01*
X77182023Y-83843809D01*
X77182023Y-84081904D01*
X77134404Y-84177142D01*
X77086785Y-84224761D01*
X76991547Y-84272380D01*
X76753452Y-84272380D01*
X76658214Y-84224761D01*
X76610595Y-84177142D01*
X75753452Y-86526666D02*
X76229642Y-86526666D01*
X75658214Y-86812380D02*
X75991547Y-85812380D01*
X76324880Y-86812380D01*
X77086785Y-85812380D02*
X76896309Y-85812380D01*
X76801071Y-85860000D01*
X76753452Y-85907619D01*
X76658214Y-86050476D01*
X76610595Y-86240952D01*
X76610595Y-86621904D01*
X76658214Y-86717142D01*
X76705833Y-86764761D01*
X76801071Y-86812380D01*
X76991547Y-86812380D01*
X77086785Y-86764761D01*
X77134404Y-86717142D01*
X77182023Y-86621904D01*
X77182023Y-86383809D01*
X77134404Y-86288571D01*
X77086785Y-86240952D01*
X76991547Y-86193333D01*
X76801071Y-86193333D01*
X76705833Y-86240952D01*
X76658214Y-86288571D01*
X76610595Y-86383809D01*
X75753452Y-89066666D02*
X76229642Y-89066666D01*
X75658214Y-89352380D02*
X75991547Y-88352380D01*
X76324880Y-89352380D01*
X76562976Y-88352380D02*
X77229642Y-88352380D01*
X76801071Y-89352380D01*
X75753452Y-91606666D02*
X76229642Y-91606666D01*
X75658214Y-91892380D02*
X75991547Y-90892380D01*
X76324880Y-91892380D01*
X76801071Y-91320952D02*
X76705833Y-91273333D01*
X76658214Y-91225714D01*
X76610595Y-91130476D01*
X76610595Y-91082857D01*
X76658214Y-90987619D01*
X76705833Y-90940000D01*
X76801071Y-90892380D01*
X76991547Y-90892380D01*
X77086785Y-90940000D01*
X77134404Y-90987619D01*
X77182023Y-91082857D01*
X77182023Y-91130476D01*
X77134404Y-91225714D01*
X77086785Y-91273333D01*
X76991547Y-91320952D01*
X76801071Y-91320952D01*
X76705833Y-91368571D01*
X76658214Y-91416190D01*
X76610595Y-91511428D01*
X76610595Y-91701904D01*
X76658214Y-91797142D01*
X76705833Y-91844761D01*
X76801071Y-91892380D01*
X76991547Y-91892380D01*
X77086785Y-91844761D01*
X77134404Y-91797142D01*
X77182023Y-91701904D01*
X77182023Y-91511428D01*
X77134404Y-91416190D01*
X77086785Y-91368571D01*
X76991547Y-91320952D01*
X75753452Y-94146666D02*
X76229642Y-94146666D01*
X75658214Y-94432380D02*
X75991547Y-93432380D01*
X76324880Y-94432380D01*
X76705833Y-94432380D02*
X76896309Y-94432380D01*
X76991547Y-94384761D01*
X77039166Y-94337142D01*
X77134404Y-94194285D01*
X77182023Y-94003809D01*
X77182023Y-93622857D01*
X77134404Y-93527619D01*
X77086785Y-93480000D01*
X76991547Y-93432380D01*
X76801071Y-93432380D01*
X76705833Y-93480000D01*
X76658214Y-93527619D01*
X76610595Y-93622857D01*
X76610595Y-93860952D01*
X76658214Y-93956190D01*
X76705833Y-94003809D01*
X76801071Y-94051428D01*
X76991547Y-94051428D01*
X77086785Y-94003809D01*
X77134404Y-93956190D01*
X77182023Y-93860952D01*
X74801071Y-96686666D02*
X75277261Y-96686666D01*
X74705833Y-96972380D02*
X75039166Y-95972380D01*
X75372500Y-96972380D01*
X76229642Y-96972380D02*
X75658214Y-96972380D01*
X75943928Y-96972380D02*
X75943928Y-95972380D01*
X75848690Y-96115238D01*
X75753452Y-96210476D01*
X75658214Y-96258095D01*
X76848690Y-95972380D02*
X76943928Y-95972380D01*
X77039166Y-96020000D01*
X77086785Y-96067619D01*
X77134404Y-96162857D01*
X77182023Y-96353333D01*
X77182023Y-96591428D01*
X77134404Y-96781904D01*
X77086785Y-96877142D01*
X77039166Y-96924761D01*
X76943928Y-96972380D01*
X76848690Y-96972380D01*
X76753452Y-96924761D01*
X76705833Y-96877142D01*
X76658214Y-96781904D01*
X76610595Y-96591428D01*
X76610595Y-96353333D01*
X76658214Y-96162857D01*
X76705833Y-96067619D01*
X76753452Y-96020000D01*
X76848690Y-95972380D01*
X74801071Y-99226666D02*
X75277261Y-99226666D01*
X74705833Y-99512380D02*
X75039166Y-98512380D01*
X75372500Y-99512380D01*
X76229642Y-99512380D02*
X75658214Y-99512380D01*
X75943928Y-99512380D02*
X75943928Y-98512380D01*
X75848690Y-98655238D01*
X75753452Y-98750476D01*
X75658214Y-98798095D01*
X77182023Y-99512380D02*
X76610595Y-99512380D01*
X76896309Y-99512380D02*
X76896309Y-98512380D01*
X76801071Y-98655238D01*
X76705833Y-98750476D01*
X76610595Y-98798095D01*
X98649404Y-98560000D02*
X98554166Y-98512380D01*
X98411309Y-98512380D01*
X98268452Y-98560000D01*
X98173214Y-98655238D01*
X98125595Y-98750476D01*
X98077976Y-98940952D01*
X98077976Y-99083809D01*
X98125595Y-99274285D01*
X98173214Y-99369523D01*
X98268452Y-99464761D01*
X98411309Y-99512380D01*
X98506547Y-99512380D01*
X98649404Y-99464761D01*
X98697023Y-99417142D01*
X98697023Y-99083809D01*
X98506547Y-99083809D01*
X99125595Y-99512380D02*
X99125595Y-98512380D01*
X99697023Y-99512380D01*
X99697023Y-98512380D01*
X100173214Y-99512380D02*
X100173214Y-98512380D01*
X100411309Y-98512380D01*
X100554166Y-98560000D01*
X100649404Y-98655238D01*
X100697023Y-98750476D01*
X100744642Y-98940952D01*
X100744642Y-99083809D01*
X100697023Y-99274285D01*
X100649404Y-99369523D01*
X100554166Y-99464761D01*
X100411309Y-99512380D01*
X100173214Y-99512380D01*
X98077976Y-96686666D02*
X98554166Y-96686666D01*
X97982738Y-96972380D02*
X98316071Y-95972380D01*
X98649404Y-96972380D01*
X99506547Y-96972380D02*
X98935119Y-96972380D01*
X99220833Y-96972380D02*
X99220833Y-95972380D01*
X99125595Y-96115238D01*
X99030357Y-96210476D01*
X98935119Y-96258095D01*
X99887500Y-96067619D02*
X99935119Y-96020000D01*
X100030357Y-95972380D01*
X100268452Y-95972380D01*
X100363690Y-96020000D01*
X100411309Y-96067619D01*
X100458928Y-96162857D01*
X100458928Y-96258095D01*
X100411309Y-96400952D01*
X99839880Y-96972380D01*
X100458928Y-96972380D01*
X98077976Y-94146666D02*
X98554166Y-94146666D01*
X97982738Y-94432380D02*
X98316071Y-93432380D01*
X98649404Y-94432380D01*
X99506547Y-94432380D02*
X98935119Y-94432380D01*
X99220833Y-94432380D02*
X99220833Y-93432380D01*
X99125595Y-93575238D01*
X99030357Y-93670476D01*
X98935119Y-93718095D01*
X99839880Y-93432380D02*
X100458928Y-93432380D01*
X100125595Y-93813333D01*
X100268452Y-93813333D01*
X100363690Y-93860952D01*
X100411309Y-93908571D01*
X100458928Y-94003809D01*
X100458928Y-94241904D01*
X100411309Y-94337142D01*
X100363690Y-94384761D01*
X100268452Y-94432380D01*
X99982738Y-94432380D01*
X99887500Y-94384761D01*
X99839880Y-94337142D01*
X98077976Y-91606666D02*
X98554166Y-91606666D01*
X97982738Y-91892380D02*
X98316071Y-90892380D01*
X98649404Y-91892380D01*
X99506547Y-91892380D02*
X98935119Y-91892380D01*
X99220833Y-91892380D02*
X99220833Y-90892380D01*
X99125595Y-91035238D01*
X99030357Y-91130476D01*
X98935119Y-91178095D01*
X100363690Y-91225714D02*
X100363690Y-91892380D01*
X100125595Y-90844761D02*
X99887500Y-91559047D01*
X100506547Y-91559047D01*
X98077976Y-89066666D02*
X98554166Y-89066666D01*
X97982738Y-89352380D02*
X98316071Y-88352380D01*
X98649404Y-89352380D01*
X99506547Y-89352380D02*
X98935119Y-89352380D01*
X99220833Y-89352380D02*
X99220833Y-88352380D01*
X99125595Y-88495238D01*
X99030357Y-88590476D01*
X98935119Y-88638095D01*
X100411309Y-88352380D02*
X99935119Y-88352380D01*
X99887500Y-88828571D01*
X99935119Y-88780952D01*
X100030357Y-88733333D01*
X100268452Y-88733333D01*
X100363690Y-88780952D01*
X100411309Y-88828571D01*
X100458928Y-88923809D01*
X100458928Y-89161904D01*
X100411309Y-89257142D01*
X100363690Y-89304761D01*
X100268452Y-89352380D01*
X100030357Y-89352380D01*
X99935119Y-89304761D01*
X99887500Y-89257142D01*
X98125595Y-86812380D02*
X98125595Y-85812380D01*
X98363690Y-85812380D01*
X98506547Y-85860000D01*
X98601785Y-85955238D01*
X98649404Y-86050476D01*
X98697023Y-86240952D01*
X98697023Y-86383809D01*
X98649404Y-86574285D01*
X98601785Y-86669523D01*
X98506547Y-86764761D01*
X98363690Y-86812380D01*
X98125595Y-86812380D01*
X99030357Y-85812380D02*
X99697023Y-85812380D01*
X99268452Y-86812380D01*
X98125595Y-84272380D02*
X98125595Y-83272380D01*
X98363690Y-83272380D01*
X98506547Y-83320000D01*
X98601785Y-83415238D01*
X98649404Y-83510476D01*
X98697023Y-83700952D01*
X98697023Y-83843809D01*
X98649404Y-84034285D01*
X98601785Y-84129523D01*
X98506547Y-84224761D01*
X98363690Y-84272380D01*
X98125595Y-84272380D01*
X99554166Y-83272380D02*
X99363690Y-83272380D01*
X99268452Y-83320000D01*
X99220833Y-83367619D01*
X99125595Y-83510476D01*
X99077976Y-83700952D01*
X99077976Y-84081904D01*
X99125595Y-84177142D01*
X99173214Y-84224761D01*
X99268452Y-84272380D01*
X99458928Y-84272380D01*
X99554166Y-84224761D01*
X99601785Y-84177142D01*
X99649404Y-84081904D01*
X99649404Y-83843809D01*
X99601785Y-83748571D01*
X99554166Y-83700952D01*
X99458928Y-83653333D01*
X99268452Y-83653333D01*
X99173214Y-83700952D01*
X99125595Y-83748571D01*
X99077976Y-83843809D01*
X98125595Y-81732380D02*
X98125595Y-80732380D01*
X98363690Y-80732380D01*
X98506547Y-80780000D01*
X98601785Y-80875238D01*
X98649404Y-80970476D01*
X98697023Y-81160952D01*
X98697023Y-81303809D01*
X98649404Y-81494285D01*
X98601785Y-81589523D01*
X98506547Y-81684761D01*
X98363690Y-81732380D01*
X98125595Y-81732380D01*
X99601785Y-80732380D02*
X99125595Y-80732380D01*
X99077976Y-81208571D01*
X99125595Y-81160952D01*
X99220833Y-81113333D01*
X99458928Y-81113333D01*
X99554166Y-81160952D01*
X99601785Y-81208571D01*
X99649404Y-81303809D01*
X99649404Y-81541904D01*
X99601785Y-81637142D01*
X99554166Y-81684761D01*
X99458928Y-81732380D01*
X99220833Y-81732380D01*
X99125595Y-81684761D01*
X99077976Y-81637142D01*
X98125595Y-79192380D02*
X98125595Y-78192380D01*
X98363690Y-78192380D01*
X98506547Y-78240000D01*
X98601785Y-78335238D01*
X98649404Y-78430476D01*
X98697023Y-78620952D01*
X98697023Y-78763809D01*
X98649404Y-78954285D01*
X98601785Y-79049523D01*
X98506547Y-79144761D01*
X98363690Y-79192380D01*
X98125595Y-79192380D01*
X99554166Y-78525714D02*
X99554166Y-79192380D01*
X99316071Y-78144761D02*
X99077976Y-78859047D01*
X99697023Y-78859047D01*
X98125595Y-76652380D02*
X98125595Y-75652380D01*
X98363690Y-75652380D01*
X98506547Y-75700000D01*
X98601785Y-75795238D01*
X98649404Y-75890476D01*
X98697023Y-76080952D01*
X98697023Y-76223809D01*
X98649404Y-76414285D01*
X98601785Y-76509523D01*
X98506547Y-76604761D01*
X98363690Y-76652380D01*
X98125595Y-76652380D01*
X99030357Y-75652380D02*
X99649404Y-75652380D01*
X99316071Y-76033333D01*
X99458928Y-76033333D01*
X99554166Y-76080952D01*
X99601785Y-76128571D01*
X99649404Y-76223809D01*
X99649404Y-76461904D01*
X99601785Y-76557142D01*
X99554166Y-76604761D01*
X99458928Y-76652380D01*
X99173214Y-76652380D01*
X99077976Y-76604761D01*
X99030357Y-76557142D01*
X98125595Y-74112380D02*
X98125595Y-73112380D01*
X98363690Y-73112380D01*
X98506547Y-73160000D01*
X98601785Y-73255238D01*
X98649404Y-73350476D01*
X98697023Y-73540952D01*
X98697023Y-73683809D01*
X98649404Y-73874285D01*
X98601785Y-73969523D01*
X98506547Y-74064761D01*
X98363690Y-74112380D01*
X98125595Y-74112380D01*
X99077976Y-73207619D02*
X99125595Y-73160000D01*
X99220833Y-73112380D01*
X99458928Y-73112380D01*
X99554166Y-73160000D01*
X99601785Y-73207619D01*
X99649404Y-73302857D01*
X99649404Y-73398095D01*
X99601785Y-73540952D01*
X99030357Y-74112380D01*
X99649404Y-74112380D01*
X98125595Y-71572380D02*
X98125595Y-70572380D01*
X98363690Y-70572380D01*
X98506547Y-70620000D01*
X98601785Y-70715238D01*
X98649404Y-70810476D01*
X98697023Y-71000952D01*
X98697023Y-71143809D01*
X98649404Y-71334285D01*
X98601785Y-71429523D01*
X98506547Y-71524761D01*
X98363690Y-71572380D01*
X98125595Y-71572380D01*
X99649404Y-71572380D02*
X99077976Y-71572380D01*
X99363690Y-71572380D02*
X99363690Y-70572380D01*
X99268452Y-70715238D01*
X99173214Y-70810476D01*
X99077976Y-70858095D01*
X98125595Y-69032380D02*
X98125595Y-68032380D01*
X98363690Y-68032380D01*
X98506547Y-68080000D01*
X98601785Y-68175238D01*
X98649404Y-68270476D01*
X98697023Y-68460952D01*
X98697023Y-68603809D01*
X98649404Y-68794285D01*
X98601785Y-68889523D01*
X98506547Y-68984761D01*
X98363690Y-69032380D01*
X98125595Y-69032380D01*
X99316071Y-68032380D02*
X99411309Y-68032380D01*
X99506547Y-68080000D01*
X99554166Y-68127619D01*
X99601785Y-68222857D01*
X99649404Y-68413333D01*
X99649404Y-68651428D01*
X99601785Y-68841904D01*
X99554166Y-68937142D01*
X99506547Y-68984761D01*
X99411309Y-69032380D01*
X99316071Y-69032380D01*
X99220833Y-68984761D01*
X99173214Y-68937142D01*
X99125595Y-68841904D01*
X99077976Y-68651428D01*
X99077976Y-68413333D01*
X99125595Y-68222857D01*
X99173214Y-68127619D01*
X99220833Y-68080000D01*
X99316071Y-68032380D01*
X98697023Y-66492380D02*
X98363690Y-66016190D01*
X98125595Y-66492380D02*
X98125595Y-65492380D01*
X98506547Y-65492380D01*
X98601785Y-65540000D01*
X98649404Y-65587619D01*
X98697023Y-65682857D01*
X98697023Y-65825714D01*
X98649404Y-65920952D01*
X98601785Y-65968571D01*
X98506547Y-66016190D01*
X98125595Y-66016190D01*
X99839880Y-65444761D02*
X98982738Y-66730476D01*
X99935119Y-65125000D02*
X101077976Y-65125000D01*
X100077976Y-65492380D02*
X100316071Y-66492380D01*
X100506547Y-65778095D01*
X100697023Y-66492380D01*
X100935119Y-65492380D01*
X99903595Y-63952380D02*
X99903595Y-62952380D01*
X100475023Y-63952380D01*
X100475023Y-62952380D01*
X101522642Y-63857142D02*
X101475023Y-63904761D01*
X101332166Y-63952380D01*
X101236928Y-63952380D01*
X101094071Y-63904761D01*
X100998833Y-63809523D01*
X100951214Y-63714285D01*
X100903595Y-63523809D01*
X100903595Y-63380952D01*
X100951214Y-63190476D01*
X100998833Y-63095238D01*
X101094071Y-63000000D01*
X101236928Y-62952380D01*
X101332166Y-62952380D01*
X101475023Y-63000000D01*
X101522642Y-63047619D01*
X100538595Y-61412380D02*
X100538595Y-60412380D01*
X101110023Y-61412380D01*
X101110023Y-60412380D01*
X102157642Y-61317142D02*
X102110023Y-61364761D01*
X101967166Y-61412380D01*
X101871928Y-61412380D01*
X101729071Y-61364761D01*
X101633833Y-61269523D01*
X101586214Y-61174285D01*
X101538595Y-60983809D01*
X101538595Y-60840952D01*
X101586214Y-60650476D01*
X101633833Y-60555238D01*
X101729071Y-60460000D01*
X101871928Y-60412380D01*
X101967166Y-60412380D01*
X102110023Y-60460000D01*
X102157642Y-60507619D01*
X98125595Y-58872380D02*
X98125595Y-57872380D01*
X98506547Y-57872380D01*
X98601785Y-57920000D01*
X98649404Y-57967619D01*
X98697023Y-58062857D01*
X98697023Y-58205714D01*
X98649404Y-58300952D01*
X98601785Y-58348571D01*
X98506547Y-58396190D01*
X98125595Y-58396190D01*
X99125595Y-58872380D02*
X99125595Y-57872380D01*
X99554166Y-58872380D02*
X99554166Y-58348571D01*
X99506547Y-58253333D01*
X99411309Y-58205714D01*
X99268452Y-58205714D01*
X99173214Y-58253333D01*
X99125595Y-58300952D01*
X100030357Y-58872380D02*
X100030357Y-58205714D01*
X100030357Y-57872380D02*
X99982738Y-57920000D01*
X100030357Y-57967619D01*
X100077976Y-57920000D01*
X100030357Y-57872380D01*
X100030357Y-57967619D01*
X100697023Y-57872380D02*
X100792261Y-57872380D01*
X100887500Y-57920000D01*
X100935119Y-57967619D01*
X100982738Y-58062857D01*
X101030357Y-58253333D01*
X101030357Y-58491428D01*
X100982738Y-58681904D01*
X100935119Y-58777142D01*
X100887500Y-58824761D01*
X100792261Y-58872380D01*
X100697023Y-58872380D01*
X100601785Y-58824761D01*
X100554166Y-58777142D01*
X100506547Y-58681904D01*
X100458928Y-58491428D01*
X100458928Y-58253333D01*
X100506547Y-58062857D01*
X100554166Y-57967619D01*
X100601785Y-57920000D01*
X100697023Y-57872380D01*
X101427595Y-53792380D02*
X101427595Y-52792380D01*
X101808547Y-52792380D01*
X101903785Y-52840000D01*
X101951404Y-52887619D01*
X101999023Y-52982857D01*
X101999023Y-53125714D01*
X101951404Y-53220952D01*
X101903785Y-53268571D01*
X101808547Y-53316190D01*
X101427595Y-53316190D01*
X102427595Y-53792380D02*
X102427595Y-52792380D01*
X102856166Y-53792380D02*
X102856166Y-53268571D01*
X102808547Y-53173333D01*
X102713309Y-53125714D01*
X102570452Y-53125714D01*
X102475214Y-53173333D01*
X102427595Y-53220952D01*
X103332357Y-53792380D02*
X103332357Y-53125714D01*
X103332357Y-52792380D02*
X103284738Y-52840000D01*
X103332357Y-52887619D01*
X103379976Y-52840000D01*
X103332357Y-52792380D01*
X103332357Y-52887619D01*
X104332357Y-53792380D02*
X103760928Y-53792380D01*
X104046642Y-53792380D02*
X104046642Y-52792380D01*
X103951404Y-52935238D01*
X103856166Y-53030476D01*
X103760928Y-53078095D01*
X99157500Y-49885000D02*
X100157500Y-49885000D01*
X99967023Y-51252380D02*
X99633690Y-50776190D01*
X99395595Y-51252380D02*
X99395595Y-50252380D01*
X99776547Y-50252380D01*
X99871785Y-50300000D01*
X99919404Y-50347619D01*
X99967023Y-50442857D01*
X99967023Y-50585714D01*
X99919404Y-50680952D01*
X99871785Y-50728571D01*
X99776547Y-50776190D01*
X99395595Y-50776190D01*
X100157500Y-49885000D02*
X101062261Y-49885000D01*
X100395595Y-50728571D02*
X100728928Y-50728571D01*
X100871785Y-51252380D02*
X100395595Y-51252380D01*
X100395595Y-50252380D01*
X100871785Y-50252380D01*
X101062261Y-49885000D02*
X102014642Y-49885000D01*
X101252738Y-51204761D02*
X101395595Y-51252380D01*
X101633690Y-51252380D01*
X101728928Y-51204761D01*
X101776547Y-51157142D01*
X101824166Y-51061904D01*
X101824166Y-50966666D01*
X101776547Y-50871428D01*
X101728928Y-50823809D01*
X101633690Y-50776190D01*
X101443214Y-50728571D01*
X101347976Y-50680952D01*
X101300357Y-50633333D01*
X101252738Y-50538095D01*
X101252738Y-50442857D01*
X101300357Y-50347619D01*
X101347976Y-50300000D01*
X101443214Y-50252380D01*
X101681309Y-50252380D01*
X101824166Y-50300000D01*
X102014642Y-49885000D02*
X102919404Y-49885000D01*
X102252738Y-50728571D02*
X102586071Y-50728571D01*
X102728928Y-51252380D02*
X102252738Y-51252380D01*
X102252738Y-50252380D01*
X102728928Y-50252380D01*
X102919404Y-49885000D02*
X103681309Y-49885000D01*
X103014642Y-50252380D02*
X103586071Y-50252380D01*
X103300357Y-51252380D02*
X103300357Y-50252380D01*
X100919595Y-56332380D02*
X100919595Y-55332380D01*
X101491023Y-56332380D01*
X101491023Y-55332380D01*
X102538642Y-56237142D02*
X102491023Y-56284761D01*
X102348166Y-56332380D01*
X102252928Y-56332380D01*
X102110071Y-56284761D01*
X102014833Y-56189523D01*
X101967214Y-56094285D01*
X101919595Y-55903809D01*
X101919595Y-55760952D01*
X101967214Y-55570476D01*
X102014833Y-55475238D01*
X102110071Y-55380000D01*
X102252928Y-55332380D01*
X102348166Y-55332380D01*
X102491023Y-55380000D01*
X102538642Y-55427619D01*
X88138095Y-47922380D02*
X88138095Y-48731904D01*
X88185714Y-48827142D01*
X88233333Y-48874761D01*
X88328571Y-48922380D01*
X88519047Y-48922380D01*
X88614285Y-48874761D01*
X88661904Y-48827142D01*
X88709523Y-48731904D01*
X88709523Y-47922380D01*
X89090476Y-47922380D02*
X89709523Y-47922380D01*
X89376190Y-48303333D01*
X89519047Y-48303333D01*
X89614285Y-48350952D01*
X89661904Y-48398571D01*
X89709523Y-48493809D01*
X89709523Y-48731904D01*
X89661904Y-48827142D01*
X89614285Y-48874761D01*
X89519047Y-48922380D01*
X89233333Y-48922380D01*
X89138095Y-48874761D01*
X89090476Y-48827142D01*
X78055357Y-49885000D02*
X78912500Y-49885000D01*
X78150595Y-50252380D02*
X78483928Y-51252380D01*
X78817261Y-50252380D01*
X78912500Y-49885000D02*
X79912500Y-49885000D01*
X79150595Y-51252380D02*
X79150595Y-50252380D01*
X79531547Y-50252380D01*
X79626785Y-50300000D01*
X79674404Y-50347619D01*
X79722023Y-50442857D01*
X79722023Y-50585714D01*
X79674404Y-50680952D01*
X79626785Y-50728571D01*
X79531547Y-50776190D01*
X79150595Y-50776190D01*
X74943880Y-53792380D02*
X74610547Y-53316190D01*
X74372452Y-53792380D02*
X74372452Y-52792380D01*
X74753404Y-52792380D01*
X74848642Y-52840000D01*
X74896261Y-52887619D01*
X74943880Y-52982857D01*
X74943880Y-53125714D01*
X74896261Y-53220952D01*
X74848642Y-53268571D01*
X74753404Y-53316190D01*
X74372452Y-53316190D01*
X75372452Y-53792380D02*
X75372452Y-52792380D01*
X75610547Y-52792380D01*
X75753404Y-52840000D01*
X75848642Y-52935238D01*
X75896261Y-53030476D01*
X75943880Y-53220952D01*
X75943880Y-53363809D01*
X75896261Y-53554285D01*
X75848642Y-53649523D01*
X75753404Y-53744761D01*
X75610547Y-53792380D01*
X75372452Y-53792380D01*
X76562928Y-53316190D02*
X76562928Y-53792380D01*
X76229595Y-52792380D02*
X76562928Y-53316190D01*
X76896261Y-52792380D01*
X72324833Y-54965000D02*
X73181976Y-54965000D01*
X72515309Y-56046666D02*
X72991500Y-56046666D01*
X72420071Y-56332380D02*
X72753404Y-55332380D01*
X73086738Y-56332380D01*
X73181976Y-54965000D02*
X74181976Y-54965000D01*
X73753404Y-55808571D02*
X73896261Y-55856190D01*
X73943880Y-55903809D01*
X73991500Y-55999047D01*
X73991500Y-56141904D01*
X73943880Y-56237142D01*
X73896261Y-56284761D01*
X73801023Y-56332380D01*
X73420071Y-56332380D01*
X73420071Y-55332380D01*
X73753404Y-55332380D01*
X73848642Y-55380000D01*
X73896261Y-55427619D01*
X73943880Y-55522857D01*
X73943880Y-55618095D01*
X73896261Y-55713333D01*
X73848642Y-55760952D01*
X73753404Y-55808571D01*
X73420071Y-55808571D01*
X74181976Y-54965000D02*
X75229595Y-54965000D01*
X74610547Y-55332380D02*
X74801023Y-55332380D01*
X74896261Y-55380000D01*
X74991500Y-55475238D01*
X75039119Y-55665714D01*
X75039119Y-55999047D01*
X74991500Y-56189523D01*
X74896261Y-56284761D01*
X74801023Y-56332380D01*
X74610547Y-56332380D01*
X74515309Y-56284761D01*
X74420071Y-56189523D01*
X74372452Y-55999047D01*
X74372452Y-55665714D01*
X74420071Y-55475238D01*
X74515309Y-55380000D01*
X74610547Y-55332380D01*
X75229595Y-54965000D02*
X76229595Y-54965000D01*
X76039119Y-56332380D02*
X75705785Y-55856190D01*
X75467690Y-56332380D02*
X75467690Y-55332380D01*
X75848642Y-55332380D01*
X75943880Y-55380000D01*
X75991500Y-55427619D01*
X76039119Y-55522857D01*
X76039119Y-55665714D01*
X75991500Y-55760952D01*
X75943880Y-55808571D01*
X75848642Y-55856190D01*
X75467690Y-55856190D01*
X76229595Y-54965000D02*
X76991500Y-54965000D01*
X76324833Y-55332380D02*
X76896261Y-55332380D01*
X76610547Y-56332380D02*
X76610547Y-55332380D01*
X73451690Y-57505000D02*
X73927880Y-57505000D01*
X73689785Y-58872380D02*
X73689785Y-57872380D01*
X73927880Y-57505000D02*
X74927880Y-57505000D01*
X74737404Y-58872380D02*
X74404071Y-58396190D01*
X74165976Y-58872380D02*
X74165976Y-57872380D01*
X74546928Y-57872380D01*
X74642166Y-57920000D01*
X74689785Y-57967619D01*
X74737404Y-58062857D01*
X74737404Y-58205714D01*
X74689785Y-58300952D01*
X74642166Y-58348571D01*
X74546928Y-58396190D01*
X74165976Y-58396190D01*
X74927880Y-57505000D02*
X75975500Y-57505000D01*
X75832642Y-58967619D02*
X75737404Y-58920000D01*
X75642166Y-58824761D01*
X75499309Y-58681904D01*
X75404071Y-58634285D01*
X75308833Y-58634285D01*
X75356452Y-58872380D02*
X75261214Y-58824761D01*
X75165976Y-58729523D01*
X75118357Y-58539047D01*
X75118357Y-58205714D01*
X75165976Y-58015238D01*
X75261214Y-57920000D01*
X75356452Y-57872380D01*
X75546928Y-57872380D01*
X75642166Y-57920000D01*
X75737404Y-58015238D01*
X75785023Y-58205714D01*
X75785023Y-58539047D01*
X75737404Y-58729523D01*
X75642166Y-58824761D01*
X75546928Y-58872380D01*
X75356452Y-58872380D01*
X73769119Y-60045000D02*
X74911976Y-60045000D01*
X74007214Y-61412380D02*
X74007214Y-60412380D01*
X74340547Y-61126666D01*
X74673880Y-60412380D01*
X74673880Y-61412380D01*
X74911976Y-60045000D02*
X75721500Y-60045000D01*
X75626261Y-61412380D02*
X75150071Y-61412380D01*
X75150071Y-60412380D01*
X73816833Y-62585000D02*
X74864452Y-62585000D01*
X74054928Y-63952380D02*
X74054928Y-62952380D01*
X74626357Y-63952380D01*
X74626357Y-62952380D01*
X74864452Y-62585000D02*
X76007309Y-62585000D01*
X75102547Y-63952380D02*
X75102547Y-62952380D01*
X75435880Y-63666666D01*
X75769214Y-62952380D01*
X75769214Y-63952380D01*
X76007309Y-62585000D02*
X76483500Y-62585000D01*
X76245404Y-63952380D02*
X76245404Y-62952380D01*
X74118452Y-65492380D02*
X74451785Y-66492380D01*
X74785119Y-65492380D01*
X75118452Y-66492380D02*
X75118452Y-65492380D01*
X75499404Y-65492380D01*
X75594642Y-65540000D01*
X75642261Y-65587619D01*
X75689880Y-65682857D01*
X75689880Y-65825714D01*
X75642261Y-65920952D01*
X75594642Y-65968571D01*
X75499404Y-66016190D01*
X75118452Y-66016190D01*
X76070833Y-66206666D02*
X76547023Y-66206666D01*
X75975595Y-66492380D02*
X76308928Y-65492380D01*
X76642261Y-66492380D01*
X73880309Y-68032380D02*
X74213642Y-69032380D01*
X74546976Y-68032380D01*
X75308880Y-68984761D02*
X75213642Y-69032380D01*
X75023166Y-69032380D01*
X74927928Y-68984761D01*
X74880309Y-68937142D01*
X74832690Y-68841904D01*
X74832690Y-68556190D01*
X74880309Y-68460952D01*
X74927928Y-68413333D01*
X75023166Y-68365714D01*
X75213642Y-68365714D01*
X75308880Y-68413333D01*
X76166023Y-68984761D02*
X76070785Y-69032380D01*
X75880309Y-69032380D01*
X75785071Y-68984761D01*
X75737452Y-68937142D01*
X75689833Y-68841904D01*
X75689833Y-68556190D01*
X75737452Y-68460952D01*
X75785071Y-68413333D01*
X75880309Y-68365714D01*
X76070785Y-68365714D01*
X76166023Y-68413333D01*
X75753452Y-71286666D02*
X76229642Y-71286666D01*
X75658214Y-71572380D02*
X75991547Y-70572380D01*
X76324880Y-71572380D01*
X76848690Y-70572380D02*
X76943928Y-70572380D01*
X77039166Y-70620000D01*
X77086785Y-70667619D01*
X77134404Y-70762857D01*
X77182023Y-70953333D01*
X77182023Y-71191428D01*
X77134404Y-71381904D01*
X77086785Y-71477142D01*
X77039166Y-71524761D01*
X76943928Y-71572380D01*
X76848690Y-71572380D01*
X76753452Y-71524761D01*
X76705833Y-71477142D01*
X76658214Y-71381904D01*
X76610595Y-71191428D01*
X76610595Y-70953333D01*
X76658214Y-70762857D01*
X76705833Y-70667619D01*
X76753452Y-70620000D01*
X76848690Y-70572380D01*
X75753452Y-73826666D02*
X76229642Y-73826666D01*
X75658214Y-74112380D02*
X75991547Y-73112380D01*
X76324880Y-74112380D01*
X77182023Y-74112380D02*
X76610595Y-74112380D01*
X76896309Y-74112380D02*
X76896309Y-73112380D01*
X76801071Y-73255238D01*
X76705833Y-73350476D01*
X76610595Y-73398095D01*
X75753452Y-76366666D02*
X76229642Y-76366666D01*
X75658214Y-76652380D02*
X75991547Y-75652380D01*
X76324880Y-76652380D01*
X76610595Y-75747619D02*
X76658214Y-75700000D01*
X76753452Y-75652380D01*
X76991547Y-75652380D01*
X77086785Y-75700000D01*
X77134404Y-75747619D01*
X77182023Y-75842857D01*
X77182023Y-75938095D01*
X77134404Y-76080952D01*
X76562976Y-76652380D01*
X77182023Y-76652380D01*
X75753452Y-78906666D02*
X76229642Y-78906666D01*
X75658214Y-79192380D02*
X75991547Y-78192380D01*
X76324880Y-79192380D01*
X76562976Y-78192380D02*
X77182023Y-78192380D01*
X76848690Y-78573333D01*
X76991547Y-78573333D01*
X77086785Y-78620952D01*
X77134404Y-78668571D01*
X77182023Y-78763809D01*
X77182023Y-79001904D01*
X77134404Y-79097142D01*
X77086785Y-79144761D01*
X76991547Y-79192380D01*
X76705833Y-79192380D01*
X76610595Y-79144761D01*
X76562976Y-79097142D01*
X75753452Y-81446666D02*
X76229642Y-81446666D01*
X75658214Y-81732380D02*
X75991547Y-80732380D01*
X76324880Y-81732380D01*
X77086785Y-81065714D02*
X77086785Y-81732380D01*
X76848690Y-80684761D02*
X76610595Y-81399047D01*
X77229642Y-81399047D01*
X75753452Y-83986666D02*
X76229642Y-83986666D01*
X75658214Y-84272380D02*
X75991547Y-83272380D01*
X76324880Y-84272380D01*
X77134404Y-83272380D02*
X76658214Y-83272380D01*
X76610595Y-83748571D01*
X76658214Y-83700952D01*
X76753452Y-83653333D01*
X76991547Y-83653333D01*
X77086785Y-83700952D01*
X77134404Y-83748571D01*
X77182023Y-83843809D01*
X77182023Y-84081904D01*
X77134404Y-84177142D01*
X77086785Y-84224761D01*
X76991547Y-84272380D01*
X76753452Y-84272380D01*
X76658214Y-84224761D01*
X76610595Y-84177142D01*
X75753452Y-86526666D02*
X76229642Y-86526666D01*
X75658214Y-86812380D02*
X75991547Y-85812380D01*
X76324880Y-86812380D01*
X77086785Y-85812380D02*
X76896309Y-85812380D01*
X76801071Y-85860000D01*
X76753452Y-85907619D01*
X76658214Y-86050476D01*
X76610595Y-86240952D01*
X76610595Y-86621904D01*
X76658214Y-86717142D01*
X76705833Y-86764761D01*
X76801071Y-86812380D01*
X76991547Y-86812380D01*
X77086785Y-86764761D01*
X77134404Y-86717142D01*
X77182023Y-86621904D01*
X77182023Y-86383809D01*
X77134404Y-86288571D01*
X77086785Y-86240952D01*
X76991547Y-86193333D01*
X76801071Y-86193333D01*
X76705833Y-86240952D01*
X76658214Y-86288571D01*
X76610595Y-86383809D01*
X75753452Y-89066666D02*
X76229642Y-89066666D01*
X75658214Y-89352380D02*
X75991547Y-88352380D01*
X76324880Y-89352380D01*
X76562976Y-88352380D02*
X77229642Y-88352380D01*
X76801071Y-89352380D01*
X75753452Y-91606666D02*
X76229642Y-91606666D01*
X75658214Y-91892380D02*
X75991547Y-90892380D01*
X76324880Y-91892380D01*
X76801071Y-91320952D02*
X76705833Y-91273333D01*
X76658214Y-91225714D01*
X76610595Y-91130476D01*
X76610595Y-91082857D01*
X76658214Y-90987619D01*
X76705833Y-90940000D01*
X76801071Y-90892380D01*
X76991547Y-90892380D01*
X77086785Y-90940000D01*
X77134404Y-90987619D01*
X77182023Y-91082857D01*
X77182023Y-91130476D01*
X77134404Y-91225714D01*
X77086785Y-91273333D01*
X76991547Y-91320952D01*
X76801071Y-91320952D01*
X76705833Y-91368571D01*
X76658214Y-91416190D01*
X76610595Y-91511428D01*
X76610595Y-91701904D01*
X76658214Y-91797142D01*
X76705833Y-91844761D01*
X76801071Y-91892380D01*
X76991547Y-91892380D01*
X77086785Y-91844761D01*
X77134404Y-91797142D01*
X77182023Y-91701904D01*
X77182023Y-91511428D01*
X77134404Y-91416190D01*
X77086785Y-91368571D01*
X76991547Y-91320952D01*
X75753452Y-94146666D02*
X76229642Y-94146666D01*
X75658214Y-94432380D02*
X75991547Y-93432380D01*
X76324880Y-94432380D01*
X76705833Y-94432380D02*
X76896309Y-94432380D01*
X76991547Y-94384761D01*
X77039166Y-94337142D01*
X77134404Y-94194285D01*
X77182023Y-94003809D01*
X77182023Y-93622857D01*
X77134404Y-93527619D01*
X77086785Y-93480000D01*
X76991547Y-93432380D01*
X76801071Y-93432380D01*
X76705833Y-93480000D01*
X76658214Y-93527619D01*
X76610595Y-93622857D01*
X76610595Y-93860952D01*
X76658214Y-93956190D01*
X76705833Y-94003809D01*
X76801071Y-94051428D01*
X76991547Y-94051428D01*
X77086785Y-94003809D01*
X77134404Y-93956190D01*
X77182023Y-93860952D01*
X74801071Y-96686666D02*
X75277261Y-96686666D01*
X74705833Y-96972380D02*
X75039166Y-95972380D01*
X75372500Y-96972380D01*
X76229642Y-96972380D02*
X75658214Y-96972380D01*
X75943928Y-96972380D02*
X75943928Y-95972380D01*
X75848690Y-96115238D01*
X75753452Y-96210476D01*
X75658214Y-96258095D01*
X76848690Y-95972380D02*
X76943928Y-95972380D01*
X77039166Y-96020000D01*
X77086785Y-96067619D01*
X77134404Y-96162857D01*
X77182023Y-96353333D01*
X77182023Y-96591428D01*
X77134404Y-96781904D01*
X77086785Y-96877142D01*
X77039166Y-96924761D01*
X76943928Y-96972380D01*
X76848690Y-96972380D01*
X76753452Y-96924761D01*
X76705833Y-96877142D01*
X76658214Y-96781904D01*
X76610595Y-96591428D01*
X76610595Y-96353333D01*
X76658214Y-96162857D01*
X76705833Y-96067619D01*
X76753452Y-96020000D01*
X76848690Y-95972380D01*
X74801071Y-99226666D02*
X75277261Y-99226666D01*
X74705833Y-99512380D02*
X75039166Y-98512380D01*
X75372500Y-99512380D01*
X76229642Y-99512380D02*
X75658214Y-99512380D01*
X75943928Y-99512380D02*
X75943928Y-98512380D01*
X75848690Y-98655238D01*
X75753452Y-98750476D01*
X75658214Y-98798095D01*
X77182023Y-99512380D02*
X76610595Y-99512380D01*
X76896309Y-99512380D02*
X76896309Y-98512380D01*
X76801071Y-98655238D01*
X76705833Y-98750476D01*
X76610595Y-98798095D01*
X98649404Y-98560000D02*
X98554166Y-98512380D01*
X98411309Y-98512380D01*
X98268452Y-98560000D01*
X98173214Y-98655238D01*
X98125595Y-98750476D01*
X98077976Y-98940952D01*
X98077976Y-99083809D01*
X98125595Y-99274285D01*
X98173214Y-99369523D01*
X98268452Y-99464761D01*
X98411309Y-99512380D01*
X98506547Y-99512380D01*
X98649404Y-99464761D01*
X98697023Y-99417142D01*
X98697023Y-99083809D01*
X98506547Y-99083809D01*
X99125595Y-99512380D02*
X99125595Y-98512380D01*
X99697023Y-99512380D01*
X99697023Y-98512380D01*
X100173214Y-99512380D02*
X100173214Y-98512380D01*
X100411309Y-98512380D01*
X100554166Y-98560000D01*
X100649404Y-98655238D01*
X100697023Y-98750476D01*
X100744642Y-98940952D01*
X100744642Y-99083809D01*
X100697023Y-99274285D01*
X100649404Y-99369523D01*
X100554166Y-99464761D01*
X100411309Y-99512380D01*
X100173214Y-99512380D01*
X98077976Y-96686666D02*
X98554166Y-96686666D01*
X97982738Y-96972380D02*
X98316071Y-95972380D01*
X98649404Y-96972380D01*
X99506547Y-96972380D02*
X98935119Y-96972380D01*
X99220833Y-96972380D02*
X99220833Y-95972380D01*
X99125595Y-96115238D01*
X99030357Y-96210476D01*
X98935119Y-96258095D01*
X99887500Y-96067619D02*
X99935119Y-96020000D01*
X100030357Y-95972380D01*
X100268452Y-95972380D01*
X100363690Y-96020000D01*
X100411309Y-96067619D01*
X100458928Y-96162857D01*
X100458928Y-96258095D01*
X100411309Y-96400952D01*
X99839880Y-96972380D01*
X100458928Y-96972380D01*
X98077976Y-94146666D02*
X98554166Y-94146666D01*
X97982738Y-94432380D02*
X98316071Y-93432380D01*
X98649404Y-94432380D01*
X99506547Y-94432380D02*
X98935119Y-94432380D01*
X99220833Y-94432380D02*
X99220833Y-93432380D01*
X99125595Y-93575238D01*
X99030357Y-93670476D01*
X98935119Y-93718095D01*
X99839880Y-93432380D02*
X100458928Y-93432380D01*
X100125595Y-93813333D01*
X100268452Y-93813333D01*
X100363690Y-93860952D01*
X100411309Y-93908571D01*
X100458928Y-94003809D01*
X100458928Y-94241904D01*
X100411309Y-94337142D01*
X100363690Y-94384761D01*
X100268452Y-94432380D01*
X99982738Y-94432380D01*
X99887500Y-94384761D01*
X99839880Y-94337142D01*
X98077976Y-91606666D02*
X98554166Y-91606666D01*
X97982738Y-91892380D02*
X98316071Y-90892380D01*
X98649404Y-91892380D01*
X99506547Y-91892380D02*
X98935119Y-91892380D01*
X99220833Y-91892380D02*
X99220833Y-90892380D01*
X99125595Y-91035238D01*
X99030357Y-91130476D01*
X98935119Y-91178095D01*
X100363690Y-91225714D02*
X100363690Y-91892380D01*
X100125595Y-90844761D02*
X99887500Y-91559047D01*
X100506547Y-91559047D01*
X98077976Y-89066666D02*
X98554166Y-89066666D01*
X97982738Y-89352380D02*
X98316071Y-88352380D01*
X98649404Y-89352380D01*
X99506547Y-89352380D02*
X98935119Y-89352380D01*
X99220833Y-89352380D02*
X99220833Y-88352380D01*
X99125595Y-88495238D01*
X99030357Y-88590476D01*
X98935119Y-88638095D01*
X100411309Y-88352380D02*
X99935119Y-88352380D01*
X99887500Y-88828571D01*
X99935119Y-88780952D01*
X100030357Y-88733333D01*
X100268452Y-88733333D01*
X100363690Y-88780952D01*
X100411309Y-88828571D01*
X100458928Y-88923809D01*
X100458928Y-89161904D01*
X100411309Y-89257142D01*
X100363690Y-89304761D01*
X100268452Y-89352380D01*
X100030357Y-89352380D01*
X99935119Y-89304761D01*
X99887500Y-89257142D01*
X98125595Y-86812380D02*
X98125595Y-85812380D01*
X98363690Y-85812380D01*
X98506547Y-85860000D01*
X98601785Y-85955238D01*
X98649404Y-86050476D01*
X98697023Y-86240952D01*
X98697023Y-86383809D01*
X98649404Y-86574285D01*
X98601785Y-86669523D01*
X98506547Y-86764761D01*
X98363690Y-86812380D01*
X98125595Y-86812380D01*
X99030357Y-85812380D02*
X99697023Y-85812380D01*
X99268452Y-86812380D01*
X98125595Y-84272380D02*
X98125595Y-83272380D01*
X98363690Y-83272380D01*
X98506547Y-83320000D01*
X98601785Y-83415238D01*
X98649404Y-83510476D01*
X98697023Y-83700952D01*
X98697023Y-83843809D01*
X98649404Y-84034285D01*
X98601785Y-84129523D01*
X98506547Y-84224761D01*
X98363690Y-84272380D01*
X98125595Y-84272380D01*
X99554166Y-83272380D02*
X99363690Y-83272380D01*
X99268452Y-83320000D01*
X99220833Y-83367619D01*
X99125595Y-83510476D01*
X99077976Y-83700952D01*
X99077976Y-84081904D01*
X99125595Y-84177142D01*
X99173214Y-84224761D01*
X99268452Y-84272380D01*
X99458928Y-84272380D01*
X99554166Y-84224761D01*
X99601785Y-84177142D01*
X99649404Y-84081904D01*
X99649404Y-83843809D01*
X99601785Y-83748571D01*
X99554166Y-83700952D01*
X99458928Y-83653333D01*
X99268452Y-83653333D01*
X99173214Y-83700952D01*
X99125595Y-83748571D01*
X99077976Y-83843809D01*
X98125595Y-81732380D02*
X98125595Y-80732380D01*
X98363690Y-80732380D01*
X98506547Y-80780000D01*
X98601785Y-80875238D01*
X98649404Y-80970476D01*
X98697023Y-81160952D01*
X98697023Y-81303809D01*
X98649404Y-81494285D01*
X98601785Y-81589523D01*
X98506547Y-81684761D01*
X98363690Y-81732380D01*
X98125595Y-81732380D01*
X99601785Y-80732380D02*
X99125595Y-80732380D01*
X99077976Y-81208571D01*
X99125595Y-81160952D01*
X99220833Y-81113333D01*
X99458928Y-81113333D01*
X99554166Y-81160952D01*
X99601785Y-81208571D01*
X99649404Y-81303809D01*
X99649404Y-81541904D01*
X99601785Y-81637142D01*
X99554166Y-81684761D01*
X99458928Y-81732380D01*
X99220833Y-81732380D01*
X99125595Y-81684761D01*
X99077976Y-81637142D01*
X98125595Y-79192380D02*
X98125595Y-78192380D01*
X98363690Y-78192380D01*
X98506547Y-78240000D01*
X98601785Y-78335238D01*
X98649404Y-78430476D01*
X98697023Y-78620952D01*
X98697023Y-78763809D01*
X98649404Y-78954285D01*
X98601785Y-79049523D01*
X98506547Y-79144761D01*
X98363690Y-79192380D01*
X98125595Y-79192380D01*
X99554166Y-78525714D02*
X99554166Y-79192380D01*
X99316071Y-78144761D02*
X99077976Y-78859047D01*
X99697023Y-78859047D01*
X98125595Y-76652380D02*
X98125595Y-75652380D01*
X98363690Y-75652380D01*
X98506547Y-75700000D01*
X98601785Y-75795238D01*
X98649404Y-75890476D01*
X98697023Y-76080952D01*
X98697023Y-76223809D01*
X98649404Y-76414285D01*
X98601785Y-76509523D01*
X98506547Y-76604761D01*
X98363690Y-76652380D01*
X98125595Y-76652380D01*
X99030357Y-75652380D02*
X99649404Y-75652380D01*
X99316071Y-76033333D01*
X99458928Y-76033333D01*
X99554166Y-76080952D01*
X99601785Y-76128571D01*
X99649404Y-76223809D01*
X99649404Y-76461904D01*
X99601785Y-76557142D01*
X99554166Y-76604761D01*
X99458928Y-76652380D01*
X99173214Y-76652380D01*
X99077976Y-76604761D01*
X99030357Y-76557142D01*
X98125595Y-74112380D02*
X98125595Y-73112380D01*
X98363690Y-73112380D01*
X98506547Y-73160000D01*
X98601785Y-73255238D01*
X98649404Y-73350476D01*
X98697023Y-73540952D01*
X98697023Y-73683809D01*
X98649404Y-73874285D01*
X98601785Y-73969523D01*
X98506547Y-74064761D01*
X98363690Y-74112380D01*
X98125595Y-74112380D01*
X99077976Y-73207619D02*
X99125595Y-73160000D01*
X99220833Y-73112380D01*
X99458928Y-73112380D01*
X99554166Y-73160000D01*
X99601785Y-73207619D01*
X99649404Y-73302857D01*
X99649404Y-73398095D01*
X99601785Y-73540952D01*
X99030357Y-74112380D01*
X99649404Y-74112380D01*
X98125595Y-71572380D02*
X98125595Y-70572380D01*
X98363690Y-70572380D01*
X98506547Y-70620000D01*
X98601785Y-70715238D01*
X98649404Y-70810476D01*
X98697023Y-71000952D01*
X98697023Y-71143809D01*
X98649404Y-71334285D01*
X98601785Y-71429523D01*
X98506547Y-71524761D01*
X98363690Y-71572380D01*
X98125595Y-71572380D01*
X99649404Y-71572380D02*
X99077976Y-71572380D01*
X99363690Y-71572380D02*
X99363690Y-70572380D01*
X99268452Y-70715238D01*
X99173214Y-70810476D01*
X99077976Y-70858095D01*
X98125595Y-69032380D02*
X98125595Y-68032380D01*
X98363690Y-68032380D01*
X98506547Y-68080000D01*
X98601785Y-68175238D01*
X98649404Y-68270476D01*
X98697023Y-68460952D01*
X98697023Y-68603809D01*
X98649404Y-68794285D01*
X98601785Y-68889523D01*
X98506547Y-68984761D01*
X98363690Y-69032380D01*
X98125595Y-69032380D01*
X99316071Y-68032380D02*
X99411309Y-68032380D01*
X99506547Y-68080000D01*
X99554166Y-68127619D01*
X99601785Y-68222857D01*
X99649404Y-68413333D01*
X99649404Y-68651428D01*
X99601785Y-68841904D01*
X99554166Y-68937142D01*
X99506547Y-68984761D01*
X99411309Y-69032380D01*
X99316071Y-69032380D01*
X99220833Y-68984761D01*
X99173214Y-68937142D01*
X99125595Y-68841904D01*
X99077976Y-68651428D01*
X99077976Y-68413333D01*
X99125595Y-68222857D01*
X99173214Y-68127619D01*
X99220833Y-68080000D01*
X99316071Y-68032380D01*
X98697023Y-66492380D02*
X98363690Y-66016190D01*
X98125595Y-66492380D02*
X98125595Y-65492380D01*
X98506547Y-65492380D01*
X98601785Y-65540000D01*
X98649404Y-65587619D01*
X98697023Y-65682857D01*
X98697023Y-65825714D01*
X98649404Y-65920952D01*
X98601785Y-65968571D01*
X98506547Y-66016190D01*
X98125595Y-66016190D01*
X99839880Y-65444761D02*
X98982738Y-66730476D01*
X99935119Y-65125000D02*
X101077976Y-65125000D01*
X100077976Y-65492380D02*
X100316071Y-66492380D01*
X100506547Y-65778095D01*
X100697023Y-66492380D01*
X100935119Y-65492380D01*
X98125595Y-63428571D02*
X98458928Y-63428571D01*
X98601785Y-63952380D02*
X98125595Y-63952380D01*
X98125595Y-62952380D01*
X98601785Y-62952380D01*
X98458928Y-60888571D02*
X98601785Y-60936190D01*
X98649404Y-60983809D01*
X98697023Y-61079047D01*
X98697023Y-61221904D01*
X98649404Y-61317142D01*
X98601785Y-61364761D01*
X98506547Y-61412380D01*
X98125595Y-61412380D01*
X98125595Y-60412380D01*
X98458928Y-60412380D01*
X98554166Y-60460000D01*
X98601785Y-60507619D01*
X98649404Y-60602857D01*
X98649404Y-60698095D01*
X98601785Y-60793333D01*
X98554166Y-60840952D01*
X98458928Y-60888571D01*
X98125595Y-60888571D01*
X99125595Y-60888571D02*
X99458928Y-60888571D01*
X99601785Y-61412380D02*
X99125595Y-61412380D01*
X99125595Y-60412380D01*
X99601785Y-60412380D01*
X98125595Y-58872380D02*
X98125595Y-57872380D01*
X98506547Y-57872380D01*
X98601785Y-57920000D01*
X98649404Y-57967619D01*
X98697023Y-58062857D01*
X98697023Y-58205714D01*
X98649404Y-58300952D01*
X98601785Y-58348571D01*
X98506547Y-58396190D01*
X98125595Y-58396190D01*
X99125595Y-58872380D02*
X99125595Y-57872380D01*
X99554166Y-58872380D02*
X99554166Y-58348571D01*
X99506547Y-58253333D01*
X99411309Y-58205714D01*
X99268452Y-58205714D01*
X99173214Y-58253333D01*
X99125595Y-58300952D01*
X100030357Y-58872380D02*
X100030357Y-58205714D01*
X100030357Y-57872380D02*
X99982738Y-57920000D01*
X100030357Y-57967619D01*
X100077976Y-57920000D01*
X100030357Y-57872380D01*
X100030357Y-57967619D01*
X100458928Y-57967619D02*
X100506547Y-57920000D01*
X100601785Y-57872380D01*
X100839880Y-57872380D01*
X100935119Y-57920000D01*
X100982738Y-57967619D01*
X101030357Y-58062857D01*
X101030357Y-58158095D01*
X100982738Y-58300952D01*
X100411309Y-58872380D01*
X101030357Y-58872380D01*
X97982738Y-52792380D02*
X98316071Y-53792380D01*
X98649404Y-52792380D01*
X98982738Y-53792380D02*
X98982738Y-52792380D01*
X99220833Y-52792380D01*
X99363690Y-52840000D01*
X99458928Y-52935238D01*
X99506547Y-53030476D01*
X99554166Y-53220952D01*
X99554166Y-53363809D01*
X99506547Y-53554285D01*
X99458928Y-53649523D01*
X99363690Y-53744761D01*
X99220833Y-53792380D01*
X98982738Y-53792380D01*
X99935119Y-53506666D02*
X100411309Y-53506666D01*
X99839880Y-53792380D02*
X100173214Y-52792380D01*
X100506547Y-53792380D01*
X99157500Y-49885000D02*
X100157500Y-49885000D01*
X99967023Y-51252380D02*
X99633690Y-50776190D01*
X99395595Y-51252380D02*
X99395595Y-50252380D01*
X99776547Y-50252380D01*
X99871785Y-50300000D01*
X99919404Y-50347619D01*
X99967023Y-50442857D01*
X99967023Y-50585714D01*
X99919404Y-50680952D01*
X99871785Y-50728571D01*
X99776547Y-50776190D01*
X99395595Y-50776190D01*
X100157500Y-49885000D02*
X101062261Y-49885000D01*
X100395595Y-50728571D02*
X100728928Y-50728571D01*
X100871785Y-51252380D02*
X100395595Y-51252380D01*
X100395595Y-50252380D01*
X100871785Y-50252380D01*
X101062261Y-49885000D02*
X102014642Y-49885000D01*
X101252738Y-51204761D02*
X101395595Y-51252380D01*
X101633690Y-51252380D01*
X101728928Y-51204761D01*
X101776547Y-51157142D01*
X101824166Y-51061904D01*
X101824166Y-50966666D01*
X101776547Y-50871428D01*
X101728928Y-50823809D01*
X101633690Y-50776190D01*
X101443214Y-50728571D01*
X101347976Y-50680952D01*
X101300357Y-50633333D01*
X101252738Y-50538095D01*
X101252738Y-50442857D01*
X101300357Y-50347619D01*
X101347976Y-50300000D01*
X101443214Y-50252380D01*
X101681309Y-50252380D01*
X101824166Y-50300000D01*
X102014642Y-49885000D02*
X102919404Y-49885000D01*
X102252738Y-50728571D02*
X102586071Y-50728571D01*
X102728928Y-51252380D02*
X102252738Y-51252380D01*
X102252738Y-50252380D01*
X102728928Y-50252380D01*
X102919404Y-49885000D02*
X103681309Y-49885000D01*
X103014642Y-50252380D02*
X103586071Y-50252380D01*
X103300357Y-51252380D02*
X103300357Y-50252380D01*
X98125595Y-56332380D02*
X98125595Y-55332380D01*
X98458928Y-56046666D01*
X98792261Y-55332380D01*
X98792261Y-56332380D01*
X99173214Y-55332380D02*
X99839880Y-56332380D01*
X99839880Y-55332380D02*
X99173214Y-56332380D01*
X86574380Y-51260333D02*
X87288666Y-51260333D01*
X87431523Y-51307952D01*
X87526761Y-51403190D01*
X87574380Y-51546047D01*
X87574380Y-51641285D01*
X87574380Y-50260333D02*
X87574380Y-50831761D01*
X87574380Y-50546047D02*
X86574380Y-50546047D01*
X86717238Y-50641285D01*
X86812476Y-50736523D01*
X86860095Y-50831761D01*
M02*
