%FSLAX45Y45*%
G04 Gerber Fmt 4.5, Leading zero omitted, Abs format (unit mm)*
G04 Created by KiCad (PCBNEW (5.1.2)-1) date 2020-03-13 04:35:33*
%MOMM*%
%LPD*%
G04 APERTURE LIST*
%ADD10C,0.010000*%
%ADD11C,0.200000*%
%ADD12C,0.300000*%
G04 APERTURE END LIST*
D10*
X7772400Y-4927600D02*
X7772400Y-10033000D01*
X9753600Y-10033000D02*
X7772400Y-10033000D01*
X9753600Y-4927600D02*
X9753600Y-10033000D01*
X7772400Y-4927600D02*
X9753600Y-4927600D01*
D11*
X8608300Y-5700000D02*
X8638300Y-5730000D01*
X8638300Y-5700000D02*
X8608300Y-5730000D01*
X8621000Y-6208000D02*
X8651000Y-6238000D01*
X8651000Y-6208000D02*
X8621000Y-6238000D01*
X8621000Y-6437500D02*
X8651000Y-6467500D01*
X8651000Y-6437500D02*
X8621000Y-6467500D01*
X8843250Y-5414250D02*
X8873250Y-5444250D01*
X8873250Y-5414250D02*
X8843250Y-5444250D01*
X8875000Y-6208000D02*
X8905000Y-6238000D01*
X8905000Y-6208000D02*
X8875000Y-6238000D01*
X8875450Y-6437050D02*
X8905450Y-6467050D01*
X8905450Y-6437050D02*
X8875450Y-6467050D01*
X8325800Y-6477000D02*
G75*
G03X8325800Y-6477000I-20000J0D01*
G01*
X8389300Y-5600700D02*
G75*
G03X8389300Y-5600700I-20000J0D01*
G01*
X8402000Y-7048500D02*
G75*
G03X8402000Y-7048500I-20000J0D01*
G01*
X8452800Y-5854700D02*
G75*
G03X8452800Y-5854700I-20000J0D01*
G01*
X8128000Y-5040000D02*
X8128000Y-5120000D01*
X8088000Y-5080000D02*
X8168000Y-5080000D01*
X8128000Y-5294000D02*
X8128000Y-5374000D01*
X8088000Y-5334000D02*
X8168000Y-5334000D01*
X8128000Y-5548000D02*
X8128000Y-5628000D01*
X8088000Y-5588000D02*
X8168000Y-5588000D01*
X8128000Y-5802000D02*
X8128000Y-5882000D01*
X8088000Y-5842000D02*
X8168000Y-5842000D01*
X8128000Y-6056000D02*
X8128000Y-6136000D01*
X8088000Y-6096000D02*
X8168000Y-6096000D01*
X8128000Y-6310000D02*
X8128000Y-6390000D01*
X8088000Y-6350000D02*
X8168000Y-6350000D01*
X8128000Y-6564000D02*
X8128000Y-6644000D01*
X8088000Y-6604000D02*
X8168000Y-6604000D01*
X8128000Y-6818000D02*
X8128000Y-6898000D01*
X8088000Y-6858000D02*
X8168000Y-6858000D01*
X8128000Y-7072000D02*
X8128000Y-7152000D01*
X8088000Y-7112000D02*
X8168000Y-7112000D01*
X8128000Y-7326000D02*
X8128000Y-7406000D01*
X8088000Y-7366000D02*
X8168000Y-7366000D01*
X8128000Y-7580000D02*
X8128000Y-7660000D01*
X8088000Y-7620000D02*
X8168000Y-7620000D01*
X8128000Y-7834000D02*
X8128000Y-7914000D01*
X8088000Y-7874000D02*
X8168000Y-7874000D01*
X8128000Y-8088000D02*
X8128000Y-8168000D01*
X8088000Y-8128000D02*
X8168000Y-8128000D01*
X8128000Y-8342000D02*
X8128000Y-8422000D01*
X8088000Y-8382000D02*
X8168000Y-8382000D01*
X8128000Y-8596000D02*
X8128000Y-8676000D01*
X8088000Y-8636000D02*
X8168000Y-8636000D01*
X8128000Y-8850000D02*
X8128000Y-8930000D01*
X8088000Y-8890000D02*
X8168000Y-8890000D01*
X8128000Y-9104000D02*
X8128000Y-9184000D01*
X8088000Y-9144000D02*
X8168000Y-9144000D01*
X8128000Y-9358000D02*
X8128000Y-9438000D01*
X8088000Y-9398000D02*
X8168000Y-9398000D01*
X8128000Y-9612000D02*
X8128000Y-9692000D01*
X8088000Y-9652000D02*
X8168000Y-9652000D01*
X8128000Y-9866000D02*
X8128000Y-9946000D01*
X8088000Y-9906000D02*
X8168000Y-9906000D01*
X9652000Y-5040000D02*
X9652000Y-5120000D01*
X9612000Y-5080000D02*
X9692000Y-5080000D01*
X9652000Y-5294000D02*
X9652000Y-5374000D01*
X9612000Y-5334000D02*
X9692000Y-5334000D01*
X9652000Y-5548000D02*
X9652000Y-5628000D01*
X9612000Y-5588000D02*
X9692000Y-5588000D01*
X9652000Y-5802000D02*
X9652000Y-5882000D01*
X9612000Y-5842000D02*
X9692000Y-5842000D01*
X9652000Y-6056000D02*
X9652000Y-6136000D01*
X9612000Y-6096000D02*
X9692000Y-6096000D01*
X9652000Y-6310000D02*
X9652000Y-6390000D01*
X9612000Y-6350000D02*
X9692000Y-6350000D01*
X9652000Y-6564000D02*
X9652000Y-6644000D01*
X9612000Y-6604000D02*
X9692000Y-6604000D01*
X9652000Y-6818000D02*
X9652000Y-6898000D01*
X9612000Y-6858000D02*
X9692000Y-6858000D01*
X9652000Y-7072000D02*
X9652000Y-7152000D01*
X9612000Y-7112000D02*
X9692000Y-7112000D01*
X9652000Y-7326000D02*
X9652000Y-7406000D01*
X9612000Y-7366000D02*
X9692000Y-7366000D01*
X9652000Y-7580000D02*
X9652000Y-7660000D01*
X9612000Y-7620000D02*
X9692000Y-7620000D01*
X9652000Y-7834000D02*
X9652000Y-7914000D01*
X9612000Y-7874000D02*
X9692000Y-7874000D01*
X9652000Y-8088000D02*
X9652000Y-8168000D01*
X9612000Y-8128000D02*
X9692000Y-8128000D01*
X9652000Y-8342000D02*
X9652000Y-8422000D01*
X9612000Y-8382000D02*
X9692000Y-8382000D01*
X9652000Y-8596000D02*
X9652000Y-8676000D01*
X9612000Y-8636000D02*
X9692000Y-8636000D01*
X9652000Y-8850000D02*
X9652000Y-8930000D01*
X9612000Y-8890000D02*
X9692000Y-8890000D01*
X9652000Y-9104000D02*
X9652000Y-9184000D01*
X9612000Y-9144000D02*
X9692000Y-9144000D01*
X9652000Y-9358000D02*
X9652000Y-9438000D01*
X9612000Y-9398000D02*
X9692000Y-9398000D01*
X9652000Y-9612000D02*
X9652000Y-9692000D01*
X9612000Y-9652000D02*
X9692000Y-9652000D01*
X9652000Y-9866000D02*
X9652000Y-9946000D01*
X9612000Y-9906000D02*
X9692000Y-9906000D01*
X7874000Y-5040000D02*
X7874000Y-5120000D01*
X7834000Y-5080000D02*
X7914000Y-5080000D01*
X7874000Y-5294000D02*
X7874000Y-5374000D01*
X7834000Y-5334000D02*
X7914000Y-5334000D01*
X7874000Y-5548000D02*
X7874000Y-5628000D01*
X7834000Y-5588000D02*
X7914000Y-5588000D01*
X7874000Y-5802000D02*
X7874000Y-5882000D01*
X7834000Y-5842000D02*
X7914000Y-5842000D01*
X7874000Y-6056000D02*
X7874000Y-6136000D01*
X7834000Y-6096000D02*
X7914000Y-6096000D01*
X7874000Y-6310000D02*
X7874000Y-6390000D01*
X7834000Y-6350000D02*
X7914000Y-6350000D01*
X7874000Y-6564000D02*
X7874000Y-6644000D01*
X7834000Y-6604000D02*
X7914000Y-6604000D01*
X7874000Y-6818000D02*
X7874000Y-6898000D01*
X7834000Y-6858000D02*
X7914000Y-6858000D01*
X7874000Y-7072000D02*
X7874000Y-7152000D01*
X7834000Y-7112000D02*
X7914000Y-7112000D01*
X7874000Y-7326000D02*
X7874000Y-7406000D01*
X7834000Y-7366000D02*
X7914000Y-7366000D01*
X7874000Y-7580000D02*
X7874000Y-7660000D01*
X7834000Y-7620000D02*
X7914000Y-7620000D01*
X7874000Y-7834000D02*
X7874000Y-7914000D01*
X7834000Y-7874000D02*
X7914000Y-7874000D01*
X7874000Y-8088000D02*
X7874000Y-8168000D01*
X7834000Y-8128000D02*
X7914000Y-8128000D01*
X7874000Y-8342000D02*
X7874000Y-8422000D01*
X7834000Y-8382000D02*
X7914000Y-8382000D01*
X7874000Y-8596000D02*
X7874000Y-8676000D01*
X7834000Y-8636000D02*
X7914000Y-8636000D01*
X7874000Y-8850000D02*
X7874000Y-8930000D01*
X7834000Y-8890000D02*
X7914000Y-8890000D01*
X7874000Y-9104000D02*
X7874000Y-9184000D01*
X7834000Y-9144000D02*
X7914000Y-9144000D01*
X7874000Y-9358000D02*
X7874000Y-9438000D01*
X7834000Y-9398000D02*
X7914000Y-9398000D01*
X7874000Y-9612000D02*
X7874000Y-9692000D01*
X7834000Y-9652000D02*
X7914000Y-9652000D01*
X7874000Y-9866000D02*
X7874000Y-9946000D01*
X7834000Y-9906000D02*
X7914000Y-9906000D01*
X9398000Y-5040000D02*
X9398000Y-5120000D01*
X9358000Y-5080000D02*
X9438000Y-5080000D01*
X9398000Y-5294000D02*
X9398000Y-5374000D01*
X9358000Y-5334000D02*
X9438000Y-5334000D01*
X9398000Y-5548000D02*
X9398000Y-5628000D01*
X9358000Y-5588000D02*
X9438000Y-5588000D01*
X9398000Y-5802000D02*
X9398000Y-5882000D01*
X9358000Y-5842000D02*
X9438000Y-5842000D01*
X9398000Y-6056000D02*
X9398000Y-6136000D01*
X9358000Y-6096000D02*
X9438000Y-6096000D01*
X9398000Y-6310000D02*
X9398000Y-6390000D01*
X9358000Y-6350000D02*
X9438000Y-6350000D01*
X9398000Y-6564000D02*
X9398000Y-6644000D01*
X9358000Y-6604000D02*
X9438000Y-6604000D01*
X9398000Y-6818000D02*
X9398000Y-6898000D01*
X9358000Y-6858000D02*
X9438000Y-6858000D01*
X9398000Y-7072000D02*
X9398000Y-7152000D01*
X9358000Y-7112000D02*
X9438000Y-7112000D01*
X9398000Y-7326000D02*
X9398000Y-7406000D01*
X9358000Y-7366000D02*
X9438000Y-7366000D01*
X9398000Y-7580000D02*
X9398000Y-7660000D01*
X9358000Y-7620000D02*
X9438000Y-7620000D01*
X9398000Y-7834000D02*
X9398000Y-7914000D01*
X9358000Y-7874000D02*
X9438000Y-7874000D01*
X9398000Y-8088000D02*
X9398000Y-8168000D01*
X9358000Y-8128000D02*
X9438000Y-8128000D01*
X9398000Y-8342000D02*
X9398000Y-8422000D01*
X9358000Y-8382000D02*
X9438000Y-8382000D01*
X9398000Y-8596000D02*
X9398000Y-8676000D01*
X9358000Y-8636000D02*
X9438000Y-8636000D01*
X9398000Y-8850000D02*
X9398000Y-8930000D01*
X9358000Y-8890000D02*
X9438000Y-8890000D01*
X9398000Y-9104000D02*
X9398000Y-9184000D01*
X9358000Y-9144000D02*
X9438000Y-9144000D01*
X9398000Y-9358000D02*
X9398000Y-9438000D01*
X9358000Y-9398000D02*
X9438000Y-9398000D01*
X9398000Y-9612000D02*
X9398000Y-9692000D01*
X9358000Y-9652000D02*
X9438000Y-9652000D01*
X9398000Y-9866000D02*
X9398000Y-9946000D01*
X9358000Y-9906000D02*
X9438000Y-9906000D01*
X8493556Y-5128056D02*
X8493556Y-5057344D01*
X8422844Y-5057344D01*
X8422844Y-5128056D01*
X8493556Y-5128056D01*
X8747556Y-5128056D02*
X8747556Y-5057344D01*
X8676844Y-5057344D01*
X8676844Y-5128056D01*
X8747556Y-5128056D01*
D12*
X8058328Y-10499214D02*
X8058328Y-10199214D01*
X8129757Y-10199214D01*
X8172614Y-10213500D01*
X8201186Y-10242072D01*
X8215471Y-10270643D01*
X8229757Y-10327786D01*
X8229757Y-10370643D01*
X8215471Y-10427786D01*
X8201186Y-10456357D01*
X8172614Y-10484929D01*
X8129757Y-10499214D01*
X8058328Y-10499214D01*
X8358328Y-10499214D02*
X8358328Y-10299214D01*
X8358328Y-10356357D02*
X8372614Y-10327786D01*
X8386900Y-10313500D01*
X8415471Y-10299214D01*
X8444043Y-10299214D01*
X8544043Y-10499214D02*
X8544043Y-10299214D01*
X8544043Y-10199214D02*
X8529757Y-10213500D01*
X8544043Y-10227786D01*
X8558328Y-10213500D01*
X8544043Y-10199214D01*
X8544043Y-10227786D01*
X8729757Y-10499214D02*
X8701186Y-10484929D01*
X8686900Y-10456357D01*
X8686900Y-10199214D01*
X8886900Y-10499214D02*
X8858328Y-10484929D01*
X8844043Y-10456357D01*
X8844043Y-10199214D01*
X9229757Y-10499214D02*
X9229757Y-10199214D01*
X9329757Y-10413500D01*
X9429757Y-10199214D01*
X9429757Y-10499214D01*
X9701186Y-10499214D02*
X9701186Y-10342072D01*
X9686900Y-10313500D01*
X9658328Y-10299214D01*
X9601186Y-10299214D01*
X9572614Y-10313500D01*
X9701186Y-10484929D02*
X9672614Y-10499214D01*
X9601186Y-10499214D01*
X9572614Y-10484929D01*
X9558328Y-10456357D01*
X9558328Y-10427786D01*
X9572614Y-10399214D01*
X9601186Y-10384929D01*
X9672614Y-10384929D01*
X9701186Y-10370643D01*
X9844043Y-10299214D02*
X9844043Y-10599214D01*
X9844043Y-10313500D02*
X9872614Y-10299214D01*
X9929757Y-10299214D01*
X9958328Y-10313500D01*
X9972614Y-10327786D01*
X9986900Y-10356357D01*
X9986900Y-10442072D01*
X9972614Y-10470643D01*
X9958328Y-10484929D01*
X9929757Y-10499214D01*
X9872614Y-10499214D01*
X9844043Y-10484929D01*
X10115471Y-10470643D02*
X10129757Y-10484929D01*
X10115471Y-10499214D01*
X10101186Y-10484929D01*
X10115471Y-10470643D01*
X10115471Y-10499214D01*
X10115471Y-10313500D02*
X10129757Y-10327786D01*
X10115471Y-10342072D01*
X10101186Y-10327786D01*
X10115471Y-10313500D01*
X10115471Y-10342072D01*
X7741900Y-10978500D02*
X7771900Y-11008500D01*
X7771900Y-10978500D02*
X7741900Y-11008500D01*
X8115471Y-10829214D02*
X8144043Y-10829214D01*
X8172614Y-10843500D01*
X8186900Y-10857786D01*
X8201186Y-10886357D01*
X8215471Y-10943500D01*
X8215471Y-11014929D01*
X8201186Y-11072072D01*
X8186900Y-11100643D01*
X8172614Y-11114929D01*
X8144043Y-11129214D01*
X8115471Y-11129214D01*
X8086900Y-11114929D01*
X8072614Y-11100643D01*
X8058328Y-11072072D01*
X8044043Y-11014929D01*
X8044043Y-10943500D01*
X8058328Y-10886357D01*
X8072614Y-10857786D01*
X8086900Y-10843500D01*
X8115471Y-10829214D01*
X8344043Y-11100643D02*
X8358328Y-11114929D01*
X8344043Y-11129214D01*
X8329757Y-11114929D01*
X8344043Y-11100643D01*
X8344043Y-11129214D01*
X8458328Y-10829214D02*
X8644043Y-10829214D01*
X8544043Y-10943500D01*
X8586900Y-10943500D01*
X8615471Y-10957786D01*
X8629757Y-10972072D01*
X8644043Y-11000643D01*
X8644043Y-11072072D01*
X8629757Y-11100643D01*
X8615471Y-11114929D01*
X8586900Y-11129214D01*
X8501186Y-11129214D01*
X8472614Y-11114929D01*
X8458328Y-11100643D01*
X8829757Y-10829214D02*
X8858328Y-10829214D01*
X8886900Y-10843500D01*
X8901186Y-10857786D01*
X8915471Y-10886357D01*
X8929757Y-10943500D01*
X8929757Y-11014929D01*
X8915471Y-11072072D01*
X8901186Y-11100643D01*
X8886900Y-11114929D01*
X8858328Y-11129214D01*
X8829757Y-11129214D01*
X8801186Y-11114929D01*
X8786900Y-11100643D01*
X8772614Y-11072072D01*
X8758328Y-11014929D01*
X8758328Y-10943500D01*
X8772614Y-10886357D01*
X8786900Y-10857786D01*
X8801186Y-10843500D01*
X8829757Y-10829214D01*
X9058328Y-11129214D02*
X9058328Y-10929214D01*
X9058328Y-10957786D02*
X9072614Y-10943500D01*
X9101186Y-10929214D01*
X9144043Y-10929214D01*
X9172614Y-10943500D01*
X9186900Y-10972072D01*
X9186900Y-11129214D01*
X9186900Y-10972072D02*
X9201186Y-10943500D01*
X9229757Y-10929214D01*
X9272614Y-10929214D01*
X9301186Y-10943500D01*
X9315471Y-10972072D01*
X9315471Y-11129214D01*
X9458328Y-11129214D02*
X9458328Y-10929214D01*
X9458328Y-10957786D02*
X9472614Y-10943500D01*
X9501186Y-10929214D01*
X9544043Y-10929214D01*
X9572614Y-10943500D01*
X9586900Y-10972072D01*
X9586900Y-11129214D01*
X9586900Y-10972072D02*
X9601186Y-10943500D01*
X9629757Y-10929214D01*
X9672614Y-10929214D01*
X9701186Y-10943500D01*
X9715471Y-10972072D01*
X9715471Y-11129214D01*
X10301186Y-10814929D02*
X10044043Y-11200643D01*
X10686900Y-10829214D02*
X10715471Y-10829214D01*
X10744043Y-10843500D01*
X10758328Y-10857786D01*
X10772614Y-10886357D01*
X10786900Y-10943500D01*
X10786900Y-11014929D01*
X10772614Y-11072072D01*
X10758328Y-11100643D01*
X10744043Y-11114929D01*
X10715471Y-11129214D01*
X10686900Y-11129214D01*
X10658328Y-11114929D01*
X10644043Y-11100643D01*
X10629757Y-11072072D01*
X10615471Y-11014929D01*
X10615471Y-10943500D01*
X10629757Y-10886357D01*
X10644043Y-10857786D01*
X10658328Y-10843500D01*
X10686900Y-10829214D01*
X10915471Y-11100643D02*
X10929757Y-11114929D01*
X10915471Y-11129214D01*
X10901186Y-11114929D01*
X10915471Y-11100643D01*
X10915471Y-11129214D01*
X11115471Y-10829214D02*
X11144043Y-10829214D01*
X11172614Y-10843500D01*
X11186900Y-10857786D01*
X11201186Y-10886357D01*
X11215471Y-10943500D01*
X11215471Y-11014929D01*
X11201186Y-11072072D01*
X11186900Y-11100643D01*
X11172614Y-11114929D01*
X11144043Y-11129214D01*
X11115471Y-11129214D01*
X11086900Y-11114929D01*
X11072614Y-11100643D01*
X11058328Y-11072072D01*
X11044043Y-11014929D01*
X11044043Y-10943500D01*
X11058328Y-10886357D01*
X11072614Y-10857786D01*
X11086900Y-10843500D01*
X11115471Y-10829214D01*
X11501186Y-11129214D02*
X11329757Y-11129214D01*
X11415471Y-11129214D02*
X11415471Y-10829214D01*
X11386900Y-10872072D01*
X11358328Y-10900643D01*
X11329757Y-10914929D01*
X11615471Y-10857786D02*
X11629757Y-10843500D01*
X11658328Y-10829214D01*
X11729757Y-10829214D01*
X11758328Y-10843500D01*
X11772614Y-10857786D01*
X11786900Y-10886357D01*
X11786900Y-10914929D01*
X11772614Y-10957786D01*
X11601186Y-11129214D01*
X11786900Y-11129214D01*
X11901186Y-10829214D02*
X11901186Y-10886357D01*
X12015471Y-10829214D02*
X12015471Y-10886357D01*
X12458328Y-11243500D02*
X12444043Y-11229214D01*
X12415471Y-11186357D01*
X12401186Y-11157786D01*
X12386900Y-11114929D01*
X12372614Y-11043500D01*
X12372614Y-10986357D01*
X12386900Y-10914929D01*
X12401186Y-10872072D01*
X12415471Y-10843500D01*
X12444043Y-10800643D01*
X12458328Y-10786357D01*
X12701186Y-10829214D02*
X12644043Y-10829214D01*
X12615471Y-10843500D01*
X12601186Y-10857786D01*
X12572614Y-10900643D01*
X12558328Y-10957786D01*
X12558328Y-11072072D01*
X12572614Y-11100643D01*
X12586900Y-11114929D01*
X12615471Y-11129214D01*
X12672614Y-11129214D01*
X12701186Y-11114929D01*
X12715471Y-11100643D01*
X12729757Y-11072072D01*
X12729757Y-11000643D01*
X12715471Y-10972072D01*
X12701186Y-10957786D01*
X12672614Y-10943500D01*
X12615471Y-10943500D01*
X12586900Y-10957786D01*
X12572614Y-10972072D01*
X12558328Y-11000643D01*
X13086900Y-11129214D02*
X13086900Y-10829214D01*
X13215471Y-11129214D02*
X13215471Y-10972072D01*
X13201186Y-10943500D01*
X13172614Y-10929214D01*
X13129757Y-10929214D01*
X13101186Y-10943500D01*
X13086900Y-10957786D01*
X13401186Y-11129214D02*
X13372614Y-11114929D01*
X13358328Y-11100643D01*
X13344043Y-11072072D01*
X13344043Y-10986357D01*
X13358328Y-10957786D01*
X13372614Y-10943500D01*
X13401186Y-10929214D01*
X13444043Y-10929214D01*
X13472614Y-10943500D01*
X13486900Y-10957786D01*
X13501186Y-10986357D01*
X13501186Y-11072072D01*
X13486900Y-11100643D01*
X13472614Y-11114929D01*
X13444043Y-11129214D01*
X13401186Y-11129214D01*
X13672614Y-11129214D02*
X13644043Y-11114929D01*
X13629757Y-11086357D01*
X13629757Y-10829214D01*
X13901186Y-11114929D02*
X13872614Y-11129214D01*
X13815471Y-11129214D01*
X13786900Y-11114929D01*
X13772614Y-11086357D01*
X13772614Y-10972072D01*
X13786900Y-10943500D01*
X13815471Y-10929214D01*
X13872614Y-10929214D01*
X13901186Y-10943500D01*
X13915471Y-10972072D01*
X13915471Y-11000643D01*
X13772614Y-11029214D01*
X14029757Y-11114929D02*
X14058328Y-11129214D01*
X14115471Y-11129214D01*
X14144043Y-11114929D01*
X14158328Y-11086357D01*
X14158328Y-11072072D01*
X14144043Y-11043500D01*
X14115471Y-11029214D01*
X14072614Y-11029214D01*
X14044043Y-11014929D01*
X14029757Y-10986357D01*
X14029757Y-10972072D01*
X14044043Y-10943500D01*
X14072614Y-10929214D01*
X14115471Y-10929214D01*
X14144043Y-10943500D01*
X14258328Y-11243500D02*
X14272614Y-11229214D01*
X14301186Y-11186357D01*
X14315471Y-11157786D01*
X14329757Y-11114929D01*
X14344043Y-11043500D01*
X14344043Y-10986357D01*
X14329757Y-10914929D01*
X14315471Y-10872072D01*
X14301186Y-10843500D01*
X14272614Y-10800643D01*
X14258328Y-10786357D01*
X7771900Y-11389500D02*
G75*
G03X7771900Y-11389500I-20000J0D01*
G01*
X8115471Y-11225214D02*
X8144043Y-11225214D01*
X8172614Y-11239500D01*
X8186900Y-11253786D01*
X8201186Y-11282357D01*
X8215471Y-11339500D01*
X8215471Y-11410929D01*
X8201186Y-11468071D01*
X8186900Y-11496643D01*
X8172614Y-11510929D01*
X8144043Y-11525214D01*
X8115471Y-11525214D01*
X8086900Y-11510929D01*
X8072614Y-11496643D01*
X8058328Y-11468071D01*
X8044043Y-11410929D01*
X8044043Y-11339500D01*
X8058328Y-11282357D01*
X8072614Y-11253786D01*
X8086900Y-11239500D01*
X8115471Y-11225214D01*
X8344043Y-11496643D02*
X8358328Y-11510929D01*
X8344043Y-11525214D01*
X8329757Y-11510929D01*
X8344043Y-11496643D01*
X8344043Y-11525214D01*
X8615471Y-11325214D02*
X8615471Y-11525214D01*
X8544043Y-11210929D02*
X8472614Y-11425214D01*
X8658328Y-11425214D01*
X8829757Y-11225214D02*
X8858328Y-11225214D01*
X8886900Y-11239500D01*
X8901186Y-11253786D01*
X8915471Y-11282357D01*
X8929757Y-11339500D01*
X8929757Y-11410929D01*
X8915471Y-11468071D01*
X8901186Y-11496643D01*
X8886900Y-11510929D01*
X8858328Y-11525214D01*
X8829757Y-11525214D01*
X8801186Y-11510929D01*
X8786900Y-11496643D01*
X8772614Y-11468071D01*
X8758328Y-11410929D01*
X8758328Y-11339500D01*
X8772614Y-11282357D01*
X8786900Y-11253786D01*
X8801186Y-11239500D01*
X8829757Y-11225214D01*
X9058328Y-11525214D02*
X9058328Y-11325214D01*
X9058328Y-11353786D02*
X9072614Y-11339500D01*
X9101186Y-11325214D01*
X9144043Y-11325214D01*
X9172614Y-11339500D01*
X9186900Y-11368071D01*
X9186900Y-11525214D01*
X9186900Y-11368071D02*
X9201186Y-11339500D01*
X9229757Y-11325214D01*
X9272614Y-11325214D01*
X9301186Y-11339500D01*
X9315471Y-11368071D01*
X9315471Y-11525214D01*
X9458328Y-11525214D02*
X9458328Y-11325214D01*
X9458328Y-11353786D02*
X9472614Y-11339500D01*
X9501186Y-11325214D01*
X9544043Y-11325214D01*
X9572614Y-11339500D01*
X9586900Y-11368071D01*
X9586900Y-11525214D01*
X9586900Y-11368071D02*
X9601186Y-11339500D01*
X9629757Y-11325214D01*
X9672614Y-11325214D01*
X9701186Y-11339500D01*
X9715471Y-11368071D01*
X9715471Y-11525214D01*
X10301186Y-11210929D02*
X10044043Y-11596643D01*
X10686900Y-11225214D02*
X10715471Y-11225214D01*
X10744043Y-11239500D01*
X10758328Y-11253786D01*
X10772614Y-11282357D01*
X10786900Y-11339500D01*
X10786900Y-11410929D01*
X10772614Y-11468071D01*
X10758328Y-11496643D01*
X10744043Y-11510929D01*
X10715471Y-11525214D01*
X10686900Y-11525214D01*
X10658328Y-11510929D01*
X10644043Y-11496643D01*
X10629757Y-11468071D01*
X10615471Y-11410929D01*
X10615471Y-11339500D01*
X10629757Y-11282357D01*
X10644043Y-11253786D01*
X10658328Y-11239500D01*
X10686900Y-11225214D01*
X10915471Y-11496643D02*
X10929757Y-11510929D01*
X10915471Y-11525214D01*
X10901186Y-11510929D01*
X10915471Y-11496643D01*
X10915471Y-11525214D01*
X11115471Y-11225214D02*
X11144043Y-11225214D01*
X11172614Y-11239500D01*
X11186900Y-11253786D01*
X11201186Y-11282357D01*
X11215471Y-11339500D01*
X11215471Y-11410929D01*
X11201186Y-11468071D01*
X11186900Y-11496643D01*
X11172614Y-11510929D01*
X11144043Y-11525214D01*
X11115471Y-11525214D01*
X11086900Y-11510929D01*
X11072614Y-11496643D01*
X11058328Y-11468071D01*
X11044043Y-11410929D01*
X11044043Y-11339500D01*
X11058328Y-11282357D01*
X11072614Y-11253786D01*
X11086900Y-11239500D01*
X11115471Y-11225214D01*
X11501186Y-11525214D02*
X11329757Y-11525214D01*
X11415471Y-11525214D02*
X11415471Y-11225214D01*
X11386900Y-11268071D01*
X11358328Y-11296643D01*
X11329757Y-11310929D01*
X11758328Y-11225214D02*
X11701186Y-11225214D01*
X11672614Y-11239500D01*
X11658328Y-11253786D01*
X11629757Y-11296643D01*
X11615471Y-11353786D01*
X11615471Y-11468071D01*
X11629757Y-11496643D01*
X11644043Y-11510929D01*
X11672614Y-11525214D01*
X11729757Y-11525214D01*
X11758328Y-11510929D01*
X11772614Y-11496643D01*
X11786900Y-11468071D01*
X11786900Y-11396643D01*
X11772614Y-11368071D01*
X11758328Y-11353786D01*
X11729757Y-11339500D01*
X11672614Y-11339500D01*
X11644043Y-11353786D01*
X11629757Y-11368071D01*
X11615471Y-11396643D01*
X11901186Y-11225214D02*
X11901186Y-11282357D01*
X12015471Y-11225214D02*
X12015471Y-11282357D01*
X12458328Y-11639500D02*
X12444043Y-11625214D01*
X12415471Y-11582357D01*
X12401186Y-11553786D01*
X12386900Y-11510929D01*
X12372614Y-11439500D01*
X12372614Y-11382357D01*
X12386900Y-11310929D01*
X12401186Y-11268071D01*
X12415471Y-11239500D01*
X12444043Y-11196643D01*
X12458328Y-11182357D01*
X12701186Y-11325214D02*
X12701186Y-11525214D01*
X12629757Y-11210929D02*
X12558328Y-11425214D01*
X12744043Y-11425214D01*
X13086900Y-11525214D02*
X13086900Y-11225214D01*
X13215471Y-11525214D02*
X13215471Y-11368071D01*
X13201186Y-11339500D01*
X13172614Y-11325214D01*
X13129757Y-11325214D01*
X13101186Y-11339500D01*
X13086900Y-11353786D01*
X13401186Y-11525214D02*
X13372614Y-11510929D01*
X13358328Y-11496643D01*
X13344043Y-11468071D01*
X13344043Y-11382357D01*
X13358328Y-11353786D01*
X13372614Y-11339500D01*
X13401186Y-11325214D01*
X13444043Y-11325214D01*
X13472614Y-11339500D01*
X13486900Y-11353786D01*
X13501186Y-11382357D01*
X13501186Y-11468071D01*
X13486900Y-11496643D01*
X13472614Y-11510929D01*
X13444043Y-11525214D01*
X13401186Y-11525214D01*
X13672614Y-11525214D02*
X13644043Y-11510929D01*
X13629757Y-11482357D01*
X13629757Y-11225214D01*
X13901186Y-11510929D02*
X13872614Y-11525214D01*
X13815471Y-11525214D01*
X13786900Y-11510929D01*
X13772614Y-11482357D01*
X13772614Y-11368071D01*
X13786900Y-11339500D01*
X13815471Y-11325214D01*
X13872614Y-11325214D01*
X13901186Y-11339500D01*
X13915471Y-11368071D01*
X13915471Y-11396643D01*
X13772614Y-11425214D01*
X14029757Y-11510929D02*
X14058328Y-11525214D01*
X14115471Y-11525214D01*
X14144043Y-11510929D01*
X14158328Y-11482357D01*
X14158328Y-11468071D01*
X14144043Y-11439500D01*
X14115471Y-11425214D01*
X14072614Y-11425214D01*
X14044043Y-11410929D01*
X14029757Y-11382357D01*
X14029757Y-11368071D01*
X14044043Y-11339500D01*
X14072614Y-11325214D01*
X14115471Y-11325214D01*
X14144043Y-11339500D01*
X14258328Y-11639500D02*
X14272614Y-11625214D01*
X14301186Y-11582357D01*
X14315471Y-11553786D01*
X14329757Y-11510929D01*
X14344043Y-11439500D01*
X14344043Y-11382357D01*
X14329757Y-11310929D01*
X14315471Y-11268071D01*
X14301186Y-11239500D01*
X14272614Y-11196643D01*
X14258328Y-11182357D01*
X7731900Y-11745500D02*
X7731900Y-11825500D01*
X7691900Y-11785500D02*
X7771900Y-11785500D01*
X8115471Y-11621214D02*
X8144043Y-11621214D01*
X8172614Y-11635500D01*
X8186900Y-11649786D01*
X8201186Y-11678357D01*
X8215471Y-11735500D01*
X8215471Y-11806929D01*
X8201186Y-11864071D01*
X8186900Y-11892643D01*
X8172614Y-11906929D01*
X8144043Y-11921214D01*
X8115471Y-11921214D01*
X8086900Y-11906929D01*
X8072614Y-11892643D01*
X8058328Y-11864071D01*
X8044043Y-11806929D01*
X8044043Y-11735500D01*
X8058328Y-11678357D01*
X8072614Y-11649786D01*
X8086900Y-11635500D01*
X8115471Y-11621214D01*
X8344043Y-11892643D02*
X8358328Y-11906929D01*
X8344043Y-11921214D01*
X8329757Y-11906929D01*
X8344043Y-11892643D01*
X8344043Y-11921214D01*
X8529757Y-11749786D02*
X8501186Y-11735500D01*
X8486900Y-11721214D01*
X8472614Y-11692643D01*
X8472614Y-11678357D01*
X8486900Y-11649786D01*
X8501186Y-11635500D01*
X8529757Y-11621214D01*
X8586900Y-11621214D01*
X8615471Y-11635500D01*
X8629757Y-11649786D01*
X8644043Y-11678357D01*
X8644043Y-11692643D01*
X8629757Y-11721214D01*
X8615471Y-11735500D01*
X8586900Y-11749786D01*
X8529757Y-11749786D01*
X8501186Y-11764071D01*
X8486900Y-11778357D01*
X8472614Y-11806929D01*
X8472614Y-11864071D01*
X8486900Y-11892643D01*
X8501186Y-11906929D01*
X8529757Y-11921214D01*
X8586900Y-11921214D01*
X8615471Y-11906929D01*
X8629757Y-11892643D01*
X8644043Y-11864071D01*
X8644043Y-11806929D01*
X8629757Y-11778357D01*
X8615471Y-11764071D01*
X8586900Y-11749786D01*
X8829757Y-11621214D02*
X8858328Y-11621214D01*
X8886900Y-11635500D01*
X8901186Y-11649786D01*
X8915471Y-11678357D01*
X8929757Y-11735500D01*
X8929757Y-11806929D01*
X8915471Y-11864071D01*
X8901186Y-11892643D01*
X8886900Y-11906929D01*
X8858328Y-11921214D01*
X8829757Y-11921214D01*
X8801186Y-11906929D01*
X8786900Y-11892643D01*
X8772614Y-11864071D01*
X8758328Y-11806929D01*
X8758328Y-11735500D01*
X8772614Y-11678357D01*
X8786900Y-11649786D01*
X8801186Y-11635500D01*
X8829757Y-11621214D01*
X9058328Y-11921214D02*
X9058328Y-11721214D01*
X9058328Y-11749786D02*
X9072614Y-11735500D01*
X9101186Y-11721214D01*
X9144043Y-11721214D01*
X9172614Y-11735500D01*
X9186900Y-11764071D01*
X9186900Y-11921214D01*
X9186900Y-11764071D02*
X9201186Y-11735500D01*
X9229757Y-11721214D01*
X9272614Y-11721214D01*
X9301186Y-11735500D01*
X9315471Y-11764071D01*
X9315471Y-11921214D01*
X9458328Y-11921214D02*
X9458328Y-11721214D01*
X9458328Y-11749786D02*
X9472614Y-11735500D01*
X9501186Y-11721214D01*
X9544043Y-11721214D01*
X9572614Y-11735500D01*
X9586900Y-11764071D01*
X9586900Y-11921214D01*
X9586900Y-11764071D02*
X9601186Y-11735500D01*
X9629757Y-11721214D01*
X9672614Y-11721214D01*
X9701186Y-11735500D01*
X9715471Y-11764071D01*
X9715471Y-11921214D01*
X10301186Y-11606929D02*
X10044043Y-11992643D01*
X10686900Y-11621214D02*
X10715471Y-11621214D01*
X10744043Y-11635500D01*
X10758328Y-11649786D01*
X10772614Y-11678357D01*
X10786900Y-11735500D01*
X10786900Y-11806929D01*
X10772614Y-11864071D01*
X10758328Y-11892643D01*
X10744043Y-11906929D01*
X10715471Y-11921214D01*
X10686900Y-11921214D01*
X10658328Y-11906929D01*
X10644043Y-11892643D01*
X10629757Y-11864071D01*
X10615471Y-11806929D01*
X10615471Y-11735500D01*
X10629757Y-11678357D01*
X10644043Y-11649786D01*
X10658328Y-11635500D01*
X10686900Y-11621214D01*
X10915471Y-11892643D02*
X10929757Y-11906929D01*
X10915471Y-11921214D01*
X10901186Y-11906929D01*
X10915471Y-11892643D01*
X10915471Y-11921214D01*
X11115471Y-11621214D02*
X11144043Y-11621214D01*
X11172614Y-11635500D01*
X11186900Y-11649786D01*
X11201186Y-11678357D01*
X11215471Y-11735500D01*
X11215471Y-11806929D01*
X11201186Y-11864071D01*
X11186900Y-11892643D01*
X11172614Y-11906929D01*
X11144043Y-11921214D01*
X11115471Y-11921214D01*
X11086900Y-11906929D01*
X11072614Y-11892643D01*
X11058328Y-11864071D01*
X11044043Y-11806929D01*
X11044043Y-11735500D01*
X11058328Y-11678357D01*
X11072614Y-11649786D01*
X11086900Y-11635500D01*
X11115471Y-11621214D01*
X11315471Y-11621214D02*
X11501186Y-11621214D01*
X11401186Y-11735500D01*
X11444043Y-11735500D01*
X11472614Y-11749786D01*
X11486900Y-11764071D01*
X11501186Y-11792643D01*
X11501186Y-11864071D01*
X11486900Y-11892643D01*
X11472614Y-11906929D01*
X11444043Y-11921214D01*
X11358328Y-11921214D01*
X11329757Y-11906929D01*
X11315471Y-11892643D01*
X11786900Y-11921214D02*
X11615471Y-11921214D01*
X11701186Y-11921214D02*
X11701186Y-11621214D01*
X11672614Y-11664071D01*
X11644043Y-11692643D01*
X11615471Y-11706929D01*
X11901186Y-11621214D02*
X11901186Y-11678357D01*
X12015471Y-11621214D02*
X12015471Y-11678357D01*
X12458328Y-12035500D02*
X12444043Y-12021214D01*
X12415471Y-11978357D01*
X12401186Y-11949786D01*
X12386900Y-11906929D01*
X12372614Y-11835500D01*
X12372614Y-11778357D01*
X12386900Y-11706929D01*
X12401186Y-11664071D01*
X12415471Y-11635500D01*
X12444043Y-11592643D01*
X12458328Y-11578357D01*
X12615471Y-11749786D02*
X12586900Y-11735500D01*
X12572614Y-11721214D01*
X12558328Y-11692643D01*
X12558328Y-11678357D01*
X12572614Y-11649786D01*
X12586900Y-11635500D01*
X12615471Y-11621214D01*
X12672614Y-11621214D01*
X12701186Y-11635500D01*
X12715471Y-11649786D01*
X12729757Y-11678357D01*
X12729757Y-11692643D01*
X12715471Y-11721214D01*
X12701186Y-11735500D01*
X12672614Y-11749786D01*
X12615471Y-11749786D01*
X12586900Y-11764071D01*
X12572614Y-11778357D01*
X12558328Y-11806929D01*
X12558328Y-11864071D01*
X12572614Y-11892643D01*
X12586900Y-11906929D01*
X12615471Y-11921214D01*
X12672614Y-11921214D01*
X12701186Y-11906929D01*
X12715471Y-11892643D01*
X12729757Y-11864071D01*
X12729757Y-11806929D01*
X12715471Y-11778357D01*
X12701186Y-11764071D01*
X12672614Y-11749786D01*
X12915471Y-11621214D02*
X12944043Y-11621214D01*
X12972614Y-11635500D01*
X12986900Y-11649786D01*
X13001186Y-11678357D01*
X13015471Y-11735500D01*
X13015471Y-11806929D01*
X13001186Y-11864071D01*
X12986900Y-11892643D01*
X12972614Y-11906929D01*
X12944043Y-11921214D01*
X12915471Y-11921214D01*
X12886900Y-11906929D01*
X12872614Y-11892643D01*
X12858328Y-11864071D01*
X12844043Y-11806929D01*
X12844043Y-11735500D01*
X12858328Y-11678357D01*
X12872614Y-11649786D01*
X12886900Y-11635500D01*
X12915471Y-11621214D01*
X13372614Y-11921214D02*
X13372614Y-11621214D01*
X13501186Y-11921214D02*
X13501186Y-11764071D01*
X13486900Y-11735500D01*
X13458328Y-11721214D01*
X13415471Y-11721214D01*
X13386900Y-11735500D01*
X13372614Y-11749786D01*
X13686900Y-11921214D02*
X13658328Y-11906929D01*
X13644043Y-11892643D01*
X13629757Y-11864071D01*
X13629757Y-11778357D01*
X13644043Y-11749786D01*
X13658328Y-11735500D01*
X13686900Y-11721214D01*
X13729757Y-11721214D01*
X13758328Y-11735500D01*
X13772614Y-11749786D01*
X13786900Y-11778357D01*
X13786900Y-11864071D01*
X13772614Y-11892643D01*
X13758328Y-11906929D01*
X13729757Y-11921214D01*
X13686900Y-11921214D01*
X13958328Y-11921214D02*
X13929757Y-11906929D01*
X13915471Y-11878357D01*
X13915471Y-11621214D01*
X14186900Y-11906929D02*
X14158328Y-11921214D01*
X14101186Y-11921214D01*
X14072614Y-11906929D01*
X14058328Y-11878357D01*
X14058328Y-11764071D01*
X14072614Y-11735500D01*
X14101186Y-11721214D01*
X14158328Y-11721214D01*
X14186900Y-11735500D01*
X14201186Y-11764071D01*
X14201186Y-11792643D01*
X14058328Y-11821214D01*
X14315471Y-11906929D02*
X14344043Y-11921214D01*
X14401186Y-11921214D01*
X14429757Y-11906929D01*
X14444043Y-11878357D01*
X14444043Y-11864071D01*
X14429757Y-11835500D01*
X14401186Y-11821214D01*
X14358328Y-11821214D01*
X14329757Y-11806929D01*
X14315471Y-11778357D01*
X14315471Y-11764071D01*
X14329757Y-11735500D01*
X14358328Y-11721214D01*
X14401186Y-11721214D01*
X14429757Y-11735500D01*
X14544043Y-12035500D02*
X14558328Y-12021214D01*
X14586900Y-11978357D01*
X14601186Y-11949786D01*
X14615471Y-11906929D01*
X14629757Y-11835500D01*
X14629757Y-11778357D01*
X14615471Y-11706929D01*
X14601186Y-11664071D01*
X14586900Y-11635500D01*
X14558328Y-11592643D01*
X14544043Y-11578357D01*
X7757256Y-12216856D02*
X7757256Y-12146144D01*
X7686544Y-12146144D01*
X7686544Y-12216856D01*
X7757256Y-12216856D01*
X8215471Y-12317214D02*
X8044043Y-12317214D01*
X8129757Y-12317214D02*
X8129757Y-12017214D01*
X8101186Y-12060071D01*
X8072614Y-12088643D01*
X8044043Y-12102929D01*
X8344043Y-12288643D02*
X8358328Y-12302929D01*
X8344043Y-12317214D01*
X8329757Y-12302929D01*
X8344043Y-12288643D01*
X8344043Y-12317214D01*
X8544043Y-12017214D02*
X8572614Y-12017214D01*
X8601186Y-12031500D01*
X8615471Y-12045786D01*
X8629757Y-12074357D01*
X8644043Y-12131500D01*
X8644043Y-12202929D01*
X8629757Y-12260071D01*
X8615471Y-12288643D01*
X8601186Y-12302929D01*
X8572614Y-12317214D01*
X8544043Y-12317214D01*
X8515471Y-12302929D01*
X8501186Y-12288643D01*
X8486900Y-12260071D01*
X8472614Y-12202929D01*
X8472614Y-12131500D01*
X8486900Y-12074357D01*
X8501186Y-12045786D01*
X8515471Y-12031500D01*
X8544043Y-12017214D01*
X8829757Y-12017214D02*
X8858328Y-12017214D01*
X8886900Y-12031500D01*
X8901186Y-12045786D01*
X8915471Y-12074357D01*
X8929757Y-12131500D01*
X8929757Y-12202929D01*
X8915471Y-12260071D01*
X8901186Y-12288643D01*
X8886900Y-12302929D01*
X8858328Y-12317214D01*
X8829757Y-12317214D01*
X8801186Y-12302929D01*
X8786900Y-12288643D01*
X8772614Y-12260071D01*
X8758328Y-12202929D01*
X8758328Y-12131500D01*
X8772614Y-12074357D01*
X8786900Y-12045786D01*
X8801186Y-12031500D01*
X8829757Y-12017214D01*
X9058328Y-12317214D02*
X9058328Y-12117214D01*
X9058328Y-12145786D02*
X9072614Y-12131500D01*
X9101186Y-12117214D01*
X9144043Y-12117214D01*
X9172614Y-12131500D01*
X9186900Y-12160071D01*
X9186900Y-12317214D01*
X9186900Y-12160071D02*
X9201186Y-12131500D01*
X9229757Y-12117214D01*
X9272614Y-12117214D01*
X9301186Y-12131500D01*
X9315471Y-12160071D01*
X9315471Y-12317214D01*
X9458328Y-12317214D02*
X9458328Y-12117214D01*
X9458328Y-12145786D02*
X9472614Y-12131500D01*
X9501186Y-12117214D01*
X9544043Y-12117214D01*
X9572614Y-12131500D01*
X9586900Y-12160071D01*
X9586900Y-12317214D01*
X9586900Y-12160071D02*
X9601186Y-12131500D01*
X9629757Y-12117214D01*
X9672614Y-12117214D01*
X9701186Y-12131500D01*
X9715471Y-12160071D01*
X9715471Y-12317214D01*
X10301186Y-12002929D02*
X10044043Y-12388643D01*
X10686900Y-12017214D02*
X10715471Y-12017214D01*
X10744043Y-12031500D01*
X10758328Y-12045786D01*
X10772614Y-12074357D01*
X10786900Y-12131500D01*
X10786900Y-12202929D01*
X10772614Y-12260071D01*
X10758328Y-12288643D01*
X10744043Y-12302929D01*
X10715471Y-12317214D01*
X10686900Y-12317214D01*
X10658328Y-12302929D01*
X10644043Y-12288643D01*
X10629757Y-12260071D01*
X10615471Y-12202929D01*
X10615471Y-12131500D01*
X10629757Y-12074357D01*
X10644043Y-12045786D01*
X10658328Y-12031500D01*
X10686900Y-12017214D01*
X10915471Y-12288643D02*
X10929757Y-12302929D01*
X10915471Y-12317214D01*
X10901186Y-12302929D01*
X10915471Y-12288643D01*
X10915471Y-12317214D01*
X11115471Y-12017214D02*
X11144043Y-12017214D01*
X11172614Y-12031500D01*
X11186900Y-12045786D01*
X11201186Y-12074357D01*
X11215471Y-12131500D01*
X11215471Y-12202929D01*
X11201186Y-12260071D01*
X11186900Y-12288643D01*
X11172614Y-12302929D01*
X11144043Y-12317214D01*
X11115471Y-12317214D01*
X11086900Y-12302929D01*
X11072614Y-12288643D01*
X11058328Y-12260071D01*
X11044043Y-12202929D01*
X11044043Y-12131500D01*
X11058328Y-12074357D01*
X11072614Y-12045786D01*
X11086900Y-12031500D01*
X11115471Y-12017214D01*
X11315471Y-12017214D02*
X11501186Y-12017214D01*
X11401186Y-12131500D01*
X11444043Y-12131500D01*
X11472614Y-12145786D01*
X11486900Y-12160071D01*
X11501186Y-12188643D01*
X11501186Y-12260071D01*
X11486900Y-12288643D01*
X11472614Y-12302929D01*
X11444043Y-12317214D01*
X11358328Y-12317214D01*
X11329757Y-12302929D01*
X11315471Y-12288643D01*
X11644043Y-12317214D02*
X11701186Y-12317214D01*
X11729757Y-12302929D01*
X11744043Y-12288643D01*
X11772614Y-12245786D01*
X11786900Y-12188643D01*
X11786900Y-12074357D01*
X11772614Y-12045786D01*
X11758328Y-12031500D01*
X11729757Y-12017214D01*
X11672614Y-12017214D01*
X11644043Y-12031500D01*
X11629757Y-12045786D01*
X11615471Y-12074357D01*
X11615471Y-12145786D01*
X11629757Y-12174357D01*
X11644043Y-12188643D01*
X11672614Y-12202929D01*
X11729757Y-12202929D01*
X11758328Y-12188643D01*
X11772614Y-12174357D01*
X11786900Y-12145786D01*
X11901186Y-12017214D02*
X11901186Y-12074357D01*
X12015471Y-12017214D02*
X12015471Y-12074357D01*
X12458328Y-12431500D02*
X12444043Y-12417214D01*
X12415471Y-12374357D01*
X12401186Y-12345786D01*
X12386900Y-12302929D01*
X12372614Y-12231500D01*
X12372614Y-12174357D01*
X12386900Y-12102929D01*
X12401186Y-12060071D01*
X12415471Y-12031500D01*
X12444043Y-11988643D01*
X12458328Y-11974357D01*
X12558328Y-12045786D02*
X12572614Y-12031500D01*
X12601186Y-12017214D01*
X12672614Y-12017214D01*
X12701186Y-12031500D01*
X12715471Y-12045786D01*
X12729757Y-12074357D01*
X12729757Y-12102929D01*
X12715471Y-12145786D01*
X12544043Y-12317214D01*
X12729757Y-12317214D01*
X13086900Y-12317214D02*
X13086900Y-12017214D01*
X13215471Y-12317214D02*
X13215471Y-12160071D01*
X13201186Y-12131500D01*
X13172614Y-12117214D01*
X13129757Y-12117214D01*
X13101186Y-12131500D01*
X13086900Y-12145786D01*
X13401186Y-12317214D02*
X13372614Y-12302929D01*
X13358328Y-12288643D01*
X13344043Y-12260071D01*
X13344043Y-12174357D01*
X13358328Y-12145786D01*
X13372614Y-12131500D01*
X13401186Y-12117214D01*
X13444043Y-12117214D01*
X13472614Y-12131500D01*
X13486900Y-12145786D01*
X13501186Y-12174357D01*
X13501186Y-12260071D01*
X13486900Y-12288643D01*
X13472614Y-12302929D01*
X13444043Y-12317214D01*
X13401186Y-12317214D01*
X13672614Y-12317214D02*
X13644043Y-12302929D01*
X13629757Y-12274357D01*
X13629757Y-12017214D01*
X13901186Y-12302929D02*
X13872614Y-12317214D01*
X13815471Y-12317214D01*
X13786900Y-12302929D01*
X13772614Y-12274357D01*
X13772614Y-12160071D01*
X13786900Y-12131500D01*
X13815471Y-12117214D01*
X13872614Y-12117214D01*
X13901186Y-12131500D01*
X13915471Y-12160071D01*
X13915471Y-12188643D01*
X13772614Y-12217214D01*
X14029757Y-12302929D02*
X14058328Y-12317214D01*
X14115471Y-12317214D01*
X14144043Y-12302929D01*
X14158328Y-12274357D01*
X14158328Y-12260071D01*
X14144043Y-12231500D01*
X14115471Y-12217214D01*
X14072614Y-12217214D01*
X14044043Y-12202929D01*
X14029757Y-12174357D01*
X14029757Y-12160071D01*
X14044043Y-12131500D01*
X14072614Y-12117214D01*
X14115471Y-12117214D01*
X14144043Y-12131500D01*
X14258328Y-12431500D02*
X14272614Y-12417214D01*
X14301186Y-12374357D01*
X14315471Y-12345786D01*
X14329757Y-12302929D01*
X14344043Y-12231500D01*
X14344043Y-12174357D01*
X14329757Y-12102929D01*
X14315471Y-12060071D01*
X14301186Y-12031500D01*
X14272614Y-11988643D01*
X14258328Y-11974357D01*
M02*
