G04 #@! TF.GenerationSoftware,KiCad,Pcbnew,(5.1.5)-3*
G04 #@! TF.CreationDate,2020-06-08T21:20:55-04:00*
G04 #@! TF.ProjectId,dip14soic,64697031-3473-46f6-9963-2e6b69636164,rev?*
G04 #@! TF.SameCoordinates,Original*
G04 #@! TF.FileFunction,Legend,Top*
G04 #@! TF.FilePolarity,Positive*
%FSLAX46Y46*%
G04 Gerber Fmt 4.6, Leading zero omitted, Abs format (unit mm)*
G04 Created by KiCad (PCBNEW (5.1.5)-3) date 2020-06-08 21:20:55*
%MOMM*%
%LPD*%
G04 APERTURE LIST*
%ADD10C,0.120000*%
%ADD11C,0.150000*%
G04 APERTURE END LIST*
D10*
X111490000Y-69790000D02*
G75*
G02X109490000Y-69790000I-1000000J0D01*
G01*
X109490000Y-69790000D02*
X107840000Y-69790000D01*
X107840000Y-69790000D02*
X107840000Y-87690000D01*
X107840000Y-87690000D02*
X113140000Y-87690000D01*
X113140000Y-87690000D02*
X113140000Y-69790000D01*
X113140000Y-69790000D02*
X111490000Y-69790000D01*
X114300000Y-83175000D02*
X116250000Y-83175000D01*
X114300000Y-83175000D02*
X112350000Y-83175000D01*
X114300000Y-74305000D02*
X116250000Y-74305000D01*
X114300000Y-74305000D02*
X110850000Y-74305000D01*
D11*
X109728095Y-68242380D02*
X109728095Y-69051904D01*
X109775714Y-69147142D01*
X109823333Y-69194761D01*
X109918571Y-69242380D01*
X110109047Y-69242380D01*
X110204285Y-69194761D01*
X110251904Y-69147142D01*
X110299523Y-69051904D01*
X110299523Y-68242380D01*
X111299523Y-69242380D02*
X110728095Y-69242380D01*
X111013809Y-69242380D02*
X111013809Y-68242380D01*
X110918571Y-68385238D01*
X110823333Y-68480476D01*
X110728095Y-68528095D01*
X114427095Y-68286380D02*
X114427095Y-69095904D01*
X114474714Y-69191142D01*
X114522333Y-69238761D01*
X114617571Y-69286380D01*
X114808047Y-69286380D01*
X114903285Y-69238761D01*
X114950904Y-69191142D01*
X114998523Y-69095904D01*
X114998523Y-68286380D01*
X115427095Y-68381619D02*
X115474714Y-68334000D01*
X115569952Y-68286380D01*
X115808047Y-68286380D01*
X115903285Y-68334000D01*
X115950904Y-68381619D01*
X115998523Y-68476857D01*
X115998523Y-68572095D01*
X115950904Y-68714952D01*
X115379476Y-69286380D01*
X115998523Y-69286380D01*
M02*
