G04 #@! TF.GenerationSoftware,KiCad,Pcbnew,(5.1.5)-3*
G04 #@! TF.CreationDate,2020-06-08T21:20:55-04:00*
G04 #@! TF.ProjectId,dip14soic,64697031-3473-46f6-9963-2e6b69636164,rev?*
G04 #@! TF.SameCoordinates,Original*
G04 #@! TF.FileFunction,Copper,L2,Bot*
G04 #@! TF.FilePolarity,Positive*
%FSLAX46Y46*%
G04 Gerber Fmt 4.6, Leading zero omitted, Abs format (unit mm)*
G04 Created by KiCad (PCBNEW (5.1.5)-3) date 2020-06-08 21:20:55*
%MOMM*%
%LPD*%
G04 APERTURE LIST*
%ADD10R,1.600000X1.600000*%
%ADD11O,1.600000X1.600000*%
%ADD12C,0.100000*%
%ADD13C,0.800000*%
%ADD14C,0.600000*%
%ADD15C,0.254000*%
G04 APERTURE END LIST*
D10*
X106680000Y-71120000D03*
D11*
X114300000Y-86360000D03*
X106680000Y-73660000D03*
X114300000Y-83820000D03*
X106680000Y-76200000D03*
X114300000Y-81280000D03*
X106680000Y-78740000D03*
X114300000Y-78740000D03*
X106680000Y-81280000D03*
X114300000Y-76200000D03*
X106680000Y-83820000D03*
X114300000Y-73660000D03*
X106680000Y-86360000D03*
X114300000Y-71120000D03*
G04 #@! TA.AperFunction,SMDPad,CuDef*
D12*
G36*
X110202505Y-70537204D02*
G01*
X110226773Y-70540804D01*
X110250572Y-70546765D01*
X110273671Y-70555030D01*
X110295850Y-70565520D01*
X110316893Y-70578132D01*
X110336599Y-70592747D01*
X110354777Y-70609223D01*
X110371253Y-70627401D01*
X110385868Y-70647107D01*
X110398480Y-70668150D01*
X110408970Y-70690329D01*
X110417235Y-70713428D01*
X110423196Y-70737227D01*
X110426796Y-70761495D01*
X110428000Y-70785999D01*
X110428000Y-71436001D01*
X110426796Y-71460505D01*
X110423196Y-71484773D01*
X110417235Y-71508572D01*
X110408970Y-71531671D01*
X110398480Y-71553850D01*
X110385868Y-71574893D01*
X110371253Y-71594599D01*
X110354777Y-71612777D01*
X110336599Y-71629253D01*
X110316893Y-71643868D01*
X110295850Y-71656480D01*
X110273671Y-71666970D01*
X110250572Y-71675235D01*
X110226773Y-71681196D01*
X110202505Y-71684796D01*
X110178001Y-71686000D01*
X109277999Y-71686000D01*
X109253495Y-71684796D01*
X109229227Y-71681196D01*
X109205428Y-71675235D01*
X109182329Y-71666970D01*
X109160150Y-71656480D01*
X109139107Y-71643868D01*
X109119401Y-71629253D01*
X109101223Y-71612777D01*
X109084747Y-71594599D01*
X109070132Y-71574893D01*
X109057520Y-71553850D01*
X109047030Y-71531671D01*
X109038765Y-71508572D01*
X109032804Y-71484773D01*
X109029204Y-71460505D01*
X109028000Y-71436001D01*
X109028000Y-70785999D01*
X109029204Y-70761495D01*
X109032804Y-70737227D01*
X109038765Y-70713428D01*
X109047030Y-70690329D01*
X109057520Y-70668150D01*
X109070132Y-70647107D01*
X109084747Y-70627401D01*
X109101223Y-70609223D01*
X109119401Y-70592747D01*
X109139107Y-70578132D01*
X109160150Y-70565520D01*
X109182329Y-70555030D01*
X109205428Y-70546765D01*
X109229227Y-70540804D01*
X109253495Y-70537204D01*
X109277999Y-70536000D01*
X110178001Y-70536000D01*
X110202505Y-70537204D01*
G37*
G04 #@! TD.AperFunction*
G04 #@! TA.AperFunction,SMDPad,CuDef*
G36*
X110202505Y-72587204D02*
G01*
X110226773Y-72590804D01*
X110250572Y-72596765D01*
X110273671Y-72605030D01*
X110295850Y-72615520D01*
X110316893Y-72628132D01*
X110336599Y-72642747D01*
X110354777Y-72659223D01*
X110371253Y-72677401D01*
X110385868Y-72697107D01*
X110398480Y-72718150D01*
X110408970Y-72740329D01*
X110417235Y-72763428D01*
X110423196Y-72787227D01*
X110426796Y-72811495D01*
X110428000Y-72835999D01*
X110428000Y-73486001D01*
X110426796Y-73510505D01*
X110423196Y-73534773D01*
X110417235Y-73558572D01*
X110408970Y-73581671D01*
X110398480Y-73603850D01*
X110385868Y-73624893D01*
X110371253Y-73644599D01*
X110354777Y-73662777D01*
X110336599Y-73679253D01*
X110316893Y-73693868D01*
X110295850Y-73706480D01*
X110273671Y-73716970D01*
X110250572Y-73725235D01*
X110226773Y-73731196D01*
X110202505Y-73734796D01*
X110178001Y-73736000D01*
X109277999Y-73736000D01*
X109253495Y-73734796D01*
X109229227Y-73731196D01*
X109205428Y-73725235D01*
X109182329Y-73716970D01*
X109160150Y-73706480D01*
X109139107Y-73693868D01*
X109119401Y-73679253D01*
X109101223Y-73662777D01*
X109084747Y-73644599D01*
X109070132Y-73624893D01*
X109057520Y-73603850D01*
X109047030Y-73581671D01*
X109038765Y-73558572D01*
X109032804Y-73534773D01*
X109029204Y-73510505D01*
X109028000Y-73486001D01*
X109028000Y-72835999D01*
X109029204Y-72811495D01*
X109032804Y-72787227D01*
X109038765Y-72763428D01*
X109047030Y-72740329D01*
X109057520Y-72718150D01*
X109070132Y-72697107D01*
X109084747Y-72677401D01*
X109101223Y-72659223D01*
X109119401Y-72642747D01*
X109139107Y-72628132D01*
X109160150Y-72615520D01*
X109182329Y-72605030D01*
X109205428Y-72596765D01*
X109229227Y-72590804D01*
X109253495Y-72587204D01*
X109277999Y-72586000D01*
X110178001Y-72586000D01*
X110202505Y-72587204D01*
G37*
G04 #@! TD.AperFunction*
D13*
X109728000Y-73660000D03*
D14*
X109737000Y-71120000D02*
X109728000Y-71111000D01*
X114300000Y-71120000D02*
X109737000Y-71120000D01*
D15*
G36*
X108751810Y-70434411D02*
G01*
X108693329Y-70543821D01*
X108657317Y-70662538D01*
X108645157Y-70785999D01*
X108645157Y-71436001D01*
X108657317Y-71559462D01*
X108693329Y-71678179D01*
X108751810Y-71787589D01*
X108830512Y-71883488D01*
X108921780Y-71958389D01*
X108903518Y-71960188D01*
X108783820Y-71996498D01*
X108673506Y-72055463D01*
X108576815Y-72134815D01*
X108497463Y-72231506D01*
X108438498Y-72341820D01*
X108402188Y-72461518D01*
X108389928Y-72586000D01*
X108393000Y-72875250D01*
X108551750Y-73034000D01*
X109601000Y-73034000D01*
X109601000Y-73014000D01*
X109855000Y-73014000D01*
X109855000Y-73034000D01*
X110904250Y-73034000D01*
X111063000Y-72875250D01*
X111066072Y-72586000D01*
X111053812Y-72461518D01*
X111017502Y-72341820D01*
X110958537Y-72231506D01*
X110879185Y-72134815D01*
X110782494Y-72055463D01*
X110672180Y-71996498D01*
X110552482Y-71960188D01*
X110534220Y-71958389D01*
X110625488Y-71883488D01*
X110693184Y-71801000D01*
X113334654Y-71801000D01*
X113382658Y-71872843D01*
X113547157Y-72037342D01*
X113740587Y-72166588D01*
X113955515Y-72255614D01*
X114183682Y-72301000D01*
X114416318Y-72301000D01*
X114644485Y-72255614D01*
X114859413Y-72166588D01*
X115052843Y-72037342D01*
X115217342Y-71872843D01*
X115346588Y-71679413D01*
X115435614Y-71464485D01*
X115481000Y-71236318D01*
X115481000Y-71003682D01*
X115435614Y-70775515D01*
X115346588Y-70560587D01*
X115251314Y-70418000D01*
X117542001Y-70418000D01*
X117542000Y-87062000D01*
X115251314Y-87062000D01*
X115346588Y-86919413D01*
X115435614Y-86704485D01*
X115481000Y-86476318D01*
X115481000Y-86243682D01*
X115435614Y-86015515D01*
X115346588Y-85800587D01*
X115217342Y-85607157D01*
X115052843Y-85442658D01*
X114859413Y-85313412D01*
X114644485Y-85224386D01*
X114416318Y-85179000D01*
X114183682Y-85179000D01*
X113955515Y-85224386D01*
X113740587Y-85313412D01*
X113547157Y-85442658D01*
X113382658Y-85607157D01*
X113253412Y-85800587D01*
X113164386Y-86015515D01*
X113119000Y-86243682D01*
X113119000Y-86476318D01*
X113164386Y-86704485D01*
X113253412Y-86919413D01*
X113348686Y-87062000D01*
X107927778Y-87062000D01*
X108031246Y-86843087D01*
X108071904Y-86709039D01*
X107949915Y-86487000D01*
X106807000Y-86487000D01*
X106807000Y-86507000D01*
X106553000Y-86507000D01*
X106553000Y-86487000D01*
X106533000Y-86487000D01*
X106533000Y-86233000D01*
X106553000Y-86233000D01*
X106553000Y-86213000D01*
X106807000Y-86213000D01*
X106807000Y-86233000D01*
X107949915Y-86233000D01*
X108071904Y-86010961D01*
X108031246Y-85876913D01*
X107911037Y-85622580D01*
X107743519Y-85396586D01*
X107535131Y-85207615D01*
X107293881Y-85062930D01*
X107029040Y-84968091D01*
X106807002Y-85089375D01*
X106807002Y-84998875D01*
X107024485Y-84955614D01*
X107239413Y-84866588D01*
X107432843Y-84737342D01*
X107597342Y-84572843D01*
X107726588Y-84379413D01*
X107815614Y-84164485D01*
X107861000Y-83936318D01*
X107861000Y-83703682D01*
X113119000Y-83703682D01*
X113119000Y-83936318D01*
X113164386Y-84164485D01*
X113253412Y-84379413D01*
X113382658Y-84572843D01*
X113547157Y-84737342D01*
X113740587Y-84866588D01*
X113955515Y-84955614D01*
X114183682Y-85001000D01*
X114416318Y-85001000D01*
X114644485Y-84955614D01*
X114859413Y-84866588D01*
X115052843Y-84737342D01*
X115217342Y-84572843D01*
X115346588Y-84379413D01*
X115435614Y-84164485D01*
X115481000Y-83936318D01*
X115481000Y-83703682D01*
X115435614Y-83475515D01*
X115346588Y-83260587D01*
X115217342Y-83067157D01*
X115052843Y-82902658D01*
X114859413Y-82773412D01*
X114644485Y-82684386D01*
X114416318Y-82639000D01*
X114183682Y-82639000D01*
X113955515Y-82684386D01*
X113740587Y-82773412D01*
X113547157Y-82902658D01*
X113382658Y-83067157D01*
X113253412Y-83260587D01*
X113164386Y-83475515D01*
X113119000Y-83703682D01*
X107861000Y-83703682D01*
X107815614Y-83475515D01*
X107726588Y-83260587D01*
X107597342Y-83067157D01*
X107432843Y-82902658D01*
X107239413Y-82773412D01*
X107024485Y-82684386D01*
X106796318Y-82639000D01*
X106563682Y-82639000D01*
X106335515Y-82684386D01*
X106120587Y-82773412D01*
X105978000Y-82868686D01*
X105978000Y-82231314D01*
X106120587Y-82326588D01*
X106335515Y-82415614D01*
X106563682Y-82461000D01*
X106796318Y-82461000D01*
X107024485Y-82415614D01*
X107239413Y-82326588D01*
X107432843Y-82197342D01*
X107597342Y-82032843D01*
X107726588Y-81839413D01*
X107815614Y-81624485D01*
X107861000Y-81396318D01*
X107861000Y-81163682D01*
X113119000Y-81163682D01*
X113119000Y-81396318D01*
X113164386Y-81624485D01*
X113253412Y-81839413D01*
X113382658Y-82032843D01*
X113547157Y-82197342D01*
X113740587Y-82326588D01*
X113955515Y-82415614D01*
X114183682Y-82461000D01*
X114416318Y-82461000D01*
X114644485Y-82415614D01*
X114859413Y-82326588D01*
X115052843Y-82197342D01*
X115217342Y-82032843D01*
X115346588Y-81839413D01*
X115435614Y-81624485D01*
X115481000Y-81396318D01*
X115481000Y-81163682D01*
X115435614Y-80935515D01*
X115346588Y-80720587D01*
X115217342Y-80527157D01*
X115052843Y-80362658D01*
X114859413Y-80233412D01*
X114644485Y-80144386D01*
X114416318Y-80099000D01*
X114183682Y-80099000D01*
X113955515Y-80144386D01*
X113740587Y-80233412D01*
X113547157Y-80362658D01*
X113382658Y-80527157D01*
X113253412Y-80720587D01*
X113164386Y-80935515D01*
X113119000Y-81163682D01*
X107861000Y-81163682D01*
X107815614Y-80935515D01*
X107726588Y-80720587D01*
X107597342Y-80527157D01*
X107432843Y-80362658D01*
X107239413Y-80233412D01*
X107024485Y-80144386D01*
X106796318Y-80099000D01*
X106563682Y-80099000D01*
X106335515Y-80144386D01*
X106120587Y-80233412D01*
X105978000Y-80328686D01*
X105978000Y-79691314D01*
X106120587Y-79786588D01*
X106335515Y-79875614D01*
X106563682Y-79921000D01*
X106796318Y-79921000D01*
X107024485Y-79875614D01*
X107239413Y-79786588D01*
X107432843Y-79657342D01*
X107597342Y-79492843D01*
X107726588Y-79299413D01*
X107815614Y-79084485D01*
X107861000Y-78856318D01*
X107861000Y-78623682D01*
X113119000Y-78623682D01*
X113119000Y-78856318D01*
X113164386Y-79084485D01*
X113253412Y-79299413D01*
X113382658Y-79492843D01*
X113547157Y-79657342D01*
X113740587Y-79786588D01*
X113955515Y-79875614D01*
X114183682Y-79921000D01*
X114416318Y-79921000D01*
X114644485Y-79875614D01*
X114859413Y-79786588D01*
X115052843Y-79657342D01*
X115217342Y-79492843D01*
X115346588Y-79299413D01*
X115435614Y-79084485D01*
X115481000Y-78856318D01*
X115481000Y-78623682D01*
X115435614Y-78395515D01*
X115346588Y-78180587D01*
X115217342Y-77987157D01*
X115052843Y-77822658D01*
X114859413Y-77693412D01*
X114644485Y-77604386D01*
X114416318Y-77559000D01*
X114183682Y-77559000D01*
X113955515Y-77604386D01*
X113740587Y-77693412D01*
X113547157Y-77822658D01*
X113382658Y-77987157D01*
X113253412Y-78180587D01*
X113164386Y-78395515D01*
X113119000Y-78623682D01*
X107861000Y-78623682D01*
X107815614Y-78395515D01*
X107726588Y-78180587D01*
X107597342Y-77987157D01*
X107432843Y-77822658D01*
X107239413Y-77693412D01*
X107024485Y-77604386D01*
X106796318Y-77559000D01*
X106563682Y-77559000D01*
X106335515Y-77604386D01*
X106120587Y-77693412D01*
X105978000Y-77788686D01*
X105978000Y-77151314D01*
X106120587Y-77246588D01*
X106335515Y-77335614D01*
X106563682Y-77381000D01*
X106796318Y-77381000D01*
X107024485Y-77335614D01*
X107239413Y-77246588D01*
X107432843Y-77117342D01*
X107597342Y-76952843D01*
X107726588Y-76759413D01*
X107815614Y-76544485D01*
X107861000Y-76316318D01*
X107861000Y-76083682D01*
X113119000Y-76083682D01*
X113119000Y-76316318D01*
X113164386Y-76544485D01*
X113253412Y-76759413D01*
X113382658Y-76952843D01*
X113547157Y-77117342D01*
X113740587Y-77246588D01*
X113955515Y-77335614D01*
X114183682Y-77381000D01*
X114416318Y-77381000D01*
X114644485Y-77335614D01*
X114859413Y-77246588D01*
X115052843Y-77117342D01*
X115217342Y-76952843D01*
X115346588Y-76759413D01*
X115435614Y-76544485D01*
X115481000Y-76316318D01*
X115481000Y-76083682D01*
X115435614Y-75855515D01*
X115346588Y-75640587D01*
X115217342Y-75447157D01*
X115052843Y-75282658D01*
X114859413Y-75153412D01*
X114644485Y-75064386D01*
X114416318Y-75019000D01*
X114183682Y-75019000D01*
X113955515Y-75064386D01*
X113740587Y-75153412D01*
X113547157Y-75282658D01*
X113382658Y-75447157D01*
X113253412Y-75640587D01*
X113164386Y-75855515D01*
X113119000Y-76083682D01*
X107861000Y-76083682D01*
X107815614Y-75855515D01*
X107726588Y-75640587D01*
X107597342Y-75447157D01*
X107432843Y-75282658D01*
X107239413Y-75153412D01*
X107024485Y-75064386D01*
X106796318Y-75019000D01*
X106563682Y-75019000D01*
X106335515Y-75064386D01*
X106120587Y-75153412D01*
X105978000Y-75248686D01*
X105978000Y-74611314D01*
X106120587Y-74706588D01*
X106335515Y-74795614D01*
X106563682Y-74841000D01*
X106796318Y-74841000D01*
X107024485Y-74795614D01*
X107239413Y-74706588D01*
X107432843Y-74577342D01*
X107597342Y-74412843D01*
X107726588Y-74219413D01*
X107815614Y-74004485D01*
X107861000Y-73776318D01*
X107861000Y-73736000D01*
X108389928Y-73736000D01*
X108402188Y-73860482D01*
X108438498Y-73980180D01*
X108497463Y-74090494D01*
X108576815Y-74187185D01*
X108673506Y-74266537D01*
X108783820Y-74325502D01*
X108903518Y-74361812D01*
X109028000Y-74374072D01*
X109442250Y-74371000D01*
X109601000Y-74212250D01*
X109601000Y-73288000D01*
X109855000Y-73288000D01*
X109855000Y-74212250D01*
X110013750Y-74371000D01*
X110428000Y-74374072D01*
X110552482Y-74361812D01*
X110672180Y-74325502D01*
X110782494Y-74266537D01*
X110879185Y-74187185D01*
X110958537Y-74090494D01*
X111017502Y-73980180D01*
X111053812Y-73860482D01*
X111066072Y-73736000D01*
X111064030Y-73543682D01*
X113119000Y-73543682D01*
X113119000Y-73776318D01*
X113164386Y-74004485D01*
X113253412Y-74219413D01*
X113382658Y-74412843D01*
X113547157Y-74577342D01*
X113740587Y-74706588D01*
X113955515Y-74795614D01*
X114183682Y-74841000D01*
X114416318Y-74841000D01*
X114644485Y-74795614D01*
X114859413Y-74706588D01*
X115052843Y-74577342D01*
X115217342Y-74412843D01*
X115346588Y-74219413D01*
X115435614Y-74004485D01*
X115481000Y-73776318D01*
X115481000Y-73543682D01*
X115435614Y-73315515D01*
X115346588Y-73100587D01*
X115217342Y-72907157D01*
X115052843Y-72742658D01*
X114859413Y-72613412D01*
X114644485Y-72524386D01*
X114416318Y-72479000D01*
X114183682Y-72479000D01*
X113955515Y-72524386D01*
X113740587Y-72613412D01*
X113547157Y-72742658D01*
X113382658Y-72907157D01*
X113253412Y-73100587D01*
X113164386Y-73315515D01*
X113119000Y-73543682D01*
X111064030Y-73543682D01*
X111063000Y-73446750D01*
X110904250Y-73288000D01*
X109855000Y-73288000D01*
X109601000Y-73288000D01*
X108551750Y-73288000D01*
X108393000Y-73446750D01*
X108389928Y-73736000D01*
X107861000Y-73736000D01*
X107861000Y-73543682D01*
X107815614Y-73315515D01*
X107726588Y-73100587D01*
X107597342Y-72907157D01*
X107432843Y-72742658D01*
X107239413Y-72613412D01*
X107024485Y-72524386D01*
X106796318Y-72479000D01*
X106563682Y-72479000D01*
X106335515Y-72524386D01*
X106120587Y-72613412D01*
X105978000Y-72708686D01*
X105978000Y-72302843D01*
X107480000Y-72302843D01*
X107554689Y-72295487D01*
X107626508Y-72273701D01*
X107692696Y-72238322D01*
X107750711Y-72190711D01*
X107798322Y-72132696D01*
X107833701Y-72066508D01*
X107855487Y-71994689D01*
X107862843Y-71920000D01*
X107862843Y-70418000D01*
X108765278Y-70418000D01*
X108751810Y-70434411D01*
G37*
X108751810Y-70434411D02*
X108693329Y-70543821D01*
X108657317Y-70662538D01*
X108645157Y-70785999D01*
X108645157Y-71436001D01*
X108657317Y-71559462D01*
X108693329Y-71678179D01*
X108751810Y-71787589D01*
X108830512Y-71883488D01*
X108921780Y-71958389D01*
X108903518Y-71960188D01*
X108783820Y-71996498D01*
X108673506Y-72055463D01*
X108576815Y-72134815D01*
X108497463Y-72231506D01*
X108438498Y-72341820D01*
X108402188Y-72461518D01*
X108389928Y-72586000D01*
X108393000Y-72875250D01*
X108551750Y-73034000D01*
X109601000Y-73034000D01*
X109601000Y-73014000D01*
X109855000Y-73014000D01*
X109855000Y-73034000D01*
X110904250Y-73034000D01*
X111063000Y-72875250D01*
X111066072Y-72586000D01*
X111053812Y-72461518D01*
X111017502Y-72341820D01*
X110958537Y-72231506D01*
X110879185Y-72134815D01*
X110782494Y-72055463D01*
X110672180Y-71996498D01*
X110552482Y-71960188D01*
X110534220Y-71958389D01*
X110625488Y-71883488D01*
X110693184Y-71801000D01*
X113334654Y-71801000D01*
X113382658Y-71872843D01*
X113547157Y-72037342D01*
X113740587Y-72166588D01*
X113955515Y-72255614D01*
X114183682Y-72301000D01*
X114416318Y-72301000D01*
X114644485Y-72255614D01*
X114859413Y-72166588D01*
X115052843Y-72037342D01*
X115217342Y-71872843D01*
X115346588Y-71679413D01*
X115435614Y-71464485D01*
X115481000Y-71236318D01*
X115481000Y-71003682D01*
X115435614Y-70775515D01*
X115346588Y-70560587D01*
X115251314Y-70418000D01*
X117542001Y-70418000D01*
X117542000Y-87062000D01*
X115251314Y-87062000D01*
X115346588Y-86919413D01*
X115435614Y-86704485D01*
X115481000Y-86476318D01*
X115481000Y-86243682D01*
X115435614Y-86015515D01*
X115346588Y-85800587D01*
X115217342Y-85607157D01*
X115052843Y-85442658D01*
X114859413Y-85313412D01*
X114644485Y-85224386D01*
X114416318Y-85179000D01*
X114183682Y-85179000D01*
X113955515Y-85224386D01*
X113740587Y-85313412D01*
X113547157Y-85442658D01*
X113382658Y-85607157D01*
X113253412Y-85800587D01*
X113164386Y-86015515D01*
X113119000Y-86243682D01*
X113119000Y-86476318D01*
X113164386Y-86704485D01*
X113253412Y-86919413D01*
X113348686Y-87062000D01*
X107927778Y-87062000D01*
X108031246Y-86843087D01*
X108071904Y-86709039D01*
X107949915Y-86487000D01*
X106807000Y-86487000D01*
X106807000Y-86507000D01*
X106553000Y-86507000D01*
X106553000Y-86487000D01*
X106533000Y-86487000D01*
X106533000Y-86233000D01*
X106553000Y-86233000D01*
X106553000Y-86213000D01*
X106807000Y-86213000D01*
X106807000Y-86233000D01*
X107949915Y-86233000D01*
X108071904Y-86010961D01*
X108031246Y-85876913D01*
X107911037Y-85622580D01*
X107743519Y-85396586D01*
X107535131Y-85207615D01*
X107293881Y-85062930D01*
X107029040Y-84968091D01*
X106807002Y-85089375D01*
X106807002Y-84998875D01*
X107024485Y-84955614D01*
X107239413Y-84866588D01*
X107432843Y-84737342D01*
X107597342Y-84572843D01*
X107726588Y-84379413D01*
X107815614Y-84164485D01*
X107861000Y-83936318D01*
X107861000Y-83703682D01*
X113119000Y-83703682D01*
X113119000Y-83936318D01*
X113164386Y-84164485D01*
X113253412Y-84379413D01*
X113382658Y-84572843D01*
X113547157Y-84737342D01*
X113740587Y-84866588D01*
X113955515Y-84955614D01*
X114183682Y-85001000D01*
X114416318Y-85001000D01*
X114644485Y-84955614D01*
X114859413Y-84866588D01*
X115052843Y-84737342D01*
X115217342Y-84572843D01*
X115346588Y-84379413D01*
X115435614Y-84164485D01*
X115481000Y-83936318D01*
X115481000Y-83703682D01*
X115435614Y-83475515D01*
X115346588Y-83260587D01*
X115217342Y-83067157D01*
X115052843Y-82902658D01*
X114859413Y-82773412D01*
X114644485Y-82684386D01*
X114416318Y-82639000D01*
X114183682Y-82639000D01*
X113955515Y-82684386D01*
X113740587Y-82773412D01*
X113547157Y-82902658D01*
X113382658Y-83067157D01*
X113253412Y-83260587D01*
X113164386Y-83475515D01*
X113119000Y-83703682D01*
X107861000Y-83703682D01*
X107815614Y-83475515D01*
X107726588Y-83260587D01*
X107597342Y-83067157D01*
X107432843Y-82902658D01*
X107239413Y-82773412D01*
X107024485Y-82684386D01*
X106796318Y-82639000D01*
X106563682Y-82639000D01*
X106335515Y-82684386D01*
X106120587Y-82773412D01*
X105978000Y-82868686D01*
X105978000Y-82231314D01*
X106120587Y-82326588D01*
X106335515Y-82415614D01*
X106563682Y-82461000D01*
X106796318Y-82461000D01*
X107024485Y-82415614D01*
X107239413Y-82326588D01*
X107432843Y-82197342D01*
X107597342Y-82032843D01*
X107726588Y-81839413D01*
X107815614Y-81624485D01*
X107861000Y-81396318D01*
X107861000Y-81163682D01*
X113119000Y-81163682D01*
X113119000Y-81396318D01*
X113164386Y-81624485D01*
X113253412Y-81839413D01*
X113382658Y-82032843D01*
X113547157Y-82197342D01*
X113740587Y-82326588D01*
X113955515Y-82415614D01*
X114183682Y-82461000D01*
X114416318Y-82461000D01*
X114644485Y-82415614D01*
X114859413Y-82326588D01*
X115052843Y-82197342D01*
X115217342Y-82032843D01*
X115346588Y-81839413D01*
X115435614Y-81624485D01*
X115481000Y-81396318D01*
X115481000Y-81163682D01*
X115435614Y-80935515D01*
X115346588Y-80720587D01*
X115217342Y-80527157D01*
X115052843Y-80362658D01*
X114859413Y-80233412D01*
X114644485Y-80144386D01*
X114416318Y-80099000D01*
X114183682Y-80099000D01*
X113955515Y-80144386D01*
X113740587Y-80233412D01*
X113547157Y-80362658D01*
X113382658Y-80527157D01*
X113253412Y-80720587D01*
X113164386Y-80935515D01*
X113119000Y-81163682D01*
X107861000Y-81163682D01*
X107815614Y-80935515D01*
X107726588Y-80720587D01*
X107597342Y-80527157D01*
X107432843Y-80362658D01*
X107239413Y-80233412D01*
X107024485Y-80144386D01*
X106796318Y-80099000D01*
X106563682Y-80099000D01*
X106335515Y-80144386D01*
X106120587Y-80233412D01*
X105978000Y-80328686D01*
X105978000Y-79691314D01*
X106120587Y-79786588D01*
X106335515Y-79875614D01*
X106563682Y-79921000D01*
X106796318Y-79921000D01*
X107024485Y-79875614D01*
X107239413Y-79786588D01*
X107432843Y-79657342D01*
X107597342Y-79492843D01*
X107726588Y-79299413D01*
X107815614Y-79084485D01*
X107861000Y-78856318D01*
X107861000Y-78623682D01*
X113119000Y-78623682D01*
X113119000Y-78856318D01*
X113164386Y-79084485D01*
X113253412Y-79299413D01*
X113382658Y-79492843D01*
X113547157Y-79657342D01*
X113740587Y-79786588D01*
X113955515Y-79875614D01*
X114183682Y-79921000D01*
X114416318Y-79921000D01*
X114644485Y-79875614D01*
X114859413Y-79786588D01*
X115052843Y-79657342D01*
X115217342Y-79492843D01*
X115346588Y-79299413D01*
X115435614Y-79084485D01*
X115481000Y-78856318D01*
X115481000Y-78623682D01*
X115435614Y-78395515D01*
X115346588Y-78180587D01*
X115217342Y-77987157D01*
X115052843Y-77822658D01*
X114859413Y-77693412D01*
X114644485Y-77604386D01*
X114416318Y-77559000D01*
X114183682Y-77559000D01*
X113955515Y-77604386D01*
X113740587Y-77693412D01*
X113547157Y-77822658D01*
X113382658Y-77987157D01*
X113253412Y-78180587D01*
X113164386Y-78395515D01*
X113119000Y-78623682D01*
X107861000Y-78623682D01*
X107815614Y-78395515D01*
X107726588Y-78180587D01*
X107597342Y-77987157D01*
X107432843Y-77822658D01*
X107239413Y-77693412D01*
X107024485Y-77604386D01*
X106796318Y-77559000D01*
X106563682Y-77559000D01*
X106335515Y-77604386D01*
X106120587Y-77693412D01*
X105978000Y-77788686D01*
X105978000Y-77151314D01*
X106120587Y-77246588D01*
X106335515Y-77335614D01*
X106563682Y-77381000D01*
X106796318Y-77381000D01*
X107024485Y-77335614D01*
X107239413Y-77246588D01*
X107432843Y-77117342D01*
X107597342Y-76952843D01*
X107726588Y-76759413D01*
X107815614Y-76544485D01*
X107861000Y-76316318D01*
X107861000Y-76083682D01*
X113119000Y-76083682D01*
X113119000Y-76316318D01*
X113164386Y-76544485D01*
X113253412Y-76759413D01*
X113382658Y-76952843D01*
X113547157Y-77117342D01*
X113740587Y-77246588D01*
X113955515Y-77335614D01*
X114183682Y-77381000D01*
X114416318Y-77381000D01*
X114644485Y-77335614D01*
X114859413Y-77246588D01*
X115052843Y-77117342D01*
X115217342Y-76952843D01*
X115346588Y-76759413D01*
X115435614Y-76544485D01*
X115481000Y-76316318D01*
X115481000Y-76083682D01*
X115435614Y-75855515D01*
X115346588Y-75640587D01*
X115217342Y-75447157D01*
X115052843Y-75282658D01*
X114859413Y-75153412D01*
X114644485Y-75064386D01*
X114416318Y-75019000D01*
X114183682Y-75019000D01*
X113955515Y-75064386D01*
X113740587Y-75153412D01*
X113547157Y-75282658D01*
X113382658Y-75447157D01*
X113253412Y-75640587D01*
X113164386Y-75855515D01*
X113119000Y-76083682D01*
X107861000Y-76083682D01*
X107815614Y-75855515D01*
X107726588Y-75640587D01*
X107597342Y-75447157D01*
X107432843Y-75282658D01*
X107239413Y-75153412D01*
X107024485Y-75064386D01*
X106796318Y-75019000D01*
X106563682Y-75019000D01*
X106335515Y-75064386D01*
X106120587Y-75153412D01*
X105978000Y-75248686D01*
X105978000Y-74611314D01*
X106120587Y-74706588D01*
X106335515Y-74795614D01*
X106563682Y-74841000D01*
X106796318Y-74841000D01*
X107024485Y-74795614D01*
X107239413Y-74706588D01*
X107432843Y-74577342D01*
X107597342Y-74412843D01*
X107726588Y-74219413D01*
X107815614Y-74004485D01*
X107861000Y-73776318D01*
X107861000Y-73736000D01*
X108389928Y-73736000D01*
X108402188Y-73860482D01*
X108438498Y-73980180D01*
X108497463Y-74090494D01*
X108576815Y-74187185D01*
X108673506Y-74266537D01*
X108783820Y-74325502D01*
X108903518Y-74361812D01*
X109028000Y-74374072D01*
X109442250Y-74371000D01*
X109601000Y-74212250D01*
X109601000Y-73288000D01*
X109855000Y-73288000D01*
X109855000Y-74212250D01*
X110013750Y-74371000D01*
X110428000Y-74374072D01*
X110552482Y-74361812D01*
X110672180Y-74325502D01*
X110782494Y-74266537D01*
X110879185Y-74187185D01*
X110958537Y-74090494D01*
X111017502Y-73980180D01*
X111053812Y-73860482D01*
X111066072Y-73736000D01*
X111064030Y-73543682D01*
X113119000Y-73543682D01*
X113119000Y-73776318D01*
X113164386Y-74004485D01*
X113253412Y-74219413D01*
X113382658Y-74412843D01*
X113547157Y-74577342D01*
X113740587Y-74706588D01*
X113955515Y-74795614D01*
X114183682Y-74841000D01*
X114416318Y-74841000D01*
X114644485Y-74795614D01*
X114859413Y-74706588D01*
X115052843Y-74577342D01*
X115217342Y-74412843D01*
X115346588Y-74219413D01*
X115435614Y-74004485D01*
X115481000Y-73776318D01*
X115481000Y-73543682D01*
X115435614Y-73315515D01*
X115346588Y-73100587D01*
X115217342Y-72907157D01*
X115052843Y-72742658D01*
X114859413Y-72613412D01*
X114644485Y-72524386D01*
X114416318Y-72479000D01*
X114183682Y-72479000D01*
X113955515Y-72524386D01*
X113740587Y-72613412D01*
X113547157Y-72742658D01*
X113382658Y-72907157D01*
X113253412Y-73100587D01*
X113164386Y-73315515D01*
X113119000Y-73543682D01*
X111064030Y-73543682D01*
X111063000Y-73446750D01*
X110904250Y-73288000D01*
X109855000Y-73288000D01*
X109601000Y-73288000D01*
X108551750Y-73288000D01*
X108393000Y-73446750D01*
X108389928Y-73736000D01*
X107861000Y-73736000D01*
X107861000Y-73543682D01*
X107815614Y-73315515D01*
X107726588Y-73100587D01*
X107597342Y-72907157D01*
X107432843Y-72742658D01*
X107239413Y-72613412D01*
X107024485Y-72524386D01*
X106796318Y-72479000D01*
X106563682Y-72479000D01*
X106335515Y-72524386D01*
X106120587Y-72613412D01*
X105978000Y-72708686D01*
X105978000Y-72302843D01*
X107480000Y-72302843D01*
X107554689Y-72295487D01*
X107626508Y-72273701D01*
X107692696Y-72238322D01*
X107750711Y-72190711D01*
X107798322Y-72132696D01*
X107833701Y-72066508D01*
X107855487Y-71994689D01*
X107862843Y-71920000D01*
X107862843Y-70418000D01*
X108765278Y-70418000D01*
X108751810Y-70434411D01*
M02*
