G04 #@! TF.GenerationSoftware,KiCad,Pcbnew,(5.1.5)-3*
G04 #@! TF.CreationDate,2021-01-01T17:19:35-05:00*
G04 #@! TF.ProjectId,DIP48-XC9572XL,44495034-382d-4584-9339-353732584c2e,1*
G04 #@! TF.SameCoordinates,Original*
G04 #@! TF.FileFunction,Soldermask,Bot*
G04 #@! TF.FilePolarity,Negative*
%FSLAX46Y46*%
G04 Gerber Fmt 4.6, Leading zero omitted, Abs format (unit mm)*
G04 Created by KiCad (PCBNEW (5.1.5)-3) date 2021-01-01 17:19:35*
%MOMM*%
%LPD*%
G04 APERTURE LIST*
%ADD10R,1.700000X1.700000*%
%ADD11O,1.700000X1.700000*%
%ADD12C,0.100000*%
%ADD13R,1.600000X1.600000*%
%ADD14O,1.600000X1.600000*%
%ADD15R,1.000000X1.500000*%
%ADD16R,0.650000X0.280000*%
G04 APERTURE END LIST*
D10*
X85750400Y-105943400D03*
D11*
X85750400Y-103403400D03*
X88290400Y-105943400D03*
X88290400Y-103403400D03*
X90830400Y-103403400D03*
X93370400Y-103403400D03*
D12*
G36*
X95867351Y-73125861D02*
G01*
X95874632Y-73126941D01*
X95881771Y-73128729D01*
X95888701Y-73131209D01*
X95895355Y-73134356D01*
X95901668Y-73138140D01*
X95907579Y-73142524D01*
X95913033Y-73147467D01*
X95917976Y-73152921D01*
X95922360Y-73158832D01*
X95926144Y-73165145D01*
X95929291Y-73171799D01*
X95931771Y-73178729D01*
X95933559Y-73185868D01*
X95934639Y-73193149D01*
X95935000Y-73200500D01*
X95935000Y-73350500D01*
X95934639Y-73357851D01*
X95933559Y-73365132D01*
X95931771Y-73372271D01*
X95929291Y-73379201D01*
X95926144Y-73385855D01*
X95922360Y-73392168D01*
X95917976Y-73398079D01*
X95913033Y-73403533D01*
X95907579Y-73408476D01*
X95901668Y-73412860D01*
X95895355Y-73416644D01*
X95888701Y-73419791D01*
X95881771Y-73422271D01*
X95874632Y-73424059D01*
X95867351Y-73425139D01*
X95860000Y-73425500D01*
X94535000Y-73425500D01*
X94527649Y-73425139D01*
X94520368Y-73424059D01*
X94513229Y-73422271D01*
X94506299Y-73419791D01*
X94499645Y-73416644D01*
X94493332Y-73412860D01*
X94487421Y-73408476D01*
X94481967Y-73403533D01*
X94477024Y-73398079D01*
X94472640Y-73392168D01*
X94468856Y-73385855D01*
X94465709Y-73379201D01*
X94463229Y-73372271D01*
X94461441Y-73365132D01*
X94460361Y-73357851D01*
X94460000Y-73350500D01*
X94460000Y-73200500D01*
X94460361Y-73193149D01*
X94461441Y-73185868D01*
X94463229Y-73178729D01*
X94465709Y-73171799D01*
X94468856Y-73165145D01*
X94472640Y-73158832D01*
X94477024Y-73152921D01*
X94481967Y-73147467D01*
X94487421Y-73142524D01*
X94493332Y-73138140D01*
X94499645Y-73134356D01*
X94506299Y-73131209D01*
X94513229Y-73128729D01*
X94520368Y-73126941D01*
X94527649Y-73125861D01*
X94535000Y-73125500D01*
X95860000Y-73125500D01*
X95867351Y-73125861D01*
G37*
G36*
X95867351Y-73625861D02*
G01*
X95874632Y-73626941D01*
X95881771Y-73628729D01*
X95888701Y-73631209D01*
X95895355Y-73634356D01*
X95901668Y-73638140D01*
X95907579Y-73642524D01*
X95913033Y-73647467D01*
X95917976Y-73652921D01*
X95922360Y-73658832D01*
X95926144Y-73665145D01*
X95929291Y-73671799D01*
X95931771Y-73678729D01*
X95933559Y-73685868D01*
X95934639Y-73693149D01*
X95935000Y-73700500D01*
X95935000Y-73850500D01*
X95934639Y-73857851D01*
X95933559Y-73865132D01*
X95931771Y-73872271D01*
X95929291Y-73879201D01*
X95926144Y-73885855D01*
X95922360Y-73892168D01*
X95917976Y-73898079D01*
X95913033Y-73903533D01*
X95907579Y-73908476D01*
X95901668Y-73912860D01*
X95895355Y-73916644D01*
X95888701Y-73919791D01*
X95881771Y-73922271D01*
X95874632Y-73924059D01*
X95867351Y-73925139D01*
X95860000Y-73925500D01*
X94535000Y-73925500D01*
X94527649Y-73925139D01*
X94520368Y-73924059D01*
X94513229Y-73922271D01*
X94506299Y-73919791D01*
X94499645Y-73916644D01*
X94493332Y-73912860D01*
X94487421Y-73908476D01*
X94481967Y-73903533D01*
X94477024Y-73898079D01*
X94472640Y-73892168D01*
X94468856Y-73885855D01*
X94465709Y-73879201D01*
X94463229Y-73872271D01*
X94461441Y-73865132D01*
X94460361Y-73857851D01*
X94460000Y-73850500D01*
X94460000Y-73700500D01*
X94460361Y-73693149D01*
X94461441Y-73685868D01*
X94463229Y-73678729D01*
X94465709Y-73671799D01*
X94468856Y-73665145D01*
X94472640Y-73658832D01*
X94477024Y-73652921D01*
X94481967Y-73647467D01*
X94487421Y-73642524D01*
X94493332Y-73638140D01*
X94499645Y-73634356D01*
X94506299Y-73631209D01*
X94513229Y-73628729D01*
X94520368Y-73626941D01*
X94527649Y-73625861D01*
X94535000Y-73625500D01*
X95860000Y-73625500D01*
X95867351Y-73625861D01*
G37*
G36*
X95867351Y-74125861D02*
G01*
X95874632Y-74126941D01*
X95881771Y-74128729D01*
X95888701Y-74131209D01*
X95895355Y-74134356D01*
X95901668Y-74138140D01*
X95907579Y-74142524D01*
X95913033Y-74147467D01*
X95917976Y-74152921D01*
X95922360Y-74158832D01*
X95926144Y-74165145D01*
X95929291Y-74171799D01*
X95931771Y-74178729D01*
X95933559Y-74185868D01*
X95934639Y-74193149D01*
X95935000Y-74200500D01*
X95935000Y-74350500D01*
X95934639Y-74357851D01*
X95933559Y-74365132D01*
X95931771Y-74372271D01*
X95929291Y-74379201D01*
X95926144Y-74385855D01*
X95922360Y-74392168D01*
X95917976Y-74398079D01*
X95913033Y-74403533D01*
X95907579Y-74408476D01*
X95901668Y-74412860D01*
X95895355Y-74416644D01*
X95888701Y-74419791D01*
X95881771Y-74422271D01*
X95874632Y-74424059D01*
X95867351Y-74425139D01*
X95860000Y-74425500D01*
X94535000Y-74425500D01*
X94527649Y-74425139D01*
X94520368Y-74424059D01*
X94513229Y-74422271D01*
X94506299Y-74419791D01*
X94499645Y-74416644D01*
X94493332Y-74412860D01*
X94487421Y-74408476D01*
X94481967Y-74403533D01*
X94477024Y-74398079D01*
X94472640Y-74392168D01*
X94468856Y-74385855D01*
X94465709Y-74379201D01*
X94463229Y-74372271D01*
X94461441Y-74365132D01*
X94460361Y-74357851D01*
X94460000Y-74350500D01*
X94460000Y-74200500D01*
X94460361Y-74193149D01*
X94461441Y-74185868D01*
X94463229Y-74178729D01*
X94465709Y-74171799D01*
X94468856Y-74165145D01*
X94472640Y-74158832D01*
X94477024Y-74152921D01*
X94481967Y-74147467D01*
X94487421Y-74142524D01*
X94493332Y-74138140D01*
X94499645Y-74134356D01*
X94506299Y-74131209D01*
X94513229Y-74128729D01*
X94520368Y-74126941D01*
X94527649Y-74125861D01*
X94535000Y-74125500D01*
X95860000Y-74125500D01*
X95867351Y-74125861D01*
G37*
G36*
X95867351Y-74625861D02*
G01*
X95874632Y-74626941D01*
X95881771Y-74628729D01*
X95888701Y-74631209D01*
X95895355Y-74634356D01*
X95901668Y-74638140D01*
X95907579Y-74642524D01*
X95913033Y-74647467D01*
X95917976Y-74652921D01*
X95922360Y-74658832D01*
X95926144Y-74665145D01*
X95929291Y-74671799D01*
X95931771Y-74678729D01*
X95933559Y-74685868D01*
X95934639Y-74693149D01*
X95935000Y-74700500D01*
X95935000Y-74850500D01*
X95934639Y-74857851D01*
X95933559Y-74865132D01*
X95931771Y-74872271D01*
X95929291Y-74879201D01*
X95926144Y-74885855D01*
X95922360Y-74892168D01*
X95917976Y-74898079D01*
X95913033Y-74903533D01*
X95907579Y-74908476D01*
X95901668Y-74912860D01*
X95895355Y-74916644D01*
X95888701Y-74919791D01*
X95881771Y-74922271D01*
X95874632Y-74924059D01*
X95867351Y-74925139D01*
X95860000Y-74925500D01*
X94535000Y-74925500D01*
X94527649Y-74925139D01*
X94520368Y-74924059D01*
X94513229Y-74922271D01*
X94506299Y-74919791D01*
X94499645Y-74916644D01*
X94493332Y-74912860D01*
X94487421Y-74908476D01*
X94481967Y-74903533D01*
X94477024Y-74898079D01*
X94472640Y-74892168D01*
X94468856Y-74885855D01*
X94465709Y-74879201D01*
X94463229Y-74872271D01*
X94461441Y-74865132D01*
X94460361Y-74857851D01*
X94460000Y-74850500D01*
X94460000Y-74700500D01*
X94460361Y-74693149D01*
X94461441Y-74685868D01*
X94463229Y-74678729D01*
X94465709Y-74671799D01*
X94468856Y-74665145D01*
X94472640Y-74658832D01*
X94477024Y-74652921D01*
X94481967Y-74647467D01*
X94487421Y-74642524D01*
X94493332Y-74638140D01*
X94499645Y-74634356D01*
X94506299Y-74631209D01*
X94513229Y-74628729D01*
X94520368Y-74626941D01*
X94527649Y-74625861D01*
X94535000Y-74625500D01*
X95860000Y-74625500D01*
X95867351Y-74625861D01*
G37*
G36*
X95867351Y-75125861D02*
G01*
X95874632Y-75126941D01*
X95881771Y-75128729D01*
X95888701Y-75131209D01*
X95895355Y-75134356D01*
X95901668Y-75138140D01*
X95907579Y-75142524D01*
X95913033Y-75147467D01*
X95917976Y-75152921D01*
X95922360Y-75158832D01*
X95926144Y-75165145D01*
X95929291Y-75171799D01*
X95931771Y-75178729D01*
X95933559Y-75185868D01*
X95934639Y-75193149D01*
X95935000Y-75200500D01*
X95935000Y-75350500D01*
X95934639Y-75357851D01*
X95933559Y-75365132D01*
X95931771Y-75372271D01*
X95929291Y-75379201D01*
X95926144Y-75385855D01*
X95922360Y-75392168D01*
X95917976Y-75398079D01*
X95913033Y-75403533D01*
X95907579Y-75408476D01*
X95901668Y-75412860D01*
X95895355Y-75416644D01*
X95888701Y-75419791D01*
X95881771Y-75422271D01*
X95874632Y-75424059D01*
X95867351Y-75425139D01*
X95860000Y-75425500D01*
X94535000Y-75425500D01*
X94527649Y-75425139D01*
X94520368Y-75424059D01*
X94513229Y-75422271D01*
X94506299Y-75419791D01*
X94499645Y-75416644D01*
X94493332Y-75412860D01*
X94487421Y-75408476D01*
X94481967Y-75403533D01*
X94477024Y-75398079D01*
X94472640Y-75392168D01*
X94468856Y-75385855D01*
X94465709Y-75379201D01*
X94463229Y-75372271D01*
X94461441Y-75365132D01*
X94460361Y-75357851D01*
X94460000Y-75350500D01*
X94460000Y-75200500D01*
X94460361Y-75193149D01*
X94461441Y-75185868D01*
X94463229Y-75178729D01*
X94465709Y-75171799D01*
X94468856Y-75165145D01*
X94472640Y-75158832D01*
X94477024Y-75152921D01*
X94481967Y-75147467D01*
X94487421Y-75142524D01*
X94493332Y-75138140D01*
X94499645Y-75134356D01*
X94506299Y-75131209D01*
X94513229Y-75128729D01*
X94520368Y-75126941D01*
X94527649Y-75125861D01*
X94535000Y-75125500D01*
X95860000Y-75125500D01*
X95867351Y-75125861D01*
G37*
G36*
X95867351Y-75625861D02*
G01*
X95874632Y-75626941D01*
X95881771Y-75628729D01*
X95888701Y-75631209D01*
X95895355Y-75634356D01*
X95901668Y-75638140D01*
X95907579Y-75642524D01*
X95913033Y-75647467D01*
X95917976Y-75652921D01*
X95922360Y-75658832D01*
X95926144Y-75665145D01*
X95929291Y-75671799D01*
X95931771Y-75678729D01*
X95933559Y-75685868D01*
X95934639Y-75693149D01*
X95935000Y-75700500D01*
X95935000Y-75850500D01*
X95934639Y-75857851D01*
X95933559Y-75865132D01*
X95931771Y-75872271D01*
X95929291Y-75879201D01*
X95926144Y-75885855D01*
X95922360Y-75892168D01*
X95917976Y-75898079D01*
X95913033Y-75903533D01*
X95907579Y-75908476D01*
X95901668Y-75912860D01*
X95895355Y-75916644D01*
X95888701Y-75919791D01*
X95881771Y-75922271D01*
X95874632Y-75924059D01*
X95867351Y-75925139D01*
X95860000Y-75925500D01*
X94535000Y-75925500D01*
X94527649Y-75925139D01*
X94520368Y-75924059D01*
X94513229Y-75922271D01*
X94506299Y-75919791D01*
X94499645Y-75916644D01*
X94493332Y-75912860D01*
X94487421Y-75908476D01*
X94481967Y-75903533D01*
X94477024Y-75898079D01*
X94472640Y-75892168D01*
X94468856Y-75885855D01*
X94465709Y-75879201D01*
X94463229Y-75872271D01*
X94461441Y-75865132D01*
X94460361Y-75857851D01*
X94460000Y-75850500D01*
X94460000Y-75700500D01*
X94460361Y-75693149D01*
X94461441Y-75685868D01*
X94463229Y-75678729D01*
X94465709Y-75671799D01*
X94468856Y-75665145D01*
X94472640Y-75658832D01*
X94477024Y-75652921D01*
X94481967Y-75647467D01*
X94487421Y-75642524D01*
X94493332Y-75638140D01*
X94499645Y-75634356D01*
X94506299Y-75631209D01*
X94513229Y-75628729D01*
X94520368Y-75626941D01*
X94527649Y-75625861D01*
X94535000Y-75625500D01*
X95860000Y-75625500D01*
X95867351Y-75625861D01*
G37*
G36*
X95867351Y-76125861D02*
G01*
X95874632Y-76126941D01*
X95881771Y-76128729D01*
X95888701Y-76131209D01*
X95895355Y-76134356D01*
X95901668Y-76138140D01*
X95907579Y-76142524D01*
X95913033Y-76147467D01*
X95917976Y-76152921D01*
X95922360Y-76158832D01*
X95926144Y-76165145D01*
X95929291Y-76171799D01*
X95931771Y-76178729D01*
X95933559Y-76185868D01*
X95934639Y-76193149D01*
X95935000Y-76200500D01*
X95935000Y-76350500D01*
X95934639Y-76357851D01*
X95933559Y-76365132D01*
X95931771Y-76372271D01*
X95929291Y-76379201D01*
X95926144Y-76385855D01*
X95922360Y-76392168D01*
X95917976Y-76398079D01*
X95913033Y-76403533D01*
X95907579Y-76408476D01*
X95901668Y-76412860D01*
X95895355Y-76416644D01*
X95888701Y-76419791D01*
X95881771Y-76422271D01*
X95874632Y-76424059D01*
X95867351Y-76425139D01*
X95860000Y-76425500D01*
X94535000Y-76425500D01*
X94527649Y-76425139D01*
X94520368Y-76424059D01*
X94513229Y-76422271D01*
X94506299Y-76419791D01*
X94499645Y-76416644D01*
X94493332Y-76412860D01*
X94487421Y-76408476D01*
X94481967Y-76403533D01*
X94477024Y-76398079D01*
X94472640Y-76392168D01*
X94468856Y-76385855D01*
X94465709Y-76379201D01*
X94463229Y-76372271D01*
X94461441Y-76365132D01*
X94460361Y-76357851D01*
X94460000Y-76350500D01*
X94460000Y-76200500D01*
X94460361Y-76193149D01*
X94461441Y-76185868D01*
X94463229Y-76178729D01*
X94465709Y-76171799D01*
X94468856Y-76165145D01*
X94472640Y-76158832D01*
X94477024Y-76152921D01*
X94481967Y-76147467D01*
X94487421Y-76142524D01*
X94493332Y-76138140D01*
X94499645Y-76134356D01*
X94506299Y-76131209D01*
X94513229Y-76128729D01*
X94520368Y-76126941D01*
X94527649Y-76125861D01*
X94535000Y-76125500D01*
X95860000Y-76125500D01*
X95867351Y-76125861D01*
G37*
G36*
X95867351Y-76625861D02*
G01*
X95874632Y-76626941D01*
X95881771Y-76628729D01*
X95888701Y-76631209D01*
X95895355Y-76634356D01*
X95901668Y-76638140D01*
X95907579Y-76642524D01*
X95913033Y-76647467D01*
X95917976Y-76652921D01*
X95922360Y-76658832D01*
X95926144Y-76665145D01*
X95929291Y-76671799D01*
X95931771Y-76678729D01*
X95933559Y-76685868D01*
X95934639Y-76693149D01*
X95935000Y-76700500D01*
X95935000Y-76850500D01*
X95934639Y-76857851D01*
X95933559Y-76865132D01*
X95931771Y-76872271D01*
X95929291Y-76879201D01*
X95926144Y-76885855D01*
X95922360Y-76892168D01*
X95917976Y-76898079D01*
X95913033Y-76903533D01*
X95907579Y-76908476D01*
X95901668Y-76912860D01*
X95895355Y-76916644D01*
X95888701Y-76919791D01*
X95881771Y-76922271D01*
X95874632Y-76924059D01*
X95867351Y-76925139D01*
X95860000Y-76925500D01*
X94535000Y-76925500D01*
X94527649Y-76925139D01*
X94520368Y-76924059D01*
X94513229Y-76922271D01*
X94506299Y-76919791D01*
X94499645Y-76916644D01*
X94493332Y-76912860D01*
X94487421Y-76908476D01*
X94481967Y-76903533D01*
X94477024Y-76898079D01*
X94472640Y-76892168D01*
X94468856Y-76885855D01*
X94465709Y-76879201D01*
X94463229Y-76872271D01*
X94461441Y-76865132D01*
X94460361Y-76857851D01*
X94460000Y-76850500D01*
X94460000Y-76700500D01*
X94460361Y-76693149D01*
X94461441Y-76685868D01*
X94463229Y-76678729D01*
X94465709Y-76671799D01*
X94468856Y-76665145D01*
X94472640Y-76658832D01*
X94477024Y-76652921D01*
X94481967Y-76647467D01*
X94487421Y-76642524D01*
X94493332Y-76638140D01*
X94499645Y-76634356D01*
X94506299Y-76631209D01*
X94513229Y-76628729D01*
X94520368Y-76626941D01*
X94527649Y-76625861D01*
X94535000Y-76625500D01*
X95860000Y-76625500D01*
X95867351Y-76625861D01*
G37*
G36*
X95867351Y-77125861D02*
G01*
X95874632Y-77126941D01*
X95881771Y-77128729D01*
X95888701Y-77131209D01*
X95895355Y-77134356D01*
X95901668Y-77138140D01*
X95907579Y-77142524D01*
X95913033Y-77147467D01*
X95917976Y-77152921D01*
X95922360Y-77158832D01*
X95926144Y-77165145D01*
X95929291Y-77171799D01*
X95931771Y-77178729D01*
X95933559Y-77185868D01*
X95934639Y-77193149D01*
X95935000Y-77200500D01*
X95935000Y-77350500D01*
X95934639Y-77357851D01*
X95933559Y-77365132D01*
X95931771Y-77372271D01*
X95929291Y-77379201D01*
X95926144Y-77385855D01*
X95922360Y-77392168D01*
X95917976Y-77398079D01*
X95913033Y-77403533D01*
X95907579Y-77408476D01*
X95901668Y-77412860D01*
X95895355Y-77416644D01*
X95888701Y-77419791D01*
X95881771Y-77422271D01*
X95874632Y-77424059D01*
X95867351Y-77425139D01*
X95860000Y-77425500D01*
X94535000Y-77425500D01*
X94527649Y-77425139D01*
X94520368Y-77424059D01*
X94513229Y-77422271D01*
X94506299Y-77419791D01*
X94499645Y-77416644D01*
X94493332Y-77412860D01*
X94487421Y-77408476D01*
X94481967Y-77403533D01*
X94477024Y-77398079D01*
X94472640Y-77392168D01*
X94468856Y-77385855D01*
X94465709Y-77379201D01*
X94463229Y-77372271D01*
X94461441Y-77365132D01*
X94460361Y-77357851D01*
X94460000Y-77350500D01*
X94460000Y-77200500D01*
X94460361Y-77193149D01*
X94461441Y-77185868D01*
X94463229Y-77178729D01*
X94465709Y-77171799D01*
X94468856Y-77165145D01*
X94472640Y-77158832D01*
X94477024Y-77152921D01*
X94481967Y-77147467D01*
X94487421Y-77142524D01*
X94493332Y-77138140D01*
X94499645Y-77134356D01*
X94506299Y-77131209D01*
X94513229Y-77128729D01*
X94520368Y-77126941D01*
X94527649Y-77125861D01*
X94535000Y-77125500D01*
X95860000Y-77125500D01*
X95867351Y-77125861D01*
G37*
G36*
X95867351Y-77625861D02*
G01*
X95874632Y-77626941D01*
X95881771Y-77628729D01*
X95888701Y-77631209D01*
X95895355Y-77634356D01*
X95901668Y-77638140D01*
X95907579Y-77642524D01*
X95913033Y-77647467D01*
X95917976Y-77652921D01*
X95922360Y-77658832D01*
X95926144Y-77665145D01*
X95929291Y-77671799D01*
X95931771Y-77678729D01*
X95933559Y-77685868D01*
X95934639Y-77693149D01*
X95935000Y-77700500D01*
X95935000Y-77850500D01*
X95934639Y-77857851D01*
X95933559Y-77865132D01*
X95931771Y-77872271D01*
X95929291Y-77879201D01*
X95926144Y-77885855D01*
X95922360Y-77892168D01*
X95917976Y-77898079D01*
X95913033Y-77903533D01*
X95907579Y-77908476D01*
X95901668Y-77912860D01*
X95895355Y-77916644D01*
X95888701Y-77919791D01*
X95881771Y-77922271D01*
X95874632Y-77924059D01*
X95867351Y-77925139D01*
X95860000Y-77925500D01*
X94535000Y-77925500D01*
X94527649Y-77925139D01*
X94520368Y-77924059D01*
X94513229Y-77922271D01*
X94506299Y-77919791D01*
X94499645Y-77916644D01*
X94493332Y-77912860D01*
X94487421Y-77908476D01*
X94481967Y-77903533D01*
X94477024Y-77898079D01*
X94472640Y-77892168D01*
X94468856Y-77885855D01*
X94465709Y-77879201D01*
X94463229Y-77872271D01*
X94461441Y-77865132D01*
X94460361Y-77857851D01*
X94460000Y-77850500D01*
X94460000Y-77700500D01*
X94460361Y-77693149D01*
X94461441Y-77685868D01*
X94463229Y-77678729D01*
X94465709Y-77671799D01*
X94468856Y-77665145D01*
X94472640Y-77658832D01*
X94477024Y-77652921D01*
X94481967Y-77647467D01*
X94487421Y-77642524D01*
X94493332Y-77638140D01*
X94499645Y-77634356D01*
X94506299Y-77631209D01*
X94513229Y-77628729D01*
X94520368Y-77626941D01*
X94527649Y-77625861D01*
X94535000Y-77625500D01*
X95860000Y-77625500D01*
X95867351Y-77625861D01*
G37*
G36*
X95867351Y-78125861D02*
G01*
X95874632Y-78126941D01*
X95881771Y-78128729D01*
X95888701Y-78131209D01*
X95895355Y-78134356D01*
X95901668Y-78138140D01*
X95907579Y-78142524D01*
X95913033Y-78147467D01*
X95917976Y-78152921D01*
X95922360Y-78158832D01*
X95926144Y-78165145D01*
X95929291Y-78171799D01*
X95931771Y-78178729D01*
X95933559Y-78185868D01*
X95934639Y-78193149D01*
X95935000Y-78200500D01*
X95935000Y-78350500D01*
X95934639Y-78357851D01*
X95933559Y-78365132D01*
X95931771Y-78372271D01*
X95929291Y-78379201D01*
X95926144Y-78385855D01*
X95922360Y-78392168D01*
X95917976Y-78398079D01*
X95913033Y-78403533D01*
X95907579Y-78408476D01*
X95901668Y-78412860D01*
X95895355Y-78416644D01*
X95888701Y-78419791D01*
X95881771Y-78422271D01*
X95874632Y-78424059D01*
X95867351Y-78425139D01*
X95860000Y-78425500D01*
X94535000Y-78425500D01*
X94527649Y-78425139D01*
X94520368Y-78424059D01*
X94513229Y-78422271D01*
X94506299Y-78419791D01*
X94499645Y-78416644D01*
X94493332Y-78412860D01*
X94487421Y-78408476D01*
X94481967Y-78403533D01*
X94477024Y-78398079D01*
X94472640Y-78392168D01*
X94468856Y-78385855D01*
X94465709Y-78379201D01*
X94463229Y-78372271D01*
X94461441Y-78365132D01*
X94460361Y-78357851D01*
X94460000Y-78350500D01*
X94460000Y-78200500D01*
X94460361Y-78193149D01*
X94461441Y-78185868D01*
X94463229Y-78178729D01*
X94465709Y-78171799D01*
X94468856Y-78165145D01*
X94472640Y-78158832D01*
X94477024Y-78152921D01*
X94481967Y-78147467D01*
X94487421Y-78142524D01*
X94493332Y-78138140D01*
X94499645Y-78134356D01*
X94506299Y-78131209D01*
X94513229Y-78128729D01*
X94520368Y-78126941D01*
X94527649Y-78125861D01*
X94535000Y-78125500D01*
X95860000Y-78125500D01*
X95867351Y-78125861D01*
G37*
G36*
X95867351Y-78625861D02*
G01*
X95874632Y-78626941D01*
X95881771Y-78628729D01*
X95888701Y-78631209D01*
X95895355Y-78634356D01*
X95901668Y-78638140D01*
X95907579Y-78642524D01*
X95913033Y-78647467D01*
X95917976Y-78652921D01*
X95922360Y-78658832D01*
X95926144Y-78665145D01*
X95929291Y-78671799D01*
X95931771Y-78678729D01*
X95933559Y-78685868D01*
X95934639Y-78693149D01*
X95935000Y-78700500D01*
X95935000Y-78850500D01*
X95934639Y-78857851D01*
X95933559Y-78865132D01*
X95931771Y-78872271D01*
X95929291Y-78879201D01*
X95926144Y-78885855D01*
X95922360Y-78892168D01*
X95917976Y-78898079D01*
X95913033Y-78903533D01*
X95907579Y-78908476D01*
X95901668Y-78912860D01*
X95895355Y-78916644D01*
X95888701Y-78919791D01*
X95881771Y-78922271D01*
X95874632Y-78924059D01*
X95867351Y-78925139D01*
X95860000Y-78925500D01*
X94535000Y-78925500D01*
X94527649Y-78925139D01*
X94520368Y-78924059D01*
X94513229Y-78922271D01*
X94506299Y-78919791D01*
X94499645Y-78916644D01*
X94493332Y-78912860D01*
X94487421Y-78908476D01*
X94481967Y-78903533D01*
X94477024Y-78898079D01*
X94472640Y-78892168D01*
X94468856Y-78885855D01*
X94465709Y-78879201D01*
X94463229Y-78872271D01*
X94461441Y-78865132D01*
X94460361Y-78857851D01*
X94460000Y-78850500D01*
X94460000Y-78700500D01*
X94460361Y-78693149D01*
X94461441Y-78685868D01*
X94463229Y-78678729D01*
X94465709Y-78671799D01*
X94468856Y-78665145D01*
X94472640Y-78658832D01*
X94477024Y-78652921D01*
X94481967Y-78647467D01*
X94487421Y-78642524D01*
X94493332Y-78638140D01*
X94499645Y-78634356D01*
X94506299Y-78631209D01*
X94513229Y-78628729D01*
X94520368Y-78626941D01*
X94527649Y-78625861D01*
X94535000Y-78625500D01*
X95860000Y-78625500D01*
X95867351Y-78625861D01*
G37*
G36*
X95867351Y-79125861D02*
G01*
X95874632Y-79126941D01*
X95881771Y-79128729D01*
X95888701Y-79131209D01*
X95895355Y-79134356D01*
X95901668Y-79138140D01*
X95907579Y-79142524D01*
X95913033Y-79147467D01*
X95917976Y-79152921D01*
X95922360Y-79158832D01*
X95926144Y-79165145D01*
X95929291Y-79171799D01*
X95931771Y-79178729D01*
X95933559Y-79185868D01*
X95934639Y-79193149D01*
X95935000Y-79200500D01*
X95935000Y-79350500D01*
X95934639Y-79357851D01*
X95933559Y-79365132D01*
X95931771Y-79372271D01*
X95929291Y-79379201D01*
X95926144Y-79385855D01*
X95922360Y-79392168D01*
X95917976Y-79398079D01*
X95913033Y-79403533D01*
X95907579Y-79408476D01*
X95901668Y-79412860D01*
X95895355Y-79416644D01*
X95888701Y-79419791D01*
X95881771Y-79422271D01*
X95874632Y-79424059D01*
X95867351Y-79425139D01*
X95860000Y-79425500D01*
X94535000Y-79425500D01*
X94527649Y-79425139D01*
X94520368Y-79424059D01*
X94513229Y-79422271D01*
X94506299Y-79419791D01*
X94499645Y-79416644D01*
X94493332Y-79412860D01*
X94487421Y-79408476D01*
X94481967Y-79403533D01*
X94477024Y-79398079D01*
X94472640Y-79392168D01*
X94468856Y-79385855D01*
X94465709Y-79379201D01*
X94463229Y-79372271D01*
X94461441Y-79365132D01*
X94460361Y-79357851D01*
X94460000Y-79350500D01*
X94460000Y-79200500D01*
X94460361Y-79193149D01*
X94461441Y-79185868D01*
X94463229Y-79178729D01*
X94465709Y-79171799D01*
X94468856Y-79165145D01*
X94472640Y-79158832D01*
X94477024Y-79152921D01*
X94481967Y-79147467D01*
X94487421Y-79142524D01*
X94493332Y-79138140D01*
X94499645Y-79134356D01*
X94506299Y-79131209D01*
X94513229Y-79128729D01*
X94520368Y-79126941D01*
X94527649Y-79125861D01*
X94535000Y-79125500D01*
X95860000Y-79125500D01*
X95867351Y-79125861D01*
G37*
G36*
X95867351Y-79625861D02*
G01*
X95874632Y-79626941D01*
X95881771Y-79628729D01*
X95888701Y-79631209D01*
X95895355Y-79634356D01*
X95901668Y-79638140D01*
X95907579Y-79642524D01*
X95913033Y-79647467D01*
X95917976Y-79652921D01*
X95922360Y-79658832D01*
X95926144Y-79665145D01*
X95929291Y-79671799D01*
X95931771Y-79678729D01*
X95933559Y-79685868D01*
X95934639Y-79693149D01*
X95935000Y-79700500D01*
X95935000Y-79850500D01*
X95934639Y-79857851D01*
X95933559Y-79865132D01*
X95931771Y-79872271D01*
X95929291Y-79879201D01*
X95926144Y-79885855D01*
X95922360Y-79892168D01*
X95917976Y-79898079D01*
X95913033Y-79903533D01*
X95907579Y-79908476D01*
X95901668Y-79912860D01*
X95895355Y-79916644D01*
X95888701Y-79919791D01*
X95881771Y-79922271D01*
X95874632Y-79924059D01*
X95867351Y-79925139D01*
X95860000Y-79925500D01*
X94535000Y-79925500D01*
X94527649Y-79925139D01*
X94520368Y-79924059D01*
X94513229Y-79922271D01*
X94506299Y-79919791D01*
X94499645Y-79916644D01*
X94493332Y-79912860D01*
X94487421Y-79908476D01*
X94481967Y-79903533D01*
X94477024Y-79898079D01*
X94472640Y-79892168D01*
X94468856Y-79885855D01*
X94465709Y-79879201D01*
X94463229Y-79872271D01*
X94461441Y-79865132D01*
X94460361Y-79857851D01*
X94460000Y-79850500D01*
X94460000Y-79700500D01*
X94460361Y-79693149D01*
X94461441Y-79685868D01*
X94463229Y-79678729D01*
X94465709Y-79671799D01*
X94468856Y-79665145D01*
X94472640Y-79658832D01*
X94477024Y-79652921D01*
X94481967Y-79647467D01*
X94487421Y-79642524D01*
X94493332Y-79638140D01*
X94499645Y-79634356D01*
X94506299Y-79631209D01*
X94513229Y-79628729D01*
X94520368Y-79626941D01*
X94527649Y-79625861D01*
X94535000Y-79625500D01*
X95860000Y-79625500D01*
X95867351Y-79625861D01*
G37*
G36*
X95867351Y-80125861D02*
G01*
X95874632Y-80126941D01*
X95881771Y-80128729D01*
X95888701Y-80131209D01*
X95895355Y-80134356D01*
X95901668Y-80138140D01*
X95907579Y-80142524D01*
X95913033Y-80147467D01*
X95917976Y-80152921D01*
X95922360Y-80158832D01*
X95926144Y-80165145D01*
X95929291Y-80171799D01*
X95931771Y-80178729D01*
X95933559Y-80185868D01*
X95934639Y-80193149D01*
X95935000Y-80200500D01*
X95935000Y-80350500D01*
X95934639Y-80357851D01*
X95933559Y-80365132D01*
X95931771Y-80372271D01*
X95929291Y-80379201D01*
X95926144Y-80385855D01*
X95922360Y-80392168D01*
X95917976Y-80398079D01*
X95913033Y-80403533D01*
X95907579Y-80408476D01*
X95901668Y-80412860D01*
X95895355Y-80416644D01*
X95888701Y-80419791D01*
X95881771Y-80422271D01*
X95874632Y-80424059D01*
X95867351Y-80425139D01*
X95860000Y-80425500D01*
X94535000Y-80425500D01*
X94527649Y-80425139D01*
X94520368Y-80424059D01*
X94513229Y-80422271D01*
X94506299Y-80419791D01*
X94499645Y-80416644D01*
X94493332Y-80412860D01*
X94487421Y-80408476D01*
X94481967Y-80403533D01*
X94477024Y-80398079D01*
X94472640Y-80392168D01*
X94468856Y-80385855D01*
X94465709Y-80379201D01*
X94463229Y-80372271D01*
X94461441Y-80365132D01*
X94460361Y-80357851D01*
X94460000Y-80350500D01*
X94460000Y-80200500D01*
X94460361Y-80193149D01*
X94461441Y-80185868D01*
X94463229Y-80178729D01*
X94465709Y-80171799D01*
X94468856Y-80165145D01*
X94472640Y-80158832D01*
X94477024Y-80152921D01*
X94481967Y-80147467D01*
X94487421Y-80142524D01*
X94493332Y-80138140D01*
X94499645Y-80134356D01*
X94506299Y-80131209D01*
X94513229Y-80128729D01*
X94520368Y-80126941D01*
X94527649Y-80125861D01*
X94535000Y-80125500D01*
X95860000Y-80125500D01*
X95867351Y-80125861D01*
G37*
G36*
X95867351Y-80625861D02*
G01*
X95874632Y-80626941D01*
X95881771Y-80628729D01*
X95888701Y-80631209D01*
X95895355Y-80634356D01*
X95901668Y-80638140D01*
X95907579Y-80642524D01*
X95913033Y-80647467D01*
X95917976Y-80652921D01*
X95922360Y-80658832D01*
X95926144Y-80665145D01*
X95929291Y-80671799D01*
X95931771Y-80678729D01*
X95933559Y-80685868D01*
X95934639Y-80693149D01*
X95935000Y-80700500D01*
X95935000Y-80850500D01*
X95934639Y-80857851D01*
X95933559Y-80865132D01*
X95931771Y-80872271D01*
X95929291Y-80879201D01*
X95926144Y-80885855D01*
X95922360Y-80892168D01*
X95917976Y-80898079D01*
X95913033Y-80903533D01*
X95907579Y-80908476D01*
X95901668Y-80912860D01*
X95895355Y-80916644D01*
X95888701Y-80919791D01*
X95881771Y-80922271D01*
X95874632Y-80924059D01*
X95867351Y-80925139D01*
X95860000Y-80925500D01*
X94535000Y-80925500D01*
X94527649Y-80925139D01*
X94520368Y-80924059D01*
X94513229Y-80922271D01*
X94506299Y-80919791D01*
X94499645Y-80916644D01*
X94493332Y-80912860D01*
X94487421Y-80908476D01*
X94481967Y-80903533D01*
X94477024Y-80898079D01*
X94472640Y-80892168D01*
X94468856Y-80885855D01*
X94465709Y-80879201D01*
X94463229Y-80872271D01*
X94461441Y-80865132D01*
X94460361Y-80857851D01*
X94460000Y-80850500D01*
X94460000Y-80700500D01*
X94460361Y-80693149D01*
X94461441Y-80685868D01*
X94463229Y-80678729D01*
X94465709Y-80671799D01*
X94468856Y-80665145D01*
X94472640Y-80658832D01*
X94477024Y-80652921D01*
X94481967Y-80647467D01*
X94487421Y-80642524D01*
X94493332Y-80638140D01*
X94499645Y-80634356D01*
X94506299Y-80631209D01*
X94513229Y-80628729D01*
X94520368Y-80626941D01*
X94527649Y-80625861D01*
X94535000Y-80625500D01*
X95860000Y-80625500D01*
X95867351Y-80625861D01*
G37*
G36*
X93367351Y-81950861D02*
G01*
X93374632Y-81951941D01*
X93381771Y-81953729D01*
X93388701Y-81956209D01*
X93395355Y-81959356D01*
X93401668Y-81963140D01*
X93407579Y-81967524D01*
X93413033Y-81972467D01*
X93417976Y-81977921D01*
X93422360Y-81983832D01*
X93426144Y-81990145D01*
X93429291Y-81996799D01*
X93431771Y-82003729D01*
X93433559Y-82010868D01*
X93434639Y-82018149D01*
X93435000Y-82025500D01*
X93435000Y-83350500D01*
X93434639Y-83357851D01*
X93433559Y-83365132D01*
X93431771Y-83372271D01*
X93429291Y-83379201D01*
X93426144Y-83385855D01*
X93422360Y-83392168D01*
X93417976Y-83398079D01*
X93413033Y-83403533D01*
X93407579Y-83408476D01*
X93401668Y-83412860D01*
X93395355Y-83416644D01*
X93388701Y-83419791D01*
X93381771Y-83422271D01*
X93374632Y-83424059D01*
X93367351Y-83425139D01*
X93360000Y-83425500D01*
X93210000Y-83425500D01*
X93202649Y-83425139D01*
X93195368Y-83424059D01*
X93188229Y-83422271D01*
X93181299Y-83419791D01*
X93174645Y-83416644D01*
X93168332Y-83412860D01*
X93162421Y-83408476D01*
X93156967Y-83403533D01*
X93152024Y-83398079D01*
X93147640Y-83392168D01*
X93143856Y-83385855D01*
X93140709Y-83379201D01*
X93138229Y-83372271D01*
X93136441Y-83365132D01*
X93135361Y-83357851D01*
X93135000Y-83350500D01*
X93135000Y-82025500D01*
X93135361Y-82018149D01*
X93136441Y-82010868D01*
X93138229Y-82003729D01*
X93140709Y-81996799D01*
X93143856Y-81990145D01*
X93147640Y-81983832D01*
X93152024Y-81977921D01*
X93156967Y-81972467D01*
X93162421Y-81967524D01*
X93168332Y-81963140D01*
X93174645Y-81959356D01*
X93181299Y-81956209D01*
X93188229Y-81953729D01*
X93195368Y-81951941D01*
X93202649Y-81950861D01*
X93210000Y-81950500D01*
X93360000Y-81950500D01*
X93367351Y-81950861D01*
G37*
G36*
X92867351Y-81950861D02*
G01*
X92874632Y-81951941D01*
X92881771Y-81953729D01*
X92888701Y-81956209D01*
X92895355Y-81959356D01*
X92901668Y-81963140D01*
X92907579Y-81967524D01*
X92913033Y-81972467D01*
X92917976Y-81977921D01*
X92922360Y-81983832D01*
X92926144Y-81990145D01*
X92929291Y-81996799D01*
X92931771Y-82003729D01*
X92933559Y-82010868D01*
X92934639Y-82018149D01*
X92935000Y-82025500D01*
X92935000Y-83350500D01*
X92934639Y-83357851D01*
X92933559Y-83365132D01*
X92931771Y-83372271D01*
X92929291Y-83379201D01*
X92926144Y-83385855D01*
X92922360Y-83392168D01*
X92917976Y-83398079D01*
X92913033Y-83403533D01*
X92907579Y-83408476D01*
X92901668Y-83412860D01*
X92895355Y-83416644D01*
X92888701Y-83419791D01*
X92881771Y-83422271D01*
X92874632Y-83424059D01*
X92867351Y-83425139D01*
X92860000Y-83425500D01*
X92710000Y-83425500D01*
X92702649Y-83425139D01*
X92695368Y-83424059D01*
X92688229Y-83422271D01*
X92681299Y-83419791D01*
X92674645Y-83416644D01*
X92668332Y-83412860D01*
X92662421Y-83408476D01*
X92656967Y-83403533D01*
X92652024Y-83398079D01*
X92647640Y-83392168D01*
X92643856Y-83385855D01*
X92640709Y-83379201D01*
X92638229Y-83372271D01*
X92636441Y-83365132D01*
X92635361Y-83357851D01*
X92635000Y-83350500D01*
X92635000Y-82025500D01*
X92635361Y-82018149D01*
X92636441Y-82010868D01*
X92638229Y-82003729D01*
X92640709Y-81996799D01*
X92643856Y-81990145D01*
X92647640Y-81983832D01*
X92652024Y-81977921D01*
X92656967Y-81972467D01*
X92662421Y-81967524D01*
X92668332Y-81963140D01*
X92674645Y-81959356D01*
X92681299Y-81956209D01*
X92688229Y-81953729D01*
X92695368Y-81951941D01*
X92702649Y-81950861D01*
X92710000Y-81950500D01*
X92860000Y-81950500D01*
X92867351Y-81950861D01*
G37*
G36*
X92367351Y-81950861D02*
G01*
X92374632Y-81951941D01*
X92381771Y-81953729D01*
X92388701Y-81956209D01*
X92395355Y-81959356D01*
X92401668Y-81963140D01*
X92407579Y-81967524D01*
X92413033Y-81972467D01*
X92417976Y-81977921D01*
X92422360Y-81983832D01*
X92426144Y-81990145D01*
X92429291Y-81996799D01*
X92431771Y-82003729D01*
X92433559Y-82010868D01*
X92434639Y-82018149D01*
X92435000Y-82025500D01*
X92435000Y-83350500D01*
X92434639Y-83357851D01*
X92433559Y-83365132D01*
X92431771Y-83372271D01*
X92429291Y-83379201D01*
X92426144Y-83385855D01*
X92422360Y-83392168D01*
X92417976Y-83398079D01*
X92413033Y-83403533D01*
X92407579Y-83408476D01*
X92401668Y-83412860D01*
X92395355Y-83416644D01*
X92388701Y-83419791D01*
X92381771Y-83422271D01*
X92374632Y-83424059D01*
X92367351Y-83425139D01*
X92360000Y-83425500D01*
X92210000Y-83425500D01*
X92202649Y-83425139D01*
X92195368Y-83424059D01*
X92188229Y-83422271D01*
X92181299Y-83419791D01*
X92174645Y-83416644D01*
X92168332Y-83412860D01*
X92162421Y-83408476D01*
X92156967Y-83403533D01*
X92152024Y-83398079D01*
X92147640Y-83392168D01*
X92143856Y-83385855D01*
X92140709Y-83379201D01*
X92138229Y-83372271D01*
X92136441Y-83365132D01*
X92135361Y-83357851D01*
X92135000Y-83350500D01*
X92135000Y-82025500D01*
X92135361Y-82018149D01*
X92136441Y-82010868D01*
X92138229Y-82003729D01*
X92140709Y-81996799D01*
X92143856Y-81990145D01*
X92147640Y-81983832D01*
X92152024Y-81977921D01*
X92156967Y-81972467D01*
X92162421Y-81967524D01*
X92168332Y-81963140D01*
X92174645Y-81959356D01*
X92181299Y-81956209D01*
X92188229Y-81953729D01*
X92195368Y-81951941D01*
X92202649Y-81950861D01*
X92210000Y-81950500D01*
X92360000Y-81950500D01*
X92367351Y-81950861D01*
G37*
G36*
X91867351Y-81950861D02*
G01*
X91874632Y-81951941D01*
X91881771Y-81953729D01*
X91888701Y-81956209D01*
X91895355Y-81959356D01*
X91901668Y-81963140D01*
X91907579Y-81967524D01*
X91913033Y-81972467D01*
X91917976Y-81977921D01*
X91922360Y-81983832D01*
X91926144Y-81990145D01*
X91929291Y-81996799D01*
X91931771Y-82003729D01*
X91933559Y-82010868D01*
X91934639Y-82018149D01*
X91935000Y-82025500D01*
X91935000Y-83350500D01*
X91934639Y-83357851D01*
X91933559Y-83365132D01*
X91931771Y-83372271D01*
X91929291Y-83379201D01*
X91926144Y-83385855D01*
X91922360Y-83392168D01*
X91917976Y-83398079D01*
X91913033Y-83403533D01*
X91907579Y-83408476D01*
X91901668Y-83412860D01*
X91895355Y-83416644D01*
X91888701Y-83419791D01*
X91881771Y-83422271D01*
X91874632Y-83424059D01*
X91867351Y-83425139D01*
X91860000Y-83425500D01*
X91710000Y-83425500D01*
X91702649Y-83425139D01*
X91695368Y-83424059D01*
X91688229Y-83422271D01*
X91681299Y-83419791D01*
X91674645Y-83416644D01*
X91668332Y-83412860D01*
X91662421Y-83408476D01*
X91656967Y-83403533D01*
X91652024Y-83398079D01*
X91647640Y-83392168D01*
X91643856Y-83385855D01*
X91640709Y-83379201D01*
X91638229Y-83372271D01*
X91636441Y-83365132D01*
X91635361Y-83357851D01*
X91635000Y-83350500D01*
X91635000Y-82025500D01*
X91635361Y-82018149D01*
X91636441Y-82010868D01*
X91638229Y-82003729D01*
X91640709Y-81996799D01*
X91643856Y-81990145D01*
X91647640Y-81983832D01*
X91652024Y-81977921D01*
X91656967Y-81972467D01*
X91662421Y-81967524D01*
X91668332Y-81963140D01*
X91674645Y-81959356D01*
X91681299Y-81956209D01*
X91688229Y-81953729D01*
X91695368Y-81951941D01*
X91702649Y-81950861D01*
X91710000Y-81950500D01*
X91860000Y-81950500D01*
X91867351Y-81950861D01*
G37*
G36*
X91367351Y-81950861D02*
G01*
X91374632Y-81951941D01*
X91381771Y-81953729D01*
X91388701Y-81956209D01*
X91395355Y-81959356D01*
X91401668Y-81963140D01*
X91407579Y-81967524D01*
X91413033Y-81972467D01*
X91417976Y-81977921D01*
X91422360Y-81983832D01*
X91426144Y-81990145D01*
X91429291Y-81996799D01*
X91431771Y-82003729D01*
X91433559Y-82010868D01*
X91434639Y-82018149D01*
X91435000Y-82025500D01*
X91435000Y-83350500D01*
X91434639Y-83357851D01*
X91433559Y-83365132D01*
X91431771Y-83372271D01*
X91429291Y-83379201D01*
X91426144Y-83385855D01*
X91422360Y-83392168D01*
X91417976Y-83398079D01*
X91413033Y-83403533D01*
X91407579Y-83408476D01*
X91401668Y-83412860D01*
X91395355Y-83416644D01*
X91388701Y-83419791D01*
X91381771Y-83422271D01*
X91374632Y-83424059D01*
X91367351Y-83425139D01*
X91360000Y-83425500D01*
X91210000Y-83425500D01*
X91202649Y-83425139D01*
X91195368Y-83424059D01*
X91188229Y-83422271D01*
X91181299Y-83419791D01*
X91174645Y-83416644D01*
X91168332Y-83412860D01*
X91162421Y-83408476D01*
X91156967Y-83403533D01*
X91152024Y-83398079D01*
X91147640Y-83392168D01*
X91143856Y-83385855D01*
X91140709Y-83379201D01*
X91138229Y-83372271D01*
X91136441Y-83365132D01*
X91135361Y-83357851D01*
X91135000Y-83350500D01*
X91135000Y-82025500D01*
X91135361Y-82018149D01*
X91136441Y-82010868D01*
X91138229Y-82003729D01*
X91140709Y-81996799D01*
X91143856Y-81990145D01*
X91147640Y-81983832D01*
X91152024Y-81977921D01*
X91156967Y-81972467D01*
X91162421Y-81967524D01*
X91168332Y-81963140D01*
X91174645Y-81959356D01*
X91181299Y-81956209D01*
X91188229Y-81953729D01*
X91195368Y-81951941D01*
X91202649Y-81950861D01*
X91210000Y-81950500D01*
X91360000Y-81950500D01*
X91367351Y-81950861D01*
G37*
G36*
X90867351Y-81950861D02*
G01*
X90874632Y-81951941D01*
X90881771Y-81953729D01*
X90888701Y-81956209D01*
X90895355Y-81959356D01*
X90901668Y-81963140D01*
X90907579Y-81967524D01*
X90913033Y-81972467D01*
X90917976Y-81977921D01*
X90922360Y-81983832D01*
X90926144Y-81990145D01*
X90929291Y-81996799D01*
X90931771Y-82003729D01*
X90933559Y-82010868D01*
X90934639Y-82018149D01*
X90935000Y-82025500D01*
X90935000Y-83350500D01*
X90934639Y-83357851D01*
X90933559Y-83365132D01*
X90931771Y-83372271D01*
X90929291Y-83379201D01*
X90926144Y-83385855D01*
X90922360Y-83392168D01*
X90917976Y-83398079D01*
X90913033Y-83403533D01*
X90907579Y-83408476D01*
X90901668Y-83412860D01*
X90895355Y-83416644D01*
X90888701Y-83419791D01*
X90881771Y-83422271D01*
X90874632Y-83424059D01*
X90867351Y-83425139D01*
X90860000Y-83425500D01*
X90710000Y-83425500D01*
X90702649Y-83425139D01*
X90695368Y-83424059D01*
X90688229Y-83422271D01*
X90681299Y-83419791D01*
X90674645Y-83416644D01*
X90668332Y-83412860D01*
X90662421Y-83408476D01*
X90656967Y-83403533D01*
X90652024Y-83398079D01*
X90647640Y-83392168D01*
X90643856Y-83385855D01*
X90640709Y-83379201D01*
X90638229Y-83372271D01*
X90636441Y-83365132D01*
X90635361Y-83357851D01*
X90635000Y-83350500D01*
X90635000Y-82025500D01*
X90635361Y-82018149D01*
X90636441Y-82010868D01*
X90638229Y-82003729D01*
X90640709Y-81996799D01*
X90643856Y-81990145D01*
X90647640Y-81983832D01*
X90652024Y-81977921D01*
X90656967Y-81972467D01*
X90662421Y-81967524D01*
X90668332Y-81963140D01*
X90674645Y-81959356D01*
X90681299Y-81956209D01*
X90688229Y-81953729D01*
X90695368Y-81951941D01*
X90702649Y-81950861D01*
X90710000Y-81950500D01*
X90860000Y-81950500D01*
X90867351Y-81950861D01*
G37*
G36*
X90367351Y-81950861D02*
G01*
X90374632Y-81951941D01*
X90381771Y-81953729D01*
X90388701Y-81956209D01*
X90395355Y-81959356D01*
X90401668Y-81963140D01*
X90407579Y-81967524D01*
X90413033Y-81972467D01*
X90417976Y-81977921D01*
X90422360Y-81983832D01*
X90426144Y-81990145D01*
X90429291Y-81996799D01*
X90431771Y-82003729D01*
X90433559Y-82010868D01*
X90434639Y-82018149D01*
X90435000Y-82025500D01*
X90435000Y-83350500D01*
X90434639Y-83357851D01*
X90433559Y-83365132D01*
X90431771Y-83372271D01*
X90429291Y-83379201D01*
X90426144Y-83385855D01*
X90422360Y-83392168D01*
X90417976Y-83398079D01*
X90413033Y-83403533D01*
X90407579Y-83408476D01*
X90401668Y-83412860D01*
X90395355Y-83416644D01*
X90388701Y-83419791D01*
X90381771Y-83422271D01*
X90374632Y-83424059D01*
X90367351Y-83425139D01*
X90360000Y-83425500D01*
X90210000Y-83425500D01*
X90202649Y-83425139D01*
X90195368Y-83424059D01*
X90188229Y-83422271D01*
X90181299Y-83419791D01*
X90174645Y-83416644D01*
X90168332Y-83412860D01*
X90162421Y-83408476D01*
X90156967Y-83403533D01*
X90152024Y-83398079D01*
X90147640Y-83392168D01*
X90143856Y-83385855D01*
X90140709Y-83379201D01*
X90138229Y-83372271D01*
X90136441Y-83365132D01*
X90135361Y-83357851D01*
X90135000Y-83350500D01*
X90135000Y-82025500D01*
X90135361Y-82018149D01*
X90136441Y-82010868D01*
X90138229Y-82003729D01*
X90140709Y-81996799D01*
X90143856Y-81990145D01*
X90147640Y-81983832D01*
X90152024Y-81977921D01*
X90156967Y-81972467D01*
X90162421Y-81967524D01*
X90168332Y-81963140D01*
X90174645Y-81959356D01*
X90181299Y-81956209D01*
X90188229Y-81953729D01*
X90195368Y-81951941D01*
X90202649Y-81950861D01*
X90210000Y-81950500D01*
X90360000Y-81950500D01*
X90367351Y-81950861D01*
G37*
G36*
X89867351Y-81950861D02*
G01*
X89874632Y-81951941D01*
X89881771Y-81953729D01*
X89888701Y-81956209D01*
X89895355Y-81959356D01*
X89901668Y-81963140D01*
X89907579Y-81967524D01*
X89913033Y-81972467D01*
X89917976Y-81977921D01*
X89922360Y-81983832D01*
X89926144Y-81990145D01*
X89929291Y-81996799D01*
X89931771Y-82003729D01*
X89933559Y-82010868D01*
X89934639Y-82018149D01*
X89935000Y-82025500D01*
X89935000Y-83350500D01*
X89934639Y-83357851D01*
X89933559Y-83365132D01*
X89931771Y-83372271D01*
X89929291Y-83379201D01*
X89926144Y-83385855D01*
X89922360Y-83392168D01*
X89917976Y-83398079D01*
X89913033Y-83403533D01*
X89907579Y-83408476D01*
X89901668Y-83412860D01*
X89895355Y-83416644D01*
X89888701Y-83419791D01*
X89881771Y-83422271D01*
X89874632Y-83424059D01*
X89867351Y-83425139D01*
X89860000Y-83425500D01*
X89710000Y-83425500D01*
X89702649Y-83425139D01*
X89695368Y-83424059D01*
X89688229Y-83422271D01*
X89681299Y-83419791D01*
X89674645Y-83416644D01*
X89668332Y-83412860D01*
X89662421Y-83408476D01*
X89656967Y-83403533D01*
X89652024Y-83398079D01*
X89647640Y-83392168D01*
X89643856Y-83385855D01*
X89640709Y-83379201D01*
X89638229Y-83372271D01*
X89636441Y-83365132D01*
X89635361Y-83357851D01*
X89635000Y-83350500D01*
X89635000Y-82025500D01*
X89635361Y-82018149D01*
X89636441Y-82010868D01*
X89638229Y-82003729D01*
X89640709Y-81996799D01*
X89643856Y-81990145D01*
X89647640Y-81983832D01*
X89652024Y-81977921D01*
X89656967Y-81972467D01*
X89662421Y-81967524D01*
X89668332Y-81963140D01*
X89674645Y-81959356D01*
X89681299Y-81956209D01*
X89688229Y-81953729D01*
X89695368Y-81951941D01*
X89702649Y-81950861D01*
X89710000Y-81950500D01*
X89860000Y-81950500D01*
X89867351Y-81950861D01*
G37*
G36*
X89367351Y-81950861D02*
G01*
X89374632Y-81951941D01*
X89381771Y-81953729D01*
X89388701Y-81956209D01*
X89395355Y-81959356D01*
X89401668Y-81963140D01*
X89407579Y-81967524D01*
X89413033Y-81972467D01*
X89417976Y-81977921D01*
X89422360Y-81983832D01*
X89426144Y-81990145D01*
X89429291Y-81996799D01*
X89431771Y-82003729D01*
X89433559Y-82010868D01*
X89434639Y-82018149D01*
X89435000Y-82025500D01*
X89435000Y-83350500D01*
X89434639Y-83357851D01*
X89433559Y-83365132D01*
X89431771Y-83372271D01*
X89429291Y-83379201D01*
X89426144Y-83385855D01*
X89422360Y-83392168D01*
X89417976Y-83398079D01*
X89413033Y-83403533D01*
X89407579Y-83408476D01*
X89401668Y-83412860D01*
X89395355Y-83416644D01*
X89388701Y-83419791D01*
X89381771Y-83422271D01*
X89374632Y-83424059D01*
X89367351Y-83425139D01*
X89360000Y-83425500D01*
X89210000Y-83425500D01*
X89202649Y-83425139D01*
X89195368Y-83424059D01*
X89188229Y-83422271D01*
X89181299Y-83419791D01*
X89174645Y-83416644D01*
X89168332Y-83412860D01*
X89162421Y-83408476D01*
X89156967Y-83403533D01*
X89152024Y-83398079D01*
X89147640Y-83392168D01*
X89143856Y-83385855D01*
X89140709Y-83379201D01*
X89138229Y-83372271D01*
X89136441Y-83365132D01*
X89135361Y-83357851D01*
X89135000Y-83350500D01*
X89135000Y-82025500D01*
X89135361Y-82018149D01*
X89136441Y-82010868D01*
X89138229Y-82003729D01*
X89140709Y-81996799D01*
X89143856Y-81990145D01*
X89147640Y-81983832D01*
X89152024Y-81977921D01*
X89156967Y-81972467D01*
X89162421Y-81967524D01*
X89168332Y-81963140D01*
X89174645Y-81959356D01*
X89181299Y-81956209D01*
X89188229Y-81953729D01*
X89195368Y-81951941D01*
X89202649Y-81950861D01*
X89210000Y-81950500D01*
X89360000Y-81950500D01*
X89367351Y-81950861D01*
G37*
G36*
X88867351Y-81950861D02*
G01*
X88874632Y-81951941D01*
X88881771Y-81953729D01*
X88888701Y-81956209D01*
X88895355Y-81959356D01*
X88901668Y-81963140D01*
X88907579Y-81967524D01*
X88913033Y-81972467D01*
X88917976Y-81977921D01*
X88922360Y-81983832D01*
X88926144Y-81990145D01*
X88929291Y-81996799D01*
X88931771Y-82003729D01*
X88933559Y-82010868D01*
X88934639Y-82018149D01*
X88935000Y-82025500D01*
X88935000Y-83350500D01*
X88934639Y-83357851D01*
X88933559Y-83365132D01*
X88931771Y-83372271D01*
X88929291Y-83379201D01*
X88926144Y-83385855D01*
X88922360Y-83392168D01*
X88917976Y-83398079D01*
X88913033Y-83403533D01*
X88907579Y-83408476D01*
X88901668Y-83412860D01*
X88895355Y-83416644D01*
X88888701Y-83419791D01*
X88881771Y-83422271D01*
X88874632Y-83424059D01*
X88867351Y-83425139D01*
X88860000Y-83425500D01*
X88710000Y-83425500D01*
X88702649Y-83425139D01*
X88695368Y-83424059D01*
X88688229Y-83422271D01*
X88681299Y-83419791D01*
X88674645Y-83416644D01*
X88668332Y-83412860D01*
X88662421Y-83408476D01*
X88656967Y-83403533D01*
X88652024Y-83398079D01*
X88647640Y-83392168D01*
X88643856Y-83385855D01*
X88640709Y-83379201D01*
X88638229Y-83372271D01*
X88636441Y-83365132D01*
X88635361Y-83357851D01*
X88635000Y-83350500D01*
X88635000Y-82025500D01*
X88635361Y-82018149D01*
X88636441Y-82010868D01*
X88638229Y-82003729D01*
X88640709Y-81996799D01*
X88643856Y-81990145D01*
X88647640Y-81983832D01*
X88652024Y-81977921D01*
X88656967Y-81972467D01*
X88662421Y-81967524D01*
X88668332Y-81963140D01*
X88674645Y-81959356D01*
X88681299Y-81956209D01*
X88688229Y-81953729D01*
X88695368Y-81951941D01*
X88702649Y-81950861D01*
X88710000Y-81950500D01*
X88860000Y-81950500D01*
X88867351Y-81950861D01*
G37*
G36*
X88367351Y-81950861D02*
G01*
X88374632Y-81951941D01*
X88381771Y-81953729D01*
X88388701Y-81956209D01*
X88395355Y-81959356D01*
X88401668Y-81963140D01*
X88407579Y-81967524D01*
X88413033Y-81972467D01*
X88417976Y-81977921D01*
X88422360Y-81983832D01*
X88426144Y-81990145D01*
X88429291Y-81996799D01*
X88431771Y-82003729D01*
X88433559Y-82010868D01*
X88434639Y-82018149D01*
X88435000Y-82025500D01*
X88435000Y-83350500D01*
X88434639Y-83357851D01*
X88433559Y-83365132D01*
X88431771Y-83372271D01*
X88429291Y-83379201D01*
X88426144Y-83385855D01*
X88422360Y-83392168D01*
X88417976Y-83398079D01*
X88413033Y-83403533D01*
X88407579Y-83408476D01*
X88401668Y-83412860D01*
X88395355Y-83416644D01*
X88388701Y-83419791D01*
X88381771Y-83422271D01*
X88374632Y-83424059D01*
X88367351Y-83425139D01*
X88360000Y-83425500D01*
X88210000Y-83425500D01*
X88202649Y-83425139D01*
X88195368Y-83424059D01*
X88188229Y-83422271D01*
X88181299Y-83419791D01*
X88174645Y-83416644D01*
X88168332Y-83412860D01*
X88162421Y-83408476D01*
X88156967Y-83403533D01*
X88152024Y-83398079D01*
X88147640Y-83392168D01*
X88143856Y-83385855D01*
X88140709Y-83379201D01*
X88138229Y-83372271D01*
X88136441Y-83365132D01*
X88135361Y-83357851D01*
X88135000Y-83350500D01*
X88135000Y-82025500D01*
X88135361Y-82018149D01*
X88136441Y-82010868D01*
X88138229Y-82003729D01*
X88140709Y-81996799D01*
X88143856Y-81990145D01*
X88147640Y-81983832D01*
X88152024Y-81977921D01*
X88156967Y-81972467D01*
X88162421Y-81967524D01*
X88168332Y-81963140D01*
X88174645Y-81959356D01*
X88181299Y-81956209D01*
X88188229Y-81953729D01*
X88195368Y-81951941D01*
X88202649Y-81950861D01*
X88210000Y-81950500D01*
X88360000Y-81950500D01*
X88367351Y-81950861D01*
G37*
G36*
X87867351Y-81950861D02*
G01*
X87874632Y-81951941D01*
X87881771Y-81953729D01*
X87888701Y-81956209D01*
X87895355Y-81959356D01*
X87901668Y-81963140D01*
X87907579Y-81967524D01*
X87913033Y-81972467D01*
X87917976Y-81977921D01*
X87922360Y-81983832D01*
X87926144Y-81990145D01*
X87929291Y-81996799D01*
X87931771Y-82003729D01*
X87933559Y-82010868D01*
X87934639Y-82018149D01*
X87935000Y-82025500D01*
X87935000Y-83350500D01*
X87934639Y-83357851D01*
X87933559Y-83365132D01*
X87931771Y-83372271D01*
X87929291Y-83379201D01*
X87926144Y-83385855D01*
X87922360Y-83392168D01*
X87917976Y-83398079D01*
X87913033Y-83403533D01*
X87907579Y-83408476D01*
X87901668Y-83412860D01*
X87895355Y-83416644D01*
X87888701Y-83419791D01*
X87881771Y-83422271D01*
X87874632Y-83424059D01*
X87867351Y-83425139D01*
X87860000Y-83425500D01*
X87710000Y-83425500D01*
X87702649Y-83425139D01*
X87695368Y-83424059D01*
X87688229Y-83422271D01*
X87681299Y-83419791D01*
X87674645Y-83416644D01*
X87668332Y-83412860D01*
X87662421Y-83408476D01*
X87656967Y-83403533D01*
X87652024Y-83398079D01*
X87647640Y-83392168D01*
X87643856Y-83385855D01*
X87640709Y-83379201D01*
X87638229Y-83372271D01*
X87636441Y-83365132D01*
X87635361Y-83357851D01*
X87635000Y-83350500D01*
X87635000Y-82025500D01*
X87635361Y-82018149D01*
X87636441Y-82010868D01*
X87638229Y-82003729D01*
X87640709Y-81996799D01*
X87643856Y-81990145D01*
X87647640Y-81983832D01*
X87652024Y-81977921D01*
X87656967Y-81972467D01*
X87662421Y-81967524D01*
X87668332Y-81963140D01*
X87674645Y-81959356D01*
X87681299Y-81956209D01*
X87688229Y-81953729D01*
X87695368Y-81951941D01*
X87702649Y-81950861D01*
X87710000Y-81950500D01*
X87860000Y-81950500D01*
X87867351Y-81950861D01*
G37*
G36*
X87367351Y-81950861D02*
G01*
X87374632Y-81951941D01*
X87381771Y-81953729D01*
X87388701Y-81956209D01*
X87395355Y-81959356D01*
X87401668Y-81963140D01*
X87407579Y-81967524D01*
X87413033Y-81972467D01*
X87417976Y-81977921D01*
X87422360Y-81983832D01*
X87426144Y-81990145D01*
X87429291Y-81996799D01*
X87431771Y-82003729D01*
X87433559Y-82010868D01*
X87434639Y-82018149D01*
X87435000Y-82025500D01*
X87435000Y-83350500D01*
X87434639Y-83357851D01*
X87433559Y-83365132D01*
X87431771Y-83372271D01*
X87429291Y-83379201D01*
X87426144Y-83385855D01*
X87422360Y-83392168D01*
X87417976Y-83398079D01*
X87413033Y-83403533D01*
X87407579Y-83408476D01*
X87401668Y-83412860D01*
X87395355Y-83416644D01*
X87388701Y-83419791D01*
X87381771Y-83422271D01*
X87374632Y-83424059D01*
X87367351Y-83425139D01*
X87360000Y-83425500D01*
X87210000Y-83425500D01*
X87202649Y-83425139D01*
X87195368Y-83424059D01*
X87188229Y-83422271D01*
X87181299Y-83419791D01*
X87174645Y-83416644D01*
X87168332Y-83412860D01*
X87162421Y-83408476D01*
X87156967Y-83403533D01*
X87152024Y-83398079D01*
X87147640Y-83392168D01*
X87143856Y-83385855D01*
X87140709Y-83379201D01*
X87138229Y-83372271D01*
X87136441Y-83365132D01*
X87135361Y-83357851D01*
X87135000Y-83350500D01*
X87135000Y-82025500D01*
X87135361Y-82018149D01*
X87136441Y-82010868D01*
X87138229Y-82003729D01*
X87140709Y-81996799D01*
X87143856Y-81990145D01*
X87147640Y-81983832D01*
X87152024Y-81977921D01*
X87156967Y-81972467D01*
X87162421Y-81967524D01*
X87168332Y-81963140D01*
X87174645Y-81959356D01*
X87181299Y-81956209D01*
X87188229Y-81953729D01*
X87195368Y-81951941D01*
X87202649Y-81950861D01*
X87210000Y-81950500D01*
X87360000Y-81950500D01*
X87367351Y-81950861D01*
G37*
G36*
X86867351Y-81950861D02*
G01*
X86874632Y-81951941D01*
X86881771Y-81953729D01*
X86888701Y-81956209D01*
X86895355Y-81959356D01*
X86901668Y-81963140D01*
X86907579Y-81967524D01*
X86913033Y-81972467D01*
X86917976Y-81977921D01*
X86922360Y-81983832D01*
X86926144Y-81990145D01*
X86929291Y-81996799D01*
X86931771Y-82003729D01*
X86933559Y-82010868D01*
X86934639Y-82018149D01*
X86935000Y-82025500D01*
X86935000Y-83350500D01*
X86934639Y-83357851D01*
X86933559Y-83365132D01*
X86931771Y-83372271D01*
X86929291Y-83379201D01*
X86926144Y-83385855D01*
X86922360Y-83392168D01*
X86917976Y-83398079D01*
X86913033Y-83403533D01*
X86907579Y-83408476D01*
X86901668Y-83412860D01*
X86895355Y-83416644D01*
X86888701Y-83419791D01*
X86881771Y-83422271D01*
X86874632Y-83424059D01*
X86867351Y-83425139D01*
X86860000Y-83425500D01*
X86710000Y-83425500D01*
X86702649Y-83425139D01*
X86695368Y-83424059D01*
X86688229Y-83422271D01*
X86681299Y-83419791D01*
X86674645Y-83416644D01*
X86668332Y-83412860D01*
X86662421Y-83408476D01*
X86656967Y-83403533D01*
X86652024Y-83398079D01*
X86647640Y-83392168D01*
X86643856Y-83385855D01*
X86640709Y-83379201D01*
X86638229Y-83372271D01*
X86636441Y-83365132D01*
X86635361Y-83357851D01*
X86635000Y-83350500D01*
X86635000Y-82025500D01*
X86635361Y-82018149D01*
X86636441Y-82010868D01*
X86638229Y-82003729D01*
X86640709Y-81996799D01*
X86643856Y-81990145D01*
X86647640Y-81983832D01*
X86652024Y-81977921D01*
X86656967Y-81972467D01*
X86662421Y-81967524D01*
X86668332Y-81963140D01*
X86674645Y-81959356D01*
X86681299Y-81956209D01*
X86688229Y-81953729D01*
X86695368Y-81951941D01*
X86702649Y-81950861D01*
X86710000Y-81950500D01*
X86860000Y-81950500D01*
X86867351Y-81950861D01*
G37*
G36*
X86367351Y-81950861D02*
G01*
X86374632Y-81951941D01*
X86381771Y-81953729D01*
X86388701Y-81956209D01*
X86395355Y-81959356D01*
X86401668Y-81963140D01*
X86407579Y-81967524D01*
X86413033Y-81972467D01*
X86417976Y-81977921D01*
X86422360Y-81983832D01*
X86426144Y-81990145D01*
X86429291Y-81996799D01*
X86431771Y-82003729D01*
X86433559Y-82010868D01*
X86434639Y-82018149D01*
X86435000Y-82025500D01*
X86435000Y-83350500D01*
X86434639Y-83357851D01*
X86433559Y-83365132D01*
X86431771Y-83372271D01*
X86429291Y-83379201D01*
X86426144Y-83385855D01*
X86422360Y-83392168D01*
X86417976Y-83398079D01*
X86413033Y-83403533D01*
X86407579Y-83408476D01*
X86401668Y-83412860D01*
X86395355Y-83416644D01*
X86388701Y-83419791D01*
X86381771Y-83422271D01*
X86374632Y-83424059D01*
X86367351Y-83425139D01*
X86360000Y-83425500D01*
X86210000Y-83425500D01*
X86202649Y-83425139D01*
X86195368Y-83424059D01*
X86188229Y-83422271D01*
X86181299Y-83419791D01*
X86174645Y-83416644D01*
X86168332Y-83412860D01*
X86162421Y-83408476D01*
X86156967Y-83403533D01*
X86152024Y-83398079D01*
X86147640Y-83392168D01*
X86143856Y-83385855D01*
X86140709Y-83379201D01*
X86138229Y-83372271D01*
X86136441Y-83365132D01*
X86135361Y-83357851D01*
X86135000Y-83350500D01*
X86135000Y-82025500D01*
X86135361Y-82018149D01*
X86136441Y-82010868D01*
X86138229Y-82003729D01*
X86140709Y-81996799D01*
X86143856Y-81990145D01*
X86147640Y-81983832D01*
X86152024Y-81977921D01*
X86156967Y-81972467D01*
X86162421Y-81967524D01*
X86168332Y-81963140D01*
X86174645Y-81959356D01*
X86181299Y-81956209D01*
X86188229Y-81953729D01*
X86195368Y-81951941D01*
X86202649Y-81950861D01*
X86210000Y-81950500D01*
X86360000Y-81950500D01*
X86367351Y-81950861D01*
G37*
G36*
X85867351Y-81950861D02*
G01*
X85874632Y-81951941D01*
X85881771Y-81953729D01*
X85888701Y-81956209D01*
X85895355Y-81959356D01*
X85901668Y-81963140D01*
X85907579Y-81967524D01*
X85913033Y-81972467D01*
X85917976Y-81977921D01*
X85922360Y-81983832D01*
X85926144Y-81990145D01*
X85929291Y-81996799D01*
X85931771Y-82003729D01*
X85933559Y-82010868D01*
X85934639Y-82018149D01*
X85935000Y-82025500D01*
X85935000Y-83350500D01*
X85934639Y-83357851D01*
X85933559Y-83365132D01*
X85931771Y-83372271D01*
X85929291Y-83379201D01*
X85926144Y-83385855D01*
X85922360Y-83392168D01*
X85917976Y-83398079D01*
X85913033Y-83403533D01*
X85907579Y-83408476D01*
X85901668Y-83412860D01*
X85895355Y-83416644D01*
X85888701Y-83419791D01*
X85881771Y-83422271D01*
X85874632Y-83424059D01*
X85867351Y-83425139D01*
X85860000Y-83425500D01*
X85710000Y-83425500D01*
X85702649Y-83425139D01*
X85695368Y-83424059D01*
X85688229Y-83422271D01*
X85681299Y-83419791D01*
X85674645Y-83416644D01*
X85668332Y-83412860D01*
X85662421Y-83408476D01*
X85656967Y-83403533D01*
X85652024Y-83398079D01*
X85647640Y-83392168D01*
X85643856Y-83385855D01*
X85640709Y-83379201D01*
X85638229Y-83372271D01*
X85636441Y-83365132D01*
X85635361Y-83357851D01*
X85635000Y-83350500D01*
X85635000Y-82025500D01*
X85635361Y-82018149D01*
X85636441Y-82010868D01*
X85638229Y-82003729D01*
X85640709Y-81996799D01*
X85643856Y-81990145D01*
X85647640Y-81983832D01*
X85652024Y-81977921D01*
X85656967Y-81972467D01*
X85662421Y-81967524D01*
X85668332Y-81963140D01*
X85674645Y-81959356D01*
X85681299Y-81956209D01*
X85688229Y-81953729D01*
X85695368Y-81951941D01*
X85702649Y-81950861D01*
X85710000Y-81950500D01*
X85860000Y-81950500D01*
X85867351Y-81950861D01*
G37*
G36*
X84542351Y-80625861D02*
G01*
X84549632Y-80626941D01*
X84556771Y-80628729D01*
X84563701Y-80631209D01*
X84570355Y-80634356D01*
X84576668Y-80638140D01*
X84582579Y-80642524D01*
X84588033Y-80647467D01*
X84592976Y-80652921D01*
X84597360Y-80658832D01*
X84601144Y-80665145D01*
X84604291Y-80671799D01*
X84606771Y-80678729D01*
X84608559Y-80685868D01*
X84609639Y-80693149D01*
X84610000Y-80700500D01*
X84610000Y-80850500D01*
X84609639Y-80857851D01*
X84608559Y-80865132D01*
X84606771Y-80872271D01*
X84604291Y-80879201D01*
X84601144Y-80885855D01*
X84597360Y-80892168D01*
X84592976Y-80898079D01*
X84588033Y-80903533D01*
X84582579Y-80908476D01*
X84576668Y-80912860D01*
X84570355Y-80916644D01*
X84563701Y-80919791D01*
X84556771Y-80922271D01*
X84549632Y-80924059D01*
X84542351Y-80925139D01*
X84535000Y-80925500D01*
X83210000Y-80925500D01*
X83202649Y-80925139D01*
X83195368Y-80924059D01*
X83188229Y-80922271D01*
X83181299Y-80919791D01*
X83174645Y-80916644D01*
X83168332Y-80912860D01*
X83162421Y-80908476D01*
X83156967Y-80903533D01*
X83152024Y-80898079D01*
X83147640Y-80892168D01*
X83143856Y-80885855D01*
X83140709Y-80879201D01*
X83138229Y-80872271D01*
X83136441Y-80865132D01*
X83135361Y-80857851D01*
X83135000Y-80850500D01*
X83135000Y-80700500D01*
X83135361Y-80693149D01*
X83136441Y-80685868D01*
X83138229Y-80678729D01*
X83140709Y-80671799D01*
X83143856Y-80665145D01*
X83147640Y-80658832D01*
X83152024Y-80652921D01*
X83156967Y-80647467D01*
X83162421Y-80642524D01*
X83168332Y-80638140D01*
X83174645Y-80634356D01*
X83181299Y-80631209D01*
X83188229Y-80628729D01*
X83195368Y-80626941D01*
X83202649Y-80625861D01*
X83210000Y-80625500D01*
X84535000Y-80625500D01*
X84542351Y-80625861D01*
G37*
G36*
X84542351Y-80125861D02*
G01*
X84549632Y-80126941D01*
X84556771Y-80128729D01*
X84563701Y-80131209D01*
X84570355Y-80134356D01*
X84576668Y-80138140D01*
X84582579Y-80142524D01*
X84588033Y-80147467D01*
X84592976Y-80152921D01*
X84597360Y-80158832D01*
X84601144Y-80165145D01*
X84604291Y-80171799D01*
X84606771Y-80178729D01*
X84608559Y-80185868D01*
X84609639Y-80193149D01*
X84610000Y-80200500D01*
X84610000Y-80350500D01*
X84609639Y-80357851D01*
X84608559Y-80365132D01*
X84606771Y-80372271D01*
X84604291Y-80379201D01*
X84601144Y-80385855D01*
X84597360Y-80392168D01*
X84592976Y-80398079D01*
X84588033Y-80403533D01*
X84582579Y-80408476D01*
X84576668Y-80412860D01*
X84570355Y-80416644D01*
X84563701Y-80419791D01*
X84556771Y-80422271D01*
X84549632Y-80424059D01*
X84542351Y-80425139D01*
X84535000Y-80425500D01*
X83210000Y-80425500D01*
X83202649Y-80425139D01*
X83195368Y-80424059D01*
X83188229Y-80422271D01*
X83181299Y-80419791D01*
X83174645Y-80416644D01*
X83168332Y-80412860D01*
X83162421Y-80408476D01*
X83156967Y-80403533D01*
X83152024Y-80398079D01*
X83147640Y-80392168D01*
X83143856Y-80385855D01*
X83140709Y-80379201D01*
X83138229Y-80372271D01*
X83136441Y-80365132D01*
X83135361Y-80357851D01*
X83135000Y-80350500D01*
X83135000Y-80200500D01*
X83135361Y-80193149D01*
X83136441Y-80185868D01*
X83138229Y-80178729D01*
X83140709Y-80171799D01*
X83143856Y-80165145D01*
X83147640Y-80158832D01*
X83152024Y-80152921D01*
X83156967Y-80147467D01*
X83162421Y-80142524D01*
X83168332Y-80138140D01*
X83174645Y-80134356D01*
X83181299Y-80131209D01*
X83188229Y-80128729D01*
X83195368Y-80126941D01*
X83202649Y-80125861D01*
X83210000Y-80125500D01*
X84535000Y-80125500D01*
X84542351Y-80125861D01*
G37*
G36*
X84542351Y-79625861D02*
G01*
X84549632Y-79626941D01*
X84556771Y-79628729D01*
X84563701Y-79631209D01*
X84570355Y-79634356D01*
X84576668Y-79638140D01*
X84582579Y-79642524D01*
X84588033Y-79647467D01*
X84592976Y-79652921D01*
X84597360Y-79658832D01*
X84601144Y-79665145D01*
X84604291Y-79671799D01*
X84606771Y-79678729D01*
X84608559Y-79685868D01*
X84609639Y-79693149D01*
X84610000Y-79700500D01*
X84610000Y-79850500D01*
X84609639Y-79857851D01*
X84608559Y-79865132D01*
X84606771Y-79872271D01*
X84604291Y-79879201D01*
X84601144Y-79885855D01*
X84597360Y-79892168D01*
X84592976Y-79898079D01*
X84588033Y-79903533D01*
X84582579Y-79908476D01*
X84576668Y-79912860D01*
X84570355Y-79916644D01*
X84563701Y-79919791D01*
X84556771Y-79922271D01*
X84549632Y-79924059D01*
X84542351Y-79925139D01*
X84535000Y-79925500D01*
X83210000Y-79925500D01*
X83202649Y-79925139D01*
X83195368Y-79924059D01*
X83188229Y-79922271D01*
X83181299Y-79919791D01*
X83174645Y-79916644D01*
X83168332Y-79912860D01*
X83162421Y-79908476D01*
X83156967Y-79903533D01*
X83152024Y-79898079D01*
X83147640Y-79892168D01*
X83143856Y-79885855D01*
X83140709Y-79879201D01*
X83138229Y-79872271D01*
X83136441Y-79865132D01*
X83135361Y-79857851D01*
X83135000Y-79850500D01*
X83135000Y-79700500D01*
X83135361Y-79693149D01*
X83136441Y-79685868D01*
X83138229Y-79678729D01*
X83140709Y-79671799D01*
X83143856Y-79665145D01*
X83147640Y-79658832D01*
X83152024Y-79652921D01*
X83156967Y-79647467D01*
X83162421Y-79642524D01*
X83168332Y-79638140D01*
X83174645Y-79634356D01*
X83181299Y-79631209D01*
X83188229Y-79628729D01*
X83195368Y-79626941D01*
X83202649Y-79625861D01*
X83210000Y-79625500D01*
X84535000Y-79625500D01*
X84542351Y-79625861D01*
G37*
G36*
X84542351Y-79125861D02*
G01*
X84549632Y-79126941D01*
X84556771Y-79128729D01*
X84563701Y-79131209D01*
X84570355Y-79134356D01*
X84576668Y-79138140D01*
X84582579Y-79142524D01*
X84588033Y-79147467D01*
X84592976Y-79152921D01*
X84597360Y-79158832D01*
X84601144Y-79165145D01*
X84604291Y-79171799D01*
X84606771Y-79178729D01*
X84608559Y-79185868D01*
X84609639Y-79193149D01*
X84610000Y-79200500D01*
X84610000Y-79350500D01*
X84609639Y-79357851D01*
X84608559Y-79365132D01*
X84606771Y-79372271D01*
X84604291Y-79379201D01*
X84601144Y-79385855D01*
X84597360Y-79392168D01*
X84592976Y-79398079D01*
X84588033Y-79403533D01*
X84582579Y-79408476D01*
X84576668Y-79412860D01*
X84570355Y-79416644D01*
X84563701Y-79419791D01*
X84556771Y-79422271D01*
X84549632Y-79424059D01*
X84542351Y-79425139D01*
X84535000Y-79425500D01*
X83210000Y-79425500D01*
X83202649Y-79425139D01*
X83195368Y-79424059D01*
X83188229Y-79422271D01*
X83181299Y-79419791D01*
X83174645Y-79416644D01*
X83168332Y-79412860D01*
X83162421Y-79408476D01*
X83156967Y-79403533D01*
X83152024Y-79398079D01*
X83147640Y-79392168D01*
X83143856Y-79385855D01*
X83140709Y-79379201D01*
X83138229Y-79372271D01*
X83136441Y-79365132D01*
X83135361Y-79357851D01*
X83135000Y-79350500D01*
X83135000Y-79200500D01*
X83135361Y-79193149D01*
X83136441Y-79185868D01*
X83138229Y-79178729D01*
X83140709Y-79171799D01*
X83143856Y-79165145D01*
X83147640Y-79158832D01*
X83152024Y-79152921D01*
X83156967Y-79147467D01*
X83162421Y-79142524D01*
X83168332Y-79138140D01*
X83174645Y-79134356D01*
X83181299Y-79131209D01*
X83188229Y-79128729D01*
X83195368Y-79126941D01*
X83202649Y-79125861D01*
X83210000Y-79125500D01*
X84535000Y-79125500D01*
X84542351Y-79125861D01*
G37*
G36*
X84542351Y-78625861D02*
G01*
X84549632Y-78626941D01*
X84556771Y-78628729D01*
X84563701Y-78631209D01*
X84570355Y-78634356D01*
X84576668Y-78638140D01*
X84582579Y-78642524D01*
X84588033Y-78647467D01*
X84592976Y-78652921D01*
X84597360Y-78658832D01*
X84601144Y-78665145D01*
X84604291Y-78671799D01*
X84606771Y-78678729D01*
X84608559Y-78685868D01*
X84609639Y-78693149D01*
X84610000Y-78700500D01*
X84610000Y-78850500D01*
X84609639Y-78857851D01*
X84608559Y-78865132D01*
X84606771Y-78872271D01*
X84604291Y-78879201D01*
X84601144Y-78885855D01*
X84597360Y-78892168D01*
X84592976Y-78898079D01*
X84588033Y-78903533D01*
X84582579Y-78908476D01*
X84576668Y-78912860D01*
X84570355Y-78916644D01*
X84563701Y-78919791D01*
X84556771Y-78922271D01*
X84549632Y-78924059D01*
X84542351Y-78925139D01*
X84535000Y-78925500D01*
X83210000Y-78925500D01*
X83202649Y-78925139D01*
X83195368Y-78924059D01*
X83188229Y-78922271D01*
X83181299Y-78919791D01*
X83174645Y-78916644D01*
X83168332Y-78912860D01*
X83162421Y-78908476D01*
X83156967Y-78903533D01*
X83152024Y-78898079D01*
X83147640Y-78892168D01*
X83143856Y-78885855D01*
X83140709Y-78879201D01*
X83138229Y-78872271D01*
X83136441Y-78865132D01*
X83135361Y-78857851D01*
X83135000Y-78850500D01*
X83135000Y-78700500D01*
X83135361Y-78693149D01*
X83136441Y-78685868D01*
X83138229Y-78678729D01*
X83140709Y-78671799D01*
X83143856Y-78665145D01*
X83147640Y-78658832D01*
X83152024Y-78652921D01*
X83156967Y-78647467D01*
X83162421Y-78642524D01*
X83168332Y-78638140D01*
X83174645Y-78634356D01*
X83181299Y-78631209D01*
X83188229Y-78628729D01*
X83195368Y-78626941D01*
X83202649Y-78625861D01*
X83210000Y-78625500D01*
X84535000Y-78625500D01*
X84542351Y-78625861D01*
G37*
G36*
X84542351Y-78125861D02*
G01*
X84549632Y-78126941D01*
X84556771Y-78128729D01*
X84563701Y-78131209D01*
X84570355Y-78134356D01*
X84576668Y-78138140D01*
X84582579Y-78142524D01*
X84588033Y-78147467D01*
X84592976Y-78152921D01*
X84597360Y-78158832D01*
X84601144Y-78165145D01*
X84604291Y-78171799D01*
X84606771Y-78178729D01*
X84608559Y-78185868D01*
X84609639Y-78193149D01*
X84610000Y-78200500D01*
X84610000Y-78350500D01*
X84609639Y-78357851D01*
X84608559Y-78365132D01*
X84606771Y-78372271D01*
X84604291Y-78379201D01*
X84601144Y-78385855D01*
X84597360Y-78392168D01*
X84592976Y-78398079D01*
X84588033Y-78403533D01*
X84582579Y-78408476D01*
X84576668Y-78412860D01*
X84570355Y-78416644D01*
X84563701Y-78419791D01*
X84556771Y-78422271D01*
X84549632Y-78424059D01*
X84542351Y-78425139D01*
X84535000Y-78425500D01*
X83210000Y-78425500D01*
X83202649Y-78425139D01*
X83195368Y-78424059D01*
X83188229Y-78422271D01*
X83181299Y-78419791D01*
X83174645Y-78416644D01*
X83168332Y-78412860D01*
X83162421Y-78408476D01*
X83156967Y-78403533D01*
X83152024Y-78398079D01*
X83147640Y-78392168D01*
X83143856Y-78385855D01*
X83140709Y-78379201D01*
X83138229Y-78372271D01*
X83136441Y-78365132D01*
X83135361Y-78357851D01*
X83135000Y-78350500D01*
X83135000Y-78200500D01*
X83135361Y-78193149D01*
X83136441Y-78185868D01*
X83138229Y-78178729D01*
X83140709Y-78171799D01*
X83143856Y-78165145D01*
X83147640Y-78158832D01*
X83152024Y-78152921D01*
X83156967Y-78147467D01*
X83162421Y-78142524D01*
X83168332Y-78138140D01*
X83174645Y-78134356D01*
X83181299Y-78131209D01*
X83188229Y-78128729D01*
X83195368Y-78126941D01*
X83202649Y-78125861D01*
X83210000Y-78125500D01*
X84535000Y-78125500D01*
X84542351Y-78125861D01*
G37*
G36*
X84542351Y-77625861D02*
G01*
X84549632Y-77626941D01*
X84556771Y-77628729D01*
X84563701Y-77631209D01*
X84570355Y-77634356D01*
X84576668Y-77638140D01*
X84582579Y-77642524D01*
X84588033Y-77647467D01*
X84592976Y-77652921D01*
X84597360Y-77658832D01*
X84601144Y-77665145D01*
X84604291Y-77671799D01*
X84606771Y-77678729D01*
X84608559Y-77685868D01*
X84609639Y-77693149D01*
X84610000Y-77700500D01*
X84610000Y-77850500D01*
X84609639Y-77857851D01*
X84608559Y-77865132D01*
X84606771Y-77872271D01*
X84604291Y-77879201D01*
X84601144Y-77885855D01*
X84597360Y-77892168D01*
X84592976Y-77898079D01*
X84588033Y-77903533D01*
X84582579Y-77908476D01*
X84576668Y-77912860D01*
X84570355Y-77916644D01*
X84563701Y-77919791D01*
X84556771Y-77922271D01*
X84549632Y-77924059D01*
X84542351Y-77925139D01*
X84535000Y-77925500D01*
X83210000Y-77925500D01*
X83202649Y-77925139D01*
X83195368Y-77924059D01*
X83188229Y-77922271D01*
X83181299Y-77919791D01*
X83174645Y-77916644D01*
X83168332Y-77912860D01*
X83162421Y-77908476D01*
X83156967Y-77903533D01*
X83152024Y-77898079D01*
X83147640Y-77892168D01*
X83143856Y-77885855D01*
X83140709Y-77879201D01*
X83138229Y-77872271D01*
X83136441Y-77865132D01*
X83135361Y-77857851D01*
X83135000Y-77850500D01*
X83135000Y-77700500D01*
X83135361Y-77693149D01*
X83136441Y-77685868D01*
X83138229Y-77678729D01*
X83140709Y-77671799D01*
X83143856Y-77665145D01*
X83147640Y-77658832D01*
X83152024Y-77652921D01*
X83156967Y-77647467D01*
X83162421Y-77642524D01*
X83168332Y-77638140D01*
X83174645Y-77634356D01*
X83181299Y-77631209D01*
X83188229Y-77628729D01*
X83195368Y-77626941D01*
X83202649Y-77625861D01*
X83210000Y-77625500D01*
X84535000Y-77625500D01*
X84542351Y-77625861D01*
G37*
G36*
X84542351Y-77125861D02*
G01*
X84549632Y-77126941D01*
X84556771Y-77128729D01*
X84563701Y-77131209D01*
X84570355Y-77134356D01*
X84576668Y-77138140D01*
X84582579Y-77142524D01*
X84588033Y-77147467D01*
X84592976Y-77152921D01*
X84597360Y-77158832D01*
X84601144Y-77165145D01*
X84604291Y-77171799D01*
X84606771Y-77178729D01*
X84608559Y-77185868D01*
X84609639Y-77193149D01*
X84610000Y-77200500D01*
X84610000Y-77350500D01*
X84609639Y-77357851D01*
X84608559Y-77365132D01*
X84606771Y-77372271D01*
X84604291Y-77379201D01*
X84601144Y-77385855D01*
X84597360Y-77392168D01*
X84592976Y-77398079D01*
X84588033Y-77403533D01*
X84582579Y-77408476D01*
X84576668Y-77412860D01*
X84570355Y-77416644D01*
X84563701Y-77419791D01*
X84556771Y-77422271D01*
X84549632Y-77424059D01*
X84542351Y-77425139D01*
X84535000Y-77425500D01*
X83210000Y-77425500D01*
X83202649Y-77425139D01*
X83195368Y-77424059D01*
X83188229Y-77422271D01*
X83181299Y-77419791D01*
X83174645Y-77416644D01*
X83168332Y-77412860D01*
X83162421Y-77408476D01*
X83156967Y-77403533D01*
X83152024Y-77398079D01*
X83147640Y-77392168D01*
X83143856Y-77385855D01*
X83140709Y-77379201D01*
X83138229Y-77372271D01*
X83136441Y-77365132D01*
X83135361Y-77357851D01*
X83135000Y-77350500D01*
X83135000Y-77200500D01*
X83135361Y-77193149D01*
X83136441Y-77185868D01*
X83138229Y-77178729D01*
X83140709Y-77171799D01*
X83143856Y-77165145D01*
X83147640Y-77158832D01*
X83152024Y-77152921D01*
X83156967Y-77147467D01*
X83162421Y-77142524D01*
X83168332Y-77138140D01*
X83174645Y-77134356D01*
X83181299Y-77131209D01*
X83188229Y-77128729D01*
X83195368Y-77126941D01*
X83202649Y-77125861D01*
X83210000Y-77125500D01*
X84535000Y-77125500D01*
X84542351Y-77125861D01*
G37*
G36*
X84542351Y-76625861D02*
G01*
X84549632Y-76626941D01*
X84556771Y-76628729D01*
X84563701Y-76631209D01*
X84570355Y-76634356D01*
X84576668Y-76638140D01*
X84582579Y-76642524D01*
X84588033Y-76647467D01*
X84592976Y-76652921D01*
X84597360Y-76658832D01*
X84601144Y-76665145D01*
X84604291Y-76671799D01*
X84606771Y-76678729D01*
X84608559Y-76685868D01*
X84609639Y-76693149D01*
X84610000Y-76700500D01*
X84610000Y-76850500D01*
X84609639Y-76857851D01*
X84608559Y-76865132D01*
X84606771Y-76872271D01*
X84604291Y-76879201D01*
X84601144Y-76885855D01*
X84597360Y-76892168D01*
X84592976Y-76898079D01*
X84588033Y-76903533D01*
X84582579Y-76908476D01*
X84576668Y-76912860D01*
X84570355Y-76916644D01*
X84563701Y-76919791D01*
X84556771Y-76922271D01*
X84549632Y-76924059D01*
X84542351Y-76925139D01*
X84535000Y-76925500D01*
X83210000Y-76925500D01*
X83202649Y-76925139D01*
X83195368Y-76924059D01*
X83188229Y-76922271D01*
X83181299Y-76919791D01*
X83174645Y-76916644D01*
X83168332Y-76912860D01*
X83162421Y-76908476D01*
X83156967Y-76903533D01*
X83152024Y-76898079D01*
X83147640Y-76892168D01*
X83143856Y-76885855D01*
X83140709Y-76879201D01*
X83138229Y-76872271D01*
X83136441Y-76865132D01*
X83135361Y-76857851D01*
X83135000Y-76850500D01*
X83135000Y-76700500D01*
X83135361Y-76693149D01*
X83136441Y-76685868D01*
X83138229Y-76678729D01*
X83140709Y-76671799D01*
X83143856Y-76665145D01*
X83147640Y-76658832D01*
X83152024Y-76652921D01*
X83156967Y-76647467D01*
X83162421Y-76642524D01*
X83168332Y-76638140D01*
X83174645Y-76634356D01*
X83181299Y-76631209D01*
X83188229Y-76628729D01*
X83195368Y-76626941D01*
X83202649Y-76625861D01*
X83210000Y-76625500D01*
X84535000Y-76625500D01*
X84542351Y-76625861D01*
G37*
G36*
X84542351Y-76125861D02*
G01*
X84549632Y-76126941D01*
X84556771Y-76128729D01*
X84563701Y-76131209D01*
X84570355Y-76134356D01*
X84576668Y-76138140D01*
X84582579Y-76142524D01*
X84588033Y-76147467D01*
X84592976Y-76152921D01*
X84597360Y-76158832D01*
X84601144Y-76165145D01*
X84604291Y-76171799D01*
X84606771Y-76178729D01*
X84608559Y-76185868D01*
X84609639Y-76193149D01*
X84610000Y-76200500D01*
X84610000Y-76350500D01*
X84609639Y-76357851D01*
X84608559Y-76365132D01*
X84606771Y-76372271D01*
X84604291Y-76379201D01*
X84601144Y-76385855D01*
X84597360Y-76392168D01*
X84592976Y-76398079D01*
X84588033Y-76403533D01*
X84582579Y-76408476D01*
X84576668Y-76412860D01*
X84570355Y-76416644D01*
X84563701Y-76419791D01*
X84556771Y-76422271D01*
X84549632Y-76424059D01*
X84542351Y-76425139D01*
X84535000Y-76425500D01*
X83210000Y-76425500D01*
X83202649Y-76425139D01*
X83195368Y-76424059D01*
X83188229Y-76422271D01*
X83181299Y-76419791D01*
X83174645Y-76416644D01*
X83168332Y-76412860D01*
X83162421Y-76408476D01*
X83156967Y-76403533D01*
X83152024Y-76398079D01*
X83147640Y-76392168D01*
X83143856Y-76385855D01*
X83140709Y-76379201D01*
X83138229Y-76372271D01*
X83136441Y-76365132D01*
X83135361Y-76357851D01*
X83135000Y-76350500D01*
X83135000Y-76200500D01*
X83135361Y-76193149D01*
X83136441Y-76185868D01*
X83138229Y-76178729D01*
X83140709Y-76171799D01*
X83143856Y-76165145D01*
X83147640Y-76158832D01*
X83152024Y-76152921D01*
X83156967Y-76147467D01*
X83162421Y-76142524D01*
X83168332Y-76138140D01*
X83174645Y-76134356D01*
X83181299Y-76131209D01*
X83188229Y-76128729D01*
X83195368Y-76126941D01*
X83202649Y-76125861D01*
X83210000Y-76125500D01*
X84535000Y-76125500D01*
X84542351Y-76125861D01*
G37*
G36*
X84542351Y-75625861D02*
G01*
X84549632Y-75626941D01*
X84556771Y-75628729D01*
X84563701Y-75631209D01*
X84570355Y-75634356D01*
X84576668Y-75638140D01*
X84582579Y-75642524D01*
X84588033Y-75647467D01*
X84592976Y-75652921D01*
X84597360Y-75658832D01*
X84601144Y-75665145D01*
X84604291Y-75671799D01*
X84606771Y-75678729D01*
X84608559Y-75685868D01*
X84609639Y-75693149D01*
X84610000Y-75700500D01*
X84610000Y-75850500D01*
X84609639Y-75857851D01*
X84608559Y-75865132D01*
X84606771Y-75872271D01*
X84604291Y-75879201D01*
X84601144Y-75885855D01*
X84597360Y-75892168D01*
X84592976Y-75898079D01*
X84588033Y-75903533D01*
X84582579Y-75908476D01*
X84576668Y-75912860D01*
X84570355Y-75916644D01*
X84563701Y-75919791D01*
X84556771Y-75922271D01*
X84549632Y-75924059D01*
X84542351Y-75925139D01*
X84535000Y-75925500D01*
X83210000Y-75925500D01*
X83202649Y-75925139D01*
X83195368Y-75924059D01*
X83188229Y-75922271D01*
X83181299Y-75919791D01*
X83174645Y-75916644D01*
X83168332Y-75912860D01*
X83162421Y-75908476D01*
X83156967Y-75903533D01*
X83152024Y-75898079D01*
X83147640Y-75892168D01*
X83143856Y-75885855D01*
X83140709Y-75879201D01*
X83138229Y-75872271D01*
X83136441Y-75865132D01*
X83135361Y-75857851D01*
X83135000Y-75850500D01*
X83135000Y-75700500D01*
X83135361Y-75693149D01*
X83136441Y-75685868D01*
X83138229Y-75678729D01*
X83140709Y-75671799D01*
X83143856Y-75665145D01*
X83147640Y-75658832D01*
X83152024Y-75652921D01*
X83156967Y-75647467D01*
X83162421Y-75642524D01*
X83168332Y-75638140D01*
X83174645Y-75634356D01*
X83181299Y-75631209D01*
X83188229Y-75628729D01*
X83195368Y-75626941D01*
X83202649Y-75625861D01*
X83210000Y-75625500D01*
X84535000Y-75625500D01*
X84542351Y-75625861D01*
G37*
G36*
X84542351Y-75125861D02*
G01*
X84549632Y-75126941D01*
X84556771Y-75128729D01*
X84563701Y-75131209D01*
X84570355Y-75134356D01*
X84576668Y-75138140D01*
X84582579Y-75142524D01*
X84588033Y-75147467D01*
X84592976Y-75152921D01*
X84597360Y-75158832D01*
X84601144Y-75165145D01*
X84604291Y-75171799D01*
X84606771Y-75178729D01*
X84608559Y-75185868D01*
X84609639Y-75193149D01*
X84610000Y-75200500D01*
X84610000Y-75350500D01*
X84609639Y-75357851D01*
X84608559Y-75365132D01*
X84606771Y-75372271D01*
X84604291Y-75379201D01*
X84601144Y-75385855D01*
X84597360Y-75392168D01*
X84592976Y-75398079D01*
X84588033Y-75403533D01*
X84582579Y-75408476D01*
X84576668Y-75412860D01*
X84570355Y-75416644D01*
X84563701Y-75419791D01*
X84556771Y-75422271D01*
X84549632Y-75424059D01*
X84542351Y-75425139D01*
X84535000Y-75425500D01*
X83210000Y-75425500D01*
X83202649Y-75425139D01*
X83195368Y-75424059D01*
X83188229Y-75422271D01*
X83181299Y-75419791D01*
X83174645Y-75416644D01*
X83168332Y-75412860D01*
X83162421Y-75408476D01*
X83156967Y-75403533D01*
X83152024Y-75398079D01*
X83147640Y-75392168D01*
X83143856Y-75385855D01*
X83140709Y-75379201D01*
X83138229Y-75372271D01*
X83136441Y-75365132D01*
X83135361Y-75357851D01*
X83135000Y-75350500D01*
X83135000Y-75200500D01*
X83135361Y-75193149D01*
X83136441Y-75185868D01*
X83138229Y-75178729D01*
X83140709Y-75171799D01*
X83143856Y-75165145D01*
X83147640Y-75158832D01*
X83152024Y-75152921D01*
X83156967Y-75147467D01*
X83162421Y-75142524D01*
X83168332Y-75138140D01*
X83174645Y-75134356D01*
X83181299Y-75131209D01*
X83188229Y-75128729D01*
X83195368Y-75126941D01*
X83202649Y-75125861D01*
X83210000Y-75125500D01*
X84535000Y-75125500D01*
X84542351Y-75125861D01*
G37*
G36*
X84542351Y-74625861D02*
G01*
X84549632Y-74626941D01*
X84556771Y-74628729D01*
X84563701Y-74631209D01*
X84570355Y-74634356D01*
X84576668Y-74638140D01*
X84582579Y-74642524D01*
X84588033Y-74647467D01*
X84592976Y-74652921D01*
X84597360Y-74658832D01*
X84601144Y-74665145D01*
X84604291Y-74671799D01*
X84606771Y-74678729D01*
X84608559Y-74685868D01*
X84609639Y-74693149D01*
X84610000Y-74700500D01*
X84610000Y-74850500D01*
X84609639Y-74857851D01*
X84608559Y-74865132D01*
X84606771Y-74872271D01*
X84604291Y-74879201D01*
X84601144Y-74885855D01*
X84597360Y-74892168D01*
X84592976Y-74898079D01*
X84588033Y-74903533D01*
X84582579Y-74908476D01*
X84576668Y-74912860D01*
X84570355Y-74916644D01*
X84563701Y-74919791D01*
X84556771Y-74922271D01*
X84549632Y-74924059D01*
X84542351Y-74925139D01*
X84535000Y-74925500D01*
X83210000Y-74925500D01*
X83202649Y-74925139D01*
X83195368Y-74924059D01*
X83188229Y-74922271D01*
X83181299Y-74919791D01*
X83174645Y-74916644D01*
X83168332Y-74912860D01*
X83162421Y-74908476D01*
X83156967Y-74903533D01*
X83152024Y-74898079D01*
X83147640Y-74892168D01*
X83143856Y-74885855D01*
X83140709Y-74879201D01*
X83138229Y-74872271D01*
X83136441Y-74865132D01*
X83135361Y-74857851D01*
X83135000Y-74850500D01*
X83135000Y-74700500D01*
X83135361Y-74693149D01*
X83136441Y-74685868D01*
X83138229Y-74678729D01*
X83140709Y-74671799D01*
X83143856Y-74665145D01*
X83147640Y-74658832D01*
X83152024Y-74652921D01*
X83156967Y-74647467D01*
X83162421Y-74642524D01*
X83168332Y-74638140D01*
X83174645Y-74634356D01*
X83181299Y-74631209D01*
X83188229Y-74628729D01*
X83195368Y-74626941D01*
X83202649Y-74625861D01*
X83210000Y-74625500D01*
X84535000Y-74625500D01*
X84542351Y-74625861D01*
G37*
G36*
X84542351Y-74125861D02*
G01*
X84549632Y-74126941D01*
X84556771Y-74128729D01*
X84563701Y-74131209D01*
X84570355Y-74134356D01*
X84576668Y-74138140D01*
X84582579Y-74142524D01*
X84588033Y-74147467D01*
X84592976Y-74152921D01*
X84597360Y-74158832D01*
X84601144Y-74165145D01*
X84604291Y-74171799D01*
X84606771Y-74178729D01*
X84608559Y-74185868D01*
X84609639Y-74193149D01*
X84610000Y-74200500D01*
X84610000Y-74350500D01*
X84609639Y-74357851D01*
X84608559Y-74365132D01*
X84606771Y-74372271D01*
X84604291Y-74379201D01*
X84601144Y-74385855D01*
X84597360Y-74392168D01*
X84592976Y-74398079D01*
X84588033Y-74403533D01*
X84582579Y-74408476D01*
X84576668Y-74412860D01*
X84570355Y-74416644D01*
X84563701Y-74419791D01*
X84556771Y-74422271D01*
X84549632Y-74424059D01*
X84542351Y-74425139D01*
X84535000Y-74425500D01*
X83210000Y-74425500D01*
X83202649Y-74425139D01*
X83195368Y-74424059D01*
X83188229Y-74422271D01*
X83181299Y-74419791D01*
X83174645Y-74416644D01*
X83168332Y-74412860D01*
X83162421Y-74408476D01*
X83156967Y-74403533D01*
X83152024Y-74398079D01*
X83147640Y-74392168D01*
X83143856Y-74385855D01*
X83140709Y-74379201D01*
X83138229Y-74372271D01*
X83136441Y-74365132D01*
X83135361Y-74357851D01*
X83135000Y-74350500D01*
X83135000Y-74200500D01*
X83135361Y-74193149D01*
X83136441Y-74185868D01*
X83138229Y-74178729D01*
X83140709Y-74171799D01*
X83143856Y-74165145D01*
X83147640Y-74158832D01*
X83152024Y-74152921D01*
X83156967Y-74147467D01*
X83162421Y-74142524D01*
X83168332Y-74138140D01*
X83174645Y-74134356D01*
X83181299Y-74131209D01*
X83188229Y-74128729D01*
X83195368Y-74126941D01*
X83202649Y-74125861D01*
X83210000Y-74125500D01*
X84535000Y-74125500D01*
X84542351Y-74125861D01*
G37*
G36*
X84542351Y-73625861D02*
G01*
X84549632Y-73626941D01*
X84556771Y-73628729D01*
X84563701Y-73631209D01*
X84570355Y-73634356D01*
X84576668Y-73638140D01*
X84582579Y-73642524D01*
X84588033Y-73647467D01*
X84592976Y-73652921D01*
X84597360Y-73658832D01*
X84601144Y-73665145D01*
X84604291Y-73671799D01*
X84606771Y-73678729D01*
X84608559Y-73685868D01*
X84609639Y-73693149D01*
X84610000Y-73700500D01*
X84610000Y-73850500D01*
X84609639Y-73857851D01*
X84608559Y-73865132D01*
X84606771Y-73872271D01*
X84604291Y-73879201D01*
X84601144Y-73885855D01*
X84597360Y-73892168D01*
X84592976Y-73898079D01*
X84588033Y-73903533D01*
X84582579Y-73908476D01*
X84576668Y-73912860D01*
X84570355Y-73916644D01*
X84563701Y-73919791D01*
X84556771Y-73922271D01*
X84549632Y-73924059D01*
X84542351Y-73925139D01*
X84535000Y-73925500D01*
X83210000Y-73925500D01*
X83202649Y-73925139D01*
X83195368Y-73924059D01*
X83188229Y-73922271D01*
X83181299Y-73919791D01*
X83174645Y-73916644D01*
X83168332Y-73912860D01*
X83162421Y-73908476D01*
X83156967Y-73903533D01*
X83152024Y-73898079D01*
X83147640Y-73892168D01*
X83143856Y-73885855D01*
X83140709Y-73879201D01*
X83138229Y-73872271D01*
X83136441Y-73865132D01*
X83135361Y-73857851D01*
X83135000Y-73850500D01*
X83135000Y-73700500D01*
X83135361Y-73693149D01*
X83136441Y-73685868D01*
X83138229Y-73678729D01*
X83140709Y-73671799D01*
X83143856Y-73665145D01*
X83147640Y-73658832D01*
X83152024Y-73652921D01*
X83156967Y-73647467D01*
X83162421Y-73642524D01*
X83168332Y-73638140D01*
X83174645Y-73634356D01*
X83181299Y-73631209D01*
X83188229Y-73628729D01*
X83195368Y-73626941D01*
X83202649Y-73625861D01*
X83210000Y-73625500D01*
X84535000Y-73625500D01*
X84542351Y-73625861D01*
G37*
G36*
X84542351Y-73125861D02*
G01*
X84549632Y-73126941D01*
X84556771Y-73128729D01*
X84563701Y-73131209D01*
X84570355Y-73134356D01*
X84576668Y-73138140D01*
X84582579Y-73142524D01*
X84588033Y-73147467D01*
X84592976Y-73152921D01*
X84597360Y-73158832D01*
X84601144Y-73165145D01*
X84604291Y-73171799D01*
X84606771Y-73178729D01*
X84608559Y-73185868D01*
X84609639Y-73193149D01*
X84610000Y-73200500D01*
X84610000Y-73350500D01*
X84609639Y-73357851D01*
X84608559Y-73365132D01*
X84606771Y-73372271D01*
X84604291Y-73379201D01*
X84601144Y-73385855D01*
X84597360Y-73392168D01*
X84592976Y-73398079D01*
X84588033Y-73403533D01*
X84582579Y-73408476D01*
X84576668Y-73412860D01*
X84570355Y-73416644D01*
X84563701Y-73419791D01*
X84556771Y-73422271D01*
X84549632Y-73424059D01*
X84542351Y-73425139D01*
X84535000Y-73425500D01*
X83210000Y-73425500D01*
X83202649Y-73425139D01*
X83195368Y-73424059D01*
X83188229Y-73422271D01*
X83181299Y-73419791D01*
X83174645Y-73416644D01*
X83168332Y-73412860D01*
X83162421Y-73408476D01*
X83156967Y-73403533D01*
X83152024Y-73398079D01*
X83147640Y-73392168D01*
X83143856Y-73385855D01*
X83140709Y-73379201D01*
X83138229Y-73372271D01*
X83136441Y-73365132D01*
X83135361Y-73357851D01*
X83135000Y-73350500D01*
X83135000Y-73200500D01*
X83135361Y-73193149D01*
X83136441Y-73185868D01*
X83138229Y-73178729D01*
X83140709Y-73171799D01*
X83143856Y-73165145D01*
X83147640Y-73158832D01*
X83152024Y-73152921D01*
X83156967Y-73147467D01*
X83162421Y-73142524D01*
X83168332Y-73138140D01*
X83174645Y-73134356D01*
X83181299Y-73131209D01*
X83188229Y-73128729D01*
X83195368Y-73126941D01*
X83202649Y-73125861D01*
X83210000Y-73125500D01*
X84535000Y-73125500D01*
X84542351Y-73125861D01*
G37*
G36*
X85867351Y-70625861D02*
G01*
X85874632Y-70626941D01*
X85881771Y-70628729D01*
X85888701Y-70631209D01*
X85895355Y-70634356D01*
X85901668Y-70638140D01*
X85907579Y-70642524D01*
X85913033Y-70647467D01*
X85917976Y-70652921D01*
X85922360Y-70658832D01*
X85926144Y-70665145D01*
X85929291Y-70671799D01*
X85931771Y-70678729D01*
X85933559Y-70685868D01*
X85934639Y-70693149D01*
X85935000Y-70700500D01*
X85935000Y-72025500D01*
X85934639Y-72032851D01*
X85933559Y-72040132D01*
X85931771Y-72047271D01*
X85929291Y-72054201D01*
X85926144Y-72060855D01*
X85922360Y-72067168D01*
X85917976Y-72073079D01*
X85913033Y-72078533D01*
X85907579Y-72083476D01*
X85901668Y-72087860D01*
X85895355Y-72091644D01*
X85888701Y-72094791D01*
X85881771Y-72097271D01*
X85874632Y-72099059D01*
X85867351Y-72100139D01*
X85860000Y-72100500D01*
X85710000Y-72100500D01*
X85702649Y-72100139D01*
X85695368Y-72099059D01*
X85688229Y-72097271D01*
X85681299Y-72094791D01*
X85674645Y-72091644D01*
X85668332Y-72087860D01*
X85662421Y-72083476D01*
X85656967Y-72078533D01*
X85652024Y-72073079D01*
X85647640Y-72067168D01*
X85643856Y-72060855D01*
X85640709Y-72054201D01*
X85638229Y-72047271D01*
X85636441Y-72040132D01*
X85635361Y-72032851D01*
X85635000Y-72025500D01*
X85635000Y-70700500D01*
X85635361Y-70693149D01*
X85636441Y-70685868D01*
X85638229Y-70678729D01*
X85640709Y-70671799D01*
X85643856Y-70665145D01*
X85647640Y-70658832D01*
X85652024Y-70652921D01*
X85656967Y-70647467D01*
X85662421Y-70642524D01*
X85668332Y-70638140D01*
X85674645Y-70634356D01*
X85681299Y-70631209D01*
X85688229Y-70628729D01*
X85695368Y-70626941D01*
X85702649Y-70625861D01*
X85710000Y-70625500D01*
X85860000Y-70625500D01*
X85867351Y-70625861D01*
G37*
G36*
X86367351Y-70625861D02*
G01*
X86374632Y-70626941D01*
X86381771Y-70628729D01*
X86388701Y-70631209D01*
X86395355Y-70634356D01*
X86401668Y-70638140D01*
X86407579Y-70642524D01*
X86413033Y-70647467D01*
X86417976Y-70652921D01*
X86422360Y-70658832D01*
X86426144Y-70665145D01*
X86429291Y-70671799D01*
X86431771Y-70678729D01*
X86433559Y-70685868D01*
X86434639Y-70693149D01*
X86435000Y-70700500D01*
X86435000Y-72025500D01*
X86434639Y-72032851D01*
X86433559Y-72040132D01*
X86431771Y-72047271D01*
X86429291Y-72054201D01*
X86426144Y-72060855D01*
X86422360Y-72067168D01*
X86417976Y-72073079D01*
X86413033Y-72078533D01*
X86407579Y-72083476D01*
X86401668Y-72087860D01*
X86395355Y-72091644D01*
X86388701Y-72094791D01*
X86381771Y-72097271D01*
X86374632Y-72099059D01*
X86367351Y-72100139D01*
X86360000Y-72100500D01*
X86210000Y-72100500D01*
X86202649Y-72100139D01*
X86195368Y-72099059D01*
X86188229Y-72097271D01*
X86181299Y-72094791D01*
X86174645Y-72091644D01*
X86168332Y-72087860D01*
X86162421Y-72083476D01*
X86156967Y-72078533D01*
X86152024Y-72073079D01*
X86147640Y-72067168D01*
X86143856Y-72060855D01*
X86140709Y-72054201D01*
X86138229Y-72047271D01*
X86136441Y-72040132D01*
X86135361Y-72032851D01*
X86135000Y-72025500D01*
X86135000Y-70700500D01*
X86135361Y-70693149D01*
X86136441Y-70685868D01*
X86138229Y-70678729D01*
X86140709Y-70671799D01*
X86143856Y-70665145D01*
X86147640Y-70658832D01*
X86152024Y-70652921D01*
X86156967Y-70647467D01*
X86162421Y-70642524D01*
X86168332Y-70638140D01*
X86174645Y-70634356D01*
X86181299Y-70631209D01*
X86188229Y-70628729D01*
X86195368Y-70626941D01*
X86202649Y-70625861D01*
X86210000Y-70625500D01*
X86360000Y-70625500D01*
X86367351Y-70625861D01*
G37*
G36*
X86867351Y-70625861D02*
G01*
X86874632Y-70626941D01*
X86881771Y-70628729D01*
X86888701Y-70631209D01*
X86895355Y-70634356D01*
X86901668Y-70638140D01*
X86907579Y-70642524D01*
X86913033Y-70647467D01*
X86917976Y-70652921D01*
X86922360Y-70658832D01*
X86926144Y-70665145D01*
X86929291Y-70671799D01*
X86931771Y-70678729D01*
X86933559Y-70685868D01*
X86934639Y-70693149D01*
X86935000Y-70700500D01*
X86935000Y-72025500D01*
X86934639Y-72032851D01*
X86933559Y-72040132D01*
X86931771Y-72047271D01*
X86929291Y-72054201D01*
X86926144Y-72060855D01*
X86922360Y-72067168D01*
X86917976Y-72073079D01*
X86913033Y-72078533D01*
X86907579Y-72083476D01*
X86901668Y-72087860D01*
X86895355Y-72091644D01*
X86888701Y-72094791D01*
X86881771Y-72097271D01*
X86874632Y-72099059D01*
X86867351Y-72100139D01*
X86860000Y-72100500D01*
X86710000Y-72100500D01*
X86702649Y-72100139D01*
X86695368Y-72099059D01*
X86688229Y-72097271D01*
X86681299Y-72094791D01*
X86674645Y-72091644D01*
X86668332Y-72087860D01*
X86662421Y-72083476D01*
X86656967Y-72078533D01*
X86652024Y-72073079D01*
X86647640Y-72067168D01*
X86643856Y-72060855D01*
X86640709Y-72054201D01*
X86638229Y-72047271D01*
X86636441Y-72040132D01*
X86635361Y-72032851D01*
X86635000Y-72025500D01*
X86635000Y-70700500D01*
X86635361Y-70693149D01*
X86636441Y-70685868D01*
X86638229Y-70678729D01*
X86640709Y-70671799D01*
X86643856Y-70665145D01*
X86647640Y-70658832D01*
X86652024Y-70652921D01*
X86656967Y-70647467D01*
X86662421Y-70642524D01*
X86668332Y-70638140D01*
X86674645Y-70634356D01*
X86681299Y-70631209D01*
X86688229Y-70628729D01*
X86695368Y-70626941D01*
X86702649Y-70625861D01*
X86710000Y-70625500D01*
X86860000Y-70625500D01*
X86867351Y-70625861D01*
G37*
G36*
X87367351Y-70625861D02*
G01*
X87374632Y-70626941D01*
X87381771Y-70628729D01*
X87388701Y-70631209D01*
X87395355Y-70634356D01*
X87401668Y-70638140D01*
X87407579Y-70642524D01*
X87413033Y-70647467D01*
X87417976Y-70652921D01*
X87422360Y-70658832D01*
X87426144Y-70665145D01*
X87429291Y-70671799D01*
X87431771Y-70678729D01*
X87433559Y-70685868D01*
X87434639Y-70693149D01*
X87435000Y-70700500D01*
X87435000Y-72025500D01*
X87434639Y-72032851D01*
X87433559Y-72040132D01*
X87431771Y-72047271D01*
X87429291Y-72054201D01*
X87426144Y-72060855D01*
X87422360Y-72067168D01*
X87417976Y-72073079D01*
X87413033Y-72078533D01*
X87407579Y-72083476D01*
X87401668Y-72087860D01*
X87395355Y-72091644D01*
X87388701Y-72094791D01*
X87381771Y-72097271D01*
X87374632Y-72099059D01*
X87367351Y-72100139D01*
X87360000Y-72100500D01*
X87210000Y-72100500D01*
X87202649Y-72100139D01*
X87195368Y-72099059D01*
X87188229Y-72097271D01*
X87181299Y-72094791D01*
X87174645Y-72091644D01*
X87168332Y-72087860D01*
X87162421Y-72083476D01*
X87156967Y-72078533D01*
X87152024Y-72073079D01*
X87147640Y-72067168D01*
X87143856Y-72060855D01*
X87140709Y-72054201D01*
X87138229Y-72047271D01*
X87136441Y-72040132D01*
X87135361Y-72032851D01*
X87135000Y-72025500D01*
X87135000Y-70700500D01*
X87135361Y-70693149D01*
X87136441Y-70685868D01*
X87138229Y-70678729D01*
X87140709Y-70671799D01*
X87143856Y-70665145D01*
X87147640Y-70658832D01*
X87152024Y-70652921D01*
X87156967Y-70647467D01*
X87162421Y-70642524D01*
X87168332Y-70638140D01*
X87174645Y-70634356D01*
X87181299Y-70631209D01*
X87188229Y-70628729D01*
X87195368Y-70626941D01*
X87202649Y-70625861D01*
X87210000Y-70625500D01*
X87360000Y-70625500D01*
X87367351Y-70625861D01*
G37*
G36*
X87867351Y-70625861D02*
G01*
X87874632Y-70626941D01*
X87881771Y-70628729D01*
X87888701Y-70631209D01*
X87895355Y-70634356D01*
X87901668Y-70638140D01*
X87907579Y-70642524D01*
X87913033Y-70647467D01*
X87917976Y-70652921D01*
X87922360Y-70658832D01*
X87926144Y-70665145D01*
X87929291Y-70671799D01*
X87931771Y-70678729D01*
X87933559Y-70685868D01*
X87934639Y-70693149D01*
X87935000Y-70700500D01*
X87935000Y-72025500D01*
X87934639Y-72032851D01*
X87933559Y-72040132D01*
X87931771Y-72047271D01*
X87929291Y-72054201D01*
X87926144Y-72060855D01*
X87922360Y-72067168D01*
X87917976Y-72073079D01*
X87913033Y-72078533D01*
X87907579Y-72083476D01*
X87901668Y-72087860D01*
X87895355Y-72091644D01*
X87888701Y-72094791D01*
X87881771Y-72097271D01*
X87874632Y-72099059D01*
X87867351Y-72100139D01*
X87860000Y-72100500D01*
X87710000Y-72100500D01*
X87702649Y-72100139D01*
X87695368Y-72099059D01*
X87688229Y-72097271D01*
X87681299Y-72094791D01*
X87674645Y-72091644D01*
X87668332Y-72087860D01*
X87662421Y-72083476D01*
X87656967Y-72078533D01*
X87652024Y-72073079D01*
X87647640Y-72067168D01*
X87643856Y-72060855D01*
X87640709Y-72054201D01*
X87638229Y-72047271D01*
X87636441Y-72040132D01*
X87635361Y-72032851D01*
X87635000Y-72025500D01*
X87635000Y-70700500D01*
X87635361Y-70693149D01*
X87636441Y-70685868D01*
X87638229Y-70678729D01*
X87640709Y-70671799D01*
X87643856Y-70665145D01*
X87647640Y-70658832D01*
X87652024Y-70652921D01*
X87656967Y-70647467D01*
X87662421Y-70642524D01*
X87668332Y-70638140D01*
X87674645Y-70634356D01*
X87681299Y-70631209D01*
X87688229Y-70628729D01*
X87695368Y-70626941D01*
X87702649Y-70625861D01*
X87710000Y-70625500D01*
X87860000Y-70625500D01*
X87867351Y-70625861D01*
G37*
G36*
X88367351Y-70625861D02*
G01*
X88374632Y-70626941D01*
X88381771Y-70628729D01*
X88388701Y-70631209D01*
X88395355Y-70634356D01*
X88401668Y-70638140D01*
X88407579Y-70642524D01*
X88413033Y-70647467D01*
X88417976Y-70652921D01*
X88422360Y-70658832D01*
X88426144Y-70665145D01*
X88429291Y-70671799D01*
X88431771Y-70678729D01*
X88433559Y-70685868D01*
X88434639Y-70693149D01*
X88435000Y-70700500D01*
X88435000Y-72025500D01*
X88434639Y-72032851D01*
X88433559Y-72040132D01*
X88431771Y-72047271D01*
X88429291Y-72054201D01*
X88426144Y-72060855D01*
X88422360Y-72067168D01*
X88417976Y-72073079D01*
X88413033Y-72078533D01*
X88407579Y-72083476D01*
X88401668Y-72087860D01*
X88395355Y-72091644D01*
X88388701Y-72094791D01*
X88381771Y-72097271D01*
X88374632Y-72099059D01*
X88367351Y-72100139D01*
X88360000Y-72100500D01*
X88210000Y-72100500D01*
X88202649Y-72100139D01*
X88195368Y-72099059D01*
X88188229Y-72097271D01*
X88181299Y-72094791D01*
X88174645Y-72091644D01*
X88168332Y-72087860D01*
X88162421Y-72083476D01*
X88156967Y-72078533D01*
X88152024Y-72073079D01*
X88147640Y-72067168D01*
X88143856Y-72060855D01*
X88140709Y-72054201D01*
X88138229Y-72047271D01*
X88136441Y-72040132D01*
X88135361Y-72032851D01*
X88135000Y-72025500D01*
X88135000Y-70700500D01*
X88135361Y-70693149D01*
X88136441Y-70685868D01*
X88138229Y-70678729D01*
X88140709Y-70671799D01*
X88143856Y-70665145D01*
X88147640Y-70658832D01*
X88152024Y-70652921D01*
X88156967Y-70647467D01*
X88162421Y-70642524D01*
X88168332Y-70638140D01*
X88174645Y-70634356D01*
X88181299Y-70631209D01*
X88188229Y-70628729D01*
X88195368Y-70626941D01*
X88202649Y-70625861D01*
X88210000Y-70625500D01*
X88360000Y-70625500D01*
X88367351Y-70625861D01*
G37*
G36*
X88867351Y-70625861D02*
G01*
X88874632Y-70626941D01*
X88881771Y-70628729D01*
X88888701Y-70631209D01*
X88895355Y-70634356D01*
X88901668Y-70638140D01*
X88907579Y-70642524D01*
X88913033Y-70647467D01*
X88917976Y-70652921D01*
X88922360Y-70658832D01*
X88926144Y-70665145D01*
X88929291Y-70671799D01*
X88931771Y-70678729D01*
X88933559Y-70685868D01*
X88934639Y-70693149D01*
X88935000Y-70700500D01*
X88935000Y-72025500D01*
X88934639Y-72032851D01*
X88933559Y-72040132D01*
X88931771Y-72047271D01*
X88929291Y-72054201D01*
X88926144Y-72060855D01*
X88922360Y-72067168D01*
X88917976Y-72073079D01*
X88913033Y-72078533D01*
X88907579Y-72083476D01*
X88901668Y-72087860D01*
X88895355Y-72091644D01*
X88888701Y-72094791D01*
X88881771Y-72097271D01*
X88874632Y-72099059D01*
X88867351Y-72100139D01*
X88860000Y-72100500D01*
X88710000Y-72100500D01*
X88702649Y-72100139D01*
X88695368Y-72099059D01*
X88688229Y-72097271D01*
X88681299Y-72094791D01*
X88674645Y-72091644D01*
X88668332Y-72087860D01*
X88662421Y-72083476D01*
X88656967Y-72078533D01*
X88652024Y-72073079D01*
X88647640Y-72067168D01*
X88643856Y-72060855D01*
X88640709Y-72054201D01*
X88638229Y-72047271D01*
X88636441Y-72040132D01*
X88635361Y-72032851D01*
X88635000Y-72025500D01*
X88635000Y-70700500D01*
X88635361Y-70693149D01*
X88636441Y-70685868D01*
X88638229Y-70678729D01*
X88640709Y-70671799D01*
X88643856Y-70665145D01*
X88647640Y-70658832D01*
X88652024Y-70652921D01*
X88656967Y-70647467D01*
X88662421Y-70642524D01*
X88668332Y-70638140D01*
X88674645Y-70634356D01*
X88681299Y-70631209D01*
X88688229Y-70628729D01*
X88695368Y-70626941D01*
X88702649Y-70625861D01*
X88710000Y-70625500D01*
X88860000Y-70625500D01*
X88867351Y-70625861D01*
G37*
G36*
X89367351Y-70625861D02*
G01*
X89374632Y-70626941D01*
X89381771Y-70628729D01*
X89388701Y-70631209D01*
X89395355Y-70634356D01*
X89401668Y-70638140D01*
X89407579Y-70642524D01*
X89413033Y-70647467D01*
X89417976Y-70652921D01*
X89422360Y-70658832D01*
X89426144Y-70665145D01*
X89429291Y-70671799D01*
X89431771Y-70678729D01*
X89433559Y-70685868D01*
X89434639Y-70693149D01*
X89435000Y-70700500D01*
X89435000Y-72025500D01*
X89434639Y-72032851D01*
X89433559Y-72040132D01*
X89431771Y-72047271D01*
X89429291Y-72054201D01*
X89426144Y-72060855D01*
X89422360Y-72067168D01*
X89417976Y-72073079D01*
X89413033Y-72078533D01*
X89407579Y-72083476D01*
X89401668Y-72087860D01*
X89395355Y-72091644D01*
X89388701Y-72094791D01*
X89381771Y-72097271D01*
X89374632Y-72099059D01*
X89367351Y-72100139D01*
X89360000Y-72100500D01*
X89210000Y-72100500D01*
X89202649Y-72100139D01*
X89195368Y-72099059D01*
X89188229Y-72097271D01*
X89181299Y-72094791D01*
X89174645Y-72091644D01*
X89168332Y-72087860D01*
X89162421Y-72083476D01*
X89156967Y-72078533D01*
X89152024Y-72073079D01*
X89147640Y-72067168D01*
X89143856Y-72060855D01*
X89140709Y-72054201D01*
X89138229Y-72047271D01*
X89136441Y-72040132D01*
X89135361Y-72032851D01*
X89135000Y-72025500D01*
X89135000Y-70700500D01*
X89135361Y-70693149D01*
X89136441Y-70685868D01*
X89138229Y-70678729D01*
X89140709Y-70671799D01*
X89143856Y-70665145D01*
X89147640Y-70658832D01*
X89152024Y-70652921D01*
X89156967Y-70647467D01*
X89162421Y-70642524D01*
X89168332Y-70638140D01*
X89174645Y-70634356D01*
X89181299Y-70631209D01*
X89188229Y-70628729D01*
X89195368Y-70626941D01*
X89202649Y-70625861D01*
X89210000Y-70625500D01*
X89360000Y-70625500D01*
X89367351Y-70625861D01*
G37*
G36*
X89867351Y-70625861D02*
G01*
X89874632Y-70626941D01*
X89881771Y-70628729D01*
X89888701Y-70631209D01*
X89895355Y-70634356D01*
X89901668Y-70638140D01*
X89907579Y-70642524D01*
X89913033Y-70647467D01*
X89917976Y-70652921D01*
X89922360Y-70658832D01*
X89926144Y-70665145D01*
X89929291Y-70671799D01*
X89931771Y-70678729D01*
X89933559Y-70685868D01*
X89934639Y-70693149D01*
X89935000Y-70700500D01*
X89935000Y-72025500D01*
X89934639Y-72032851D01*
X89933559Y-72040132D01*
X89931771Y-72047271D01*
X89929291Y-72054201D01*
X89926144Y-72060855D01*
X89922360Y-72067168D01*
X89917976Y-72073079D01*
X89913033Y-72078533D01*
X89907579Y-72083476D01*
X89901668Y-72087860D01*
X89895355Y-72091644D01*
X89888701Y-72094791D01*
X89881771Y-72097271D01*
X89874632Y-72099059D01*
X89867351Y-72100139D01*
X89860000Y-72100500D01*
X89710000Y-72100500D01*
X89702649Y-72100139D01*
X89695368Y-72099059D01*
X89688229Y-72097271D01*
X89681299Y-72094791D01*
X89674645Y-72091644D01*
X89668332Y-72087860D01*
X89662421Y-72083476D01*
X89656967Y-72078533D01*
X89652024Y-72073079D01*
X89647640Y-72067168D01*
X89643856Y-72060855D01*
X89640709Y-72054201D01*
X89638229Y-72047271D01*
X89636441Y-72040132D01*
X89635361Y-72032851D01*
X89635000Y-72025500D01*
X89635000Y-70700500D01*
X89635361Y-70693149D01*
X89636441Y-70685868D01*
X89638229Y-70678729D01*
X89640709Y-70671799D01*
X89643856Y-70665145D01*
X89647640Y-70658832D01*
X89652024Y-70652921D01*
X89656967Y-70647467D01*
X89662421Y-70642524D01*
X89668332Y-70638140D01*
X89674645Y-70634356D01*
X89681299Y-70631209D01*
X89688229Y-70628729D01*
X89695368Y-70626941D01*
X89702649Y-70625861D01*
X89710000Y-70625500D01*
X89860000Y-70625500D01*
X89867351Y-70625861D01*
G37*
G36*
X90367351Y-70625861D02*
G01*
X90374632Y-70626941D01*
X90381771Y-70628729D01*
X90388701Y-70631209D01*
X90395355Y-70634356D01*
X90401668Y-70638140D01*
X90407579Y-70642524D01*
X90413033Y-70647467D01*
X90417976Y-70652921D01*
X90422360Y-70658832D01*
X90426144Y-70665145D01*
X90429291Y-70671799D01*
X90431771Y-70678729D01*
X90433559Y-70685868D01*
X90434639Y-70693149D01*
X90435000Y-70700500D01*
X90435000Y-72025500D01*
X90434639Y-72032851D01*
X90433559Y-72040132D01*
X90431771Y-72047271D01*
X90429291Y-72054201D01*
X90426144Y-72060855D01*
X90422360Y-72067168D01*
X90417976Y-72073079D01*
X90413033Y-72078533D01*
X90407579Y-72083476D01*
X90401668Y-72087860D01*
X90395355Y-72091644D01*
X90388701Y-72094791D01*
X90381771Y-72097271D01*
X90374632Y-72099059D01*
X90367351Y-72100139D01*
X90360000Y-72100500D01*
X90210000Y-72100500D01*
X90202649Y-72100139D01*
X90195368Y-72099059D01*
X90188229Y-72097271D01*
X90181299Y-72094791D01*
X90174645Y-72091644D01*
X90168332Y-72087860D01*
X90162421Y-72083476D01*
X90156967Y-72078533D01*
X90152024Y-72073079D01*
X90147640Y-72067168D01*
X90143856Y-72060855D01*
X90140709Y-72054201D01*
X90138229Y-72047271D01*
X90136441Y-72040132D01*
X90135361Y-72032851D01*
X90135000Y-72025500D01*
X90135000Y-70700500D01*
X90135361Y-70693149D01*
X90136441Y-70685868D01*
X90138229Y-70678729D01*
X90140709Y-70671799D01*
X90143856Y-70665145D01*
X90147640Y-70658832D01*
X90152024Y-70652921D01*
X90156967Y-70647467D01*
X90162421Y-70642524D01*
X90168332Y-70638140D01*
X90174645Y-70634356D01*
X90181299Y-70631209D01*
X90188229Y-70628729D01*
X90195368Y-70626941D01*
X90202649Y-70625861D01*
X90210000Y-70625500D01*
X90360000Y-70625500D01*
X90367351Y-70625861D01*
G37*
G36*
X90867351Y-70625861D02*
G01*
X90874632Y-70626941D01*
X90881771Y-70628729D01*
X90888701Y-70631209D01*
X90895355Y-70634356D01*
X90901668Y-70638140D01*
X90907579Y-70642524D01*
X90913033Y-70647467D01*
X90917976Y-70652921D01*
X90922360Y-70658832D01*
X90926144Y-70665145D01*
X90929291Y-70671799D01*
X90931771Y-70678729D01*
X90933559Y-70685868D01*
X90934639Y-70693149D01*
X90935000Y-70700500D01*
X90935000Y-72025500D01*
X90934639Y-72032851D01*
X90933559Y-72040132D01*
X90931771Y-72047271D01*
X90929291Y-72054201D01*
X90926144Y-72060855D01*
X90922360Y-72067168D01*
X90917976Y-72073079D01*
X90913033Y-72078533D01*
X90907579Y-72083476D01*
X90901668Y-72087860D01*
X90895355Y-72091644D01*
X90888701Y-72094791D01*
X90881771Y-72097271D01*
X90874632Y-72099059D01*
X90867351Y-72100139D01*
X90860000Y-72100500D01*
X90710000Y-72100500D01*
X90702649Y-72100139D01*
X90695368Y-72099059D01*
X90688229Y-72097271D01*
X90681299Y-72094791D01*
X90674645Y-72091644D01*
X90668332Y-72087860D01*
X90662421Y-72083476D01*
X90656967Y-72078533D01*
X90652024Y-72073079D01*
X90647640Y-72067168D01*
X90643856Y-72060855D01*
X90640709Y-72054201D01*
X90638229Y-72047271D01*
X90636441Y-72040132D01*
X90635361Y-72032851D01*
X90635000Y-72025500D01*
X90635000Y-70700500D01*
X90635361Y-70693149D01*
X90636441Y-70685868D01*
X90638229Y-70678729D01*
X90640709Y-70671799D01*
X90643856Y-70665145D01*
X90647640Y-70658832D01*
X90652024Y-70652921D01*
X90656967Y-70647467D01*
X90662421Y-70642524D01*
X90668332Y-70638140D01*
X90674645Y-70634356D01*
X90681299Y-70631209D01*
X90688229Y-70628729D01*
X90695368Y-70626941D01*
X90702649Y-70625861D01*
X90710000Y-70625500D01*
X90860000Y-70625500D01*
X90867351Y-70625861D01*
G37*
G36*
X91367351Y-70625861D02*
G01*
X91374632Y-70626941D01*
X91381771Y-70628729D01*
X91388701Y-70631209D01*
X91395355Y-70634356D01*
X91401668Y-70638140D01*
X91407579Y-70642524D01*
X91413033Y-70647467D01*
X91417976Y-70652921D01*
X91422360Y-70658832D01*
X91426144Y-70665145D01*
X91429291Y-70671799D01*
X91431771Y-70678729D01*
X91433559Y-70685868D01*
X91434639Y-70693149D01*
X91435000Y-70700500D01*
X91435000Y-72025500D01*
X91434639Y-72032851D01*
X91433559Y-72040132D01*
X91431771Y-72047271D01*
X91429291Y-72054201D01*
X91426144Y-72060855D01*
X91422360Y-72067168D01*
X91417976Y-72073079D01*
X91413033Y-72078533D01*
X91407579Y-72083476D01*
X91401668Y-72087860D01*
X91395355Y-72091644D01*
X91388701Y-72094791D01*
X91381771Y-72097271D01*
X91374632Y-72099059D01*
X91367351Y-72100139D01*
X91360000Y-72100500D01*
X91210000Y-72100500D01*
X91202649Y-72100139D01*
X91195368Y-72099059D01*
X91188229Y-72097271D01*
X91181299Y-72094791D01*
X91174645Y-72091644D01*
X91168332Y-72087860D01*
X91162421Y-72083476D01*
X91156967Y-72078533D01*
X91152024Y-72073079D01*
X91147640Y-72067168D01*
X91143856Y-72060855D01*
X91140709Y-72054201D01*
X91138229Y-72047271D01*
X91136441Y-72040132D01*
X91135361Y-72032851D01*
X91135000Y-72025500D01*
X91135000Y-70700500D01*
X91135361Y-70693149D01*
X91136441Y-70685868D01*
X91138229Y-70678729D01*
X91140709Y-70671799D01*
X91143856Y-70665145D01*
X91147640Y-70658832D01*
X91152024Y-70652921D01*
X91156967Y-70647467D01*
X91162421Y-70642524D01*
X91168332Y-70638140D01*
X91174645Y-70634356D01*
X91181299Y-70631209D01*
X91188229Y-70628729D01*
X91195368Y-70626941D01*
X91202649Y-70625861D01*
X91210000Y-70625500D01*
X91360000Y-70625500D01*
X91367351Y-70625861D01*
G37*
G36*
X91867351Y-70625861D02*
G01*
X91874632Y-70626941D01*
X91881771Y-70628729D01*
X91888701Y-70631209D01*
X91895355Y-70634356D01*
X91901668Y-70638140D01*
X91907579Y-70642524D01*
X91913033Y-70647467D01*
X91917976Y-70652921D01*
X91922360Y-70658832D01*
X91926144Y-70665145D01*
X91929291Y-70671799D01*
X91931771Y-70678729D01*
X91933559Y-70685868D01*
X91934639Y-70693149D01*
X91935000Y-70700500D01*
X91935000Y-72025500D01*
X91934639Y-72032851D01*
X91933559Y-72040132D01*
X91931771Y-72047271D01*
X91929291Y-72054201D01*
X91926144Y-72060855D01*
X91922360Y-72067168D01*
X91917976Y-72073079D01*
X91913033Y-72078533D01*
X91907579Y-72083476D01*
X91901668Y-72087860D01*
X91895355Y-72091644D01*
X91888701Y-72094791D01*
X91881771Y-72097271D01*
X91874632Y-72099059D01*
X91867351Y-72100139D01*
X91860000Y-72100500D01*
X91710000Y-72100500D01*
X91702649Y-72100139D01*
X91695368Y-72099059D01*
X91688229Y-72097271D01*
X91681299Y-72094791D01*
X91674645Y-72091644D01*
X91668332Y-72087860D01*
X91662421Y-72083476D01*
X91656967Y-72078533D01*
X91652024Y-72073079D01*
X91647640Y-72067168D01*
X91643856Y-72060855D01*
X91640709Y-72054201D01*
X91638229Y-72047271D01*
X91636441Y-72040132D01*
X91635361Y-72032851D01*
X91635000Y-72025500D01*
X91635000Y-70700500D01*
X91635361Y-70693149D01*
X91636441Y-70685868D01*
X91638229Y-70678729D01*
X91640709Y-70671799D01*
X91643856Y-70665145D01*
X91647640Y-70658832D01*
X91652024Y-70652921D01*
X91656967Y-70647467D01*
X91662421Y-70642524D01*
X91668332Y-70638140D01*
X91674645Y-70634356D01*
X91681299Y-70631209D01*
X91688229Y-70628729D01*
X91695368Y-70626941D01*
X91702649Y-70625861D01*
X91710000Y-70625500D01*
X91860000Y-70625500D01*
X91867351Y-70625861D01*
G37*
G36*
X92367351Y-70625861D02*
G01*
X92374632Y-70626941D01*
X92381771Y-70628729D01*
X92388701Y-70631209D01*
X92395355Y-70634356D01*
X92401668Y-70638140D01*
X92407579Y-70642524D01*
X92413033Y-70647467D01*
X92417976Y-70652921D01*
X92422360Y-70658832D01*
X92426144Y-70665145D01*
X92429291Y-70671799D01*
X92431771Y-70678729D01*
X92433559Y-70685868D01*
X92434639Y-70693149D01*
X92435000Y-70700500D01*
X92435000Y-72025500D01*
X92434639Y-72032851D01*
X92433559Y-72040132D01*
X92431771Y-72047271D01*
X92429291Y-72054201D01*
X92426144Y-72060855D01*
X92422360Y-72067168D01*
X92417976Y-72073079D01*
X92413033Y-72078533D01*
X92407579Y-72083476D01*
X92401668Y-72087860D01*
X92395355Y-72091644D01*
X92388701Y-72094791D01*
X92381771Y-72097271D01*
X92374632Y-72099059D01*
X92367351Y-72100139D01*
X92360000Y-72100500D01*
X92210000Y-72100500D01*
X92202649Y-72100139D01*
X92195368Y-72099059D01*
X92188229Y-72097271D01*
X92181299Y-72094791D01*
X92174645Y-72091644D01*
X92168332Y-72087860D01*
X92162421Y-72083476D01*
X92156967Y-72078533D01*
X92152024Y-72073079D01*
X92147640Y-72067168D01*
X92143856Y-72060855D01*
X92140709Y-72054201D01*
X92138229Y-72047271D01*
X92136441Y-72040132D01*
X92135361Y-72032851D01*
X92135000Y-72025500D01*
X92135000Y-70700500D01*
X92135361Y-70693149D01*
X92136441Y-70685868D01*
X92138229Y-70678729D01*
X92140709Y-70671799D01*
X92143856Y-70665145D01*
X92147640Y-70658832D01*
X92152024Y-70652921D01*
X92156967Y-70647467D01*
X92162421Y-70642524D01*
X92168332Y-70638140D01*
X92174645Y-70634356D01*
X92181299Y-70631209D01*
X92188229Y-70628729D01*
X92195368Y-70626941D01*
X92202649Y-70625861D01*
X92210000Y-70625500D01*
X92360000Y-70625500D01*
X92367351Y-70625861D01*
G37*
G36*
X92867351Y-70625861D02*
G01*
X92874632Y-70626941D01*
X92881771Y-70628729D01*
X92888701Y-70631209D01*
X92895355Y-70634356D01*
X92901668Y-70638140D01*
X92907579Y-70642524D01*
X92913033Y-70647467D01*
X92917976Y-70652921D01*
X92922360Y-70658832D01*
X92926144Y-70665145D01*
X92929291Y-70671799D01*
X92931771Y-70678729D01*
X92933559Y-70685868D01*
X92934639Y-70693149D01*
X92935000Y-70700500D01*
X92935000Y-72025500D01*
X92934639Y-72032851D01*
X92933559Y-72040132D01*
X92931771Y-72047271D01*
X92929291Y-72054201D01*
X92926144Y-72060855D01*
X92922360Y-72067168D01*
X92917976Y-72073079D01*
X92913033Y-72078533D01*
X92907579Y-72083476D01*
X92901668Y-72087860D01*
X92895355Y-72091644D01*
X92888701Y-72094791D01*
X92881771Y-72097271D01*
X92874632Y-72099059D01*
X92867351Y-72100139D01*
X92860000Y-72100500D01*
X92710000Y-72100500D01*
X92702649Y-72100139D01*
X92695368Y-72099059D01*
X92688229Y-72097271D01*
X92681299Y-72094791D01*
X92674645Y-72091644D01*
X92668332Y-72087860D01*
X92662421Y-72083476D01*
X92656967Y-72078533D01*
X92652024Y-72073079D01*
X92647640Y-72067168D01*
X92643856Y-72060855D01*
X92640709Y-72054201D01*
X92638229Y-72047271D01*
X92636441Y-72040132D01*
X92635361Y-72032851D01*
X92635000Y-72025500D01*
X92635000Y-70700500D01*
X92635361Y-70693149D01*
X92636441Y-70685868D01*
X92638229Y-70678729D01*
X92640709Y-70671799D01*
X92643856Y-70665145D01*
X92647640Y-70658832D01*
X92652024Y-70652921D01*
X92656967Y-70647467D01*
X92662421Y-70642524D01*
X92668332Y-70638140D01*
X92674645Y-70634356D01*
X92681299Y-70631209D01*
X92688229Y-70628729D01*
X92695368Y-70626941D01*
X92702649Y-70625861D01*
X92710000Y-70625500D01*
X92860000Y-70625500D01*
X92867351Y-70625861D01*
G37*
G36*
X93367351Y-70625861D02*
G01*
X93374632Y-70626941D01*
X93381771Y-70628729D01*
X93388701Y-70631209D01*
X93395355Y-70634356D01*
X93401668Y-70638140D01*
X93407579Y-70642524D01*
X93413033Y-70647467D01*
X93417976Y-70652921D01*
X93422360Y-70658832D01*
X93426144Y-70665145D01*
X93429291Y-70671799D01*
X93431771Y-70678729D01*
X93433559Y-70685868D01*
X93434639Y-70693149D01*
X93435000Y-70700500D01*
X93435000Y-72025500D01*
X93434639Y-72032851D01*
X93433559Y-72040132D01*
X93431771Y-72047271D01*
X93429291Y-72054201D01*
X93426144Y-72060855D01*
X93422360Y-72067168D01*
X93417976Y-72073079D01*
X93413033Y-72078533D01*
X93407579Y-72083476D01*
X93401668Y-72087860D01*
X93395355Y-72091644D01*
X93388701Y-72094791D01*
X93381771Y-72097271D01*
X93374632Y-72099059D01*
X93367351Y-72100139D01*
X93360000Y-72100500D01*
X93210000Y-72100500D01*
X93202649Y-72100139D01*
X93195368Y-72099059D01*
X93188229Y-72097271D01*
X93181299Y-72094791D01*
X93174645Y-72091644D01*
X93168332Y-72087860D01*
X93162421Y-72083476D01*
X93156967Y-72078533D01*
X93152024Y-72073079D01*
X93147640Y-72067168D01*
X93143856Y-72060855D01*
X93140709Y-72054201D01*
X93138229Y-72047271D01*
X93136441Y-72040132D01*
X93135361Y-72032851D01*
X93135000Y-72025500D01*
X93135000Y-70700500D01*
X93135361Y-70693149D01*
X93136441Y-70685868D01*
X93138229Y-70678729D01*
X93140709Y-70671799D01*
X93143856Y-70665145D01*
X93147640Y-70658832D01*
X93152024Y-70652921D01*
X93156967Y-70647467D01*
X93162421Y-70642524D01*
X93168332Y-70638140D01*
X93174645Y-70634356D01*
X93181299Y-70631209D01*
X93188229Y-70628729D01*
X93195368Y-70626941D01*
X93202649Y-70625861D01*
X93210000Y-70625500D01*
X93360000Y-70625500D01*
X93367351Y-70625861D01*
G37*
D13*
X81915000Y-47815500D03*
D14*
X97155000Y-106235500D03*
X81915000Y-50355500D03*
X97155000Y-103695500D03*
X81915000Y-52895500D03*
X97155000Y-101155500D03*
X81915000Y-55435500D03*
X97155000Y-98615500D03*
X81915000Y-57975500D03*
X97155000Y-96075500D03*
X81915000Y-60515500D03*
X97155000Y-93535500D03*
X81915000Y-63055500D03*
X97155000Y-90995500D03*
X81915000Y-65595500D03*
X97155000Y-88455500D03*
X81915000Y-68135500D03*
X97155000Y-85915500D03*
X81915000Y-70675500D03*
X97155000Y-83375500D03*
X81915000Y-73215500D03*
X97155000Y-80835500D03*
X81915000Y-75755500D03*
X97155000Y-78295500D03*
X81915000Y-78295500D03*
X97155000Y-75755500D03*
X81915000Y-80835500D03*
X97155000Y-73215500D03*
X81915000Y-83375500D03*
X97155000Y-70675500D03*
X81915000Y-85915500D03*
X97155000Y-68135500D03*
X81915000Y-88455500D03*
X97155000Y-65595500D03*
X81915000Y-90995500D03*
X97155000Y-63055500D03*
X81915000Y-93535500D03*
X97155000Y-60515500D03*
X81915000Y-96075500D03*
X97155000Y-57975500D03*
X81915000Y-98615500D03*
X97155000Y-55435500D03*
X81915000Y-101155500D03*
X97155000Y-52895500D03*
X81915000Y-103695500D03*
X97155000Y-50355500D03*
X81915000Y-106235500D03*
X97155000Y-47815500D03*
D12*
G36*
X86834505Y-48566204D02*
G01*
X86858773Y-48569804D01*
X86882572Y-48575765D01*
X86905671Y-48584030D01*
X86927850Y-48594520D01*
X86948893Y-48607132D01*
X86968599Y-48621747D01*
X86986777Y-48638223D01*
X87003253Y-48656401D01*
X87017868Y-48676107D01*
X87030480Y-48697150D01*
X87040970Y-48719329D01*
X87049235Y-48742428D01*
X87055196Y-48766227D01*
X87058796Y-48790495D01*
X87060000Y-48814999D01*
X87060000Y-49465001D01*
X87058796Y-49489505D01*
X87055196Y-49513773D01*
X87049235Y-49537572D01*
X87040970Y-49560671D01*
X87030480Y-49582850D01*
X87017868Y-49603893D01*
X87003253Y-49623599D01*
X86986777Y-49641777D01*
X86968599Y-49658253D01*
X86948893Y-49672868D01*
X86927850Y-49685480D01*
X86905671Y-49695970D01*
X86882572Y-49704235D01*
X86858773Y-49710196D01*
X86834505Y-49713796D01*
X86810001Y-49715000D01*
X85909999Y-49715000D01*
X85885495Y-49713796D01*
X85861227Y-49710196D01*
X85837428Y-49704235D01*
X85814329Y-49695970D01*
X85792150Y-49685480D01*
X85771107Y-49672868D01*
X85751401Y-49658253D01*
X85733223Y-49641777D01*
X85716747Y-49623599D01*
X85702132Y-49603893D01*
X85689520Y-49582850D01*
X85679030Y-49560671D01*
X85670765Y-49537572D01*
X85664804Y-49513773D01*
X85661204Y-49489505D01*
X85660000Y-49465001D01*
X85660000Y-48814999D01*
X85661204Y-48790495D01*
X85664804Y-48766227D01*
X85670765Y-48742428D01*
X85679030Y-48719329D01*
X85689520Y-48697150D01*
X85702132Y-48676107D01*
X85716747Y-48656401D01*
X85733223Y-48638223D01*
X85751401Y-48621747D01*
X85771107Y-48607132D01*
X85792150Y-48594520D01*
X85814329Y-48584030D01*
X85837428Y-48575765D01*
X85861227Y-48569804D01*
X85885495Y-48566204D01*
X85909999Y-48565000D01*
X86810001Y-48565000D01*
X86834505Y-48566204D01*
G37*
G36*
X86834505Y-50616204D02*
G01*
X86858773Y-50619804D01*
X86882572Y-50625765D01*
X86905671Y-50634030D01*
X86927850Y-50644520D01*
X86948893Y-50657132D01*
X86968599Y-50671747D01*
X86986777Y-50688223D01*
X87003253Y-50706401D01*
X87017868Y-50726107D01*
X87030480Y-50747150D01*
X87040970Y-50769329D01*
X87049235Y-50792428D01*
X87055196Y-50816227D01*
X87058796Y-50840495D01*
X87060000Y-50864999D01*
X87060000Y-51515001D01*
X87058796Y-51539505D01*
X87055196Y-51563773D01*
X87049235Y-51587572D01*
X87040970Y-51610671D01*
X87030480Y-51632850D01*
X87017868Y-51653893D01*
X87003253Y-51673599D01*
X86986777Y-51691777D01*
X86968599Y-51708253D01*
X86948893Y-51722868D01*
X86927850Y-51735480D01*
X86905671Y-51745970D01*
X86882572Y-51754235D01*
X86858773Y-51760196D01*
X86834505Y-51763796D01*
X86810001Y-51765000D01*
X85909999Y-51765000D01*
X85885495Y-51763796D01*
X85861227Y-51760196D01*
X85837428Y-51754235D01*
X85814329Y-51745970D01*
X85792150Y-51735480D01*
X85771107Y-51722868D01*
X85751401Y-51708253D01*
X85733223Y-51691777D01*
X85716747Y-51673599D01*
X85702132Y-51653893D01*
X85689520Y-51632850D01*
X85679030Y-51610671D01*
X85670765Y-51587572D01*
X85664804Y-51563773D01*
X85661204Y-51539505D01*
X85660000Y-51515001D01*
X85660000Y-50864999D01*
X85661204Y-50840495D01*
X85664804Y-50816227D01*
X85670765Y-50792428D01*
X85679030Y-50769329D01*
X85689520Y-50747150D01*
X85702132Y-50726107D01*
X85716747Y-50706401D01*
X85733223Y-50688223D01*
X85751401Y-50671747D01*
X85771107Y-50657132D01*
X85792150Y-50644520D01*
X85814329Y-50634030D01*
X85837428Y-50625765D01*
X85861227Y-50619804D01*
X85885495Y-50616204D01*
X85909999Y-50615000D01*
X86810001Y-50615000D01*
X86834505Y-50616204D01*
G37*
G36*
X93184505Y-50616204D02*
G01*
X93208773Y-50619804D01*
X93232572Y-50625765D01*
X93255671Y-50634030D01*
X93277850Y-50644520D01*
X93298893Y-50657132D01*
X93318599Y-50671747D01*
X93336777Y-50688223D01*
X93353253Y-50706401D01*
X93367868Y-50726107D01*
X93380480Y-50747150D01*
X93390970Y-50769329D01*
X93399235Y-50792428D01*
X93405196Y-50816227D01*
X93408796Y-50840495D01*
X93410000Y-50864999D01*
X93410000Y-51515001D01*
X93408796Y-51539505D01*
X93405196Y-51563773D01*
X93399235Y-51587572D01*
X93390970Y-51610671D01*
X93380480Y-51632850D01*
X93367868Y-51653893D01*
X93353253Y-51673599D01*
X93336777Y-51691777D01*
X93318599Y-51708253D01*
X93298893Y-51722868D01*
X93277850Y-51735480D01*
X93255671Y-51745970D01*
X93232572Y-51754235D01*
X93208773Y-51760196D01*
X93184505Y-51763796D01*
X93160001Y-51765000D01*
X92259999Y-51765000D01*
X92235495Y-51763796D01*
X92211227Y-51760196D01*
X92187428Y-51754235D01*
X92164329Y-51745970D01*
X92142150Y-51735480D01*
X92121107Y-51722868D01*
X92101401Y-51708253D01*
X92083223Y-51691777D01*
X92066747Y-51673599D01*
X92052132Y-51653893D01*
X92039520Y-51632850D01*
X92029030Y-51610671D01*
X92020765Y-51587572D01*
X92014804Y-51563773D01*
X92011204Y-51539505D01*
X92010000Y-51515001D01*
X92010000Y-50864999D01*
X92011204Y-50840495D01*
X92014804Y-50816227D01*
X92020765Y-50792428D01*
X92029030Y-50769329D01*
X92039520Y-50747150D01*
X92052132Y-50726107D01*
X92066747Y-50706401D01*
X92083223Y-50688223D01*
X92101401Y-50671747D01*
X92121107Y-50657132D01*
X92142150Y-50644520D01*
X92164329Y-50634030D01*
X92187428Y-50625765D01*
X92211227Y-50619804D01*
X92235495Y-50616204D01*
X92259999Y-50615000D01*
X93160001Y-50615000D01*
X93184505Y-50616204D01*
G37*
G36*
X93184505Y-48566204D02*
G01*
X93208773Y-48569804D01*
X93232572Y-48575765D01*
X93255671Y-48584030D01*
X93277850Y-48594520D01*
X93298893Y-48607132D01*
X93318599Y-48621747D01*
X93336777Y-48638223D01*
X93353253Y-48656401D01*
X93367868Y-48676107D01*
X93380480Y-48697150D01*
X93390970Y-48719329D01*
X93399235Y-48742428D01*
X93405196Y-48766227D01*
X93408796Y-48790495D01*
X93410000Y-48814999D01*
X93410000Y-49465001D01*
X93408796Y-49489505D01*
X93405196Y-49513773D01*
X93399235Y-49537572D01*
X93390970Y-49560671D01*
X93380480Y-49582850D01*
X93367868Y-49603893D01*
X93353253Y-49623599D01*
X93336777Y-49641777D01*
X93318599Y-49658253D01*
X93298893Y-49672868D01*
X93277850Y-49685480D01*
X93255671Y-49695970D01*
X93232572Y-49704235D01*
X93208773Y-49710196D01*
X93184505Y-49713796D01*
X93160001Y-49715000D01*
X92259999Y-49715000D01*
X92235495Y-49713796D01*
X92211227Y-49710196D01*
X92187428Y-49704235D01*
X92164329Y-49695970D01*
X92142150Y-49685480D01*
X92121107Y-49672868D01*
X92101401Y-49658253D01*
X92083223Y-49641777D01*
X92066747Y-49623599D01*
X92052132Y-49603893D01*
X92039520Y-49582850D01*
X92029030Y-49560671D01*
X92020765Y-49537572D01*
X92014804Y-49513773D01*
X92011204Y-49489505D01*
X92010000Y-49465001D01*
X92010000Y-48814999D01*
X92011204Y-48790495D01*
X92014804Y-48766227D01*
X92020765Y-48742428D01*
X92029030Y-48719329D01*
X92039520Y-48697150D01*
X92052132Y-48676107D01*
X92066747Y-48656401D01*
X92083223Y-48638223D01*
X92101401Y-48621747D01*
X92121107Y-48607132D01*
X92142150Y-48594520D01*
X92164329Y-48584030D01*
X92187428Y-48575765D01*
X92211227Y-48569804D01*
X92235495Y-48566204D01*
X92259999Y-48565000D01*
X93160001Y-48565000D01*
X93184505Y-48566204D01*
G37*
G36*
X88618205Y-86004104D02*
G01*
X88642473Y-86007704D01*
X88666272Y-86013665D01*
X88689371Y-86021930D01*
X88711550Y-86032420D01*
X88732593Y-86045032D01*
X88752299Y-86059647D01*
X88770477Y-86076123D01*
X88786953Y-86094301D01*
X88801568Y-86114007D01*
X88814180Y-86135050D01*
X88824670Y-86157229D01*
X88832935Y-86180328D01*
X88838896Y-86204127D01*
X88842496Y-86228395D01*
X88843700Y-86252899D01*
X88843700Y-87152901D01*
X88842496Y-87177405D01*
X88838896Y-87201673D01*
X88832935Y-87225472D01*
X88824670Y-87248571D01*
X88814180Y-87270750D01*
X88801568Y-87291793D01*
X88786953Y-87311499D01*
X88770477Y-87329677D01*
X88752299Y-87346153D01*
X88732593Y-87360768D01*
X88711550Y-87373380D01*
X88689371Y-87383870D01*
X88666272Y-87392135D01*
X88642473Y-87398096D01*
X88618205Y-87401696D01*
X88593701Y-87402900D01*
X87943699Y-87402900D01*
X87919195Y-87401696D01*
X87894927Y-87398096D01*
X87871128Y-87392135D01*
X87848029Y-87383870D01*
X87825850Y-87373380D01*
X87804807Y-87360768D01*
X87785101Y-87346153D01*
X87766923Y-87329677D01*
X87750447Y-87311499D01*
X87735832Y-87291793D01*
X87723220Y-87270750D01*
X87712730Y-87248571D01*
X87704465Y-87225472D01*
X87698504Y-87201673D01*
X87694904Y-87177405D01*
X87693700Y-87152901D01*
X87693700Y-86252899D01*
X87694904Y-86228395D01*
X87698504Y-86204127D01*
X87704465Y-86180328D01*
X87712730Y-86157229D01*
X87723220Y-86135050D01*
X87735832Y-86114007D01*
X87750447Y-86094301D01*
X87766923Y-86076123D01*
X87785101Y-86059647D01*
X87804807Y-86045032D01*
X87825850Y-86032420D01*
X87848029Y-86021930D01*
X87871128Y-86013665D01*
X87894927Y-86007704D01*
X87919195Y-86004104D01*
X87943699Y-86002900D01*
X88593701Y-86002900D01*
X88618205Y-86004104D01*
G37*
G36*
X90668205Y-86004104D02*
G01*
X90692473Y-86007704D01*
X90716272Y-86013665D01*
X90739371Y-86021930D01*
X90761550Y-86032420D01*
X90782593Y-86045032D01*
X90802299Y-86059647D01*
X90820477Y-86076123D01*
X90836953Y-86094301D01*
X90851568Y-86114007D01*
X90864180Y-86135050D01*
X90874670Y-86157229D01*
X90882935Y-86180328D01*
X90888896Y-86204127D01*
X90892496Y-86228395D01*
X90893700Y-86252899D01*
X90893700Y-87152901D01*
X90892496Y-87177405D01*
X90888896Y-87201673D01*
X90882935Y-87225472D01*
X90874670Y-87248571D01*
X90864180Y-87270750D01*
X90851568Y-87291793D01*
X90836953Y-87311499D01*
X90820477Y-87329677D01*
X90802299Y-87346153D01*
X90782593Y-87360768D01*
X90761550Y-87373380D01*
X90739371Y-87383870D01*
X90716272Y-87392135D01*
X90692473Y-87398096D01*
X90668205Y-87401696D01*
X90643701Y-87402900D01*
X89993699Y-87402900D01*
X89969195Y-87401696D01*
X89944927Y-87398096D01*
X89921128Y-87392135D01*
X89898029Y-87383870D01*
X89875850Y-87373380D01*
X89854807Y-87360768D01*
X89835101Y-87346153D01*
X89816923Y-87329677D01*
X89800447Y-87311499D01*
X89785832Y-87291793D01*
X89773220Y-87270750D01*
X89762730Y-87248571D01*
X89754465Y-87225472D01*
X89748504Y-87201673D01*
X89744904Y-87177405D01*
X89743700Y-87152901D01*
X89743700Y-86252899D01*
X89744904Y-86228395D01*
X89748504Y-86204127D01*
X89754465Y-86180328D01*
X89762730Y-86157229D01*
X89773220Y-86135050D01*
X89785832Y-86114007D01*
X89800447Y-86094301D01*
X89816923Y-86076123D01*
X89835101Y-86059647D01*
X89854807Y-86045032D01*
X89875850Y-86032420D01*
X89898029Y-86021930D01*
X89921128Y-86013665D01*
X89944927Y-86007704D01*
X89969195Y-86004104D01*
X89993699Y-86002900D01*
X90643701Y-86002900D01*
X90668205Y-86004104D01*
G37*
D15*
X89535000Y-57785000D03*
D12*
G36*
X90835000Y-57035602D02*
G01*
X90859534Y-57035602D01*
X90908365Y-57040412D01*
X90956490Y-57049984D01*
X91003445Y-57064228D01*
X91048778Y-57083005D01*
X91092051Y-57106136D01*
X91132850Y-57133396D01*
X91170779Y-57164524D01*
X91205476Y-57199221D01*
X91236604Y-57237150D01*
X91263864Y-57277949D01*
X91286995Y-57321222D01*
X91305772Y-57366555D01*
X91320016Y-57413510D01*
X91329588Y-57461635D01*
X91334398Y-57510466D01*
X91334398Y-57535000D01*
X91335000Y-57535000D01*
X91335000Y-58035000D01*
X91334398Y-58035000D01*
X91334398Y-58059534D01*
X91329588Y-58108365D01*
X91320016Y-58156490D01*
X91305772Y-58203445D01*
X91286995Y-58248778D01*
X91263864Y-58292051D01*
X91236604Y-58332850D01*
X91205476Y-58370779D01*
X91170779Y-58405476D01*
X91132850Y-58436604D01*
X91092051Y-58463864D01*
X91048778Y-58486995D01*
X91003445Y-58505772D01*
X90956490Y-58520016D01*
X90908365Y-58529588D01*
X90859534Y-58534398D01*
X90835000Y-58534398D01*
X90835000Y-58535000D01*
X90285000Y-58535000D01*
X90285000Y-57035000D01*
X90835000Y-57035000D01*
X90835000Y-57035602D01*
G37*
G36*
X88785000Y-58535000D02*
G01*
X88235000Y-58535000D01*
X88235000Y-58534398D01*
X88210466Y-58534398D01*
X88161635Y-58529588D01*
X88113510Y-58520016D01*
X88066555Y-58505772D01*
X88021222Y-58486995D01*
X87977949Y-58463864D01*
X87937150Y-58436604D01*
X87899221Y-58405476D01*
X87864524Y-58370779D01*
X87833396Y-58332850D01*
X87806136Y-58292051D01*
X87783005Y-58248778D01*
X87764228Y-58203445D01*
X87749984Y-58156490D01*
X87740412Y-58108365D01*
X87735602Y-58059534D01*
X87735602Y-58035000D01*
X87735000Y-58035000D01*
X87735000Y-57535000D01*
X87735602Y-57535000D01*
X87735602Y-57510466D01*
X87740412Y-57461635D01*
X87749984Y-57413510D01*
X87764228Y-57366555D01*
X87783005Y-57321222D01*
X87806136Y-57277949D01*
X87833396Y-57237150D01*
X87864524Y-57199221D01*
X87899221Y-57164524D01*
X87937150Y-57133396D01*
X87977949Y-57106136D01*
X88021222Y-57083005D01*
X88066555Y-57064228D01*
X88113510Y-57049984D01*
X88161635Y-57040412D01*
X88210466Y-57035602D01*
X88235000Y-57035602D01*
X88235000Y-57035000D01*
X88785000Y-57035000D01*
X88785000Y-58535000D01*
G37*
G36*
X88755000Y-96635000D02*
G01*
X88205000Y-96635000D01*
X88205000Y-96634398D01*
X88180466Y-96634398D01*
X88131635Y-96629588D01*
X88083510Y-96620016D01*
X88036555Y-96605772D01*
X87991222Y-96586995D01*
X87947949Y-96563864D01*
X87907150Y-96536604D01*
X87869221Y-96505476D01*
X87834524Y-96470779D01*
X87803396Y-96432850D01*
X87776136Y-96392051D01*
X87753005Y-96348778D01*
X87734228Y-96303445D01*
X87719984Y-96256490D01*
X87710412Y-96208365D01*
X87705602Y-96159534D01*
X87705602Y-96135000D01*
X87705000Y-96135000D01*
X87705000Y-95635000D01*
X87705602Y-95635000D01*
X87705602Y-95610466D01*
X87710412Y-95561635D01*
X87719984Y-95513510D01*
X87734228Y-95466555D01*
X87753005Y-95421222D01*
X87776136Y-95377949D01*
X87803396Y-95337150D01*
X87834524Y-95299221D01*
X87869221Y-95264524D01*
X87907150Y-95233396D01*
X87947949Y-95206136D01*
X87991222Y-95183005D01*
X88036555Y-95164228D01*
X88083510Y-95149984D01*
X88131635Y-95140412D01*
X88180466Y-95135602D01*
X88205000Y-95135602D01*
X88205000Y-95135000D01*
X88755000Y-95135000D01*
X88755000Y-96635000D01*
G37*
G36*
X90805000Y-95135602D02*
G01*
X90829534Y-95135602D01*
X90878365Y-95140412D01*
X90926490Y-95149984D01*
X90973445Y-95164228D01*
X91018778Y-95183005D01*
X91062051Y-95206136D01*
X91102850Y-95233396D01*
X91140779Y-95264524D01*
X91175476Y-95299221D01*
X91206604Y-95337150D01*
X91233864Y-95377949D01*
X91256995Y-95421222D01*
X91275772Y-95466555D01*
X91290016Y-95513510D01*
X91299588Y-95561635D01*
X91304398Y-95610466D01*
X91304398Y-95635000D01*
X91305000Y-95635000D01*
X91305000Y-96135000D01*
X91304398Y-96135000D01*
X91304398Y-96159534D01*
X91299588Y-96208365D01*
X91290016Y-96256490D01*
X91275772Y-96303445D01*
X91256995Y-96348778D01*
X91233864Y-96392051D01*
X91206604Y-96432850D01*
X91175476Y-96470779D01*
X91140779Y-96505476D01*
X91102850Y-96536604D01*
X91062051Y-96563864D01*
X91018778Y-96586995D01*
X90973445Y-96605772D01*
X90926490Y-96620016D01*
X90878365Y-96629588D01*
X90829534Y-96634398D01*
X90805000Y-96634398D01*
X90805000Y-96635000D01*
X90255000Y-96635000D01*
X90255000Y-95135000D01*
X90805000Y-95135000D01*
X90805000Y-95135602D01*
G37*
D15*
X89505000Y-95885000D03*
X89505000Y-92075000D03*
D12*
G36*
X90805000Y-91325602D02*
G01*
X90829534Y-91325602D01*
X90878365Y-91330412D01*
X90926490Y-91339984D01*
X90973445Y-91354228D01*
X91018778Y-91373005D01*
X91062051Y-91396136D01*
X91102850Y-91423396D01*
X91140779Y-91454524D01*
X91175476Y-91489221D01*
X91206604Y-91527150D01*
X91233864Y-91567949D01*
X91256995Y-91611222D01*
X91275772Y-91656555D01*
X91290016Y-91703510D01*
X91299588Y-91751635D01*
X91304398Y-91800466D01*
X91304398Y-91825000D01*
X91305000Y-91825000D01*
X91305000Y-92325000D01*
X91304398Y-92325000D01*
X91304398Y-92349534D01*
X91299588Y-92398365D01*
X91290016Y-92446490D01*
X91275772Y-92493445D01*
X91256995Y-92538778D01*
X91233864Y-92582051D01*
X91206604Y-92622850D01*
X91175476Y-92660779D01*
X91140779Y-92695476D01*
X91102850Y-92726604D01*
X91062051Y-92753864D01*
X91018778Y-92776995D01*
X90973445Y-92795772D01*
X90926490Y-92810016D01*
X90878365Y-92819588D01*
X90829534Y-92824398D01*
X90805000Y-92824398D01*
X90805000Y-92825000D01*
X90255000Y-92825000D01*
X90255000Y-91325000D01*
X90805000Y-91325000D01*
X90805000Y-91325602D01*
G37*
G36*
X88755000Y-92825000D02*
G01*
X88205000Y-92825000D01*
X88205000Y-92824398D01*
X88180466Y-92824398D01*
X88131635Y-92819588D01*
X88083510Y-92810016D01*
X88036555Y-92795772D01*
X87991222Y-92776995D01*
X87947949Y-92753864D01*
X87907150Y-92726604D01*
X87869221Y-92695476D01*
X87834524Y-92660779D01*
X87803396Y-92622850D01*
X87776136Y-92582051D01*
X87753005Y-92538778D01*
X87734228Y-92493445D01*
X87719984Y-92446490D01*
X87710412Y-92398365D01*
X87705602Y-92349534D01*
X87705602Y-92325000D01*
X87705000Y-92325000D01*
X87705000Y-91825000D01*
X87705602Y-91825000D01*
X87705602Y-91800466D01*
X87710412Y-91751635D01*
X87719984Y-91703510D01*
X87734228Y-91656555D01*
X87753005Y-91611222D01*
X87776136Y-91567949D01*
X87803396Y-91527150D01*
X87834524Y-91489221D01*
X87869221Y-91454524D01*
X87907150Y-91423396D01*
X87947949Y-91396136D01*
X87991222Y-91373005D01*
X88036555Y-91354228D01*
X88083510Y-91339984D01*
X88131635Y-91330412D01*
X88180466Y-91325602D01*
X88205000Y-91325602D01*
X88205000Y-91325000D01*
X88755000Y-91325000D01*
X88755000Y-92825000D01*
G37*
G36*
X88785000Y-54725000D02*
G01*
X88235000Y-54725000D01*
X88235000Y-54724398D01*
X88210466Y-54724398D01*
X88161635Y-54719588D01*
X88113510Y-54710016D01*
X88066555Y-54695772D01*
X88021222Y-54676995D01*
X87977949Y-54653864D01*
X87937150Y-54626604D01*
X87899221Y-54595476D01*
X87864524Y-54560779D01*
X87833396Y-54522850D01*
X87806136Y-54482051D01*
X87783005Y-54438778D01*
X87764228Y-54393445D01*
X87749984Y-54346490D01*
X87740412Y-54298365D01*
X87735602Y-54249534D01*
X87735602Y-54225000D01*
X87735000Y-54225000D01*
X87735000Y-53725000D01*
X87735602Y-53725000D01*
X87735602Y-53700466D01*
X87740412Y-53651635D01*
X87749984Y-53603510D01*
X87764228Y-53556555D01*
X87783005Y-53511222D01*
X87806136Y-53467949D01*
X87833396Y-53427150D01*
X87864524Y-53389221D01*
X87899221Y-53354524D01*
X87937150Y-53323396D01*
X87977949Y-53296136D01*
X88021222Y-53273005D01*
X88066555Y-53254228D01*
X88113510Y-53239984D01*
X88161635Y-53230412D01*
X88210466Y-53225602D01*
X88235000Y-53225602D01*
X88235000Y-53225000D01*
X88785000Y-53225000D01*
X88785000Y-54725000D01*
G37*
G36*
X90835000Y-53225602D02*
G01*
X90859534Y-53225602D01*
X90908365Y-53230412D01*
X90956490Y-53239984D01*
X91003445Y-53254228D01*
X91048778Y-53273005D01*
X91092051Y-53296136D01*
X91132850Y-53323396D01*
X91170779Y-53354524D01*
X91205476Y-53389221D01*
X91236604Y-53427150D01*
X91263864Y-53467949D01*
X91286995Y-53511222D01*
X91305772Y-53556555D01*
X91320016Y-53603510D01*
X91329588Y-53651635D01*
X91334398Y-53700466D01*
X91334398Y-53725000D01*
X91335000Y-53725000D01*
X91335000Y-54225000D01*
X91334398Y-54225000D01*
X91334398Y-54249534D01*
X91329588Y-54298365D01*
X91320016Y-54346490D01*
X91305772Y-54393445D01*
X91286995Y-54438778D01*
X91263864Y-54482051D01*
X91236604Y-54522850D01*
X91205476Y-54560779D01*
X91170779Y-54595476D01*
X91132850Y-54626604D01*
X91092051Y-54653864D01*
X91048778Y-54676995D01*
X91003445Y-54695772D01*
X90956490Y-54710016D01*
X90908365Y-54719588D01*
X90859534Y-54724398D01*
X90835000Y-54724398D01*
X90835000Y-54725000D01*
X90285000Y-54725000D01*
X90285000Y-53225000D01*
X90835000Y-53225000D01*
X90835000Y-53225602D01*
G37*
D15*
X89535000Y-53975000D03*
D16*
X90485000Y-49515000D03*
X90485000Y-50165000D03*
X90485000Y-50815000D03*
X88585000Y-50815000D03*
X88585000Y-50165000D03*
X88585000Y-49515000D03*
D12*
G36*
X89809504Y-49366204D02*
G01*
X89833773Y-49369804D01*
X89857571Y-49375765D01*
X89880671Y-49384030D01*
X89902849Y-49394520D01*
X89923893Y-49407133D01*
X89943598Y-49421747D01*
X89961777Y-49438223D01*
X89978253Y-49456402D01*
X89992867Y-49476107D01*
X90005480Y-49497151D01*
X90015970Y-49519329D01*
X90024235Y-49542429D01*
X90030196Y-49566227D01*
X90033796Y-49590496D01*
X90035000Y-49615000D01*
X90035000Y-50715000D01*
X90033796Y-50739504D01*
X90030196Y-50763773D01*
X90024235Y-50787571D01*
X90015970Y-50810671D01*
X90005480Y-50832849D01*
X89992867Y-50853893D01*
X89978253Y-50873598D01*
X89961777Y-50891777D01*
X89943598Y-50908253D01*
X89923893Y-50922867D01*
X89902849Y-50935480D01*
X89880671Y-50945970D01*
X89857571Y-50954235D01*
X89833773Y-50960196D01*
X89809504Y-50963796D01*
X89785000Y-50965000D01*
X89285000Y-50965000D01*
X89260496Y-50963796D01*
X89236227Y-50960196D01*
X89212429Y-50954235D01*
X89189329Y-50945970D01*
X89167151Y-50935480D01*
X89146107Y-50922867D01*
X89126402Y-50908253D01*
X89108223Y-50891777D01*
X89091747Y-50873598D01*
X89077133Y-50853893D01*
X89064520Y-50832849D01*
X89054030Y-50810671D01*
X89045765Y-50787571D01*
X89039804Y-50763773D01*
X89036204Y-50739504D01*
X89035000Y-50715000D01*
X89035000Y-49615000D01*
X89036204Y-49590496D01*
X89039804Y-49566227D01*
X89045765Y-49542429D01*
X89054030Y-49519329D01*
X89064520Y-49497151D01*
X89077133Y-49476107D01*
X89091747Y-49456402D01*
X89108223Y-49438223D01*
X89126402Y-49421747D01*
X89146107Y-49407133D01*
X89167151Y-49394520D01*
X89189329Y-49384030D01*
X89212429Y-49375765D01*
X89236227Y-49369804D01*
X89260496Y-49366204D01*
X89285000Y-49365000D01*
X89785000Y-49365000D01*
X89809504Y-49366204D01*
G37*
M02*
