G04 #@! TF.GenerationSoftware,KiCad,Pcbnew,(5.1.5)-3*
G04 #@! TF.CreationDate,2021-01-01T17:19:35-05:00*
G04 #@! TF.ProjectId,DIP48-XC9572XL,44495034-382d-4584-9339-353732584c2e,1*
G04 #@! TF.SameCoordinates,Original*
G04 #@! TF.FileFunction,Legend,Bot*
G04 #@! TF.FilePolarity,Positive*
%FSLAX46Y46*%
G04 Gerber Fmt 4.6, Leading zero omitted, Abs format (unit mm)*
G04 Created by KiCad (PCBNEW (5.1.5)-3) date 2021-01-01 17:19:35*
%MOMM*%
%LPD*%
G04 APERTURE LIST*
%ADD10C,0.300000*%
%ADD11C,0.120000*%
%ADD12C,0.150000*%
G04 APERTURE END LIST*
D10*
X92578642Y-101072071D02*
X93078642Y-100357785D01*
X93435785Y-101072071D02*
X93435785Y-99572071D01*
X92864357Y-99572071D01*
X92721500Y-99643500D01*
X92650071Y-99714928D01*
X92578642Y-99857785D01*
X92578642Y-100072071D01*
X92650071Y-100214928D01*
X92721500Y-100286357D01*
X92864357Y-100357785D01*
X93435785Y-100357785D01*
X91364357Y-101000642D02*
X91507214Y-101072071D01*
X91792928Y-101072071D01*
X91935785Y-101000642D01*
X92007214Y-100857785D01*
X92007214Y-100286357D01*
X91935785Y-100143500D01*
X91792928Y-100072071D01*
X91507214Y-100072071D01*
X91364357Y-100143500D01*
X91292928Y-100286357D01*
X91292928Y-100429214D01*
X92007214Y-100572071D01*
X90792928Y-100072071D02*
X90435785Y-101072071D01*
X90078642Y-100072071D01*
X87578642Y-101072071D02*
X88435785Y-101072071D01*
X88007214Y-101072071D02*
X88007214Y-99572071D01*
X88150071Y-99786357D01*
X88292928Y-99929214D01*
X88435785Y-100000642D01*
X86935785Y-100929214D02*
X86864357Y-101000642D01*
X86935785Y-101072071D01*
X87007214Y-101000642D01*
X86935785Y-100929214D01*
X86935785Y-101072071D01*
X85435785Y-101072071D02*
X86292928Y-101072071D01*
X85864357Y-101072071D02*
X85864357Y-99572071D01*
X86007214Y-99786357D01*
X86150071Y-99929214D01*
X86292928Y-100000642D01*
X84848000Y-92837142D02*
X84776571Y-92694285D01*
X84776571Y-92480000D01*
X84848000Y-92265714D01*
X84990857Y-92122857D01*
X85133714Y-92051428D01*
X85419428Y-91980000D01*
X85633714Y-91980000D01*
X85919428Y-92051428D01*
X86062285Y-92122857D01*
X86205142Y-92265714D01*
X86276571Y-92480000D01*
X86276571Y-92622857D01*
X86205142Y-92837142D01*
X86133714Y-92908571D01*
X85633714Y-92908571D01*
X85633714Y-92622857D01*
X86276571Y-93551428D02*
X84776571Y-93551428D01*
X86276571Y-94408571D01*
X84776571Y-94408571D01*
X86276571Y-95122857D02*
X84776571Y-95122857D01*
X84776571Y-95480000D01*
X84848000Y-95694285D01*
X84990857Y-95837142D01*
X85133714Y-95908571D01*
X85419428Y-95980000D01*
X85633714Y-95980000D01*
X85919428Y-95908571D01*
X86062285Y-95837142D01*
X86205142Y-95694285D01*
X86276571Y-95480000D01*
X86276571Y-95122857D01*
X92650571Y-55403785D02*
X92650571Y-54689500D01*
X93364857Y-54618071D01*
X93293428Y-54689500D01*
X93222000Y-54832357D01*
X93222000Y-55189500D01*
X93293428Y-55332357D01*
X93364857Y-55403785D01*
X93507714Y-55475214D01*
X93864857Y-55475214D01*
X94007714Y-55403785D01*
X94079142Y-55332357D01*
X94150571Y-55189500D01*
X94150571Y-54832357D01*
X94079142Y-54689500D01*
X94007714Y-54618071D01*
X92650571Y-55903785D02*
X94150571Y-56403785D01*
X92650571Y-56903785D01*
D11*
X85375000Y-82135500D02*
X84425000Y-82135500D01*
X84425000Y-82135500D02*
X84425000Y-81185500D01*
X93695000Y-82135500D02*
X94645000Y-82135500D01*
X94645000Y-82135500D02*
X94645000Y-81185500D01*
X85375000Y-71915500D02*
X84425000Y-71915500D01*
X84425000Y-71915500D02*
X84425000Y-72865500D01*
X93695000Y-71915500D02*
X94645000Y-71915500D01*
X94645000Y-71915500D02*
X94645000Y-72865500D01*
X94645000Y-72865500D02*
X95935000Y-72865500D01*
X85650000Y-49903748D02*
X85650000Y-50426252D01*
X87070000Y-49903748D02*
X87070000Y-50426252D01*
X93420000Y-49903748D02*
X93420000Y-50426252D01*
X92000000Y-49903748D02*
X92000000Y-50426252D01*
X89032448Y-87412900D02*
X89554952Y-87412900D01*
X89032448Y-85992900D02*
X89554952Y-85992900D01*
X87485000Y-58085000D02*
G75*
G03X88185000Y-58785000I700000J0D01*
G01*
X88185000Y-56785000D02*
G75*
G03X87485000Y-57485000I0J-700000D01*
G01*
X91585000Y-57485000D02*
G75*
G03X90885000Y-56785000I-700000J0D01*
G01*
X90885000Y-58785000D02*
G75*
G03X91585000Y-58085000I0J700000D01*
G01*
X88135000Y-58785000D02*
X90935000Y-58785000D01*
X91585000Y-58085000D02*
X91585000Y-57485000D01*
X90935000Y-56785000D02*
X88135000Y-56785000D01*
X87485000Y-57485000D02*
X87485000Y-58085000D01*
X87455000Y-95585000D02*
X87455000Y-96185000D01*
X90905000Y-94885000D02*
X88105000Y-94885000D01*
X91555000Y-96185000D02*
X91555000Y-95585000D01*
X88105000Y-96885000D02*
X90905000Y-96885000D01*
X90855000Y-96885000D02*
G75*
G03X91555000Y-96185000I0J700000D01*
G01*
X91555000Y-95585000D02*
G75*
G03X90855000Y-94885000I-700000J0D01*
G01*
X88155000Y-94885000D02*
G75*
G03X87455000Y-95585000I0J-700000D01*
G01*
X87455000Y-96185000D02*
G75*
G03X88155000Y-96885000I700000J0D01*
G01*
X87455000Y-92375000D02*
G75*
G03X88155000Y-93075000I700000J0D01*
G01*
X88155000Y-91075000D02*
G75*
G03X87455000Y-91775000I0J-700000D01*
G01*
X91555000Y-91775000D02*
G75*
G03X90855000Y-91075000I-700000J0D01*
G01*
X90855000Y-93075000D02*
G75*
G03X91555000Y-92375000I0J700000D01*
G01*
X88105000Y-93075000D02*
X90905000Y-93075000D01*
X91555000Y-92375000D02*
X91555000Y-91775000D01*
X90905000Y-91075000D02*
X88105000Y-91075000D01*
X87455000Y-91775000D02*
X87455000Y-92375000D01*
X87485000Y-53675000D02*
X87485000Y-54275000D01*
X90935000Y-52975000D02*
X88135000Y-52975000D01*
X91585000Y-54275000D02*
X91585000Y-53675000D01*
X88135000Y-54975000D02*
X90935000Y-54975000D01*
X90885000Y-54975000D02*
G75*
G03X91585000Y-54275000I0J700000D01*
G01*
X91585000Y-53675000D02*
G75*
G03X90885000Y-52975000I-700000J0D01*
G01*
X88185000Y-52975000D02*
G75*
G03X87485000Y-53675000I0J-700000D01*
G01*
X87485000Y-54275000D02*
G75*
G03X88185000Y-54975000I700000J0D01*
G01*
X88535000Y-51225000D02*
X90535000Y-51225000D01*
X90035000Y-49105000D02*
X88535000Y-49105000D01*
D12*
X90296904Y-69127880D02*
X90296904Y-69937404D01*
X90249285Y-70032642D01*
X90201666Y-70080261D01*
X90106428Y-70127880D01*
X89915952Y-70127880D01*
X89820714Y-70080261D01*
X89773095Y-70032642D01*
X89725476Y-69937404D01*
X89725476Y-69127880D01*
X89296904Y-69223119D02*
X89249285Y-69175500D01*
X89154047Y-69127880D01*
X88915952Y-69127880D01*
X88820714Y-69175500D01*
X88773095Y-69223119D01*
X88725476Y-69318357D01*
X88725476Y-69413595D01*
X88773095Y-69556452D01*
X89344523Y-70127880D01*
X88725476Y-70127880D01*
X86526666Y-47982142D02*
X86574285Y-48029761D01*
X86717142Y-48077380D01*
X86812380Y-48077380D01*
X86955238Y-48029761D01*
X87050476Y-47934523D01*
X87098095Y-47839285D01*
X87145714Y-47648809D01*
X87145714Y-47505952D01*
X87098095Y-47315476D01*
X87050476Y-47220238D01*
X86955238Y-47125000D01*
X86812380Y-47077380D01*
X86717142Y-47077380D01*
X86574285Y-47125000D01*
X86526666Y-47172619D01*
X85574285Y-48077380D02*
X86145714Y-48077380D01*
X85860000Y-48077380D02*
X85860000Y-47077380D01*
X85955238Y-47220238D01*
X86050476Y-47315476D01*
X86145714Y-47363095D01*
X92876666Y-47982142D02*
X92924285Y-48029761D01*
X93067142Y-48077380D01*
X93162380Y-48077380D01*
X93305238Y-48029761D01*
X93400476Y-47934523D01*
X93448095Y-47839285D01*
X93495714Y-47648809D01*
X93495714Y-47505952D01*
X93448095Y-47315476D01*
X93400476Y-47220238D01*
X93305238Y-47125000D01*
X93162380Y-47077380D01*
X93067142Y-47077380D01*
X92924285Y-47125000D01*
X92876666Y-47172619D01*
X92495714Y-47172619D02*
X92448095Y-47125000D01*
X92352857Y-47077380D01*
X92114761Y-47077380D01*
X92019523Y-47125000D01*
X91971904Y-47172619D01*
X91924285Y-47267857D01*
X91924285Y-47363095D01*
X91971904Y-47505952D01*
X92543333Y-48077380D01*
X91924285Y-48077380D01*
X89460366Y-88710042D02*
X89507985Y-88757661D01*
X89650842Y-88805280D01*
X89746080Y-88805280D01*
X89888938Y-88757661D01*
X89984176Y-88662423D01*
X90031795Y-88567185D01*
X90079414Y-88376709D01*
X90079414Y-88233852D01*
X90031795Y-88043376D01*
X89984176Y-87948138D01*
X89888938Y-87852900D01*
X89746080Y-87805280D01*
X89650842Y-87805280D01*
X89507985Y-87852900D01*
X89460366Y-87900519D01*
X89127033Y-87805280D02*
X88507985Y-87805280D01*
X88841319Y-88186233D01*
X88698461Y-88186233D01*
X88603223Y-88233852D01*
X88555604Y-88281471D01*
X88507985Y-88376709D01*
X88507985Y-88614804D01*
X88555604Y-88710042D01*
X88603223Y-88757661D01*
X88698461Y-88805280D01*
X88984176Y-88805280D01*
X89079414Y-88757661D01*
X89127033Y-88710042D01*
X90368333Y-59037380D02*
X90368333Y-59751666D01*
X90415952Y-59894523D01*
X90511190Y-59989761D01*
X90654047Y-60037380D01*
X90749285Y-60037380D01*
X89892142Y-60037380D02*
X89892142Y-59037380D01*
X89511190Y-59037380D01*
X89415952Y-59085000D01*
X89368333Y-59132619D01*
X89320714Y-59227857D01*
X89320714Y-59370714D01*
X89368333Y-59465952D01*
X89415952Y-59513571D01*
X89511190Y-59561190D01*
X89892142Y-59561190D01*
X88368333Y-60037380D02*
X88939761Y-60037380D01*
X88654047Y-60037380D02*
X88654047Y-59037380D01*
X88749285Y-59180238D01*
X88844523Y-59275476D01*
X88939761Y-59323095D01*
X86649285Y-58237380D02*
X87220714Y-58237380D01*
X86935000Y-58237380D02*
X86935000Y-57237380D01*
X87030238Y-57380238D01*
X87125476Y-57475476D01*
X87220714Y-57523095D01*
X92468333Y-57237380D02*
X91849285Y-57237380D01*
X92182619Y-57618333D01*
X92039761Y-57618333D01*
X91944523Y-57665952D01*
X91896904Y-57713571D01*
X91849285Y-57808809D01*
X91849285Y-58046904D01*
X91896904Y-58142142D01*
X91944523Y-58189761D01*
X92039761Y-58237380D01*
X92325476Y-58237380D01*
X92420714Y-58189761D01*
X92468333Y-58142142D01*
X90814523Y-97137380D02*
X90814523Y-97851666D01*
X90862142Y-97994523D01*
X90957380Y-98089761D01*
X91100238Y-98137380D01*
X91195476Y-98137380D01*
X90338333Y-98137380D02*
X90338333Y-97137380D01*
X89957380Y-97137380D01*
X89862142Y-97185000D01*
X89814523Y-97232619D01*
X89766904Y-97327857D01*
X89766904Y-97470714D01*
X89814523Y-97565952D01*
X89862142Y-97613571D01*
X89957380Y-97661190D01*
X90338333Y-97661190D01*
X89385952Y-97232619D02*
X89338333Y-97185000D01*
X89243095Y-97137380D01*
X89005000Y-97137380D01*
X88909761Y-97185000D01*
X88862142Y-97232619D01*
X88814523Y-97327857D01*
X88814523Y-97423095D01*
X88862142Y-97565952D01*
X89433571Y-98137380D01*
X88814523Y-98137380D01*
X87957380Y-97470714D02*
X87957380Y-98137380D01*
X88195476Y-97089761D02*
X88433571Y-97804047D01*
X87814523Y-97804047D01*
X92438333Y-95337380D02*
X91819285Y-95337380D01*
X92152619Y-95718333D01*
X92009761Y-95718333D01*
X91914523Y-95765952D01*
X91866904Y-95813571D01*
X91819285Y-95908809D01*
X91819285Y-96146904D01*
X91866904Y-96242142D01*
X91914523Y-96289761D01*
X92009761Y-96337380D01*
X92295476Y-96337380D01*
X92390714Y-96289761D01*
X92438333Y-96242142D01*
X86619285Y-96337380D02*
X87190714Y-96337380D01*
X86905000Y-96337380D02*
X86905000Y-95337380D01*
X87000238Y-95480238D01*
X87095476Y-95575476D01*
X87190714Y-95623095D01*
X90814523Y-93327380D02*
X90814523Y-94041666D01*
X90862142Y-94184523D01*
X90957380Y-94279761D01*
X91100238Y-94327380D01*
X91195476Y-94327380D01*
X90338333Y-94327380D02*
X90338333Y-93327380D01*
X89957380Y-93327380D01*
X89862142Y-93375000D01*
X89814523Y-93422619D01*
X89766904Y-93517857D01*
X89766904Y-93660714D01*
X89814523Y-93755952D01*
X89862142Y-93803571D01*
X89957380Y-93851190D01*
X90338333Y-93851190D01*
X89433571Y-93327380D02*
X88814523Y-93327380D01*
X89147857Y-93708333D01*
X89005000Y-93708333D01*
X88909761Y-93755952D01*
X88862142Y-93803571D01*
X88814523Y-93898809D01*
X88814523Y-94136904D01*
X88862142Y-94232142D01*
X88909761Y-94279761D01*
X89005000Y-94327380D01*
X89290714Y-94327380D01*
X89385952Y-94279761D01*
X89433571Y-94232142D01*
X87957380Y-93660714D02*
X87957380Y-94327380D01*
X88195476Y-93279761D02*
X88433571Y-93994047D01*
X87814523Y-93994047D01*
X86619285Y-92527380D02*
X87190714Y-92527380D01*
X86905000Y-92527380D02*
X86905000Y-91527380D01*
X87000238Y-91670238D01*
X87095476Y-91765476D01*
X87190714Y-91813095D01*
X92438333Y-91527380D02*
X91819285Y-91527380D01*
X92152619Y-91908333D01*
X92009761Y-91908333D01*
X91914523Y-91955952D01*
X91866904Y-92003571D01*
X91819285Y-92098809D01*
X91819285Y-92336904D01*
X91866904Y-92432142D01*
X91914523Y-92479761D01*
X92009761Y-92527380D01*
X92295476Y-92527380D01*
X92390714Y-92479761D01*
X92438333Y-92432142D01*
X90844523Y-55227380D02*
X90844523Y-55941666D01*
X90892142Y-56084523D01*
X90987380Y-56179761D01*
X91130238Y-56227380D01*
X91225476Y-56227380D01*
X90368333Y-56227380D02*
X90368333Y-55227380D01*
X89987380Y-55227380D01*
X89892142Y-55275000D01*
X89844523Y-55322619D01*
X89796904Y-55417857D01*
X89796904Y-55560714D01*
X89844523Y-55655952D01*
X89892142Y-55703571D01*
X89987380Y-55751190D01*
X90368333Y-55751190D01*
X88939761Y-55560714D02*
X88939761Y-56227380D01*
X89177857Y-55179761D02*
X89415952Y-55894047D01*
X88796904Y-55894047D01*
X88273095Y-55655952D02*
X88368333Y-55608333D01*
X88415952Y-55560714D01*
X88463571Y-55465476D01*
X88463571Y-55417857D01*
X88415952Y-55322619D01*
X88368333Y-55275000D01*
X88273095Y-55227380D01*
X88082619Y-55227380D01*
X87987380Y-55275000D01*
X87939761Y-55322619D01*
X87892142Y-55417857D01*
X87892142Y-55465476D01*
X87939761Y-55560714D01*
X87987380Y-55608333D01*
X88082619Y-55655952D01*
X88273095Y-55655952D01*
X88368333Y-55703571D01*
X88415952Y-55751190D01*
X88463571Y-55846428D01*
X88463571Y-56036904D01*
X88415952Y-56132142D01*
X88368333Y-56179761D01*
X88273095Y-56227380D01*
X88082619Y-56227380D01*
X87987380Y-56179761D01*
X87939761Y-56132142D01*
X87892142Y-56036904D01*
X87892142Y-55846428D01*
X87939761Y-55751190D01*
X87987380Y-55703571D01*
X88082619Y-55655952D01*
X92468333Y-53427380D02*
X91849285Y-53427380D01*
X92182619Y-53808333D01*
X92039761Y-53808333D01*
X91944523Y-53855952D01*
X91896904Y-53903571D01*
X91849285Y-53998809D01*
X91849285Y-54236904D01*
X91896904Y-54332142D01*
X91944523Y-54379761D01*
X92039761Y-54427380D01*
X92325476Y-54427380D01*
X92420714Y-54379761D01*
X92468333Y-54332142D01*
X86649285Y-54427380D02*
X87220714Y-54427380D01*
X86935000Y-54427380D02*
X86935000Y-53427380D01*
X87030238Y-53570238D01*
X87125476Y-53665476D01*
X87220714Y-53713095D01*
X90296904Y-47617380D02*
X90296904Y-48426904D01*
X90249285Y-48522142D01*
X90201666Y-48569761D01*
X90106428Y-48617380D01*
X89915952Y-48617380D01*
X89820714Y-48569761D01*
X89773095Y-48522142D01*
X89725476Y-48426904D01*
X89725476Y-47617380D01*
X88725476Y-48617380D02*
X89296904Y-48617380D01*
X89011190Y-48617380D02*
X89011190Y-47617380D01*
X89106428Y-47760238D01*
X89201666Y-47855476D01*
X89296904Y-47903095D01*
M02*
