%FSLAX45Y45*%
G04 Gerber Fmt 4.5, Leading zero omitted, Abs format (unit mm)*
G04 Created by KiCad (PCBNEW (5.1.5)-3) date 2020-09-09 09:45:20*
%MOMM*%
%LPD*%
G04 APERTURE LIST*
%TA.AperFunction,Profile*%
%ADD10C,0.100000*%
%TD*%
%ADD11C,0.200000*%
%ADD12C,0.300000*%
G04 APERTURE END LIST*
D10*
X8089900Y-10756900D02*
X8089900Y-4641850D01*
X9817100Y-10756900D02*
X8089900Y-10756900D01*
X9817100Y-4641850D02*
X9817100Y-10756900D01*
X8089900Y-4641850D02*
X9817100Y-4641850D01*
D11*
X8525750Y-7890750D02*
X8555750Y-7920750D01*
X8555750Y-7890750D02*
X8525750Y-7920750D01*
X8551150Y-7954250D02*
X8581150Y-7984250D01*
X8581150Y-7954250D02*
X8551150Y-7984250D01*
X8595600Y-8043150D02*
X8625600Y-8073150D01*
X8625600Y-8043150D02*
X8595600Y-8073150D01*
X8601950Y-8449550D02*
X8631950Y-8479550D01*
X8631950Y-8449550D02*
X8601950Y-8479550D01*
X8609430Y-8106650D02*
X8639430Y-8136650D01*
X8639430Y-8106650D02*
X8609430Y-8136650D01*
X8627350Y-9757650D02*
X8657350Y-9787650D01*
X8657350Y-9757650D02*
X8627350Y-9787650D01*
X8678150Y-8138400D02*
X8708150Y-8168400D01*
X8708150Y-8138400D02*
X8678150Y-8168400D01*
X8767050Y-9611600D02*
X8797050Y-9641600D01*
X8797050Y-9611600D02*
X8767050Y-9641600D01*
X8773400Y-9954500D02*
X8803400Y-9984500D01*
X8803400Y-9954500D02*
X8773400Y-9984500D01*
X8830550Y-9541750D02*
X8860550Y-9571750D01*
X8860550Y-9541750D02*
X8830550Y-9571750D01*
X8836900Y-8894050D02*
X8866900Y-8924050D01*
X8866900Y-8894050D02*
X8836900Y-8924050D01*
X8862300Y-9954500D02*
X8892300Y-9984500D01*
X8892300Y-9954500D02*
X8862300Y-9984500D01*
X9235500Y-7263550D02*
X9265500Y-7293550D01*
X9265500Y-7263550D02*
X9235500Y-7293550D01*
X9287750Y-7535150D02*
X9317750Y-7565150D01*
X9317750Y-7535150D02*
X9287750Y-7565150D01*
X9325850Y-7058900D02*
X9355850Y-7088900D01*
X9355850Y-7058900D02*
X9325850Y-7088900D01*
X9352341Y-7610259D02*
X9382341Y-7640259D01*
X9382341Y-7610259D02*
X9352341Y-7640259D01*
X9356150Y-6895250D02*
X9386150Y-6925250D01*
X9386150Y-6895250D02*
X9356150Y-6925250D01*
X9357600Y-7890750D02*
X9387600Y-7920750D01*
X9387600Y-7890750D02*
X9357600Y-7920750D01*
X9369830Y-8043150D02*
X9399830Y-8073150D01*
X9399830Y-8043150D02*
X9369830Y-8073150D01*
X9394979Y-6475421D02*
X9424979Y-6505421D01*
X9424979Y-6475421D02*
X9394979Y-6505421D01*
X9433800Y-8113000D02*
X9463800Y-8143000D01*
X9463800Y-8113000D02*
X9433800Y-8143000D01*
X9573500Y-8151100D02*
X9603500Y-8181100D01*
X9603500Y-8151100D02*
X9573500Y-8181100D01*
X9630650Y-7687550D02*
X9660650Y-7717550D01*
X9660650Y-7687550D02*
X9630650Y-7717550D01*
X8281350Y-7702550D02*
G75*
G03X8281350Y-7702550I-20000J0D01*
G01*
X8332150Y-10471150D02*
G75*
G03X8332150Y-10471150I-20000J0D01*
G01*
X8363900Y-6584950D02*
G75*
G03X8363900Y-6584950I-20000J0D01*
G01*
X8389300Y-6343650D02*
G75*
G03X8389300Y-6343650I-20000J0D01*
G01*
X8395650Y-6108700D02*
G75*
G03X8395650Y-6108700I-20000J0D01*
G01*
X8427400Y-5873750D02*
G75*
G03X8427400Y-5873750I-20000J0D01*
G01*
X8459150Y-10083800D02*
G75*
G03X8459150Y-10083800I-20000J0D01*
G01*
X8554400Y-7480801D02*
G75*
G03X8554400Y-7480801I-20000J0D01*
G01*
X8560750Y-8782050D02*
G75*
G03X8560750Y-8782050I-20000J0D01*
G01*
X8656000Y-7874000D02*
G75*
G03X8656000Y-7874000I-20000J0D01*
G01*
X8675050Y-5607050D02*
G75*
G03X8675050Y-5607050I-20000J0D01*
G01*
X8675050Y-6394450D02*
G75*
G03X8675050Y-6394450I-20000J0D01*
G01*
X8722040Y-9585960D02*
G75*
G03X8722040Y-9585960I-20000J0D01*
G01*
X8745401Y-7289800D02*
G75*
G03X8745401Y-7289800I-20000J0D01*
G01*
X8756001Y-7527945D02*
G75*
G03X8756001Y-7527945I-20000J0D01*
G01*
X8782100Y-6744600D02*
G75*
G03X8782100Y-6744600I-20000J0D01*
G01*
X8897230Y-8147120D02*
G75*
G03X8897230Y-8147120I-20000J0D01*
G01*
X8922700Y-7340600D02*
G75*
G03X8922700Y-7340600I-20000J0D01*
G01*
X8973500Y-8807450D02*
G75*
G03X8973500Y-8807450I-20000J0D01*
G01*
X8976090Y-9281110D02*
G75*
G03X8976090Y-9281110I-20000J0D01*
G01*
X9007281Y-7998969D02*
G75*
G03X9007281Y-7998969I-20000J0D01*
G01*
X9024300Y-5588000D02*
G75*
G03X9024300Y-5588000I-20000J0D01*
G01*
X9073501Y-8807450D02*
G75*
G03X9073501Y-8807450I-20000J0D01*
G01*
X9075100Y-7670800D02*
G75*
G03X9075100Y-7670800I-20000J0D01*
G01*
X9075910Y-9168590D02*
G75*
G03X9075910Y-9168590I-20000J0D01*
G01*
X9146981Y-8138669D02*
G75*
G03X9146981Y-8138669I-20000J0D01*
G01*
X9316400Y-9848850D02*
G75*
G03X9316400Y-9848850I-20000J0D01*
G01*
X9379900Y-6597650D02*
G75*
G03X9379900Y-6597650I-20000J0D01*
G01*
X9405300Y-7975600D02*
G75*
G03X9405300Y-7975600I-20000J0D01*
G01*
X9415891Y-7425259D02*
G75*
G03X9415891Y-7425259I-20000J0D01*
G01*
X9468800Y-8356600D02*
G75*
G03X9468800Y-8356600I-20000J0D01*
G01*
X9494200Y-5918200D02*
G75*
G03X9494200Y-5918200I-20000J0D01*
G01*
X9525950Y-6134100D02*
G75*
G03X9525950Y-6134100I-20000J0D01*
G01*
X9557700Y-6343650D02*
G75*
G03X9557700Y-6343650I-20000J0D01*
G01*
X8191050Y-4740300D02*
X8191050Y-4820300D01*
X8151050Y-4780300D02*
X8231050Y-4780300D01*
X8191050Y-4994300D02*
X8191050Y-5074300D01*
X8151050Y-5034300D02*
X8231050Y-5034300D01*
X8191050Y-5248300D02*
X8191050Y-5328300D01*
X8151050Y-5288300D02*
X8231050Y-5288300D01*
X8191050Y-5502300D02*
X8191050Y-5582300D01*
X8151050Y-5542300D02*
X8231050Y-5542300D01*
X8191050Y-5756300D02*
X8191050Y-5836300D01*
X8151050Y-5796300D02*
X8231050Y-5796300D01*
X8191050Y-6010300D02*
X8191050Y-6090300D01*
X8151050Y-6050300D02*
X8231050Y-6050300D01*
X8191050Y-6264300D02*
X8191050Y-6344300D01*
X8151050Y-6304300D02*
X8231050Y-6304300D01*
X8191050Y-6518300D02*
X8191050Y-6598300D01*
X8151050Y-6558300D02*
X8231050Y-6558300D01*
X8191050Y-6772300D02*
X8191050Y-6852300D01*
X8151050Y-6812300D02*
X8231050Y-6812300D01*
X8191050Y-7026300D02*
X8191050Y-7106300D01*
X8151050Y-7066300D02*
X8231050Y-7066300D01*
X8191050Y-7280300D02*
X8191050Y-7360300D01*
X8151050Y-7320300D02*
X8231050Y-7320300D01*
X8191050Y-7534300D02*
X8191050Y-7614300D01*
X8151050Y-7574300D02*
X8231050Y-7574300D01*
X8191050Y-7788300D02*
X8191050Y-7868300D01*
X8151050Y-7828300D02*
X8231050Y-7828300D01*
X8191050Y-8042300D02*
X8191050Y-8122300D01*
X8151050Y-8082300D02*
X8231050Y-8082300D01*
X8191050Y-8296300D02*
X8191050Y-8376300D01*
X8151050Y-8336300D02*
X8231050Y-8336300D01*
X8191050Y-8550300D02*
X8191050Y-8630300D01*
X8151050Y-8590300D02*
X8231050Y-8590300D01*
X8191050Y-8804300D02*
X8191050Y-8884300D01*
X8151050Y-8844300D02*
X8231050Y-8844300D01*
X8191050Y-9058300D02*
X8191050Y-9138300D01*
X8151050Y-9098300D02*
X8231050Y-9098300D01*
X8191050Y-9312300D02*
X8191050Y-9392300D01*
X8151050Y-9352300D02*
X8231050Y-9352300D01*
X8191050Y-9566300D02*
X8191050Y-9646300D01*
X8151050Y-9606300D02*
X8231050Y-9606300D01*
X8191050Y-9820300D02*
X8191050Y-9900300D01*
X8151050Y-9860300D02*
X8231050Y-9860300D01*
X8191050Y-10074300D02*
X8191050Y-10154300D01*
X8151050Y-10114300D02*
X8231050Y-10114300D01*
X8191050Y-10328300D02*
X8191050Y-10408300D01*
X8151050Y-10368300D02*
X8231050Y-10368300D01*
X8191050Y-10582300D02*
X8191050Y-10662300D01*
X8151050Y-10622300D02*
X8231050Y-10622300D01*
X9715050Y-4740300D02*
X9715050Y-4820300D01*
X9675050Y-4780300D02*
X9755050Y-4780300D01*
X9715050Y-4994300D02*
X9715050Y-5074300D01*
X9675050Y-5034300D02*
X9755050Y-5034300D01*
X9715050Y-5248300D02*
X9715050Y-5328300D01*
X9675050Y-5288300D02*
X9755050Y-5288300D01*
X9715050Y-5502300D02*
X9715050Y-5582300D01*
X9675050Y-5542300D02*
X9755050Y-5542300D01*
X9715050Y-5756300D02*
X9715050Y-5836300D01*
X9675050Y-5796300D02*
X9755050Y-5796300D01*
X9715050Y-6010300D02*
X9715050Y-6090300D01*
X9675050Y-6050300D02*
X9755050Y-6050300D01*
X9715050Y-6264300D02*
X9715050Y-6344300D01*
X9675050Y-6304300D02*
X9755050Y-6304300D01*
X9715050Y-6518300D02*
X9715050Y-6598300D01*
X9675050Y-6558300D02*
X9755050Y-6558300D01*
X9715050Y-6772300D02*
X9715050Y-6852300D01*
X9675050Y-6812300D02*
X9755050Y-6812300D01*
X9715050Y-7026300D02*
X9715050Y-7106300D01*
X9675050Y-7066300D02*
X9755050Y-7066300D01*
X9715050Y-7280300D02*
X9715050Y-7360300D01*
X9675050Y-7320300D02*
X9755050Y-7320300D01*
X9715050Y-7534300D02*
X9715050Y-7614300D01*
X9675050Y-7574300D02*
X9755050Y-7574300D01*
X9715050Y-7788300D02*
X9715050Y-7868300D01*
X9675050Y-7828300D02*
X9755050Y-7828300D01*
X9715050Y-8042300D02*
X9715050Y-8122300D01*
X9675050Y-8082300D02*
X9755050Y-8082300D01*
X9715050Y-8296300D02*
X9715050Y-8376300D01*
X9675050Y-8336300D02*
X9755050Y-8336300D01*
X9715050Y-8550300D02*
X9715050Y-8630300D01*
X9675050Y-8590300D02*
X9755050Y-8590300D01*
X9715050Y-8804300D02*
X9715050Y-8884300D01*
X9675050Y-8844300D02*
X9755050Y-8844300D01*
X9715050Y-9058300D02*
X9715050Y-9138300D01*
X9675050Y-9098300D02*
X9755050Y-9098300D01*
X9715050Y-9312300D02*
X9715050Y-9392300D01*
X9675050Y-9352300D02*
X9755050Y-9352300D01*
X9715050Y-9566300D02*
X9715050Y-9646300D01*
X9675050Y-9606300D02*
X9755050Y-9606300D01*
X9715050Y-9820300D02*
X9715050Y-9900300D01*
X9675050Y-9860300D02*
X9755050Y-9860300D01*
X9715050Y-10074300D02*
X9715050Y-10154300D01*
X9675050Y-10114300D02*
X9755050Y-10114300D01*
X9715050Y-10328300D02*
X9715050Y-10408300D01*
X9675050Y-10368300D02*
X9755050Y-10368300D01*
X9715050Y-10582300D02*
X9715050Y-10662300D01*
X9675050Y-10622300D02*
X9755050Y-10622300D01*
X8610396Y-10374426D02*
X8610396Y-10303714D01*
X8539684Y-10303714D01*
X8539684Y-10374426D01*
X8610396Y-10374426D01*
X8610396Y-10628426D02*
X8610396Y-10557714D01*
X8539684Y-10557714D01*
X8539684Y-10628426D01*
X8610396Y-10628426D01*
X8864396Y-10374426D02*
X8864396Y-10303714D01*
X8793684Y-10303714D01*
X8793684Y-10374426D01*
X8864396Y-10374426D01*
X8864396Y-10628426D02*
X8864396Y-10557714D01*
X8793684Y-10557714D01*
X8793684Y-10628426D01*
X8864396Y-10628426D01*
X9118396Y-10374426D02*
X9118396Y-10303714D01*
X9047684Y-10303714D01*
X9047684Y-10374426D01*
X9118396Y-10374426D01*
X9372396Y-10374426D02*
X9372396Y-10303714D01*
X9301684Y-10303714D01*
X9301684Y-10374426D01*
X9372396Y-10374426D01*
D12*
X8227928Y-11339264D02*
X8227928Y-11039264D01*
X8299357Y-11039264D01*
X8342214Y-11053550D01*
X8370786Y-11082121D01*
X8385071Y-11110693D01*
X8399357Y-11167836D01*
X8399357Y-11210693D01*
X8385071Y-11267836D01*
X8370786Y-11296407D01*
X8342214Y-11324978D01*
X8299357Y-11339264D01*
X8227928Y-11339264D01*
X8527929Y-11339264D02*
X8527929Y-11139264D01*
X8527929Y-11196407D02*
X8542214Y-11167836D01*
X8556500Y-11153550D01*
X8585071Y-11139264D01*
X8613643Y-11139264D01*
X8713643Y-11339264D02*
X8713643Y-11139264D01*
X8713643Y-11039264D02*
X8699357Y-11053550D01*
X8713643Y-11067836D01*
X8727929Y-11053550D01*
X8713643Y-11039264D01*
X8713643Y-11067836D01*
X8899357Y-11339264D02*
X8870786Y-11324978D01*
X8856500Y-11296407D01*
X8856500Y-11039264D01*
X9056500Y-11339264D02*
X9027929Y-11324978D01*
X9013643Y-11296407D01*
X9013643Y-11039264D01*
X9399357Y-11339264D02*
X9399357Y-11039264D01*
X9499357Y-11253550D01*
X9599357Y-11039264D01*
X9599357Y-11339264D01*
X9870786Y-11339264D02*
X9870786Y-11182121D01*
X9856500Y-11153550D01*
X9827929Y-11139264D01*
X9770786Y-11139264D01*
X9742214Y-11153550D01*
X9870786Y-11324978D02*
X9842214Y-11339264D01*
X9770786Y-11339264D01*
X9742214Y-11324978D01*
X9727929Y-11296407D01*
X9727929Y-11267836D01*
X9742214Y-11239264D01*
X9770786Y-11224978D01*
X9842214Y-11224978D01*
X9870786Y-11210693D01*
X10013643Y-11139264D02*
X10013643Y-11439264D01*
X10013643Y-11153550D02*
X10042214Y-11139264D01*
X10099357Y-11139264D01*
X10127929Y-11153550D01*
X10142214Y-11167836D01*
X10156500Y-11196407D01*
X10156500Y-11282121D01*
X10142214Y-11310693D01*
X10127929Y-11324978D01*
X10099357Y-11339264D01*
X10042214Y-11339264D01*
X10013643Y-11324978D01*
X10285071Y-11310693D02*
X10299357Y-11324978D01*
X10285071Y-11339264D01*
X10270786Y-11324978D01*
X10285071Y-11310693D01*
X10285071Y-11339264D01*
X10285071Y-11153550D02*
X10299357Y-11167836D01*
X10285071Y-11182121D01*
X10270786Y-11167836D01*
X10285071Y-11153550D01*
X10285071Y-11182121D01*
X7911500Y-11818550D02*
X7941500Y-11848550D01*
X7941500Y-11818550D02*
X7911500Y-11848550D01*
X8285071Y-11669264D02*
X8313643Y-11669264D01*
X8342214Y-11683550D01*
X8356500Y-11697836D01*
X8370786Y-11726407D01*
X8385071Y-11783550D01*
X8385071Y-11854978D01*
X8370786Y-11912121D01*
X8356500Y-11940693D01*
X8342214Y-11954978D01*
X8313643Y-11969264D01*
X8285071Y-11969264D01*
X8256500Y-11954978D01*
X8242214Y-11940693D01*
X8227928Y-11912121D01*
X8213643Y-11854978D01*
X8213643Y-11783550D01*
X8227928Y-11726407D01*
X8242214Y-11697836D01*
X8256500Y-11683550D01*
X8285071Y-11669264D01*
X8513643Y-11940693D02*
X8527929Y-11954978D01*
X8513643Y-11969264D01*
X8499357Y-11954978D01*
X8513643Y-11940693D01*
X8513643Y-11969264D01*
X8627929Y-11669264D02*
X8813643Y-11669264D01*
X8713643Y-11783550D01*
X8756500Y-11783550D01*
X8785071Y-11797836D01*
X8799357Y-11812121D01*
X8813643Y-11840693D01*
X8813643Y-11912121D01*
X8799357Y-11940693D01*
X8785071Y-11954978D01*
X8756500Y-11969264D01*
X8670786Y-11969264D01*
X8642214Y-11954978D01*
X8627929Y-11940693D01*
X8999357Y-11669264D02*
X9027929Y-11669264D01*
X9056500Y-11683550D01*
X9070786Y-11697836D01*
X9085071Y-11726407D01*
X9099357Y-11783550D01*
X9099357Y-11854978D01*
X9085071Y-11912121D01*
X9070786Y-11940693D01*
X9056500Y-11954978D01*
X9027929Y-11969264D01*
X8999357Y-11969264D01*
X8970786Y-11954978D01*
X8956500Y-11940693D01*
X8942214Y-11912121D01*
X8927929Y-11854978D01*
X8927929Y-11783550D01*
X8942214Y-11726407D01*
X8956500Y-11697836D01*
X8970786Y-11683550D01*
X8999357Y-11669264D01*
X9227929Y-11969264D02*
X9227929Y-11769264D01*
X9227929Y-11797836D02*
X9242214Y-11783550D01*
X9270786Y-11769264D01*
X9313643Y-11769264D01*
X9342214Y-11783550D01*
X9356500Y-11812121D01*
X9356500Y-11969264D01*
X9356500Y-11812121D02*
X9370786Y-11783550D01*
X9399357Y-11769264D01*
X9442214Y-11769264D01*
X9470786Y-11783550D01*
X9485071Y-11812121D01*
X9485071Y-11969264D01*
X9627929Y-11969264D02*
X9627929Y-11769264D01*
X9627929Y-11797836D02*
X9642214Y-11783550D01*
X9670786Y-11769264D01*
X9713643Y-11769264D01*
X9742214Y-11783550D01*
X9756500Y-11812121D01*
X9756500Y-11969264D01*
X9756500Y-11812121D02*
X9770786Y-11783550D01*
X9799357Y-11769264D01*
X9842214Y-11769264D01*
X9870786Y-11783550D01*
X9885071Y-11812121D01*
X9885071Y-11969264D01*
X10470786Y-11654978D02*
X10213643Y-12040693D01*
X10856500Y-11669264D02*
X10885071Y-11669264D01*
X10913643Y-11683550D01*
X10927929Y-11697836D01*
X10942214Y-11726407D01*
X10956500Y-11783550D01*
X10956500Y-11854978D01*
X10942214Y-11912121D01*
X10927929Y-11940693D01*
X10913643Y-11954978D01*
X10885071Y-11969264D01*
X10856500Y-11969264D01*
X10827929Y-11954978D01*
X10813643Y-11940693D01*
X10799357Y-11912121D01*
X10785071Y-11854978D01*
X10785071Y-11783550D01*
X10799357Y-11726407D01*
X10813643Y-11697836D01*
X10827929Y-11683550D01*
X10856500Y-11669264D01*
X11085071Y-11940693D02*
X11099357Y-11954978D01*
X11085071Y-11969264D01*
X11070786Y-11954978D01*
X11085071Y-11940693D01*
X11085071Y-11969264D01*
X11285071Y-11669264D02*
X11313643Y-11669264D01*
X11342214Y-11683550D01*
X11356500Y-11697836D01*
X11370786Y-11726407D01*
X11385071Y-11783550D01*
X11385071Y-11854978D01*
X11370786Y-11912121D01*
X11356500Y-11940693D01*
X11342214Y-11954978D01*
X11313643Y-11969264D01*
X11285071Y-11969264D01*
X11256500Y-11954978D01*
X11242214Y-11940693D01*
X11227928Y-11912121D01*
X11213643Y-11854978D01*
X11213643Y-11783550D01*
X11227928Y-11726407D01*
X11242214Y-11697836D01*
X11256500Y-11683550D01*
X11285071Y-11669264D01*
X11670786Y-11969264D02*
X11499357Y-11969264D01*
X11585071Y-11969264D02*
X11585071Y-11669264D01*
X11556500Y-11712121D01*
X11527928Y-11740693D01*
X11499357Y-11754978D01*
X11785071Y-11697836D02*
X11799357Y-11683550D01*
X11827928Y-11669264D01*
X11899357Y-11669264D01*
X11927928Y-11683550D01*
X11942214Y-11697836D01*
X11956500Y-11726407D01*
X11956500Y-11754978D01*
X11942214Y-11797836D01*
X11770786Y-11969264D01*
X11956500Y-11969264D01*
X12070786Y-11669264D02*
X12070786Y-11726407D01*
X12185071Y-11669264D02*
X12185071Y-11726407D01*
X12627928Y-12083550D02*
X12613643Y-12069264D01*
X12585071Y-12026407D01*
X12570786Y-11997836D01*
X12556500Y-11954978D01*
X12542214Y-11883550D01*
X12542214Y-11826407D01*
X12556500Y-11754978D01*
X12570786Y-11712121D01*
X12585071Y-11683550D01*
X12613643Y-11640693D01*
X12627928Y-11626407D01*
X12727928Y-11697836D02*
X12742214Y-11683550D01*
X12770786Y-11669264D01*
X12842214Y-11669264D01*
X12870786Y-11683550D01*
X12885071Y-11697836D01*
X12899357Y-11726407D01*
X12899357Y-11754978D01*
X12885071Y-11797836D01*
X12713643Y-11969264D01*
X12899357Y-11969264D01*
X12999357Y-11669264D02*
X13185071Y-11669264D01*
X13085071Y-11783550D01*
X13127928Y-11783550D01*
X13156500Y-11797836D01*
X13170786Y-11812121D01*
X13185071Y-11840693D01*
X13185071Y-11912121D01*
X13170786Y-11940693D01*
X13156500Y-11954978D01*
X13127928Y-11969264D01*
X13042214Y-11969264D01*
X13013643Y-11954978D01*
X12999357Y-11940693D01*
X13542214Y-11969264D02*
X13542214Y-11669264D01*
X13670786Y-11969264D02*
X13670786Y-11812121D01*
X13656500Y-11783550D01*
X13627928Y-11769264D01*
X13585071Y-11769264D01*
X13556500Y-11783550D01*
X13542214Y-11797836D01*
X13856500Y-11969264D02*
X13827928Y-11954978D01*
X13813643Y-11940693D01*
X13799357Y-11912121D01*
X13799357Y-11826407D01*
X13813643Y-11797836D01*
X13827928Y-11783550D01*
X13856500Y-11769264D01*
X13899357Y-11769264D01*
X13927928Y-11783550D01*
X13942214Y-11797836D01*
X13956500Y-11826407D01*
X13956500Y-11912121D01*
X13942214Y-11940693D01*
X13927928Y-11954978D01*
X13899357Y-11969264D01*
X13856500Y-11969264D01*
X14127928Y-11969264D02*
X14099357Y-11954978D01*
X14085071Y-11926407D01*
X14085071Y-11669264D01*
X14356500Y-11954978D02*
X14327928Y-11969264D01*
X14270786Y-11969264D01*
X14242214Y-11954978D01*
X14227928Y-11926407D01*
X14227928Y-11812121D01*
X14242214Y-11783550D01*
X14270786Y-11769264D01*
X14327928Y-11769264D01*
X14356500Y-11783550D01*
X14370786Y-11812121D01*
X14370786Y-11840693D01*
X14227928Y-11869264D01*
X14485071Y-11954978D02*
X14513643Y-11969264D01*
X14570786Y-11969264D01*
X14599357Y-11954978D01*
X14613643Y-11926407D01*
X14613643Y-11912121D01*
X14599357Y-11883550D01*
X14570786Y-11869264D01*
X14527928Y-11869264D01*
X14499357Y-11854978D01*
X14485071Y-11826407D01*
X14485071Y-11812121D01*
X14499357Y-11783550D01*
X14527928Y-11769264D01*
X14570786Y-11769264D01*
X14599357Y-11783550D01*
X14713643Y-12083550D02*
X14727928Y-12069264D01*
X14756500Y-12026407D01*
X14770786Y-11997836D01*
X14785071Y-11954978D01*
X14799357Y-11883550D01*
X14799357Y-11826407D01*
X14785071Y-11754978D01*
X14770786Y-11712121D01*
X14756500Y-11683550D01*
X14727928Y-11640693D01*
X14713643Y-11626407D01*
X7941500Y-12229550D02*
G75*
G03X7941500Y-12229550I-20000J0D01*
G01*
X8285071Y-12065264D02*
X8313643Y-12065264D01*
X8342214Y-12079550D01*
X8356500Y-12093836D01*
X8370786Y-12122407D01*
X8385071Y-12179550D01*
X8385071Y-12250978D01*
X8370786Y-12308121D01*
X8356500Y-12336693D01*
X8342214Y-12350978D01*
X8313643Y-12365264D01*
X8285071Y-12365264D01*
X8256500Y-12350978D01*
X8242214Y-12336693D01*
X8227928Y-12308121D01*
X8213643Y-12250978D01*
X8213643Y-12179550D01*
X8227928Y-12122407D01*
X8242214Y-12093836D01*
X8256500Y-12079550D01*
X8285071Y-12065264D01*
X8513643Y-12336693D02*
X8527929Y-12350978D01*
X8513643Y-12365264D01*
X8499357Y-12350978D01*
X8513643Y-12336693D01*
X8513643Y-12365264D01*
X8785071Y-12165264D02*
X8785071Y-12365264D01*
X8713643Y-12050978D02*
X8642214Y-12265264D01*
X8827929Y-12265264D01*
X8999357Y-12065264D02*
X9027929Y-12065264D01*
X9056500Y-12079550D01*
X9070786Y-12093836D01*
X9085071Y-12122407D01*
X9099357Y-12179550D01*
X9099357Y-12250978D01*
X9085071Y-12308121D01*
X9070786Y-12336693D01*
X9056500Y-12350978D01*
X9027929Y-12365264D01*
X8999357Y-12365264D01*
X8970786Y-12350978D01*
X8956500Y-12336693D01*
X8942214Y-12308121D01*
X8927929Y-12250978D01*
X8927929Y-12179550D01*
X8942214Y-12122407D01*
X8956500Y-12093836D01*
X8970786Y-12079550D01*
X8999357Y-12065264D01*
X9227929Y-12365264D02*
X9227929Y-12165264D01*
X9227929Y-12193836D02*
X9242214Y-12179550D01*
X9270786Y-12165264D01*
X9313643Y-12165264D01*
X9342214Y-12179550D01*
X9356500Y-12208121D01*
X9356500Y-12365264D01*
X9356500Y-12208121D02*
X9370786Y-12179550D01*
X9399357Y-12165264D01*
X9442214Y-12165264D01*
X9470786Y-12179550D01*
X9485071Y-12208121D01*
X9485071Y-12365264D01*
X9627929Y-12365264D02*
X9627929Y-12165264D01*
X9627929Y-12193836D02*
X9642214Y-12179550D01*
X9670786Y-12165264D01*
X9713643Y-12165264D01*
X9742214Y-12179550D01*
X9756500Y-12208121D01*
X9756500Y-12365264D01*
X9756500Y-12208121D02*
X9770786Y-12179550D01*
X9799357Y-12165264D01*
X9842214Y-12165264D01*
X9870786Y-12179550D01*
X9885071Y-12208121D01*
X9885071Y-12365264D01*
X10470786Y-12050978D02*
X10213643Y-12436693D01*
X10856500Y-12065264D02*
X10885071Y-12065264D01*
X10913643Y-12079550D01*
X10927929Y-12093836D01*
X10942214Y-12122407D01*
X10956500Y-12179550D01*
X10956500Y-12250978D01*
X10942214Y-12308121D01*
X10927929Y-12336693D01*
X10913643Y-12350978D01*
X10885071Y-12365264D01*
X10856500Y-12365264D01*
X10827929Y-12350978D01*
X10813643Y-12336693D01*
X10799357Y-12308121D01*
X10785071Y-12250978D01*
X10785071Y-12179550D01*
X10799357Y-12122407D01*
X10813643Y-12093836D01*
X10827929Y-12079550D01*
X10856500Y-12065264D01*
X11085071Y-12336693D02*
X11099357Y-12350978D01*
X11085071Y-12365264D01*
X11070786Y-12350978D01*
X11085071Y-12336693D01*
X11085071Y-12365264D01*
X11285071Y-12065264D02*
X11313643Y-12065264D01*
X11342214Y-12079550D01*
X11356500Y-12093836D01*
X11370786Y-12122407D01*
X11385071Y-12179550D01*
X11385071Y-12250978D01*
X11370786Y-12308121D01*
X11356500Y-12336693D01*
X11342214Y-12350978D01*
X11313643Y-12365264D01*
X11285071Y-12365264D01*
X11256500Y-12350978D01*
X11242214Y-12336693D01*
X11227928Y-12308121D01*
X11213643Y-12250978D01*
X11213643Y-12179550D01*
X11227928Y-12122407D01*
X11242214Y-12093836D01*
X11256500Y-12079550D01*
X11285071Y-12065264D01*
X11670786Y-12365264D02*
X11499357Y-12365264D01*
X11585071Y-12365264D02*
X11585071Y-12065264D01*
X11556500Y-12108121D01*
X11527928Y-12136693D01*
X11499357Y-12150978D01*
X11927928Y-12065264D02*
X11870786Y-12065264D01*
X11842214Y-12079550D01*
X11827928Y-12093836D01*
X11799357Y-12136693D01*
X11785071Y-12193836D01*
X11785071Y-12308121D01*
X11799357Y-12336693D01*
X11813643Y-12350978D01*
X11842214Y-12365264D01*
X11899357Y-12365264D01*
X11927928Y-12350978D01*
X11942214Y-12336693D01*
X11956500Y-12308121D01*
X11956500Y-12236693D01*
X11942214Y-12208121D01*
X11927928Y-12193836D01*
X11899357Y-12179550D01*
X11842214Y-12179550D01*
X11813643Y-12193836D01*
X11799357Y-12208121D01*
X11785071Y-12236693D01*
X12070786Y-12065264D02*
X12070786Y-12122407D01*
X12185071Y-12065264D02*
X12185071Y-12122407D01*
X12627928Y-12479550D02*
X12613643Y-12465264D01*
X12585071Y-12422407D01*
X12570786Y-12393836D01*
X12556500Y-12350978D01*
X12542214Y-12279550D01*
X12542214Y-12222407D01*
X12556500Y-12150978D01*
X12570786Y-12108121D01*
X12585071Y-12079550D01*
X12613643Y-12036693D01*
X12627928Y-12022407D01*
X12713643Y-12065264D02*
X12899357Y-12065264D01*
X12799357Y-12179550D01*
X12842214Y-12179550D01*
X12870786Y-12193836D01*
X12885071Y-12208121D01*
X12899357Y-12236693D01*
X12899357Y-12308121D01*
X12885071Y-12336693D01*
X12870786Y-12350978D01*
X12842214Y-12365264D01*
X12756500Y-12365264D01*
X12727928Y-12350978D01*
X12713643Y-12336693D01*
X13156500Y-12165264D02*
X13156500Y-12365264D01*
X13085071Y-12050978D02*
X13013643Y-12265264D01*
X13199357Y-12265264D01*
X13542214Y-12365264D02*
X13542214Y-12065264D01*
X13670786Y-12365264D02*
X13670786Y-12208121D01*
X13656500Y-12179550D01*
X13627928Y-12165264D01*
X13585071Y-12165264D01*
X13556500Y-12179550D01*
X13542214Y-12193836D01*
X13856500Y-12365264D02*
X13827928Y-12350978D01*
X13813643Y-12336693D01*
X13799357Y-12308121D01*
X13799357Y-12222407D01*
X13813643Y-12193836D01*
X13827928Y-12179550D01*
X13856500Y-12165264D01*
X13899357Y-12165264D01*
X13927928Y-12179550D01*
X13942214Y-12193836D01*
X13956500Y-12222407D01*
X13956500Y-12308121D01*
X13942214Y-12336693D01*
X13927928Y-12350978D01*
X13899357Y-12365264D01*
X13856500Y-12365264D01*
X14127928Y-12365264D02*
X14099357Y-12350978D01*
X14085071Y-12322407D01*
X14085071Y-12065264D01*
X14356500Y-12350978D02*
X14327928Y-12365264D01*
X14270786Y-12365264D01*
X14242214Y-12350978D01*
X14227928Y-12322407D01*
X14227928Y-12208121D01*
X14242214Y-12179550D01*
X14270786Y-12165264D01*
X14327928Y-12165264D01*
X14356500Y-12179550D01*
X14370786Y-12208121D01*
X14370786Y-12236693D01*
X14227928Y-12265264D01*
X14485071Y-12350978D02*
X14513643Y-12365264D01*
X14570786Y-12365264D01*
X14599357Y-12350978D01*
X14613643Y-12322407D01*
X14613643Y-12308121D01*
X14599357Y-12279550D01*
X14570786Y-12265264D01*
X14527928Y-12265264D01*
X14499357Y-12250978D01*
X14485071Y-12222407D01*
X14485071Y-12208121D01*
X14499357Y-12179550D01*
X14527928Y-12165264D01*
X14570786Y-12165264D01*
X14599357Y-12179550D01*
X14713643Y-12479550D02*
X14727928Y-12465264D01*
X14756500Y-12422407D01*
X14770786Y-12393836D01*
X14785071Y-12350978D01*
X14799357Y-12279550D01*
X14799357Y-12222407D01*
X14785071Y-12150978D01*
X14770786Y-12108121D01*
X14756500Y-12079550D01*
X14727928Y-12036693D01*
X14713643Y-12022407D01*
X7901500Y-12585550D02*
X7901500Y-12665550D01*
X7861500Y-12625550D02*
X7941500Y-12625550D01*
X8285071Y-12461264D02*
X8313643Y-12461264D01*
X8342214Y-12475550D01*
X8356500Y-12489836D01*
X8370786Y-12518407D01*
X8385071Y-12575550D01*
X8385071Y-12646978D01*
X8370786Y-12704121D01*
X8356500Y-12732693D01*
X8342214Y-12746978D01*
X8313643Y-12761264D01*
X8285071Y-12761264D01*
X8256500Y-12746978D01*
X8242214Y-12732693D01*
X8227928Y-12704121D01*
X8213643Y-12646978D01*
X8213643Y-12575550D01*
X8227928Y-12518407D01*
X8242214Y-12489836D01*
X8256500Y-12475550D01*
X8285071Y-12461264D01*
X8513643Y-12732693D02*
X8527929Y-12746978D01*
X8513643Y-12761264D01*
X8499357Y-12746978D01*
X8513643Y-12732693D01*
X8513643Y-12761264D01*
X8699357Y-12589836D02*
X8670786Y-12575550D01*
X8656500Y-12561264D01*
X8642214Y-12532693D01*
X8642214Y-12518407D01*
X8656500Y-12489836D01*
X8670786Y-12475550D01*
X8699357Y-12461264D01*
X8756500Y-12461264D01*
X8785071Y-12475550D01*
X8799357Y-12489836D01*
X8813643Y-12518407D01*
X8813643Y-12532693D01*
X8799357Y-12561264D01*
X8785071Y-12575550D01*
X8756500Y-12589836D01*
X8699357Y-12589836D01*
X8670786Y-12604121D01*
X8656500Y-12618407D01*
X8642214Y-12646978D01*
X8642214Y-12704121D01*
X8656500Y-12732693D01*
X8670786Y-12746978D01*
X8699357Y-12761264D01*
X8756500Y-12761264D01*
X8785071Y-12746978D01*
X8799357Y-12732693D01*
X8813643Y-12704121D01*
X8813643Y-12646978D01*
X8799357Y-12618407D01*
X8785071Y-12604121D01*
X8756500Y-12589836D01*
X8999357Y-12461264D02*
X9027929Y-12461264D01*
X9056500Y-12475550D01*
X9070786Y-12489836D01*
X9085071Y-12518407D01*
X9099357Y-12575550D01*
X9099357Y-12646978D01*
X9085071Y-12704121D01*
X9070786Y-12732693D01*
X9056500Y-12746978D01*
X9027929Y-12761264D01*
X8999357Y-12761264D01*
X8970786Y-12746978D01*
X8956500Y-12732693D01*
X8942214Y-12704121D01*
X8927929Y-12646978D01*
X8927929Y-12575550D01*
X8942214Y-12518407D01*
X8956500Y-12489836D01*
X8970786Y-12475550D01*
X8999357Y-12461264D01*
X9227929Y-12761264D02*
X9227929Y-12561264D01*
X9227929Y-12589836D02*
X9242214Y-12575550D01*
X9270786Y-12561264D01*
X9313643Y-12561264D01*
X9342214Y-12575550D01*
X9356500Y-12604121D01*
X9356500Y-12761264D01*
X9356500Y-12604121D02*
X9370786Y-12575550D01*
X9399357Y-12561264D01*
X9442214Y-12561264D01*
X9470786Y-12575550D01*
X9485071Y-12604121D01*
X9485071Y-12761264D01*
X9627929Y-12761264D02*
X9627929Y-12561264D01*
X9627929Y-12589836D02*
X9642214Y-12575550D01*
X9670786Y-12561264D01*
X9713643Y-12561264D01*
X9742214Y-12575550D01*
X9756500Y-12604121D01*
X9756500Y-12761264D01*
X9756500Y-12604121D02*
X9770786Y-12575550D01*
X9799357Y-12561264D01*
X9842214Y-12561264D01*
X9870786Y-12575550D01*
X9885071Y-12604121D01*
X9885071Y-12761264D01*
X10470786Y-12446978D02*
X10213643Y-12832693D01*
X10856500Y-12461264D02*
X10885071Y-12461264D01*
X10913643Y-12475550D01*
X10927929Y-12489836D01*
X10942214Y-12518407D01*
X10956500Y-12575550D01*
X10956500Y-12646978D01*
X10942214Y-12704121D01*
X10927929Y-12732693D01*
X10913643Y-12746978D01*
X10885071Y-12761264D01*
X10856500Y-12761264D01*
X10827929Y-12746978D01*
X10813643Y-12732693D01*
X10799357Y-12704121D01*
X10785071Y-12646978D01*
X10785071Y-12575550D01*
X10799357Y-12518407D01*
X10813643Y-12489836D01*
X10827929Y-12475550D01*
X10856500Y-12461264D01*
X11085071Y-12732693D02*
X11099357Y-12746978D01*
X11085071Y-12761264D01*
X11070786Y-12746978D01*
X11085071Y-12732693D01*
X11085071Y-12761264D01*
X11285071Y-12461264D02*
X11313643Y-12461264D01*
X11342214Y-12475550D01*
X11356500Y-12489836D01*
X11370786Y-12518407D01*
X11385071Y-12575550D01*
X11385071Y-12646978D01*
X11370786Y-12704121D01*
X11356500Y-12732693D01*
X11342214Y-12746978D01*
X11313643Y-12761264D01*
X11285071Y-12761264D01*
X11256500Y-12746978D01*
X11242214Y-12732693D01*
X11227928Y-12704121D01*
X11213643Y-12646978D01*
X11213643Y-12575550D01*
X11227928Y-12518407D01*
X11242214Y-12489836D01*
X11256500Y-12475550D01*
X11285071Y-12461264D01*
X11485071Y-12461264D02*
X11670786Y-12461264D01*
X11570786Y-12575550D01*
X11613643Y-12575550D01*
X11642214Y-12589836D01*
X11656500Y-12604121D01*
X11670786Y-12632693D01*
X11670786Y-12704121D01*
X11656500Y-12732693D01*
X11642214Y-12746978D01*
X11613643Y-12761264D01*
X11527928Y-12761264D01*
X11499357Y-12746978D01*
X11485071Y-12732693D01*
X11956500Y-12761264D02*
X11785071Y-12761264D01*
X11870786Y-12761264D02*
X11870786Y-12461264D01*
X11842214Y-12504121D01*
X11813643Y-12532693D01*
X11785071Y-12546978D01*
X12070786Y-12461264D02*
X12070786Y-12518407D01*
X12185071Y-12461264D02*
X12185071Y-12518407D01*
X12627928Y-12875550D02*
X12613643Y-12861264D01*
X12585071Y-12818407D01*
X12570786Y-12789836D01*
X12556500Y-12746978D01*
X12542214Y-12675550D01*
X12542214Y-12618407D01*
X12556500Y-12546978D01*
X12570786Y-12504121D01*
X12585071Y-12475550D01*
X12613643Y-12432693D01*
X12627928Y-12418407D01*
X12870786Y-12561264D02*
X12870786Y-12761264D01*
X12799357Y-12446978D02*
X12727928Y-12661264D01*
X12913643Y-12661264D01*
X13070786Y-12589836D02*
X13042214Y-12575550D01*
X13027928Y-12561264D01*
X13013643Y-12532693D01*
X13013643Y-12518407D01*
X13027928Y-12489836D01*
X13042214Y-12475550D01*
X13070786Y-12461264D01*
X13127928Y-12461264D01*
X13156500Y-12475550D01*
X13170786Y-12489836D01*
X13185071Y-12518407D01*
X13185071Y-12532693D01*
X13170786Y-12561264D01*
X13156500Y-12575550D01*
X13127928Y-12589836D01*
X13070786Y-12589836D01*
X13042214Y-12604121D01*
X13027928Y-12618407D01*
X13013643Y-12646978D01*
X13013643Y-12704121D01*
X13027928Y-12732693D01*
X13042214Y-12746978D01*
X13070786Y-12761264D01*
X13127928Y-12761264D01*
X13156500Y-12746978D01*
X13170786Y-12732693D01*
X13185071Y-12704121D01*
X13185071Y-12646978D01*
X13170786Y-12618407D01*
X13156500Y-12604121D01*
X13127928Y-12589836D01*
X13542214Y-12761264D02*
X13542214Y-12461264D01*
X13670786Y-12761264D02*
X13670786Y-12604121D01*
X13656500Y-12575550D01*
X13627928Y-12561264D01*
X13585071Y-12561264D01*
X13556500Y-12575550D01*
X13542214Y-12589836D01*
X13856500Y-12761264D02*
X13827928Y-12746978D01*
X13813643Y-12732693D01*
X13799357Y-12704121D01*
X13799357Y-12618407D01*
X13813643Y-12589836D01*
X13827928Y-12575550D01*
X13856500Y-12561264D01*
X13899357Y-12561264D01*
X13927928Y-12575550D01*
X13942214Y-12589836D01*
X13956500Y-12618407D01*
X13956500Y-12704121D01*
X13942214Y-12732693D01*
X13927928Y-12746978D01*
X13899357Y-12761264D01*
X13856500Y-12761264D01*
X14127928Y-12761264D02*
X14099357Y-12746978D01*
X14085071Y-12718407D01*
X14085071Y-12461264D01*
X14356500Y-12746978D02*
X14327928Y-12761264D01*
X14270786Y-12761264D01*
X14242214Y-12746978D01*
X14227928Y-12718407D01*
X14227928Y-12604121D01*
X14242214Y-12575550D01*
X14270786Y-12561264D01*
X14327928Y-12561264D01*
X14356500Y-12575550D01*
X14370786Y-12604121D01*
X14370786Y-12632693D01*
X14227928Y-12661264D01*
X14485071Y-12746978D02*
X14513643Y-12761264D01*
X14570786Y-12761264D01*
X14599357Y-12746978D01*
X14613643Y-12718407D01*
X14613643Y-12704121D01*
X14599357Y-12675550D01*
X14570786Y-12661264D01*
X14527928Y-12661264D01*
X14499357Y-12646978D01*
X14485071Y-12618407D01*
X14485071Y-12604121D01*
X14499357Y-12575550D01*
X14527928Y-12561264D01*
X14570786Y-12561264D01*
X14599357Y-12575550D01*
X14713643Y-12875550D02*
X14727928Y-12861264D01*
X14756500Y-12818407D01*
X14770786Y-12789836D01*
X14785071Y-12746978D01*
X14799357Y-12675550D01*
X14799357Y-12618407D01*
X14785071Y-12546978D01*
X14770786Y-12504121D01*
X14756500Y-12475550D01*
X14727928Y-12432693D01*
X14713643Y-12418407D01*
X7926856Y-13056906D02*
X7926856Y-12986194D01*
X7856144Y-12986194D01*
X7856144Y-13056906D01*
X7926856Y-13056906D01*
X8385071Y-13157264D02*
X8213643Y-13157264D01*
X8299357Y-13157264D02*
X8299357Y-12857264D01*
X8270786Y-12900121D01*
X8242214Y-12928693D01*
X8213643Y-12942978D01*
X8513643Y-13128693D02*
X8527929Y-13142978D01*
X8513643Y-13157264D01*
X8499357Y-13142978D01*
X8513643Y-13128693D01*
X8513643Y-13157264D01*
X8713643Y-12857264D02*
X8742214Y-12857264D01*
X8770786Y-12871550D01*
X8785071Y-12885836D01*
X8799357Y-12914407D01*
X8813643Y-12971550D01*
X8813643Y-13042978D01*
X8799357Y-13100121D01*
X8785071Y-13128693D01*
X8770786Y-13142978D01*
X8742214Y-13157264D01*
X8713643Y-13157264D01*
X8685071Y-13142978D01*
X8670786Y-13128693D01*
X8656500Y-13100121D01*
X8642214Y-13042978D01*
X8642214Y-12971550D01*
X8656500Y-12914407D01*
X8670786Y-12885836D01*
X8685071Y-12871550D01*
X8713643Y-12857264D01*
X8999357Y-12857264D02*
X9027929Y-12857264D01*
X9056500Y-12871550D01*
X9070786Y-12885836D01*
X9085071Y-12914407D01*
X9099357Y-12971550D01*
X9099357Y-13042978D01*
X9085071Y-13100121D01*
X9070786Y-13128693D01*
X9056500Y-13142978D01*
X9027929Y-13157264D01*
X8999357Y-13157264D01*
X8970786Y-13142978D01*
X8956500Y-13128693D01*
X8942214Y-13100121D01*
X8927929Y-13042978D01*
X8927929Y-12971550D01*
X8942214Y-12914407D01*
X8956500Y-12885836D01*
X8970786Y-12871550D01*
X8999357Y-12857264D01*
X9227929Y-13157264D02*
X9227929Y-12957264D01*
X9227929Y-12985836D02*
X9242214Y-12971550D01*
X9270786Y-12957264D01*
X9313643Y-12957264D01*
X9342214Y-12971550D01*
X9356500Y-13000121D01*
X9356500Y-13157264D01*
X9356500Y-13000121D02*
X9370786Y-12971550D01*
X9399357Y-12957264D01*
X9442214Y-12957264D01*
X9470786Y-12971550D01*
X9485071Y-13000121D01*
X9485071Y-13157264D01*
X9627929Y-13157264D02*
X9627929Y-12957264D01*
X9627929Y-12985836D02*
X9642214Y-12971550D01*
X9670786Y-12957264D01*
X9713643Y-12957264D01*
X9742214Y-12971550D01*
X9756500Y-13000121D01*
X9756500Y-13157264D01*
X9756500Y-13000121D02*
X9770786Y-12971550D01*
X9799357Y-12957264D01*
X9842214Y-12957264D01*
X9870786Y-12971550D01*
X9885071Y-13000121D01*
X9885071Y-13157264D01*
X10470786Y-12842978D02*
X10213643Y-13228693D01*
X10856500Y-12857264D02*
X10885071Y-12857264D01*
X10913643Y-12871550D01*
X10927929Y-12885836D01*
X10942214Y-12914407D01*
X10956500Y-12971550D01*
X10956500Y-13042978D01*
X10942214Y-13100121D01*
X10927929Y-13128693D01*
X10913643Y-13142978D01*
X10885071Y-13157264D01*
X10856500Y-13157264D01*
X10827929Y-13142978D01*
X10813643Y-13128693D01*
X10799357Y-13100121D01*
X10785071Y-13042978D01*
X10785071Y-12971550D01*
X10799357Y-12914407D01*
X10813643Y-12885836D01*
X10827929Y-12871550D01*
X10856500Y-12857264D01*
X11085071Y-13128693D02*
X11099357Y-13142978D01*
X11085071Y-13157264D01*
X11070786Y-13142978D01*
X11085071Y-13128693D01*
X11085071Y-13157264D01*
X11285071Y-12857264D02*
X11313643Y-12857264D01*
X11342214Y-12871550D01*
X11356500Y-12885836D01*
X11370786Y-12914407D01*
X11385071Y-12971550D01*
X11385071Y-13042978D01*
X11370786Y-13100121D01*
X11356500Y-13128693D01*
X11342214Y-13142978D01*
X11313643Y-13157264D01*
X11285071Y-13157264D01*
X11256500Y-13142978D01*
X11242214Y-13128693D01*
X11227928Y-13100121D01*
X11213643Y-13042978D01*
X11213643Y-12971550D01*
X11227928Y-12914407D01*
X11242214Y-12885836D01*
X11256500Y-12871550D01*
X11285071Y-12857264D01*
X11485071Y-12857264D02*
X11670786Y-12857264D01*
X11570786Y-12971550D01*
X11613643Y-12971550D01*
X11642214Y-12985836D01*
X11656500Y-13000121D01*
X11670786Y-13028693D01*
X11670786Y-13100121D01*
X11656500Y-13128693D01*
X11642214Y-13142978D01*
X11613643Y-13157264D01*
X11527928Y-13157264D01*
X11499357Y-13142978D01*
X11485071Y-13128693D01*
X11813643Y-13157264D02*
X11870786Y-13157264D01*
X11899357Y-13142978D01*
X11913643Y-13128693D01*
X11942214Y-13085836D01*
X11956500Y-13028693D01*
X11956500Y-12914407D01*
X11942214Y-12885836D01*
X11927928Y-12871550D01*
X11899357Y-12857264D01*
X11842214Y-12857264D01*
X11813643Y-12871550D01*
X11799357Y-12885836D01*
X11785071Y-12914407D01*
X11785071Y-12985836D01*
X11799357Y-13014407D01*
X11813643Y-13028693D01*
X11842214Y-13042978D01*
X11899357Y-13042978D01*
X11927928Y-13028693D01*
X11942214Y-13014407D01*
X11956500Y-12985836D01*
X12070786Y-12857264D02*
X12070786Y-12914407D01*
X12185071Y-12857264D02*
X12185071Y-12914407D01*
X12627928Y-13271550D02*
X12613643Y-13257264D01*
X12585071Y-13214407D01*
X12570786Y-13185836D01*
X12556500Y-13142978D01*
X12542214Y-13071550D01*
X12542214Y-13014407D01*
X12556500Y-12942978D01*
X12570786Y-12900121D01*
X12585071Y-12871550D01*
X12613643Y-12828693D01*
X12627928Y-12814407D01*
X12870786Y-12857264D02*
X12813643Y-12857264D01*
X12785071Y-12871550D01*
X12770786Y-12885836D01*
X12742214Y-12928693D01*
X12727928Y-12985836D01*
X12727928Y-13100121D01*
X12742214Y-13128693D01*
X12756500Y-13142978D01*
X12785071Y-13157264D01*
X12842214Y-13157264D01*
X12870786Y-13142978D01*
X12885071Y-13128693D01*
X12899357Y-13100121D01*
X12899357Y-13028693D01*
X12885071Y-13000121D01*
X12870786Y-12985836D01*
X12842214Y-12971550D01*
X12785071Y-12971550D01*
X12756500Y-12985836D01*
X12742214Y-13000121D01*
X12727928Y-13028693D01*
X13256500Y-13157264D02*
X13256500Y-12857264D01*
X13385071Y-13157264D02*
X13385071Y-13000121D01*
X13370786Y-12971550D01*
X13342214Y-12957264D01*
X13299357Y-12957264D01*
X13270786Y-12971550D01*
X13256500Y-12985836D01*
X13570786Y-13157264D02*
X13542214Y-13142978D01*
X13527928Y-13128693D01*
X13513643Y-13100121D01*
X13513643Y-13014407D01*
X13527928Y-12985836D01*
X13542214Y-12971550D01*
X13570786Y-12957264D01*
X13613643Y-12957264D01*
X13642214Y-12971550D01*
X13656500Y-12985836D01*
X13670786Y-13014407D01*
X13670786Y-13100121D01*
X13656500Y-13128693D01*
X13642214Y-13142978D01*
X13613643Y-13157264D01*
X13570786Y-13157264D01*
X13842214Y-13157264D02*
X13813643Y-13142978D01*
X13799357Y-13114407D01*
X13799357Y-12857264D01*
X14070786Y-13142978D02*
X14042214Y-13157264D01*
X13985071Y-13157264D01*
X13956500Y-13142978D01*
X13942214Y-13114407D01*
X13942214Y-13000121D01*
X13956500Y-12971550D01*
X13985071Y-12957264D01*
X14042214Y-12957264D01*
X14070786Y-12971550D01*
X14085071Y-13000121D01*
X14085071Y-13028693D01*
X13942214Y-13057264D01*
X14199357Y-13142978D02*
X14227928Y-13157264D01*
X14285071Y-13157264D01*
X14313643Y-13142978D01*
X14327928Y-13114407D01*
X14327928Y-13100121D01*
X14313643Y-13071550D01*
X14285071Y-13057264D01*
X14242214Y-13057264D01*
X14213643Y-13042978D01*
X14199357Y-13014407D01*
X14199357Y-13000121D01*
X14213643Y-12971550D01*
X14242214Y-12957264D01*
X14285071Y-12957264D01*
X14313643Y-12971550D01*
X14427928Y-13271550D02*
X14442214Y-13257264D01*
X14470786Y-13214407D01*
X14485071Y-13185836D01*
X14499357Y-13142978D01*
X14513643Y-13071550D01*
X14513643Y-13014407D01*
X14499357Y-12942978D01*
X14485071Y-12900121D01*
X14470786Y-12871550D01*
X14442214Y-12828693D01*
X14427928Y-12814407D01*
M02*
