%FSLAX45Y45*%
G04 Gerber Fmt 4.5, Leading zero omitted, Abs format (unit mm)*
G04 Created by KiCad (PCBNEW (5.1.5)-3) date 2020-09-09 09:45:20*
%MOMM*%
%LPD*%
G04 APERTURE LIST*
%TA.AperFunction,Profile*%
%ADD10C,0.100000*%
%TD*%
%ADD11C,0.200000*%
%ADD12C,0.300000*%
G04 APERTURE END LIST*
D10*
X8089900Y-10756900D02*
X8089900Y-4641850D01*
X9817100Y-10756900D02*
X8089900Y-10756900D01*
X9817100Y-4641850D02*
X9817100Y-10756900D01*
X8089900Y-4641850D02*
X9817100Y-4641850D01*
D11*
D12*
X8227928Y-11339264D02*
X8227928Y-11039264D01*
X8299357Y-11039264D01*
X8342214Y-11053550D01*
X8370786Y-11082121D01*
X8385071Y-11110693D01*
X8399357Y-11167836D01*
X8399357Y-11210693D01*
X8385071Y-11267836D01*
X8370786Y-11296407D01*
X8342214Y-11324978D01*
X8299357Y-11339264D01*
X8227928Y-11339264D01*
X8527929Y-11339264D02*
X8527929Y-11139264D01*
X8527929Y-11196407D02*
X8542214Y-11167836D01*
X8556500Y-11153550D01*
X8585071Y-11139264D01*
X8613643Y-11139264D01*
X8713643Y-11339264D02*
X8713643Y-11139264D01*
X8713643Y-11039264D02*
X8699357Y-11053550D01*
X8713643Y-11067836D01*
X8727929Y-11053550D01*
X8713643Y-11039264D01*
X8713643Y-11067836D01*
X8899357Y-11339264D02*
X8870786Y-11324978D01*
X8856500Y-11296407D01*
X8856500Y-11039264D01*
X9056500Y-11339264D02*
X9027929Y-11324978D01*
X9013643Y-11296407D01*
X9013643Y-11039264D01*
X9399357Y-11339264D02*
X9399357Y-11039264D01*
X9499357Y-11253550D01*
X9599357Y-11039264D01*
X9599357Y-11339264D01*
X9870786Y-11339264D02*
X9870786Y-11182121D01*
X9856500Y-11153550D01*
X9827929Y-11139264D01*
X9770786Y-11139264D01*
X9742214Y-11153550D01*
X9870786Y-11324978D02*
X9842214Y-11339264D01*
X9770786Y-11339264D01*
X9742214Y-11324978D01*
X9727929Y-11296407D01*
X9727929Y-11267836D01*
X9742214Y-11239264D01*
X9770786Y-11224978D01*
X9842214Y-11224978D01*
X9870786Y-11210693D01*
X10013643Y-11139264D02*
X10013643Y-11439264D01*
X10013643Y-11153550D02*
X10042214Y-11139264D01*
X10099357Y-11139264D01*
X10127929Y-11153550D01*
X10142214Y-11167836D01*
X10156500Y-11196407D01*
X10156500Y-11282121D01*
X10142214Y-11310693D01*
X10127929Y-11324978D01*
X10099357Y-11339264D01*
X10042214Y-11339264D01*
X10013643Y-11324978D01*
X10285071Y-11310693D02*
X10299357Y-11324978D01*
X10285071Y-11339264D01*
X10270786Y-11324978D01*
X10285071Y-11310693D01*
X10285071Y-11339264D01*
X10285071Y-11153550D02*
X10299357Y-11167836D01*
X10285071Y-11182121D01*
X10270786Y-11167836D01*
X10285071Y-11153550D01*
X10285071Y-11182121D01*
M02*
