G04 #@! TF.GenerationSoftware,KiCad,Pcbnew,(5.1.5)-3*
G04 #@! TF.CreationDate,2020-09-09T09:45:17-04:00*
G04 #@! TF.ProjectId,DIP48-XC9572XL,44495034-382d-4584-9339-353732584c2e,1*
G04 #@! TF.SameCoordinates,Original*
G04 #@! TF.FileFunction,Legend,Top*
G04 #@! TF.FilePolarity,Positive*
%FSLAX46Y46*%
G04 Gerber Fmt 4.6, Leading zero omitted, Abs format (unit mm)*
G04 Created by KiCad (PCBNEW (5.1.5)-3) date 2020-09-09 09:45:17*
%MOMM*%
%LPD*%
G04 APERTURE LIST*
%ADD10C,0.100000*%
%ADD11C,0.150000*%
%ADD12C,0.120000*%
G04 APERTURE END LIST*
D10*
G36*
X95250000Y-57150000D02*
G01*
X83820000Y-57150000D01*
X83820000Y-48260000D01*
X95250000Y-48260000D01*
X95250000Y-57150000D01*
G37*
X95250000Y-57150000D02*
X83820000Y-57150000D01*
X83820000Y-48260000D01*
X95250000Y-48260000D01*
X95250000Y-57150000D01*
D11*
X94369000Y-68508428D02*
X94321380Y-68603666D01*
X94321380Y-68746523D01*
X94369000Y-68889380D01*
X94464238Y-68984619D01*
X94559476Y-69032238D01*
X94749952Y-69079857D01*
X94892809Y-69079857D01*
X95083285Y-69032238D01*
X95178523Y-68984619D01*
X95273761Y-68889380D01*
X95321380Y-68746523D01*
X95321380Y-68651285D01*
X95273761Y-68508428D01*
X95226142Y-68460809D01*
X94892809Y-68460809D01*
X94892809Y-68651285D01*
X94321380Y-68175095D02*
X94321380Y-67603666D01*
X95321380Y-67889380D02*
X94321380Y-67889380D01*
X95273761Y-67317952D02*
X95321380Y-67175095D01*
X95321380Y-66937000D01*
X95273761Y-66841761D01*
X95226142Y-66794142D01*
X95130904Y-66746523D01*
X95035666Y-66746523D01*
X94940428Y-66794142D01*
X94892809Y-66841761D01*
X94845190Y-66937000D01*
X94797571Y-67127476D01*
X94749952Y-67222714D01*
X94702333Y-67270333D01*
X94607095Y-67317952D01*
X94511857Y-67317952D01*
X94416619Y-67270333D01*
X94369000Y-67222714D01*
X94321380Y-67127476D01*
X94321380Y-66889380D01*
X94369000Y-66746523D01*
X95321380Y-65794142D02*
X95321380Y-66365571D01*
X95321380Y-66079857D02*
X94321380Y-66079857D01*
X94464238Y-66175095D01*
X94559476Y-66270333D01*
X94607095Y-66365571D01*
X94432500Y-73731285D02*
X94384880Y-73826523D01*
X94384880Y-73969380D01*
X94432500Y-74112238D01*
X94527738Y-74207476D01*
X94622976Y-74255095D01*
X94813452Y-74302714D01*
X94956309Y-74302714D01*
X95146785Y-74255095D01*
X95242023Y-74207476D01*
X95337261Y-74112238D01*
X95384880Y-73969380D01*
X95384880Y-73874142D01*
X95337261Y-73731285D01*
X95289642Y-73683666D01*
X94956309Y-73683666D01*
X94956309Y-73874142D01*
X95289642Y-72683666D02*
X95337261Y-72731285D01*
X95384880Y-72874142D01*
X95384880Y-72969380D01*
X95337261Y-73112238D01*
X95242023Y-73207476D01*
X95146785Y-73255095D01*
X94956309Y-73302714D01*
X94813452Y-73302714D01*
X94622976Y-73255095D01*
X94527738Y-73207476D01*
X94432500Y-73112238D01*
X94384880Y-72969380D01*
X94384880Y-72874142D01*
X94432500Y-72731285D01*
X94480119Y-72683666D01*
X95384880Y-72255095D02*
X94384880Y-72255095D01*
X95384880Y-71683666D02*
X94813452Y-72112238D01*
X94384880Y-71683666D02*
X94956309Y-72255095D01*
X94384880Y-71350333D02*
X94384880Y-70731285D01*
X94765833Y-71064619D01*
X94765833Y-70921761D01*
X94813452Y-70826523D01*
X94861071Y-70778904D01*
X94956309Y-70731285D01*
X95194404Y-70731285D01*
X95289642Y-70778904D01*
X95337261Y-70826523D01*
X95384880Y-70921761D01*
X95384880Y-71207476D01*
X95337261Y-71302714D01*
X95289642Y-71350333D01*
X94369000Y-78811285D02*
X94321380Y-78906523D01*
X94321380Y-79049380D01*
X94369000Y-79192238D01*
X94464238Y-79287476D01*
X94559476Y-79335095D01*
X94749952Y-79382714D01*
X94892809Y-79382714D01*
X95083285Y-79335095D01*
X95178523Y-79287476D01*
X95273761Y-79192238D01*
X95321380Y-79049380D01*
X95321380Y-78954142D01*
X95273761Y-78811285D01*
X95226142Y-78763666D01*
X94892809Y-78763666D01*
X94892809Y-78954142D01*
X95226142Y-77763666D02*
X95273761Y-77811285D01*
X95321380Y-77954142D01*
X95321380Y-78049380D01*
X95273761Y-78192238D01*
X95178523Y-78287476D01*
X95083285Y-78335095D01*
X94892809Y-78382714D01*
X94749952Y-78382714D01*
X94559476Y-78335095D01*
X94464238Y-78287476D01*
X94369000Y-78192238D01*
X94321380Y-78049380D01*
X94321380Y-77954142D01*
X94369000Y-77811285D01*
X94416619Y-77763666D01*
X95321380Y-77335095D02*
X94321380Y-77335095D01*
X95321380Y-76763666D02*
X94749952Y-77192238D01*
X94321380Y-76763666D02*
X94892809Y-77335095D01*
X95321380Y-75811285D02*
X95321380Y-76382714D01*
X95321380Y-76097000D02*
X94321380Y-76097000D01*
X94464238Y-76192238D01*
X94559476Y-76287476D01*
X94607095Y-76382714D01*
X85915595Y-79637000D02*
X85820357Y-79589380D01*
X85677500Y-79589380D01*
X85534642Y-79637000D01*
X85439404Y-79732238D01*
X85391785Y-79827476D01*
X85344166Y-80017952D01*
X85344166Y-80160809D01*
X85391785Y-80351285D01*
X85439404Y-80446523D01*
X85534642Y-80541761D01*
X85677500Y-80589380D01*
X85772738Y-80589380D01*
X85915595Y-80541761D01*
X85963214Y-80494142D01*
X85963214Y-80160809D01*
X85772738Y-80160809D01*
X86391785Y-80589380D02*
X86391785Y-79589380D01*
X86963214Y-80589380D01*
X86963214Y-79589380D01*
X87439404Y-80589380D02*
X87439404Y-79589380D01*
X87677500Y-79589380D01*
X87820357Y-79637000D01*
X87915595Y-79732238D01*
X87963214Y-79827476D01*
X88010833Y-80017952D01*
X88010833Y-80160809D01*
X87963214Y-80351285D01*
X87915595Y-80446523D01*
X87820357Y-80541761D01*
X87677500Y-80589380D01*
X87439404Y-80589380D01*
X85018714Y-74557000D02*
X84923476Y-74509380D01*
X84780619Y-74509380D01*
X84637761Y-74557000D01*
X84542523Y-74652238D01*
X84494904Y-74747476D01*
X84447285Y-74937952D01*
X84447285Y-75080809D01*
X84494904Y-75271285D01*
X84542523Y-75366523D01*
X84637761Y-75461761D01*
X84780619Y-75509380D01*
X84875857Y-75509380D01*
X85018714Y-75461761D01*
X85066333Y-75414142D01*
X85066333Y-75080809D01*
X84875857Y-75080809D01*
X86066333Y-75414142D02*
X86018714Y-75461761D01*
X85875857Y-75509380D01*
X85780619Y-75509380D01*
X85637761Y-75461761D01*
X85542523Y-75366523D01*
X85494904Y-75271285D01*
X85447285Y-75080809D01*
X85447285Y-74937952D01*
X85494904Y-74747476D01*
X85542523Y-74652238D01*
X85637761Y-74557000D01*
X85780619Y-74509380D01*
X85875857Y-74509380D01*
X86018714Y-74557000D01*
X86066333Y-74604619D01*
X86494904Y-75509380D02*
X86494904Y-74509380D01*
X87066333Y-75509380D02*
X86637761Y-74937952D01*
X87066333Y-74509380D02*
X86494904Y-75080809D01*
X87447285Y-74604619D02*
X87494904Y-74557000D01*
X87590142Y-74509380D01*
X87828238Y-74509380D01*
X87923476Y-74557000D01*
X87971095Y-74604619D01*
X88018714Y-74699857D01*
X88018714Y-74795095D01*
X87971095Y-74937952D01*
X87399666Y-75509380D01*
X88018714Y-75509380D01*
X86026714Y-69477000D02*
X85931476Y-69429380D01*
X85788619Y-69429380D01*
X85645761Y-69477000D01*
X85550523Y-69572238D01*
X85502904Y-69667476D01*
X85455285Y-69857952D01*
X85455285Y-70000809D01*
X85502904Y-70191285D01*
X85550523Y-70286523D01*
X85645761Y-70381761D01*
X85788619Y-70429380D01*
X85883857Y-70429380D01*
X86026714Y-70381761D01*
X86074333Y-70334142D01*
X86074333Y-70000809D01*
X85883857Y-70000809D01*
X86455285Y-70381761D02*
X86598142Y-70429380D01*
X86836238Y-70429380D01*
X86931476Y-70381761D01*
X86979095Y-70334142D01*
X87026714Y-70238904D01*
X87026714Y-70143666D01*
X86979095Y-70048428D01*
X86931476Y-70000809D01*
X86836238Y-69953190D01*
X86645761Y-69905571D01*
X86550523Y-69857952D01*
X86502904Y-69810333D01*
X86455285Y-69715095D01*
X86455285Y-69619857D01*
X86502904Y-69524619D01*
X86550523Y-69477000D01*
X86645761Y-69429380D01*
X86883857Y-69429380D01*
X87026714Y-69477000D01*
X88026714Y-70429380D02*
X87693380Y-69953190D01*
X87455285Y-70429380D02*
X87455285Y-69429380D01*
X87836238Y-69429380D01*
X87931476Y-69477000D01*
X87979095Y-69524619D01*
X88026714Y-69619857D01*
X88026714Y-69762714D01*
X87979095Y-69857952D01*
X87931476Y-69905571D01*
X87836238Y-69953190D01*
X87455285Y-69953190D01*
X85288571Y-64397000D02*
X85193333Y-64349380D01*
X85050476Y-64349380D01*
X84907619Y-64397000D01*
X84812380Y-64492238D01*
X84764761Y-64587476D01*
X84717142Y-64777952D01*
X84717142Y-64920809D01*
X84764761Y-65111285D01*
X84812380Y-65206523D01*
X84907619Y-65301761D01*
X85050476Y-65349380D01*
X85145714Y-65349380D01*
X85288571Y-65301761D01*
X85336190Y-65254142D01*
X85336190Y-64920809D01*
X85145714Y-64920809D01*
X85621904Y-64349380D02*
X86193333Y-64349380D01*
X85907619Y-65349380D02*
X85907619Y-64349380D01*
X86479047Y-65301761D02*
X86621904Y-65349380D01*
X86860000Y-65349380D01*
X86955238Y-65301761D01*
X87002857Y-65254142D01*
X87050476Y-65158904D01*
X87050476Y-65063666D01*
X87002857Y-64968428D01*
X86955238Y-64920809D01*
X86860000Y-64873190D01*
X86669523Y-64825571D01*
X86574285Y-64777952D01*
X86526666Y-64730333D01*
X86479047Y-64635095D01*
X86479047Y-64539857D01*
X86526666Y-64444619D01*
X86574285Y-64397000D01*
X86669523Y-64349380D01*
X86907619Y-64349380D01*
X87050476Y-64397000D01*
X87431428Y-64444619D02*
X87479047Y-64397000D01*
X87574285Y-64349380D01*
X87812380Y-64349380D01*
X87907619Y-64397000D01*
X87955238Y-64444619D01*
X88002857Y-64539857D01*
X88002857Y-64635095D01*
X87955238Y-64777952D01*
X87383809Y-65349380D01*
X88002857Y-65349380D01*
D12*
X94700400Y-107260700D02*
X94700400Y-102060700D01*
X87020400Y-107260700D02*
X94700400Y-107260700D01*
X84420400Y-102060700D02*
X94700400Y-102060700D01*
X87020400Y-107260700D02*
X87020400Y-104660700D01*
X87020400Y-104660700D02*
X84420400Y-104660700D01*
X84420400Y-104660700D02*
X84420400Y-102060700D01*
X85750400Y-107260700D02*
X84420400Y-107260700D01*
X84420400Y-107260700D02*
X84420400Y-105930700D01*
X90530501Y-46473001D02*
G75*
G02X88530501Y-46473001I-1000000J0D01*
G01*
X88530501Y-46473001D02*
X83070501Y-46473001D01*
X83070501Y-46473001D02*
X83070501Y-107553001D01*
X83070501Y-107553001D02*
X95990501Y-107553001D01*
X95990501Y-107553001D02*
X95990501Y-46473001D01*
X95990501Y-46473001D02*
X90530501Y-46473001D01*
X87320400Y-92435900D02*
X86720400Y-92435900D01*
X88020400Y-88985900D02*
X88020400Y-91785900D01*
X86720400Y-88335900D02*
X87320400Y-88335900D01*
X86020400Y-91785900D02*
X86020400Y-88985900D01*
X86020400Y-89035900D02*
G75*
G02X86720400Y-88335900I700000J0D01*
G01*
X87320400Y-88335900D02*
G75*
G02X88020400Y-89035900I0J-700000D01*
G01*
X88020400Y-91735900D02*
G75*
G02X87320400Y-92435900I-700000J0D01*
G01*
X86720400Y-92435900D02*
G75*
G02X86020400Y-91735900I0J700000D01*
G01*
X91902000Y-92435900D02*
G75*
G02X91202000Y-91735900I0J700000D01*
G01*
X93202000Y-91735900D02*
G75*
G02X92502000Y-92435900I-700000J0D01*
G01*
X92502000Y-88335900D02*
G75*
G02X93202000Y-89035900I0J-700000D01*
G01*
X91202000Y-89035900D02*
G75*
G02X91902000Y-88335900I700000J0D01*
G01*
X91202000Y-91785900D02*
X91202000Y-88985900D01*
X91902000Y-88335900D02*
X92502000Y-88335900D01*
X93202000Y-88985900D02*
X93202000Y-91785900D01*
X92502000Y-92435900D02*
X91902000Y-92435900D01*
X92516000Y-81467000D02*
X89856000Y-81467000D01*
X92516000Y-63567000D02*
X89856000Y-63567000D01*
X89856000Y-79377000D02*
X89856000Y-75817000D01*
X89856000Y-74297000D02*
X89856000Y-70737000D01*
X89856000Y-69217000D02*
X89856000Y-65657000D01*
X92516000Y-81467000D02*
X92516000Y-78357000D01*
X89856000Y-80897000D02*
X88336000Y-80897000D01*
X89856000Y-81467000D02*
X89856000Y-80897000D01*
X92516000Y-64137000D02*
X92516000Y-63567000D01*
X92516000Y-76837000D02*
X92516000Y-73277000D01*
X92516000Y-71757000D02*
X92516000Y-68197000D01*
X92516000Y-66677000D02*
X92516000Y-63567000D01*
D11*
X94880180Y-104981333D02*
X95594466Y-104981333D01*
X95737323Y-105028952D01*
X95832561Y-105124190D01*
X95880180Y-105267047D01*
X95880180Y-105362285D01*
X95880180Y-103981333D02*
X95880180Y-104552761D01*
X95880180Y-104267047D02*
X94880180Y-104267047D01*
X95023038Y-104362285D01*
X95118276Y-104457523D01*
X95165895Y-104552761D01*
X85202780Y-101292961D02*
X85202780Y-100721533D01*
X86202780Y-101007247D02*
X85202780Y-101007247D01*
X86202780Y-100388200D02*
X85202780Y-100388200D01*
X85202780Y-100150104D01*
X85250400Y-100007247D01*
X85345638Y-99912009D01*
X85440876Y-99864390D01*
X85631352Y-99816771D01*
X85774209Y-99816771D01*
X85964685Y-99864390D01*
X86059923Y-99912009D01*
X86155161Y-100007247D01*
X86202780Y-100150104D01*
X86202780Y-100388200D01*
X86202780Y-99388200D02*
X85202780Y-99388200D01*
X87742780Y-101292961D02*
X87742780Y-100721533D01*
X88742780Y-101007247D02*
X87742780Y-101007247D01*
X88742780Y-100388200D02*
X87742780Y-100388200D01*
X87742780Y-100150104D01*
X87790400Y-100007247D01*
X87885638Y-99912009D01*
X87980876Y-99864390D01*
X88171352Y-99816771D01*
X88314209Y-99816771D01*
X88504685Y-99864390D01*
X88599923Y-99912009D01*
X88695161Y-100007247D01*
X88742780Y-100150104D01*
X88742780Y-100388200D01*
X87742780Y-99197723D02*
X87742780Y-99007247D01*
X87790400Y-98912009D01*
X87885638Y-98816771D01*
X88076114Y-98769152D01*
X88409447Y-98769152D01*
X88599923Y-98816771D01*
X88695161Y-98912009D01*
X88742780Y-99007247D01*
X88742780Y-99197723D01*
X88695161Y-99292961D01*
X88599923Y-99388200D01*
X88409447Y-99435819D01*
X88076114Y-99435819D01*
X87885638Y-99388200D01*
X87790400Y-99292961D01*
X87742780Y-99197723D01*
X90282780Y-101292961D02*
X90282780Y-100721533D01*
X91282780Y-101007247D02*
X90282780Y-101007247D01*
X91282780Y-100388200D02*
X90282780Y-100388200D01*
X90997066Y-100054866D01*
X90282780Y-99721533D01*
X91282780Y-99721533D01*
X91235161Y-99292961D02*
X91282780Y-99150104D01*
X91282780Y-98912009D01*
X91235161Y-98816771D01*
X91187542Y-98769152D01*
X91092304Y-98721533D01*
X90997066Y-98721533D01*
X90901828Y-98769152D01*
X90854209Y-98816771D01*
X90806590Y-98912009D01*
X90758971Y-99102485D01*
X90711352Y-99197723D01*
X90663733Y-99245342D01*
X90568495Y-99292961D01*
X90473257Y-99292961D01*
X90378019Y-99245342D01*
X90330400Y-99197723D01*
X90282780Y-99102485D01*
X90282780Y-98864390D01*
X90330400Y-98721533D01*
X92822780Y-101292961D02*
X92822780Y-100721533D01*
X93822780Y-101007247D02*
X92822780Y-101007247D01*
X93727542Y-99816771D02*
X93775161Y-99864390D01*
X93822780Y-100007247D01*
X93822780Y-100102485D01*
X93775161Y-100245342D01*
X93679923Y-100340580D01*
X93584685Y-100388200D01*
X93394209Y-100435819D01*
X93251352Y-100435819D01*
X93060876Y-100388200D01*
X92965638Y-100340580D01*
X92870400Y-100245342D01*
X92822780Y-100102485D01*
X92822780Y-100007247D01*
X92870400Y-99864390D01*
X92918019Y-99816771D01*
X93822780Y-99388200D02*
X92822780Y-99388200D01*
X93822780Y-98816771D02*
X93251352Y-99245342D01*
X92822780Y-98816771D02*
X93394209Y-99388200D01*
X89266780Y-107121176D02*
X89266780Y-106502128D01*
X89647733Y-106835461D01*
X89647733Y-106692604D01*
X89695352Y-106597366D01*
X89742971Y-106549747D01*
X89838209Y-106502128D01*
X90076304Y-106502128D01*
X90171542Y-106549747D01*
X90219161Y-106597366D01*
X90266780Y-106692604D01*
X90266780Y-106978319D01*
X90219161Y-107073557D01*
X90171542Y-107121176D01*
X89600114Y-106168795D02*
X90266780Y-105930700D01*
X89600114Y-105692604D01*
X89266780Y-105406890D02*
X89266780Y-104787842D01*
X89647733Y-105121176D01*
X89647733Y-104978319D01*
X89695352Y-104883080D01*
X89742971Y-104835461D01*
X89838209Y-104787842D01*
X90076304Y-104787842D01*
X90171542Y-104835461D01*
X90219161Y-104883080D01*
X90266780Y-104978319D01*
X90266780Y-105264033D01*
X90219161Y-105359271D01*
X90171542Y-105406890D01*
X88768596Y-44925381D02*
X88768596Y-45734905D01*
X88816215Y-45830143D01*
X88863834Y-45877762D01*
X88959072Y-45925381D01*
X89149548Y-45925381D01*
X89244786Y-45877762D01*
X89292405Y-45830143D01*
X89340024Y-45734905D01*
X89340024Y-44925381D01*
X89720977Y-44925381D02*
X90340024Y-44925381D01*
X90006691Y-45306334D01*
X90149548Y-45306334D01*
X90244786Y-45353953D01*
X90292405Y-45401572D01*
X90340024Y-45496810D01*
X90340024Y-45734905D01*
X90292405Y-45830143D01*
X90244786Y-45877762D01*
X90149548Y-45925381D01*
X89863834Y-45925381D01*
X89768596Y-45877762D01*
X89720977Y-45830143D01*
X84672780Y-91695423D02*
X85387066Y-91695423D01*
X85529923Y-91743042D01*
X85625161Y-91838280D01*
X85672780Y-91981138D01*
X85672780Y-92076376D01*
X85672780Y-91219233D02*
X84672780Y-91219233D01*
X84672780Y-90838280D01*
X84720400Y-90743042D01*
X84768019Y-90695423D01*
X84863257Y-90647804D01*
X85006114Y-90647804D01*
X85101352Y-90695423D01*
X85148971Y-90743042D01*
X85196590Y-90838280D01*
X85196590Y-91219233D01*
X84768019Y-90266852D02*
X84720400Y-90219233D01*
X84672780Y-90123995D01*
X84672780Y-89885900D01*
X84720400Y-89790661D01*
X84768019Y-89743042D01*
X84863257Y-89695423D01*
X84958495Y-89695423D01*
X85101352Y-89743042D01*
X85672780Y-90314471D01*
X85672780Y-89695423D01*
X85006114Y-88838280D02*
X85672780Y-88838280D01*
X84625161Y-89076376D02*
X85339447Y-89314471D01*
X85339447Y-88695423D01*
X86472780Y-88119233D02*
X86472780Y-87500185D01*
X86853733Y-87833519D01*
X86853733Y-87690661D01*
X86901352Y-87595423D01*
X86948971Y-87547804D01*
X87044209Y-87500185D01*
X87282304Y-87500185D01*
X87377542Y-87547804D01*
X87425161Y-87595423D01*
X87472780Y-87690661D01*
X87472780Y-87976376D01*
X87425161Y-88071614D01*
X87377542Y-88119233D01*
X87472780Y-92700185D02*
X87472780Y-93271614D01*
X87472780Y-92985900D02*
X86472780Y-92985900D01*
X86615638Y-93081138D01*
X86710876Y-93176376D01*
X86758495Y-93271614D01*
X89854380Y-91695423D02*
X90568666Y-91695423D01*
X90711523Y-91743042D01*
X90806761Y-91838280D01*
X90854380Y-91981138D01*
X90854380Y-92076376D01*
X90854380Y-91219233D02*
X89854380Y-91219233D01*
X89854380Y-90838280D01*
X89902000Y-90743042D01*
X89949619Y-90695423D01*
X90044857Y-90647804D01*
X90187714Y-90647804D01*
X90282952Y-90695423D01*
X90330571Y-90743042D01*
X90378190Y-90838280D01*
X90378190Y-91219233D01*
X89854380Y-90314471D02*
X89854380Y-89695423D01*
X90235333Y-90028757D01*
X90235333Y-89885900D01*
X90282952Y-89790661D01*
X90330571Y-89743042D01*
X90425809Y-89695423D01*
X90663904Y-89695423D01*
X90759142Y-89743042D01*
X90806761Y-89790661D01*
X90854380Y-89885900D01*
X90854380Y-90171614D01*
X90806761Y-90266852D01*
X90759142Y-90314471D01*
X90187714Y-88838280D02*
X90854380Y-88838280D01*
X89806761Y-89076376D02*
X90521047Y-89314471D01*
X90521047Y-88695423D01*
X92654380Y-92700185D02*
X92654380Y-93271614D01*
X92654380Y-92985900D02*
X91654380Y-92985900D01*
X91797238Y-93081138D01*
X91892476Y-93176376D01*
X91940095Y-93271614D01*
X91654380Y-88119233D02*
X91654380Y-87500185D01*
X92035333Y-87833519D01*
X92035333Y-87690661D01*
X92082952Y-87595423D01*
X92130571Y-87547804D01*
X92225809Y-87500185D01*
X92463904Y-87500185D01*
X92559142Y-87547804D01*
X92606761Y-87595423D01*
X92654380Y-87690661D01*
X92654380Y-87976376D01*
X92606761Y-88071614D01*
X92559142Y-88119233D01*
X90852666Y-81919380D02*
X90852666Y-82633666D01*
X90805047Y-82776523D01*
X90709809Y-82871761D01*
X90566952Y-82919380D01*
X90471714Y-82919380D01*
X91281238Y-82014619D02*
X91328857Y-81967000D01*
X91424095Y-81919380D01*
X91662190Y-81919380D01*
X91757428Y-81967000D01*
X91805047Y-82014619D01*
X91852666Y-82109857D01*
X91852666Y-82205095D01*
X91805047Y-82347952D01*
X91233619Y-82919380D01*
X91852666Y-82919380D01*
M02*
