G04 #@! TF.GenerationSoftware,KiCad,Pcbnew,(5.1.5)-3*
G04 #@! TF.CreationDate,2020-09-09T09:45:17-04:00*
G04 #@! TF.ProjectId,DIP48-XC9572XL,44495034-382d-4584-9339-353732584c2e,1*
G04 #@! TF.SameCoordinates,Original*
G04 #@! TF.FileFunction,Soldermask,Top*
G04 #@! TF.FilePolarity,Negative*
%FSLAX46Y46*%
G04 Gerber Fmt 4.6, Leading zero omitted, Abs format (unit mm)*
G04 Created by KiCad (PCBNEW (5.1.5)-3) date 2020-09-09 09:45:17*
%MOMM*%
%LPD*%
G04 APERTURE LIST*
%ADD10R,1.700000X1.700000*%
%ADD11O,1.700000X1.700000*%
%ADD12R,1.600000X1.600000*%
%ADD13O,1.600000X1.600000*%
%ADD14C,0.100000*%
%ADD15R,1.500000X1.000000*%
%ADD16R,2.510000X1.000000*%
G04 APERTURE END LIST*
D10*
X85750400Y-105930700D03*
D11*
X85750400Y-103390700D03*
X88290400Y-105930700D03*
X88290400Y-103390700D03*
X90830400Y-103390700D03*
X93370400Y-103390700D03*
D12*
X81910501Y-47803001D03*
D13*
X97150501Y-106223001D03*
X81910501Y-50343001D03*
X97150501Y-103683001D03*
X81910501Y-52883001D03*
X97150501Y-101143001D03*
X81910501Y-55423001D03*
X97150501Y-98603001D03*
X81910501Y-57963001D03*
X97150501Y-96063001D03*
X81910501Y-60503001D03*
X97150501Y-93523001D03*
X81910501Y-63043001D03*
X97150501Y-90983001D03*
X81910501Y-65583001D03*
X97150501Y-88443001D03*
X81910501Y-68123001D03*
X97150501Y-85903001D03*
X81910501Y-70663001D03*
X97150501Y-83363001D03*
X81910501Y-73203001D03*
X97150501Y-80823001D03*
X81910501Y-75743001D03*
X97150501Y-78283001D03*
X81910501Y-78283001D03*
X97150501Y-75743001D03*
X81910501Y-80823001D03*
X97150501Y-73203001D03*
X81910501Y-83363001D03*
X97150501Y-70663001D03*
X81910501Y-85903001D03*
X97150501Y-68123001D03*
X81910501Y-88443001D03*
X97150501Y-65583001D03*
X81910501Y-90983001D03*
X97150501Y-63043001D03*
X81910501Y-93523001D03*
X97150501Y-60503001D03*
X81910501Y-96063001D03*
X97150501Y-57963001D03*
X81910501Y-98603001D03*
X97150501Y-55423001D03*
X81910501Y-101143001D03*
X97150501Y-52883001D03*
X81910501Y-103683001D03*
X97150501Y-50343001D03*
X81910501Y-106223001D03*
X97150501Y-47803001D03*
D14*
G36*
X87770400Y-91135900D02*
G01*
X87770400Y-91685900D01*
X87769798Y-91685900D01*
X87769798Y-91710434D01*
X87764988Y-91759265D01*
X87755416Y-91807390D01*
X87741172Y-91854345D01*
X87722395Y-91899678D01*
X87699264Y-91942951D01*
X87672004Y-91983750D01*
X87640876Y-92021679D01*
X87606179Y-92056376D01*
X87568250Y-92087504D01*
X87527451Y-92114764D01*
X87484178Y-92137895D01*
X87438845Y-92156672D01*
X87391890Y-92170916D01*
X87343765Y-92180488D01*
X87294934Y-92185298D01*
X87270400Y-92185298D01*
X87270400Y-92185900D01*
X86770400Y-92185900D01*
X86770400Y-92185298D01*
X86745866Y-92185298D01*
X86697035Y-92180488D01*
X86648910Y-92170916D01*
X86601955Y-92156672D01*
X86556622Y-92137895D01*
X86513349Y-92114764D01*
X86472550Y-92087504D01*
X86434621Y-92056376D01*
X86399924Y-92021679D01*
X86368796Y-91983750D01*
X86341536Y-91942951D01*
X86318405Y-91899678D01*
X86299628Y-91854345D01*
X86285384Y-91807390D01*
X86275812Y-91759265D01*
X86271002Y-91710434D01*
X86271002Y-91685900D01*
X86270400Y-91685900D01*
X86270400Y-91135900D01*
X87770400Y-91135900D01*
G37*
G36*
X86271002Y-89085900D02*
G01*
X86271002Y-89061366D01*
X86275812Y-89012535D01*
X86285384Y-88964410D01*
X86299628Y-88917455D01*
X86318405Y-88872122D01*
X86341536Y-88828849D01*
X86368796Y-88788050D01*
X86399924Y-88750121D01*
X86434621Y-88715424D01*
X86472550Y-88684296D01*
X86513349Y-88657036D01*
X86556622Y-88633905D01*
X86601955Y-88615128D01*
X86648910Y-88600884D01*
X86697035Y-88591312D01*
X86745866Y-88586502D01*
X86770400Y-88586502D01*
X86770400Y-88585900D01*
X87270400Y-88585900D01*
X87270400Y-88586502D01*
X87294934Y-88586502D01*
X87343765Y-88591312D01*
X87391890Y-88600884D01*
X87438845Y-88615128D01*
X87484178Y-88633905D01*
X87527451Y-88657036D01*
X87568250Y-88684296D01*
X87606179Y-88715424D01*
X87640876Y-88750121D01*
X87672004Y-88788050D01*
X87699264Y-88828849D01*
X87722395Y-88872122D01*
X87741172Y-88917455D01*
X87755416Y-88964410D01*
X87764988Y-89012535D01*
X87769798Y-89061366D01*
X87769798Y-89085900D01*
X87770400Y-89085900D01*
X87770400Y-89635900D01*
X86270400Y-89635900D01*
X86270400Y-89085900D01*
X86271002Y-89085900D01*
G37*
D15*
X87020400Y-90385900D03*
X92202000Y-90385900D03*
D14*
G36*
X91452602Y-89085900D02*
G01*
X91452602Y-89061366D01*
X91457412Y-89012535D01*
X91466984Y-88964410D01*
X91481228Y-88917455D01*
X91500005Y-88872122D01*
X91523136Y-88828849D01*
X91550396Y-88788050D01*
X91581524Y-88750121D01*
X91616221Y-88715424D01*
X91654150Y-88684296D01*
X91694949Y-88657036D01*
X91738222Y-88633905D01*
X91783555Y-88615128D01*
X91830510Y-88600884D01*
X91878635Y-88591312D01*
X91927466Y-88586502D01*
X91952000Y-88586502D01*
X91952000Y-88585900D01*
X92452000Y-88585900D01*
X92452000Y-88586502D01*
X92476534Y-88586502D01*
X92525365Y-88591312D01*
X92573490Y-88600884D01*
X92620445Y-88615128D01*
X92665778Y-88633905D01*
X92709051Y-88657036D01*
X92749850Y-88684296D01*
X92787779Y-88715424D01*
X92822476Y-88750121D01*
X92853604Y-88788050D01*
X92880864Y-88828849D01*
X92903995Y-88872122D01*
X92922772Y-88917455D01*
X92937016Y-88964410D01*
X92946588Y-89012535D01*
X92951398Y-89061366D01*
X92951398Y-89085900D01*
X92952000Y-89085900D01*
X92952000Y-89635900D01*
X91452000Y-89635900D01*
X91452000Y-89085900D01*
X91452602Y-89085900D01*
G37*
G36*
X92952000Y-91135900D02*
G01*
X92952000Y-91685900D01*
X92951398Y-91685900D01*
X92951398Y-91710434D01*
X92946588Y-91759265D01*
X92937016Y-91807390D01*
X92922772Y-91854345D01*
X92903995Y-91899678D01*
X92880864Y-91942951D01*
X92853604Y-91983750D01*
X92822476Y-92021679D01*
X92787779Y-92056376D01*
X92749850Y-92087504D01*
X92709051Y-92114764D01*
X92665778Y-92137895D01*
X92620445Y-92156672D01*
X92573490Y-92170916D01*
X92525365Y-92180488D01*
X92476534Y-92185298D01*
X92452000Y-92185298D01*
X92452000Y-92185900D01*
X91952000Y-92185900D01*
X91952000Y-92185298D01*
X91927466Y-92185298D01*
X91878635Y-92180488D01*
X91830510Y-92170916D01*
X91783555Y-92156672D01*
X91738222Y-92137895D01*
X91694949Y-92114764D01*
X91654150Y-92087504D01*
X91616221Y-92056376D01*
X91581524Y-92021679D01*
X91550396Y-91983750D01*
X91523136Y-91942951D01*
X91500005Y-91899678D01*
X91481228Y-91854345D01*
X91466984Y-91807390D01*
X91457412Y-91759265D01*
X91452602Y-91710434D01*
X91452602Y-91685900D01*
X91452000Y-91685900D01*
X91452000Y-91135900D01*
X92952000Y-91135900D01*
G37*
D16*
X92841000Y-77597000D03*
X92841000Y-72517000D03*
X92841000Y-67437000D03*
X89531000Y-80137000D03*
X89531000Y-75057000D03*
X89531000Y-69977000D03*
X89531000Y-64897000D03*
M02*
