M48
; DRILL file {KiCad (5.1.5)-3} date 9/9/2020 9:45:19 AM
; FORMAT={-:-/ absolute / inch / decimal}
; #@! TF.CreationDate,2020-09-09T09:45:19-04:00
; #@! TF.GenerationSoftware,Kicad,Pcbnew,(5.1.5)-3
; #@! TF.FileFunction,Plated,1,2,PTH
FMAT,2
INCH
T1C0.0118
T2C0.0157
T3C0.0315
T4C0.0394
%
G90
G05
T1
X3.3625Y-3.1125
X3.3725Y-3.1375
X3.39Y-3.1725
X3.3925Y-3.3325
X3.3954Y-3.1975
X3.4025Y-3.8475
X3.4225Y-3.21
X3.4575Y-3.79
X3.46Y-3.925
X3.4825Y-3.7625
X3.485Y-3.5075
X3.495Y-3.925
X3.6419Y-2.8656
X3.6625Y-2.9725
X3.6775Y-2.785
X3.6879Y-3.0021
X3.6894Y-2.7206
X3.69Y-3.1125
X3.6948Y-3.1725
X3.7047Y-2.5553
X3.72Y-3.2
X3.775Y-3.215
X3.7975Y-3.0325
T2
X3.2525Y-3.0325
X3.2725Y-4.1225
X3.285Y-2.5925
X3.295Y-2.4975
X3.2975Y-2.405
X3.31Y-2.3125
X3.3225Y-3.97
X3.36Y-2.9452
X3.3625Y-3.4575
X3.4Y-3.1
X3.4075Y-2.2075
X3.4075Y-2.5175
X3.426Y-3.774
X3.4352Y-2.87
X3.4394Y-2.9638
X3.4496Y-2.6554
X3.495Y-3.2075
X3.505Y-2.89
X3.525Y-3.4675
X3.526Y-3.654
X3.5383Y-3.1492
X3.545Y-2.2
X3.5644Y-3.4675
X3.565Y-3.02
X3.5653Y-3.6097
X3.5933Y-3.2042
X3.66Y-3.8775
X3.685Y-2.5975
X3.695Y-3.14
X3.6992Y-2.9233
X3.72Y-3.29
X3.73Y-2.33
X3.7425Y-2.415
X3.755Y-2.4975
T3
X3.2248Y-1.882
X3.2248Y-1.982
X3.2248Y-2.082
X3.2248Y-2.182
X3.2248Y-2.282
X3.2248Y-2.382
X3.2248Y-2.482
X3.2248Y-2.582
X3.2248Y-2.682
X3.2248Y-2.782
X3.2248Y-2.882
X3.2248Y-2.982
X3.2248Y-3.082
X3.2248Y-3.182
X3.2248Y-3.282
X3.2248Y-3.382
X3.2248Y-3.482
X3.2248Y-3.582
X3.2248Y-3.682
X3.2248Y-3.782
X3.2248Y-3.882
X3.2248Y-3.982
X3.2248Y-4.082
X3.2248Y-4.182
X3.8248Y-1.882
X3.8248Y-1.982
X3.8248Y-2.082
X3.8248Y-2.182
X3.8248Y-2.282
X3.8248Y-2.382
X3.8248Y-2.482
X3.8248Y-2.582
X3.8248Y-2.682
X3.8248Y-2.782
X3.8248Y-2.882
X3.8248Y-2.982
X3.8248Y-3.082
X3.8248Y-3.182
X3.8248Y-3.282
X3.8248Y-3.382
X3.8248Y-3.482
X3.8248Y-3.582
X3.8248Y-3.682
X3.8248Y-3.782
X3.8248Y-3.882
X3.8248Y-3.982
X3.8248Y-4.082
X3.8248Y-4.182
T4
X3.376Y-4.0705
X3.376Y-4.1705
X3.476Y-4.0705
X3.476Y-4.1705
X3.576Y-4.0705
X3.676Y-4.0705
T0
M30
