G04 #@! TF.GenerationSoftware,KiCad,Pcbnew,(5.1.5)-3*
G04 #@! TF.CreationDate,2021-01-01T17:19:35-05:00*
G04 #@! TF.ProjectId,DIP48-XC9572XL,44495034-382d-4584-9339-353732584c2e,1*
G04 #@! TF.SameCoordinates,Original*
G04 #@! TF.FileFunction,Soldermask,Top*
G04 #@! TF.FilePolarity,Negative*
%FSLAX46Y46*%
G04 Gerber Fmt 4.6, Leading zero omitted, Abs format (unit mm)*
G04 Created by KiCad (PCBNEW (5.1.5)-3) date 2021-01-01 17:19:35*
%MOMM*%
%LPD*%
G04 APERTURE LIST*
%ADD10R,1.700000X1.700000*%
%ADD11O,1.700000X1.700000*%
%ADD12R,1.600000X1.600000*%
%ADD13O,1.600000X1.600000*%
%ADD14R,2.510000X1.000000*%
G04 APERTURE END LIST*
D10*
X85750400Y-105943400D03*
D11*
X85750400Y-103403400D03*
X88290400Y-105943400D03*
X88290400Y-103403400D03*
X90830400Y-103403400D03*
X93370400Y-103403400D03*
D12*
X81915000Y-47815500D03*
D13*
X97155000Y-106235500D03*
X81915000Y-50355500D03*
X97155000Y-103695500D03*
X81915000Y-52895500D03*
X97155000Y-101155500D03*
X81915000Y-55435500D03*
X97155000Y-98615500D03*
X81915000Y-57975500D03*
X97155000Y-96075500D03*
X81915000Y-60515500D03*
X97155000Y-93535500D03*
X81915000Y-63055500D03*
X97155000Y-90995500D03*
X81915000Y-65595500D03*
X97155000Y-88455500D03*
X81915000Y-68135500D03*
X97155000Y-85915500D03*
X81915000Y-70675500D03*
X97155000Y-83375500D03*
X81915000Y-73215500D03*
X97155000Y-80835500D03*
X81915000Y-75755500D03*
X97155000Y-78295500D03*
X81915000Y-78295500D03*
X97155000Y-75755500D03*
X81915000Y-80835500D03*
X97155000Y-73215500D03*
X81915000Y-83375500D03*
X97155000Y-70675500D03*
X81915000Y-85915500D03*
X97155000Y-68135500D03*
X81915000Y-88455500D03*
X97155000Y-65595500D03*
X81915000Y-90995500D03*
X97155000Y-63055500D03*
X81915000Y-93535500D03*
X97155000Y-60515500D03*
X81915000Y-96075500D03*
X97155000Y-57975500D03*
X81915000Y-98615500D03*
X97155000Y-55435500D03*
X81915000Y-101155500D03*
X97155000Y-52895500D03*
X81915000Y-103695500D03*
X97155000Y-50355500D03*
X81915000Y-106235500D03*
X97155000Y-47815500D03*
D14*
X91190000Y-82105500D03*
X91190000Y-77025500D03*
X91190000Y-71945500D03*
X87880000Y-84645500D03*
X87880000Y-79565500D03*
X87880000Y-74485500D03*
X87880000Y-69405500D03*
M02*
