G04 #@! TF.GenerationSoftware,KiCad,Pcbnew,(5.1.5)-3*
G04 #@! TF.CreationDate,2021-01-01T17:19:35-05:00*
G04 #@! TF.ProjectId,DIP48-XC9572XL,44495034-382d-4584-9339-353732584c2e,1*
G04 #@! TF.SameCoordinates,Original*
G04 #@! TF.FileFunction,Legend,Top*
G04 #@! TF.FilePolarity,Positive*
%FSLAX46Y46*%
G04 Gerber Fmt 4.6, Leading zero omitted, Abs format (unit mm)*
G04 Created by KiCad (PCBNEW (5.1.5)-3) date 2021-01-01 17:19:35*
%MOMM*%
%LPD*%
G04 APERTURE LIST*
%ADD10C,0.150000*%
%ADD11C,0.250000*%
%ADD12C,0.100000*%
%ADD13C,0.120000*%
G04 APERTURE END LIST*
D10*
X85963571Y-113448880D02*
X85392142Y-113448880D01*
X85677857Y-113448880D02*
X85677857Y-112448880D01*
X85582619Y-112591738D01*
X85487380Y-112686976D01*
X85392142Y-112734595D01*
X86296904Y-112448880D02*
X86963571Y-112448880D01*
X86535000Y-113448880D01*
X87344523Y-113353642D02*
X87392142Y-113401261D01*
X87344523Y-113448880D01*
X87296904Y-113401261D01*
X87344523Y-113353642D01*
X87344523Y-113448880D01*
X87773095Y-112544119D02*
X87820714Y-112496500D01*
X87915952Y-112448880D01*
X88154047Y-112448880D01*
X88249285Y-112496500D01*
X88296904Y-112544119D01*
X88344523Y-112639357D01*
X88344523Y-112734595D01*
X88296904Y-112877452D01*
X87725476Y-113448880D01*
X88344523Y-113448880D01*
X88677857Y-112448880D02*
X89344523Y-112448880D01*
X88915952Y-113448880D01*
X89677857Y-112544119D02*
X89725476Y-112496500D01*
X89820714Y-112448880D01*
X90058809Y-112448880D01*
X90154047Y-112496500D01*
X90201666Y-112544119D01*
X90249285Y-112639357D01*
X90249285Y-112734595D01*
X90201666Y-112877452D01*
X89630238Y-113448880D01*
X90249285Y-113448880D01*
X91439761Y-113448880D02*
X91439761Y-112782214D01*
X91439761Y-112877452D02*
X91487380Y-112829833D01*
X91582619Y-112782214D01*
X91725476Y-112782214D01*
X91820714Y-112829833D01*
X91868333Y-112925071D01*
X91868333Y-113448880D01*
X91868333Y-112925071D02*
X91915952Y-112829833D01*
X92011190Y-112782214D01*
X92154047Y-112782214D01*
X92249285Y-112829833D01*
X92296904Y-112925071D01*
X92296904Y-113448880D01*
X92773095Y-113448880D02*
X92773095Y-112782214D01*
X92773095Y-112877452D02*
X92820714Y-112829833D01*
X92915952Y-112782214D01*
X93058809Y-112782214D01*
X93154047Y-112829833D01*
X93201666Y-112925071D01*
X93201666Y-113448880D01*
X93201666Y-112925071D02*
X93249285Y-112829833D01*
X93344523Y-112782214D01*
X93487380Y-112782214D01*
X93582619Y-112829833D01*
X93630238Y-112925071D01*
X93630238Y-113448880D01*
X80899000Y-111696500D02*
X98171000Y-111696500D01*
X80899000Y-107569000D02*
X80899000Y-112282921D01*
X98171000Y-107569000D02*
X98171000Y-112282921D01*
X98171000Y-111696500D02*
X97044496Y-112282921D01*
X98171000Y-111696500D02*
X97044496Y-111110079D01*
X80899000Y-111696500D02*
X82025504Y-112282921D01*
X80899000Y-111696500D02*
X82025504Y-111110079D01*
X103495380Y-80660416D02*
X103495380Y-80850892D01*
X103543000Y-80946130D01*
X103590619Y-80993750D01*
X103733476Y-81088988D01*
X103923952Y-81136607D01*
X104304904Y-81136607D01*
X104400142Y-81088988D01*
X104447761Y-81041369D01*
X104495380Y-80946130D01*
X104495380Y-80755654D01*
X104447761Y-80660416D01*
X104400142Y-80612797D01*
X104304904Y-80565178D01*
X104066809Y-80565178D01*
X103971571Y-80612797D01*
X103923952Y-80660416D01*
X103876333Y-80755654D01*
X103876333Y-80946130D01*
X103923952Y-81041369D01*
X103971571Y-81088988D01*
X104066809Y-81136607D01*
X104495380Y-79612797D02*
X104495380Y-80184226D01*
X104495380Y-79898511D02*
X103495380Y-79898511D01*
X103638238Y-79993750D01*
X103733476Y-80088988D01*
X103781095Y-80184226D01*
X104400142Y-79184226D02*
X104447761Y-79136607D01*
X104495380Y-79184226D01*
X104447761Y-79231845D01*
X104400142Y-79184226D01*
X104495380Y-79184226D01*
X104495380Y-78184226D02*
X104495380Y-78755654D01*
X104495380Y-78469940D02*
X103495380Y-78469940D01*
X103638238Y-78565178D01*
X103733476Y-78660416D01*
X103781095Y-78755654D01*
X103495380Y-77279464D02*
X103495380Y-77755654D01*
X103971571Y-77803273D01*
X103923952Y-77755654D01*
X103876333Y-77660416D01*
X103876333Y-77422321D01*
X103923952Y-77327083D01*
X103971571Y-77279464D01*
X104066809Y-77231845D01*
X104304904Y-77231845D01*
X104400142Y-77279464D01*
X104447761Y-77327083D01*
X104495380Y-77422321D01*
X104495380Y-77660416D01*
X104447761Y-77755654D01*
X104400142Y-77803273D01*
X104495380Y-76279464D02*
X104495380Y-76850892D01*
X104495380Y-76565178D02*
X103495380Y-76565178D01*
X103638238Y-76660416D01*
X103733476Y-76755654D01*
X103781095Y-76850892D01*
X104495380Y-75088988D02*
X103828714Y-75088988D01*
X103923952Y-75088988D02*
X103876333Y-75041369D01*
X103828714Y-74946130D01*
X103828714Y-74803273D01*
X103876333Y-74708035D01*
X103971571Y-74660416D01*
X104495380Y-74660416D01*
X103971571Y-74660416D02*
X103876333Y-74612797D01*
X103828714Y-74517559D01*
X103828714Y-74374702D01*
X103876333Y-74279464D01*
X103971571Y-74231845D01*
X104495380Y-74231845D01*
X104495380Y-73755654D02*
X103828714Y-73755654D01*
X103923952Y-73755654D02*
X103876333Y-73708035D01*
X103828714Y-73612797D01*
X103828714Y-73469940D01*
X103876333Y-73374702D01*
X103971571Y-73327083D01*
X104495380Y-73327083D01*
X103971571Y-73327083D02*
X103876333Y-73279464D01*
X103828714Y-73184226D01*
X103828714Y-73041369D01*
X103876333Y-72946130D01*
X103971571Y-72898511D01*
X104495380Y-72898511D01*
X102743000Y-107569000D02*
X102743000Y-46418500D01*
X98171000Y-107569000D02*
X103329421Y-107569000D01*
X98171000Y-46418500D02*
X103329421Y-46418500D01*
X102743000Y-46418500D02*
X103329421Y-47545004D01*
X102743000Y-46418500D02*
X102156579Y-47545004D01*
X102743000Y-107569000D02*
X103329421Y-106442496D01*
X102743000Y-107569000D02*
X102156579Y-106442496D01*
D11*
X85677857Y-90019571D02*
X85677857Y-88519571D01*
X86035000Y-88519571D01*
X86249285Y-88591000D01*
X86392142Y-88733857D01*
X86463571Y-88876714D01*
X86535000Y-89162428D01*
X86535000Y-89376714D01*
X86463571Y-89662428D01*
X86392142Y-89805285D01*
X86249285Y-89948142D01*
X86035000Y-90019571D01*
X85677857Y-90019571D01*
X87177857Y-90019571D02*
X87177857Y-88519571D01*
X87892142Y-90019571D02*
X87892142Y-88519571D01*
X88463571Y-88519571D01*
X88606428Y-88591000D01*
X88677857Y-88662428D01*
X88749285Y-88805285D01*
X88749285Y-89019571D01*
X88677857Y-89162428D01*
X88606428Y-89233857D01*
X88463571Y-89305285D01*
X87892142Y-89305285D01*
X89392142Y-89448142D02*
X90535000Y-89448142D01*
X91892142Y-89019571D02*
X91892142Y-90019571D01*
X91535000Y-88448142D02*
X91177857Y-89519571D01*
X92106428Y-89519571D01*
X92892142Y-89162428D02*
X92749285Y-89091000D01*
X92677857Y-89019571D01*
X92606428Y-88876714D01*
X92606428Y-88805285D01*
X92677857Y-88662428D01*
X92749285Y-88591000D01*
X92892142Y-88519571D01*
X93177857Y-88519571D01*
X93320714Y-88591000D01*
X93392142Y-88662428D01*
X93463571Y-88805285D01*
X93463571Y-88876714D01*
X93392142Y-89019571D01*
X93320714Y-89091000D01*
X93177857Y-89162428D01*
X92892142Y-89162428D01*
X92749285Y-89233857D01*
X92677857Y-89305285D01*
X92606428Y-89448142D01*
X92606428Y-89733857D01*
X92677857Y-89876714D01*
X92749285Y-89948142D01*
X92892142Y-90019571D01*
X93177857Y-90019571D01*
X93320714Y-89948142D01*
X93392142Y-89876714D01*
X93463571Y-89733857D01*
X93463571Y-89448142D01*
X93392142Y-89305285D01*
X93320714Y-89233857D01*
X93177857Y-89162428D01*
X84106428Y-91019571D02*
X85106428Y-92519571D01*
X85106428Y-91019571D02*
X84106428Y-92519571D01*
X86535000Y-92376714D02*
X86463571Y-92448142D01*
X86249285Y-92519571D01*
X86106428Y-92519571D01*
X85892142Y-92448142D01*
X85749285Y-92305285D01*
X85677857Y-92162428D01*
X85606428Y-91876714D01*
X85606428Y-91662428D01*
X85677857Y-91376714D01*
X85749285Y-91233857D01*
X85892142Y-91091000D01*
X86106428Y-91019571D01*
X86249285Y-91019571D01*
X86463571Y-91091000D01*
X86535000Y-91162428D01*
X87249285Y-92519571D02*
X87535000Y-92519571D01*
X87677857Y-92448142D01*
X87749285Y-92376714D01*
X87892142Y-92162428D01*
X87963571Y-91876714D01*
X87963571Y-91305285D01*
X87892142Y-91162428D01*
X87820714Y-91091000D01*
X87677857Y-91019571D01*
X87392142Y-91019571D01*
X87249285Y-91091000D01*
X87177857Y-91162428D01*
X87106428Y-91305285D01*
X87106428Y-91662428D01*
X87177857Y-91805285D01*
X87249285Y-91876714D01*
X87392142Y-91948142D01*
X87677857Y-91948142D01*
X87820714Y-91876714D01*
X87892142Y-91805285D01*
X87963571Y-91662428D01*
X89320714Y-91019571D02*
X88606428Y-91019571D01*
X88535000Y-91733857D01*
X88606428Y-91662428D01*
X88749285Y-91591000D01*
X89106428Y-91591000D01*
X89249285Y-91662428D01*
X89320714Y-91733857D01*
X89392142Y-91876714D01*
X89392142Y-92233857D01*
X89320714Y-92376714D01*
X89249285Y-92448142D01*
X89106428Y-92519571D01*
X88749285Y-92519571D01*
X88606428Y-92448142D01*
X88535000Y-92376714D01*
X89892142Y-91019571D02*
X90892142Y-91019571D01*
X90249285Y-92519571D01*
X91392142Y-91162428D02*
X91463571Y-91091000D01*
X91606428Y-91019571D01*
X91963571Y-91019571D01*
X92106428Y-91091000D01*
X92177857Y-91162428D01*
X92249285Y-91305285D01*
X92249285Y-91448142D01*
X92177857Y-91662428D01*
X91320714Y-92519571D01*
X92249285Y-92519571D01*
X92749285Y-91019571D02*
X93749285Y-92519571D01*
X93749285Y-91019571D02*
X92749285Y-92519571D01*
X95035000Y-92519571D02*
X94320714Y-92519571D01*
X94320714Y-91019571D01*
X88642142Y-95019571D02*
X88642142Y-93519571D01*
X88642142Y-94091000D02*
X88785000Y-94019571D01*
X89070714Y-94019571D01*
X89213571Y-94091000D01*
X89285000Y-94162428D01*
X89356428Y-94305285D01*
X89356428Y-94733857D01*
X89285000Y-94876714D01*
X89213571Y-94948142D01*
X89070714Y-95019571D01*
X88785000Y-95019571D01*
X88642142Y-94948142D01*
X89856428Y-94019571D02*
X90213571Y-95019571D01*
X90570714Y-94019571D02*
X90213571Y-95019571D01*
X90070714Y-95376714D01*
X89999285Y-95448142D01*
X89856428Y-95519571D01*
X84392142Y-96019571D02*
X84392142Y-97091000D01*
X84320714Y-97305285D01*
X84177857Y-97448142D01*
X83963571Y-97519571D01*
X83820714Y-97519571D01*
X85749285Y-97519571D02*
X85749285Y-96733857D01*
X85677857Y-96591000D01*
X85535000Y-96519571D01*
X85249285Y-96519571D01*
X85106428Y-96591000D01*
X85749285Y-97448142D02*
X85606428Y-97519571D01*
X85249285Y-97519571D01*
X85106428Y-97448142D01*
X85035000Y-97305285D01*
X85035000Y-97162428D01*
X85106428Y-97019571D01*
X85249285Y-96948142D01*
X85606428Y-96948142D01*
X85749285Y-96876714D01*
X86320714Y-96519571D02*
X86677857Y-97519571D01*
X87035000Y-96519571D02*
X86677857Y-97519571D01*
X86535000Y-97876714D01*
X86463571Y-97948142D01*
X86320714Y-98019571D01*
X87535000Y-97448142D02*
X87677857Y-97519571D01*
X87963571Y-97519571D01*
X88106428Y-97448142D01*
X88177857Y-97305285D01*
X88177857Y-97233857D01*
X88106428Y-97091000D01*
X87963571Y-97019571D01*
X87749285Y-97019571D01*
X87606428Y-96948142D01*
X87535000Y-96805285D01*
X87535000Y-96733857D01*
X87606428Y-96591000D01*
X87749285Y-96519571D01*
X87963571Y-96519571D01*
X88106428Y-96591000D01*
X88606428Y-96519571D02*
X89177857Y-96519571D01*
X88820714Y-96019571D02*
X88820714Y-97305285D01*
X88892142Y-97448142D01*
X89035000Y-97519571D01*
X89177857Y-97519571D01*
X89892142Y-97519571D02*
X89749285Y-97448142D01*
X89677857Y-97376714D01*
X89606428Y-97233857D01*
X89606428Y-96805285D01*
X89677857Y-96662428D01*
X89749285Y-96591000D01*
X89892142Y-96519571D01*
X90106428Y-96519571D01*
X90249285Y-96591000D01*
X90320714Y-96662428D01*
X90392142Y-96805285D01*
X90392142Y-97233857D01*
X90320714Y-97376714D01*
X90249285Y-97448142D01*
X90106428Y-97519571D01*
X89892142Y-97519571D01*
X91035000Y-96519571D02*
X91035000Y-97519571D01*
X91035000Y-96662428D02*
X91106428Y-96591000D01*
X91249285Y-96519571D01*
X91463571Y-96519571D01*
X91606428Y-96591000D01*
X91677857Y-96733857D01*
X91677857Y-97519571D01*
X92392142Y-97519571D02*
X92392142Y-96519571D01*
X92392142Y-96019571D02*
X92320714Y-96091000D01*
X92392142Y-96162428D01*
X92463571Y-96091000D01*
X92392142Y-96019571D01*
X92392142Y-96162428D01*
X93749285Y-97519571D02*
X93749285Y-96733857D01*
X93677857Y-96591000D01*
X93535000Y-96519571D01*
X93249285Y-96519571D01*
X93106428Y-96591000D01*
X93749285Y-97448142D02*
X93606428Y-97519571D01*
X93249285Y-97519571D01*
X93106428Y-97448142D01*
X93035000Y-97305285D01*
X93035000Y-97162428D01*
X93106428Y-97019571D01*
X93249285Y-96948142D01*
X93606428Y-96948142D01*
X93749285Y-96876714D01*
X94463571Y-96519571D02*
X94463571Y-97519571D01*
X94463571Y-96662428D02*
X94535000Y-96591000D01*
X94677857Y-96519571D01*
X94892142Y-96519571D01*
X95035000Y-96591000D01*
X95106428Y-96733857D01*
X95106428Y-97519571D01*
D12*
G36*
X95250000Y-66040000D02*
G01*
X83820000Y-66040000D01*
X83820000Y-48260000D01*
X95250000Y-48260000D01*
X95250000Y-66040000D01*
G37*
X95250000Y-66040000D02*
X83820000Y-66040000D01*
X83820000Y-48260000D01*
X95250000Y-48260000D01*
X95250000Y-66040000D01*
D13*
X94700400Y-107273400D02*
X94700400Y-102073400D01*
X87020400Y-107273400D02*
X94700400Y-107273400D01*
X84420400Y-102073400D02*
X94700400Y-102073400D01*
X87020400Y-107273400D02*
X87020400Y-104673400D01*
X87020400Y-104673400D02*
X84420400Y-104673400D01*
X84420400Y-104673400D02*
X84420400Y-102073400D01*
X85750400Y-107273400D02*
X84420400Y-107273400D01*
X84420400Y-107273400D02*
X84420400Y-105943400D01*
X90535000Y-46485500D02*
G75*
G02X88535000Y-46485500I-1000000J0D01*
G01*
X88535000Y-46485500D02*
X83075000Y-46485500D01*
X83075000Y-46485500D02*
X83075000Y-107565500D01*
X83075000Y-107565500D02*
X95995000Y-107565500D01*
X95995000Y-107565500D02*
X95995000Y-46485500D01*
X95995000Y-46485500D02*
X90535000Y-46485500D01*
X90865000Y-85975500D02*
X88205000Y-85975500D01*
X90865000Y-68075500D02*
X88205000Y-68075500D01*
X88205000Y-83885500D02*
X88205000Y-80325500D01*
X88205000Y-78805500D02*
X88205000Y-75245500D01*
X88205000Y-73725500D02*
X88205000Y-70165500D01*
X90865000Y-85975500D02*
X90865000Y-82865500D01*
X88205000Y-85405500D02*
X86685000Y-85405500D01*
X88205000Y-85975500D02*
X88205000Y-85405500D01*
X90865000Y-68645500D02*
X90865000Y-68075500D01*
X90865000Y-81345500D02*
X90865000Y-77785500D01*
X90865000Y-76265500D02*
X90865000Y-72705500D01*
X90865000Y-71185500D02*
X90865000Y-68075500D01*
D10*
X94880180Y-104994033D02*
X95594466Y-104994033D01*
X95737323Y-105041652D01*
X95832561Y-105136890D01*
X95880180Y-105279747D01*
X95880180Y-105374985D01*
X95880180Y-103994033D02*
X95880180Y-104565461D01*
X95880180Y-104279747D02*
X94880180Y-104279747D01*
X95023038Y-104374985D01*
X95118276Y-104470223D01*
X95165895Y-104565461D01*
X85202780Y-101305661D02*
X85202780Y-100734233D01*
X86202780Y-101019947D02*
X85202780Y-101019947D01*
X86202780Y-100400900D02*
X85202780Y-100400900D01*
X85202780Y-100162804D01*
X85250400Y-100019947D01*
X85345638Y-99924709D01*
X85440876Y-99877090D01*
X85631352Y-99829471D01*
X85774209Y-99829471D01*
X85964685Y-99877090D01*
X86059923Y-99924709D01*
X86155161Y-100019947D01*
X86202780Y-100162804D01*
X86202780Y-100400900D01*
X86202780Y-99400900D02*
X85202780Y-99400900D01*
X87742780Y-101305661D02*
X87742780Y-100734233D01*
X88742780Y-101019947D02*
X87742780Y-101019947D01*
X88742780Y-100400900D02*
X87742780Y-100400900D01*
X87742780Y-100162804D01*
X87790400Y-100019947D01*
X87885638Y-99924709D01*
X87980876Y-99877090D01*
X88171352Y-99829471D01*
X88314209Y-99829471D01*
X88504685Y-99877090D01*
X88599923Y-99924709D01*
X88695161Y-100019947D01*
X88742780Y-100162804D01*
X88742780Y-100400900D01*
X87742780Y-99210423D02*
X87742780Y-99019947D01*
X87790400Y-98924709D01*
X87885638Y-98829471D01*
X88076114Y-98781852D01*
X88409447Y-98781852D01*
X88599923Y-98829471D01*
X88695161Y-98924709D01*
X88742780Y-99019947D01*
X88742780Y-99210423D01*
X88695161Y-99305661D01*
X88599923Y-99400900D01*
X88409447Y-99448519D01*
X88076114Y-99448519D01*
X87885638Y-99400900D01*
X87790400Y-99305661D01*
X87742780Y-99210423D01*
X90282780Y-101305661D02*
X90282780Y-100734233D01*
X91282780Y-101019947D02*
X90282780Y-101019947D01*
X91282780Y-100400900D02*
X90282780Y-100400900D01*
X90997066Y-100067566D01*
X90282780Y-99734233D01*
X91282780Y-99734233D01*
X91235161Y-99305661D02*
X91282780Y-99162804D01*
X91282780Y-98924709D01*
X91235161Y-98829471D01*
X91187542Y-98781852D01*
X91092304Y-98734233D01*
X90997066Y-98734233D01*
X90901828Y-98781852D01*
X90854209Y-98829471D01*
X90806590Y-98924709D01*
X90758971Y-99115185D01*
X90711352Y-99210423D01*
X90663733Y-99258042D01*
X90568495Y-99305661D01*
X90473257Y-99305661D01*
X90378019Y-99258042D01*
X90330400Y-99210423D01*
X90282780Y-99115185D01*
X90282780Y-98877090D01*
X90330400Y-98734233D01*
X92822780Y-101305661D02*
X92822780Y-100734233D01*
X93822780Y-101019947D02*
X92822780Y-101019947D01*
X93727542Y-99829471D02*
X93775161Y-99877090D01*
X93822780Y-100019947D01*
X93822780Y-100115185D01*
X93775161Y-100258042D01*
X93679923Y-100353280D01*
X93584685Y-100400900D01*
X93394209Y-100448519D01*
X93251352Y-100448519D01*
X93060876Y-100400900D01*
X92965638Y-100353280D01*
X92870400Y-100258042D01*
X92822780Y-100115185D01*
X92822780Y-100019947D01*
X92870400Y-99877090D01*
X92918019Y-99829471D01*
X93822780Y-99400900D02*
X92822780Y-99400900D01*
X93822780Y-98829471D02*
X93251352Y-99258042D01*
X92822780Y-98829471D02*
X93394209Y-99400900D01*
X89266780Y-107133876D02*
X89266780Y-106514828D01*
X89647733Y-106848161D01*
X89647733Y-106705304D01*
X89695352Y-106610066D01*
X89742971Y-106562447D01*
X89838209Y-106514828D01*
X90076304Y-106514828D01*
X90171542Y-106562447D01*
X90219161Y-106610066D01*
X90266780Y-106705304D01*
X90266780Y-106991019D01*
X90219161Y-107086257D01*
X90171542Y-107133876D01*
X89600114Y-106181495D02*
X90266780Y-105943400D01*
X89600114Y-105705304D01*
X89266780Y-105419590D02*
X89266780Y-104800542D01*
X89647733Y-105133876D01*
X89647733Y-104991019D01*
X89695352Y-104895780D01*
X89742971Y-104848161D01*
X89838209Y-104800542D01*
X90076304Y-104800542D01*
X90171542Y-104848161D01*
X90219161Y-104895780D01*
X90266780Y-104991019D01*
X90266780Y-105276733D01*
X90219161Y-105371971D01*
X90171542Y-105419590D01*
X88773095Y-44937880D02*
X88773095Y-45747404D01*
X88820714Y-45842642D01*
X88868333Y-45890261D01*
X88963571Y-45937880D01*
X89154047Y-45937880D01*
X89249285Y-45890261D01*
X89296904Y-45842642D01*
X89344523Y-45747404D01*
X89344523Y-44937880D01*
X89725476Y-44937880D02*
X90344523Y-44937880D01*
X90011190Y-45318833D01*
X90154047Y-45318833D01*
X90249285Y-45366452D01*
X90296904Y-45414071D01*
X90344523Y-45509309D01*
X90344523Y-45747404D01*
X90296904Y-45842642D01*
X90249285Y-45890261D01*
X90154047Y-45937880D01*
X89868333Y-45937880D01*
X89773095Y-45890261D01*
X89725476Y-45842642D01*
X89201666Y-86427880D02*
X89201666Y-87142166D01*
X89154047Y-87285023D01*
X89058809Y-87380261D01*
X88915952Y-87427880D01*
X88820714Y-87427880D01*
X89630238Y-86523119D02*
X89677857Y-86475500D01*
X89773095Y-86427880D01*
X90011190Y-86427880D01*
X90106428Y-86475500D01*
X90154047Y-86523119D01*
X90201666Y-86618357D01*
X90201666Y-86713595D01*
X90154047Y-86856452D01*
X89582619Y-87427880D01*
X90201666Y-87427880D01*
M02*
