%FSLAX45Y45*%
G04 Gerber Fmt 4.5, Leading zero omitted, Abs format (unit mm)*
G04 Created by KiCad (PCBNEW (5.1.5)-3) date 2021-01-01 17:19:38*
%MOMM*%
%LPD*%
G04 APERTURE LIST*
%TA.AperFunction,Profile*%
%ADD10C,0.100000*%
%TD*%
%ADD11C,0.200000*%
%ADD12C,0.300000*%
G04 APERTURE END LIST*
D10*
X8089900Y-10756900D02*
X8089900Y-4641850D01*
X9817100Y-10756900D02*
X8089900Y-10756900D01*
X9817100Y-4641850D02*
X9817100Y-10756900D01*
X8089900Y-4641850D02*
X9817100Y-4641850D01*
D11*
X8297150Y-6633450D02*
X8327150Y-6663450D01*
X8327150Y-6633450D02*
X8297150Y-6663450D01*
X8309850Y-5769850D02*
X8339850Y-5799850D01*
X8339850Y-5769850D02*
X8309850Y-5799850D01*
X8328900Y-5553950D02*
X8358900Y-5583950D01*
X8358900Y-5553950D02*
X8328900Y-5583950D01*
X8328900Y-6328650D02*
X8358900Y-6358650D01*
X8358900Y-6328650D02*
X8328900Y-6358650D01*
X8373350Y-5325350D02*
X8403350Y-5355350D01*
X8403350Y-5325350D02*
X8373350Y-5355350D01*
X8430500Y-9738600D02*
X8460500Y-9768600D01*
X8460500Y-9738600D02*
X8430500Y-9768600D01*
X8436850Y-9395700D02*
X8466850Y-9425700D01*
X8466850Y-9395700D02*
X8436850Y-9425700D01*
X8468600Y-7008100D02*
X8498600Y-7038100D01*
X8498600Y-7008100D02*
X8468600Y-7038100D01*
X8481809Y-7862301D02*
X8511809Y-7892301D01*
X8511809Y-7862301D02*
X8481809Y-7892301D01*
X8509240Y-7914880D02*
X8539240Y-7944880D01*
X8539240Y-7914880D02*
X8509240Y-7944880D01*
X8522575Y-7678025D02*
X8552575Y-7708025D01*
X8552575Y-7678025D02*
X8522575Y-7708025D01*
X8525750Y-4728450D02*
X8555750Y-4758450D01*
X8555750Y-4728450D02*
X8525750Y-4758450D01*
X8525750Y-7478000D02*
X8555750Y-7508000D01*
X8555750Y-7478000D02*
X8525750Y-7508000D01*
X8560220Y-7950260D02*
X8590220Y-7980260D01*
X8590220Y-7950260D02*
X8560220Y-7980260D01*
X8590520Y-8013940D02*
X8620520Y-8043940D01*
X8620520Y-8013940D02*
X8590520Y-8043940D01*
X8613380Y-8082520D02*
X8643380Y-8112520D01*
X8643380Y-8082520D02*
X8613380Y-8112520D01*
X8655290Y-8706090D02*
X8685290Y-8736090D01*
X8685290Y-8706090D02*
X8655290Y-8736090D01*
X8665450Y-5325350D02*
X8695450Y-5355350D01*
X8695450Y-5325350D02*
X8665450Y-5355350D01*
X8671800Y-10189450D02*
X8701800Y-10219450D01*
X8701800Y-10189450D02*
X8671800Y-10219450D01*
X8687040Y-9957040D02*
X8717040Y-9987040D01*
X8717040Y-9957040D02*
X8687040Y-9987040D01*
X8694660Y-8099030D02*
X8724660Y-8129030D01*
X8724660Y-8099030D02*
X8694660Y-8129030D01*
X8697200Y-6735050D02*
X8727200Y-6765050D01*
X8727200Y-6735050D02*
X8697200Y-6765050D01*
X8697200Y-10443450D02*
X8727200Y-10473450D01*
X8727200Y-10443450D02*
X8697200Y-10473450D01*
X8703175Y-5116175D02*
X8733175Y-5146175D01*
X8733175Y-5116175D02*
X8703175Y-5146175D01*
X8759430Y-9944340D02*
X8789430Y-9974340D01*
X8789430Y-9944340D02*
X8759430Y-9974340D01*
X8777210Y-7290040D02*
X8807210Y-7320040D01*
X8807210Y-7290040D02*
X8777210Y-7320040D01*
X8781564Y-7713676D02*
X8811564Y-7743676D01*
X8811564Y-7713676D02*
X8781564Y-7743676D01*
X8805150Y-9573500D02*
X8835150Y-9603500D01*
X8835150Y-9573500D02*
X8805150Y-9603500D01*
X8825470Y-7814550D02*
X8855470Y-7844550D01*
X8855470Y-7814550D02*
X8825470Y-7844550D01*
X8840710Y-7968220D02*
X8870710Y-7998220D01*
X8870710Y-7968220D02*
X8840710Y-7998220D01*
X8866586Y-7267974D02*
X8896586Y-7297974D01*
X8896586Y-7267974D02*
X8866586Y-7297974D01*
X8876270Y-7409420D02*
X8906270Y-7439420D01*
X8906270Y-7409420D02*
X8876270Y-7439420D01*
X8932150Y-9846550D02*
X8962150Y-9876550D01*
X8962150Y-9846550D02*
X8932150Y-9876550D01*
X8938500Y-10475200D02*
X8968500Y-10505200D01*
X8968500Y-10475200D02*
X8938500Y-10505200D01*
X8995650Y-4741150D02*
X9025650Y-4771150D01*
X9025650Y-4741150D02*
X8995650Y-4771150D01*
X9040100Y-6398500D02*
X9070100Y-6428500D01*
X9070100Y-6398500D02*
X9040100Y-6428500D01*
X9052800Y-5192000D02*
X9082800Y-5222000D01*
X9082800Y-5192000D02*
X9052800Y-5222000D01*
X9097250Y-10049750D02*
X9127250Y-10079750D01*
X9127250Y-10049750D02*
X9097250Y-10079750D01*
X9113760Y-7993620D02*
X9143760Y-8023620D01*
X9143760Y-7993620D02*
X9113760Y-8023620D01*
X9116300Y-7427200D02*
X9146300Y-7457200D01*
X9146300Y-7427200D02*
X9116300Y-7457200D01*
X9173426Y-7954274D02*
X9203426Y-7984274D01*
X9203426Y-7954274D02*
X9173426Y-7984274D01*
X9186150Y-6061950D02*
X9216150Y-6091950D01*
X9216150Y-6061950D02*
X9186150Y-6091950D01*
X9252190Y-7400530D02*
X9282190Y-7430530D01*
X9282190Y-7400530D02*
X9252190Y-7430530D01*
X9283940Y-8118080D02*
X9313940Y-8148080D01*
X9313940Y-8118080D02*
X9283940Y-8148080D01*
X9300450Y-9960850D02*
X9330450Y-9990850D01*
X9330450Y-9960850D02*
X9300450Y-9990850D01*
X9304260Y-7537690D02*
X9334260Y-7567690D01*
X9334260Y-7537690D02*
X9304260Y-7567690D01*
X9316960Y-6926820D02*
X9346960Y-6956820D01*
X9346960Y-6926820D02*
X9316960Y-6956820D01*
X9332200Y-5471400D02*
X9362200Y-5501400D01*
X9362200Y-5471400D02*
X9332200Y-5501400D01*
X9357600Y-8148560D02*
X9387600Y-8178560D01*
X9387600Y-8148560D02*
X9357600Y-8178560D01*
X9357880Y-7647900D02*
X9387880Y-7677900D01*
X9387880Y-7647900D02*
X9357880Y-7677900D01*
X9359709Y-7412799D02*
X9389709Y-7442799D01*
X9389709Y-7412799D02*
X9359709Y-7442799D01*
X9363950Y-7804390D02*
X9393950Y-7834390D01*
X9393950Y-7804390D02*
X9363950Y-7834390D01*
X9363950Y-8398750D02*
X9393950Y-8428750D01*
X9393950Y-8398750D02*
X9363950Y-8428750D01*
X9370300Y-7583410D02*
X9400300Y-7613410D01*
X9400300Y-7583410D02*
X9370300Y-7613410D01*
X9379190Y-7890750D02*
X9409190Y-7920750D01*
X9409190Y-7890750D02*
X9379190Y-7920750D01*
X9402050Y-6817600D02*
X9432050Y-6847600D01*
X9432050Y-6817600D02*
X9402050Y-6847600D01*
X9438880Y-8365730D02*
X9468880Y-8395730D01*
X9468880Y-8365730D02*
X9438880Y-8395730D01*
X9446500Y-8703550D02*
X9476500Y-8733550D01*
X9476500Y-8703550D02*
X9446500Y-8733550D01*
X9516350Y-4906250D02*
X9546350Y-4936250D01*
X9546350Y-4906250D02*
X9516350Y-4936250D01*
X9516350Y-6335000D02*
X9546350Y-6365000D01*
X9546350Y-6335000D02*
X9516350Y-6365000D01*
X9530320Y-8265400D02*
X9560320Y-8295400D01*
X9560320Y-8265400D02*
X9530320Y-8295400D01*
X9535400Y-8786100D02*
X9565400Y-8816100D01*
X9565400Y-8786100D02*
X9535400Y-8816100D01*
X9611600Y-8189200D02*
X9641600Y-8219200D01*
X9641600Y-8189200D02*
X9611600Y-8219200D01*
X8656000Y-4914000D02*
G75*
G03X8656000Y-4914000I-20000J0D01*
G01*
X8973500Y-5397500D02*
G75*
G03X8973500Y-5397500I-20000J0D01*
G01*
X8973500Y-5778500D02*
G75*
G03X8973500Y-5778500I-20000J0D01*
G01*
X9103040Y-5519420D02*
G75*
G03X9103040Y-5519420I-20000J0D01*
G01*
X9291000Y-4914000D02*
G75*
G03X9291000Y-4914000I-20000J0D01*
G01*
X8524240Y-10020700D02*
X8524240Y-10070700D01*
X8499240Y-10045700D02*
X8549240Y-10045700D01*
X8622030Y-6039250D02*
X8622030Y-6089250D01*
X8597030Y-6064250D02*
X8647030Y-6064250D01*
X8820500Y-9182500D02*
X8820500Y-9232500D01*
X8795500Y-9207500D02*
X8845500Y-9207500D01*
X8826870Y-8645290D02*
X8826870Y-8695290D01*
X8801870Y-8670290D02*
X8851870Y-8670290D01*
X8949690Y-9182500D02*
X8949690Y-9232500D01*
X8924690Y-9207500D02*
X8974690Y-9207500D01*
X8949690Y-9563500D02*
X8949690Y-9613500D01*
X8924690Y-9588500D02*
X8974690Y-9588500D01*
X9019540Y-7935360D02*
X9019540Y-7985360D01*
X8994540Y-7960360D02*
X9044540Y-7960360D01*
X9020810Y-7507370D02*
X9020810Y-7557370D01*
X8995810Y-7532370D02*
X9045810Y-7532370D01*
X9032240Y-8645290D02*
X9032240Y-8695290D01*
X9007240Y-8670290D02*
X9057240Y-8670290D01*
X8219784Y-4809835D02*
X8219784Y-4753266D01*
X8163215Y-4753266D01*
X8163215Y-4809835D01*
X8219784Y-4809835D01*
X8219784Y-5063835D02*
X8219784Y-5007266D01*
X8163215Y-5007266D01*
X8163215Y-5063835D01*
X8219784Y-5063835D01*
X8219784Y-5317835D02*
X8219784Y-5261266D01*
X8163215Y-5261266D01*
X8163215Y-5317835D01*
X8219784Y-5317835D01*
X8219784Y-5571835D02*
X8219784Y-5515266D01*
X8163215Y-5515266D01*
X8163215Y-5571835D01*
X8219784Y-5571835D01*
X8219784Y-5825834D02*
X8219784Y-5769265D01*
X8163215Y-5769265D01*
X8163215Y-5825834D01*
X8219784Y-5825834D01*
X8219784Y-6079834D02*
X8219784Y-6023265D01*
X8163215Y-6023265D01*
X8163215Y-6079834D01*
X8219784Y-6079834D01*
X8219784Y-6333834D02*
X8219784Y-6277265D01*
X8163215Y-6277265D01*
X8163215Y-6333834D01*
X8219784Y-6333834D01*
X8219784Y-6587834D02*
X8219784Y-6531265D01*
X8163215Y-6531265D01*
X8163215Y-6587834D01*
X8219784Y-6587834D01*
X8219784Y-6841834D02*
X8219784Y-6785265D01*
X8163215Y-6785265D01*
X8163215Y-6841834D01*
X8219784Y-6841834D01*
X8219784Y-7095834D02*
X8219784Y-7039265D01*
X8163215Y-7039265D01*
X8163215Y-7095834D01*
X8219784Y-7095834D01*
X8219784Y-7349834D02*
X8219784Y-7293265D01*
X8163215Y-7293265D01*
X8163215Y-7349834D01*
X8219784Y-7349834D01*
X8219784Y-7603834D02*
X8219784Y-7547265D01*
X8163215Y-7547265D01*
X8163215Y-7603834D01*
X8219784Y-7603834D01*
X8219784Y-7857834D02*
X8219784Y-7801265D01*
X8163215Y-7801265D01*
X8163215Y-7857834D01*
X8219784Y-7857834D01*
X8219784Y-8111834D02*
X8219784Y-8055265D01*
X8163215Y-8055265D01*
X8163215Y-8111834D01*
X8219784Y-8111834D01*
X8219784Y-8365834D02*
X8219784Y-8309265D01*
X8163215Y-8309265D01*
X8163215Y-8365834D01*
X8219784Y-8365834D01*
X8219784Y-8619835D02*
X8219784Y-8563266D01*
X8163215Y-8563266D01*
X8163215Y-8619835D01*
X8219784Y-8619835D01*
X8219784Y-8873835D02*
X8219784Y-8817266D01*
X8163215Y-8817266D01*
X8163215Y-8873835D01*
X8219784Y-8873835D01*
X8219784Y-9127835D02*
X8219784Y-9071266D01*
X8163215Y-9071266D01*
X8163215Y-9127835D01*
X8219784Y-9127835D01*
X8219784Y-9381835D02*
X8219784Y-9325266D01*
X8163215Y-9325266D01*
X8163215Y-9381835D01*
X8219784Y-9381835D01*
X8219784Y-9635835D02*
X8219784Y-9579266D01*
X8163215Y-9579266D01*
X8163215Y-9635835D01*
X8219784Y-9635835D01*
X8219784Y-9889835D02*
X8219784Y-9833266D01*
X8163215Y-9833266D01*
X8163215Y-9889835D01*
X8219784Y-9889835D01*
X8219784Y-10143835D02*
X8219784Y-10087266D01*
X8163215Y-10087266D01*
X8163215Y-10143835D01*
X8219784Y-10143835D01*
X8219784Y-10397835D02*
X8219784Y-10341266D01*
X8163215Y-10341266D01*
X8163215Y-10397835D01*
X8219784Y-10397835D01*
X8219784Y-10651835D02*
X8219784Y-10595266D01*
X8163215Y-10595266D01*
X8163215Y-10651835D01*
X8219784Y-10651835D01*
X9743785Y-4809835D02*
X9743785Y-4753266D01*
X9687216Y-4753266D01*
X9687216Y-4809835D01*
X9743785Y-4809835D01*
X9743785Y-5063835D02*
X9743785Y-5007266D01*
X9687216Y-5007266D01*
X9687216Y-5063835D01*
X9743785Y-5063835D01*
X9743785Y-5317835D02*
X9743785Y-5261266D01*
X9687216Y-5261266D01*
X9687216Y-5317835D01*
X9743785Y-5317835D01*
X9743785Y-5571835D02*
X9743785Y-5515266D01*
X9687216Y-5515266D01*
X9687216Y-5571835D01*
X9743785Y-5571835D01*
X9743785Y-5825834D02*
X9743785Y-5769265D01*
X9687216Y-5769265D01*
X9687216Y-5825834D01*
X9743785Y-5825834D01*
X9743785Y-6079834D02*
X9743785Y-6023265D01*
X9687216Y-6023265D01*
X9687216Y-6079834D01*
X9743785Y-6079834D01*
X9743785Y-6333834D02*
X9743785Y-6277265D01*
X9687216Y-6277265D01*
X9687216Y-6333834D01*
X9743785Y-6333834D01*
X9743785Y-6587834D02*
X9743785Y-6531265D01*
X9687216Y-6531265D01*
X9687216Y-6587834D01*
X9743785Y-6587834D01*
X9743785Y-6841834D02*
X9743785Y-6785265D01*
X9687216Y-6785265D01*
X9687216Y-6841834D01*
X9743785Y-6841834D01*
X9743785Y-7095834D02*
X9743785Y-7039265D01*
X9687216Y-7039265D01*
X9687216Y-7095834D01*
X9743785Y-7095834D01*
X9743785Y-7349834D02*
X9743785Y-7293265D01*
X9687216Y-7293265D01*
X9687216Y-7349834D01*
X9743785Y-7349834D01*
X9743785Y-7603834D02*
X9743785Y-7547265D01*
X9687216Y-7547265D01*
X9687216Y-7603834D01*
X9743785Y-7603834D01*
X9743785Y-7857834D02*
X9743785Y-7801265D01*
X9687216Y-7801265D01*
X9687216Y-7857834D01*
X9743785Y-7857834D01*
X9743785Y-8111834D02*
X9743785Y-8055265D01*
X9687216Y-8055265D01*
X9687216Y-8111834D01*
X9743785Y-8111834D01*
X9743785Y-8365834D02*
X9743785Y-8309265D01*
X9687216Y-8309265D01*
X9687216Y-8365834D01*
X9743785Y-8365834D01*
X9743785Y-8619835D02*
X9743785Y-8563266D01*
X9687216Y-8563266D01*
X9687216Y-8619835D01*
X9743785Y-8619835D01*
X9743785Y-8873835D02*
X9743785Y-8817266D01*
X9687216Y-8817266D01*
X9687216Y-8873835D01*
X9743785Y-8873835D01*
X9743785Y-9127835D02*
X9743785Y-9071266D01*
X9687216Y-9071266D01*
X9687216Y-9127835D01*
X9743785Y-9127835D01*
X9743785Y-9381835D02*
X9743785Y-9325266D01*
X9687216Y-9325266D01*
X9687216Y-9381835D01*
X9743785Y-9381835D01*
X9743785Y-9635835D02*
X9743785Y-9579266D01*
X9687216Y-9579266D01*
X9687216Y-9635835D01*
X9743785Y-9635835D01*
X9743785Y-9889835D02*
X9743785Y-9833266D01*
X9687216Y-9833266D01*
X9687216Y-9889835D01*
X9743785Y-9889835D01*
X9743785Y-10143835D02*
X9743785Y-10087266D01*
X9687216Y-10087266D01*
X9687216Y-10143835D01*
X9743785Y-10143835D01*
X9743785Y-10397835D02*
X9743785Y-10341266D01*
X9687216Y-10341266D01*
X9687216Y-10397835D01*
X9743785Y-10397835D01*
X9743785Y-10651835D02*
X9743785Y-10595266D01*
X9687216Y-10595266D01*
X9687216Y-10651835D01*
X9743785Y-10651835D01*
X8575040Y-10390340D02*
X8625040Y-10340340D01*
X8575040Y-10290340D01*
X8525040Y-10340340D01*
X8575040Y-10390340D01*
X8575040Y-10644340D02*
X8625040Y-10594340D01*
X8575040Y-10544340D01*
X8525040Y-10594340D01*
X8575040Y-10644340D01*
X8829040Y-10390340D02*
X8879040Y-10340340D01*
X8829040Y-10290340D01*
X8779040Y-10340340D01*
X8829040Y-10390340D01*
X8829040Y-10644340D02*
X8879040Y-10594340D01*
X8829040Y-10544340D01*
X8779040Y-10594340D01*
X8829040Y-10644340D01*
X9083040Y-10390340D02*
X9133040Y-10340340D01*
X9083040Y-10290340D01*
X9033040Y-10340340D01*
X9083040Y-10390340D01*
X9337040Y-10390340D02*
X9387040Y-10340340D01*
X9337040Y-10290340D01*
X9287040Y-10340340D01*
X9337040Y-10390340D01*
D12*
X8227928Y-11339264D02*
X8227928Y-11039264D01*
X8299357Y-11039264D01*
X8342214Y-11053550D01*
X8370786Y-11082121D01*
X8385071Y-11110693D01*
X8399357Y-11167836D01*
X8399357Y-11210693D01*
X8385071Y-11267836D01*
X8370786Y-11296407D01*
X8342214Y-11324978D01*
X8299357Y-11339264D01*
X8227928Y-11339264D01*
X8527929Y-11339264D02*
X8527929Y-11139264D01*
X8527929Y-11196407D02*
X8542214Y-11167836D01*
X8556500Y-11153550D01*
X8585071Y-11139264D01*
X8613643Y-11139264D01*
X8713643Y-11339264D02*
X8713643Y-11139264D01*
X8713643Y-11039264D02*
X8699357Y-11053550D01*
X8713643Y-11067836D01*
X8727929Y-11053550D01*
X8713643Y-11039264D01*
X8713643Y-11067836D01*
X8899357Y-11339264D02*
X8870786Y-11324978D01*
X8856500Y-11296407D01*
X8856500Y-11039264D01*
X9056500Y-11339264D02*
X9027929Y-11324978D01*
X9013643Y-11296407D01*
X9013643Y-11039264D01*
X9399357Y-11339264D02*
X9399357Y-11039264D01*
X9499357Y-11253550D01*
X9599357Y-11039264D01*
X9599357Y-11339264D01*
X9870786Y-11339264D02*
X9870786Y-11182121D01*
X9856500Y-11153550D01*
X9827929Y-11139264D01*
X9770786Y-11139264D01*
X9742214Y-11153550D01*
X9870786Y-11324978D02*
X9842214Y-11339264D01*
X9770786Y-11339264D01*
X9742214Y-11324978D01*
X9727929Y-11296407D01*
X9727929Y-11267836D01*
X9742214Y-11239264D01*
X9770786Y-11224978D01*
X9842214Y-11224978D01*
X9870786Y-11210693D01*
X10013643Y-11139264D02*
X10013643Y-11439264D01*
X10013643Y-11153550D02*
X10042214Y-11139264D01*
X10099357Y-11139264D01*
X10127929Y-11153550D01*
X10142214Y-11167836D01*
X10156500Y-11196407D01*
X10156500Y-11282121D01*
X10142214Y-11310693D01*
X10127929Y-11324978D01*
X10099357Y-11339264D01*
X10042214Y-11339264D01*
X10013643Y-11324978D01*
X10285071Y-11310693D02*
X10299357Y-11324978D01*
X10285071Y-11339264D01*
X10270786Y-11324978D01*
X10285071Y-11310693D01*
X10285071Y-11339264D01*
X10285071Y-11153550D02*
X10299357Y-11167836D01*
X10285071Y-11182121D01*
X10270786Y-11167836D01*
X10285071Y-11153550D01*
X10285071Y-11182121D01*
X7911500Y-11818550D02*
X7941500Y-11848550D01*
X7941500Y-11818550D02*
X7911500Y-11848550D01*
X8285071Y-11669264D02*
X8313643Y-11669264D01*
X8342214Y-11683550D01*
X8356500Y-11697836D01*
X8370786Y-11726407D01*
X8385071Y-11783550D01*
X8385071Y-11854978D01*
X8370786Y-11912121D01*
X8356500Y-11940693D01*
X8342214Y-11954978D01*
X8313643Y-11969264D01*
X8285071Y-11969264D01*
X8256500Y-11954978D01*
X8242214Y-11940693D01*
X8227928Y-11912121D01*
X8213643Y-11854978D01*
X8213643Y-11783550D01*
X8227928Y-11726407D01*
X8242214Y-11697836D01*
X8256500Y-11683550D01*
X8285071Y-11669264D01*
X8513643Y-11940693D02*
X8527929Y-11954978D01*
X8513643Y-11969264D01*
X8499357Y-11954978D01*
X8513643Y-11940693D01*
X8513643Y-11969264D01*
X8627929Y-11669264D02*
X8813643Y-11669264D01*
X8713643Y-11783550D01*
X8756500Y-11783550D01*
X8785071Y-11797836D01*
X8799357Y-11812121D01*
X8813643Y-11840693D01*
X8813643Y-11912121D01*
X8799357Y-11940693D01*
X8785071Y-11954978D01*
X8756500Y-11969264D01*
X8670786Y-11969264D01*
X8642214Y-11954978D01*
X8627929Y-11940693D01*
X8999357Y-11669264D02*
X9027929Y-11669264D01*
X9056500Y-11683550D01*
X9070786Y-11697836D01*
X9085071Y-11726407D01*
X9099357Y-11783550D01*
X9099357Y-11854978D01*
X9085071Y-11912121D01*
X9070786Y-11940693D01*
X9056500Y-11954978D01*
X9027929Y-11969264D01*
X8999357Y-11969264D01*
X8970786Y-11954978D01*
X8956500Y-11940693D01*
X8942214Y-11912121D01*
X8927929Y-11854978D01*
X8927929Y-11783550D01*
X8942214Y-11726407D01*
X8956500Y-11697836D01*
X8970786Y-11683550D01*
X8999357Y-11669264D01*
X9227929Y-11969264D02*
X9227929Y-11769264D01*
X9227929Y-11797836D02*
X9242214Y-11783550D01*
X9270786Y-11769264D01*
X9313643Y-11769264D01*
X9342214Y-11783550D01*
X9356500Y-11812121D01*
X9356500Y-11969264D01*
X9356500Y-11812121D02*
X9370786Y-11783550D01*
X9399357Y-11769264D01*
X9442214Y-11769264D01*
X9470786Y-11783550D01*
X9485071Y-11812121D01*
X9485071Y-11969264D01*
X9627929Y-11969264D02*
X9627929Y-11769264D01*
X9627929Y-11797836D02*
X9642214Y-11783550D01*
X9670786Y-11769264D01*
X9713643Y-11769264D01*
X9742214Y-11783550D01*
X9756500Y-11812121D01*
X9756500Y-11969264D01*
X9756500Y-11812121D02*
X9770786Y-11783550D01*
X9799357Y-11769264D01*
X9842214Y-11769264D01*
X9870786Y-11783550D01*
X9885071Y-11812121D01*
X9885071Y-11969264D01*
X10470786Y-11654978D02*
X10213643Y-12040693D01*
X10856500Y-11669264D02*
X10885071Y-11669264D01*
X10913643Y-11683550D01*
X10927929Y-11697836D01*
X10942214Y-11726407D01*
X10956500Y-11783550D01*
X10956500Y-11854978D01*
X10942214Y-11912121D01*
X10927929Y-11940693D01*
X10913643Y-11954978D01*
X10885071Y-11969264D01*
X10856500Y-11969264D01*
X10827929Y-11954978D01*
X10813643Y-11940693D01*
X10799357Y-11912121D01*
X10785071Y-11854978D01*
X10785071Y-11783550D01*
X10799357Y-11726407D01*
X10813643Y-11697836D01*
X10827929Y-11683550D01*
X10856500Y-11669264D01*
X11085071Y-11940693D02*
X11099357Y-11954978D01*
X11085071Y-11969264D01*
X11070786Y-11954978D01*
X11085071Y-11940693D01*
X11085071Y-11969264D01*
X11285071Y-11669264D02*
X11313643Y-11669264D01*
X11342214Y-11683550D01*
X11356500Y-11697836D01*
X11370786Y-11726407D01*
X11385071Y-11783550D01*
X11385071Y-11854978D01*
X11370786Y-11912121D01*
X11356500Y-11940693D01*
X11342214Y-11954978D01*
X11313643Y-11969264D01*
X11285071Y-11969264D01*
X11256500Y-11954978D01*
X11242214Y-11940693D01*
X11227928Y-11912121D01*
X11213643Y-11854978D01*
X11213643Y-11783550D01*
X11227928Y-11726407D01*
X11242214Y-11697836D01*
X11256500Y-11683550D01*
X11285071Y-11669264D01*
X11670786Y-11969264D02*
X11499357Y-11969264D01*
X11585071Y-11969264D02*
X11585071Y-11669264D01*
X11556500Y-11712121D01*
X11527928Y-11740693D01*
X11499357Y-11754978D01*
X11785071Y-11697836D02*
X11799357Y-11683550D01*
X11827928Y-11669264D01*
X11899357Y-11669264D01*
X11927928Y-11683550D01*
X11942214Y-11697836D01*
X11956500Y-11726407D01*
X11956500Y-11754978D01*
X11942214Y-11797836D01*
X11770786Y-11969264D01*
X11956500Y-11969264D01*
X12070786Y-11669264D02*
X12070786Y-11726407D01*
X12185071Y-11669264D02*
X12185071Y-11726407D01*
X12627928Y-12083550D02*
X12613643Y-12069264D01*
X12585071Y-12026407D01*
X12570786Y-11997836D01*
X12556500Y-11954978D01*
X12542214Y-11883550D01*
X12542214Y-11826407D01*
X12556500Y-11754978D01*
X12570786Y-11712121D01*
X12585071Y-11683550D01*
X12613643Y-11640693D01*
X12627928Y-11626407D01*
X12870786Y-11669264D02*
X12813643Y-11669264D01*
X12785071Y-11683550D01*
X12770786Y-11697836D01*
X12742214Y-11740693D01*
X12727928Y-11797836D01*
X12727928Y-11912121D01*
X12742214Y-11940693D01*
X12756500Y-11954978D01*
X12785071Y-11969264D01*
X12842214Y-11969264D01*
X12870786Y-11954978D01*
X12885071Y-11940693D01*
X12899357Y-11912121D01*
X12899357Y-11840693D01*
X12885071Y-11812121D01*
X12870786Y-11797836D01*
X12842214Y-11783550D01*
X12785071Y-11783550D01*
X12756500Y-11797836D01*
X12742214Y-11812121D01*
X12727928Y-11840693D01*
X12999357Y-11669264D02*
X13185071Y-11669264D01*
X13085071Y-11783550D01*
X13127928Y-11783550D01*
X13156500Y-11797836D01*
X13170786Y-11812121D01*
X13185071Y-11840693D01*
X13185071Y-11912121D01*
X13170786Y-11940693D01*
X13156500Y-11954978D01*
X13127928Y-11969264D01*
X13042214Y-11969264D01*
X13013643Y-11954978D01*
X12999357Y-11940693D01*
X13542214Y-11969264D02*
X13542214Y-11669264D01*
X13670786Y-11969264D02*
X13670786Y-11812121D01*
X13656500Y-11783550D01*
X13627928Y-11769264D01*
X13585071Y-11769264D01*
X13556500Y-11783550D01*
X13542214Y-11797836D01*
X13856500Y-11969264D02*
X13827928Y-11954978D01*
X13813643Y-11940693D01*
X13799357Y-11912121D01*
X13799357Y-11826407D01*
X13813643Y-11797836D01*
X13827928Y-11783550D01*
X13856500Y-11769264D01*
X13899357Y-11769264D01*
X13927928Y-11783550D01*
X13942214Y-11797836D01*
X13956500Y-11826407D01*
X13956500Y-11912121D01*
X13942214Y-11940693D01*
X13927928Y-11954978D01*
X13899357Y-11969264D01*
X13856500Y-11969264D01*
X14127928Y-11969264D02*
X14099357Y-11954978D01*
X14085071Y-11926407D01*
X14085071Y-11669264D01*
X14356500Y-11954978D02*
X14327928Y-11969264D01*
X14270786Y-11969264D01*
X14242214Y-11954978D01*
X14227928Y-11926407D01*
X14227928Y-11812121D01*
X14242214Y-11783550D01*
X14270786Y-11769264D01*
X14327928Y-11769264D01*
X14356500Y-11783550D01*
X14370786Y-11812121D01*
X14370786Y-11840693D01*
X14227928Y-11869264D01*
X14485071Y-11954978D02*
X14513643Y-11969264D01*
X14570786Y-11969264D01*
X14599357Y-11954978D01*
X14613643Y-11926407D01*
X14613643Y-11912121D01*
X14599357Y-11883550D01*
X14570786Y-11869264D01*
X14527928Y-11869264D01*
X14499357Y-11854978D01*
X14485071Y-11826407D01*
X14485071Y-11812121D01*
X14499357Y-11783550D01*
X14527928Y-11769264D01*
X14570786Y-11769264D01*
X14599357Y-11783550D01*
X14713643Y-12083550D02*
X14727928Y-12069264D01*
X14756500Y-12026407D01*
X14770786Y-11997836D01*
X14785071Y-11954978D01*
X14799357Y-11883550D01*
X14799357Y-11826407D01*
X14785071Y-11754978D01*
X14770786Y-11712121D01*
X14756500Y-11683550D01*
X14727928Y-11640693D01*
X14713643Y-11626407D01*
X7941500Y-12229550D02*
G75*
G03X7941500Y-12229550I-20000J0D01*
G01*
X8285071Y-12065264D02*
X8313643Y-12065264D01*
X8342214Y-12079550D01*
X8356500Y-12093836D01*
X8370786Y-12122407D01*
X8385071Y-12179550D01*
X8385071Y-12250978D01*
X8370786Y-12308121D01*
X8356500Y-12336693D01*
X8342214Y-12350978D01*
X8313643Y-12365264D01*
X8285071Y-12365264D01*
X8256500Y-12350978D01*
X8242214Y-12336693D01*
X8227928Y-12308121D01*
X8213643Y-12250978D01*
X8213643Y-12179550D01*
X8227928Y-12122407D01*
X8242214Y-12093836D01*
X8256500Y-12079550D01*
X8285071Y-12065264D01*
X8513643Y-12336693D02*
X8527929Y-12350978D01*
X8513643Y-12365264D01*
X8499357Y-12350978D01*
X8513643Y-12336693D01*
X8513643Y-12365264D01*
X8785071Y-12165264D02*
X8785071Y-12365264D01*
X8713643Y-12050978D02*
X8642214Y-12265264D01*
X8827929Y-12265264D01*
X8999357Y-12065264D02*
X9027929Y-12065264D01*
X9056500Y-12079550D01*
X9070786Y-12093836D01*
X9085071Y-12122407D01*
X9099357Y-12179550D01*
X9099357Y-12250978D01*
X9085071Y-12308121D01*
X9070786Y-12336693D01*
X9056500Y-12350978D01*
X9027929Y-12365264D01*
X8999357Y-12365264D01*
X8970786Y-12350978D01*
X8956500Y-12336693D01*
X8942214Y-12308121D01*
X8927929Y-12250978D01*
X8927929Y-12179550D01*
X8942214Y-12122407D01*
X8956500Y-12093836D01*
X8970786Y-12079550D01*
X8999357Y-12065264D01*
X9227929Y-12365264D02*
X9227929Y-12165264D01*
X9227929Y-12193836D02*
X9242214Y-12179550D01*
X9270786Y-12165264D01*
X9313643Y-12165264D01*
X9342214Y-12179550D01*
X9356500Y-12208121D01*
X9356500Y-12365264D01*
X9356500Y-12208121D02*
X9370786Y-12179550D01*
X9399357Y-12165264D01*
X9442214Y-12165264D01*
X9470786Y-12179550D01*
X9485071Y-12208121D01*
X9485071Y-12365264D01*
X9627929Y-12365264D02*
X9627929Y-12165264D01*
X9627929Y-12193836D02*
X9642214Y-12179550D01*
X9670786Y-12165264D01*
X9713643Y-12165264D01*
X9742214Y-12179550D01*
X9756500Y-12208121D01*
X9756500Y-12365264D01*
X9756500Y-12208121D02*
X9770786Y-12179550D01*
X9799357Y-12165264D01*
X9842214Y-12165264D01*
X9870786Y-12179550D01*
X9885071Y-12208121D01*
X9885071Y-12365264D01*
X10470786Y-12050978D02*
X10213643Y-12436693D01*
X10856500Y-12065264D02*
X10885071Y-12065264D01*
X10913643Y-12079550D01*
X10927929Y-12093836D01*
X10942214Y-12122407D01*
X10956500Y-12179550D01*
X10956500Y-12250978D01*
X10942214Y-12308121D01*
X10927929Y-12336693D01*
X10913643Y-12350978D01*
X10885071Y-12365264D01*
X10856500Y-12365264D01*
X10827929Y-12350978D01*
X10813643Y-12336693D01*
X10799357Y-12308121D01*
X10785071Y-12250978D01*
X10785071Y-12179550D01*
X10799357Y-12122407D01*
X10813643Y-12093836D01*
X10827929Y-12079550D01*
X10856500Y-12065264D01*
X11085071Y-12336693D02*
X11099357Y-12350978D01*
X11085071Y-12365264D01*
X11070786Y-12350978D01*
X11085071Y-12336693D01*
X11085071Y-12365264D01*
X11285071Y-12065264D02*
X11313643Y-12065264D01*
X11342214Y-12079550D01*
X11356500Y-12093836D01*
X11370786Y-12122407D01*
X11385071Y-12179550D01*
X11385071Y-12250978D01*
X11370786Y-12308121D01*
X11356500Y-12336693D01*
X11342214Y-12350978D01*
X11313643Y-12365264D01*
X11285071Y-12365264D01*
X11256500Y-12350978D01*
X11242214Y-12336693D01*
X11227928Y-12308121D01*
X11213643Y-12250978D01*
X11213643Y-12179550D01*
X11227928Y-12122407D01*
X11242214Y-12093836D01*
X11256500Y-12079550D01*
X11285071Y-12065264D01*
X11670786Y-12365264D02*
X11499357Y-12365264D01*
X11585071Y-12365264D02*
X11585071Y-12065264D01*
X11556500Y-12108121D01*
X11527928Y-12136693D01*
X11499357Y-12150978D01*
X11927928Y-12065264D02*
X11870786Y-12065264D01*
X11842214Y-12079550D01*
X11827928Y-12093836D01*
X11799357Y-12136693D01*
X11785071Y-12193836D01*
X11785071Y-12308121D01*
X11799357Y-12336693D01*
X11813643Y-12350978D01*
X11842214Y-12365264D01*
X11899357Y-12365264D01*
X11927928Y-12350978D01*
X11942214Y-12336693D01*
X11956500Y-12308121D01*
X11956500Y-12236693D01*
X11942214Y-12208121D01*
X11927928Y-12193836D01*
X11899357Y-12179550D01*
X11842214Y-12179550D01*
X11813643Y-12193836D01*
X11799357Y-12208121D01*
X11785071Y-12236693D01*
X12070786Y-12065264D02*
X12070786Y-12122407D01*
X12185071Y-12065264D02*
X12185071Y-12122407D01*
X12627928Y-12479550D02*
X12613643Y-12465264D01*
X12585071Y-12422407D01*
X12570786Y-12393836D01*
X12556500Y-12350978D01*
X12542214Y-12279550D01*
X12542214Y-12222407D01*
X12556500Y-12150978D01*
X12570786Y-12108121D01*
X12585071Y-12079550D01*
X12613643Y-12036693D01*
X12627928Y-12022407D01*
X12885071Y-12065264D02*
X12742214Y-12065264D01*
X12727928Y-12208121D01*
X12742214Y-12193836D01*
X12770786Y-12179550D01*
X12842214Y-12179550D01*
X12870786Y-12193836D01*
X12885071Y-12208121D01*
X12899357Y-12236693D01*
X12899357Y-12308121D01*
X12885071Y-12336693D01*
X12870786Y-12350978D01*
X12842214Y-12365264D01*
X12770786Y-12365264D01*
X12742214Y-12350978D01*
X12727928Y-12336693D01*
X13256500Y-12365264D02*
X13256500Y-12065264D01*
X13385071Y-12365264D02*
X13385071Y-12208121D01*
X13370786Y-12179550D01*
X13342214Y-12165264D01*
X13299357Y-12165264D01*
X13270786Y-12179550D01*
X13256500Y-12193836D01*
X13570786Y-12365264D02*
X13542214Y-12350978D01*
X13527928Y-12336693D01*
X13513643Y-12308121D01*
X13513643Y-12222407D01*
X13527928Y-12193836D01*
X13542214Y-12179550D01*
X13570786Y-12165264D01*
X13613643Y-12165264D01*
X13642214Y-12179550D01*
X13656500Y-12193836D01*
X13670786Y-12222407D01*
X13670786Y-12308121D01*
X13656500Y-12336693D01*
X13642214Y-12350978D01*
X13613643Y-12365264D01*
X13570786Y-12365264D01*
X13842214Y-12365264D02*
X13813643Y-12350978D01*
X13799357Y-12322407D01*
X13799357Y-12065264D01*
X14070786Y-12350978D02*
X14042214Y-12365264D01*
X13985071Y-12365264D01*
X13956500Y-12350978D01*
X13942214Y-12322407D01*
X13942214Y-12208121D01*
X13956500Y-12179550D01*
X13985071Y-12165264D01*
X14042214Y-12165264D01*
X14070786Y-12179550D01*
X14085071Y-12208121D01*
X14085071Y-12236693D01*
X13942214Y-12265264D01*
X14199357Y-12350978D02*
X14227928Y-12365264D01*
X14285071Y-12365264D01*
X14313643Y-12350978D01*
X14327928Y-12322407D01*
X14327928Y-12308121D01*
X14313643Y-12279550D01*
X14285071Y-12265264D01*
X14242214Y-12265264D01*
X14213643Y-12250978D01*
X14199357Y-12222407D01*
X14199357Y-12208121D01*
X14213643Y-12179550D01*
X14242214Y-12165264D01*
X14285071Y-12165264D01*
X14313643Y-12179550D01*
X14427928Y-12479550D02*
X14442214Y-12465264D01*
X14470786Y-12422407D01*
X14485071Y-12393836D01*
X14499357Y-12350978D01*
X14513643Y-12279550D01*
X14513643Y-12222407D01*
X14499357Y-12150978D01*
X14485071Y-12108121D01*
X14470786Y-12079550D01*
X14442214Y-12036693D01*
X14427928Y-12022407D01*
X7916500Y-12600550D02*
X7916500Y-12650550D01*
X7891500Y-12625550D02*
X7941500Y-12625550D01*
X8285071Y-12461264D02*
X8313643Y-12461264D01*
X8342214Y-12475550D01*
X8356500Y-12489836D01*
X8370786Y-12518407D01*
X8385071Y-12575550D01*
X8385071Y-12646978D01*
X8370786Y-12704121D01*
X8356500Y-12732693D01*
X8342214Y-12746978D01*
X8313643Y-12761264D01*
X8285071Y-12761264D01*
X8256500Y-12746978D01*
X8242214Y-12732693D01*
X8227928Y-12704121D01*
X8213643Y-12646978D01*
X8213643Y-12575550D01*
X8227928Y-12518407D01*
X8242214Y-12489836D01*
X8256500Y-12475550D01*
X8285071Y-12461264D01*
X8513643Y-12732693D02*
X8527929Y-12746978D01*
X8513643Y-12761264D01*
X8499357Y-12746978D01*
X8513643Y-12732693D01*
X8513643Y-12761264D01*
X8799357Y-12461264D02*
X8656500Y-12461264D01*
X8642214Y-12604121D01*
X8656500Y-12589836D01*
X8685071Y-12575550D01*
X8756500Y-12575550D01*
X8785071Y-12589836D01*
X8799357Y-12604121D01*
X8813643Y-12632693D01*
X8813643Y-12704121D01*
X8799357Y-12732693D01*
X8785071Y-12746978D01*
X8756500Y-12761264D01*
X8685071Y-12761264D01*
X8656500Y-12746978D01*
X8642214Y-12732693D01*
X8999357Y-12461264D02*
X9027929Y-12461264D01*
X9056500Y-12475550D01*
X9070786Y-12489836D01*
X9085071Y-12518407D01*
X9099357Y-12575550D01*
X9099357Y-12646978D01*
X9085071Y-12704121D01*
X9070786Y-12732693D01*
X9056500Y-12746978D01*
X9027929Y-12761264D01*
X8999357Y-12761264D01*
X8970786Y-12746978D01*
X8956500Y-12732693D01*
X8942214Y-12704121D01*
X8927929Y-12646978D01*
X8927929Y-12575550D01*
X8942214Y-12518407D01*
X8956500Y-12489836D01*
X8970786Y-12475550D01*
X8999357Y-12461264D01*
X9227929Y-12761264D02*
X9227929Y-12561264D01*
X9227929Y-12589836D02*
X9242214Y-12575550D01*
X9270786Y-12561264D01*
X9313643Y-12561264D01*
X9342214Y-12575550D01*
X9356500Y-12604121D01*
X9356500Y-12761264D01*
X9356500Y-12604121D02*
X9370786Y-12575550D01*
X9399357Y-12561264D01*
X9442214Y-12561264D01*
X9470786Y-12575550D01*
X9485071Y-12604121D01*
X9485071Y-12761264D01*
X9627929Y-12761264D02*
X9627929Y-12561264D01*
X9627929Y-12589836D02*
X9642214Y-12575550D01*
X9670786Y-12561264D01*
X9713643Y-12561264D01*
X9742214Y-12575550D01*
X9756500Y-12604121D01*
X9756500Y-12761264D01*
X9756500Y-12604121D02*
X9770786Y-12575550D01*
X9799357Y-12561264D01*
X9842214Y-12561264D01*
X9870786Y-12575550D01*
X9885071Y-12604121D01*
X9885071Y-12761264D01*
X10470786Y-12446978D02*
X10213643Y-12832693D01*
X10856500Y-12461264D02*
X10885071Y-12461264D01*
X10913643Y-12475550D01*
X10927929Y-12489836D01*
X10942214Y-12518407D01*
X10956500Y-12575550D01*
X10956500Y-12646978D01*
X10942214Y-12704121D01*
X10927929Y-12732693D01*
X10913643Y-12746978D01*
X10885071Y-12761264D01*
X10856500Y-12761264D01*
X10827929Y-12746978D01*
X10813643Y-12732693D01*
X10799357Y-12704121D01*
X10785071Y-12646978D01*
X10785071Y-12575550D01*
X10799357Y-12518407D01*
X10813643Y-12489836D01*
X10827929Y-12475550D01*
X10856500Y-12461264D01*
X11085071Y-12732693D02*
X11099357Y-12746978D01*
X11085071Y-12761264D01*
X11070786Y-12746978D01*
X11085071Y-12732693D01*
X11085071Y-12761264D01*
X11285071Y-12461264D02*
X11313643Y-12461264D01*
X11342214Y-12475550D01*
X11356500Y-12489836D01*
X11370786Y-12518407D01*
X11385071Y-12575550D01*
X11385071Y-12646978D01*
X11370786Y-12704121D01*
X11356500Y-12732693D01*
X11342214Y-12746978D01*
X11313643Y-12761264D01*
X11285071Y-12761264D01*
X11256500Y-12746978D01*
X11242214Y-12732693D01*
X11227928Y-12704121D01*
X11213643Y-12646978D01*
X11213643Y-12575550D01*
X11227928Y-12518407D01*
X11242214Y-12489836D01*
X11256500Y-12475550D01*
X11285071Y-12461264D01*
X11499357Y-12489836D02*
X11513643Y-12475550D01*
X11542214Y-12461264D01*
X11613643Y-12461264D01*
X11642214Y-12475550D01*
X11656500Y-12489836D01*
X11670786Y-12518407D01*
X11670786Y-12546978D01*
X11656500Y-12589836D01*
X11485071Y-12761264D01*
X11670786Y-12761264D01*
X11856500Y-12461264D02*
X11885071Y-12461264D01*
X11913643Y-12475550D01*
X11927928Y-12489836D01*
X11942214Y-12518407D01*
X11956500Y-12575550D01*
X11956500Y-12646978D01*
X11942214Y-12704121D01*
X11927928Y-12732693D01*
X11913643Y-12746978D01*
X11885071Y-12761264D01*
X11856500Y-12761264D01*
X11827928Y-12746978D01*
X11813643Y-12732693D01*
X11799357Y-12704121D01*
X11785071Y-12646978D01*
X11785071Y-12575550D01*
X11799357Y-12518407D01*
X11813643Y-12489836D01*
X11827928Y-12475550D01*
X11856500Y-12461264D01*
X12070786Y-12461264D02*
X12070786Y-12518407D01*
X12185071Y-12461264D02*
X12185071Y-12518407D01*
X12627928Y-12875550D02*
X12613643Y-12861264D01*
X12585071Y-12818407D01*
X12570786Y-12789836D01*
X12556500Y-12746978D01*
X12542214Y-12675550D01*
X12542214Y-12618407D01*
X12556500Y-12546978D01*
X12570786Y-12504121D01*
X12585071Y-12475550D01*
X12613643Y-12432693D01*
X12627928Y-12418407D01*
X12756500Y-12761264D02*
X12813643Y-12761264D01*
X12842214Y-12746978D01*
X12856500Y-12732693D01*
X12885071Y-12689836D01*
X12899357Y-12632693D01*
X12899357Y-12518407D01*
X12885071Y-12489836D01*
X12870786Y-12475550D01*
X12842214Y-12461264D01*
X12785071Y-12461264D01*
X12756500Y-12475550D01*
X12742214Y-12489836D01*
X12727928Y-12518407D01*
X12727928Y-12589836D01*
X12742214Y-12618407D01*
X12756500Y-12632693D01*
X12785071Y-12646978D01*
X12842214Y-12646978D01*
X12870786Y-12632693D01*
X12885071Y-12618407D01*
X12899357Y-12589836D01*
X13256500Y-12761264D02*
X13256500Y-12461264D01*
X13385071Y-12761264D02*
X13385071Y-12604121D01*
X13370786Y-12575550D01*
X13342214Y-12561264D01*
X13299357Y-12561264D01*
X13270786Y-12575550D01*
X13256500Y-12589836D01*
X13570786Y-12761264D02*
X13542214Y-12746978D01*
X13527928Y-12732693D01*
X13513643Y-12704121D01*
X13513643Y-12618407D01*
X13527928Y-12589836D01*
X13542214Y-12575550D01*
X13570786Y-12561264D01*
X13613643Y-12561264D01*
X13642214Y-12575550D01*
X13656500Y-12589836D01*
X13670786Y-12618407D01*
X13670786Y-12704121D01*
X13656500Y-12732693D01*
X13642214Y-12746978D01*
X13613643Y-12761264D01*
X13570786Y-12761264D01*
X13842214Y-12761264D02*
X13813643Y-12746978D01*
X13799357Y-12718407D01*
X13799357Y-12461264D01*
X14070786Y-12746978D02*
X14042214Y-12761264D01*
X13985071Y-12761264D01*
X13956500Y-12746978D01*
X13942214Y-12718407D01*
X13942214Y-12604121D01*
X13956500Y-12575550D01*
X13985071Y-12561264D01*
X14042214Y-12561264D01*
X14070786Y-12575550D01*
X14085071Y-12604121D01*
X14085071Y-12632693D01*
X13942214Y-12661264D01*
X14199357Y-12746978D02*
X14227928Y-12761264D01*
X14285071Y-12761264D01*
X14313643Y-12746978D01*
X14327928Y-12718407D01*
X14327928Y-12704121D01*
X14313643Y-12675550D01*
X14285071Y-12661264D01*
X14242214Y-12661264D01*
X14213643Y-12646978D01*
X14199357Y-12618407D01*
X14199357Y-12604121D01*
X14213643Y-12575550D01*
X14242214Y-12561264D01*
X14285071Y-12561264D01*
X14313643Y-12575550D01*
X14427928Y-12875550D02*
X14442214Y-12861264D01*
X14470786Y-12818407D01*
X14485071Y-12789836D01*
X14499357Y-12746978D01*
X14513643Y-12675550D01*
X14513643Y-12618407D01*
X14499357Y-12546978D01*
X14485071Y-12504121D01*
X14470786Y-12475550D01*
X14442214Y-12432693D01*
X14427928Y-12418407D01*
X7929784Y-13049834D02*
X7929784Y-12993265D01*
X7873215Y-12993265D01*
X7873215Y-13049834D01*
X7929784Y-13049834D01*
X8285071Y-12857264D02*
X8313643Y-12857264D01*
X8342214Y-12871550D01*
X8356500Y-12885836D01*
X8370786Y-12914407D01*
X8385071Y-12971550D01*
X8385071Y-13042978D01*
X8370786Y-13100121D01*
X8356500Y-13128693D01*
X8342214Y-13142978D01*
X8313643Y-13157264D01*
X8285071Y-13157264D01*
X8256500Y-13142978D01*
X8242214Y-13128693D01*
X8227928Y-13100121D01*
X8213643Y-13042978D01*
X8213643Y-12971550D01*
X8227928Y-12914407D01*
X8242214Y-12885836D01*
X8256500Y-12871550D01*
X8285071Y-12857264D01*
X8513643Y-13128693D02*
X8527929Y-13142978D01*
X8513643Y-13157264D01*
X8499357Y-13142978D01*
X8513643Y-13128693D01*
X8513643Y-13157264D01*
X8699357Y-12985836D02*
X8670786Y-12971550D01*
X8656500Y-12957264D01*
X8642214Y-12928693D01*
X8642214Y-12914407D01*
X8656500Y-12885836D01*
X8670786Y-12871550D01*
X8699357Y-12857264D01*
X8756500Y-12857264D01*
X8785071Y-12871550D01*
X8799357Y-12885836D01*
X8813643Y-12914407D01*
X8813643Y-12928693D01*
X8799357Y-12957264D01*
X8785071Y-12971550D01*
X8756500Y-12985836D01*
X8699357Y-12985836D01*
X8670786Y-13000121D01*
X8656500Y-13014407D01*
X8642214Y-13042978D01*
X8642214Y-13100121D01*
X8656500Y-13128693D01*
X8670786Y-13142978D01*
X8699357Y-13157264D01*
X8756500Y-13157264D01*
X8785071Y-13142978D01*
X8799357Y-13128693D01*
X8813643Y-13100121D01*
X8813643Y-13042978D01*
X8799357Y-13014407D01*
X8785071Y-13000121D01*
X8756500Y-12985836D01*
X8999357Y-12857264D02*
X9027929Y-12857264D01*
X9056500Y-12871550D01*
X9070786Y-12885836D01*
X9085071Y-12914407D01*
X9099357Y-12971550D01*
X9099357Y-13042978D01*
X9085071Y-13100121D01*
X9070786Y-13128693D01*
X9056500Y-13142978D01*
X9027929Y-13157264D01*
X8999357Y-13157264D01*
X8970786Y-13142978D01*
X8956500Y-13128693D01*
X8942214Y-13100121D01*
X8927929Y-13042978D01*
X8927929Y-12971550D01*
X8942214Y-12914407D01*
X8956500Y-12885836D01*
X8970786Y-12871550D01*
X8999357Y-12857264D01*
X9227929Y-13157264D02*
X9227929Y-12957264D01*
X9227929Y-12985836D02*
X9242214Y-12971550D01*
X9270786Y-12957264D01*
X9313643Y-12957264D01*
X9342214Y-12971550D01*
X9356500Y-13000121D01*
X9356500Y-13157264D01*
X9356500Y-13000121D02*
X9370786Y-12971550D01*
X9399357Y-12957264D01*
X9442214Y-12957264D01*
X9470786Y-12971550D01*
X9485071Y-13000121D01*
X9485071Y-13157264D01*
X9627929Y-13157264D02*
X9627929Y-12957264D01*
X9627929Y-12985836D02*
X9642214Y-12971550D01*
X9670786Y-12957264D01*
X9713643Y-12957264D01*
X9742214Y-12971550D01*
X9756500Y-13000121D01*
X9756500Y-13157264D01*
X9756500Y-13000121D02*
X9770786Y-12971550D01*
X9799357Y-12957264D01*
X9842214Y-12957264D01*
X9870786Y-12971550D01*
X9885071Y-13000121D01*
X9885071Y-13157264D01*
X10470786Y-12842978D02*
X10213643Y-13228693D01*
X10856500Y-12857264D02*
X10885071Y-12857264D01*
X10913643Y-12871550D01*
X10927929Y-12885836D01*
X10942214Y-12914407D01*
X10956500Y-12971550D01*
X10956500Y-13042978D01*
X10942214Y-13100121D01*
X10927929Y-13128693D01*
X10913643Y-13142978D01*
X10885071Y-13157264D01*
X10856500Y-13157264D01*
X10827929Y-13142978D01*
X10813643Y-13128693D01*
X10799357Y-13100121D01*
X10785071Y-13042978D01*
X10785071Y-12971550D01*
X10799357Y-12914407D01*
X10813643Y-12885836D01*
X10827929Y-12871550D01*
X10856500Y-12857264D01*
X11085071Y-13128693D02*
X11099357Y-13142978D01*
X11085071Y-13157264D01*
X11070786Y-13142978D01*
X11085071Y-13128693D01*
X11085071Y-13157264D01*
X11285071Y-12857264D02*
X11313643Y-12857264D01*
X11342214Y-12871550D01*
X11356500Y-12885836D01*
X11370786Y-12914407D01*
X11385071Y-12971550D01*
X11385071Y-13042978D01*
X11370786Y-13100121D01*
X11356500Y-13128693D01*
X11342214Y-13142978D01*
X11313643Y-13157264D01*
X11285071Y-13157264D01*
X11256500Y-13142978D01*
X11242214Y-13128693D01*
X11227928Y-13100121D01*
X11213643Y-13042978D01*
X11213643Y-12971550D01*
X11227928Y-12914407D01*
X11242214Y-12885836D01*
X11256500Y-12871550D01*
X11285071Y-12857264D01*
X11485071Y-12857264D02*
X11670786Y-12857264D01*
X11570786Y-12971550D01*
X11613643Y-12971550D01*
X11642214Y-12985836D01*
X11656500Y-13000121D01*
X11670786Y-13028693D01*
X11670786Y-13100121D01*
X11656500Y-13128693D01*
X11642214Y-13142978D01*
X11613643Y-13157264D01*
X11527928Y-13157264D01*
X11499357Y-13142978D01*
X11485071Y-13128693D01*
X11956500Y-13157264D02*
X11785071Y-13157264D01*
X11870786Y-13157264D02*
X11870786Y-12857264D01*
X11842214Y-12900121D01*
X11813643Y-12928693D01*
X11785071Y-12942978D01*
X12070786Y-12857264D02*
X12070786Y-12914407D01*
X12185071Y-12857264D02*
X12185071Y-12914407D01*
X12627928Y-13271550D02*
X12613643Y-13257264D01*
X12585071Y-13214407D01*
X12570786Y-13185836D01*
X12556500Y-13142978D01*
X12542214Y-13071550D01*
X12542214Y-13014407D01*
X12556500Y-12942978D01*
X12570786Y-12900121D01*
X12585071Y-12871550D01*
X12613643Y-12828693D01*
X12627928Y-12814407D01*
X12870786Y-12957264D02*
X12870786Y-13157264D01*
X12799357Y-12842978D02*
X12727928Y-13057264D01*
X12913643Y-13057264D01*
X13070786Y-12985836D02*
X13042214Y-12971550D01*
X13027928Y-12957264D01*
X13013643Y-12928693D01*
X13013643Y-12914407D01*
X13027928Y-12885836D01*
X13042214Y-12871550D01*
X13070786Y-12857264D01*
X13127928Y-12857264D01*
X13156500Y-12871550D01*
X13170786Y-12885836D01*
X13185071Y-12914407D01*
X13185071Y-12928693D01*
X13170786Y-12957264D01*
X13156500Y-12971550D01*
X13127928Y-12985836D01*
X13070786Y-12985836D01*
X13042214Y-13000121D01*
X13027928Y-13014407D01*
X13013643Y-13042978D01*
X13013643Y-13100121D01*
X13027928Y-13128693D01*
X13042214Y-13142978D01*
X13070786Y-13157264D01*
X13127928Y-13157264D01*
X13156500Y-13142978D01*
X13170786Y-13128693D01*
X13185071Y-13100121D01*
X13185071Y-13042978D01*
X13170786Y-13014407D01*
X13156500Y-13000121D01*
X13127928Y-12985836D01*
X13542214Y-13157264D02*
X13542214Y-12857264D01*
X13670786Y-13157264D02*
X13670786Y-13000121D01*
X13656500Y-12971550D01*
X13627928Y-12957264D01*
X13585071Y-12957264D01*
X13556500Y-12971550D01*
X13542214Y-12985836D01*
X13856500Y-13157264D02*
X13827928Y-13142978D01*
X13813643Y-13128693D01*
X13799357Y-13100121D01*
X13799357Y-13014407D01*
X13813643Y-12985836D01*
X13827928Y-12971550D01*
X13856500Y-12957264D01*
X13899357Y-12957264D01*
X13927928Y-12971550D01*
X13942214Y-12985836D01*
X13956500Y-13014407D01*
X13956500Y-13100121D01*
X13942214Y-13128693D01*
X13927928Y-13142978D01*
X13899357Y-13157264D01*
X13856500Y-13157264D01*
X14127928Y-13157264D02*
X14099357Y-13142978D01*
X14085071Y-13114407D01*
X14085071Y-12857264D01*
X14356500Y-13142978D02*
X14327928Y-13157264D01*
X14270786Y-13157264D01*
X14242214Y-13142978D01*
X14227928Y-13114407D01*
X14227928Y-13000121D01*
X14242214Y-12971550D01*
X14270786Y-12957264D01*
X14327928Y-12957264D01*
X14356500Y-12971550D01*
X14370786Y-13000121D01*
X14370786Y-13028693D01*
X14227928Y-13057264D01*
X14485071Y-13142978D02*
X14513643Y-13157264D01*
X14570786Y-13157264D01*
X14599357Y-13142978D01*
X14613643Y-13114407D01*
X14613643Y-13100121D01*
X14599357Y-13071550D01*
X14570786Y-13057264D01*
X14527928Y-13057264D01*
X14499357Y-13042978D01*
X14485071Y-13014407D01*
X14485071Y-13000121D01*
X14499357Y-12971550D01*
X14527928Y-12957264D01*
X14570786Y-12957264D01*
X14599357Y-12971550D01*
X14713643Y-13271550D02*
X14727928Y-13257264D01*
X14756500Y-13214407D01*
X14770786Y-13185836D01*
X14785071Y-13142978D01*
X14799357Y-13071550D01*
X14799357Y-13014407D01*
X14785071Y-12942978D01*
X14770786Y-12900121D01*
X14756500Y-12871550D01*
X14727928Y-12828693D01*
X14713643Y-12814407D01*
X7891500Y-13467550D02*
X7941500Y-13417550D01*
X7891500Y-13367550D01*
X7841500Y-13417550D01*
X7891500Y-13467550D01*
X8385071Y-13553264D02*
X8213643Y-13553264D01*
X8299357Y-13553264D02*
X8299357Y-13253264D01*
X8270786Y-13296121D01*
X8242214Y-13324693D01*
X8213643Y-13338978D01*
X8513643Y-13524693D02*
X8527929Y-13538978D01*
X8513643Y-13553264D01*
X8499357Y-13538978D01*
X8513643Y-13524693D01*
X8513643Y-13553264D01*
X8713643Y-13253264D02*
X8742214Y-13253264D01*
X8770786Y-13267550D01*
X8785071Y-13281836D01*
X8799357Y-13310407D01*
X8813643Y-13367550D01*
X8813643Y-13438978D01*
X8799357Y-13496121D01*
X8785071Y-13524693D01*
X8770786Y-13538978D01*
X8742214Y-13553264D01*
X8713643Y-13553264D01*
X8685071Y-13538978D01*
X8670786Y-13524693D01*
X8656500Y-13496121D01*
X8642214Y-13438978D01*
X8642214Y-13367550D01*
X8656500Y-13310407D01*
X8670786Y-13281836D01*
X8685071Y-13267550D01*
X8713643Y-13253264D01*
X8999357Y-13253264D02*
X9027929Y-13253264D01*
X9056500Y-13267550D01*
X9070786Y-13281836D01*
X9085071Y-13310407D01*
X9099357Y-13367550D01*
X9099357Y-13438978D01*
X9085071Y-13496121D01*
X9070786Y-13524693D01*
X9056500Y-13538978D01*
X9027929Y-13553264D01*
X8999357Y-13553264D01*
X8970786Y-13538978D01*
X8956500Y-13524693D01*
X8942214Y-13496121D01*
X8927929Y-13438978D01*
X8927929Y-13367550D01*
X8942214Y-13310407D01*
X8956500Y-13281836D01*
X8970786Y-13267550D01*
X8999357Y-13253264D01*
X9227929Y-13553264D02*
X9227929Y-13353264D01*
X9227929Y-13381836D02*
X9242214Y-13367550D01*
X9270786Y-13353264D01*
X9313643Y-13353264D01*
X9342214Y-13367550D01*
X9356500Y-13396121D01*
X9356500Y-13553264D01*
X9356500Y-13396121D02*
X9370786Y-13367550D01*
X9399357Y-13353264D01*
X9442214Y-13353264D01*
X9470786Y-13367550D01*
X9485071Y-13396121D01*
X9485071Y-13553264D01*
X9627929Y-13553264D02*
X9627929Y-13353264D01*
X9627929Y-13381836D02*
X9642214Y-13367550D01*
X9670786Y-13353264D01*
X9713643Y-13353264D01*
X9742214Y-13367550D01*
X9756500Y-13396121D01*
X9756500Y-13553264D01*
X9756500Y-13396121D02*
X9770786Y-13367550D01*
X9799357Y-13353264D01*
X9842214Y-13353264D01*
X9870786Y-13367550D01*
X9885071Y-13396121D01*
X9885071Y-13553264D01*
X10470786Y-13238978D02*
X10213643Y-13624693D01*
X10856500Y-13253264D02*
X10885071Y-13253264D01*
X10913643Y-13267550D01*
X10927929Y-13281836D01*
X10942214Y-13310407D01*
X10956500Y-13367550D01*
X10956500Y-13438978D01*
X10942214Y-13496121D01*
X10927929Y-13524693D01*
X10913643Y-13538978D01*
X10885071Y-13553264D01*
X10856500Y-13553264D01*
X10827929Y-13538978D01*
X10813643Y-13524693D01*
X10799357Y-13496121D01*
X10785071Y-13438978D01*
X10785071Y-13367550D01*
X10799357Y-13310407D01*
X10813643Y-13281836D01*
X10827929Y-13267550D01*
X10856500Y-13253264D01*
X11085071Y-13524693D02*
X11099357Y-13538978D01*
X11085071Y-13553264D01*
X11070786Y-13538978D01*
X11085071Y-13524693D01*
X11085071Y-13553264D01*
X11285071Y-13253264D02*
X11313643Y-13253264D01*
X11342214Y-13267550D01*
X11356500Y-13281836D01*
X11370786Y-13310407D01*
X11385071Y-13367550D01*
X11385071Y-13438978D01*
X11370786Y-13496121D01*
X11356500Y-13524693D01*
X11342214Y-13538978D01*
X11313643Y-13553264D01*
X11285071Y-13553264D01*
X11256500Y-13538978D01*
X11242214Y-13524693D01*
X11227928Y-13496121D01*
X11213643Y-13438978D01*
X11213643Y-13367550D01*
X11227928Y-13310407D01*
X11242214Y-13281836D01*
X11256500Y-13267550D01*
X11285071Y-13253264D01*
X11485071Y-13253264D02*
X11670786Y-13253264D01*
X11570786Y-13367550D01*
X11613643Y-13367550D01*
X11642214Y-13381836D01*
X11656500Y-13396121D01*
X11670786Y-13424693D01*
X11670786Y-13496121D01*
X11656500Y-13524693D01*
X11642214Y-13538978D01*
X11613643Y-13553264D01*
X11527928Y-13553264D01*
X11499357Y-13538978D01*
X11485071Y-13524693D01*
X11813643Y-13553264D02*
X11870786Y-13553264D01*
X11899357Y-13538978D01*
X11913643Y-13524693D01*
X11942214Y-13481836D01*
X11956500Y-13424693D01*
X11956500Y-13310407D01*
X11942214Y-13281836D01*
X11927928Y-13267550D01*
X11899357Y-13253264D01*
X11842214Y-13253264D01*
X11813643Y-13267550D01*
X11799357Y-13281836D01*
X11785071Y-13310407D01*
X11785071Y-13381836D01*
X11799357Y-13410407D01*
X11813643Y-13424693D01*
X11842214Y-13438978D01*
X11899357Y-13438978D01*
X11927928Y-13424693D01*
X11942214Y-13410407D01*
X11956500Y-13381836D01*
X12070786Y-13253264D02*
X12070786Y-13310407D01*
X12185071Y-13253264D02*
X12185071Y-13310407D01*
X12627928Y-13667550D02*
X12613643Y-13653264D01*
X12585071Y-13610407D01*
X12570786Y-13581836D01*
X12556500Y-13538978D01*
X12542214Y-13467550D01*
X12542214Y-13410407D01*
X12556500Y-13338978D01*
X12570786Y-13296121D01*
X12585071Y-13267550D01*
X12613643Y-13224693D01*
X12627928Y-13210407D01*
X12870786Y-13253264D02*
X12813643Y-13253264D01*
X12785071Y-13267550D01*
X12770786Y-13281836D01*
X12742214Y-13324693D01*
X12727928Y-13381836D01*
X12727928Y-13496121D01*
X12742214Y-13524693D01*
X12756500Y-13538978D01*
X12785071Y-13553264D01*
X12842214Y-13553264D01*
X12870786Y-13538978D01*
X12885071Y-13524693D01*
X12899357Y-13496121D01*
X12899357Y-13424693D01*
X12885071Y-13396121D01*
X12870786Y-13381836D01*
X12842214Y-13367550D01*
X12785071Y-13367550D01*
X12756500Y-13381836D01*
X12742214Y-13396121D01*
X12727928Y-13424693D01*
X13256500Y-13553264D02*
X13256500Y-13253264D01*
X13385071Y-13553264D02*
X13385071Y-13396121D01*
X13370786Y-13367550D01*
X13342214Y-13353264D01*
X13299357Y-13353264D01*
X13270786Y-13367550D01*
X13256500Y-13381836D01*
X13570786Y-13553264D02*
X13542214Y-13538978D01*
X13527928Y-13524693D01*
X13513643Y-13496121D01*
X13513643Y-13410407D01*
X13527928Y-13381836D01*
X13542214Y-13367550D01*
X13570786Y-13353264D01*
X13613643Y-13353264D01*
X13642214Y-13367550D01*
X13656500Y-13381836D01*
X13670786Y-13410407D01*
X13670786Y-13496121D01*
X13656500Y-13524693D01*
X13642214Y-13538978D01*
X13613643Y-13553264D01*
X13570786Y-13553264D01*
X13842214Y-13553264D02*
X13813643Y-13538978D01*
X13799357Y-13510407D01*
X13799357Y-13253264D01*
X14070786Y-13538978D02*
X14042214Y-13553264D01*
X13985071Y-13553264D01*
X13956500Y-13538978D01*
X13942214Y-13510407D01*
X13942214Y-13396121D01*
X13956500Y-13367550D01*
X13985071Y-13353264D01*
X14042214Y-13353264D01*
X14070786Y-13367550D01*
X14085071Y-13396121D01*
X14085071Y-13424693D01*
X13942214Y-13453264D01*
X14199357Y-13538978D02*
X14227928Y-13553264D01*
X14285071Y-13553264D01*
X14313643Y-13538978D01*
X14327928Y-13510407D01*
X14327928Y-13496121D01*
X14313643Y-13467550D01*
X14285071Y-13453264D01*
X14242214Y-13453264D01*
X14213643Y-13438978D01*
X14199357Y-13410407D01*
X14199357Y-13396121D01*
X14213643Y-13367550D01*
X14242214Y-13353264D01*
X14285071Y-13353264D01*
X14313643Y-13367550D01*
X14427928Y-13667550D02*
X14442214Y-13653264D01*
X14470786Y-13610407D01*
X14485071Y-13581836D01*
X14499357Y-13538978D01*
X14513643Y-13467550D01*
X14513643Y-13410407D01*
X14499357Y-13338978D01*
X14485071Y-13296121D01*
X14470786Y-13267550D01*
X14442214Y-13224693D01*
X14427928Y-13210407D01*
M02*
