G04 #@! TF.GenerationSoftware,KiCad,Pcbnew,(5.1.5)-3*
G04 #@! TF.CreationDate,2021-01-01T17:19:35-05:00*
G04 #@! TF.ProjectId,DIP48-XC9572XL,44495034-382d-4584-9339-353732584c2e,1*
G04 #@! TF.SameCoordinates,Original*
G04 #@! TF.FileFunction,Copper,L1,Top*
G04 #@! TF.FilePolarity,Positive*
%FSLAX46Y46*%
G04 Gerber Fmt 4.6, Leading zero omitted, Abs format (unit mm)*
G04 Created by KiCad (PCBNEW (5.1.5)-3) date 2021-01-01 17:19:35*
%MOMM*%
%LPD*%
G04 APERTURE LIST*
%ADD10R,1.700000X1.700000*%
%ADD11O,1.700000X1.700000*%
%ADD12R,1.600000X1.600000*%
%ADD13O,1.600000X1.600000*%
%ADD14R,2.510000X1.000000*%
%ADD15C,0.350000*%
%ADD16C,0.500000*%
%ADD17C,0.800000*%
%ADD18C,0.588000*%
%ADD19C,0.295000*%
%ADD20C,0.238000*%
G04 APERTURE END LIST*
D10*
X85750400Y-105943400D03*
D11*
X85750400Y-103403400D03*
X88290400Y-105943400D03*
X88290400Y-103403400D03*
X90830400Y-103403400D03*
X93370400Y-103403400D03*
D12*
X81915000Y-47815500D03*
D13*
X97155000Y-106235500D03*
X81915000Y-50355500D03*
X97155000Y-103695500D03*
X81915000Y-52895500D03*
X97155000Y-101155500D03*
X81915000Y-55435500D03*
X97155000Y-98615500D03*
X81915000Y-57975500D03*
X97155000Y-96075500D03*
X81915000Y-60515500D03*
X97155000Y-93535500D03*
X81915000Y-63055500D03*
X97155000Y-90995500D03*
X81915000Y-65595500D03*
X97155000Y-88455500D03*
X81915000Y-68135500D03*
X97155000Y-85915500D03*
X81915000Y-70675500D03*
X97155000Y-83375500D03*
X81915000Y-73215500D03*
X97155000Y-80835500D03*
X81915000Y-75755500D03*
X97155000Y-78295500D03*
X81915000Y-78295500D03*
X97155000Y-75755500D03*
X81915000Y-80835500D03*
X97155000Y-73215500D03*
X81915000Y-83375500D03*
X97155000Y-70675500D03*
X81915000Y-85915500D03*
X97155000Y-68135500D03*
X81915000Y-88455500D03*
X97155000Y-65595500D03*
X81915000Y-90995500D03*
X97155000Y-63055500D03*
X81915000Y-93535500D03*
X97155000Y-60515500D03*
X81915000Y-96075500D03*
X97155000Y-57975500D03*
X81915000Y-98615500D03*
X97155000Y-55435500D03*
X81915000Y-101155500D03*
X97155000Y-52895500D03*
X81915000Y-103695500D03*
X97155000Y-50355500D03*
X81915000Y-106235500D03*
X97155000Y-47815500D03*
D14*
X91190000Y-82105500D03*
X91190000Y-77025500D03*
X91190000Y-71945500D03*
X87880000Y-84645500D03*
X87880000Y-79565500D03*
X87880000Y-74485500D03*
X87880000Y-69405500D03*
D15*
X88912700Y-74244200D03*
D16*
X86360000Y-49140000D03*
X90830400Y-55194200D03*
D17*
X90322400Y-86702900D03*
D15*
X88201500Y-95885000D03*
D17*
X86220300Y-60642500D03*
D15*
X85375750Y-76930250D03*
D17*
X88205000Y-92075000D03*
D15*
X87965641Y-77286759D03*
X87922100Y-73050400D03*
X92989400Y-81330800D03*
X91884261Y-79692739D03*
X85407500Y-47434500D03*
X90106500Y-47561500D03*
X95313500Y-49212500D03*
X93472000Y-54864000D03*
X92011500Y-60769500D03*
X90551000Y-64135000D03*
X91313000Y-74422000D03*
X89471500Y-98615500D03*
X93154500Y-99758500D03*
X91122500Y-100647500D03*
X86868000Y-102044500D03*
X87122000Y-104584500D03*
X89535000Y-104902000D03*
X86804500Y-53403500D03*
X90678000Y-52070000D03*
X87181750Y-51311750D03*
X87122000Y-67500500D03*
X94170500Y-68326000D03*
X95313500Y-63500000D03*
X95504000Y-88011000D03*
X94615000Y-87185500D03*
X84518500Y-94107000D03*
X84455000Y-97536000D03*
X93789500Y-84137500D03*
X96266000Y-82042000D03*
X85407500Y-74930000D03*
X84836000Y-70231000D03*
X83439000Y-63436500D03*
X83121500Y-66484500D03*
X83883500Y-53403500D03*
X83439000Y-55689500D03*
X83248500Y-57848500D03*
D16*
X92710000Y-49140000D03*
D15*
X84968090Y-78773010D03*
D17*
X88268700Y-86702900D03*
D15*
X93747090Y-74277990D03*
D17*
X90195400Y-79603600D03*
X90208100Y-75323700D03*
D15*
X88815857Y-72829743D03*
X88404700Y-78295500D03*
D16*
X89535000Y-57785000D03*
D15*
X93789500Y-78193900D03*
X94538800Y-83807300D03*
X93941900Y-79057500D03*
X95453200Y-82804000D03*
D17*
X89496900Y-92075000D03*
D15*
X93728801Y-76628999D03*
X93853000Y-75984100D03*
X85242400Y-79298800D03*
X93192600Y-75526900D03*
X85752201Y-79652599D03*
X86055200Y-80289400D03*
X86283800Y-80975200D03*
D17*
X89496900Y-95885000D03*
X85242400Y-100457000D03*
D15*
X91287600Y-80086200D03*
X93726000Y-81635600D03*
X92671900Y-74155300D03*
X88557100Y-79832200D03*
X93319600Y-69418200D03*
X87020400Y-99720400D03*
X87096600Y-81140300D03*
X87744300Y-99593400D03*
X86702900Y-87210900D03*
D16*
X89535000Y-53975000D03*
D18*
X87060000Y-49140000D02*
X88265000Y-50345000D01*
X86360000Y-49140000D02*
X87060000Y-49140000D01*
X88265000Y-54508400D02*
X88950800Y-55194200D01*
X88265000Y-50345000D02*
X88265000Y-54508400D01*
X88950800Y-55194200D02*
X90830400Y-55194200D01*
X90830400Y-55194200D02*
X90830400Y-55194200D01*
X84312400Y-105943400D02*
X83896200Y-105527200D01*
X85750400Y-105943400D02*
X84312400Y-105943400D01*
X83896200Y-105527200D02*
X83896200Y-100190300D01*
X83896200Y-100190300D02*
X88201500Y-95885000D01*
X88201500Y-95885000D02*
X88201500Y-95885000D01*
X87880000Y-84645500D02*
X88265000Y-84645500D01*
X90322400Y-86702900D02*
X90322400Y-87782400D01*
X88205000Y-89899800D02*
X88205000Y-92075000D01*
X90322400Y-87782400D02*
X88205000Y-89899800D01*
X92989400Y-84035900D02*
X92989400Y-81978500D01*
X90690700Y-86220300D02*
X90716100Y-86245700D01*
X89839800Y-86220300D02*
X90690700Y-86220300D01*
X88265000Y-84645500D02*
X89839800Y-86220300D01*
X90716100Y-86245700D02*
X92989400Y-84035900D01*
X89839800Y-86220300D02*
X90322400Y-86702900D01*
X90322400Y-86702900D02*
X90716100Y-86245700D01*
X85820301Y-61042499D02*
X85820301Y-61067899D01*
X86220300Y-60642500D02*
X85820301Y-61042499D01*
X85820301Y-61067899D02*
X84289900Y-62598300D01*
X84289900Y-75844400D02*
X85375750Y-76930250D01*
X87609132Y-76930250D02*
X87965641Y-77286759D01*
X85375750Y-76930250D02*
X87609132Y-76930250D01*
X87747101Y-73225399D02*
X86248501Y-73225399D01*
X87922100Y-73050400D02*
X87747101Y-73225399D01*
X86248501Y-73225399D02*
X86238602Y-73215500D01*
X84797900Y-73215500D02*
X84302600Y-72720200D01*
X84975700Y-73215500D02*
X84797900Y-73215500D01*
X86238602Y-73215500D02*
X84975700Y-73215500D01*
X84289900Y-62598300D02*
X84302600Y-72720200D01*
X84302600Y-72720200D02*
X84289900Y-73215500D01*
X84289900Y-73634600D02*
X84683600Y-73240900D01*
X84289900Y-73850500D02*
X84289900Y-73634600D01*
X84289900Y-73215500D02*
X84289900Y-73850500D01*
X84975700Y-73215500D02*
X84683600Y-73240900D01*
X84289900Y-73850500D02*
X84289900Y-75844400D01*
X84683600Y-73240900D02*
X84289900Y-73215500D01*
X92989400Y-81978500D02*
X92989400Y-81330800D01*
X88213128Y-77286759D02*
X87965641Y-77286759D01*
X88807057Y-77286759D02*
X88213128Y-77286759D01*
X92989400Y-81330800D02*
X92989400Y-81263899D01*
X92659200Y-80467678D02*
X91884261Y-79692739D01*
X92989400Y-81263899D02*
X92659200Y-80933699D01*
X90082498Y-78562200D02*
X88807057Y-77286759D01*
X90753722Y-78562200D02*
X90082498Y-78562200D01*
X92659200Y-80933699D02*
X92659200Y-80467678D01*
X91884261Y-79692739D02*
X90753722Y-78562200D01*
D19*
X85215577Y-78773010D02*
X85693087Y-78295500D01*
X84968090Y-78773010D02*
X85215577Y-78773010D01*
X85693087Y-78295500D02*
X88404700Y-78295500D01*
D18*
X92819522Y-105943400D02*
X94729300Y-104033622D01*
X88290400Y-105943400D02*
X92819522Y-105943400D01*
X94729300Y-104033622D02*
X94729300Y-100990400D01*
X94729300Y-99794278D02*
X89865200Y-94930178D01*
X94729300Y-100990400D02*
X94729300Y-99794278D01*
X89865200Y-94930178D02*
X88084878Y-94930178D01*
X88084878Y-94930178D02*
X87287100Y-94132400D01*
X87287100Y-94132400D02*
X87287100Y-89598500D01*
X87287100Y-89598500D02*
X87287100Y-87668100D01*
X87287100Y-87668100D02*
X88252300Y-86702900D01*
X86130999Y-85540701D02*
X86130999Y-83922001D01*
X88268700Y-86702900D02*
X87293198Y-86702900D01*
X87293198Y-86702900D02*
X86130999Y-85540701D01*
X86130999Y-83922001D02*
X86715600Y-83337400D01*
X86715600Y-83337400D02*
X86715600Y-82821284D01*
X86715600Y-82821284D02*
X87858600Y-81678284D01*
X87371901Y-86781603D02*
X86130999Y-85540701D01*
X87371901Y-87532021D02*
X87371901Y-86781603D01*
X87287100Y-87616822D02*
X87371901Y-87532021D01*
X87287100Y-87668100D02*
X87287100Y-87616822D01*
X87858600Y-81678284D02*
X87858600Y-81673700D01*
X87858600Y-81673700D02*
X88684100Y-80848200D01*
X90195400Y-79603600D02*
X90195400Y-79603600D01*
X89516485Y-80848200D02*
X90195400Y-80169285D01*
X90195400Y-80169285D02*
X90195400Y-79603600D01*
X88684100Y-80848200D02*
X89516485Y-80848200D01*
X92710000Y-49140000D02*
X92010000Y-49140000D01*
X91782900Y-49367100D02*
X91782900Y-59143900D01*
X92010000Y-49140000D02*
X91782900Y-49367100D01*
X86385615Y-70399501D02*
X88815857Y-72829743D01*
X90208100Y-74221986D02*
X90208100Y-75323700D01*
X90208100Y-75323700D02*
X90208100Y-75323700D01*
X86229799Y-70399501D02*
X85712300Y-69882002D01*
X86385615Y-70399501D02*
X86229799Y-70399501D01*
X85712300Y-65214500D02*
X91782900Y-59143900D01*
X85712300Y-69882002D02*
X85712300Y-65214500D01*
X88815857Y-72829743D02*
X90208100Y-74221986D01*
D19*
X88404700Y-78295500D02*
X88404700Y-78295500D01*
X90773785Y-75323700D02*
X90208100Y-75323700D01*
X92453893Y-75323700D02*
X90773785Y-75323700D01*
X93499603Y-74277990D02*
X92453893Y-75323700D01*
X93747090Y-74277990D02*
X93499603Y-74277990D01*
D18*
X83303000Y-47815500D02*
X86029800Y-50542300D01*
X81915000Y-47815500D02*
X83303000Y-47815500D01*
X86029800Y-50542300D02*
X86029800Y-54254400D01*
X86029800Y-54254400D02*
X87884000Y-56108600D01*
X87884000Y-56108600D02*
X88900000Y-56108600D01*
X88900000Y-56108600D02*
X89535000Y-56743600D01*
X89535000Y-56743600D02*
X89535000Y-57785000D01*
X89535000Y-57785000D02*
X89535000Y-57785000D01*
D19*
X93419399Y-79308301D02*
X94248098Y-80137000D01*
X93789500Y-78193900D02*
X93419399Y-78564001D01*
X93419399Y-78564001D02*
X93419399Y-79308301D01*
X94248098Y-80137000D02*
X94259400Y-80137000D01*
X94259400Y-80137000D02*
X94538800Y-80416400D01*
X94538800Y-80416400D02*
X94538800Y-83807300D01*
X94538800Y-83807300D02*
X94538800Y-83807300D01*
X93941900Y-79057500D02*
X95453200Y-80568800D01*
X95453200Y-80568800D02*
X95453200Y-82804000D01*
X95453200Y-82804000D02*
X95453200Y-82804000D01*
D18*
X89496900Y-91033600D02*
X89496900Y-92075000D01*
X97155000Y-83375500D02*
X89496900Y-91033600D01*
D19*
X93981403Y-76628999D02*
X95745300Y-74865102D01*
X95745300Y-69545200D02*
X97155000Y-68135500D01*
X95745300Y-74865102D02*
X95745300Y-69545200D01*
X93728801Y-76628999D02*
X93728801Y-76628999D01*
X93728801Y-76628999D02*
X93981403Y-76628999D01*
X95745300Y-68845152D02*
X95745300Y-67005200D01*
X95745300Y-67005200D02*
X97155000Y-65595500D01*
X93853000Y-75984100D02*
X95035573Y-74801527D01*
X95250290Y-69340161D02*
X95745300Y-68845152D01*
X95250290Y-74586810D02*
X95035573Y-74801527D01*
X95250290Y-69340161D02*
X95250290Y-74586810D01*
X83908900Y-79502000D02*
X85039200Y-79502000D01*
X81915000Y-90995500D02*
X83134200Y-89776300D01*
X85039200Y-79502000D02*
X85242400Y-79298800D01*
X83134200Y-80276700D02*
X83908900Y-79502000D01*
X83134200Y-89776300D02*
X83134200Y-80276700D01*
X95250290Y-68033610D02*
X95250000Y-68033900D01*
X95250000Y-68640403D02*
X94755280Y-69135122D01*
X95250000Y-68033900D02*
X95250000Y-68640403D01*
X94755280Y-69135122D02*
X94755280Y-74295818D01*
X95745300Y-66305152D02*
X95745300Y-64465200D01*
X95250000Y-68033900D02*
X95250000Y-66800451D01*
X95745300Y-64465200D02*
X97155000Y-63055500D01*
X95250000Y-66800451D02*
X95745300Y-66305152D01*
X93699197Y-75351901D02*
X94755280Y-74295818D01*
X93367599Y-75351901D02*
X93699197Y-75351901D01*
X93192600Y-75526900D02*
X93367599Y-75351901D01*
X85407790Y-79997010D02*
X85577202Y-79827598D01*
X84175890Y-79997010D02*
X85407790Y-79997010D01*
X81915000Y-93535500D02*
X83134200Y-92316300D01*
X83134200Y-92316300D02*
X83134200Y-90476348D01*
X83629210Y-80543690D02*
X84175890Y-79997010D01*
X83134200Y-90476348D02*
X83629210Y-89981339D01*
X85577202Y-79827598D02*
X85752201Y-79652599D01*
X83629210Y-89981339D02*
X83629210Y-80543690D01*
X84747680Y-80492020D02*
X85852580Y-80492020D01*
X84124220Y-81115480D02*
X84747680Y-80492020D01*
X81915000Y-96075500D02*
X83134200Y-94856300D01*
X85852580Y-80492020D02*
X86055200Y-80289400D01*
X84124220Y-90186378D02*
X84124220Y-81115480D01*
X83629210Y-90681388D02*
X84124220Y-90186378D01*
X83134200Y-94856300D02*
X83134200Y-93016348D01*
X83629210Y-92521338D02*
X83629210Y-90681388D01*
X83134200Y-93016348D02*
X83629210Y-92521338D01*
X86108801Y-81150199D02*
X86283800Y-80975200D01*
X84619230Y-81661870D02*
X85130901Y-81150199D01*
X84619230Y-90391416D02*
X84619230Y-81661870D01*
X85130901Y-81150199D02*
X86108801Y-81150199D01*
X84124220Y-90886426D02*
X84619230Y-90391416D01*
X84124220Y-92726377D02*
X84124220Y-90886426D01*
X81915000Y-98615500D02*
X83134200Y-97396300D01*
X83134200Y-95556348D02*
X83629210Y-95061339D01*
X83134200Y-97396300D02*
X83134200Y-95556348D01*
X83629210Y-95061339D02*
X83629210Y-93221386D01*
X83629210Y-93221386D02*
X84124220Y-92726377D01*
D18*
X89496900Y-96202500D02*
X89496900Y-95885000D01*
X85242400Y-100457000D02*
X89496900Y-96202500D01*
D19*
X91190000Y-80183800D02*
X91287600Y-80086200D01*
X91190000Y-82105500D02*
X91190000Y-80183800D01*
X91190000Y-78007400D02*
X91190000Y-77025500D01*
X93726000Y-81635600D02*
X93726000Y-80543400D01*
X93726000Y-80543400D02*
X91190000Y-78007400D01*
X91190000Y-71945500D02*
X91190000Y-72673400D01*
X91190000Y-72673400D02*
X92671900Y-74155300D01*
X92671900Y-74155300D02*
X92671900Y-74155300D01*
X89430000Y-69405500D02*
X89442700Y-69418200D01*
X87880000Y-69405500D02*
X89430000Y-69405500D01*
X89442700Y-69418200D02*
X93040200Y-69418200D01*
X93040200Y-69418200D02*
X93319600Y-69418200D01*
X85750400Y-101092000D02*
X85750400Y-103403400D01*
X86845401Y-99996999D02*
X85750400Y-101092000D01*
X86845401Y-99895399D02*
X86845401Y-99996999D01*
X87020400Y-99720400D02*
X86845401Y-99895399D01*
X88290400Y-100139500D02*
X87744300Y-99593400D01*
X88290400Y-103403400D02*
X88290400Y-100139500D01*
X86527901Y-87035901D02*
X86702900Y-87210900D01*
X85489490Y-85997490D02*
X86527901Y-87035901D01*
X85489490Y-82747410D02*
X85489490Y-85997490D01*
X87096600Y-81140300D02*
X85489490Y-82747410D01*
D18*
X89535000Y-50076100D02*
X89535000Y-53975000D01*
X97155000Y-47815500D02*
X91795600Y-47815500D01*
X91795600Y-47815500D02*
X89535000Y-50076100D01*
D20*
G36*
X85131030Y-86355951D02*
G01*
X85150275Y-86371745D01*
X86188689Y-87410160D01*
X86188695Y-87410165D01*
X86224392Y-87445862D01*
X86231448Y-87462896D01*
X86289669Y-87550030D01*
X86363770Y-87624131D01*
X86450904Y-87682352D01*
X86547721Y-87722455D01*
X86636101Y-87740035D01*
X86636100Y-89630472D01*
X86636101Y-89630482D01*
X86636100Y-94100437D01*
X86632952Y-94132400D01*
X86636100Y-94164363D01*
X86636100Y-94164372D01*
X86645520Y-94260017D01*
X86682745Y-94382731D01*
X86685534Y-94387948D01*
X86743195Y-94495826D01*
X86781202Y-94542137D01*
X86824547Y-94594953D01*
X86849386Y-94615338D01*
X87601943Y-95367896D01*
X87622325Y-95392731D01*
X87721452Y-95474083D01*
X87834546Y-95534533D01*
X87957260Y-95571758D01*
X88052905Y-95581178D01*
X88052914Y-95581178D01*
X88084877Y-95584326D01*
X88116840Y-95581178D01*
X88803376Y-95581178D01*
X88768991Y-95664191D01*
X88739900Y-95810442D01*
X88739900Y-95959558D01*
X88753055Y-96025692D01*
X85056626Y-99722122D01*
X85021591Y-99729091D01*
X84883826Y-99786155D01*
X84759841Y-99869000D01*
X84654400Y-99974441D01*
X84571555Y-100098426D01*
X84514491Y-100236191D01*
X84485400Y-100382442D01*
X84485400Y-100531558D01*
X84514491Y-100677809D01*
X84571555Y-100815574D01*
X84654400Y-100939559D01*
X84759841Y-101045000D01*
X84883826Y-101127845D01*
X85021591Y-101184909D01*
X85167842Y-101214000D01*
X85245900Y-101214000D01*
X85245901Y-102305923D01*
X85178671Y-102333771D01*
X84980982Y-102465862D01*
X84812862Y-102633982D01*
X84680771Y-102831671D01*
X84589784Y-103051331D01*
X84543400Y-103284521D01*
X84543400Y-103522279D01*
X84589784Y-103755469D01*
X84680771Y-103975129D01*
X84812862Y-104172818D01*
X84980982Y-104340938D01*
X85166373Y-104464812D01*
X84900400Y-104463366D01*
X84777486Y-104475472D01*
X84659296Y-104511324D01*
X84550372Y-104569546D01*
X84454899Y-104647899D01*
X84376546Y-104743372D01*
X84318324Y-104852296D01*
X84282472Y-104970486D01*
X84270366Y-105093400D01*
X84273400Y-105651650D01*
X84430150Y-105808400D01*
X85615400Y-105808400D01*
X85615400Y-105788400D01*
X85885400Y-105788400D01*
X85885400Y-105808400D01*
X85905400Y-105808400D01*
X85905400Y-106078400D01*
X85885400Y-106078400D01*
X85885400Y-106098400D01*
X85615400Y-106098400D01*
X85615400Y-106078400D01*
X84430150Y-106078400D01*
X84273400Y-106235150D01*
X84270366Y-106793400D01*
X84282472Y-106916314D01*
X84318324Y-107034504D01*
X84376546Y-107143428D01*
X84391788Y-107162000D01*
X82610939Y-107162000D01*
X82652544Y-107134200D01*
X82813700Y-106973044D01*
X82940320Y-106783545D01*
X83027537Y-106572984D01*
X83072000Y-106349455D01*
X83072000Y-106121545D01*
X83027537Y-105898016D01*
X82940320Y-105687455D01*
X82813700Y-105497956D01*
X82652544Y-105336800D01*
X82463045Y-105210180D01*
X82252484Y-105122963D01*
X82028955Y-105078500D01*
X81801045Y-105078500D01*
X81577516Y-105122963D01*
X81366955Y-105210180D01*
X81306000Y-105250909D01*
X81306000Y-104680091D01*
X81366955Y-104720820D01*
X81577516Y-104808037D01*
X81801045Y-104852500D01*
X82028955Y-104852500D01*
X82252484Y-104808037D01*
X82463045Y-104720820D01*
X82652544Y-104594200D01*
X82813700Y-104433044D01*
X82940320Y-104243545D01*
X83027537Y-104032984D01*
X83072000Y-103809455D01*
X83072000Y-103581545D01*
X83027537Y-103358016D01*
X82940320Y-103147455D01*
X82813700Y-102957956D01*
X82652544Y-102796800D01*
X82463045Y-102670180D01*
X82252484Y-102582963D01*
X82028955Y-102538500D01*
X81801045Y-102538500D01*
X81577516Y-102582963D01*
X81366955Y-102670180D01*
X81306000Y-102710909D01*
X81306000Y-102140091D01*
X81366955Y-102180820D01*
X81577516Y-102268037D01*
X81801045Y-102312500D01*
X82028955Y-102312500D01*
X82252484Y-102268037D01*
X82463045Y-102180820D01*
X82652544Y-102054200D01*
X82813700Y-101893044D01*
X82940320Y-101703545D01*
X83027537Y-101492984D01*
X83072000Y-101269455D01*
X83072000Y-101041545D01*
X83027537Y-100818016D01*
X82940320Y-100607455D01*
X82813700Y-100417956D01*
X82652544Y-100256800D01*
X82463045Y-100130180D01*
X82252484Y-100042963D01*
X82028955Y-99998500D01*
X81801045Y-99998500D01*
X81577516Y-100042963D01*
X81366955Y-100130180D01*
X81306000Y-100170909D01*
X81306000Y-99600091D01*
X81366955Y-99640820D01*
X81577516Y-99728037D01*
X81801045Y-99772500D01*
X82028955Y-99772500D01*
X82252484Y-99728037D01*
X82463045Y-99640820D01*
X82652544Y-99514200D01*
X82813700Y-99353044D01*
X82940320Y-99163545D01*
X83027537Y-98952984D01*
X83072000Y-98729455D01*
X83072000Y-98501545D01*
X83027537Y-98278016D01*
X83009500Y-98234471D01*
X83473415Y-97770556D01*
X83492661Y-97754761D01*
X83508455Y-97735516D01*
X83508459Y-97735512D01*
X83555705Y-97677942D01*
X83602552Y-97590298D01*
X83602588Y-97590180D01*
X83631400Y-97495199D01*
X83638700Y-97421083D01*
X83638700Y-97421074D01*
X83641140Y-97396301D01*
X83638700Y-97371528D01*
X83638700Y-95765318D01*
X83968424Y-95435595D01*
X83987671Y-95419800D01*
X84003465Y-95400555D01*
X84003469Y-95400551D01*
X84050715Y-95342981D01*
X84050716Y-95342980D01*
X84097562Y-95255337D01*
X84126410Y-95160238D01*
X84133710Y-95086122D01*
X84133710Y-95086113D01*
X84136150Y-95061340D01*
X84133710Y-95036564D01*
X84133710Y-93430356D01*
X84463434Y-93100633D01*
X84482681Y-93084838D01*
X84498475Y-93065593D01*
X84498479Y-93065589D01*
X84545725Y-93008019D01*
X84580562Y-92942844D01*
X84592572Y-92920375D01*
X84621420Y-92825276D01*
X84628720Y-92751160D01*
X84628720Y-92751151D01*
X84631160Y-92726378D01*
X84628720Y-92701602D01*
X84628720Y-91095396D01*
X84958445Y-90765672D01*
X84977691Y-90749877D01*
X84993485Y-90730632D01*
X84993489Y-90730628D01*
X85040735Y-90673058D01*
X85042186Y-90670345D01*
X85087582Y-90585414D01*
X85105009Y-90527965D01*
X85116430Y-90490316D01*
X85118931Y-90464920D01*
X85123730Y-90416199D01*
X85123730Y-90416192D01*
X85126170Y-90391416D01*
X85123730Y-90366640D01*
X85123730Y-86347056D01*
X85131030Y-86355951D01*
G37*
X85131030Y-86355951D02*
X85150275Y-86371745D01*
X86188689Y-87410160D01*
X86188695Y-87410165D01*
X86224392Y-87445862D01*
X86231448Y-87462896D01*
X86289669Y-87550030D01*
X86363770Y-87624131D01*
X86450904Y-87682352D01*
X86547721Y-87722455D01*
X86636101Y-87740035D01*
X86636100Y-89630472D01*
X86636101Y-89630482D01*
X86636100Y-94100437D01*
X86632952Y-94132400D01*
X86636100Y-94164363D01*
X86636100Y-94164372D01*
X86645520Y-94260017D01*
X86682745Y-94382731D01*
X86685534Y-94387948D01*
X86743195Y-94495826D01*
X86781202Y-94542137D01*
X86824547Y-94594953D01*
X86849386Y-94615338D01*
X87601943Y-95367896D01*
X87622325Y-95392731D01*
X87721452Y-95474083D01*
X87834546Y-95534533D01*
X87957260Y-95571758D01*
X88052905Y-95581178D01*
X88052914Y-95581178D01*
X88084877Y-95584326D01*
X88116840Y-95581178D01*
X88803376Y-95581178D01*
X88768991Y-95664191D01*
X88739900Y-95810442D01*
X88739900Y-95959558D01*
X88753055Y-96025692D01*
X85056626Y-99722122D01*
X85021591Y-99729091D01*
X84883826Y-99786155D01*
X84759841Y-99869000D01*
X84654400Y-99974441D01*
X84571555Y-100098426D01*
X84514491Y-100236191D01*
X84485400Y-100382442D01*
X84485400Y-100531558D01*
X84514491Y-100677809D01*
X84571555Y-100815574D01*
X84654400Y-100939559D01*
X84759841Y-101045000D01*
X84883826Y-101127845D01*
X85021591Y-101184909D01*
X85167842Y-101214000D01*
X85245900Y-101214000D01*
X85245901Y-102305923D01*
X85178671Y-102333771D01*
X84980982Y-102465862D01*
X84812862Y-102633982D01*
X84680771Y-102831671D01*
X84589784Y-103051331D01*
X84543400Y-103284521D01*
X84543400Y-103522279D01*
X84589784Y-103755469D01*
X84680771Y-103975129D01*
X84812862Y-104172818D01*
X84980982Y-104340938D01*
X85166373Y-104464812D01*
X84900400Y-104463366D01*
X84777486Y-104475472D01*
X84659296Y-104511324D01*
X84550372Y-104569546D01*
X84454899Y-104647899D01*
X84376546Y-104743372D01*
X84318324Y-104852296D01*
X84282472Y-104970486D01*
X84270366Y-105093400D01*
X84273400Y-105651650D01*
X84430150Y-105808400D01*
X85615400Y-105808400D01*
X85615400Y-105788400D01*
X85885400Y-105788400D01*
X85885400Y-105808400D01*
X85905400Y-105808400D01*
X85905400Y-106078400D01*
X85885400Y-106078400D01*
X85885400Y-106098400D01*
X85615400Y-106098400D01*
X85615400Y-106078400D01*
X84430150Y-106078400D01*
X84273400Y-106235150D01*
X84270366Y-106793400D01*
X84282472Y-106916314D01*
X84318324Y-107034504D01*
X84376546Y-107143428D01*
X84391788Y-107162000D01*
X82610939Y-107162000D01*
X82652544Y-107134200D01*
X82813700Y-106973044D01*
X82940320Y-106783545D01*
X83027537Y-106572984D01*
X83072000Y-106349455D01*
X83072000Y-106121545D01*
X83027537Y-105898016D01*
X82940320Y-105687455D01*
X82813700Y-105497956D01*
X82652544Y-105336800D01*
X82463045Y-105210180D01*
X82252484Y-105122963D01*
X82028955Y-105078500D01*
X81801045Y-105078500D01*
X81577516Y-105122963D01*
X81366955Y-105210180D01*
X81306000Y-105250909D01*
X81306000Y-104680091D01*
X81366955Y-104720820D01*
X81577516Y-104808037D01*
X81801045Y-104852500D01*
X82028955Y-104852500D01*
X82252484Y-104808037D01*
X82463045Y-104720820D01*
X82652544Y-104594200D01*
X82813700Y-104433044D01*
X82940320Y-104243545D01*
X83027537Y-104032984D01*
X83072000Y-103809455D01*
X83072000Y-103581545D01*
X83027537Y-103358016D01*
X82940320Y-103147455D01*
X82813700Y-102957956D01*
X82652544Y-102796800D01*
X82463045Y-102670180D01*
X82252484Y-102582963D01*
X82028955Y-102538500D01*
X81801045Y-102538500D01*
X81577516Y-102582963D01*
X81366955Y-102670180D01*
X81306000Y-102710909D01*
X81306000Y-102140091D01*
X81366955Y-102180820D01*
X81577516Y-102268037D01*
X81801045Y-102312500D01*
X82028955Y-102312500D01*
X82252484Y-102268037D01*
X82463045Y-102180820D01*
X82652544Y-102054200D01*
X82813700Y-101893044D01*
X82940320Y-101703545D01*
X83027537Y-101492984D01*
X83072000Y-101269455D01*
X83072000Y-101041545D01*
X83027537Y-100818016D01*
X82940320Y-100607455D01*
X82813700Y-100417956D01*
X82652544Y-100256800D01*
X82463045Y-100130180D01*
X82252484Y-100042963D01*
X82028955Y-99998500D01*
X81801045Y-99998500D01*
X81577516Y-100042963D01*
X81366955Y-100130180D01*
X81306000Y-100170909D01*
X81306000Y-99600091D01*
X81366955Y-99640820D01*
X81577516Y-99728037D01*
X81801045Y-99772500D01*
X82028955Y-99772500D01*
X82252484Y-99728037D01*
X82463045Y-99640820D01*
X82652544Y-99514200D01*
X82813700Y-99353044D01*
X82940320Y-99163545D01*
X83027537Y-98952984D01*
X83072000Y-98729455D01*
X83072000Y-98501545D01*
X83027537Y-98278016D01*
X83009500Y-98234471D01*
X83473415Y-97770556D01*
X83492661Y-97754761D01*
X83508455Y-97735516D01*
X83508459Y-97735512D01*
X83555705Y-97677942D01*
X83602552Y-97590298D01*
X83602588Y-97590180D01*
X83631400Y-97495199D01*
X83638700Y-97421083D01*
X83638700Y-97421074D01*
X83641140Y-97396301D01*
X83638700Y-97371528D01*
X83638700Y-95765318D01*
X83968424Y-95435595D01*
X83987671Y-95419800D01*
X84003465Y-95400555D01*
X84003469Y-95400551D01*
X84050715Y-95342981D01*
X84050716Y-95342980D01*
X84097562Y-95255337D01*
X84126410Y-95160238D01*
X84133710Y-95086122D01*
X84133710Y-95086113D01*
X84136150Y-95061340D01*
X84133710Y-95036564D01*
X84133710Y-93430356D01*
X84463434Y-93100633D01*
X84482681Y-93084838D01*
X84498475Y-93065593D01*
X84498479Y-93065589D01*
X84545725Y-93008019D01*
X84580562Y-92942844D01*
X84592572Y-92920375D01*
X84621420Y-92825276D01*
X84628720Y-92751160D01*
X84628720Y-92751151D01*
X84631160Y-92726378D01*
X84628720Y-92701602D01*
X84628720Y-91095396D01*
X84958445Y-90765672D01*
X84977691Y-90749877D01*
X84993485Y-90730632D01*
X84993489Y-90730628D01*
X85040735Y-90673058D01*
X85042186Y-90670345D01*
X85087582Y-90585414D01*
X85105009Y-90527965D01*
X85116430Y-90490316D01*
X85118931Y-90464920D01*
X85123730Y-90416199D01*
X85123730Y-90416192D01*
X85126170Y-90391416D01*
X85123730Y-90366640D01*
X85123730Y-86347056D01*
X85131030Y-86355951D01*
G36*
X85378800Y-50811953D02*
G01*
X85378801Y-54222427D01*
X85375652Y-54254400D01*
X85378801Y-54286373D01*
X85388221Y-54382018D01*
X85407778Y-54446488D01*
X85425446Y-54504732D01*
X85485895Y-54617826D01*
X85546866Y-54692118D01*
X85567248Y-54716953D01*
X85592081Y-54737333D01*
X87401065Y-56546318D01*
X87421447Y-56571153D01*
X87520574Y-56652505D01*
X87633668Y-56712955D01*
X87756382Y-56750180D01*
X87852027Y-56759600D01*
X87852035Y-56759600D01*
X87884000Y-56762748D01*
X87915965Y-56759600D01*
X88630348Y-56759600D01*
X88884000Y-57013253D01*
X88884001Y-57753017D01*
X88880851Y-57785000D01*
X88893420Y-57912618D01*
X88930645Y-58035332D01*
X88991095Y-58148426D01*
X89072447Y-58247553D01*
X89171574Y-58328905D01*
X89284668Y-58389355D01*
X89407382Y-58426580D01*
X89503027Y-58436000D01*
X89535000Y-58439149D01*
X89566973Y-58436000D01*
X89662618Y-58426580D01*
X89785332Y-58389355D01*
X89898426Y-58328905D01*
X89997553Y-58247553D01*
X90078905Y-58148426D01*
X90139355Y-58035332D01*
X90176580Y-57912618D01*
X90189149Y-57785000D01*
X90186000Y-57753027D01*
X90186000Y-56775573D01*
X90189149Y-56743600D01*
X90176580Y-56615982D01*
X90139355Y-56493268D01*
X90078905Y-56380174D01*
X90017935Y-56305882D01*
X90017933Y-56305880D01*
X89997553Y-56281047D01*
X89972720Y-56260668D01*
X89557252Y-55845200D01*
X90862373Y-55845200D01*
X90958018Y-55835780D01*
X91080732Y-55798555D01*
X91131901Y-55771205D01*
X91131901Y-58874246D01*
X85274581Y-64731567D01*
X85249748Y-64751947D01*
X85229368Y-64776780D01*
X85229366Y-64776782D01*
X85168395Y-64851074D01*
X85108891Y-64962400D01*
X85107946Y-64964168D01*
X85070721Y-65086882D01*
X85066755Y-65127148D01*
X85058152Y-65214500D01*
X85061301Y-65246473D01*
X85061300Y-69850039D01*
X85058152Y-69882002D01*
X85061300Y-69913965D01*
X85061300Y-69913974D01*
X85070720Y-70009619D01*
X85107945Y-70132333D01*
X85116944Y-70149169D01*
X85168395Y-70245428D01*
X85206402Y-70291739D01*
X85249747Y-70344555D01*
X85274585Y-70364940D01*
X85746864Y-70837219D01*
X85767246Y-70862054D01*
X85792079Y-70882434D01*
X85792080Y-70882435D01*
X85866372Y-70943406D01*
X85926822Y-70975717D01*
X85979467Y-71003856D01*
X86102181Y-71041081D01*
X86107019Y-71041558D01*
X88378138Y-73312677D01*
X88378143Y-73312681D01*
X88692235Y-73626773D01*
X86625000Y-73626773D01*
X86555016Y-73633666D01*
X86487721Y-73654079D01*
X86425702Y-73687229D01*
X86371342Y-73731842D01*
X86326729Y-73786202D01*
X86293579Y-73848221D01*
X86273166Y-73915516D01*
X86266273Y-73985500D01*
X86266273Y-74985500D01*
X86273166Y-75055484D01*
X86293579Y-75122779D01*
X86326729Y-75184798D01*
X86371342Y-75239158D01*
X86425702Y-75283771D01*
X86487721Y-75316921D01*
X86555016Y-75337334D01*
X86625000Y-75344227D01*
X89135000Y-75344227D01*
X89204984Y-75337334D01*
X89272279Y-75316921D01*
X89334298Y-75283771D01*
X89388658Y-75239158D01*
X89433271Y-75184798D01*
X89466421Y-75122779D01*
X89486834Y-75055484D01*
X89493727Y-74985500D01*
X89493727Y-74428266D01*
X89557100Y-74491639D01*
X89557101Y-74935425D01*
X89537255Y-74965126D01*
X89480191Y-75102891D01*
X89451100Y-75249142D01*
X89451100Y-75398258D01*
X89480191Y-75544509D01*
X89537255Y-75682274D01*
X89620100Y-75806259D01*
X89725541Y-75911700D01*
X89849526Y-75994545D01*
X89987291Y-76051609D01*
X90133542Y-76080700D01*
X90282658Y-76080700D01*
X90428909Y-76051609D01*
X90566674Y-75994545D01*
X90690659Y-75911700D01*
X90774159Y-75828200D01*
X92429117Y-75828200D01*
X92453893Y-75830640D01*
X92478669Y-75828200D01*
X92478676Y-75828200D01*
X92552792Y-75820900D01*
X92647891Y-75792052D01*
X92712330Y-75757609D01*
X92721148Y-75778896D01*
X92779369Y-75866030D01*
X92853470Y-75940131D01*
X92940604Y-75998352D01*
X93037421Y-76038455D01*
X93140203Y-76058900D01*
X93244997Y-76058900D01*
X93322394Y-76043505D01*
X93341445Y-76139279D01*
X93377973Y-76227466D01*
X93315570Y-76289869D01*
X93257349Y-76377003D01*
X93217246Y-76473820D01*
X93196801Y-76576602D01*
X93196801Y-76681396D01*
X93217246Y-76784178D01*
X93257349Y-76880995D01*
X93315570Y-76968129D01*
X93389671Y-77042230D01*
X93476805Y-77100451D01*
X93573622Y-77140554D01*
X93676404Y-77160999D01*
X93781198Y-77160999D01*
X93883980Y-77140554D01*
X93901012Y-77133499D01*
X93956627Y-77133499D01*
X93981403Y-77135939D01*
X94006179Y-77133499D01*
X94006186Y-77133499D01*
X94080302Y-77126199D01*
X94175401Y-77097351D01*
X94263044Y-77050505D01*
X94339864Y-76987460D01*
X94355663Y-76968209D01*
X96084515Y-75239358D01*
X96103761Y-75223563D01*
X96119555Y-75204318D01*
X96119559Y-75204314D01*
X96166805Y-75146744D01*
X96170016Y-75140738D01*
X96213652Y-75059100D01*
X96242500Y-74964001D01*
X96249800Y-74889885D01*
X96249800Y-74889876D01*
X96252240Y-74865103D01*
X96249800Y-74840330D01*
X96249800Y-73943316D01*
X96256300Y-73953044D01*
X96417456Y-74114200D01*
X96606955Y-74240820D01*
X96817516Y-74328037D01*
X97041045Y-74372500D01*
X97268955Y-74372500D01*
X97492484Y-74328037D01*
X97703045Y-74240820D01*
X97764000Y-74200091D01*
X97764000Y-74770909D01*
X97703045Y-74730180D01*
X97492484Y-74642963D01*
X97268955Y-74598500D01*
X97041045Y-74598500D01*
X96817516Y-74642963D01*
X96606955Y-74730180D01*
X96417456Y-74856800D01*
X96256300Y-75017956D01*
X96129680Y-75207455D01*
X96042463Y-75418016D01*
X95998000Y-75641545D01*
X95998000Y-75869455D01*
X96042463Y-76092984D01*
X96129680Y-76303545D01*
X96256300Y-76493044D01*
X96417456Y-76654200D01*
X96606955Y-76780820D01*
X96817516Y-76868037D01*
X97041045Y-76912500D01*
X97268955Y-76912500D01*
X97492484Y-76868037D01*
X97703045Y-76780820D01*
X97764000Y-76740091D01*
X97764001Y-77310909D01*
X97703045Y-77270180D01*
X97492484Y-77182963D01*
X97268955Y-77138500D01*
X97041045Y-77138500D01*
X96817516Y-77182963D01*
X96606955Y-77270180D01*
X96417456Y-77396800D01*
X96256300Y-77557956D01*
X96129680Y-77747455D01*
X96042463Y-77958016D01*
X95998000Y-78181545D01*
X95998000Y-78409455D01*
X96042463Y-78632984D01*
X96129680Y-78843545D01*
X96256300Y-79033044D01*
X96417456Y-79194200D01*
X96606955Y-79320820D01*
X96817516Y-79408037D01*
X97041045Y-79452500D01*
X97268955Y-79452500D01*
X97492484Y-79408037D01*
X97703045Y-79320820D01*
X97764001Y-79280091D01*
X97764001Y-79850909D01*
X97703045Y-79810180D01*
X97492484Y-79722963D01*
X97268955Y-79678500D01*
X97041045Y-79678500D01*
X96817516Y-79722963D01*
X96606955Y-79810180D01*
X96417456Y-79936800D01*
X96256300Y-80097956D01*
X96129680Y-80287455D01*
X96042463Y-80498016D01*
X95998000Y-80721545D01*
X95998000Y-80949455D01*
X96042463Y-81172984D01*
X96129680Y-81383545D01*
X96256300Y-81573044D01*
X96417456Y-81734200D01*
X96606955Y-81860820D01*
X96817516Y-81948037D01*
X97041045Y-81992500D01*
X97268955Y-81992500D01*
X97492484Y-81948037D01*
X97703045Y-81860820D01*
X97764001Y-81820091D01*
X97764001Y-82390909D01*
X97703045Y-82350180D01*
X97492484Y-82262963D01*
X97268955Y-82218500D01*
X97041045Y-82218500D01*
X96817516Y-82262963D01*
X96606955Y-82350180D01*
X96417456Y-82476800D01*
X96256300Y-82637956D01*
X96129680Y-82827455D01*
X96042463Y-83038016D01*
X95998000Y-83261545D01*
X95998000Y-83489455D01*
X96018306Y-83591541D01*
X89059186Y-90550662D01*
X89034347Y-90571047D01*
X89013966Y-90595882D01*
X88952995Y-90670174D01*
X88941100Y-90692429D01*
X88892545Y-90783269D01*
X88855320Y-90905983D01*
X88845900Y-91001628D01*
X88845900Y-91001637D01*
X88842752Y-91033600D01*
X88845900Y-91065563D01*
X88845901Y-91686725D01*
X88826055Y-91716426D01*
X88768991Y-91854191D01*
X88739900Y-92000442D01*
X88739900Y-92149558D01*
X88768991Y-92295809D01*
X88826055Y-92433574D01*
X88908900Y-92557559D01*
X89014341Y-92663000D01*
X89138326Y-92745845D01*
X89276091Y-92802909D01*
X89422342Y-92832000D01*
X89571458Y-92832000D01*
X89717709Y-92802909D01*
X89855474Y-92745845D01*
X89979459Y-92663000D01*
X90084900Y-92557559D01*
X90167745Y-92433574D01*
X90224809Y-92295809D01*
X90253900Y-92149558D01*
X90253900Y-92000442D01*
X90224809Y-91854191D01*
X90167745Y-91716426D01*
X90147900Y-91686726D01*
X90147900Y-91303252D01*
X96222275Y-85228878D01*
X96129680Y-85367455D01*
X96042463Y-85578016D01*
X95998000Y-85801545D01*
X95998000Y-86029455D01*
X96042463Y-86252984D01*
X96129680Y-86463545D01*
X96256300Y-86653044D01*
X96417456Y-86814200D01*
X96606955Y-86940820D01*
X96817516Y-87028037D01*
X97041045Y-87072500D01*
X97268955Y-87072500D01*
X97492484Y-87028037D01*
X97703045Y-86940820D01*
X97764001Y-86900090D01*
X97764001Y-87470910D01*
X97703045Y-87430180D01*
X97492484Y-87342963D01*
X97268955Y-87298500D01*
X97041045Y-87298500D01*
X96817516Y-87342963D01*
X96606955Y-87430180D01*
X96417456Y-87556800D01*
X96256300Y-87717956D01*
X96129680Y-87907455D01*
X96042463Y-88118016D01*
X95998000Y-88341545D01*
X95998000Y-88569455D01*
X96042463Y-88792984D01*
X96129680Y-89003545D01*
X96256300Y-89193044D01*
X96417456Y-89354200D01*
X96606955Y-89480820D01*
X96817516Y-89568037D01*
X97041045Y-89612500D01*
X97268955Y-89612500D01*
X97492484Y-89568037D01*
X97703045Y-89480820D01*
X97764001Y-89440090D01*
X97764001Y-90010910D01*
X97703045Y-89970180D01*
X97492484Y-89882963D01*
X97268955Y-89838500D01*
X97041045Y-89838500D01*
X96817516Y-89882963D01*
X96606955Y-89970180D01*
X96417456Y-90096800D01*
X96256300Y-90257956D01*
X96129680Y-90447455D01*
X96042463Y-90658016D01*
X95998000Y-90881545D01*
X95998000Y-91109455D01*
X96042463Y-91332984D01*
X96129680Y-91543545D01*
X96256300Y-91733044D01*
X96417456Y-91894200D01*
X96606955Y-92020820D01*
X96817516Y-92108037D01*
X97041045Y-92152500D01*
X97268955Y-92152500D01*
X97492484Y-92108037D01*
X97703045Y-92020820D01*
X97764001Y-91980090D01*
X97764001Y-92550910D01*
X97703045Y-92510180D01*
X97492484Y-92422963D01*
X97268955Y-92378500D01*
X97041045Y-92378500D01*
X96817516Y-92422963D01*
X96606955Y-92510180D01*
X96417456Y-92636800D01*
X96256300Y-92797956D01*
X96129680Y-92987455D01*
X96042463Y-93198016D01*
X95998000Y-93421545D01*
X95998000Y-93649455D01*
X96042463Y-93872984D01*
X96129680Y-94083545D01*
X96256300Y-94273044D01*
X96417456Y-94434200D01*
X96606955Y-94560820D01*
X96817516Y-94648037D01*
X97041045Y-94692500D01*
X97268955Y-94692500D01*
X97492484Y-94648037D01*
X97703045Y-94560820D01*
X97764001Y-94520090D01*
X97764001Y-95090910D01*
X97703045Y-95050180D01*
X97492484Y-94962963D01*
X97268955Y-94918500D01*
X97041045Y-94918500D01*
X96817516Y-94962963D01*
X96606955Y-95050180D01*
X96417456Y-95176800D01*
X96256300Y-95337956D01*
X96129680Y-95527455D01*
X96042463Y-95738016D01*
X95998000Y-95961545D01*
X95998000Y-96189455D01*
X96042463Y-96412984D01*
X96129680Y-96623545D01*
X96256300Y-96813044D01*
X96417456Y-96974200D01*
X96606955Y-97100820D01*
X96817516Y-97188037D01*
X97041045Y-97232500D01*
X97268955Y-97232500D01*
X97492484Y-97188037D01*
X97703045Y-97100820D01*
X97764001Y-97060090D01*
X97764001Y-97630910D01*
X97703045Y-97590180D01*
X97492484Y-97502963D01*
X97268955Y-97458500D01*
X97041045Y-97458500D01*
X96817516Y-97502963D01*
X96606955Y-97590180D01*
X96417456Y-97716800D01*
X96256300Y-97877956D01*
X96129680Y-98067455D01*
X96042463Y-98278016D01*
X95998000Y-98501545D01*
X95998000Y-98729455D01*
X96042463Y-98952984D01*
X96129680Y-99163545D01*
X96256300Y-99353044D01*
X96417456Y-99514200D01*
X96606955Y-99640820D01*
X96817516Y-99728037D01*
X97041045Y-99772500D01*
X97268955Y-99772500D01*
X97492484Y-99728037D01*
X97703045Y-99640820D01*
X97764001Y-99600090D01*
X97764001Y-100170910D01*
X97703045Y-100130180D01*
X97492484Y-100042963D01*
X97268955Y-99998500D01*
X97041045Y-99998500D01*
X96817516Y-100042963D01*
X96606955Y-100130180D01*
X96417456Y-100256800D01*
X96256300Y-100417956D01*
X96129680Y-100607455D01*
X96042463Y-100818016D01*
X95998000Y-101041545D01*
X95998000Y-101269455D01*
X96042463Y-101492984D01*
X96129680Y-101703545D01*
X96256300Y-101893044D01*
X96417456Y-102054200D01*
X96606955Y-102180820D01*
X96817516Y-102268037D01*
X97041045Y-102312500D01*
X97268955Y-102312500D01*
X97492484Y-102268037D01*
X97703045Y-102180820D01*
X97764001Y-102140090D01*
X97764001Y-102710910D01*
X97703045Y-102670180D01*
X97492484Y-102582963D01*
X97268955Y-102538500D01*
X97041045Y-102538500D01*
X96817516Y-102582963D01*
X96606955Y-102670180D01*
X96417456Y-102796800D01*
X96256300Y-102957956D01*
X96129680Y-103147455D01*
X96042463Y-103358016D01*
X95998000Y-103581545D01*
X95998000Y-103809455D01*
X96042463Y-104032984D01*
X96129680Y-104243545D01*
X96256300Y-104433044D01*
X96417456Y-104594200D01*
X96606955Y-104720820D01*
X96817516Y-104808037D01*
X97041045Y-104852500D01*
X97268955Y-104852500D01*
X97492484Y-104808037D01*
X97703045Y-104720820D01*
X97764001Y-104680090D01*
X97764001Y-105250910D01*
X97703045Y-105210180D01*
X97492484Y-105122963D01*
X97268955Y-105078500D01*
X97041045Y-105078500D01*
X96817516Y-105122963D01*
X96606955Y-105210180D01*
X96417456Y-105336800D01*
X96256300Y-105497956D01*
X96129680Y-105687455D01*
X96042463Y-105898016D01*
X95998000Y-106121545D01*
X95998000Y-106349455D01*
X96042463Y-106572984D01*
X96129680Y-106783545D01*
X96256300Y-106973044D01*
X96417456Y-107134200D01*
X96459061Y-107162000D01*
X87109012Y-107162000D01*
X87124254Y-107143428D01*
X87182476Y-107034504D01*
X87218328Y-106916314D01*
X87230434Y-106793400D01*
X87228988Y-106527427D01*
X87352862Y-106712818D01*
X87520982Y-106880938D01*
X87718671Y-107013029D01*
X87938331Y-107104016D01*
X88171521Y-107150400D01*
X88409279Y-107150400D01*
X88642469Y-107104016D01*
X88862129Y-107013029D01*
X89059818Y-106880938D01*
X89227938Y-106712818D01*
X89307062Y-106594400D01*
X92787559Y-106594400D01*
X92819522Y-106597548D01*
X92851485Y-106594400D01*
X92851495Y-106594400D01*
X92947140Y-106584980D01*
X93069854Y-106547755D01*
X93182948Y-106487305D01*
X93282075Y-106405953D01*
X93302460Y-106381114D01*
X95167021Y-104516554D01*
X95191853Y-104496175D01*
X95273205Y-104397048D01*
X95273206Y-104397047D01*
X95333655Y-104283955D01*
X95345913Y-104243545D01*
X95370880Y-104161240D01*
X95380300Y-104065595D01*
X95380300Y-104065585D01*
X95383448Y-104033622D01*
X95380300Y-104001659D01*
X95380300Y-99826240D01*
X95383448Y-99794277D01*
X95380300Y-99762314D01*
X95380300Y-99762305D01*
X95370880Y-99666660D01*
X95333655Y-99543946D01*
X95273205Y-99430852D01*
X95191853Y-99331725D01*
X95167020Y-99311345D01*
X90348138Y-94492464D01*
X90327753Y-94467625D01*
X90228626Y-94386273D01*
X90115532Y-94325823D01*
X89992818Y-94288598D01*
X89897173Y-94279178D01*
X89897163Y-94279178D01*
X89865200Y-94276030D01*
X89833237Y-94279178D01*
X88354531Y-94279178D01*
X87938100Y-93862748D01*
X87938100Y-87937752D01*
X88434003Y-87441850D01*
X88489509Y-87430809D01*
X88627274Y-87373745D01*
X88751259Y-87290900D01*
X88856700Y-87185459D01*
X88939545Y-87061474D01*
X88996609Y-86923709D01*
X89025700Y-86777458D01*
X89025700Y-86628342D01*
X88996609Y-86482091D01*
X88939545Y-86344326D01*
X88856700Y-86220341D01*
X88751259Y-86114900D01*
X88627274Y-86032055D01*
X88489509Y-85974991D01*
X88343258Y-85945900D01*
X88194142Y-85945900D01*
X88047891Y-85974991D01*
X87910126Y-86032055D01*
X87880426Y-86051900D01*
X87562851Y-86051900D01*
X87284408Y-85773457D01*
X87588250Y-85772500D01*
X87745000Y-85615750D01*
X87745000Y-84780500D01*
X88015000Y-84780500D01*
X88015000Y-85615750D01*
X88171750Y-85772500D01*
X89135000Y-85775534D01*
X89257914Y-85763428D01*
X89376104Y-85727576D01*
X89485028Y-85669354D01*
X89580501Y-85591001D01*
X89658854Y-85495528D01*
X89717076Y-85386604D01*
X89752928Y-85268414D01*
X89765034Y-85145500D01*
X89762000Y-84937250D01*
X89605250Y-84780500D01*
X88015000Y-84780500D01*
X87745000Y-84780500D01*
X87725000Y-84780500D01*
X87725000Y-84510500D01*
X87745000Y-84510500D01*
X87745000Y-83675250D01*
X88015000Y-83675250D01*
X88015000Y-84510500D01*
X89605250Y-84510500D01*
X89762000Y-84353750D01*
X89765034Y-84145500D01*
X89752928Y-84022586D01*
X89717076Y-83904396D01*
X89658854Y-83795472D01*
X89580501Y-83699999D01*
X89485028Y-83621646D01*
X89376104Y-83563424D01*
X89257914Y-83527572D01*
X89135000Y-83515466D01*
X88171750Y-83518500D01*
X88015000Y-83675250D01*
X87745000Y-83675250D01*
X87588250Y-83518500D01*
X87341192Y-83517722D01*
X87357180Y-83465018D01*
X87366600Y-83369373D01*
X87366600Y-83369365D01*
X87369748Y-83337400D01*
X87366600Y-83305435D01*
X87366600Y-83090936D01*
X88296321Y-82161216D01*
X88321153Y-82140837D01*
X88351424Y-82103952D01*
X88362519Y-82090433D01*
X88953753Y-81499200D01*
X89484522Y-81499200D01*
X89516485Y-81502348D01*
X89548448Y-81499200D01*
X89548458Y-81499200D01*
X89595590Y-81494558D01*
X89583166Y-81535516D01*
X89576273Y-81605500D01*
X89576273Y-82605500D01*
X89583166Y-82675484D01*
X89603579Y-82742779D01*
X89636729Y-82804798D01*
X89681342Y-82859158D01*
X89735702Y-82903771D01*
X89797721Y-82936921D01*
X89865016Y-82957334D01*
X89935000Y-82964227D01*
X92445000Y-82964227D01*
X92514984Y-82957334D01*
X92582279Y-82936921D01*
X92644298Y-82903771D01*
X92698658Y-82859158D01*
X92743271Y-82804798D01*
X92776421Y-82742779D01*
X92796834Y-82675484D01*
X92803727Y-82605500D01*
X92803727Y-81605500D01*
X92796834Y-81535516D01*
X92776421Y-81468221D01*
X92743271Y-81406202D01*
X92698658Y-81351842D01*
X92644298Y-81307229D01*
X92582279Y-81274079D01*
X92514984Y-81253666D01*
X92445000Y-81246773D01*
X91694500Y-81246773D01*
X91694500Y-80431661D01*
X91700831Y-80425330D01*
X91759052Y-80338196D01*
X91799155Y-80241379D01*
X91819600Y-80138597D01*
X91819600Y-80033803D01*
X91799155Y-79931021D01*
X91759052Y-79834204D01*
X91700831Y-79747070D01*
X91626730Y-79672969D01*
X91539596Y-79614748D01*
X91442779Y-79574645D01*
X91339997Y-79554200D01*
X91235203Y-79554200D01*
X91132421Y-79574645D01*
X91035604Y-79614748D01*
X90952400Y-79670343D01*
X90952400Y-79529042D01*
X90923309Y-79382791D01*
X90866245Y-79245026D01*
X90783400Y-79121041D01*
X90677959Y-79015600D01*
X90553974Y-78932755D01*
X90416209Y-78875691D01*
X90269958Y-78846600D01*
X90120842Y-78846600D01*
X89974591Y-78875691D01*
X89836826Y-78932755D01*
X89712841Y-79015600D01*
X89607400Y-79121041D01*
X89524555Y-79245026D01*
X89493727Y-79319452D01*
X89493727Y-79065500D01*
X89486834Y-78995516D01*
X89466421Y-78928221D01*
X89433271Y-78866202D01*
X89388658Y-78811842D01*
X89334298Y-78767229D01*
X89272279Y-78734079D01*
X89204984Y-78713666D01*
X89135000Y-78706773D01*
X88745788Y-78706773D01*
X88817931Y-78634630D01*
X88876152Y-78547496D01*
X88916255Y-78450679D01*
X88936700Y-78347897D01*
X88936700Y-78243103D01*
X88916255Y-78140321D01*
X88876152Y-78043504D01*
X88817931Y-77956370D01*
X88743830Y-77882269D01*
X88656696Y-77824048D01*
X88559879Y-77783945D01*
X88457097Y-77763500D01*
X88352303Y-77763500D01*
X88249521Y-77783945D01*
X88232489Y-77791000D01*
X85717859Y-77791000D01*
X85693086Y-77788560D01*
X85668313Y-77791000D01*
X85668304Y-77791000D01*
X85594188Y-77798300D01*
X85499089Y-77827148D01*
X85411446Y-77873994D01*
X85411444Y-77873995D01*
X85411445Y-77873995D01*
X85353875Y-77921241D01*
X85353871Y-77921245D01*
X85334626Y-77937039D01*
X85318831Y-77956285D01*
X85031847Y-78243270D01*
X85020487Y-78241010D01*
X84915693Y-78241010D01*
X84812911Y-78261455D01*
X84716094Y-78301558D01*
X84628960Y-78359779D01*
X84554859Y-78433880D01*
X84496638Y-78521014D01*
X84456535Y-78617831D01*
X84436090Y-78720613D01*
X84436090Y-78825407D01*
X84456535Y-78928189D01*
X84485245Y-78997500D01*
X83933672Y-78997500D01*
X83908899Y-78995060D01*
X83884126Y-78997500D01*
X83884117Y-78997500D01*
X83810001Y-79004800D01*
X83714902Y-79033648D01*
X83627259Y-79080494D01*
X83627257Y-79080495D01*
X83627258Y-79080495D01*
X83569688Y-79127741D01*
X83569684Y-79127745D01*
X83550439Y-79143539D01*
X83534644Y-79162785D01*
X82794985Y-79902445D01*
X82775740Y-79918239D01*
X82759946Y-79937484D01*
X82759941Y-79937489D01*
X82712695Y-79995059D01*
X82712036Y-79996292D01*
X82652544Y-79936800D01*
X82463045Y-79810180D01*
X82252484Y-79722963D01*
X82028955Y-79678500D01*
X81801045Y-79678500D01*
X81577516Y-79722963D01*
X81366955Y-79810180D01*
X81306000Y-79850909D01*
X81306000Y-79280091D01*
X81366955Y-79320820D01*
X81577516Y-79408037D01*
X81801045Y-79452500D01*
X82028955Y-79452500D01*
X82252484Y-79408037D01*
X82463045Y-79320820D01*
X82652544Y-79194200D01*
X82813700Y-79033044D01*
X82940320Y-78843545D01*
X83027537Y-78632984D01*
X83072000Y-78409455D01*
X83072000Y-78181545D01*
X83027537Y-77958016D01*
X82940320Y-77747455D01*
X82813700Y-77557956D01*
X82652544Y-77396800D01*
X82463045Y-77270180D01*
X82252484Y-77182963D01*
X82028955Y-77138500D01*
X81801045Y-77138500D01*
X81577516Y-77182963D01*
X81366955Y-77270180D01*
X81306000Y-77310909D01*
X81306000Y-76740091D01*
X81366955Y-76780820D01*
X81577516Y-76868037D01*
X81801045Y-76912500D01*
X82028955Y-76912500D01*
X82252484Y-76868037D01*
X82463045Y-76780820D01*
X82652544Y-76654200D01*
X82781244Y-76525500D01*
X89576273Y-76525500D01*
X89576273Y-77525500D01*
X89583166Y-77595484D01*
X89603579Y-77662779D01*
X89636729Y-77724798D01*
X89681342Y-77779158D01*
X89735702Y-77823771D01*
X89797721Y-77856921D01*
X89865016Y-77877334D01*
X89935000Y-77884227D01*
X90685500Y-77884227D01*
X90685500Y-77982624D01*
X90683060Y-78007400D01*
X90685500Y-78032176D01*
X90685500Y-78032182D01*
X90692800Y-78106298D01*
X90721648Y-78201397D01*
X90768494Y-78289041D01*
X90831539Y-78365861D01*
X90850790Y-78381660D01*
X93221501Y-80752371D01*
X93221500Y-81463388D01*
X93214445Y-81480421D01*
X93194000Y-81583203D01*
X93194000Y-81687997D01*
X93214445Y-81790779D01*
X93254548Y-81887596D01*
X93312769Y-81974730D01*
X93386870Y-82048831D01*
X93474004Y-82107052D01*
X93570821Y-82147155D01*
X93673603Y-82167600D01*
X93778397Y-82167600D01*
X93881179Y-82147155D01*
X93977996Y-82107052D01*
X94034300Y-82069431D01*
X94034301Y-83635086D01*
X94027245Y-83652121D01*
X94006800Y-83754903D01*
X94006800Y-83859697D01*
X94027245Y-83962479D01*
X94067348Y-84059296D01*
X94125569Y-84146430D01*
X94199670Y-84220531D01*
X94286804Y-84278752D01*
X94383621Y-84318855D01*
X94486403Y-84339300D01*
X94591197Y-84339300D01*
X94693979Y-84318855D01*
X94790796Y-84278752D01*
X94877930Y-84220531D01*
X94952031Y-84146430D01*
X95010252Y-84059296D01*
X95050355Y-83962479D01*
X95070800Y-83859697D01*
X95070800Y-83754903D01*
X95050355Y-83652121D01*
X95043300Y-83635089D01*
X95043300Y-83146461D01*
X95114070Y-83217231D01*
X95201204Y-83275452D01*
X95298021Y-83315555D01*
X95400803Y-83336000D01*
X95505597Y-83336000D01*
X95608379Y-83315555D01*
X95705196Y-83275452D01*
X95792330Y-83217231D01*
X95866431Y-83143130D01*
X95924652Y-83055996D01*
X95964755Y-82959179D01*
X95985200Y-82856397D01*
X95985200Y-82751603D01*
X95964755Y-82648821D01*
X95957700Y-82631789D01*
X95957700Y-80593576D01*
X95960140Y-80568800D01*
X95957700Y-80544024D01*
X95957700Y-80544017D01*
X95951198Y-80478000D01*
X95950400Y-80469900D01*
X95921552Y-80374802D01*
X95904957Y-80343755D01*
X95874706Y-80287159D01*
X95853860Y-80261758D01*
X95827459Y-80229588D01*
X95827455Y-80229584D01*
X95811661Y-80210339D01*
X95792415Y-80194544D01*
X94420407Y-78822537D01*
X94413352Y-78805504D01*
X94355131Y-78718370D01*
X94281030Y-78644269D01*
X94193896Y-78586048D01*
X94162654Y-78573107D01*
X94202731Y-78533030D01*
X94260952Y-78445896D01*
X94301055Y-78349079D01*
X94321500Y-78246297D01*
X94321500Y-78141503D01*
X94301055Y-78038721D01*
X94260952Y-77941904D01*
X94202731Y-77854770D01*
X94128630Y-77780669D01*
X94041496Y-77722448D01*
X93944679Y-77682345D01*
X93841897Y-77661900D01*
X93737103Y-77661900D01*
X93634321Y-77682345D01*
X93537504Y-77722448D01*
X93450370Y-77780669D01*
X93376269Y-77854770D01*
X93318048Y-77941904D01*
X93310993Y-77958936D01*
X93080189Y-78189741D01*
X93060938Y-78205540D01*
X92997893Y-78282360D01*
X92956512Y-78359779D01*
X92951047Y-78370004D01*
X92943647Y-78394400D01*
X92922199Y-78465103D01*
X92914899Y-78539219D01*
X92914899Y-78539225D01*
X92912459Y-78564001D01*
X92914899Y-78588777D01*
X92914900Y-79018830D01*
X91780297Y-77884227D01*
X92445000Y-77884227D01*
X92514984Y-77877334D01*
X92582279Y-77856921D01*
X92644298Y-77823771D01*
X92698658Y-77779158D01*
X92743271Y-77724798D01*
X92776421Y-77662779D01*
X92796834Y-77595484D01*
X92803727Y-77525500D01*
X92803727Y-76525500D01*
X92796834Y-76455516D01*
X92776421Y-76388221D01*
X92743271Y-76326202D01*
X92698658Y-76271842D01*
X92644298Y-76227229D01*
X92582279Y-76194079D01*
X92514984Y-76173666D01*
X92445000Y-76166773D01*
X89935000Y-76166773D01*
X89865016Y-76173666D01*
X89797721Y-76194079D01*
X89735702Y-76227229D01*
X89681342Y-76271842D01*
X89636729Y-76326202D01*
X89603579Y-76388221D01*
X89583166Y-76455516D01*
X89576273Y-76525500D01*
X82781244Y-76525500D01*
X82813700Y-76493044D01*
X82940320Y-76303545D01*
X83027537Y-76092984D01*
X83072000Y-75869455D01*
X83072000Y-75641545D01*
X83027537Y-75418016D01*
X82940320Y-75207455D01*
X82813700Y-75017956D01*
X82652544Y-74856800D01*
X82463045Y-74730180D01*
X82252484Y-74642963D01*
X82028955Y-74598500D01*
X81801045Y-74598500D01*
X81577516Y-74642963D01*
X81366955Y-74730180D01*
X81306000Y-74770909D01*
X81306000Y-74200091D01*
X81366955Y-74240820D01*
X81577516Y-74328037D01*
X81801045Y-74372500D01*
X82028955Y-74372500D01*
X82252484Y-74328037D01*
X82463045Y-74240820D01*
X82652544Y-74114200D01*
X82813700Y-73953044D01*
X82940320Y-73763545D01*
X83027537Y-73552984D01*
X83072000Y-73329455D01*
X83072000Y-73101545D01*
X83027537Y-72878016D01*
X82940320Y-72667455D01*
X82813700Y-72477956D01*
X82652544Y-72316800D01*
X82463045Y-72190180D01*
X82252484Y-72102963D01*
X82028955Y-72058500D01*
X81801045Y-72058500D01*
X81577516Y-72102963D01*
X81366955Y-72190180D01*
X81306000Y-72230909D01*
X81306000Y-71660091D01*
X81366955Y-71700820D01*
X81577516Y-71788037D01*
X81801045Y-71832500D01*
X82028955Y-71832500D01*
X82252484Y-71788037D01*
X82463045Y-71700820D01*
X82652544Y-71574200D01*
X82813700Y-71413044D01*
X82940320Y-71223545D01*
X83027537Y-71012984D01*
X83072000Y-70789455D01*
X83072000Y-70561545D01*
X83027537Y-70338016D01*
X82940320Y-70127455D01*
X82813700Y-69937956D01*
X82652544Y-69776800D01*
X82463045Y-69650180D01*
X82252484Y-69562963D01*
X82028955Y-69518500D01*
X81801045Y-69518500D01*
X81577516Y-69562963D01*
X81366955Y-69650180D01*
X81306000Y-69690909D01*
X81306000Y-69120091D01*
X81366955Y-69160820D01*
X81577516Y-69248037D01*
X81801045Y-69292500D01*
X82028955Y-69292500D01*
X82252484Y-69248037D01*
X82463045Y-69160820D01*
X82652544Y-69034200D01*
X82813700Y-68873044D01*
X82940320Y-68683545D01*
X83027537Y-68472984D01*
X83072000Y-68249455D01*
X83072000Y-68021545D01*
X83027537Y-67798016D01*
X82940320Y-67587455D01*
X82813700Y-67397956D01*
X82652544Y-67236800D01*
X82463045Y-67110180D01*
X82252484Y-67022963D01*
X82028955Y-66978500D01*
X81801045Y-66978500D01*
X81577516Y-67022963D01*
X81366955Y-67110180D01*
X81306000Y-67150909D01*
X81306000Y-66580091D01*
X81366955Y-66620820D01*
X81577516Y-66708037D01*
X81801045Y-66752500D01*
X82028955Y-66752500D01*
X82252484Y-66708037D01*
X82463045Y-66620820D01*
X82652544Y-66494200D01*
X82813700Y-66333044D01*
X82940320Y-66143545D01*
X83027537Y-65932984D01*
X83072000Y-65709455D01*
X83072000Y-65481545D01*
X83027537Y-65258016D01*
X82940320Y-65047455D01*
X82813700Y-64857956D01*
X82652544Y-64696800D01*
X82463045Y-64570180D01*
X82252484Y-64482963D01*
X82028955Y-64438500D01*
X81801045Y-64438500D01*
X81577516Y-64482963D01*
X81366955Y-64570180D01*
X81306000Y-64610909D01*
X81306000Y-64040091D01*
X81366955Y-64080820D01*
X81577516Y-64168037D01*
X81801045Y-64212500D01*
X82028955Y-64212500D01*
X82252484Y-64168037D01*
X82463045Y-64080820D01*
X82652544Y-63954200D01*
X82813700Y-63793044D01*
X82940320Y-63603545D01*
X83027537Y-63392984D01*
X83072000Y-63169455D01*
X83072000Y-62941545D01*
X83027537Y-62718016D01*
X82940320Y-62507455D01*
X82813700Y-62317956D01*
X82652544Y-62156800D01*
X82463045Y-62030180D01*
X82252484Y-61942963D01*
X82028955Y-61898500D01*
X81801045Y-61898500D01*
X81577516Y-61942963D01*
X81366955Y-62030180D01*
X81306000Y-62070909D01*
X81306000Y-61500091D01*
X81366955Y-61540820D01*
X81577516Y-61628037D01*
X81801045Y-61672500D01*
X82028955Y-61672500D01*
X82252484Y-61628037D01*
X82463045Y-61540820D01*
X82652544Y-61414200D01*
X82813700Y-61253044D01*
X82940320Y-61063545D01*
X83027537Y-60852984D01*
X83072000Y-60629455D01*
X83072000Y-60401545D01*
X83027537Y-60178016D01*
X82940320Y-59967455D01*
X82813700Y-59777956D01*
X82652544Y-59616800D01*
X82463045Y-59490180D01*
X82252484Y-59402963D01*
X82028955Y-59358500D01*
X81801045Y-59358500D01*
X81577516Y-59402963D01*
X81366955Y-59490180D01*
X81306000Y-59530909D01*
X81306000Y-58960091D01*
X81366955Y-59000820D01*
X81577516Y-59088037D01*
X81801045Y-59132500D01*
X82028955Y-59132500D01*
X82252484Y-59088037D01*
X82463045Y-59000820D01*
X82652544Y-58874200D01*
X82813700Y-58713044D01*
X82940320Y-58523545D01*
X83027537Y-58312984D01*
X83072000Y-58089455D01*
X83072000Y-57861545D01*
X83027537Y-57638016D01*
X82940320Y-57427455D01*
X82813700Y-57237956D01*
X82652544Y-57076800D01*
X82463045Y-56950180D01*
X82252484Y-56862963D01*
X82028955Y-56818500D01*
X81801045Y-56818500D01*
X81577516Y-56862963D01*
X81366955Y-56950180D01*
X81306000Y-56990909D01*
X81306000Y-56420091D01*
X81366955Y-56460820D01*
X81577516Y-56548037D01*
X81801045Y-56592500D01*
X82028955Y-56592500D01*
X82252484Y-56548037D01*
X82463045Y-56460820D01*
X82652544Y-56334200D01*
X82813700Y-56173044D01*
X82940320Y-55983545D01*
X83027537Y-55772984D01*
X83072000Y-55549455D01*
X83072000Y-55321545D01*
X83027537Y-55098016D01*
X82940320Y-54887455D01*
X82813700Y-54697956D01*
X82652544Y-54536800D01*
X82463045Y-54410180D01*
X82252484Y-54322963D01*
X82028955Y-54278500D01*
X81801045Y-54278500D01*
X81577516Y-54322963D01*
X81366955Y-54410180D01*
X81306000Y-54450909D01*
X81306000Y-53880091D01*
X81366955Y-53920820D01*
X81577516Y-54008037D01*
X81801045Y-54052500D01*
X82028955Y-54052500D01*
X82252484Y-54008037D01*
X82463045Y-53920820D01*
X82652544Y-53794200D01*
X82813700Y-53633044D01*
X82940320Y-53443545D01*
X83027537Y-53232984D01*
X83072000Y-53009455D01*
X83072000Y-52781545D01*
X83027537Y-52558016D01*
X82940320Y-52347455D01*
X82813700Y-52157956D01*
X82652544Y-51996800D01*
X82463045Y-51870180D01*
X82252484Y-51782963D01*
X82028955Y-51738500D01*
X81801045Y-51738500D01*
X81577516Y-51782963D01*
X81366955Y-51870180D01*
X81306000Y-51910909D01*
X81306000Y-51340091D01*
X81366955Y-51380820D01*
X81577516Y-51468037D01*
X81801045Y-51512500D01*
X82028955Y-51512500D01*
X82252484Y-51468037D01*
X82463045Y-51380820D01*
X82652544Y-51254200D01*
X82813700Y-51093044D01*
X82940320Y-50903545D01*
X83027537Y-50692984D01*
X83072000Y-50469455D01*
X83072000Y-50241545D01*
X83027537Y-50018016D01*
X82940320Y-49807455D01*
X82813700Y-49617956D01*
X82652544Y-49456800D01*
X82463045Y-49330180D01*
X82252484Y-49242963D01*
X82028955Y-49198500D01*
X81801045Y-49198500D01*
X81577516Y-49242963D01*
X81366955Y-49330180D01*
X81306000Y-49370909D01*
X81306000Y-48974227D01*
X82715000Y-48974227D01*
X82784984Y-48967334D01*
X82852279Y-48946921D01*
X82914298Y-48913771D01*
X82968658Y-48869158D01*
X83013271Y-48814798D01*
X83046421Y-48752779D01*
X83066834Y-48685484D01*
X83073727Y-48615500D01*
X83073727Y-48506879D01*
X85378800Y-50811953D01*
G37*
X85378800Y-50811953D02*
X85378801Y-54222427D01*
X85375652Y-54254400D01*
X85378801Y-54286373D01*
X85388221Y-54382018D01*
X85407778Y-54446488D01*
X85425446Y-54504732D01*
X85485895Y-54617826D01*
X85546866Y-54692118D01*
X85567248Y-54716953D01*
X85592081Y-54737333D01*
X87401065Y-56546318D01*
X87421447Y-56571153D01*
X87520574Y-56652505D01*
X87633668Y-56712955D01*
X87756382Y-56750180D01*
X87852027Y-56759600D01*
X87852035Y-56759600D01*
X87884000Y-56762748D01*
X87915965Y-56759600D01*
X88630348Y-56759600D01*
X88884000Y-57013253D01*
X88884001Y-57753017D01*
X88880851Y-57785000D01*
X88893420Y-57912618D01*
X88930645Y-58035332D01*
X88991095Y-58148426D01*
X89072447Y-58247553D01*
X89171574Y-58328905D01*
X89284668Y-58389355D01*
X89407382Y-58426580D01*
X89503027Y-58436000D01*
X89535000Y-58439149D01*
X89566973Y-58436000D01*
X89662618Y-58426580D01*
X89785332Y-58389355D01*
X89898426Y-58328905D01*
X89997553Y-58247553D01*
X90078905Y-58148426D01*
X90139355Y-58035332D01*
X90176580Y-57912618D01*
X90189149Y-57785000D01*
X90186000Y-57753027D01*
X90186000Y-56775573D01*
X90189149Y-56743600D01*
X90176580Y-56615982D01*
X90139355Y-56493268D01*
X90078905Y-56380174D01*
X90017935Y-56305882D01*
X90017933Y-56305880D01*
X89997553Y-56281047D01*
X89972720Y-56260668D01*
X89557252Y-55845200D01*
X90862373Y-55845200D01*
X90958018Y-55835780D01*
X91080732Y-55798555D01*
X91131901Y-55771205D01*
X91131901Y-58874246D01*
X85274581Y-64731567D01*
X85249748Y-64751947D01*
X85229368Y-64776780D01*
X85229366Y-64776782D01*
X85168395Y-64851074D01*
X85108891Y-64962400D01*
X85107946Y-64964168D01*
X85070721Y-65086882D01*
X85066755Y-65127148D01*
X85058152Y-65214500D01*
X85061301Y-65246473D01*
X85061300Y-69850039D01*
X85058152Y-69882002D01*
X85061300Y-69913965D01*
X85061300Y-69913974D01*
X85070720Y-70009619D01*
X85107945Y-70132333D01*
X85116944Y-70149169D01*
X85168395Y-70245428D01*
X85206402Y-70291739D01*
X85249747Y-70344555D01*
X85274585Y-70364940D01*
X85746864Y-70837219D01*
X85767246Y-70862054D01*
X85792079Y-70882434D01*
X85792080Y-70882435D01*
X85866372Y-70943406D01*
X85926822Y-70975717D01*
X85979467Y-71003856D01*
X86102181Y-71041081D01*
X86107019Y-71041558D01*
X88378138Y-73312677D01*
X88378143Y-73312681D01*
X88692235Y-73626773D01*
X86625000Y-73626773D01*
X86555016Y-73633666D01*
X86487721Y-73654079D01*
X86425702Y-73687229D01*
X86371342Y-73731842D01*
X86326729Y-73786202D01*
X86293579Y-73848221D01*
X86273166Y-73915516D01*
X86266273Y-73985500D01*
X86266273Y-74985500D01*
X86273166Y-75055484D01*
X86293579Y-75122779D01*
X86326729Y-75184798D01*
X86371342Y-75239158D01*
X86425702Y-75283771D01*
X86487721Y-75316921D01*
X86555016Y-75337334D01*
X86625000Y-75344227D01*
X89135000Y-75344227D01*
X89204984Y-75337334D01*
X89272279Y-75316921D01*
X89334298Y-75283771D01*
X89388658Y-75239158D01*
X89433271Y-75184798D01*
X89466421Y-75122779D01*
X89486834Y-75055484D01*
X89493727Y-74985500D01*
X89493727Y-74428266D01*
X89557100Y-74491639D01*
X89557101Y-74935425D01*
X89537255Y-74965126D01*
X89480191Y-75102891D01*
X89451100Y-75249142D01*
X89451100Y-75398258D01*
X89480191Y-75544509D01*
X89537255Y-75682274D01*
X89620100Y-75806259D01*
X89725541Y-75911700D01*
X89849526Y-75994545D01*
X89987291Y-76051609D01*
X90133542Y-76080700D01*
X90282658Y-76080700D01*
X90428909Y-76051609D01*
X90566674Y-75994545D01*
X90690659Y-75911700D01*
X90774159Y-75828200D01*
X92429117Y-75828200D01*
X92453893Y-75830640D01*
X92478669Y-75828200D01*
X92478676Y-75828200D01*
X92552792Y-75820900D01*
X92647891Y-75792052D01*
X92712330Y-75757609D01*
X92721148Y-75778896D01*
X92779369Y-75866030D01*
X92853470Y-75940131D01*
X92940604Y-75998352D01*
X93037421Y-76038455D01*
X93140203Y-76058900D01*
X93244997Y-76058900D01*
X93322394Y-76043505D01*
X93341445Y-76139279D01*
X93377973Y-76227466D01*
X93315570Y-76289869D01*
X93257349Y-76377003D01*
X93217246Y-76473820D01*
X93196801Y-76576602D01*
X93196801Y-76681396D01*
X93217246Y-76784178D01*
X93257349Y-76880995D01*
X93315570Y-76968129D01*
X93389671Y-77042230D01*
X93476805Y-77100451D01*
X93573622Y-77140554D01*
X93676404Y-77160999D01*
X93781198Y-77160999D01*
X93883980Y-77140554D01*
X93901012Y-77133499D01*
X93956627Y-77133499D01*
X93981403Y-77135939D01*
X94006179Y-77133499D01*
X94006186Y-77133499D01*
X94080302Y-77126199D01*
X94175401Y-77097351D01*
X94263044Y-77050505D01*
X94339864Y-76987460D01*
X94355663Y-76968209D01*
X96084515Y-75239358D01*
X96103761Y-75223563D01*
X96119555Y-75204318D01*
X96119559Y-75204314D01*
X96166805Y-75146744D01*
X96170016Y-75140738D01*
X96213652Y-75059100D01*
X96242500Y-74964001D01*
X96249800Y-74889885D01*
X96249800Y-74889876D01*
X96252240Y-74865103D01*
X96249800Y-74840330D01*
X96249800Y-73943316D01*
X96256300Y-73953044D01*
X96417456Y-74114200D01*
X96606955Y-74240820D01*
X96817516Y-74328037D01*
X97041045Y-74372500D01*
X97268955Y-74372500D01*
X97492484Y-74328037D01*
X97703045Y-74240820D01*
X97764000Y-74200091D01*
X97764000Y-74770909D01*
X97703045Y-74730180D01*
X97492484Y-74642963D01*
X97268955Y-74598500D01*
X97041045Y-74598500D01*
X96817516Y-74642963D01*
X96606955Y-74730180D01*
X96417456Y-74856800D01*
X96256300Y-75017956D01*
X96129680Y-75207455D01*
X96042463Y-75418016D01*
X95998000Y-75641545D01*
X95998000Y-75869455D01*
X96042463Y-76092984D01*
X96129680Y-76303545D01*
X96256300Y-76493044D01*
X96417456Y-76654200D01*
X96606955Y-76780820D01*
X96817516Y-76868037D01*
X97041045Y-76912500D01*
X97268955Y-76912500D01*
X97492484Y-76868037D01*
X97703045Y-76780820D01*
X97764000Y-76740091D01*
X97764001Y-77310909D01*
X97703045Y-77270180D01*
X97492484Y-77182963D01*
X97268955Y-77138500D01*
X97041045Y-77138500D01*
X96817516Y-77182963D01*
X96606955Y-77270180D01*
X96417456Y-77396800D01*
X96256300Y-77557956D01*
X96129680Y-77747455D01*
X96042463Y-77958016D01*
X95998000Y-78181545D01*
X95998000Y-78409455D01*
X96042463Y-78632984D01*
X96129680Y-78843545D01*
X96256300Y-79033044D01*
X96417456Y-79194200D01*
X96606955Y-79320820D01*
X96817516Y-79408037D01*
X97041045Y-79452500D01*
X97268955Y-79452500D01*
X97492484Y-79408037D01*
X97703045Y-79320820D01*
X97764001Y-79280091D01*
X97764001Y-79850909D01*
X97703045Y-79810180D01*
X97492484Y-79722963D01*
X97268955Y-79678500D01*
X97041045Y-79678500D01*
X96817516Y-79722963D01*
X96606955Y-79810180D01*
X96417456Y-79936800D01*
X96256300Y-80097956D01*
X96129680Y-80287455D01*
X96042463Y-80498016D01*
X95998000Y-80721545D01*
X95998000Y-80949455D01*
X96042463Y-81172984D01*
X96129680Y-81383545D01*
X96256300Y-81573044D01*
X96417456Y-81734200D01*
X96606955Y-81860820D01*
X96817516Y-81948037D01*
X97041045Y-81992500D01*
X97268955Y-81992500D01*
X97492484Y-81948037D01*
X97703045Y-81860820D01*
X97764001Y-81820091D01*
X97764001Y-82390909D01*
X97703045Y-82350180D01*
X97492484Y-82262963D01*
X97268955Y-82218500D01*
X97041045Y-82218500D01*
X96817516Y-82262963D01*
X96606955Y-82350180D01*
X96417456Y-82476800D01*
X96256300Y-82637956D01*
X96129680Y-82827455D01*
X96042463Y-83038016D01*
X95998000Y-83261545D01*
X95998000Y-83489455D01*
X96018306Y-83591541D01*
X89059186Y-90550662D01*
X89034347Y-90571047D01*
X89013966Y-90595882D01*
X88952995Y-90670174D01*
X88941100Y-90692429D01*
X88892545Y-90783269D01*
X88855320Y-90905983D01*
X88845900Y-91001628D01*
X88845900Y-91001637D01*
X88842752Y-91033600D01*
X88845900Y-91065563D01*
X88845901Y-91686725D01*
X88826055Y-91716426D01*
X88768991Y-91854191D01*
X88739900Y-92000442D01*
X88739900Y-92149558D01*
X88768991Y-92295809D01*
X88826055Y-92433574D01*
X88908900Y-92557559D01*
X89014341Y-92663000D01*
X89138326Y-92745845D01*
X89276091Y-92802909D01*
X89422342Y-92832000D01*
X89571458Y-92832000D01*
X89717709Y-92802909D01*
X89855474Y-92745845D01*
X89979459Y-92663000D01*
X90084900Y-92557559D01*
X90167745Y-92433574D01*
X90224809Y-92295809D01*
X90253900Y-92149558D01*
X90253900Y-92000442D01*
X90224809Y-91854191D01*
X90167745Y-91716426D01*
X90147900Y-91686726D01*
X90147900Y-91303252D01*
X96222275Y-85228878D01*
X96129680Y-85367455D01*
X96042463Y-85578016D01*
X95998000Y-85801545D01*
X95998000Y-86029455D01*
X96042463Y-86252984D01*
X96129680Y-86463545D01*
X96256300Y-86653044D01*
X96417456Y-86814200D01*
X96606955Y-86940820D01*
X96817516Y-87028037D01*
X97041045Y-87072500D01*
X97268955Y-87072500D01*
X97492484Y-87028037D01*
X97703045Y-86940820D01*
X97764001Y-86900090D01*
X97764001Y-87470910D01*
X97703045Y-87430180D01*
X97492484Y-87342963D01*
X97268955Y-87298500D01*
X97041045Y-87298500D01*
X96817516Y-87342963D01*
X96606955Y-87430180D01*
X96417456Y-87556800D01*
X96256300Y-87717956D01*
X96129680Y-87907455D01*
X96042463Y-88118016D01*
X95998000Y-88341545D01*
X95998000Y-88569455D01*
X96042463Y-88792984D01*
X96129680Y-89003545D01*
X96256300Y-89193044D01*
X96417456Y-89354200D01*
X96606955Y-89480820D01*
X96817516Y-89568037D01*
X97041045Y-89612500D01*
X97268955Y-89612500D01*
X97492484Y-89568037D01*
X97703045Y-89480820D01*
X97764001Y-89440090D01*
X97764001Y-90010910D01*
X97703045Y-89970180D01*
X97492484Y-89882963D01*
X97268955Y-89838500D01*
X97041045Y-89838500D01*
X96817516Y-89882963D01*
X96606955Y-89970180D01*
X96417456Y-90096800D01*
X96256300Y-90257956D01*
X96129680Y-90447455D01*
X96042463Y-90658016D01*
X95998000Y-90881545D01*
X95998000Y-91109455D01*
X96042463Y-91332984D01*
X96129680Y-91543545D01*
X96256300Y-91733044D01*
X96417456Y-91894200D01*
X96606955Y-92020820D01*
X96817516Y-92108037D01*
X97041045Y-92152500D01*
X97268955Y-92152500D01*
X97492484Y-92108037D01*
X97703045Y-92020820D01*
X97764001Y-91980090D01*
X97764001Y-92550910D01*
X97703045Y-92510180D01*
X97492484Y-92422963D01*
X97268955Y-92378500D01*
X97041045Y-92378500D01*
X96817516Y-92422963D01*
X96606955Y-92510180D01*
X96417456Y-92636800D01*
X96256300Y-92797956D01*
X96129680Y-92987455D01*
X96042463Y-93198016D01*
X95998000Y-93421545D01*
X95998000Y-93649455D01*
X96042463Y-93872984D01*
X96129680Y-94083545D01*
X96256300Y-94273044D01*
X96417456Y-94434200D01*
X96606955Y-94560820D01*
X96817516Y-94648037D01*
X97041045Y-94692500D01*
X97268955Y-94692500D01*
X97492484Y-94648037D01*
X97703045Y-94560820D01*
X97764001Y-94520090D01*
X97764001Y-95090910D01*
X97703045Y-95050180D01*
X97492484Y-94962963D01*
X97268955Y-94918500D01*
X97041045Y-94918500D01*
X96817516Y-94962963D01*
X96606955Y-95050180D01*
X96417456Y-95176800D01*
X96256300Y-95337956D01*
X96129680Y-95527455D01*
X96042463Y-95738016D01*
X95998000Y-95961545D01*
X95998000Y-96189455D01*
X96042463Y-96412984D01*
X96129680Y-96623545D01*
X96256300Y-96813044D01*
X96417456Y-96974200D01*
X96606955Y-97100820D01*
X96817516Y-97188037D01*
X97041045Y-97232500D01*
X97268955Y-97232500D01*
X97492484Y-97188037D01*
X97703045Y-97100820D01*
X97764001Y-97060090D01*
X97764001Y-97630910D01*
X97703045Y-97590180D01*
X97492484Y-97502963D01*
X97268955Y-97458500D01*
X97041045Y-97458500D01*
X96817516Y-97502963D01*
X96606955Y-97590180D01*
X96417456Y-97716800D01*
X96256300Y-97877956D01*
X96129680Y-98067455D01*
X96042463Y-98278016D01*
X95998000Y-98501545D01*
X95998000Y-98729455D01*
X96042463Y-98952984D01*
X96129680Y-99163545D01*
X96256300Y-99353044D01*
X96417456Y-99514200D01*
X96606955Y-99640820D01*
X96817516Y-99728037D01*
X97041045Y-99772500D01*
X97268955Y-99772500D01*
X97492484Y-99728037D01*
X97703045Y-99640820D01*
X97764001Y-99600090D01*
X97764001Y-100170910D01*
X97703045Y-100130180D01*
X97492484Y-100042963D01*
X97268955Y-99998500D01*
X97041045Y-99998500D01*
X96817516Y-100042963D01*
X96606955Y-100130180D01*
X96417456Y-100256800D01*
X96256300Y-100417956D01*
X96129680Y-100607455D01*
X96042463Y-100818016D01*
X95998000Y-101041545D01*
X95998000Y-101269455D01*
X96042463Y-101492984D01*
X96129680Y-101703545D01*
X96256300Y-101893044D01*
X96417456Y-102054200D01*
X96606955Y-102180820D01*
X96817516Y-102268037D01*
X97041045Y-102312500D01*
X97268955Y-102312500D01*
X97492484Y-102268037D01*
X97703045Y-102180820D01*
X97764001Y-102140090D01*
X97764001Y-102710910D01*
X97703045Y-102670180D01*
X97492484Y-102582963D01*
X97268955Y-102538500D01*
X97041045Y-102538500D01*
X96817516Y-102582963D01*
X96606955Y-102670180D01*
X96417456Y-102796800D01*
X96256300Y-102957956D01*
X96129680Y-103147455D01*
X96042463Y-103358016D01*
X95998000Y-103581545D01*
X95998000Y-103809455D01*
X96042463Y-104032984D01*
X96129680Y-104243545D01*
X96256300Y-104433044D01*
X96417456Y-104594200D01*
X96606955Y-104720820D01*
X96817516Y-104808037D01*
X97041045Y-104852500D01*
X97268955Y-104852500D01*
X97492484Y-104808037D01*
X97703045Y-104720820D01*
X97764001Y-104680090D01*
X97764001Y-105250910D01*
X97703045Y-105210180D01*
X97492484Y-105122963D01*
X97268955Y-105078500D01*
X97041045Y-105078500D01*
X96817516Y-105122963D01*
X96606955Y-105210180D01*
X96417456Y-105336800D01*
X96256300Y-105497956D01*
X96129680Y-105687455D01*
X96042463Y-105898016D01*
X95998000Y-106121545D01*
X95998000Y-106349455D01*
X96042463Y-106572984D01*
X96129680Y-106783545D01*
X96256300Y-106973044D01*
X96417456Y-107134200D01*
X96459061Y-107162000D01*
X87109012Y-107162000D01*
X87124254Y-107143428D01*
X87182476Y-107034504D01*
X87218328Y-106916314D01*
X87230434Y-106793400D01*
X87228988Y-106527427D01*
X87352862Y-106712818D01*
X87520982Y-106880938D01*
X87718671Y-107013029D01*
X87938331Y-107104016D01*
X88171521Y-107150400D01*
X88409279Y-107150400D01*
X88642469Y-107104016D01*
X88862129Y-107013029D01*
X89059818Y-106880938D01*
X89227938Y-106712818D01*
X89307062Y-106594400D01*
X92787559Y-106594400D01*
X92819522Y-106597548D01*
X92851485Y-106594400D01*
X92851495Y-106594400D01*
X92947140Y-106584980D01*
X93069854Y-106547755D01*
X93182948Y-106487305D01*
X93282075Y-106405953D01*
X93302460Y-106381114D01*
X95167021Y-104516554D01*
X95191853Y-104496175D01*
X95273205Y-104397048D01*
X95273206Y-104397047D01*
X95333655Y-104283955D01*
X95345913Y-104243545D01*
X95370880Y-104161240D01*
X95380300Y-104065595D01*
X95380300Y-104065585D01*
X95383448Y-104033622D01*
X95380300Y-104001659D01*
X95380300Y-99826240D01*
X95383448Y-99794277D01*
X95380300Y-99762314D01*
X95380300Y-99762305D01*
X95370880Y-99666660D01*
X95333655Y-99543946D01*
X95273205Y-99430852D01*
X95191853Y-99331725D01*
X95167020Y-99311345D01*
X90348138Y-94492464D01*
X90327753Y-94467625D01*
X90228626Y-94386273D01*
X90115532Y-94325823D01*
X89992818Y-94288598D01*
X89897173Y-94279178D01*
X89897163Y-94279178D01*
X89865200Y-94276030D01*
X89833237Y-94279178D01*
X88354531Y-94279178D01*
X87938100Y-93862748D01*
X87938100Y-87937752D01*
X88434003Y-87441850D01*
X88489509Y-87430809D01*
X88627274Y-87373745D01*
X88751259Y-87290900D01*
X88856700Y-87185459D01*
X88939545Y-87061474D01*
X88996609Y-86923709D01*
X89025700Y-86777458D01*
X89025700Y-86628342D01*
X88996609Y-86482091D01*
X88939545Y-86344326D01*
X88856700Y-86220341D01*
X88751259Y-86114900D01*
X88627274Y-86032055D01*
X88489509Y-85974991D01*
X88343258Y-85945900D01*
X88194142Y-85945900D01*
X88047891Y-85974991D01*
X87910126Y-86032055D01*
X87880426Y-86051900D01*
X87562851Y-86051900D01*
X87284408Y-85773457D01*
X87588250Y-85772500D01*
X87745000Y-85615750D01*
X87745000Y-84780500D01*
X88015000Y-84780500D01*
X88015000Y-85615750D01*
X88171750Y-85772500D01*
X89135000Y-85775534D01*
X89257914Y-85763428D01*
X89376104Y-85727576D01*
X89485028Y-85669354D01*
X89580501Y-85591001D01*
X89658854Y-85495528D01*
X89717076Y-85386604D01*
X89752928Y-85268414D01*
X89765034Y-85145500D01*
X89762000Y-84937250D01*
X89605250Y-84780500D01*
X88015000Y-84780500D01*
X87745000Y-84780500D01*
X87725000Y-84780500D01*
X87725000Y-84510500D01*
X87745000Y-84510500D01*
X87745000Y-83675250D01*
X88015000Y-83675250D01*
X88015000Y-84510500D01*
X89605250Y-84510500D01*
X89762000Y-84353750D01*
X89765034Y-84145500D01*
X89752928Y-84022586D01*
X89717076Y-83904396D01*
X89658854Y-83795472D01*
X89580501Y-83699999D01*
X89485028Y-83621646D01*
X89376104Y-83563424D01*
X89257914Y-83527572D01*
X89135000Y-83515466D01*
X88171750Y-83518500D01*
X88015000Y-83675250D01*
X87745000Y-83675250D01*
X87588250Y-83518500D01*
X87341192Y-83517722D01*
X87357180Y-83465018D01*
X87366600Y-83369373D01*
X87366600Y-83369365D01*
X87369748Y-83337400D01*
X87366600Y-83305435D01*
X87366600Y-83090936D01*
X88296321Y-82161216D01*
X88321153Y-82140837D01*
X88351424Y-82103952D01*
X88362519Y-82090433D01*
X88953753Y-81499200D01*
X89484522Y-81499200D01*
X89516485Y-81502348D01*
X89548448Y-81499200D01*
X89548458Y-81499200D01*
X89595590Y-81494558D01*
X89583166Y-81535516D01*
X89576273Y-81605500D01*
X89576273Y-82605500D01*
X89583166Y-82675484D01*
X89603579Y-82742779D01*
X89636729Y-82804798D01*
X89681342Y-82859158D01*
X89735702Y-82903771D01*
X89797721Y-82936921D01*
X89865016Y-82957334D01*
X89935000Y-82964227D01*
X92445000Y-82964227D01*
X92514984Y-82957334D01*
X92582279Y-82936921D01*
X92644298Y-82903771D01*
X92698658Y-82859158D01*
X92743271Y-82804798D01*
X92776421Y-82742779D01*
X92796834Y-82675484D01*
X92803727Y-82605500D01*
X92803727Y-81605500D01*
X92796834Y-81535516D01*
X92776421Y-81468221D01*
X92743271Y-81406202D01*
X92698658Y-81351842D01*
X92644298Y-81307229D01*
X92582279Y-81274079D01*
X92514984Y-81253666D01*
X92445000Y-81246773D01*
X91694500Y-81246773D01*
X91694500Y-80431661D01*
X91700831Y-80425330D01*
X91759052Y-80338196D01*
X91799155Y-80241379D01*
X91819600Y-80138597D01*
X91819600Y-80033803D01*
X91799155Y-79931021D01*
X91759052Y-79834204D01*
X91700831Y-79747070D01*
X91626730Y-79672969D01*
X91539596Y-79614748D01*
X91442779Y-79574645D01*
X91339997Y-79554200D01*
X91235203Y-79554200D01*
X91132421Y-79574645D01*
X91035604Y-79614748D01*
X90952400Y-79670343D01*
X90952400Y-79529042D01*
X90923309Y-79382791D01*
X90866245Y-79245026D01*
X90783400Y-79121041D01*
X90677959Y-79015600D01*
X90553974Y-78932755D01*
X90416209Y-78875691D01*
X90269958Y-78846600D01*
X90120842Y-78846600D01*
X89974591Y-78875691D01*
X89836826Y-78932755D01*
X89712841Y-79015600D01*
X89607400Y-79121041D01*
X89524555Y-79245026D01*
X89493727Y-79319452D01*
X89493727Y-79065500D01*
X89486834Y-78995516D01*
X89466421Y-78928221D01*
X89433271Y-78866202D01*
X89388658Y-78811842D01*
X89334298Y-78767229D01*
X89272279Y-78734079D01*
X89204984Y-78713666D01*
X89135000Y-78706773D01*
X88745788Y-78706773D01*
X88817931Y-78634630D01*
X88876152Y-78547496D01*
X88916255Y-78450679D01*
X88936700Y-78347897D01*
X88936700Y-78243103D01*
X88916255Y-78140321D01*
X88876152Y-78043504D01*
X88817931Y-77956370D01*
X88743830Y-77882269D01*
X88656696Y-77824048D01*
X88559879Y-77783945D01*
X88457097Y-77763500D01*
X88352303Y-77763500D01*
X88249521Y-77783945D01*
X88232489Y-77791000D01*
X85717859Y-77791000D01*
X85693086Y-77788560D01*
X85668313Y-77791000D01*
X85668304Y-77791000D01*
X85594188Y-77798300D01*
X85499089Y-77827148D01*
X85411446Y-77873994D01*
X85411444Y-77873995D01*
X85411445Y-77873995D01*
X85353875Y-77921241D01*
X85353871Y-77921245D01*
X85334626Y-77937039D01*
X85318831Y-77956285D01*
X85031847Y-78243270D01*
X85020487Y-78241010D01*
X84915693Y-78241010D01*
X84812911Y-78261455D01*
X84716094Y-78301558D01*
X84628960Y-78359779D01*
X84554859Y-78433880D01*
X84496638Y-78521014D01*
X84456535Y-78617831D01*
X84436090Y-78720613D01*
X84436090Y-78825407D01*
X84456535Y-78928189D01*
X84485245Y-78997500D01*
X83933672Y-78997500D01*
X83908899Y-78995060D01*
X83884126Y-78997500D01*
X83884117Y-78997500D01*
X83810001Y-79004800D01*
X83714902Y-79033648D01*
X83627259Y-79080494D01*
X83627257Y-79080495D01*
X83627258Y-79080495D01*
X83569688Y-79127741D01*
X83569684Y-79127745D01*
X83550439Y-79143539D01*
X83534644Y-79162785D01*
X82794985Y-79902445D01*
X82775740Y-79918239D01*
X82759946Y-79937484D01*
X82759941Y-79937489D01*
X82712695Y-79995059D01*
X82712036Y-79996292D01*
X82652544Y-79936800D01*
X82463045Y-79810180D01*
X82252484Y-79722963D01*
X82028955Y-79678500D01*
X81801045Y-79678500D01*
X81577516Y-79722963D01*
X81366955Y-79810180D01*
X81306000Y-79850909D01*
X81306000Y-79280091D01*
X81366955Y-79320820D01*
X81577516Y-79408037D01*
X81801045Y-79452500D01*
X82028955Y-79452500D01*
X82252484Y-79408037D01*
X82463045Y-79320820D01*
X82652544Y-79194200D01*
X82813700Y-79033044D01*
X82940320Y-78843545D01*
X83027537Y-78632984D01*
X83072000Y-78409455D01*
X83072000Y-78181545D01*
X83027537Y-77958016D01*
X82940320Y-77747455D01*
X82813700Y-77557956D01*
X82652544Y-77396800D01*
X82463045Y-77270180D01*
X82252484Y-77182963D01*
X82028955Y-77138500D01*
X81801045Y-77138500D01*
X81577516Y-77182963D01*
X81366955Y-77270180D01*
X81306000Y-77310909D01*
X81306000Y-76740091D01*
X81366955Y-76780820D01*
X81577516Y-76868037D01*
X81801045Y-76912500D01*
X82028955Y-76912500D01*
X82252484Y-76868037D01*
X82463045Y-76780820D01*
X82652544Y-76654200D01*
X82781244Y-76525500D01*
X89576273Y-76525500D01*
X89576273Y-77525500D01*
X89583166Y-77595484D01*
X89603579Y-77662779D01*
X89636729Y-77724798D01*
X89681342Y-77779158D01*
X89735702Y-77823771D01*
X89797721Y-77856921D01*
X89865016Y-77877334D01*
X89935000Y-77884227D01*
X90685500Y-77884227D01*
X90685500Y-77982624D01*
X90683060Y-78007400D01*
X90685500Y-78032176D01*
X90685500Y-78032182D01*
X90692800Y-78106298D01*
X90721648Y-78201397D01*
X90768494Y-78289041D01*
X90831539Y-78365861D01*
X90850790Y-78381660D01*
X93221501Y-80752371D01*
X93221500Y-81463388D01*
X93214445Y-81480421D01*
X93194000Y-81583203D01*
X93194000Y-81687997D01*
X93214445Y-81790779D01*
X93254548Y-81887596D01*
X93312769Y-81974730D01*
X93386870Y-82048831D01*
X93474004Y-82107052D01*
X93570821Y-82147155D01*
X93673603Y-82167600D01*
X93778397Y-82167600D01*
X93881179Y-82147155D01*
X93977996Y-82107052D01*
X94034300Y-82069431D01*
X94034301Y-83635086D01*
X94027245Y-83652121D01*
X94006800Y-83754903D01*
X94006800Y-83859697D01*
X94027245Y-83962479D01*
X94067348Y-84059296D01*
X94125569Y-84146430D01*
X94199670Y-84220531D01*
X94286804Y-84278752D01*
X94383621Y-84318855D01*
X94486403Y-84339300D01*
X94591197Y-84339300D01*
X94693979Y-84318855D01*
X94790796Y-84278752D01*
X94877930Y-84220531D01*
X94952031Y-84146430D01*
X95010252Y-84059296D01*
X95050355Y-83962479D01*
X95070800Y-83859697D01*
X95070800Y-83754903D01*
X95050355Y-83652121D01*
X95043300Y-83635089D01*
X95043300Y-83146461D01*
X95114070Y-83217231D01*
X95201204Y-83275452D01*
X95298021Y-83315555D01*
X95400803Y-83336000D01*
X95505597Y-83336000D01*
X95608379Y-83315555D01*
X95705196Y-83275452D01*
X95792330Y-83217231D01*
X95866431Y-83143130D01*
X95924652Y-83055996D01*
X95964755Y-82959179D01*
X95985200Y-82856397D01*
X95985200Y-82751603D01*
X95964755Y-82648821D01*
X95957700Y-82631789D01*
X95957700Y-80593576D01*
X95960140Y-80568800D01*
X95957700Y-80544024D01*
X95957700Y-80544017D01*
X95951198Y-80478000D01*
X95950400Y-80469900D01*
X95921552Y-80374802D01*
X95904957Y-80343755D01*
X95874706Y-80287159D01*
X95853860Y-80261758D01*
X95827459Y-80229588D01*
X95827455Y-80229584D01*
X95811661Y-80210339D01*
X95792415Y-80194544D01*
X94420407Y-78822537D01*
X94413352Y-78805504D01*
X94355131Y-78718370D01*
X94281030Y-78644269D01*
X94193896Y-78586048D01*
X94162654Y-78573107D01*
X94202731Y-78533030D01*
X94260952Y-78445896D01*
X94301055Y-78349079D01*
X94321500Y-78246297D01*
X94321500Y-78141503D01*
X94301055Y-78038721D01*
X94260952Y-77941904D01*
X94202731Y-77854770D01*
X94128630Y-77780669D01*
X94041496Y-77722448D01*
X93944679Y-77682345D01*
X93841897Y-77661900D01*
X93737103Y-77661900D01*
X93634321Y-77682345D01*
X93537504Y-77722448D01*
X93450370Y-77780669D01*
X93376269Y-77854770D01*
X93318048Y-77941904D01*
X93310993Y-77958936D01*
X93080189Y-78189741D01*
X93060938Y-78205540D01*
X92997893Y-78282360D01*
X92956512Y-78359779D01*
X92951047Y-78370004D01*
X92943647Y-78394400D01*
X92922199Y-78465103D01*
X92914899Y-78539219D01*
X92914899Y-78539225D01*
X92912459Y-78564001D01*
X92914899Y-78588777D01*
X92914900Y-79018830D01*
X91780297Y-77884227D01*
X92445000Y-77884227D01*
X92514984Y-77877334D01*
X92582279Y-77856921D01*
X92644298Y-77823771D01*
X92698658Y-77779158D01*
X92743271Y-77724798D01*
X92776421Y-77662779D01*
X92796834Y-77595484D01*
X92803727Y-77525500D01*
X92803727Y-76525500D01*
X92796834Y-76455516D01*
X92776421Y-76388221D01*
X92743271Y-76326202D01*
X92698658Y-76271842D01*
X92644298Y-76227229D01*
X92582279Y-76194079D01*
X92514984Y-76173666D01*
X92445000Y-76166773D01*
X89935000Y-76166773D01*
X89865016Y-76173666D01*
X89797721Y-76194079D01*
X89735702Y-76227229D01*
X89681342Y-76271842D01*
X89636729Y-76326202D01*
X89603579Y-76388221D01*
X89583166Y-76455516D01*
X89576273Y-76525500D01*
X82781244Y-76525500D01*
X82813700Y-76493044D01*
X82940320Y-76303545D01*
X83027537Y-76092984D01*
X83072000Y-75869455D01*
X83072000Y-75641545D01*
X83027537Y-75418016D01*
X82940320Y-75207455D01*
X82813700Y-75017956D01*
X82652544Y-74856800D01*
X82463045Y-74730180D01*
X82252484Y-74642963D01*
X82028955Y-74598500D01*
X81801045Y-74598500D01*
X81577516Y-74642963D01*
X81366955Y-74730180D01*
X81306000Y-74770909D01*
X81306000Y-74200091D01*
X81366955Y-74240820D01*
X81577516Y-74328037D01*
X81801045Y-74372500D01*
X82028955Y-74372500D01*
X82252484Y-74328037D01*
X82463045Y-74240820D01*
X82652544Y-74114200D01*
X82813700Y-73953044D01*
X82940320Y-73763545D01*
X83027537Y-73552984D01*
X83072000Y-73329455D01*
X83072000Y-73101545D01*
X83027537Y-72878016D01*
X82940320Y-72667455D01*
X82813700Y-72477956D01*
X82652544Y-72316800D01*
X82463045Y-72190180D01*
X82252484Y-72102963D01*
X82028955Y-72058500D01*
X81801045Y-72058500D01*
X81577516Y-72102963D01*
X81366955Y-72190180D01*
X81306000Y-72230909D01*
X81306000Y-71660091D01*
X81366955Y-71700820D01*
X81577516Y-71788037D01*
X81801045Y-71832500D01*
X82028955Y-71832500D01*
X82252484Y-71788037D01*
X82463045Y-71700820D01*
X82652544Y-71574200D01*
X82813700Y-71413044D01*
X82940320Y-71223545D01*
X83027537Y-71012984D01*
X83072000Y-70789455D01*
X83072000Y-70561545D01*
X83027537Y-70338016D01*
X82940320Y-70127455D01*
X82813700Y-69937956D01*
X82652544Y-69776800D01*
X82463045Y-69650180D01*
X82252484Y-69562963D01*
X82028955Y-69518500D01*
X81801045Y-69518500D01*
X81577516Y-69562963D01*
X81366955Y-69650180D01*
X81306000Y-69690909D01*
X81306000Y-69120091D01*
X81366955Y-69160820D01*
X81577516Y-69248037D01*
X81801045Y-69292500D01*
X82028955Y-69292500D01*
X82252484Y-69248037D01*
X82463045Y-69160820D01*
X82652544Y-69034200D01*
X82813700Y-68873044D01*
X82940320Y-68683545D01*
X83027537Y-68472984D01*
X83072000Y-68249455D01*
X83072000Y-68021545D01*
X83027537Y-67798016D01*
X82940320Y-67587455D01*
X82813700Y-67397956D01*
X82652544Y-67236800D01*
X82463045Y-67110180D01*
X82252484Y-67022963D01*
X82028955Y-66978500D01*
X81801045Y-66978500D01*
X81577516Y-67022963D01*
X81366955Y-67110180D01*
X81306000Y-67150909D01*
X81306000Y-66580091D01*
X81366955Y-66620820D01*
X81577516Y-66708037D01*
X81801045Y-66752500D01*
X82028955Y-66752500D01*
X82252484Y-66708037D01*
X82463045Y-66620820D01*
X82652544Y-66494200D01*
X82813700Y-66333044D01*
X82940320Y-66143545D01*
X83027537Y-65932984D01*
X83072000Y-65709455D01*
X83072000Y-65481545D01*
X83027537Y-65258016D01*
X82940320Y-65047455D01*
X82813700Y-64857956D01*
X82652544Y-64696800D01*
X82463045Y-64570180D01*
X82252484Y-64482963D01*
X82028955Y-64438500D01*
X81801045Y-64438500D01*
X81577516Y-64482963D01*
X81366955Y-64570180D01*
X81306000Y-64610909D01*
X81306000Y-64040091D01*
X81366955Y-64080820D01*
X81577516Y-64168037D01*
X81801045Y-64212500D01*
X82028955Y-64212500D01*
X82252484Y-64168037D01*
X82463045Y-64080820D01*
X82652544Y-63954200D01*
X82813700Y-63793044D01*
X82940320Y-63603545D01*
X83027537Y-63392984D01*
X83072000Y-63169455D01*
X83072000Y-62941545D01*
X83027537Y-62718016D01*
X82940320Y-62507455D01*
X82813700Y-62317956D01*
X82652544Y-62156800D01*
X82463045Y-62030180D01*
X82252484Y-61942963D01*
X82028955Y-61898500D01*
X81801045Y-61898500D01*
X81577516Y-61942963D01*
X81366955Y-62030180D01*
X81306000Y-62070909D01*
X81306000Y-61500091D01*
X81366955Y-61540820D01*
X81577516Y-61628037D01*
X81801045Y-61672500D01*
X82028955Y-61672500D01*
X82252484Y-61628037D01*
X82463045Y-61540820D01*
X82652544Y-61414200D01*
X82813700Y-61253044D01*
X82940320Y-61063545D01*
X83027537Y-60852984D01*
X83072000Y-60629455D01*
X83072000Y-60401545D01*
X83027537Y-60178016D01*
X82940320Y-59967455D01*
X82813700Y-59777956D01*
X82652544Y-59616800D01*
X82463045Y-59490180D01*
X82252484Y-59402963D01*
X82028955Y-59358500D01*
X81801045Y-59358500D01*
X81577516Y-59402963D01*
X81366955Y-59490180D01*
X81306000Y-59530909D01*
X81306000Y-58960091D01*
X81366955Y-59000820D01*
X81577516Y-59088037D01*
X81801045Y-59132500D01*
X82028955Y-59132500D01*
X82252484Y-59088037D01*
X82463045Y-59000820D01*
X82652544Y-58874200D01*
X82813700Y-58713044D01*
X82940320Y-58523545D01*
X83027537Y-58312984D01*
X83072000Y-58089455D01*
X83072000Y-57861545D01*
X83027537Y-57638016D01*
X82940320Y-57427455D01*
X82813700Y-57237956D01*
X82652544Y-57076800D01*
X82463045Y-56950180D01*
X82252484Y-56862963D01*
X82028955Y-56818500D01*
X81801045Y-56818500D01*
X81577516Y-56862963D01*
X81366955Y-56950180D01*
X81306000Y-56990909D01*
X81306000Y-56420091D01*
X81366955Y-56460820D01*
X81577516Y-56548037D01*
X81801045Y-56592500D01*
X82028955Y-56592500D01*
X82252484Y-56548037D01*
X82463045Y-56460820D01*
X82652544Y-56334200D01*
X82813700Y-56173044D01*
X82940320Y-55983545D01*
X83027537Y-55772984D01*
X83072000Y-55549455D01*
X83072000Y-55321545D01*
X83027537Y-55098016D01*
X82940320Y-54887455D01*
X82813700Y-54697956D01*
X82652544Y-54536800D01*
X82463045Y-54410180D01*
X82252484Y-54322963D01*
X82028955Y-54278500D01*
X81801045Y-54278500D01*
X81577516Y-54322963D01*
X81366955Y-54410180D01*
X81306000Y-54450909D01*
X81306000Y-53880091D01*
X81366955Y-53920820D01*
X81577516Y-54008037D01*
X81801045Y-54052500D01*
X82028955Y-54052500D01*
X82252484Y-54008037D01*
X82463045Y-53920820D01*
X82652544Y-53794200D01*
X82813700Y-53633044D01*
X82940320Y-53443545D01*
X83027537Y-53232984D01*
X83072000Y-53009455D01*
X83072000Y-52781545D01*
X83027537Y-52558016D01*
X82940320Y-52347455D01*
X82813700Y-52157956D01*
X82652544Y-51996800D01*
X82463045Y-51870180D01*
X82252484Y-51782963D01*
X82028955Y-51738500D01*
X81801045Y-51738500D01*
X81577516Y-51782963D01*
X81366955Y-51870180D01*
X81306000Y-51910909D01*
X81306000Y-51340091D01*
X81366955Y-51380820D01*
X81577516Y-51468037D01*
X81801045Y-51512500D01*
X82028955Y-51512500D01*
X82252484Y-51468037D01*
X82463045Y-51380820D01*
X82652544Y-51254200D01*
X82813700Y-51093044D01*
X82940320Y-50903545D01*
X83027537Y-50692984D01*
X83072000Y-50469455D01*
X83072000Y-50241545D01*
X83027537Y-50018016D01*
X82940320Y-49807455D01*
X82813700Y-49617956D01*
X82652544Y-49456800D01*
X82463045Y-49330180D01*
X82252484Y-49242963D01*
X82028955Y-49198500D01*
X81801045Y-49198500D01*
X81577516Y-49242963D01*
X81366955Y-49330180D01*
X81306000Y-49370909D01*
X81306000Y-48974227D01*
X82715000Y-48974227D01*
X82784984Y-48967334D01*
X82852279Y-48946921D01*
X82914298Y-48913771D01*
X82968658Y-48869158D01*
X83013271Y-48814798D01*
X83046421Y-48752779D01*
X83066834Y-48685484D01*
X83073727Y-48615500D01*
X83073727Y-48506879D01*
X85378800Y-50811953D01*
G36*
X94078301Y-100063932D02*
G01*
X94078300Y-101022372D01*
X94078301Y-101022382D01*
X94078301Y-102424758D01*
X93942129Y-102333771D01*
X93722469Y-102242784D01*
X93489279Y-102196400D01*
X93251521Y-102196400D01*
X93018331Y-102242784D01*
X92798671Y-102333771D01*
X92600982Y-102465862D01*
X92432862Y-102633982D01*
X92300771Y-102831671D01*
X92209784Y-103051331D01*
X92163400Y-103284521D01*
X92163400Y-103522279D01*
X92209784Y-103755469D01*
X92300771Y-103975129D01*
X92432862Y-104172818D01*
X92600982Y-104340938D01*
X92798671Y-104473029D01*
X93018331Y-104564016D01*
X93235130Y-104607140D01*
X92549870Y-105292400D01*
X89307062Y-105292400D01*
X89227938Y-105173982D01*
X89059818Y-105005862D01*
X88862129Y-104873771D01*
X88642469Y-104782784D01*
X88409279Y-104736400D01*
X88171521Y-104736400D01*
X87938331Y-104782784D01*
X87718671Y-104873771D01*
X87520982Y-105005862D01*
X87352862Y-105173982D01*
X87228988Y-105359373D01*
X87230434Y-105093400D01*
X87218328Y-104970486D01*
X87182476Y-104852296D01*
X87124254Y-104743372D01*
X87045901Y-104647899D01*
X86950428Y-104569546D01*
X86841504Y-104511324D01*
X86723314Y-104475472D01*
X86600400Y-104463366D01*
X86334427Y-104464812D01*
X86519818Y-104340938D01*
X86687938Y-104172818D01*
X86820029Y-103975129D01*
X86911016Y-103755469D01*
X86957400Y-103522279D01*
X86957400Y-103284521D01*
X86911016Y-103051331D01*
X86820029Y-102831671D01*
X86687938Y-102633982D01*
X86519818Y-102465862D01*
X86322129Y-102333771D01*
X86254900Y-102305924D01*
X86254900Y-101300970D01*
X87184616Y-100371255D01*
X87203862Y-100355460D01*
X87219656Y-100336215D01*
X87219660Y-100336211D01*
X87266906Y-100278641D01*
X87267670Y-100277212D01*
X87313753Y-100190997D01*
X87323941Y-100157411D01*
X87359530Y-100133631D01*
X87433631Y-100059530D01*
X87449282Y-100036106D01*
X87492304Y-100064852D01*
X87509337Y-100071907D01*
X87785901Y-100348472D01*
X87785900Y-102305923D01*
X87718671Y-102333771D01*
X87520982Y-102465862D01*
X87352862Y-102633982D01*
X87220771Y-102831671D01*
X87129784Y-103051331D01*
X87083400Y-103284521D01*
X87083400Y-103522279D01*
X87129784Y-103755469D01*
X87220771Y-103975129D01*
X87352862Y-104172818D01*
X87520982Y-104340938D01*
X87718671Y-104473029D01*
X87938331Y-104564016D01*
X88171521Y-104610400D01*
X88409279Y-104610400D01*
X88642469Y-104564016D01*
X88862129Y-104473029D01*
X89059818Y-104340938D01*
X89227938Y-104172818D01*
X89360029Y-103975129D01*
X89451016Y-103755469D01*
X89497400Y-103522279D01*
X89497400Y-103284521D01*
X89623400Y-103284521D01*
X89623400Y-103522279D01*
X89669784Y-103755469D01*
X89760771Y-103975129D01*
X89892862Y-104172818D01*
X90060982Y-104340938D01*
X90258671Y-104473029D01*
X90478331Y-104564016D01*
X90711521Y-104610400D01*
X90949279Y-104610400D01*
X91182469Y-104564016D01*
X91402129Y-104473029D01*
X91599818Y-104340938D01*
X91767938Y-104172818D01*
X91900029Y-103975129D01*
X91991016Y-103755469D01*
X92037400Y-103522279D01*
X92037400Y-103284521D01*
X91991016Y-103051331D01*
X91900029Y-102831671D01*
X91767938Y-102633982D01*
X91599818Y-102465862D01*
X91402129Y-102333771D01*
X91182469Y-102242784D01*
X90949279Y-102196400D01*
X90711521Y-102196400D01*
X90478331Y-102242784D01*
X90258671Y-102333771D01*
X90060982Y-102465862D01*
X89892862Y-102633982D01*
X89760771Y-102831671D01*
X89669784Y-103051331D01*
X89623400Y-103284521D01*
X89497400Y-103284521D01*
X89451016Y-103051331D01*
X89360029Y-102831671D01*
X89227938Y-102633982D01*
X89059818Y-102465862D01*
X88862129Y-102333771D01*
X88794900Y-102305924D01*
X88794900Y-100164272D01*
X88797340Y-100139499D01*
X88794900Y-100114726D01*
X88794900Y-100114717D01*
X88787600Y-100040601D01*
X88758752Y-99945502D01*
X88711906Y-99857859D01*
X88701563Y-99845256D01*
X88664659Y-99800288D01*
X88664655Y-99800284D01*
X88648861Y-99781039D01*
X88629615Y-99765244D01*
X88222807Y-99358437D01*
X88215752Y-99341404D01*
X88157531Y-99254270D01*
X88083430Y-99180169D01*
X87996296Y-99121948D01*
X87899479Y-99081845D01*
X87796697Y-99061400D01*
X87691903Y-99061400D01*
X87589121Y-99081845D01*
X87502206Y-99117846D01*
X89934621Y-96685432D01*
X89959453Y-96665053D01*
X90040805Y-96565926D01*
X90101255Y-96452832D01*
X90138480Y-96330118D01*
X90143418Y-96279982D01*
X90167745Y-96243574D01*
X90194164Y-96179794D01*
X94078301Y-100063932D01*
G37*
X94078301Y-100063932D02*
X94078300Y-101022372D01*
X94078301Y-101022382D01*
X94078301Y-102424758D01*
X93942129Y-102333771D01*
X93722469Y-102242784D01*
X93489279Y-102196400D01*
X93251521Y-102196400D01*
X93018331Y-102242784D01*
X92798671Y-102333771D01*
X92600982Y-102465862D01*
X92432862Y-102633982D01*
X92300771Y-102831671D01*
X92209784Y-103051331D01*
X92163400Y-103284521D01*
X92163400Y-103522279D01*
X92209784Y-103755469D01*
X92300771Y-103975129D01*
X92432862Y-104172818D01*
X92600982Y-104340938D01*
X92798671Y-104473029D01*
X93018331Y-104564016D01*
X93235130Y-104607140D01*
X92549870Y-105292400D01*
X89307062Y-105292400D01*
X89227938Y-105173982D01*
X89059818Y-105005862D01*
X88862129Y-104873771D01*
X88642469Y-104782784D01*
X88409279Y-104736400D01*
X88171521Y-104736400D01*
X87938331Y-104782784D01*
X87718671Y-104873771D01*
X87520982Y-105005862D01*
X87352862Y-105173982D01*
X87228988Y-105359373D01*
X87230434Y-105093400D01*
X87218328Y-104970486D01*
X87182476Y-104852296D01*
X87124254Y-104743372D01*
X87045901Y-104647899D01*
X86950428Y-104569546D01*
X86841504Y-104511324D01*
X86723314Y-104475472D01*
X86600400Y-104463366D01*
X86334427Y-104464812D01*
X86519818Y-104340938D01*
X86687938Y-104172818D01*
X86820029Y-103975129D01*
X86911016Y-103755469D01*
X86957400Y-103522279D01*
X86957400Y-103284521D01*
X86911016Y-103051331D01*
X86820029Y-102831671D01*
X86687938Y-102633982D01*
X86519818Y-102465862D01*
X86322129Y-102333771D01*
X86254900Y-102305924D01*
X86254900Y-101300970D01*
X87184616Y-100371255D01*
X87203862Y-100355460D01*
X87219656Y-100336215D01*
X87219660Y-100336211D01*
X87266906Y-100278641D01*
X87267670Y-100277212D01*
X87313753Y-100190997D01*
X87323941Y-100157411D01*
X87359530Y-100133631D01*
X87433631Y-100059530D01*
X87449282Y-100036106D01*
X87492304Y-100064852D01*
X87509337Y-100071907D01*
X87785901Y-100348472D01*
X87785900Y-102305923D01*
X87718671Y-102333771D01*
X87520982Y-102465862D01*
X87352862Y-102633982D01*
X87220771Y-102831671D01*
X87129784Y-103051331D01*
X87083400Y-103284521D01*
X87083400Y-103522279D01*
X87129784Y-103755469D01*
X87220771Y-103975129D01*
X87352862Y-104172818D01*
X87520982Y-104340938D01*
X87718671Y-104473029D01*
X87938331Y-104564016D01*
X88171521Y-104610400D01*
X88409279Y-104610400D01*
X88642469Y-104564016D01*
X88862129Y-104473029D01*
X89059818Y-104340938D01*
X89227938Y-104172818D01*
X89360029Y-103975129D01*
X89451016Y-103755469D01*
X89497400Y-103522279D01*
X89497400Y-103284521D01*
X89623400Y-103284521D01*
X89623400Y-103522279D01*
X89669784Y-103755469D01*
X89760771Y-103975129D01*
X89892862Y-104172818D01*
X90060982Y-104340938D01*
X90258671Y-104473029D01*
X90478331Y-104564016D01*
X90711521Y-104610400D01*
X90949279Y-104610400D01*
X91182469Y-104564016D01*
X91402129Y-104473029D01*
X91599818Y-104340938D01*
X91767938Y-104172818D01*
X91900029Y-103975129D01*
X91991016Y-103755469D01*
X92037400Y-103522279D01*
X92037400Y-103284521D01*
X91991016Y-103051331D01*
X91900029Y-102831671D01*
X91767938Y-102633982D01*
X91599818Y-102465862D01*
X91402129Y-102333771D01*
X91182469Y-102242784D01*
X90949279Y-102196400D01*
X90711521Y-102196400D01*
X90478331Y-102242784D01*
X90258671Y-102333771D01*
X90060982Y-102465862D01*
X89892862Y-102633982D01*
X89760771Y-102831671D01*
X89669784Y-103051331D01*
X89623400Y-103284521D01*
X89497400Y-103284521D01*
X89451016Y-103051331D01*
X89360029Y-102831671D01*
X89227938Y-102633982D01*
X89059818Y-102465862D01*
X88862129Y-102333771D01*
X88794900Y-102305924D01*
X88794900Y-100164272D01*
X88797340Y-100139499D01*
X88794900Y-100114726D01*
X88794900Y-100114717D01*
X88787600Y-100040601D01*
X88758752Y-99945502D01*
X88711906Y-99857859D01*
X88701563Y-99845256D01*
X88664659Y-99800288D01*
X88664655Y-99800284D01*
X88648861Y-99781039D01*
X88629615Y-99765244D01*
X88222807Y-99358437D01*
X88215752Y-99341404D01*
X88157531Y-99254270D01*
X88083430Y-99180169D01*
X87996296Y-99121948D01*
X87899479Y-99081845D01*
X87796697Y-99061400D01*
X87691903Y-99061400D01*
X87589121Y-99081845D01*
X87502206Y-99117846D01*
X89934621Y-96685432D01*
X89959453Y-96665053D01*
X90040805Y-96565926D01*
X90101255Y-96452832D01*
X90138480Y-96330118D01*
X90143418Y-96279982D01*
X90167745Y-96243574D01*
X90194164Y-96179794D01*
X94078301Y-100063932D01*
G36*
X96256300Y-48553044D02*
G01*
X96417456Y-48714200D01*
X96606955Y-48840820D01*
X96817516Y-48928037D01*
X97041045Y-48972500D01*
X97268955Y-48972500D01*
X97492484Y-48928037D01*
X97703045Y-48840820D01*
X97764000Y-48800091D01*
X97764000Y-49370909D01*
X97703045Y-49330180D01*
X97492484Y-49242963D01*
X97268955Y-49198500D01*
X97041045Y-49198500D01*
X96817516Y-49242963D01*
X96606955Y-49330180D01*
X96417456Y-49456800D01*
X96256300Y-49617956D01*
X96129680Y-49807455D01*
X96042463Y-50018016D01*
X95998000Y-50241545D01*
X95998000Y-50469455D01*
X96042463Y-50692984D01*
X96129680Y-50903545D01*
X96256300Y-51093044D01*
X96417456Y-51254200D01*
X96606955Y-51380820D01*
X96817516Y-51468037D01*
X97041045Y-51512500D01*
X97268955Y-51512500D01*
X97492484Y-51468037D01*
X97703045Y-51380820D01*
X97764000Y-51340091D01*
X97764000Y-51910909D01*
X97703045Y-51870180D01*
X97492484Y-51782963D01*
X97268955Y-51738500D01*
X97041045Y-51738500D01*
X96817516Y-51782963D01*
X96606955Y-51870180D01*
X96417456Y-51996800D01*
X96256300Y-52157956D01*
X96129680Y-52347455D01*
X96042463Y-52558016D01*
X95998000Y-52781545D01*
X95998000Y-53009455D01*
X96042463Y-53232984D01*
X96129680Y-53443545D01*
X96256300Y-53633044D01*
X96417456Y-53794200D01*
X96606955Y-53920820D01*
X96817516Y-54008037D01*
X97041045Y-54052500D01*
X97268955Y-54052500D01*
X97492484Y-54008037D01*
X97703045Y-53920820D01*
X97764000Y-53880091D01*
X97764000Y-54450909D01*
X97703045Y-54410180D01*
X97492484Y-54322963D01*
X97268955Y-54278500D01*
X97041045Y-54278500D01*
X96817516Y-54322963D01*
X96606955Y-54410180D01*
X96417456Y-54536800D01*
X96256300Y-54697956D01*
X96129680Y-54887455D01*
X96042463Y-55098016D01*
X95998000Y-55321545D01*
X95998000Y-55549455D01*
X96042463Y-55772984D01*
X96129680Y-55983545D01*
X96256300Y-56173044D01*
X96417456Y-56334200D01*
X96606955Y-56460820D01*
X96817516Y-56548037D01*
X97041045Y-56592500D01*
X97268955Y-56592500D01*
X97492484Y-56548037D01*
X97703045Y-56460820D01*
X97764000Y-56420091D01*
X97764000Y-56990909D01*
X97703045Y-56950180D01*
X97492484Y-56862963D01*
X97268955Y-56818500D01*
X97041045Y-56818500D01*
X96817516Y-56862963D01*
X96606955Y-56950180D01*
X96417456Y-57076800D01*
X96256300Y-57237956D01*
X96129680Y-57427455D01*
X96042463Y-57638016D01*
X95998000Y-57861545D01*
X95998000Y-58089455D01*
X96042463Y-58312984D01*
X96129680Y-58523545D01*
X96256300Y-58713044D01*
X96417456Y-58874200D01*
X96606955Y-59000820D01*
X96817516Y-59088037D01*
X97041045Y-59132500D01*
X97268955Y-59132500D01*
X97492484Y-59088037D01*
X97703045Y-59000820D01*
X97764000Y-58960091D01*
X97764000Y-59530909D01*
X97703045Y-59490180D01*
X97492484Y-59402963D01*
X97268955Y-59358500D01*
X97041045Y-59358500D01*
X96817516Y-59402963D01*
X96606955Y-59490180D01*
X96417456Y-59616800D01*
X96256300Y-59777956D01*
X96129680Y-59967455D01*
X96042463Y-60178016D01*
X95998000Y-60401545D01*
X95998000Y-60629455D01*
X96042463Y-60852984D01*
X96129680Y-61063545D01*
X96256300Y-61253044D01*
X96417456Y-61414200D01*
X96606955Y-61540820D01*
X96817516Y-61628037D01*
X97041045Y-61672500D01*
X97268955Y-61672500D01*
X97492484Y-61628037D01*
X97703045Y-61540820D01*
X97764000Y-61500091D01*
X97764000Y-62070909D01*
X97703045Y-62030180D01*
X97492484Y-61942963D01*
X97268955Y-61898500D01*
X97041045Y-61898500D01*
X96817516Y-61942963D01*
X96606955Y-62030180D01*
X96417456Y-62156800D01*
X96256300Y-62317956D01*
X96129680Y-62507455D01*
X96042463Y-62718016D01*
X95998000Y-62941545D01*
X95998000Y-63169455D01*
X96042463Y-63392984D01*
X96060500Y-63436529D01*
X95406085Y-64090945D01*
X95386840Y-64106739D01*
X95371046Y-64125984D01*
X95371041Y-64125989D01*
X95323795Y-64183559D01*
X95276948Y-64271203D01*
X95248100Y-64366301D01*
X95238360Y-64465200D01*
X95240801Y-64489985D01*
X95240800Y-66096182D01*
X94910786Y-66426195D01*
X94891540Y-66441990D01*
X94875746Y-66461235D01*
X94875741Y-66461240D01*
X94828495Y-66518810D01*
X94781649Y-66606453D01*
X94752801Y-66701552D01*
X94743060Y-66800451D01*
X94745501Y-66825236D01*
X94745500Y-68009117D01*
X94745500Y-68009124D01*
X94743060Y-68033900D01*
X94745500Y-68058676D01*
X94745501Y-68431432D01*
X94416070Y-68760862D01*
X94396819Y-68776661D01*
X94333774Y-68853481D01*
X94286928Y-68941125D01*
X94258080Y-69036224D01*
X94250780Y-69110340D01*
X94250780Y-69110349D01*
X94248340Y-69135122D01*
X94250780Y-69159897D01*
X94250781Y-74086846D01*
X94245808Y-74091819D01*
X94218542Y-74025994D01*
X94160321Y-73938860D01*
X94086220Y-73864759D01*
X93999086Y-73806538D01*
X93902269Y-73766435D01*
X93799487Y-73745990D01*
X93694693Y-73745990D01*
X93591911Y-73766435D01*
X93574879Y-73773490D01*
X93524375Y-73773490D01*
X93499602Y-73771050D01*
X93474829Y-73773490D01*
X93474820Y-73773490D01*
X93400704Y-73780790D01*
X93305605Y-73809638D01*
X93217962Y-73856484D01*
X93215431Y-73858561D01*
X93160391Y-73903731D01*
X93160387Y-73903735D01*
X93147807Y-73914059D01*
X93143352Y-73903304D01*
X93085131Y-73816170D01*
X93011030Y-73742069D01*
X92923896Y-73683848D01*
X92906864Y-73676793D01*
X92034297Y-72804227D01*
X92445000Y-72804227D01*
X92514984Y-72797334D01*
X92582279Y-72776921D01*
X92644298Y-72743771D01*
X92698658Y-72699158D01*
X92743271Y-72644798D01*
X92776421Y-72582779D01*
X92796834Y-72515484D01*
X92803727Y-72445500D01*
X92803727Y-71445500D01*
X92796834Y-71375516D01*
X92776421Y-71308221D01*
X92743271Y-71246202D01*
X92698658Y-71191842D01*
X92644298Y-71147229D01*
X92582279Y-71114079D01*
X92514984Y-71093666D01*
X92445000Y-71086773D01*
X89935000Y-71086773D01*
X89865016Y-71093666D01*
X89797721Y-71114079D01*
X89735702Y-71147229D01*
X89681342Y-71191842D01*
X89636729Y-71246202D01*
X89603579Y-71308221D01*
X89583166Y-71375516D01*
X89576273Y-71445500D01*
X89576273Y-72445500D01*
X89583166Y-72515484D01*
X89603579Y-72582779D01*
X89636729Y-72644798D01*
X89681342Y-72699158D01*
X89735702Y-72743771D01*
X89797721Y-72776921D01*
X89865016Y-72797334D01*
X89935000Y-72804227D01*
X90702485Y-72804227D01*
X90721648Y-72867397D01*
X90768495Y-72955041D01*
X90815741Y-73012611D01*
X90815746Y-73012616D01*
X90831540Y-73031861D01*
X90850785Y-73047655D01*
X92193393Y-74390264D01*
X92200448Y-74407296D01*
X92258669Y-74494430D01*
X92332770Y-74568531D01*
X92419904Y-74626752D01*
X92432255Y-74631868D01*
X92244923Y-74819200D01*
X90859100Y-74819200D01*
X90859100Y-74253949D01*
X90862248Y-74221986D01*
X90859100Y-74190023D01*
X90859100Y-74190013D01*
X90849680Y-74094368D01*
X90816655Y-73985500D01*
X90812455Y-73971653D01*
X90752005Y-73858560D01*
X90691034Y-73784267D01*
X90691033Y-73784266D01*
X90670653Y-73759433D01*
X90645821Y-73739054D01*
X89298795Y-72392029D01*
X89298791Y-72392024D01*
X87170993Y-70264227D01*
X89135000Y-70264227D01*
X89204984Y-70257334D01*
X89272279Y-70236921D01*
X89334298Y-70203771D01*
X89388658Y-70159158D01*
X89433271Y-70104798D01*
X89466421Y-70042779D01*
X89486834Y-69975484D01*
X89492033Y-69922700D01*
X93147389Y-69922700D01*
X93164421Y-69929755D01*
X93267203Y-69950200D01*
X93371997Y-69950200D01*
X93474779Y-69929755D01*
X93571596Y-69889652D01*
X93658730Y-69831431D01*
X93732831Y-69757330D01*
X93791052Y-69670196D01*
X93831155Y-69573379D01*
X93851600Y-69470597D01*
X93851600Y-69365803D01*
X93831155Y-69263021D01*
X93791052Y-69166204D01*
X93732831Y-69079070D01*
X93658730Y-69004969D01*
X93571596Y-68946748D01*
X93474779Y-68906645D01*
X93371997Y-68886200D01*
X93267203Y-68886200D01*
X93164421Y-68906645D01*
X93147389Y-68913700D01*
X89546700Y-68913700D01*
X89528899Y-68908300D01*
X89493661Y-68904829D01*
X89486834Y-68835516D01*
X89466421Y-68768221D01*
X89433271Y-68706202D01*
X89388658Y-68651842D01*
X89334298Y-68607229D01*
X89272279Y-68574079D01*
X89204984Y-68553666D01*
X89135000Y-68546773D01*
X86625000Y-68546773D01*
X86555016Y-68553666D01*
X86487721Y-68574079D01*
X86425702Y-68607229D01*
X86371342Y-68651842D01*
X86363300Y-68661641D01*
X86363300Y-65484152D01*
X92220620Y-59626833D01*
X92245453Y-59606453D01*
X92326805Y-59507326D01*
X92387255Y-59394232D01*
X92424480Y-59271518D01*
X92433900Y-59175873D01*
X92433900Y-59175865D01*
X92437048Y-59143900D01*
X92433900Y-59111935D01*
X92433900Y-49791000D01*
X92741973Y-49791000D01*
X92837618Y-49781580D01*
X92960332Y-49744355D01*
X93073426Y-49683905D01*
X93172553Y-49602553D01*
X93253905Y-49503426D01*
X93314355Y-49390332D01*
X93351580Y-49267618D01*
X93364149Y-49140000D01*
X93351580Y-49012382D01*
X93314355Y-48889668D01*
X93253905Y-48776574D01*
X93172553Y-48677447D01*
X93073426Y-48596095D01*
X92960332Y-48535645D01*
X92837618Y-48498420D01*
X92741973Y-48489000D01*
X92042753Y-48489000D01*
X92065253Y-48466500D01*
X96198473Y-48466500D01*
X96256300Y-48553044D01*
G37*
X96256300Y-48553044D02*
X96417456Y-48714200D01*
X96606955Y-48840820D01*
X96817516Y-48928037D01*
X97041045Y-48972500D01*
X97268955Y-48972500D01*
X97492484Y-48928037D01*
X97703045Y-48840820D01*
X97764000Y-48800091D01*
X97764000Y-49370909D01*
X97703045Y-49330180D01*
X97492484Y-49242963D01*
X97268955Y-49198500D01*
X97041045Y-49198500D01*
X96817516Y-49242963D01*
X96606955Y-49330180D01*
X96417456Y-49456800D01*
X96256300Y-49617956D01*
X96129680Y-49807455D01*
X96042463Y-50018016D01*
X95998000Y-50241545D01*
X95998000Y-50469455D01*
X96042463Y-50692984D01*
X96129680Y-50903545D01*
X96256300Y-51093044D01*
X96417456Y-51254200D01*
X96606955Y-51380820D01*
X96817516Y-51468037D01*
X97041045Y-51512500D01*
X97268955Y-51512500D01*
X97492484Y-51468037D01*
X97703045Y-51380820D01*
X97764000Y-51340091D01*
X97764000Y-51910909D01*
X97703045Y-51870180D01*
X97492484Y-51782963D01*
X97268955Y-51738500D01*
X97041045Y-51738500D01*
X96817516Y-51782963D01*
X96606955Y-51870180D01*
X96417456Y-51996800D01*
X96256300Y-52157956D01*
X96129680Y-52347455D01*
X96042463Y-52558016D01*
X95998000Y-52781545D01*
X95998000Y-53009455D01*
X96042463Y-53232984D01*
X96129680Y-53443545D01*
X96256300Y-53633044D01*
X96417456Y-53794200D01*
X96606955Y-53920820D01*
X96817516Y-54008037D01*
X97041045Y-54052500D01*
X97268955Y-54052500D01*
X97492484Y-54008037D01*
X97703045Y-53920820D01*
X97764000Y-53880091D01*
X97764000Y-54450909D01*
X97703045Y-54410180D01*
X97492484Y-54322963D01*
X97268955Y-54278500D01*
X97041045Y-54278500D01*
X96817516Y-54322963D01*
X96606955Y-54410180D01*
X96417456Y-54536800D01*
X96256300Y-54697956D01*
X96129680Y-54887455D01*
X96042463Y-55098016D01*
X95998000Y-55321545D01*
X95998000Y-55549455D01*
X96042463Y-55772984D01*
X96129680Y-55983545D01*
X96256300Y-56173044D01*
X96417456Y-56334200D01*
X96606955Y-56460820D01*
X96817516Y-56548037D01*
X97041045Y-56592500D01*
X97268955Y-56592500D01*
X97492484Y-56548037D01*
X97703045Y-56460820D01*
X97764000Y-56420091D01*
X97764000Y-56990909D01*
X97703045Y-56950180D01*
X97492484Y-56862963D01*
X97268955Y-56818500D01*
X97041045Y-56818500D01*
X96817516Y-56862963D01*
X96606955Y-56950180D01*
X96417456Y-57076800D01*
X96256300Y-57237956D01*
X96129680Y-57427455D01*
X96042463Y-57638016D01*
X95998000Y-57861545D01*
X95998000Y-58089455D01*
X96042463Y-58312984D01*
X96129680Y-58523545D01*
X96256300Y-58713044D01*
X96417456Y-58874200D01*
X96606955Y-59000820D01*
X96817516Y-59088037D01*
X97041045Y-59132500D01*
X97268955Y-59132500D01*
X97492484Y-59088037D01*
X97703045Y-59000820D01*
X97764000Y-58960091D01*
X97764000Y-59530909D01*
X97703045Y-59490180D01*
X97492484Y-59402963D01*
X97268955Y-59358500D01*
X97041045Y-59358500D01*
X96817516Y-59402963D01*
X96606955Y-59490180D01*
X96417456Y-59616800D01*
X96256300Y-59777956D01*
X96129680Y-59967455D01*
X96042463Y-60178016D01*
X95998000Y-60401545D01*
X95998000Y-60629455D01*
X96042463Y-60852984D01*
X96129680Y-61063545D01*
X96256300Y-61253044D01*
X96417456Y-61414200D01*
X96606955Y-61540820D01*
X96817516Y-61628037D01*
X97041045Y-61672500D01*
X97268955Y-61672500D01*
X97492484Y-61628037D01*
X97703045Y-61540820D01*
X97764000Y-61500091D01*
X97764000Y-62070909D01*
X97703045Y-62030180D01*
X97492484Y-61942963D01*
X97268955Y-61898500D01*
X97041045Y-61898500D01*
X96817516Y-61942963D01*
X96606955Y-62030180D01*
X96417456Y-62156800D01*
X96256300Y-62317956D01*
X96129680Y-62507455D01*
X96042463Y-62718016D01*
X95998000Y-62941545D01*
X95998000Y-63169455D01*
X96042463Y-63392984D01*
X96060500Y-63436529D01*
X95406085Y-64090945D01*
X95386840Y-64106739D01*
X95371046Y-64125984D01*
X95371041Y-64125989D01*
X95323795Y-64183559D01*
X95276948Y-64271203D01*
X95248100Y-64366301D01*
X95238360Y-64465200D01*
X95240801Y-64489985D01*
X95240800Y-66096182D01*
X94910786Y-66426195D01*
X94891540Y-66441990D01*
X94875746Y-66461235D01*
X94875741Y-66461240D01*
X94828495Y-66518810D01*
X94781649Y-66606453D01*
X94752801Y-66701552D01*
X94743060Y-66800451D01*
X94745501Y-66825236D01*
X94745500Y-68009117D01*
X94745500Y-68009124D01*
X94743060Y-68033900D01*
X94745500Y-68058676D01*
X94745501Y-68431432D01*
X94416070Y-68760862D01*
X94396819Y-68776661D01*
X94333774Y-68853481D01*
X94286928Y-68941125D01*
X94258080Y-69036224D01*
X94250780Y-69110340D01*
X94250780Y-69110349D01*
X94248340Y-69135122D01*
X94250780Y-69159897D01*
X94250781Y-74086846D01*
X94245808Y-74091819D01*
X94218542Y-74025994D01*
X94160321Y-73938860D01*
X94086220Y-73864759D01*
X93999086Y-73806538D01*
X93902269Y-73766435D01*
X93799487Y-73745990D01*
X93694693Y-73745990D01*
X93591911Y-73766435D01*
X93574879Y-73773490D01*
X93524375Y-73773490D01*
X93499602Y-73771050D01*
X93474829Y-73773490D01*
X93474820Y-73773490D01*
X93400704Y-73780790D01*
X93305605Y-73809638D01*
X93217962Y-73856484D01*
X93215431Y-73858561D01*
X93160391Y-73903731D01*
X93160387Y-73903735D01*
X93147807Y-73914059D01*
X93143352Y-73903304D01*
X93085131Y-73816170D01*
X93011030Y-73742069D01*
X92923896Y-73683848D01*
X92906864Y-73676793D01*
X92034297Y-72804227D01*
X92445000Y-72804227D01*
X92514984Y-72797334D01*
X92582279Y-72776921D01*
X92644298Y-72743771D01*
X92698658Y-72699158D01*
X92743271Y-72644798D01*
X92776421Y-72582779D01*
X92796834Y-72515484D01*
X92803727Y-72445500D01*
X92803727Y-71445500D01*
X92796834Y-71375516D01*
X92776421Y-71308221D01*
X92743271Y-71246202D01*
X92698658Y-71191842D01*
X92644298Y-71147229D01*
X92582279Y-71114079D01*
X92514984Y-71093666D01*
X92445000Y-71086773D01*
X89935000Y-71086773D01*
X89865016Y-71093666D01*
X89797721Y-71114079D01*
X89735702Y-71147229D01*
X89681342Y-71191842D01*
X89636729Y-71246202D01*
X89603579Y-71308221D01*
X89583166Y-71375516D01*
X89576273Y-71445500D01*
X89576273Y-72445500D01*
X89583166Y-72515484D01*
X89603579Y-72582779D01*
X89636729Y-72644798D01*
X89681342Y-72699158D01*
X89735702Y-72743771D01*
X89797721Y-72776921D01*
X89865016Y-72797334D01*
X89935000Y-72804227D01*
X90702485Y-72804227D01*
X90721648Y-72867397D01*
X90768495Y-72955041D01*
X90815741Y-73012611D01*
X90815746Y-73012616D01*
X90831540Y-73031861D01*
X90850785Y-73047655D01*
X92193393Y-74390264D01*
X92200448Y-74407296D01*
X92258669Y-74494430D01*
X92332770Y-74568531D01*
X92419904Y-74626752D01*
X92432255Y-74631868D01*
X92244923Y-74819200D01*
X90859100Y-74819200D01*
X90859100Y-74253949D01*
X90862248Y-74221986D01*
X90859100Y-74190023D01*
X90859100Y-74190013D01*
X90849680Y-74094368D01*
X90816655Y-73985500D01*
X90812455Y-73971653D01*
X90752005Y-73858560D01*
X90691034Y-73784267D01*
X90691033Y-73784266D01*
X90670653Y-73759433D01*
X90645821Y-73739054D01*
X89298795Y-72392029D01*
X89298791Y-72392024D01*
X87170993Y-70264227D01*
X89135000Y-70264227D01*
X89204984Y-70257334D01*
X89272279Y-70236921D01*
X89334298Y-70203771D01*
X89388658Y-70159158D01*
X89433271Y-70104798D01*
X89466421Y-70042779D01*
X89486834Y-69975484D01*
X89492033Y-69922700D01*
X93147389Y-69922700D01*
X93164421Y-69929755D01*
X93267203Y-69950200D01*
X93371997Y-69950200D01*
X93474779Y-69929755D01*
X93571596Y-69889652D01*
X93658730Y-69831431D01*
X93732831Y-69757330D01*
X93791052Y-69670196D01*
X93831155Y-69573379D01*
X93851600Y-69470597D01*
X93851600Y-69365803D01*
X93831155Y-69263021D01*
X93791052Y-69166204D01*
X93732831Y-69079070D01*
X93658730Y-69004969D01*
X93571596Y-68946748D01*
X93474779Y-68906645D01*
X93371997Y-68886200D01*
X93267203Y-68886200D01*
X93164421Y-68906645D01*
X93147389Y-68913700D01*
X89546700Y-68913700D01*
X89528899Y-68908300D01*
X89493661Y-68904829D01*
X89486834Y-68835516D01*
X89466421Y-68768221D01*
X89433271Y-68706202D01*
X89388658Y-68651842D01*
X89334298Y-68607229D01*
X89272279Y-68574079D01*
X89204984Y-68553666D01*
X89135000Y-68546773D01*
X86625000Y-68546773D01*
X86555016Y-68553666D01*
X86487721Y-68574079D01*
X86425702Y-68607229D01*
X86371342Y-68651842D01*
X86363300Y-68661641D01*
X86363300Y-65484152D01*
X92220620Y-59626833D01*
X92245453Y-59606453D01*
X92326805Y-59507326D01*
X92387255Y-59394232D01*
X92424480Y-59271518D01*
X92433900Y-59175873D01*
X92433900Y-59175865D01*
X92437048Y-59143900D01*
X92433900Y-59111935D01*
X92433900Y-49791000D01*
X92741973Y-49791000D01*
X92837618Y-49781580D01*
X92960332Y-49744355D01*
X93073426Y-49683905D01*
X93172553Y-49602553D01*
X93253905Y-49503426D01*
X93314355Y-49390332D01*
X93351580Y-49267618D01*
X93364149Y-49140000D01*
X93351580Y-49012382D01*
X93314355Y-48889668D01*
X93253905Y-48776574D01*
X93172553Y-48677447D01*
X93073426Y-48596095D01*
X92960332Y-48535645D01*
X92837618Y-48498420D01*
X92741973Y-48489000D01*
X92042753Y-48489000D01*
X92065253Y-48466500D01*
X96198473Y-48466500D01*
X96256300Y-48553044D01*
G36*
X86232382Y-49781580D02*
G01*
X86328027Y-49791000D01*
X86790348Y-49791000D01*
X87614000Y-50614653D01*
X87614001Y-54476427D01*
X87610852Y-54508400D01*
X87614001Y-54540373D01*
X87623421Y-54636018D01*
X87652430Y-54731647D01*
X87660646Y-54758732D01*
X87721095Y-54871826D01*
X87782066Y-54946118D01*
X87802448Y-54970953D01*
X87827281Y-54991333D01*
X88293547Y-55457600D01*
X88153653Y-55457600D01*
X86680800Y-53984748D01*
X86680800Y-50574273D01*
X86683949Y-50542300D01*
X86671380Y-50414682D01*
X86634155Y-50291968D01*
X86573705Y-50178874D01*
X86512735Y-50104582D01*
X86512733Y-50104580D01*
X86492353Y-50079747D01*
X86467521Y-50059368D01*
X86171162Y-49763009D01*
X86232382Y-49781580D01*
G37*
X86232382Y-49781580D02*
X86328027Y-49791000D01*
X86790348Y-49791000D01*
X87614000Y-50614653D01*
X87614001Y-54476427D01*
X87610852Y-54508400D01*
X87614001Y-54540373D01*
X87623421Y-54636018D01*
X87652430Y-54731647D01*
X87660646Y-54758732D01*
X87721095Y-54871826D01*
X87782066Y-54946118D01*
X87802448Y-54970953D01*
X87827281Y-54991333D01*
X88293547Y-55457600D01*
X88153653Y-55457600D01*
X86680800Y-53984748D01*
X86680800Y-50574273D01*
X86683949Y-50542300D01*
X86671380Y-50414682D01*
X86634155Y-50291968D01*
X86573705Y-50178874D01*
X86512735Y-50104582D01*
X86512733Y-50104580D01*
X86492353Y-50079747D01*
X86467521Y-50059368D01*
X86171162Y-49763009D01*
X86232382Y-49781580D01*
G36*
X91131901Y-54617195D02*
G01*
X91080732Y-54589845D01*
X90958018Y-54552620D01*
X90862373Y-54543200D01*
X89852973Y-54543200D01*
X89898426Y-54518905D01*
X89997553Y-54437553D01*
X90078905Y-54338426D01*
X90139355Y-54225332D01*
X90176580Y-54102618D01*
X90186000Y-54006973D01*
X90186000Y-50345752D01*
X91131900Y-49399852D01*
X91131901Y-54617195D01*
G37*
X91131901Y-54617195D02*
X91080732Y-54589845D01*
X90958018Y-54552620D01*
X90862373Y-54543200D01*
X89852973Y-54543200D01*
X89898426Y-54518905D01*
X89997553Y-54437553D01*
X90078905Y-54338426D01*
X90139355Y-54225332D01*
X90176580Y-54102618D01*
X90186000Y-54006973D01*
X90186000Y-50345752D01*
X91131900Y-49399852D01*
X91131901Y-54617195D01*
G36*
X96417456Y-46916800D02*
G01*
X96256300Y-47077956D01*
X96198473Y-47164500D01*
X91827562Y-47164500D01*
X91795599Y-47161352D01*
X91763636Y-47164500D01*
X91763627Y-47164500D01*
X91667982Y-47173920D01*
X91545268Y-47211145D01*
X91432174Y-47271595D01*
X91333047Y-47352947D01*
X91312667Y-47377780D01*
X89097286Y-49593162D01*
X89072447Y-49613547D01*
X89052066Y-49638382D01*
X88991095Y-49712674D01*
X88972748Y-49747000D01*
X88930645Y-49825769D01*
X88893420Y-49948483D01*
X88884000Y-50044128D01*
X88884000Y-50044137D01*
X88880852Y-50076100D01*
X88884000Y-50108063D01*
X88884000Y-50142946D01*
X88869355Y-50094668D01*
X88808905Y-49981574D01*
X88727553Y-49882447D01*
X88702721Y-49862068D01*
X87542938Y-48702286D01*
X87522553Y-48677447D01*
X87423426Y-48596095D01*
X87310332Y-48535645D01*
X87187618Y-48498420D01*
X87091973Y-48489000D01*
X87091963Y-48489000D01*
X87060000Y-48485852D01*
X87028037Y-48489000D01*
X86328027Y-48489000D01*
X86232382Y-48498420D01*
X86109668Y-48535645D01*
X85996574Y-48596095D01*
X85897447Y-48677447D01*
X85816095Y-48776574D01*
X85755645Y-48889668D01*
X85718420Y-49012382D01*
X85705851Y-49140000D01*
X85718420Y-49267618D01*
X85736991Y-49328838D01*
X83785938Y-47377786D01*
X83765553Y-47352947D01*
X83666426Y-47271595D01*
X83553332Y-47211145D01*
X83430618Y-47173920D01*
X83334973Y-47164500D01*
X83334963Y-47164500D01*
X83303000Y-47161352D01*
X83271037Y-47164500D01*
X83073727Y-47164500D01*
X83073727Y-47015500D01*
X83066834Y-46945516D01*
X83046421Y-46878221D01*
X83018241Y-46825500D01*
X96554095Y-46825500D01*
X96417456Y-46916800D01*
G37*
X96417456Y-46916800D02*
X96256300Y-47077956D01*
X96198473Y-47164500D01*
X91827562Y-47164500D01*
X91795599Y-47161352D01*
X91763636Y-47164500D01*
X91763627Y-47164500D01*
X91667982Y-47173920D01*
X91545268Y-47211145D01*
X91432174Y-47271595D01*
X91333047Y-47352947D01*
X91312667Y-47377780D01*
X89097286Y-49593162D01*
X89072447Y-49613547D01*
X89052066Y-49638382D01*
X88991095Y-49712674D01*
X88972748Y-49747000D01*
X88930645Y-49825769D01*
X88893420Y-49948483D01*
X88884000Y-50044128D01*
X88884000Y-50044137D01*
X88880852Y-50076100D01*
X88884000Y-50108063D01*
X88884000Y-50142946D01*
X88869355Y-50094668D01*
X88808905Y-49981574D01*
X88727553Y-49882447D01*
X88702721Y-49862068D01*
X87542938Y-48702286D01*
X87522553Y-48677447D01*
X87423426Y-48596095D01*
X87310332Y-48535645D01*
X87187618Y-48498420D01*
X87091973Y-48489000D01*
X87091963Y-48489000D01*
X87060000Y-48485852D01*
X87028037Y-48489000D01*
X86328027Y-48489000D01*
X86232382Y-48498420D01*
X86109668Y-48535645D01*
X85996574Y-48596095D01*
X85897447Y-48677447D01*
X85816095Y-48776574D01*
X85755645Y-48889668D01*
X85718420Y-49012382D01*
X85705851Y-49140000D01*
X85718420Y-49267618D01*
X85736991Y-49328838D01*
X83785938Y-47377786D01*
X83765553Y-47352947D01*
X83666426Y-47271595D01*
X83553332Y-47211145D01*
X83430618Y-47173920D01*
X83334973Y-47164500D01*
X83334963Y-47164500D01*
X83303000Y-47161352D01*
X83271037Y-47164500D01*
X83073727Y-47164500D01*
X83073727Y-47015500D01*
X83066834Y-46945516D01*
X83046421Y-46878221D01*
X83018241Y-46825500D01*
X96554095Y-46825500D01*
X96417456Y-46916800D01*
M02*
