M48
; DRILL file {KiCad (5.1.5)-3} date 1/1/2021 5:19:38 PM
; FORMAT={-:-/ absolute / inch / decimal}
; #@! TF.CreationDate,2021-01-01T17:19:38-05:00
; #@! TF.GenerationSoftware,Kicad,Pcbnew,(5.1.5)-3
; #@! TF.FileFunction,Plated,1,2,PTH
FMAT,2
INCH
T1C0.0118
T2C0.0157
T3C0.0197
T4C0.0315
T5C0.0394
%
G90
G05
T1
X3.2725Y-2.6175
X3.2775Y-2.2775
X3.285Y-2.1925
X3.285Y-2.4975
X3.3025Y-2.1025
X3.325Y-3.84
X3.3275Y-3.705
X3.34Y-2.765
X3.3452Y-3.1013
X3.356Y-3.122
X3.3613Y-3.0288
X3.3625Y-1.8675
X3.3625Y-2.95
X3.3761Y-3.1359
X3.388Y-3.161
X3.397Y-3.188
X3.4135Y-3.4335
X3.4175Y-2.1025
X3.42Y-4.0175
X3.426Y-3.926
X3.429Y-3.1945
X3.43Y-2.6575
X3.43Y-4.1175
X3.4324Y-2.0201
X3.4545Y-3.921
X3.4615Y-2.876
X3.4632Y-3.0428
X3.4725Y-3.775
X3.4805Y-3.0825
X3.4865Y-3.143
X3.4967Y-2.8673
X3.5005Y-2.923
X3.5225Y-3.8825
X3.525Y-4.13
X3.5475Y-1.8725
X3.565Y-2.525
X3.57Y-2.05
X3.5875Y-3.9625
X3.594Y-3.153
X3.595Y-2.93
X3.6175Y-3.1375
X3.6225Y-2.3925
X3.6485Y-2.9195
X3.661Y-3.202
X3.6675Y-3.9275
X3.669Y-2.9735
X3.674Y-2.733
X3.68Y-2.16
X3.69Y-3.214
X3.6901Y-3.0169
X3.6908Y-2.9243
X3.6925Y-3.0785
X3.6925Y-3.3125
X3.695Y-2.9915
X3.6985Y-3.1125
X3.7075Y-2.69
X3.722Y-3.2995
X3.725Y-3.4325
X3.7525Y-1.9375
X3.7525Y-2.5
X3.758Y-3.26
X3.76Y-3.465
X3.79Y-3.23
T2
X3.4Y-1.9346
X3.525Y-2.125
X3.525Y-2.275
X3.576Y-2.173
X3.65Y-1.9346
T3
X3.356Y-3.955
X3.3945Y-2.3875
X3.4726Y-3.625
X3.4751Y-3.4135
X3.5235Y-3.625
X3.5235Y-3.775
X3.551Y-3.134
X3.5515Y-2.9655
X3.556Y-3.4135
T4
X3.225Y-1.8825
X3.225Y-1.9825
X3.225Y-2.0825
X3.225Y-2.1825
X3.225Y-2.2825
X3.225Y-2.3825
X3.225Y-2.4825
X3.225Y-2.5825
X3.225Y-2.6825
X3.225Y-2.7825
X3.225Y-2.8825
X3.225Y-2.9825
X3.225Y-3.0825
X3.225Y-3.1825
X3.225Y-3.2825
X3.225Y-3.3825
X3.225Y-3.4825
X3.225Y-3.5825
X3.225Y-3.6825
X3.225Y-3.7825
X3.225Y-3.8825
X3.225Y-3.9825
X3.225Y-4.0825
X3.225Y-4.1825
X3.825Y-1.8825
X3.825Y-1.9825
X3.825Y-2.0825
X3.825Y-2.1825
X3.825Y-2.2825
X3.825Y-2.3825
X3.825Y-2.4825
X3.825Y-2.5825
X3.825Y-2.6825
X3.825Y-2.7825
X3.825Y-2.8825
X3.825Y-2.9825
X3.825Y-3.0825
X3.825Y-3.1825
X3.825Y-3.2825
X3.825Y-3.3825
X3.825Y-3.4825
X3.825Y-3.5825
X3.825Y-3.6825
X3.825Y-3.7825
X3.825Y-3.8825
X3.825Y-3.9825
X3.825Y-4.0825
X3.825Y-4.1825
T5
X3.376Y-4.071
X3.376Y-4.171
X3.476Y-4.071
X3.476Y-4.171
X3.576Y-4.071
X3.676Y-4.071
T0
M30
