M48
; DRILL file {KiCad (5.1.5)-3} date 5/12/2020 9:47:36 PM
; FORMAT={-:-/ absolute / inch / decimal}
; #@! TF.CreationDate,2020-05-12T21:47:36-04:00
; #@! TF.GenerationSoftware,Kicad,Pcbnew,(5.1.5)-3
; #@! TF.FileFunction,Plated,1,2,PTH
FMAT,2
INCH
T1C0.0118
T2C0.0157
T3C0.0315
T4C0.0394
%
G90
G05
T1
X5.4212Y-4.8502
X5.425Y-3.653
X5.45Y-3.749
X5.45Y-3.85
X5.45Y-3.949
X5.45Y-4.05
X5.45Y-4.149
X5.45Y-4.25
X5.45Y-4.349
X5.45Y-4.45
X5.45Y-4.551
X5.45Y-4.649
X5.45Y-4.748
X5.5835Y-3.4515
X5.595Y-4.84
X5.65Y-3.6
X5.665Y-4.495
X5.685Y-4.27
X5.69Y-3.86
X5.7Y-3.725
X5.72Y-4.05
X5.75Y-3.5
X5.815Y-4.725
X5.835Y-3.71
X5.845Y-3.4
X5.885Y-3.55
X5.885Y-3.695
X5.91Y-4.495
X5.945Y-4.065
X5.969Y-4.25
X5.971Y-4.35
X5.972Y-4.15
X5.974Y-3.85
X5.974Y-3.95
X5.974Y-4.05
X6.051Y-4.851
X6.076Y-3.85
X6.076Y-3.95
X6.076Y-4.05
X6.076Y-4.15
X6.076Y-4.25
X6.076Y-4.35
X6.076Y-4.45
X6.076Y-4.55
X6.077Y-4.65
X6.077Y-4.75
T2
X5.615Y-4.565
X5.65Y-4.915
X5.7Y-3.325
X5.72Y-4.565
X5.8Y-3.32
X5.845Y-3.51
X5.8504Y-4.3496
X5.875Y-4.905
X5.885Y-4.555
X5.935Y-3.55
X5.94Y-3.655
X6.0Y-3.3
X6.1Y-3.31
T3
X5.4Y-3.6
X5.4Y-3.7
X5.4Y-3.8
X5.4Y-3.9
X5.4Y-4.0
X5.4Y-4.1
X5.4Y-4.2
X5.4Y-4.3
X5.4Y-4.4
X5.4Y-4.5
X5.4Y-4.6
X5.4Y-4.7
X5.4Y-4.8
X5.4Y-4.9
X6.0Y-3.6
X6.0Y-3.7
X6.0Y-3.8
X6.0Y-3.9
X6.0Y-4.0
X6.0Y-4.1
X6.0Y-4.2
X6.0Y-4.3
X6.0Y-4.4
X6.0Y-4.5
X6.0Y-4.6
X6.0Y-4.7
X6.0Y-4.8
X6.0Y-4.9
X5.5Y-3.4
X5.5Y-3.5
X5.5Y-3.6
X5.5Y-3.7
X5.5Y-3.8
X5.5Y-3.9
X5.5Y-4.0
X5.5Y-4.1
X5.5Y-4.2
X5.5Y-4.3
X5.5Y-4.4
X5.5Y-4.5
X5.5Y-4.6
X5.5Y-4.7
X5.5Y-4.8
X5.5Y-4.9
X6.1Y-3.4
X6.1Y-3.5
X6.1Y-3.6
X6.1Y-3.7
X6.1Y-3.8
X6.1Y-3.9
X6.1Y-4.0
X6.1Y-4.1
X6.1Y-4.2
X6.1Y-4.3
X6.1Y-4.4
X6.1Y-4.5
X6.1Y-4.6
X6.1Y-4.7
X6.1Y-4.8
X6.1Y-4.9
T4
X5.45Y-3.25
X5.55Y-3.25
X5.65Y-3.25
X5.75Y-3.25
X5.85Y-3.25
X5.95Y-3.25
X6.05Y-3.25
T0
M30
