G04 #@! TF.GenerationSoftware,KiCad,Pcbnew,(5.1.5)-3*
G04 #@! TF.CreationDate,2020-05-12T21:47:34-04:00*
G04 #@! TF.ProjectId,27xxx_to_27c080,32377878-785f-4746-9f5f-323763303830,rev?*
G04 #@! TF.SameCoordinates,Original*
G04 #@! TF.FileFunction,Copper,L1,Top*
G04 #@! TF.FilePolarity,Positive*
%FSLAX46Y46*%
G04 Gerber Fmt 4.6, Leading zero omitted, Abs format (unit mm)*
G04 Created by KiCad (PCBNEW (5.1.5)-3) date 2020-05-12 21:47:34*
%MOMM*%
%LPD*%
G04 APERTURE LIST*
%ADD10R,1.700000X1.700000*%
%ADD11O,1.700000X1.700000*%
%ADD12R,1.600000X1.600000*%
%ADD13O,1.600000X1.600000*%
%ADD14C,0.350000*%
%ADD15C,0.800000*%
%ADD16C,0.454000*%
%ADD17C,1.000000*%
%ADD18C,0.234000*%
G04 APERTURE END LIST*
D10*
X138430000Y-82550000D03*
D11*
X140970000Y-82550000D03*
X143510000Y-82550000D03*
X146050000Y-82550000D03*
X148590000Y-82550000D03*
X151130000Y-82550000D03*
X153670000Y-82550000D03*
D12*
X139700000Y-86360000D03*
D13*
X154940000Y-124460000D03*
X139700000Y-88900000D03*
X154940000Y-121920000D03*
X139700000Y-91440000D03*
X154940000Y-119380000D03*
X139700000Y-93980000D03*
X154940000Y-116840000D03*
X139700000Y-96520000D03*
X154940000Y-114300000D03*
X139700000Y-99060000D03*
X154940000Y-111760000D03*
X139700000Y-101600000D03*
X154940000Y-109220000D03*
X139700000Y-104140000D03*
X154940000Y-106680000D03*
X139700000Y-106680000D03*
X154940000Y-104140000D03*
X139700000Y-109220000D03*
X154940000Y-101600000D03*
X139700000Y-111760000D03*
X154940000Y-99060000D03*
X139700000Y-114300000D03*
X154940000Y-96520000D03*
X139700000Y-116840000D03*
X154940000Y-93980000D03*
X139700000Y-119380000D03*
X154940000Y-91440000D03*
X139700000Y-121920000D03*
X154940000Y-88900000D03*
X139700000Y-124460000D03*
X154940000Y-86360000D03*
D12*
X137160000Y-91440000D03*
D13*
X152400000Y-124460000D03*
X137160000Y-93980000D03*
X152400000Y-121920000D03*
X137160000Y-96520000D03*
X152400000Y-119380000D03*
X137160000Y-99060000D03*
X152400000Y-116840000D03*
X137160000Y-101600000D03*
X152400000Y-114300000D03*
X137160000Y-104140000D03*
X152400000Y-111760000D03*
X137160000Y-106680000D03*
X152400000Y-109220000D03*
X137160000Y-109220000D03*
X152400000Y-106680000D03*
X137160000Y-111760000D03*
X152400000Y-104140000D03*
X137160000Y-114300000D03*
X152400000Y-101600000D03*
X137160000Y-116840000D03*
X152400000Y-99060000D03*
X137160000Y-119380000D03*
X152400000Y-96520000D03*
X137160000Y-121920000D03*
X152400000Y-93980000D03*
X137160000Y-124460000D03*
X152400000Y-91440000D03*
D14*
X144526000Y-98044000D03*
X144399000Y-108458000D03*
X145288000Y-102870000D03*
X149479000Y-93853000D03*
D15*
X148600000Y-110480000D03*
X142621000Y-115951000D03*
X149479000Y-115697000D03*
X143510000Y-124841000D03*
X149225000Y-124587000D03*
X144780000Y-84455000D03*
X147320000Y-84328000D03*
X148463000Y-89154000D03*
X150749000Y-90170000D03*
X154940000Y-84074000D03*
X152400000Y-83820000D03*
X150876000Y-92837000D03*
X145288000Y-115951000D03*
D14*
X148209000Y-94234000D03*
X142113000Y-122936000D03*
X138430000Y-120599200D03*
X137699681Y-123196281D03*
X138430000Y-118084600D03*
X138430000Y-115595400D03*
X138430000Y-113030000D03*
X138430000Y-110464600D03*
X138430000Y-107950000D03*
X138430000Y-105384600D03*
X138430000Y-102870000D03*
X138430000Y-100304600D03*
X138430000Y-97790000D03*
X138430000Y-95224600D03*
X137795000Y-92786200D03*
X151688800Y-105410000D03*
X151612600Y-107950000D03*
X151663400Y-110490000D03*
X151739600Y-97790000D03*
X151739600Y-100330000D03*
X151739600Y-102870000D03*
X154330400Y-100330000D03*
X154330400Y-97790000D03*
X154330400Y-102870000D03*
X154330400Y-105410000D03*
X154330400Y-107950000D03*
X154330400Y-110490000D03*
X154330400Y-113030000D03*
X154330400Y-115570000D03*
X154355800Y-118110000D03*
X154355800Y-120650000D03*
X153695400Y-123215400D03*
X147701000Y-120015000D03*
X141819999Y-87669001D03*
X143510000Y-91440000D03*
X146050000Y-88900000D03*
X144780000Y-94615000D03*
X148463000Y-86360000D03*
X149479000Y-90170000D03*
X143891000Y-114173000D03*
X150114000Y-114173000D03*
X151003000Y-103251000D03*
D16*
X138430000Y-83854000D02*
X138430000Y-82550000D01*
X137160000Y-123735962D02*
X137699681Y-123196281D01*
X138430000Y-122465962D02*
X138430000Y-120599200D01*
X137160000Y-124460000D02*
X137160000Y-123735962D01*
D17*
X146273010Y-110480000D02*
X141351000Y-115402010D01*
X141351000Y-122809000D02*
X139700000Y-124460000D01*
X141351000Y-115402010D02*
X141351000Y-122809000D01*
X147828000Y-109708000D02*
X148600000Y-110480000D01*
X147828000Y-108458000D02*
X147828000Y-109708000D01*
X147828000Y-108458000D02*
X147828000Y-108966000D01*
X148600000Y-110480000D02*
X146431000Y-110363000D01*
X146431000Y-110363000D02*
X146273010Y-110480000D01*
X144399000Y-108458000D02*
X145923000Y-108458000D01*
X145923000Y-108458000D02*
X146812000Y-109347000D01*
X147828000Y-108966000D02*
X146812000Y-109347000D01*
X146812000Y-109347000D02*
X146431000Y-110363000D01*
X147701000Y-107823000D02*
X147828000Y-100263000D01*
X147066000Y-108458000D02*
X147828000Y-108458000D01*
X147066000Y-108458000D02*
X147701000Y-107823000D01*
X147828000Y-108458000D02*
X147701000Y-107823000D01*
X144399000Y-108458000D02*
X147066000Y-108458000D01*
D16*
X138430000Y-120599200D02*
X138430000Y-118084600D01*
X137699681Y-123196281D02*
X138430000Y-122465962D01*
X138430000Y-118084600D02*
X138430000Y-115595400D01*
X138430000Y-115595400D02*
X138430000Y-113030000D01*
X138430000Y-113030000D02*
X138430000Y-110464600D01*
X138430000Y-110464600D02*
X138430000Y-107950000D01*
X138430000Y-107950000D02*
X138430000Y-105384600D01*
X138430000Y-105384600D02*
X138430000Y-102870000D01*
X138430000Y-102870000D02*
X138430000Y-100304600D01*
X138430000Y-100304600D02*
X138430000Y-97790000D01*
X138430000Y-97790000D02*
X138430000Y-95224600D01*
X138430000Y-95224600D02*
X138430000Y-83854000D01*
X152988961Y-120607001D02*
X148293001Y-120607001D01*
X153627001Y-119968961D02*
X152988961Y-120607001D01*
X154940000Y-93980000D02*
X153627001Y-95292999D01*
X153627001Y-95292999D02*
X153627001Y-119968961D01*
X148293001Y-120607001D02*
X147701000Y-120015000D01*
X154686000Y-93726000D02*
X154940000Y-93980000D01*
X154686000Y-92964000D02*
X154686000Y-93726000D01*
X142067486Y-87669001D02*
X142106487Y-87630000D01*
X141819999Y-87669001D02*
X142067486Y-87669001D01*
X142106487Y-87630000D02*
X149733000Y-87630000D01*
X149733000Y-87630000D02*
X151257000Y-89154000D01*
X151257000Y-89154000D02*
X151929962Y-89154000D01*
X153670000Y-90894038D02*
X151929962Y-89154000D01*
X154648038Y-92964000D02*
X153670000Y-91985962D01*
X153670000Y-91985962D02*
X153670000Y-90894038D01*
X154686000Y-92964000D02*
X154648038Y-92964000D01*
X139700000Y-91440000D02*
X143510000Y-91440000D01*
X145288000Y-102870000D02*
X145288000Y-100965000D01*
X145288000Y-100965000D02*
X146050000Y-100203000D01*
X146050000Y-100203000D02*
X146050000Y-88900000D01*
X145802513Y-88900000D02*
X139700000Y-88900000D01*
X146050000Y-88900000D02*
X145802513Y-88900000D01*
X154940000Y-91440000D02*
X154940000Y-90678000D01*
X154940000Y-90715962D02*
X153543000Y-89318962D01*
X154940000Y-91440000D02*
X154940000Y-90715962D01*
X153543000Y-89318962D02*
X153543000Y-88900000D01*
X148590000Y-83947000D02*
X148590000Y-82550000D01*
X153543000Y-88900000D02*
X148590000Y-83947000D01*
X151130000Y-85090000D02*
X154940000Y-88900000D01*
X151130000Y-82550000D02*
X151130000Y-85090000D01*
X144526000Y-97796513D02*
X144780000Y-97542513D01*
X144526000Y-98044000D02*
X144526000Y-97796513D01*
X144780000Y-97542513D02*
X144780000Y-94615000D01*
X139700000Y-86360000D02*
X140954000Y-86360000D01*
X140954000Y-86360000D02*
X148463000Y-86360000D01*
X149479000Y-93853000D02*
X149479000Y-90170000D01*
X143891000Y-114173000D02*
X150114000Y-114173000D01*
X151003000Y-95377000D02*
X152400000Y-93980000D01*
X151003000Y-103251000D02*
X151003000Y-95377000D01*
D18*
G36*
X136955000Y-82256750D02*
G01*
X137111250Y-82413000D01*
X138293000Y-82413000D01*
X138293000Y-82393000D01*
X138567000Y-82393000D01*
X138567000Y-82413000D01*
X138587000Y-82413000D01*
X138587000Y-82687000D01*
X138567000Y-82687000D01*
X138567000Y-83868750D01*
X138723250Y-84025000D01*
X139280000Y-84028024D01*
X139402521Y-84015957D01*
X139520334Y-83980219D01*
X139628911Y-83922183D01*
X139724080Y-83844080D01*
X139802183Y-83748911D01*
X139860219Y-83640334D01*
X139895957Y-83522521D01*
X139908024Y-83400000D01*
X139906504Y-83120108D01*
X140037122Y-83315593D01*
X140204407Y-83482878D01*
X140401113Y-83614312D01*
X140619681Y-83704846D01*
X140851712Y-83751000D01*
X141088288Y-83751000D01*
X141320319Y-83704846D01*
X141538887Y-83614312D01*
X141735593Y-83482878D01*
X141902878Y-83315593D01*
X142034312Y-83118887D01*
X142124846Y-82900319D01*
X142171000Y-82668288D01*
X142171000Y-82431712D01*
X142124846Y-82199681D01*
X142034312Y-81981113D01*
X141902878Y-81784407D01*
X141901471Y-81783000D01*
X142578529Y-81783000D01*
X142577122Y-81784407D01*
X142445688Y-81981113D01*
X142355154Y-82199681D01*
X142309000Y-82431712D01*
X142309000Y-82668288D01*
X142355154Y-82900319D01*
X142445688Y-83118887D01*
X142577122Y-83315593D01*
X142744407Y-83482878D01*
X142941113Y-83614312D01*
X143159681Y-83704846D01*
X143391712Y-83751000D01*
X143628288Y-83751000D01*
X143860319Y-83704846D01*
X144078887Y-83614312D01*
X144275593Y-83482878D01*
X144442878Y-83315593D01*
X144574312Y-83118887D01*
X144664846Y-82900319D01*
X144711000Y-82668288D01*
X144711000Y-82431712D01*
X144664846Y-82199681D01*
X144574312Y-81981113D01*
X144442878Y-81784407D01*
X144441471Y-81783000D01*
X145118529Y-81783000D01*
X145117122Y-81784407D01*
X144985688Y-81981113D01*
X144895154Y-82199681D01*
X144849000Y-82431712D01*
X144849000Y-82668288D01*
X144895154Y-82900319D01*
X144985688Y-83118887D01*
X145117122Y-83315593D01*
X145284407Y-83482878D01*
X145481113Y-83614312D01*
X145699681Y-83704846D01*
X145931712Y-83751000D01*
X146168288Y-83751000D01*
X146400319Y-83704846D01*
X146618887Y-83614312D01*
X146815593Y-83482878D01*
X146982878Y-83315593D01*
X147114312Y-83118887D01*
X147204846Y-82900319D01*
X147251000Y-82668288D01*
X147251000Y-82431712D01*
X147204846Y-82199681D01*
X147114312Y-81981113D01*
X146982878Y-81784407D01*
X146981471Y-81783000D01*
X147658529Y-81783000D01*
X147657122Y-81784407D01*
X147525688Y-81981113D01*
X147435154Y-82199681D01*
X147389000Y-82431712D01*
X147389000Y-82668288D01*
X147435154Y-82900319D01*
X147525688Y-83118887D01*
X147657122Y-83315593D01*
X147824407Y-83482878D01*
X148012000Y-83608223D01*
X148012000Y-83918612D01*
X148009204Y-83947000D01*
X148017184Y-84028024D01*
X148020364Y-84060307D01*
X148053414Y-84169260D01*
X148107086Y-84269672D01*
X148179315Y-84357685D01*
X148201370Y-84375785D01*
X152965000Y-89139416D01*
X152965000Y-89290574D01*
X152962204Y-89318962D01*
X152965000Y-89347349D01*
X152967652Y-89374275D01*
X152358747Y-88765370D01*
X152340647Y-88743315D01*
X152252635Y-88671086D01*
X152152223Y-88617414D01*
X152043270Y-88584364D01*
X151958350Y-88576000D01*
X151929962Y-88573204D01*
X151901574Y-88576000D01*
X151496415Y-88576000D01*
X150161785Y-87241370D01*
X150143685Y-87219315D01*
X150055673Y-87147086D01*
X149955261Y-87093414D01*
X149846308Y-87060364D01*
X149761388Y-87052000D01*
X149733000Y-87049204D01*
X149704612Y-87052000D01*
X142134875Y-87052000D01*
X142106487Y-87049204D01*
X142078099Y-87052000D01*
X141993179Y-87060364D01*
X141892181Y-87091001D01*
X141791611Y-87091001D01*
X141706691Y-87099365D01*
X141597738Y-87132415D01*
X141497326Y-87186087D01*
X141409314Y-87258316D01*
X141337085Y-87346328D01*
X141283413Y-87446740D01*
X141250363Y-87555693D01*
X141239203Y-87669001D01*
X141250363Y-87782309D01*
X141283413Y-87891262D01*
X141337085Y-87991674D01*
X141409314Y-88079686D01*
X141497326Y-88151915D01*
X141597738Y-88205587D01*
X141706691Y-88238637D01*
X141791611Y-88247001D01*
X142039098Y-88247001D01*
X142067486Y-88249797D01*
X142095874Y-88247001D01*
X142180794Y-88238637D01*
X142281792Y-88208000D01*
X149493585Y-88208000D01*
X150828215Y-89542630D01*
X150846315Y-89564685D01*
X150934327Y-89636914D01*
X151034739Y-89690586D01*
X151143692Y-89723636D01*
X151228612Y-89732000D01*
X151228621Y-89732000D01*
X151256999Y-89734795D01*
X151285377Y-89732000D01*
X151690547Y-89732000D01*
X152254032Y-90295485D01*
X152064266Y-90333232D01*
X151854797Y-90419997D01*
X151666280Y-90545960D01*
X151505960Y-90706280D01*
X151379997Y-90894797D01*
X151293232Y-91104266D01*
X151249000Y-91326636D01*
X151249000Y-91553364D01*
X151293232Y-91775734D01*
X151379997Y-91985203D01*
X151505960Y-92173720D01*
X151666280Y-92334040D01*
X151854797Y-92460003D01*
X152064266Y-92546768D01*
X152286636Y-92591000D01*
X152513364Y-92591000D01*
X152735734Y-92546768D01*
X152945203Y-92460003D01*
X153133720Y-92334040D01*
X153177347Y-92290413D01*
X153187086Y-92308634D01*
X153259315Y-92396647D01*
X153281369Y-92414746D01*
X154079431Y-93212809D01*
X154045960Y-93246280D01*
X153919997Y-93434797D01*
X153833232Y-93644266D01*
X153789000Y-93866636D01*
X153789000Y-94093364D01*
X153825537Y-94277048D01*
X153238370Y-94864215D01*
X153216316Y-94882314D01*
X153144087Y-94970327D01*
X153090415Y-95070739D01*
X153069102Y-95141000D01*
X153057365Y-95179692D01*
X153046205Y-95292999D01*
X153049001Y-95321387D01*
X153049001Y-95569353D01*
X152945203Y-95499997D01*
X152735734Y-95413232D01*
X152513364Y-95369000D01*
X152286636Y-95369000D01*
X152064266Y-95413232D01*
X151854797Y-95499997D01*
X151666280Y-95625960D01*
X151581000Y-95711240D01*
X151581000Y-95616415D01*
X152102952Y-95094463D01*
X152286636Y-95131000D01*
X152513364Y-95131000D01*
X152735734Y-95086768D01*
X152945203Y-95000003D01*
X153133720Y-94874040D01*
X153294040Y-94713720D01*
X153420003Y-94525203D01*
X153506768Y-94315734D01*
X153551000Y-94093364D01*
X153551000Y-93866636D01*
X153506768Y-93644266D01*
X153420003Y-93434797D01*
X153294040Y-93246280D01*
X153133720Y-93085960D01*
X152945203Y-92959997D01*
X152735734Y-92873232D01*
X152513364Y-92829000D01*
X152286636Y-92829000D01*
X152064266Y-92873232D01*
X151854797Y-92959997D01*
X151666280Y-93085960D01*
X151505960Y-93246280D01*
X151379997Y-93434797D01*
X151293232Y-93644266D01*
X151249000Y-93866636D01*
X151249000Y-94093364D01*
X151285537Y-94277048D01*
X150614365Y-94948220D01*
X150592316Y-94966315D01*
X150574221Y-94988364D01*
X150574219Y-94988366D01*
X150520086Y-95054328D01*
X150466415Y-95154739D01*
X150433364Y-95263693D01*
X150422204Y-95377000D01*
X150425001Y-95405398D01*
X150425000Y-103279387D01*
X150433364Y-103364307D01*
X150466414Y-103473260D01*
X150520086Y-103573672D01*
X150592315Y-103661685D01*
X150680327Y-103733914D01*
X150780739Y-103787586D01*
X150889692Y-103820636D01*
X151003000Y-103831796D01*
X151116307Y-103820636D01*
X151225260Y-103787586D01*
X151321435Y-103736179D01*
X151293232Y-103804266D01*
X151249000Y-104026636D01*
X151249000Y-104253364D01*
X151293232Y-104475734D01*
X151379997Y-104685203D01*
X151505960Y-104873720D01*
X151666280Y-105034040D01*
X151854797Y-105160003D01*
X152064266Y-105246768D01*
X152286636Y-105291000D01*
X152513364Y-105291000D01*
X152735734Y-105246768D01*
X152945203Y-105160003D01*
X153049001Y-105090647D01*
X153049001Y-105729353D01*
X152945203Y-105659997D01*
X152735734Y-105573232D01*
X152513364Y-105529000D01*
X152286636Y-105529000D01*
X152064266Y-105573232D01*
X151854797Y-105659997D01*
X151666280Y-105785960D01*
X151505960Y-105946280D01*
X151379997Y-106134797D01*
X151293232Y-106344266D01*
X151249000Y-106566636D01*
X151249000Y-106793364D01*
X151293232Y-107015734D01*
X151379997Y-107225203D01*
X151505960Y-107413720D01*
X151666280Y-107574040D01*
X151854797Y-107700003D01*
X152064266Y-107786768D01*
X152286636Y-107831000D01*
X152513364Y-107831000D01*
X152735734Y-107786768D01*
X152945203Y-107700003D01*
X153049001Y-107630647D01*
X153049002Y-108269353D01*
X152945203Y-108199997D01*
X152735734Y-108113232D01*
X152513364Y-108069000D01*
X152286636Y-108069000D01*
X152064266Y-108113232D01*
X151854797Y-108199997D01*
X151666280Y-108325960D01*
X151505960Y-108486280D01*
X151379997Y-108674797D01*
X151293232Y-108884266D01*
X151249000Y-109106636D01*
X151249000Y-109333364D01*
X151293232Y-109555734D01*
X151379997Y-109765203D01*
X151505960Y-109953720D01*
X151666280Y-110114040D01*
X151854797Y-110240003D01*
X152064266Y-110326768D01*
X152286636Y-110371000D01*
X152513364Y-110371000D01*
X152735734Y-110326768D01*
X152945203Y-110240003D01*
X153049002Y-110170647D01*
X153049002Y-110809353D01*
X152945203Y-110739997D01*
X152735734Y-110653232D01*
X152513364Y-110609000D01*
X152286636Y-110609000D01*
X152064266Y-110653232D01*
X151854797Y-110739997D01*
X151666280Y-110865960D01*
X151505960Y-111026280D01*
X151379997Y-111214797D01*
X151293232Y-111424266D01*
X151249000Y-111646636D01*
X151249000Y-111873364D01*
X151293232Y-112095734D01*
X151379997Y-112305203D01*
X151505960Y-112493720D01*
X151666280Y-112654040D01*
X151854797Y-112780003D01*
X152064266Y-112866768D01*
X152286636Y-112911000D01*
X152513364Y-112911000D01*
X152735734Y-112866768D01*
X152945203Y-112780003D01*
X153049002Y-112710647D01*
X153049002Y-113349353D01*
X152945203Y-113279997D01*
X152735734Y-113193232D01*
X152513364Y-113149000D01*
X152286636Y-113149000D01*
X152064266Y-113193232D01*
X151854797Y-113279997D01*
X151666280Y-113405960D01*
X151505960Y-113566280D01*
X151379997Y-113754797D01*
X151293232Y-113964266D01*
X151249000Y-114186636D01*
X151249000Y-114413364D01*
X151293232Y-114635734D01*
X151379997Y-114845203D01*
X151505960Y-115033720D01*
X151666280Y-115194040D01*
X151854797Y-115320003D01*
X152064266Y-115406768D01*
X152286636Y-115451000D01*
X152513364Y-115451000D01*
X152735734Y-115406768D01*
X152945203Y-115320003D01*
X153049002Y-115250647D01*
X153049002Y-115889353D01*
X152945203Y-115819997D01*
X152735734Y-115733232D01*
X152513364Y-115689000D01*
X152286636Y-115689000D01*
X152064266Y-115733232D01*
X151854797Y-115819997D01*
X151666280Y-115945960D01*
X151505960Y-116106280D01*
X151379997Y-116294797D01*
X151293232Y-116504266D01*
X151249000Y-116726636D01*
X151249000Y-116953364D01*
X151293232Y-117175734D01*
X151379997Y-117385203D01*
X151505960Y-117573720D01*
X151666280Y-117734040D01*
X151854797Y-117860003D01*
X152064266Y-117946768D01*
X152286636Y-117991000D01*
X152513364Y-117991000D01*
X152735734Y-117946768D01*
X152945203Y-117860003D01*
X153049002Y-117790647D01*
X153049002Y-118429353D01*
X152945203Y-118359997D01*
X152735734Y-118273232D01*
X152513364Y-118229000D01*
X152286636Y-118229000D01*
X152064266Y-118273232D01*
X151854797Y-118359997D01*
X151666280Y-118485960D01*
X151505960Y-118646280D01*
X151379997Y-118834797D01*
X151293232Y-119044266D01*
X151249000Y-119266636D01*
X151249000Y-119493364D01*
X151293232Y-119715734D01*
X151379997Y-119925203D01*
X151449353Y-120029001D01*
X148532417Y-120029001D01*
X148089634Y-119586219D01*
X148023672Y-119532086D01*
X147923261Y-119478415D01*
X147814307Y-119445364D01*
X147701000Y-119434204D01*
X147587693Y-119445364D01*
X147478739Y-119478415D01*
X147378328Y-119532086D01*
X147290316Y-119604316D01*
X147218086Y-119692328D01*
X147164415Y-119792739D01*
X147131364Y-119901693D01*
X147120204Y-120015000D01*
X147131364Y-120128307D01*
X147164415Y-120237261D01*
X147218086Y-120337672D01*
X147272219Y-120403634D01*
X147864221Y-120995637D01*
X147882316Y-121017686D01*
X147970328Y-121089915D01*
X148070740Y-121143587D01*
X148179693Y-121176637D01*
X148293001Y-121187797D01*
X148321389Y-121185001D01*
X151507239Y-121185001D01*
X151505960Y-121186280D01*
X151379997Y-121374797D01*
X151293232Y-121584266D01*
X151249000Y-121806636D01*
X151249000Y-122033364D01*
X151293232Y-122255734D01*
X151379997Y-122465203D01*
X151505960Y-122653720D01*
X151666280Y-122814040D01*
X151854797Y-122940003D01*
X152064266Y-123026768D01*
X152286636Y-123071000D01*
X152513364Y-123071000D01*
X152735734Y-123026768D01*
X152945203Y-122940003D01*
X153133720Y-122814040D01*
X153294040Y-122653720D01*
X153420003Y-122465203D01*
X153506768Y-122255734D01*
X153551000Y-122033364D01*
X153551000Y-121806636D01*
X153506768Y-121584266D01*
X153420003Y-121374797D01*
X153294040Y-121186280D01*
X153237370Y-121129610D01*
X153311634Y-121089915D01*
X153399646Y-121017686D01*
X153417745Y-120995632D01*
X154015637Y-120397741D01*
X154037686Y-120379646D01*
X154061766Y-120350305D01*
X154109915Y-120291634D01*
X154119319Y-120274040D01*
X154149610Y-120217370D01*
X154206280Y-120274040D01*
X154394797Y-120400003D01*
X154604266Y-120486768D01*
X154826636Y-120531000D01*
X155053364Y-120531000D01*
X155275734Y-120486768D01*
X155485203Y-120400003D01*
X155580001Y-120336661D01*
X155580001Y-120963339D01*
X155485203Y-120899997D01*
X155275734Y-120813232D01*
X155053364Y-120769000D01*
X154826636Y-120769000D01*
X154604266Y-120813232D01*
X154394797Y-120899997D01*
X154206280Y-121025960D01*
X154045960Y-121186280D01*
X153919997Y-121374797D01*
X153833232Y-121584266D01*
X153789000Y-121806636D01*
X153789000Y-122033364D01*
X153833232Y-122255734D01*
X153919997Y-122465203D01*
X154045960Y-122653720D01*
X154206280Y-122814040D01*
X154394797Y-122940003D01*
X154604266Y-123026768D01*
X154826636Y-123071000D01*
X155053364Y-123071000D01*
X155275734Y-123026768D01*
X155485203Y-122940003D01*
X155580001Y-122876661D01*
X155580001Y-123503339D01*
X155485203Y-123439997D01*
X155275734Y-123353232D01*
X155053364Y-123309000D01*
X154826636Y-123309000D01*
X154604266Y-123353232D01*
X154394797Y-123439997D01*
X154206280Y-123565960D01*
X154045960Y-123726280D01*
X153919997Y-123914797D01*
X153833232Y-124124266D01*
X153789000Y-124346636D01*
X153789000Y-124573364D01*
X153833232Y-124795734D01*
X153919997Y-125005203D01*
X154045960Y-125193720D01*
X154079240Y-125227000D01*
X153260760Y-125227000D01*
X153294040Y-125193720D01*
X153420003Y-125005203D01*
X153506768Y-124795734D01*
X153551000Y-124573364D01*
X153551000Y-124346636D01*
X153506768Y-124124266D01*
X153420003Y-123914797D01*
X153294040Y-123726280D01*
X153133720Y-123565960D01*
X152945203Y-123439997D01*
X152735734Y-123353232D01*
X152513364Y-123309000D01*
X152286636Y-123309000D01*
X152064266Y-123353232D01*
X151854797Y-123439997D01*
X151666280Y-123565960D01*
X151505960Y-123726280D01*
X151379997Y-123914797D01*
X151293232Y-124124266D01*
X151249000Y-124346636D01*
X151249000Y-124573364D01*
X151293232Y-124795734D01*
X151379997Y-125005203D01*
X151505960Y-125193720D01*
X151539240Y-125227000D01*
X140895860Y-125227000D01*
X140928041Y-125182882D01*
X141045472Y-124929413D01*
X141079505Y-124817200D01*
X140961332Y-124597000D01*
X139837000Y-124597000D01*
X139837000Y-124617000D01*
X139563000Y-124617000D01*
X139563000Y-124597000D01*
X138438668Y-124597000D01*
X138430000Y-124613152D01*
X138421332Y-124597000D01*
X137297000Y-124597000D01*
X137297000Y-124617000D01*
X137023000Y-124617000D01*
X137023000Y-124597000D01*
X137003000Y-124597000D01*
X137003000Y-124323000D01*
X137023000Y-124323000D01*
X137023000Y-124303000D01*
X137297000Y-124303000D01*
X137297000Y-124323000D01*
X138421332Y-124323000D01*
X138430000Y-124306848D01*
X138438668Y-124323000D01*
X139563000Y-124323000D01*
X139563000Y-124303000D01*
X139837000Y-124303000D01*
X139837000Y-124323000D01*
X140961332Y-124323000D01*
X141079505Y-124102800D01*
X141045472Y-123990587D01*
X140928041Y-123737118D01*
X140763417Y-123511429D01*
X140557927Y-123322193D01*
X140319467Y-123176682D01*
X140057201Y-123080489D01*
X139837002Y-123197844D01*
X139837002Y-123066298D01*
X140035734Y-123026768D01*
X140245203Y-122940003D01*
X140433720Y-122814040D01*
X140594040Y-122653720D01*
X140720003Y-122465203D01*
X140806768Y-122255734D01*
X140851000Y-122033364D01*
X140851000Y-121806636D01*
X140806768Y-121584266D01*
X140720003Y-121374797D01*
X140594040Y-121186280D01*
X140433720Y-121025960D01*
X140245203Y-120899997D01*
X140035734Y-120813232D01*
X139813364Y-120769000D01*
X139586636Y-120769000D01*
X139364266Y-120813232D01*
X139154797Y-120899997D01*
X138966280Y-121025960D01*
X138805960Y-121186280D01*
X138679997Y-121374797D01*
X138593232Y-121584266D01*
X138549000Y-121806636D01*
X138549000Y-122033364D01*
X138593232Y-122255734D01*
X138679997Y-122465203D01*
X138805960Y-122653720D01*
X138966280Y-122814040D01*
X139154797Y-122940003D01*
X139364266Y-123026768D01*
X139562998Y-123066298D01*
X139562998Y-123197844D01*
X139342799Y-123080489D01*
X139080533Y-123176682D01*
X138842073Y-123322193D01*
X138636583Y-123511429D01*
X138471959Y-123737118D01*
X138430000Y-123827684D01*
X138388041Y-123737118D01*
X138223417Y-123511429D01*
X138017927Y-123322193D01*
X137779467Y-123176682D01*
X137517201Y-123080489D01*
X137297002Y-123197844D01*
X137297002Y-123066298D01*
X137495734Y-123026768D01*
X137705203Y-122940003D01*
X137893720Y-122814040D01*
X138054040Y-122653720D01*
X138180003Y-122465203D01*
X138266768Y-122255734D01*
X138311000Y-122033364D01*
X138311000Y-121806636D01*
X138266768Y-121584266D01*
X138180003Y-121374797D01*
X138054040Y-121186280D01*
X137893720Y-121025960D01*
X137705203Y-120899997D01*
X137495734Y-120813232D01*
X137273364Y-120769000D01*
X137046636Y-120769000D01*
X136824266Y-120813232D01*
X136614797Y-120899997D01*
X136520000Y-120963338D01*
X136520000Y-120336662D01*
X136614797Y-120400003D01*
X136824266Y-120486768D01*
X137046636Y-120531000D01*
X137273364Y-120531000D01*
X137495734Y-120486768D01*
X137705203Y-120400003D01*
X137893720Y-120274040D01*
X138054040Y-120113720D01*
X138180003Y-119925203D01*
X138266768Y-119715734D01*
X138311000Y-119493364D01*
X138311000Y-119266636D01*
X138549000Y-119266636D01*
X138549000Y-119493364D01*
X138593232Y-119715734D01*
X138679997Y-119925203D01*
X138805960Y-120113720D01*
X138966280Y-120274040D01*
X139154797Y-120400003D01*
X139364266Y-120486768D01*
X139586636Y-120531000D01*
X139813364Y-120531000D01*
X140035734Y-120486768D01*
X140245203Y-120400003D01*
X140433720Y-120274040D01*
X140594040Y-120113720D01*
X140720003Y-119925203D01*
X140806768Y-119715734D01*
X140851000Y-119493364D01*
X140851000Y-119266636D01*
X140806768Y-119044266D01*
X140720003Y-118834797D01*
X140594040Y-118646280D01*
X140433720Y-118485960D01*
X140245203Y-118359997D01*
X140035734Y-118273232D01*
X139813364Y-118229000D01*
X139586636Y-118229000D01*
X139364266Y-118273232D01*
X139154797Y-118359997D01*
X138966280Y-118485960D01*
X138805960Y-118646280D01*
X138679997Y-118834797D01*
X138593232Y-119044266D01*
X138549000Y-119266636D01*
X138311000Y-119266636D01*
X138266768Y-119044266D01*
X138180003Y-118834797D01*
X138054040Y-118646280D01*
X137893720Y-118485960D01*
X137705203Y-118359997D01*
X137495734Y-118273232D01*
X137273364Y-118229000D01*
X137046636Y-118229000D01*
X136824266Y-118273232D01*
X136614797Y-118359997D01*
X136520000Y-118423338D01*
X136520000Y-117796662D01*
X136614797Y-117860003D01*
X136824266Y-117946768D01*
X137046636Y-117991000D01*
X137273364Y-117991000D01*
X137495734Y-117946768D01*
X137705203Y-117860003D01*
X137893720Y-117734040D01*
X138054040Y-117573720D01*
X138180003Y-117385203D01*
X138266768Y-117175734D01*
X138311000Y-116953364D01*
X138311000Y-116726636D01*
X138549000Y-116726636D01*
X138549000Y-116953364D01*
X138593232Y-117175734D01*
X138679997Y-117385203D01*
X138805960Y-117573720D01*
X138966280Y-117734040D01*
X139154797Y-117860003D01*
X139364266Y-117946768D01*
X139586636Y-117991000D01*
X139813364Y-117991000D01*
X140035734Y-117946768D01*
X140245203Y-117860003D01*
X140433720Y-117734040D01*
X140594040Y-117573720D01*
X140720003Y-117385203D01*
X140806768Y-117175734D01*
X140851000Y-116953364D01*
X140851000Y-116726636D01*
X140806768Y-116504266D01*
X140720003Y-116294797D01*
X140594040Y-116106280D01*
X140433720Y-115945960D01*
X140245203Y-115819997D01*
X140035734Y-115733232D01*
X139813364Y-115689000D01*
X139586636Y-115689000D01*
X139364266Y-115733232D01*
X139154797Y-115819997D01*
X138966280Y-115945960D01*
X138805960Y-116106280D01*
X138679997Y-116294797D01*
X138593232Y-116504266D01*
X138549000Y-116726636D01*
X138311000Y-116726636D01*
X138266768Y-116504266D01*
X138180003Y-116294797D01*
X138054040Y-116106280D01*
X137893720Y-115945960D01*
X137705203Y-115819997D01*
X137495734Y-115733232D01*
X137273364Y-115689000D01*
X137046636Y-115689000D01*
X136824266Y-115733232D01*
X136614797Y-115819997D01*
X136520000Y-115883338D01*
X136520000Y-115256662D01*
X136614797Y-115320003D01*
X136824266Y-115406768D01*
X137046636Y-115451000D01*
X137273364Y-115451000D01*
X137495734Y-115406768D01*
X137705203Y-115320003D01*
X137893720Y-115194040D01*
X138054040Y-115033720D01*
X138180003Y-114845203D01*
X138266768Y-114635734D01*
X138311000Y-114413364D01*
X138311000Y-114186636D01*
X138549000Y-114186636D01*
X138549000Y-114413364D01*
X138593232Y-114635734D01*
X138679997Y-114845203D01*
X138805960Y-115033720D01*
X138966280Y-115194040D01*
X139154797Y-115320003D01*
X139364266Y-115406768D01*
X139586636Y-115451000D01*
X139813364Y-115451000D01*
X140035734Y-115406768D01*
X140245203Y-115320003D01*
X140433720Y-115194040D01*
X140594040Y-115033720D01*
X140720003Y-114845203D01*
X140806768Y-114635734D01*
X140851000Y-114413364D01*
X140851000Y-114186636D01*
X140848288Y-114173000D01*
X143310204Y-114173000D01*
X143321364Y-114286308D01*
X143354414Y-114395261D01*
X143408086Y-114495673D01*
X143480315Y-114583685D01*
X143568327Y-114655914D01*
X143668739Y-114709586D01*
X143777692Y-114742636D01*
X143862612Y-114751000D01*
X150142388Y-114751000D01*
X150227308Y-114742636D01*
X150336261Y-114709586D01*
X150436673Y-114655914D01*
X150524685Y-114583685D01*
X150596914Y-114495673D01*
X150650586Y-114395261D01*
X150683636Y-114286308D01*
X150694796Y-114173000D01*
X150683636Y-114059692D01*
X150650586Y-113950739D01*
X150596914Y-113850327D01*
X150524685Y-113762315D01*
X150436673Y-113690086D01*
X150336261Y-113636414D01*
X150227308Y-113603364D01*
X150142388Y-113595000D01*
X143862612Y-113595000D01*
X143777692Y-113603364D01*
X143668739Y-113636414D01*
X143568327Y-113690086D01*
X143480315Y-113762315D01*
X143408086Y-113850327D01*
X143354414Y-113950739D01*
X143321364Y-114059692D01*
X143310204Y-114173000D01*
X140848288Y-114173000D01*
X140806768Y-113964266D01*
X140720003Y-113754797D01*
X140594040Y-113566280D01*
X140433720Y-113405960D01*
X140245203Y-113279997D01*
X140035734Y-113193232D01*
X139813364Y-113149000D01*
X139586636Y-113149000D01*
X139364266Y-113193232D01*
X139154797Y-113279997D01*
X138966280Y-113405960D01*
X138805960Y-113566280D01*
X138679997Y-113754797D01*
X138593232Y-113964266D01*
X138549000Y-114186636D01*
X138311000Y-114186636D01*
X138266768Y-113964266D01*
X138180003Y-113754797D01*
X138054040Y-113566280D01*
X137893720Y-113405960D01*
X137705203Y-113279997D01*
X137495734Y-113193232D01*
X137273364Y-113149000D01*
X137046636Y-113149000D01*
X136824266Y-113193232D01*
X136614797Y-113279997D01*
X136520000Y-113343338D01*
X136520000Y-112716662D01*
X136614797Y-112780003D01*
X136824266Y-112866768D01*
X137046636Y-112911000D01*
X137273364Y-112911000D01*
X137495734Y-112866768D01*
X137705203Y-112780003D01*
X137893720Y-112654040D01*
X138054040Y-112493720D01*
X138180003Y-112305203D01*
X138266768Y-112095734D01*
X138311000Y-111873364D01*
X138311000Y-111646636D01*
X138549000Y-111646636D01*
X138549000Y-111873364D01*
X138593232Y-112095734D01*
X138679997Y-112305203D01*
X138805960Y-112493720D01*
X138966280Y-112654040D01*
X139154797Y-112780003D01*
X139364266Y-112866768D01*
X139586636Y-112911000D01*
X139813364Y-112911000D01*
X140035734Y-112866768D01*
X140245203Y-112780003D01*
X140433720Y-112654040D01*
X140594040Y-112493720D01*
X140720003Y-112305203D01*
X140806768Y-112095734D01*
X140851000Y-111873364D01*
X140851000Y-111646636D01*
X140806768Y-111424266D01*
X140720003Y-111214797D01*
X140594040Y-111026280D01*
X140433720Y-110865960D01*
X140245203Y-110739997D01*
X140035734Y-110653232D01*
X139813364Y-110609000D01*
X139586636Y-110609000D01*
X139364266Y-110653232D01*
X139154797Y-110739997D01*
X138966280Y-110865960D01*
X138805960Y-111026280D01*
X138679997Y-111214797D01*
X138593232Y-111424266D01*
X138549000Y-111646636D01*
X138311000Y-111646636D01*
X138266768Y-111424266D01*
X138180003Y-111214797D01*
X138054040Y-111026280D01*
X137893720Y-110865960D01*
X137705203Y-110739997D01*
X137495734Y-110653232D01*
X137273364Y-110609000D01*
X137046636Y-110609000D01*
X136824266Y-110653232D01*
X136614797Y-110739997D01*
X136520000Y-110803338D01*
X136520000Y-110176662D01*
X136614797Y-110240003D01*
X136824266Y-110326768D01*
X137046636Y-110371000D01*
X137273364Y-110371000D01*
X137495734Y-110326768D01*
X137705203Y-110240003D01*
X137893720Y-110114040D01*
X138054040Y-109953720D01*
X138180003Y-109765203D01*
X138266768Y-109555734D01*
X138311000Y-109333364D01*
X138311000Y-109106636D01*
X138549000Y-109106636D01*
X138549000Y-109333364D01*
X138593232Y-109555734D01*
X138679997Y-109765203D01*
X138805960Y-109953720D01*
X138966280Y-110114040D01*
X139154797Y-110240003D01*
X139364266Y-110326768D01*
X139586636Y-110371000D01*
X139813364Y-110371000D01*
X140035734Y-110326768D01*
X140245203Y-110240003D01*
X140433720Y-110114040D01*
X140594040Y-109953720D01*
X140720003Y-109765203D01*
X140806768Y-109555734D01*
X140851000Y-109333364D01*
X140851000Y-109106636D01*
X140806768Y-108884266D01*
X140720003Y-108674797D01*
X140594040Y-108486280D01*
X140433720Y-108325960D01*
X140245203Y-108199997D01*
X140035734Y-108113232D01*
X139813364Y-108069000D01*
X139586636Y-108069000D01*
X139364266Y-108113232D01*
X139154797Y-108199997D01*
X138966280Y-108325960D01*
X138805960Y-108486280D01*
X138679997Y-108674797D01*
X138593232Y-108884266D01*
X138549000Y-109106636D01*
X138311000Y-109106636D01*
X138266768Y-108884266D01*
X138180003Y-108674797D01*
X138054040Y-108486280D01*
X137893720Y-108325960D01*
X137705203Y-108199997D01*
X137495734Y-108113232D01*
X137273364Y-108069000D01*
X137046636Y-108069000D01*
X136824266Y-108113232D01*
X136614797Y-108199997D01*
X136520000Y-108263338D01*
X136520000Y-107636662D01*
X136614797Y-107700003D01*
X136824266Y-107786768D01*
X137046636Y-107831000D01*
X137273364Y-107831000D01*
X137495734Y-107786768D01*
X137705203Y-107700003D01*
X137893720Y-107574040D01*
X138054040Y-107413720D01*
X138180003Y-107225203D01*
X138266768Y-107015734D01*
X138311000Y-106793364D01*
X138311000Y-106566636D01*
X138549000Y-106566636D01*
X138549000Y-106793364D01*
X138593232Y-107015734D01*
X138679997Y-107225203D01*
X138805960Y-107413720D01*
X138966280Y-107574040D01*
X139154797Y-107700003D01*
X139364266Y-107786768D01*
X139586636Y-107831000D01*
X139813364Y-107831000D01*
X140035734Y-107786768D01*
X140245203Y-107700003D01*
X140433720Y-107574040D01*
X140594040Y-107413720D01*
X140720003Y-107225203D01*
X140806768Y-107015734D01*
X140851000Y-106793364D01*
X140851000Y-106566636D01*
X140806768Y-106344266D01*
X140720003Y-106134797D01*
X140594040Y-105946280D01*
X140433720Y-105785960D01*
X140245203Y-105659997D01*
X140035734Y-105573232D01*
X139813364Y-105529000D01*
X139586636Y-105529000D01*
X139364266Y-105573232D01*
X139154797Y-105659997D01*
X138966280Y-105785960D01*
X138805960Y-105946280D01*
X138679997Y-106134797D01*
X138593232Y-106344266D01*
X138549000Y-106566636D01*
X138311000Y-106566636D01*
X138266768Y-106344266D01*
X138180003Y-106134797D01*
X138054040Y-105946280D01*
X137893720Y-105785960D01*
X137705203Y-105659997D01*
X137495734Y-105573232D01*
X137273364Y-105529000D01*
X137046636Y-105529000D01*
X136824266Y-105573232D01*
X136614797Y-105659997D01*
X136520000Y-105723338D01*
X136520000Y-105096662D01*
X136614797Y-105160003D01*
X136824266Y-105246768D01*
X137046636Y-105291000D01*
X137273364Y-105291000D01*
X137495734Y-105246768D01*
X137705203Y-105160003D01*
X137893720Y-105034040D01*
X138054040Y-104873720D01*
X138180003Y-104685203D01*
X138266768Y-104475734D01*
X138311000Y-104253364D01*
X138311000Y-104026636D01*
X138549000Y-104026636D01*
X138549000Y-104253364D01*
X138593232Y-104475734D01*
X138679997Y-104685203D01*
X138805960Y-104873720D01*
X138966280Y-105034040D01*
X139154797Y-105160003D01*
X139364266Y-105246768D01*
X139586636Y-105291000D01*
X139813364Y-105291000D01*
X140035734Y-105246768D01*
X140245203Y-105160003D01*
X140433720Y-105034040D01*
X140594040Y-104873720D01*
X140720003Y-104685203D01*
X140806768Y-104475734D01*
X140851000Y-104253364D01*
X140851000Y-104026636D01*
X140806768Y-103804266D01*
X140720003Y-103594797D01*
X140594040Y-103406280D01*
X140433720Y-103245960D01*
X140245203Y-103119997D01*
X140035734Y-103033232D01*
X139813364Y-102989000D01*
X139586636Y-102989000D01*
X139364266Y-103033232D01*
X139154797Y-103119997D01*
X138966280Y-103245960D01*
X138805960Y-103406280D01*
X138679997Y-103594797D01*
X138593232Y-103804266D01*
X138549000Y-104026636D01*
X138311000Y-104026636D01*
X138266768Y-103804266D01*
X138180003Y-103594797D01*
X138054040Y-103406280D01*
X137893720Y-103245960D01*
X137705203Y-103119997D01*
X137495734Y-103033232D01*
X137273364Y-102989000D01*
X137046636Y-102989000D01*
X136824266Y-103033232D01*
X136614797Y-103119997D01*
X136520000Y-103183338D01*
X136520000Y-102556662D01*
X136614797Y-102620003D01*
X136824266Y-102706768D01*
X137046636Y-102751000D01*
X137273364Y-102751000D01*
X137495734Y-102706768D01*
X137705203Y-102620003D01*
X137893720Y-102494040D01*
X138054040Y-102333720D01*
X138180003Y-102145203D01*
X138266768Y-101935734D01*
X138311000Y-101713364D01*
X138311000Y-101486636D01*
X138549000Y-101486636D01*
X138549000Y-101713364D01*
X138593232Y-101935734D01*
X138679997Y-102145203D01*
X138805960Y-102333720D01*
X138966280Y-102494040D01*
X139154797Y-102620003D01*
X139364266Y-102706768D01*
X139586636Y-102751000D01*
X139813364Y-102751000D01*
X140035734Y-102706768D01*
X140245203Y-102620003D01*
X140433720Y-102494040D01*
X140594040Y-102333720D01*
X140720003Y-102145203D01*
X140806768Y-101935734D01*
X140851000Y-101713364D01*
X140851000Y-101486636D01*
X140806768Y-101264266D01*
X140720003Y-101054797D01*
X140594040Y-100866280D01*
X140433720Y-100705960D01*
X140245203Y-100579997D01*
X140035734Y-100493232D01*
X139813364Y-100449000D01*
X139586636Y-100449000D01*
X139364266Y-100493232D01*
X139154797Y-100579997D01*
X138966280Y-100705960D01*
X138805960Y-100866280D01*
X138679997Y-101054797D01*
X138593232Y-101264266D01*
X138549000Y-101486636D01*
X138311000Y-101486636D01*
X138266768Y-101264266D01*
X138180003Y-101054797D01*
X138054040Y-100866280D01*
X137893720Y-100705960D01*
X137705203Y-100579997D01*
X137495734Y-100493232D01*
X137273364Y-100449000D01*
X137046636Y-100449000D01*
X136824266Y-100493232D01*
X136614797Y-100579997D01*
X136520000Y-100643338D01*
X136520000Y-100016662D01*
X136614797Y-100080003D01*
X136824266Y-100166768D01*
X137046636Y-100211000D01*
X137273364Y-100211000D01*
X137495734Y-100166768D01*
X137705203Y-100080003D01*
X137893720Y-99954040D01*
X138054040Y-99793720D01*
X138180003Y-99605203D01*
X138266768Y-99395734D01*
X138311000Y-99173364D01*
X138311000Y-98946636D01*
X138549000Y-98946636D01*
X138549000Y-99173364D01*
X138593232Y-99395734D01*
X138679997Y-99605203D01*
X138805960Y-99793720D01*
X138966280Y-99954040D01*
X139154797Y-100080003D01*
X139364266Y-100166768D01*
X139586636Y-100211000D01*
X139813364Y-100211000D01*
X140035734Y-100166768D01*
X140245203Y-100080003D01*
X140433720Y-99954040D01*
X140594040Y-99793720D01*
X140720003Y-99605203D01*
X140806768Y-99395734D01*
X140851000Y-99173364D01*
X140851000Y-98946636D01*
X140806768Y-98724266D01*
X140720003Y-98514797D01*
X140594040Y-98326280D01*
X140433720Y-98165960D01*
X140245203Y-98039997D01*
X140035734Y-97953232D01*
X139813364Y-97909000D01*
X139586636Y-97909000D01*
X139364266Y-97953232D01*
X139154797Y-98039997D01*
X138966280Y-98165960D01*
X138805960Y-98326280D01*
X138679997Y-98514797D01*
X138593232Y-98724266D01*
X138549000Y-98946636D01*
X138311000Y-98946636D01*
X138266768Y-98724266D01*
X138180003Y-98514797D01*
X138054040Y-98326280D01*
X137893720Y-98165960D01*
X137705203Y-98039997D01*
X137495734Y-97953232D01*
X137273364Y-97909000D01*
X137046636Y-97909000D01*
X136824266Y-97953232D01*
X136614797Y-98039997D01*
X136520000Y-98103338D01*
X136520000Y-97796513D01*
X143945204Y-97796513D01*
X143948000Y-97824901D01*
X143948000Y-98072387D01*
X143956364Y-98157307D01*
X143989414Y-98266260D01*
X144043086Y-98366672D01*
X144115315Y-98454685D01*
X144203327Y-98526914D01*
X144303739Y-98580586D01*
X144412692Y-98613636D01*
X144526000Y-98624796D01*
X144639307Y-98613636D01*
X144748260Y-98580586D01*
X144848672Y-98526914D01*
X144936685Y-98454685D01*
X145008914Y-98366673D01*
X145062586Y-98266261D01*
X145095636Y-98157308D01*
X145104000Y-98072388D01*
X145104000Y-98035927D01*
X145168627Y-97971300D01*
X145190685Y-97953198D01*
X145262914Y-97865186D01*
X145316586Y-97764774D01*
X145349636Y-97655821D01*
X145358000Y-97570901D01*
X145358000Y-97570899D01*
X145360796Y-97542514D01*
X145358000Y-97514129D01*
X145358000Y-94586612D01*
X145349636Y-94501692D01*
X145316586Y-94392739D01*
X145262914Y-94292327D01*
X145190685Y-94204315D01*
X145102673Y-94132086D01*
X145002261Y-94078414D01*
X144893308Y-94045364D01*
X144780000Y-94034204D01*
X144666693Y-94045364D01*
X144557740Y-94078414D01*
X144457328Y-94132086D01*
X144369316Y-94204315D01*
X144297087Y-94292327D01*
X144243415Y-94392739D01*
X144210365Y-94501692D01*
X144202001Y-94586612D01*
X144202000Y-97303098D01*
X144137366Y-97367732D01*
X144115316Y-97385828D01*
X144043087Y-97473840D01*
X143989414Y-97574252D01*
X143956364Y-97683205D01*
X143956364Y-97683206D01*
X143945204Y-97796513D01*
X136520000Y-97796513D01*
X136520000Y-97476662D01*
X136614797Y-97540003D01*
X136824266Y-97626768D01*
X137046636Y-97671000D01*
X137273364Y-97671000D01*
X137495734Y-97626768D01*
X137705203Y-97540003D01*
X137893720Y-97414040D01*
X138054040Y-97253720D01*
X138180003Y-97065203D01*
X138266768Y-96855734D01*
X138311000Y-96633364D01*
X138311000Y-96406636D01*
X138549000Y-96406636D01*
X138549000Y-96633364D01*
X138593232Y-96855734D01*
X138679997Y-97065203D01*
X138805960Y-97253720D01*
X138966280Y-97414040D01*
X139154797Y-97540003D01*
X139364266Y-97626768D01*
X139586636Y-97671000D01*
X139813364Y-97671000D01*
X140035734Y-97626768D01*
X140245203Y-97540003D01*
X140433720Y-97414040D01*
X140594040Y-97253720D01*
X140720003Y-97065203D01*
X140806768Y-96855734D01*
X140851000Y-96633364D01*
X140851000Y-96406636D01*
X140806768Y-96184266D01*
X140720003Y-95974797D01*
X140594040Y-95786280D01*
X140433720Y-95625960D01*
X140245203Y-95499997D01*
X140035734Y-95413232D01*
X139813364Y-95369000D01*
X139586636Y-95369000D01*
X139364266Y-95413232D01*
X139154797Y-95499997D01*
X138966280Y-95625960D01*
X138805960Y-95786280D01*
X138679997Y-95974797D01*
X138593232Y-96184266D01*
X138549000Y-96406636D01*
X138311000Y-96406636D01*
X138266768Y-96184266D01*
X138180003Y-95974797D01*
X138054040Y-95786280D01*
X137893720Y-95625960D01*
X137705203Y-95499997D01*
X137495734Y-95413232D01*
X137273364Y-95369000D01*
X137046636Y-95369000D01*
X136824266Y-95413232D01*
X136614797Y-95499997D01*
X136520000Y-95563338D01*
X136520000Y-94936662D01*
X136614797Y-95000003D01*
X136824266Y-95086768D01*
X137046636Y-95131000D01*
X137273364Y-95131000D01*
X137495734Y-95086768D01*
X137705203Y-95000003D01*
X137893720Y-94874040D01*
X138054040Y-94713720D01*
X138180003Y-94525203D01*
X138266768Y-94315734D01*
X138311000Y-94093364D01*
X138311000Y-93866636D01*
X138549000Y-93866636D01*
X138549000Y-94093364D01*
X138593232Y-94315734D01*
X138679997Y-94525203D01*
X138805960Y-94713720D01*
X138966280Y-94874040D01*
X139154797Y-95000003D01*
X139364266Y-95086768D01*
X139586636Y-95131000D01*
X139813364Y-95131000D01*
X140035734Y-95086768D01*
X140245203Y-95000003D01*
X140433720Y-94874040D01*
X140594040Y-94713720D01*
X140720003Y-94525203D01*
X140806768Y-94315734D01*
X140851000Y-94093364D01*
X140851000Y-93866636D01*
X140806768Y-93644266D01*
X140720003Y-93434797D01*
X140594040Y-93246280D01*
X140433720Y-93085960D01*
X140245203Y-92959997D01*
X140035734Y-92873232D01*
X139813364Y-92829000D01*
X139586636Y-92829000D01*
X139364266Y-92873232D01*
X139154797Y-92959997D01*
X138966280Y-93085960D01*
X138805960Y-93246280D01*
X138679997Y-93434797D01*
X138593232Y-93644266D01*
X138549000Y-93866636D01*
X138311000Y-93866636D01*
X138266768Y-93644266D01*
X138180003Y-93434797D01*
X138054040Y-93246280D01*
X137893720Y-93085960D01*
X137705203Y-92959997D01*
X137495734Y-92873232D01*
X137273364Y-92829000D01*
X137046636Y-92829000D01*
X136824266Y-92873232D01*
X136614797Y-92959997D01*
X136520000Y-93023338D01*
X136520000Y-92592698D01*
X137960000Y-92592698D01*
X138028808Y-92585921D01*
X138094972Y-92565850D01*
X138155949Y-92533258D01*
X138209395Y-92489395D01*
X138253258Y-92435949D01*
X138285850Y-92374972D01*
X138305921Y-92308808D01*
X138312698Y-92240000D01*
X138312698Y-91326636D01*
X138549000Y-91326636D01*
X138549000Y-91553364D01*
X138593232Y-91775734D01*
X138679997Y-91985203D01*
X138805960Y-92173720D01*
X138966280Y-92334040D01*
X139154797Y-92460003D01*
X139364266Y-92546768D01*
X139586636Y-92591000D01*
X139813364Y-92591000D01*
X140035734Y-92546768D01*
X140245203Y-92460003D01*
X140433720Y-92334040D01*
X140594040Y-92173720D01*
X140698089Y-92018000D01*
X143538388Y-92018000D01*
X143623308Y-92009636D01*
X143732261Y-91976586D01*
X143832673Y-91922914D01*
X143920685Y-91850685D01*
X143992914Y-91762673D01*
X144046586Y-91662261D01*
X144079636Y-91553308D01*
X144090796Y-91440000D01*
X144079636Y-91326692D01*
X144046586Y-91217739D01*
X143992914Y-91117327D01*
X143920685Y-91029315D01*
X143832673Y-90957086D01*
X143732261Y-90903414D01*
X143623308Y-90870364D01*
X143538388Y-90862000D01*
X140698089Y-90862000D01*
X140594040Y-90706280D01*
X140433720Y-90545960D01*
X140245203Y-90419997D01*
X140035734Y-90333232D01*
X139813364Y-90289000D01*
X139586636Y-90289000D01*
X139364266Y-90333232D01*
X139154797Y-90419997D01*
X138966280Y-90545960D01*
X138805960Y-90706280D01*
X138679997Y-90894797D01*
X138593232Y-91104266D01*
X138549000Y-91326636D01*
X138312698Y-91326636D01*
X138312698Y-90640000D01*
X138305921Y-90571192D01*
X138285850Y-90505028D01*
X138253258Y-90444051D01*
X138209395Y-90390605D01*
X138155949Y-90346742D01*
X138094972Y-90314150D01*
X138028808Y-90294079D01*
X137960000Y-90287302D01*
X136520000Y-90287302D01*
X136520000Y-88786636D01*
X138549000Y-88786636D01*
X138549000Y-89013364D01*
X138593232Y-89235734D01*
X138679997Y-89445203D01*
X138805960Y-89633720D01*
X138966280Y-89794040D01*
X139154797Y-89920003D01*
X139364266Y-90006768D01*
X139586636Y-90051000D01*
X139813364Y-90051000D01*
X140035734Y-90006768D01*
X140245203Y-89920003D01*
X140433720Y-89794040D01*
X140594040Y-89633720D01*
X140698089Y-89478000D01*
X145472001Y-89478000D01*
X145472000Y-99963584D01*
X144899365Y-100536220D01*
X144877316Y-100554315D01*
X144859221Y-100576364D01*
X144859219Y-100576366D01*
X144805086Y-100642328D01*
X144751415Y-100742739D01*
X144718364Y-100851693D01*
X144707204Y-100965000D01*
X144710001Y-100993398D01*
X144710000Y-102898387D01*
X144718364Y-102983307D01*
X144751414Y-103092260D01*
X144805086Y-103192672D01*
X144877315Y-103280685D01*
X144965327Y-103352914D01*
X145065739Y-103406586D01*
X145174692Y-103439636D01*
X145288000Y-103450796D01*
X145401307Y-103439636D01*
X145510260Y-103406586D01*
X145610672Y-103352914D01*
X145698685Y-103280685D01*
X145770914Y-103192673D01*
X145824586Y-103092261D01*
X145857636Y-102983308D01*
X145866000Y-102898388D01*
X145866000Y-101204415D01*
X146438637Y-100631779D01*
X146460685Y-100613685D01*
X146532914Y-100525673D01*
X146584901Y-100428414D01*
X146586586Y-100425262D01*
X146619636Y-100316308D01*
X146630796Y-100203000D01*
X146628000Y-100174612D01*
X146628000Y-93881387D01*
X148901000Y-93881387D01*
X148909364Y-93966307D01*
X148942414Y-94075260D01*
X148996086Y-94175672D01*
X149068315Y-94263685D01*
X149156327Y-94335914D01*
X149256739Y-94389586D01*
X149365692Y-94422636D01*
X149479000Y-94433796D01*
X149592307Y-94422636D01*
X149701260Y-94389586D01*
X149801672Y-94335914D01*
X149889685Y-94263685D01*
X149961914Y-94175673D01*
X150015586Y-94075261D01*
X150048636Y-93966308D01*
X150057000Y-93881388D01*
X150057000Y-90141612D01*
X150048636Y-90056692D01*
X150015586Y-89947739D01*
X149961914Y-89847327D01*
X149889685Y-89759315D01*
X149801673Y-89687086D01*
X149701261Y-89633414D01*
X149592308Y-89600364D01*
X149479000Y-89589204D01*
X149365693Y-89600364D01*
X149256740Y-89633414D01*
X149156328Y-89687086D01*
X149068316Y-89759315D01*
X148996087Y-89847327D01*
X148942415Y-89947739D01*
X148909365Y-90056692D01*
X148901001Y-90141612D01*
X148901000Y-93881387D01*
X146628000Y-93881387D01*
X146628000Y-88928388D01*
X146630796Y-88900000D01*
X146619636Y-88786692D01*
X146586586Y-88677739D01*
X146532914Y-88577327D01*
X146460685Y-88489315D01*
X146372673Y-88417086D01*
X146272261Y-88363414D01*
X146163308Y-88330364D01*
X146078388Y-88322000D01*
X146050000Y-88319204D01*
X146021612Y-88322000D01*
X140698089Y-88322000D01*
X140594040Y-88166280D01*
X140433720Y-88005960D01*
X140245203Y-87879997D01*
X140035734Y-87793232D01*
X139813364Y-87749000D01*
X139586636Y-87749000D01*
X139364266Y-87793232D01*
X139154797Y-87879997D01*
X138966280Y-88005960D01*
X138805960Y-88166280D01*
X138679997Y-88354797D01*
X138593232Y-88564266D01*
X138549000Y-88786636D01*
X136520000Y-88786636D01*
X136520000Y-85560000D01*
X138547302Y-85560000D01*
X138547302Y-87160000D01*
X138554079Y-87228808D01*
X138574150Y-87294972D01*
X138606742Y-87355949D01*
X138650605Y-87409395D01*
X138704051Y-87453258D01*
X138765028Y-87485850D01*
X138831192Y-87505921D01*
X138900000Y-87512698D01*
X140500000Y-87512698D01*
X140568808Y-87505921D01*
X140634972Y-87485850D01*
X140695949Y-87453258D01*
X140749395Y-87409395D01*
X140793258Y-87355949D01*
X140825850Y-87294972D01*
X140845921Y-87228808D01*
X140852698Y-87160000D01*
X140852698Y-86938000D01*
X148491388Y-86938000D01*
X148576308Y-86929636D01*
X148685261Y-86896586D01*
X148785673Y-86842914D01*
X148873685Y-86770685D01*
X148945914Y-86682673D01*
X148999586Y-86582261D01*
X149032636Y-86473308D01*
X149043796Y-86360000D01*
X149032636Y-86246692D01*
X148999586Y-86137739D01*
X148945914Y-86037327D01*
X148873685Y-85949315D01*
X148785673Y-85877086D01*
X148685261Y-85823414D01*
X148576308Y-85790364D01*
X148491388Y-85782000D01*
X140852698Y-85782000D01*
X140852698Y-85560000D01*
X140845921Y-85491192D01*
X140825850Y-85425028D01*
X140793258Y-85364051D01*
X140749395Y-85310605D01*
X140695949Y-85266742D01*
X140634972Y-85234150D01*
X140568808Y-85214079D01*
X140500000Y-85207302D01*
X138900000Y-85207302D01*
X138831192Y-85214079D01*
X138765028Y-85234150D01*
X138704051Y-85266742D01*
X138650605Y-85310605D01*
X138606742Y-85364051D01*
X138574150Y-85425028D01*
X138554079Y-85491192D01*
X138547302Y-85560000D01*
X136520000Y-85560000D01*
X136520000Y-83400000D01*
X136951976Y-83400000D01*
X136964043Y-83522521D01*
X136999781Y-83640334D01*
X137057817Y-83748911D01*
X137135920Y-83844080D01*
X137231089Y-83922183D01*
X137339666Y-83980219D01*
X137457479Y-84015957D01*
X137580000Y-84028024D01*
X138136750Y-84025000D01*
X138293000Y-83868750D01*
X138293000Y-82687000D01*
X137111250Y-82687000D01*
X136955000Y-82843250D01*
X136951976Y-83400000D01*
X136520000Y-83400000D01*
X136520000Y-81783000D01*
X136952427Y-81783000D01*
X136955000Y-82256750D01*
G37*
X136955000Y-82256750D02*
X137111250Y-82413000D01*
X138293000Y-82413000D01*
X138293000Y-82393000D01*
X138567000Y-82393000D01*
X138567000Y-82413000D01*
X138587000Y-82413000D01*
X138587000Y-82687000D01*
X138567000Y-82687000D01*
X138567000Y-83868750D01*
X138723250Y-84025000D01*
X139280000Y-84028024D01*
X139402521Y-84015957D01*
X139520334Y-83980219D01*
X139628911Y-83922183D01*
X139724080Y-83844080D01*
X139802183Y-83748911D01*
X139860219Y-83640334D01*
X139895957Y-83522521D01*
X139908024Y-83400000D01*
X139906504Y-83120108D01*
X140037122Y-83315593D01*
X140204407Y-83482878D01*
X140401113Y-83614312D01*
X140619681Y-83704846D01*
X140851712Y-83751000D01*
X141088288Y-83751000D01*
X141320319Y-83704846D01*
X141538887Y-83614312D01*
X141735593Y-83482878D01*
X141902878Y-83315593D01*
X142034312Y-83118887D01*
X142124846Y-82900319D01*
X142171000Y-82668288D01*
X142171000Y-82431712D01*
X142124846Y-82199681D01*
X142034312Y-81981113D01*
X141902878Y-81784407D01*
X141901471Y-81783000D01*
X142578529Y-81783000D01*
X142577122Y-81784407D01*
X142445688Y-81981113D01*
X142355154Y-82199681D01*
X142309000Y-82431712D01*
X142309000Y-82668288D01*
X142355154Y-82900319D01*
X142445688Y-83118887D01*
X142577122Y-83315593D01*
X142744407Y-83482878D01*
X142941113Y-83614312D01*
X143159681Y-83704846D01*
X143391712Y-83751000D01*
X143628288Y-83751000D01*
X143860319Y-83704846D01*
X144078887Y-83614312D01*
X144275593Y-83482878D01*
X144442878Y-83315593D01*
X144574312Y-83118887D01*
X144664846Y-82900319D01*
X144711000Y-82668288D01*
X144711000Y-82431712D01*
X144664846Y-82199681D01*
X144574312Y-81981113D01*
X144442878Y-81784407D01*
X144441471Y-81783000D01*
X145118529Y-81783000D01*
X145117122Y-81784407D01*
X144985688Y-81981113D01*
X144895154Y-82199681D01*
X144849000Y-82431712D01*
X144849000Y-82668288D01*
X144895154Y-82900319D01*
X144985688Y-83118887D01*
X145117122Y-83315593D01*
X145284407Y-83482878D01*
X145481113Y-83614312D01*
X145699681Y-83704846D01*
X145931712Y-83751000D01*
X146168288Y-83751000D01*
X146400319Y-83704846D01*
X146618887Y-83614312D01*
X146815593Y-83482878D01*
X146982878Y-83315593D01*
X147114312Y-83118887D01*
X147204846Y-82900319D01*
X147251000Y-82668288D01*
X147251000Y-82431712D01*
X147204846Y-82199681D01*
X147114312Y-81981113D01*
X146982878Y-81784407D01*
X146981471Y-81783000D01*
X147658529Y-81783000D01*
X147657122Y-81784407D01*
X147525688Y-81981113D01*
X147435154Y-82199681D01*
X147389000Y-82431712D01*
X147389000Y-82668288D01*
X147435154Y-82900319D01*
X147525688Y-83118887D01*
X147657122Y-83315593D01*
X147824407Y-83482878D01*
X148012000Y-83608223D01*
X148012000Y-83918612D01*
X148009204Y-83947000D01*
X148017184Y-84028024D01*
X148020364Y-84060307D01*
X148053414Y-84169260D01*
X148107086Y-84269672D01*
X148179315Y-84357685D01*
X148201370Y-84375785D01*
X152965000Y-89139416D01*
X152965000Y-89290574D01*
X152962204Y-89318962D01*
X152965000Y-89347349D01*
X152967652Y-89374275D01*
X152358747Y-88765370D01*
X152340647Y-88743315D01*
X152252635Y-88671086D01*
X152152223Y-88617414D01*
X152043270Y-88584364D01*
X151958350Y-88576000D01*
X151929962Y-88573204D01*
X151901574Y-88576000D01*
X151496415Y-88576000D01*
X150161785Y-87241370D01*
X150143685Y-87219315D01*
X150055673Y-87147086D01*
X149955261Y-87093414D01*
X149846308Y-87060364D01*
X149761388Y-87052000D01*
X149733000Y-87049204D01*
X149704612Y-87052000D01*
X142134875Y-87052000D01*
X142106487Y-87049204D01*
X142078099Y-87052000D01*
X141993179Y-87060364D01*
X141892181Y-87091001D01*
X141791611Y-87091001D01*
X141706691Y-87099365D01*
X141597738Y-87132415D01*
X141497326Y-87186087D01*
X141409314Y-87258316D01*
X141337085Y-87346328D01*
X141283413Y-87446740D01*
X141250363Y-87555693D01*
X141239203Y-87669001D01*
X141250363Y-87782309D01*
X141283413Y-87891262D01*
X141337085Y-87991674D01*
X141409314Y-88079686D01*
X141497326Y-88151915D01*
X141597738Y-88205587D01*
X141706691Y-88238637D01*
X141791611Y-88247001D01*
X142039098Y-88247001D01*
X142067486Y-88249797D01*
X142095874Y-88247001D01*
X142180794Y-88238637D01*
X142281792Y-88208000D01*
X149493585Y-88208000D01*
X150828215Y-89542630D01*
X150846315Y-89564685D01*
X150934327Y-89636914D01*
X151034739Y-89690586D01*
X151143692Y-89723636D01*
X151228612Y-89732000D01*
X151228621Y-89732000D01*
X151256999Y-89734795D01*
X151285377Y-89732000D01*
X151690547Y-89732000D01*
X152254032Y-90295485D01*
X152064266Y-90333232D01*
X151854797Y-90419997D01*
X151666280Y-90545960D01*
X151505960Y-90706280D01*
X151379997Y-90894797D01*
X151293232Y-91104266D01*
X151249000Y-91326636D01*
X151249000Y-91553364D01*
X151293232Y-91775734D01*
X151379997Y-91985203D01*
X151505960Y-92173720D01*
X151666280Y-92334040D01*
X151854797Y-92460003D01*
X152064266Y-92546768D01*
X152286636Y-92591000D01*
X152513364Y-92591000D01*
X152735734Y-92546768D01*
X152945203Y-92460003D01*
X153133720Y-92334040D01*
X153177347Y-92290413D01*
X153187086Y-92308634D01*
X153259315Y-92396647D01*
X153281369Y-92414746D01*
X154079431Y-93212809D01*
X154045960Y-93246280D01*
X153919997Y-93434797D01*
X153833232Y-93644266D01*
X153789000Y-93866636D01*
X153789000Y-94093364D01*
X153825537Y-94277048D01*
X153238370Y-94864215D01*
X153216316Y-94882314D01*
X153144087Y-94970327D01*
X153090415Y-95070739D01*
X153069102Y-95141000D01*
X153057365Y-95179692D01*
X153046205Y-95292999D01*
X153049001Y-95321387D01*
X153049001Y-95569353D01*
X152945203Y-95499997D01*
X152735734Y-95413232D01*
X152513364Y-95369000D01*
X152286636Y-95369000D01*
X152064266Y-95413232D01*
X151854797Y-95499997D01*
X151666280Y-95625960D01*
X151581000Y-95711240D01*
X151581000Y-95616415D01*
X152102952Y-95094463D01*
X152286636Y-95131000D01*
X152513364Y-95131000D01*
X152735734Y-95086768D01*
X152945203Y-95000003D01*
X153133720Y-94874040D01*
X153294040Y-94713720D01*
X153420003Y-94525203D01*
X153506768Y-94315734D01*
X153551000Y-94093364D01*
X153551000Y-93866636D01*
X153506768Y-93644266D01*
X153420003Y-93434797D01*
X153294040Y-93246280D01*
X153133720Y-93085960D01*
X152945203Y-92959997D01*
X152735734Y-92873232D01*
X152513364Y-92829000D01*
X152286636Y-92829000D01*
X152064266Y-92873232D01*
X151854797Y-92959997D01*
X151666280Y-93085960D01*
X151505960Y-93246280D01*
X151379997Y-93434797D01*
X151293232Y-93644266D01*
X151249000Y-93866636D01*
X151249000Y-94093364D01*
X151285537Y-94277048D01*
X150614365Y-94948220D01*
X150592316Y-94966315D01*
X150574221Y-94988364D01*
X150574219Y-94988366D01*
X150520086Y-95054328D01*
X150466415Y-95154739D01*
X150433364Y-95263693D01*
X150422204Y-95377000D01*
X150425001Y-95405398D01*
X150425000Y-103279387D01*
X150433364Y-103364307D01*
X150466414Y-103473260D01*
X150520086Y-103573672D01*
X150592315Y-103661685D01*
X150680327Y-103733914D01*
X150780739Y-103787586D01*
X150889692Y-103820636D01*
X151003000Y-103831796D01*
X151116307Y-103820636D01*
X151225260Y-103787586D01*
X151321435Y-103736179D01*
X151293232Y-103804266D01*
X151249000Y-104026636D01*
X151249000Y-104253364D01*
X151293232Y-104475734D01*
X151379997Y-104685203D01*
X151505960Y-104873720D01*
X151666280Y-105034040D01*
X151854797Y-105160003D01*
X152064266Y-105246768D01*
X152286636Y-105291000D01*
X152513364Y-105291000D01*
X152735734Y-105246768D01*
X152945203Y-105160003D01*
X153049001Y-105090647D01*
X153049001Y-105729353D01*
X152945203Y-105659997D01*
X152735734Y-105573232D01*
X152513364Y-105529000D01*
X152286636Y-105529000D01*
X152064266Y-105573232D01*
X151854797Y-105659997D01*
X151666280Y-105785960D01*
X151505960Y-105946280D01*
X151379997Y-106134797D01*
X151293232Y-106344266D01*
X151249000Y-106566636D01*
X151249000Y-106793364D01*
X151293232Y-107015734D01*
X151379997Y-107225203D01*
X151505960Y-107413720D01*
X151666280Y-107574040D01*
X151854797Y-107700003D01*
X152064266Y-107786768D01*
X152286636Y-107831000D01*
X152513364Y-107831000D01*
X152735734Y-107786768D01*
X152945203Y-107700003D01*
X153049001Y-107630647D01*
X153049002Y-108269353D01*
X152945203Y-108199997D01*
X152735734Y-108113232D01*
X152513364Y-108069000D01*
X152286636Y-108069000D01*
X152064266Y-108113232D01*
X151854797Y-108199997D01*
X151666280Y-108325960D01*
X151505960Y-108486280D01*
X151379997Y-108674797D01*
X151293232Y-108884266D01*
X151249000Y-109106636D01*
X151249000Y-109333364D01*
X151293232Y-109555734D01*
X151379997Y-109765203D01*
X151505960Y-109953720D01*
X151666280Y-110114040D01*
X151854797Y-110240003D01*
X152064266Y-110326768D01*
X152286636Y-110371000D01*
X152513364Y-110371000D01*
X152735734Y-110326768D01*
X152945203Y-110240003D01*
X153049002Y-110170647D01*
X153049002Y-110809353D01*
X152945203Y-110739997D01*
X152735734Y-110653232D01*
X152513364Y-110609000D01*
X152286636Y-110609000D01*
X152064266Y-110653232D01*
X151854797Y-110739997D01*
X151666280Y-110865960D01*
X151505960Y-111026280D01*
X151379997Y-111214797D01*
X151293232Y-111424266D01*
X151249000Y-111646636D01*
X151249000Y-111873364D01*
X151293232Y-112095734D01*
X151379997Y-112305203D01*
X151505960Y-112493720D01*
X151666280Y-112654040D01*
X151854797Y-112780003D01*
X152064266Y-112866768D01*
X152286636Y-112911000D01*
X152513364Y-112911000D01*
X152735734Y-112866768D01*
X152945203Y-112780003D01*
X153049002Y-112710647D01*
X153049002Y-113349353D01*
X152945203Y-113279997D01*
X152735734Y-113193232D01*
X152513364Y-113149000D01*
X152286636Y-113149000D01*
X152064266Y-113193232D01*
X151854797Y-113279997D01*
X151666280Y-113405960D01*
X151505960Y-113566280D01*
X151379997Y-113754797D01*
X151293232Y-113964266D01*
X151249000Y-114186636D01*
X151249000Y-114413364D01*
X151293232Y-114635734D01*
X151379997Y-114845203D01*
X151505960Y-115033720D01*
X151666280Y-115194040D01*
X151854797Y-115320003D01*
X152064266Y-115406768D01*
X152286636Y-115451000D01*
X152513364Y-115451000D01*
X152735734Y-115406768D01*
X152945203Y-115320003D01*
X153049002Y-115250647D01*
X153049002Y-115889353D01*
X152945203Y-115819997D01*
X152735734Y-115733232D01*
X152513364Y-115689000D01*
X152286636Y-115689000D01*
X152064266Y-115733232D01*
X151854797Y-115819997D01*
X151666280Y-115945960D01*
X151505960Y-116106280D01*
X151379997Y-116294797D01*
X151293232Y-116504266D01*
X151249000Y-116726636D01*
X151249000Y-116953364D01*
X151293232Y-117175734D01*
X151379997Y-117385203D01*
X151505960Y-117573720D01*
X151666280Y-117734040D01*
X151854797Y-117860003D01*
X152064266Y-117946768D01*
X152286636Y-117991000D01*
X152513364Y-117991000D01*
X152735734Y-117946768D01*
X152945203Y-117860003D01*
X153049002Y-117790647D01*
X153049002Y-118429353D01*
X152945203Y-118359997D01*
X152735734Y-118273232D01*
X152513364Y-118229000D01*
X152286636Y-118229000D01*
X152064266Y-118273232D01*
X151854797Y-118359997D01*
X151666280Y-118485960D01*
X151505960Y-118646280D01*
X151379997Y-118834797D01*
X151293232Y-119044266D01*
X151249000Y-119266636D01*
X151249000Y-119493364D01*
X151293232Y-119715734D01*
X151379997Y-119925203D01*
X151449353Y-120029001D01*
X148532417Y-120029001D01*
X148089634Y-119586219D01*
X148023672Y-119532086D01*
X147923261Y-119478415D01*
X147814307Y-119445364D01*
X147701000Y-119434204D01*
X147587693Y-119445364D01*
X147478739Y-119478415D01*
X147378328Y-119532086D01*
X147290316Y-119604316D01*
X147218086Y-119692328D01*
X147164415Y-119792739D01*
X147131364Y-119901693D01*
X147120204Y-120015000D01*
X147131364Y-120128307D01*
X147164415Y-120237261D01*
X147218086Y-120337672D01*
X147272219Y-120403634D01*
X147864221Y-120995637D01*
X147882316Y-121017686D01*
X147970328Y-121089915D01*
X148070740Y-121143587D01*
X148179693Y-121176637D01*
X148293001Y-121187797D01*
X148321389Y-121185001D01*
X151507239Y-121185001D01*
X151505960Y-121186280D01*
X151379997Y-121374797D01*
X151293232Y-121584266D01*
X151249000Y-121806636D01*
X151249000Y-122033364D01*
X151293232Y-122255734D01*
X151379997Y-122465203D01*
X151505960Y-122653720D01*
X151666280Y-122814040D01*
X151854797Y-122940003D01*
X152064266Y-123026768D01*
X152286636Y-123071000D01*
X152513364Y-123071000D01*
X152735734Y-123026768D01*
X152945203Y-122940003D01*
X153133720Y-122814040D01*
X153294040Y-122653720D01*
X153420003Y-122465203D01*
X153506768Y-122255734D01*
X153551000Y-122033364D01*
X153551000Y-121806636D01*
X153506768Y-121584266D01*
X153420003Y-121374797D01*
X153294040Y-121186280D01*
X153237370Y-121129610D01*
X153311634Y-121089915D01*
X153399646Y-121017686D01*
X153417745Y-120995632D01*
X154015637Y-120397741D01*
X154037686Y-120379646D01*
X154061766Y-120350305D01*
X154109915Y-120291634D01*
X154119319Y-120274040D01*
X154149610Y-120217370D01*
X154206280Y-120274040D01*
X154394797Y-120400003D01*
X154604266Y-120486768D01*
X154826636Y-120531000D01*
X155053364Y-120531000D01*
X155275734Y-120486768D01*
X155485203Y-120400003D01*
X155580001Y-120336661D01*
X155580001Y-120963339D01*
X155485203Y-120899997D01*
X155275734Y-120813232D01*
X155053364Y-120769000D01*
X154826636Y-120769000D01*
X154604266Y-120813232D01*
X154394797Y-120899997D01*
X154206280Y-121025960D01*
X154045960Y-121186280D01*
X153919997Y-121374797D01*
X153833232Y-121584266D01*
X153789000Y-121806636D01*
X153789000Y-122033364D01*
X153833232Y-122255734D01*
X153919997Y-122465203D01*
X154045960Y-122653720D01*
X154206280Y-122814040D01*
X154394797Y-122940003D01*
X154604266Y-123026768D01*
X154826636Y-123071000D01*
X155053364Y-123071000D01*
X155275734Y-123026768D01*
X155485203Y-122940003D01*
X155580001Y-122876661D01*
X155580001Y-123503339D01*
X155485203Y-123439997D01*
X155275734Y-123353232D01*
X155053364Y-123309000D01*
X154826636Y-123309000D01*
X154604266Y-123353232D01*
X154394797Y-123439997D01*
X154206280Y-123565960D01*
X154045960Y-123726280D01*
X153919997Y-123914797D01*
X153833232Y-124124266D01*
X153789000Y-124346636D01*
X153789000Y-124573364D01*
X153833232Y-124795734D01*
X153919997Y-125005203D01*
X154045960Y-125193720D01*
X154079240Y-125227000D01*
X153260760Y-125227000D01*
X153294040Y-125193720D01*
X153420003Y-125005203D01*
X153506768Y-124795734D01*
X153551000Y-124573364D01*
X153551000Y-124346636D01*
X153506768Y-124124266D01*
X153420003Y-123914797D01*
X153294040Y-123726280D01*
X153133720Y-123565960D01*
X152945203Y-123439997D01*
X152735734Y-123353232D01*
X152513364Y-123309000D01*
X152286636Y-123309000D01*
X152064266Y-123353232D01*
X151854797Y-123439997D01*
X151666280Y-123565960D01*
X151505960Y-123726280D01*
X151379997Y-123914797D01*
X151293232Y-124124266D01*
X151249000Y-124346636D01*
X151249000Y-124573364D01*
X151293232Y-124795734D01*
X151379997Y-125005203D01*
X151505960Y-125193720D01*
X151539240Y-125227000D01*
X140895860Y-125227000D01*
X140928041Y-125182882D01*
X141045472Y-124929413D01*
X141079505Y-124817200D01*
X140961332Y-124597000D01*
X139837000Y-124597000D01*
X139837000Y-124617000D01*
X139563000Y-124617000D01*
X139563000Y-124597000D01*
X138438668Y-124597000D01*
X138430000Y-124613152D01*
X138421332Y-124597000D01*
X137297000Y-124597000D01*
X137297000Y-124617000D01*
X137023000Y-124617000D01*
X137023000Y-124597000D01*
X137003000Y-124597000D01*
X137003000Y-124323000D01*
X137023000Y-124323000D01*
X137023000Y-124303000D01*
X137297000Y-124303000D01*
X137297000Y-124323000D01*
X138421332Y-124323000D01*
X138430000Y-124306848D01*
X138438668Y-124323000D01*
X139563000Y-124323000D01*
X139563000Y-124303000D01*
X139837000Y-124303000D01*
X139837000Y-124323000D01*
X140961332Y-124323000D01*
X141079505Y-124102800D01*
X141045472Y-123990587D01*
X140928041Y-123737118D01*
X140763417Y-123511429D01*
X140557927Y-123322193D01*
X140319467Y-123176682D01*
X140057201Y-123080489D01*
X139837002Y-123197844D01*
X139837002Y-123066298D01*
X140035734Y-123026768D01*
X140245203Y-122940003D01*
X140433720Y-122814040D01*
X140594040Y-122653720D01*
X140720003Y-122465203D01*
X140806768Y-122255734D01*
X140851000Y-122033364D01*
X140851000Y-121806636D01*
X140806768Y-121584266D01*
X140720003Y-121374797D01*
X140594040Y-121186280D01*
X140433720Y-121025960D01*
X140245203Y-120899997D01*
X140035734Y-120813232D01*
X139813364Y-120769000D01*
X139586636Y-120769000D01*
X139364266Y-120813232D01*
X139154797Y-120899997D01*
X138966280Y-121025960D01*
X138805960Y-121186280D01*
X138679997Y-121374797D01*
X138593232Y-121584266D01*
X138549000Y-121806636D01*
X138549000Y-122033364D01*
X138593232Y-122255734D01*
X138679997Y-122465203D01*
X138805960Y-122653720D01*
X138966280Y-122814040D01*
X139154797Y-122940003D01*
X139364266Y-123026768D01*
X139562998Y-123066298D01*
X139562998Y-123197844D01*
X139342799Y-123080489D01*
X139080533Y-123176682D01*
X138842073Y-123322193D01*
X138636583Y-123511429D01*
X138471959Y-123737118D01*
X138430000Y-123827684D01*
X138388041Y-123737118D01*
X138223417Y-123511429D01*
X138017927Y-123322193D01*
X137779467Y-123176682D01*
X137517201Y-123080489D01*
X137297002Y-123197844D01*
X137297002Y-123066298D01*
X137495734Y-123026768D01*
X137705203Y-122940003D01*
X137893720Y-122814040D01*
X138054040Y-122653720D01*
X138180003Y-122465203D01*
X138266768Y-122255734D01*
X138311000Y-122033364D01*
X138311000Y-121806636D01*
X138266768Y-121584266D01*
X138180003Y-121374797D01*
X138054040Y-121186280D01*
X137893720Y-121025960D01*
X137705203Y-120899997D01*
X137495734Y-120813232D01*
X137273364Y-120769000D01*
X137046636Y-120769000D01*
X136824266Y-120813232D01*
X136614797Y-120899997D01*
X136520000Y-120963338D01*
X136520000Y-120336662D01*
X136614797Y-120400003D01*
X136824266Y-120486768D01*
X137046636Y-120531000D01*
X137273364Y-120531000D01*
X137495734Y-120486768D01*
X137705203Y-120400003D01*
X137893720Y-120274040D01*
X138054040Y-120113720D01*
X138180003Y-119925203D01*
X138266768Y-119715734D01*
X138311000Y-119493364D01*
X138311000Y-119266636D01*
X138549000Y-119266636D01*
X138549000Y-119493364D01*
X138593232Y-119715734D01*
X138679997Y-119925203D01*
X138805960Y-120113720D01*
X138966280Y-120274040D01*
X139154797Y-120400003D01*
X139364266Y-120486768D01*
X139586636Y-120531000D01*
X139813364Y-120531000D01*
X140035734Y-120486768D01*
X140245203Y-120400003D01*
X140433720Y-120274040D01*
X140594040Y-120113720D01*
X140720003Y-119925203D01*
X140806768Y-119715734D01*
X140851000Y-119493364D01*
X140851000Y-119266636D01*
X140806768Y-119044266D01*
X140720003Y-118834797D01*
X140594040Y-118646280D01*
X140433720Y-118485960D01*
X140245203Y-118359997D01*
X140035734Y-118273232D01*
X139813364Y-118229000D01*
X139586636Y-118229000D01*
X139364266Y-118273232D01*
X139154797Y-118359997D01*
X138966280Y-118485960D01*
X138805960Y-118646280D01*
X138679997Y-118834797D01*
X138593232Y-119044266D01*
X138549000Y-119266636D01*
X138311000Y-119266636D01*
X138266768Y-119044266D01*
X138180003Y-118834797D01*
X138054040Y-118646280D01*
X137893720Y-118485960D01*
X137705203Y-118359997D01*
X137495734Y-118273232D01*
X137273364Y-118229000D01*
X137046636Y-118229000D01*
X136824266Y-118273232D01*
X136614797Y-118359997D01*
X136520000Y-118423338D01*
X136520000Y-117796662D01*
X136614797Y-117860003D01*
X136824266Y-117946768D01*
X137046636Y-117991000D01*
X137273364Y-117991000D01*
X137495734Y-117946768D01*
X137705203Y-117860003D01*
X137893720Y-117734040D01*
X138054040Y-117573720D01*
X138180003Y-117385203D01*
X138266768Y-117175734D01*
X138311000Y-116953364D01*
X138311000Y-116726636D01*
X138549000Y-116726636D01*
X138549000Y-116953364D01*
X138593232Y-117175734D01*
X138679997Y-117385203D01*
X138805960Y-117573720D01*
X138966280Y-117734040D01*
X139154797Y-117860003D01*
X139364266Y-117946768D01*
X139586636Y-117991000D01*
X139813364Y-117991000D01*
X140035734Y-117946768D01*
X140245203Y-117860003D01*
X140433720Y-117734040D01*
X140594040Y-117573720D01*
X140720003Y-117385203D01*
X140806768Y-117175734D01*
X140851000Y-116953364D01*
X140851000Y-116726636D01*
X140806768Y-116504266D01*
X140720003Y-116294797D01*
X140594040Y-116106280D01*
X140433720Y-115945960D01*
X140245203Y-115819997D01*
X140035734Y-115733232D01*
X139813364Y-115689000D01*
X139586636Y-115689000D01*
X139364266Y-115733232D01*
X139154797Y-115819997D01*
X138966280Y-115945960D01*
X138805960Y-116106280D01*
X138679997Y-116294797D01*
X138593232Y-116504266D01*
X138549000Y-116726636D01*
X138311000Y-116726636D01*
X138266768Y-116504266D01*
X138180003Y-116294797D01*
X138054040Y-116106280D01*
X137893720Y-115945960D01*
X137705203Y-115819997D01*
X137495734Y-115733232D01*
X137273364Y-115689000D01*
X137046636Y-115689000D01*
X136824266Y-115733232D01*
X136614797Y-115819997D01*
X136520000Y-115883338D01*
X136520000Y-115256662D01*
X136614797Y-115320003D01*
X136824266Y-115406768D01*
X137046636Y-115451000D01*
X137273364Y-115451000D01*
X137495734Y-115406768D01*
X137705203Y-115320003D01*
X137893720Y-115194040D01*
X138054040Y-115033720D01*
X138180003Y-114845203D01*
X138266768Y-114635734D01*
X138311000Y-114413364D01*
X138311000Y-114186636D01*
X138549000Y-114186636D01*
X138549000Y-114413364D01*
X138593232Y-114635734D01*
X138679997Y-114845203D01*
X138805960Y-115033720D01*
X138966280Y-115194040D01*
X139154797Y-115320003D01*
X139364266Y-115406768D01*
X139586636Y-115451000D01*
X139813364Y-115451000D01*
X140035734Y-115406768D01*
X140245203Y-115320003D01*
X140433720Y-115194040D01*
X140594040Y-115033720D01*
X140720003Y-114845203D01*
X140806768Y-114635734D01*
X140851000Y-114413364D01*
X140851000Y-114186636D01*
X140848288Y-114173000D01*
X143310204Y-114173000D01*
X143321364Y-114286308D01*
X143354414Y-114395261D01*
X143408086Y-114495673D01*
X143480315Y-114583685D01*
X143568327Y-114655914D01*
X143668739Y-114709586D01*
X143777692Y-114742636D01*
X143862612Y-114751000D01*
X150142388Y-114751000D01*
X150227308Y-114742636D01*
X150336261Y-114709586D01*
X150436673Y-114655914D01*
X150524685Y-114583685D01*
X150596914Y-114495673D01*
X150650586Y-114395261D01*
X150683636Y-114286308D01*
X150694796Y-114173000D01*
X150683636Y-114059692D01*
X150650586Y-113950739D01*
X150596914Y-113850327D01*
X150524685Y-113762315D01*
X150436673Y-113690086D01*
X150336261Y-113636414D01*
X150227308Y-113603364D01*
X150142388Y-113595000D01*
X143862612Y-113595000D01*
X143777692Y-113603364D01*
X143668739Y-113636414D01*
X143568327Y-113690086D01*
X143480315Y-113762315D01*
X143408086Y-113850327D01*
X143354414Y-113950739D01*
X143321364Y-114059692D01*
X143310204Y-114173000D01*
X140848288Y-114173000D01*
X140806768Y-113964266D01*
X140720003Y-113754797D01*
X140594040Y-113566280D01*
X140433720Y-113405960D01*
X140245203Y-113279997D01*
X140035734Y-113193232D01*
X139813364Y-113149000D01*
X139586636Y-113149000D01*
X139364266Y-113193232D01*
X139154797Y-113279997D01*
X138966280Y-113405960D01*
X138805960Y-113566280D01*
X138679997Y-113754797D01*
X138593232Y-113964266D01*
X138549000Y-114186636D01*
X138311000Y-114186636D01*
X138266768Y-113964266D01*
X138180003Y-113754797D01*
X138054040Y-113566280D01*
X137893720Y-113405960D01*
X137705203Y-113279997D01*
X137495734Y-113193232D01*
X137273364Y-113149000D01*
X137046636Y-113149000D01*
X136824266Y-113193232D01*
X136614797Y-113279997D01*
X136520000Y-113343338D01*
X136520000Y-112716662D01*
X136614797Y-112780003D01*
X136824266Y-112866768D01*
X137046636Y-112911000D01*
X137273364Y-112911000D01*
X137495734Y-112866768D01*
X137705203Y-112780003D01*
X137893720Y-112654040D01*
X138054040Y-112493720D01*
X138180003Y-112305203D01*
X138266768Y-112095734D01*
X138311000Y-111873364D01*
X138311000Y-111646636D01*
X138549000Y-111646636D01*
X138549000Y-111873364D01*
X138593232Y-112095734D01*
X138679997Y-112305203D01*
X138805960Y-112493720D01*
X138966280Y-112654040D01*
X139154797Y-112780003D01*
X139364266Y-112866768D01*
X139586636Y-112911000D01*
X139813364Y-112911000D01*
X140035734Y-112866768D01*
X140245203Y-112780003D01*
X140433720Y-112654040D01*
X140594040Y-112493720D01*
X140720003Y-112305203D01*
X140806768Y-112095734D01*
X140851000Y-111873364D01*
X140851000Y-111646636D01*
X140806768Y-111424266D01*
X140720003Y-111214797D01*
X140594040Y-111026280D01*
X140433720Y-110865960D01*
X140245203Y-110739997D01*
X140035734Y-110653232D01*
X139813364Y-110609000D01*
X139586636Y-110609000D01*
X139364266Y-110653232D01*
X139154797Y-110739997D01*
X138966280Y-110865960D01*
X138805960Y-111026280D01*
X138679997Y-111214797D01*
X138593232Y-111424266D01*
X138549000Y-111646636D01*
X138311000Y-111646636D01*
X138266768Y-111424266D01*
X138180003Y-111214797D01*
X138054040Y-111026280D01*
X137893720Y-110865960D01*
X137705203Y-110739997D01*
X137495734Y-110653232D01*
X137273364Y-110609000D01*
X137046636Y-110609000D01*
X136824266Y-110653232D01*
X136614797Y-110739997D01*
X136520000Y-110803338D01*
X136520000Y-110176662D01*
X136614797Y-110240003D01*
X136824266Y-110326768D01*
X137046636Y-110371000D01*
X137273364Y-110371000D01*
X137495734Y-110326768D01*
X137705203Y-110240003D01*
X137893720Y-110114040D01*
X138054040Y-109953720D01*
X138180003Y-109765203D01*
X138266768Y-109555734D01*
X138311000Y-109333364D01*
X138311000Y-109106636D01*
X138549000Y-109106636D01*
X138549000Y-109333364D01*
X138593232Y-109555734D01*
X138679997Y-109765203D01*
X138805960Y-109953720D01*
X138966280Y-110114040D01*
X139154797Y-110240003D01*
X139364266Y-110326768D01*
X139586636Y-110371000D01*
X139813364Y-110371000D01*
X140035734Y-110326768D01*
X140245203Y-110240003D01*
X140433720Y-110114040D01*
X140594040Y-109953720D01*
X140720003Y-109765203D01*
X140806768Y-109555734D01*
X140851000Y-109333364D01*
X140851000Y-109106636D01*
X140806768Y-108884266D01*
X140720003Y-108674797D01*
X140594040Y-108486280D01*
X140433720Y-108325960D01*
X140245203Y-108199997D01*
X140035734Y-108113232D01*
X139813364Y-108069000D01*
X139586636Y-108069000D01*
X139364266Y-108113232D01*
X139154797Y-108199997D01*
X138966280Y-108325960D01*
X138805960Y-108486280D01*
X138679997Y-108674797D01*
X138593232Y-108884266D01*
X138549000Y-109106636D01*
X138311000Y-109106636D01*
X138266768Y-108884266D01*
X138180003Y-108674797D01*
X138054040Y-108486280D01*
X137893720Y-108325960D01*
X137705203Y-108199997D01*
X137495734Y-108113232D01*
X137273364Y-108069000D01*
X137046636Y-108069000D01*
X136824266Y-108113232D01*
X136614797Y-108199997D01*
X136520000Y-108263338D01*
X136520000Y-107636662D01*
X136614797Y-107700003D01*
X136824266Y-107786768D01*
X137046636Y-107831000D01*
X137273364Y-107831000D01*
X137495734Y-107786768D01*
X137705203Y-107700003D01*
X137893720Y-107574040D01*
X138054040Y-107413720D01*
X138180003Y-107225203D01*
X138266768Y-107015734D01*
X138311000Y-106793364D01*
X138311000Y-106566636D01*
X138549000Y-106566636D01*
X138549000Y-106793364D01*
X138593232Y-107015734D01*
X138679997Y-107225203D01*
X138805960Y-107413720D01*
X138966280Y-107574040D01*
X139154797Y-107700003D01*
X139364266Y-107786768D01*
X139586636Y-107831000D01*
X139813364Y-107831000D01*
X140035734Y-107786768D01*
X140245203Y-107700003D01*
X140433720Y-107574040D01*
X140594040Y-107413720D01*
X140720003Y-107225203D01*
X140806768Y-107015734D01*
X140851000Y-106793364D01*
X140851000Y-106566636D01*
X140806768Y-106344266D01*
X140720003Y-106134797D01*
X140594040Y-105946280D01*
X140433720Y-105785960D01*
X140245203Y-105659997D01*
X140035734Y-105573232D01*
X139813364Y-105529000D01*
X139586636Y-105529000D01*
X139364266Y-105573232D01*
X139154797Y-105659997D01*
X138966280Y-105785960D01*
X138805960Y-105946280D01*
X138679997Y-106134797D01*
X138593232Y-106344266D01*
X138549000Y-106566636D01*
X138311000Y-106566636D01*
X138266768Y-106344266D01*
X138180003Y-106134797D01*
X138054040Y-105946280D01*
X137893720Y-105785960D01*
X137705203Y-105659997D01*
X137495734Y-105573232D01*
X137273364Y-105529000D01*
X137046636Y-105529000D01*
X136824266Y-105573232D01*
X136614797Y-105659997D01*
X136520000Y-105723338D01*
X136520000Y-105096662D01*
X136614797Y-105160003D01*
X136824266Y-105246768D01*
X137046636Y-105291000D01*
X137273364Y-105291000D01*
X137495734Y-105246768D01*
X137705203Y-105160003D01*
X137893720Y-105034040D01*
X138054040Y-104873720D01*
X138180003Y-104685203D01*
X138266768Y-104475734D01*
X138311000Y-104253364D01*
X138311000Y-104026636D01*
X138549000Y-104026636D01*
X138549000Y-104253364D01*
X138593232Y-104475734D01*
X138679997Y-104685203D01*
X138805960Y-104873720D01*
X138966280Y-105034040D01*
X139154797Y-105160003D01*
X139364266Y-105246768D01*
X139586636Y-105291000D01*
X139813364Y-105291000D01*
X140035734Y-105246768D01*
X140245203Y-105160003D01*
X140433720Y-105034040D01*
X140594040Y-104873720D01*
X140720003Y-104685203D01*
X140806768Y-104475734D01*
X140851000Y-104253364D01*
X140851000Y-104026636D01*
X140806768Y-103804266D01*
X140720003Y-103594797D01*
X140594040Y-103406280D01*
X140433720Y-103245960D01*
X140245203Y-103119997D01*
X140035734Y-103033232D01*
X139813364Y-102989000D01*
X139586636Y-102989000D01*
X139364266Y-103033232D01*
X139154797Y-103119997D01*
X138966280Y-103245960D01*
X138805960Y-103406280D01*
X138679997Y-103594797D01*
X138593232Y-103804266D01*
X138549000Y-104026636D01*
X138311000Y-104026636D01*
X138266768Y-103804266D01*
X138180003Y-103594797D01*
X138054040Y-103406280D01*
X137893720Y-103245960D01*
X137705203Y-103119997D01*
X137495734Y-103033232D01*
X137273364Y-102989000D01*
X137046636Y-102989000D01*
X136824266Y-103033232D01*
X136614797Y-103119997D01*
X136520000Y-103183338D01*
X136520000Y-102556662D01*
X136614797Y-102620003D01*
X136824266Y-102706768D01*
X137046636Y-102751000D01*
X137273364Y-102751000D01*
X137495734Y-102706768D01*
X137705203Y-102620003D01*
X137893720Y-102494040D01*
X138054040Y-102333720D01*
X138180003Y-102145203D01*
X138266768Y-101935734D01*
X138311000Y-101713364D01*
X138311000Y-101486636D01*
X138549000Y-101486636D01*
X138549000Y-101713364D01*
X138593232Y-101935734D01*
X138679997Y-102145203D01*
X138805960Y-102333720D01*
X138966280Y-102494040D01*
X139154797Y-102620003D01*
X139364266Y-102706768D01*
X139586636Y-102751000D01*
X139813364Y-102751000D01*
X140035734Y-102706768D01*
X140245203Y-102620003D01*
X140433720Y-102494040D01*
X140594040Y-102333720D01*
X140720003Y-102145203D01*
X140806768Y-101935734D01*
X140851000Y-101713364D01*
X140851000Y-101486636D01*
X140806768Y-101264266D01*
X140720003Y-101054797D01*
X140594040Y-100866280D01*
X140433720Y-100705960D01*
X140245203Y-100579997D01*
X140035734Y-100493232D01*
X139813364Y-100449000D01*
X139586636Y-100449000D01*
X139364266Y-100493232D01*
X139154797Y-100579997D01*
X138966280Y-100705960D01*
X138805960Y-100866280D01*
X138679997Y-101054797D01*
X138593232Y-101264266D01*
X138549000Y-101486636D01*
X138311000Y-101486636D01*
X138266768Y-101264266D01*
X138180003Y-101054797D01*
X138054040Y-100866280D01*
X137893720Y-100705960D01*
X137705203Y-100579997D01*
X137495734Y-100493232D01*
X137273364Y-100449000D01*
X137046636Y-100449000D01*
X136824266Y-100493232D01*
X136614797Y-100579997D01*
X136520000Y-100643338D01*
X136520000Y-100016662D01*
X136614797Y-100080003D01*
X136824266Y-100166768D01*
X137046636Y-100211000D01*
X137273364Y-100211000D01*
X137495734Y-100166768D01*
X137705203Y-100080003D01*
X137893720Y-99954040D01*
X138054040Y-99793720D01*
X138180003Y-99605203D01*
X138266768Y-99395734D01*
X138311000Y-99173364D01*
X138311000Y-98946636D01*
X138549000Y-98946636D01*
X138549000Y-99173364D01*
X138593232Y-99395734D01*
X138679997Y-99605203D01*
X138805960Y-99793720D01*
X138966280Y-99954040D01*
X139154797Y-100080003D01*
X139364266Y-100166768D01*
X139586636Y-100211000D01*
X139813364Y-100211000D01*
X140035734Y-100166768D01*
X140245203Y-100080003D01*
X140433720Y-99954040D01*
X140594040Y-99793720D01*
X140720003Y-99605203D01*
X140806768Y-99395734D01*
X140851000Y-99173364D01*
X140851000Y-98946636D01*
X140806768Y-98724266D01*
X140720003Y-98514797D01*
X140594040Y-98326280D01*
X140433720Y-98165960D01*
X140245203Y-98039997D01*
X140035734Y-97953232D01*
X139813364Y-97909000D01*
X139586636Y-97909000D01*
X139364266Y-97953232D01*
X139154797Y-98039997D01*
X138966280Y-98165960D01*
X138805960Y-98326280D01*
X138679997Y-98514797D01*
X138593232Y-98724266D01*
X138549000Y-98946636D01*
X138311000Y-98946636D01*
X138266768Y-98724266D01*
X138180003Y-98514797D01*
X138054040Y-98326280D01*
X137893720Y-98165960D01*
X137705203Y-98039997D01*
X137495734Y-97953232D01*
X137273364Y-97909000D01*
X137046636Y-97909000D01*
X136824266Y-97953232D01*
X136614797Y-98039997D01*
X136520000Y-98103338D01*
X136520000Y-97796513D01*
X143945204Y-97796513D01*
X143948000Y-97824901D01*
X143948000Y-98072387D01*
X143956364Y-98157307D01*
X143989414Y-98266260D01*
X144043086Y-98366672D01*
X144115315Y-98454685D01*
X144203327Y-98526914D01*
X144303739Y-98580586D01*
X144412692Y-98613636D01*
X144526000Y-98624796D01*
X144639307Y-98613636D01*
X144748260Y-98580586D01*
X144848672Y-98526914D01*
X144936685Y-98454685D01*
X145008914Y-98366673D01*
X145062586Y-98266261D01*
X145095636Y-98157308D01*
X145104000Y-98072388D01*
X145104000Y-98035927D01*
X145168627Y-97971300D01*
X145190685Y-97953198D01*
X145262914Y-97865186D01*
X145316586Y-97764774D01*
X145349636Y-97655821D01*
X145358000Y-97570901D01*
X145358000Y-97570899D01*
X145360796Y-97542514D01*
X145358000Y-97514129D01*
X145358000Y-94586612D01*
X145349636Y-94501692D01*
X145316586Y-94392739D01*
X145262914Y-94292327D01*
X145190685Y-94204315D01*
X145102673Y-94132086D01*
X145002261Y-94078414D01*
X144893308Y-94045364D01*
X144780000Y-94034204D01*
X144666693Y-94045364D01*
X144557740Y-94078414D01*
X144457328Y-94132086D01*
X144369316Y-94204315D01*
X144297087Y-94292327D01*
X144243415Y-94392739D01*
X144210365Y-94501692D01*
X144202001Y-94586612D01*
X144202000Y-97303098D01*
X144137366Y-97367732D01*
X144115316Y-97385828D01*
X144043087Y-97473840D01*
X143989414Y-97574252D01*
X143956364Y-97683205D01*
X143956364Y-97683206D01*
X143945204Y-97796513D01*
X136520000Y-97796513D01*
X136520000Y-97476662D01*
X136614797Y-97540003D01*
X136824266Y-97626768D01*
X137046636Y-97671000D01*
X137273364Y-97671000D01*
X137495734Y-97626768D01*
X137705203Y-97540003D01*
X137893720Y-97414040D01*
X138054040Y-97253720D01*
X138180003Y-97065203D01*
X138266768Y-96855734D01*
X138311000Y-96633364D01*
X138311000Y-96406636D01*
X138549000Y-96406636D01*
X138549000Y-96633364D01*
X138593232Y-96855734D01*
X138679997Y-97065203D01*
X138805960Y-97253720D01*
X138966280Y-97414040D01*
X139154797Y-97540003D01*
X139364266Y-97626768D01*
X139586636Y-97671000D01*
X139813364Y-97671000D01*
X140035734Y-97626768D01*
X140245203Y-97540003D01*
X140433720Y-97414040D01*
X140594040Y-97253720D01*
X140720003Y-97065203D01*
X140806768Y-96855734D01*
X140851000Y-96633364D01*
X140851000Y-96406636D01*
X140806768Y-96184266D01*
X140720003Y-95974797D01*
X140594040Y-95786280D01*
X140433720Y-95625960D01*
X140245203Y-95499997D01*
X140035734Y-95413232D01*
X139813364Y-95369000D01*
X139586636Y-95369000D01*
X139364266Y-95413232D01*
X139154797Y-95499997D01*
X138966280Y-95625960D01*
X138805960Y-95786280D01*
X138679997Y-95974797D01*
X138593232Y-96184266D01*
X138549000Y-96406636D01*
X138311000Y-96406636D01*
X138266768Y-96184266D01*
X138180003Y-95974797D01*
X138054040Y-95786280D01*
X137893720Y-95625960D01*
X137705203Y-95499997D01*
X137495734Y-95413232D01*
X137273364Y-95369000D01*
X137046636Y-95369000D01*
X136824266Y-95413232D01*
X136614797Y-95499997D01*
X136520000Y-95563338D01*
X136520000Y-94936662D01*
X136614797Y-95000003D01*
X136824266Y-95086768D01*
X137046636Y-95131000D01*
X137273364Y-95131000D01*
X137495734Y-95086768D01*
X137705203Y-95000003D01*
X137893720Y-94874040D01*
X138054040Y-94713720D01*
X138180003Y-94525203D01*
X138266768Y-94315734D01*
X138311000Y-94093364D01*
X138311000Y-93866636D01*
X138549000Y-93866636D01*
X138549000Y-94093364D01*
X138593232Y-94315734D01*
X138679997Y-94525203D01*
X138805960Y-94713720D01*
X138966280Y-94874040D01*
X139154797Y-95000003D01*
X139364266Y-95086768D01*
X139586636Y-95131000D01*
X139813364Y-95131000D01*
X140035734Y-95086768D01*
X140245203Y-95000003D01*
X140433720Y-94874040D01*
X140594040Y-94713720D01*
X140720003Y-94525203D01*
X140806768Y-94315734D01*
X140851000Y-94093364D01*
X140851000Y-93866636D01*
X140806768Y-93644266D01*
X140720003Y-93434797D01*
X140594040Y-93246280D01*
X140433720Y-93085960D01*
X140245203Y-92959997D01*
X140035734Y-92873232D01*
X139813364Y-92829000D01*
X139586636Y-92829000D01*
X139364266Y-92873232D01*
X139154797Y-92959997D01*
X138966280Y-93085960D01*
X138805960Y-93246280D01*
X138679997Y-93434797D01*
X138593232Y-93644266D01*
X138549000Y-93866636D01*
X138311000Y-93866636D01*
X138266768Y-93644266D01*
X138180003Y-93434797D01*
X138054040Y-93246280D01*
X137893720Y-93085960D01*
X137705203Y-92959997D01*
X137495734Y-92873232D01*
X137273364Y-92829000D01*
X137046636Y-92829000D01*
X136824266Y-92873232D01*
X136614797Y-92959997D01*
X136520000Y-93023338D01*
X136520000Y-92592698D01*
X137960000Y-92592698D01*
X138028808Y-92585921D01*
X138094972Y-92565850D01*
X138155949Y-92533258D01*
X138209395Y-92489395D01*
X138253258Y-92435949D01*
X138285850Y-92374972D01*
X138305921Y-92308808D01*
X138312698Y-92240000D01*
X138312698Y-91326636D01*
X138549000Y-91326636D01*
X138549000Y-91553364D01*
X138593232Y-91775734D01*
X138679997Y-91985203D01*
X138805960Y-92173720D01*
X138966280Y-92334040D01*
X139154797Y-92460003D01*
X139364266Y-92546768D01*
X139586636Y-92591000D01*
X139813364Y-92591000D01*
X140035734Y-92546768D01*
X140245203Y-92460003D01*
X140433720Y-92334040D01*
X140594040Y-92173720D01*
X140698089Y-92018000D01*
X143538388Y-92018000D01*
X143623308Y-92009636D01*
X143732261Y-91976586D01*
X143832673Y-91922914D01*
X143920685Y-91850685D01*
X143992914Y-91762673D01*
X144046586Y-91662261D01*
X144079636Y-91553308D01*
X144090796Y-91440000D01*
X144079636Y-91326692D01*
X144046586Y-91217739D01*
X143992914Y-91117327D01*
X143920685Y-91029315D01*
X143832673Y-90957086D01*
X143732261Y-90903414D01*
X143623308Y-90870364D01*
X143538388Y-90862000D01*
X140698089Y-90862000D01*
X140594040Y-90706280D01*
X140433720Y-90545960D01*
X140245203Y-90419997D01*
X140035734Y-90333232D01*
X139813364Y-90289000D01*
X139586636Y-90289000D01*
X139364266Y-90333232D01*
X139154797Y-90419997D01*
X138966280Y-90545960D01*
X138805960Y-90706280D01*
X138679997Y-90894797D01*
X138593232Y-91104266D01*
X138549000Y-91326636D01*
X138312698Y-91326636D01*
X138312698Y-90640000D01*
X138305921Y-90571192D01*
X138285850Y-90505028D01*
X138253258Y-90444051D01*
X138209395Y-90390605D01*
X138155949Y-90346742D01*
X138094972Y-90314150D01*
X138028808Y-90294079D01*
X137960000Y-90287302D01*
X136520000Y-90287302D01*
X136520000Y-88786636D01*
X138549000Y-88786636D01*
X138549000Y-89013364D01*
X138593232Y-89235734D01*
X138679997Y-89445203D01*
X138805960Y-89633720D01*
X138966280Y-89794040D01*
X139154797Y-89920003D01*
X139364266Y-90006768D01*
X139586636Y-90051000D01*
X139813364Y-90051000D01*
X140035734Y-90006768D01*
X140245203Y-89920003D01*
X140433720Y-89794040D01*
X140594040Y-89633720D01*
X140698089Y-89478000D01*
X145472001Y-89478000D01*
X145472000Y-99963584D01*
X144899365Y-100536220D01*
X144877316Y-100554315D01*
X144859221Y-100576364D01*
X144859219Y-100576366D01*
X144805086Y-100642328D01*
X144751415Y-100742739D01*
X144718364Y-100851693D01*
X144707204Y-100965000D01*
X144710001Y-100993398D01*
X144710000Y-102898387D01*
X144718364Y-102983307D01*
X144751414Y-103092260D01*
X144805086Y-103192672D01*
X144877315Y-103280685D01*
X144965327Y-103352914D01*
X145065739Y-103406586D01*
X145174692Y-103439636D01*
X145288000Y-103450796D01*
X145401307Y-103439636D01*
X145510260Y-103406586D01*
X145610672Y-103352914D01*
X145698685Y-103280685D01*
X145770914Y-103192673D01*
X145824586Y-103092261D01*
X145857636Y-102983308D01*
X145866000Y-102898388D01*
X145866000Y-101204415D01*
X146438637Y-100631779D01*
X146460685Y-100613685D01*
X146532914Y-100525673D01*
X146584901Y-100428414D01*
X146586586Y-100425262D01*
X146619636Y-100316308D01*
X146630796Y-100203000D01*
X146628000Y-100174612D01*
X146628000Y-93881387D01*
X148901000Y-93881387D01*
X148909364Y-93966307D01*
X148942414Y-94075260D01*
X148996086Y-94175672D01*
X149068315Y-94263685D01*
X149156327Y-94335914D01*
X149256739Y-94389586D01*
X149365692Y-94422636D01*
X149479000Y-94433796D01*
X149592307Y-94422636D01*
X149701260Y-94389586D01*
X149801672Y-94335914D01*
X149889685Y-94263685D01*
X149961914Y-94175673D01*
X150015586Y-94075261D01*
X150048636Y-93966308D01*
X150057000Y-93881388D01*
X150057000Y-90141612D01*
X150048636Y-90056692D01*
X150015586Y-89947739D01*
X149961914Y-89847327D01*
X149889685Y-89759315D01*
X149801673Y-89687086D01*
X149701261Y-89633414D01*
X149592308Y-89600364D01*
X149479000Y-89589204D01*
X149365693Y-89600364D01*
X149256740Y-89633414D01*
X149156328Y-89687086D01*
X149068316Y-89759315D01*
X148996087Y-89847327D01*
X148942415Y-89947739D01*
X148909365Y-90056692D01*
X148901001Y-90141612D01*
X148901000Y-93881387D01*
X146628000Y-93881387D01*
X146628000Y-88928388D01*
X146630796Y-88900000D01*
X146619636Y-88786692D01*
X146586586Y-88677739D01*
X146532914Y-88577327D01*
X146460685Y-88489315D01*
X146372673Y-88417086D01*
X146272261Y-88363414D01*
X146163308Y-88330364D01*
X146078388Y-88322000D01*
X146050000Y-88319204D01*
X146021612Y-88322000D01*
X140698089Y-88322000D01*
X140594040Y-88166280D01*
X140433720Y-88005960D01*
X140245203Y-87879997D01*
X140035734Y-87793232D01*
X139813364Y-87749000D01*
X139586636Y-87749000D01*
X139364266Y-87793232D01*
X139154797Y-87879997D01*
X138966280Y-88005960D01*
X138805960Y-88166280D01*
X138679997Y-88354797D01*
X138593232Y-88564266D01*
X138549000Y-88786636D01*
X136520000Y-88786636D01*
X136520000Y-85560000D01*
X138547302Y-85560000D01*
X138547302Y-87160000D01*
X138554079Y-87228808D01*
X138574150Y-87294972D01*
X138606742Y-87355949D01*
X138650605Y-87409395D01*
X138704051Y-87453258D01*
X138765028Y-87485850D01*
X138831192Y-87505921D01*
X138900000Y-87512698D01*
X140500000Y-87512698D01*
X140568808Y-87505921D01*
X140634972Y-87485850D01*
X140695949Y-87453258D01*
X140749395Y-87409395D01*
X140793258Y-87355949D01*
X140825850Y-87294972D01*
X140845921Y-87228808D01*
X140852698Y-87160000D01*
X140852698Y-86938000D01*
X148491388Y-86938000D01*
X148576308Y-86929636D01*
X148685261Y-86896586D01*
X148785673Y-86842914D01*
X148873685Y-86770685D01*
X148945914Y-86682673D01*
X148999586Y-86582261D01*
X149032636Y-86473308D01*
X149043796Y-86360000D01*
X149032636Y-86246692D01*
X148999586Y-86137739D01*
X148945914Y-86037327D01*
X148873685Y-85949315D01*
X148785673Y-85877086D01*
X148685261Y-85823414D01*
X148576308Y-85790364D01*
X148491388Y-85782000D01*
X140852698Y-85782000D01*
X140852698Y-85560000D01*
X140845921Y-85491192D01*
X140825850Y-85425028D01*
X140793258Y-85364051D01*
X140749395Y-85310605D01*
X140695949Y-85266742D01*
X140634972Y-85234150D01*
X140568808Y-85214079D01*
X140500000Y-85207302D01*
X138900000Y-85207302D01*
X138831192Y-85214079D01*
X138765028Y-85234150D01*
X138704051Y-85266742D01*
X138650605Y-85310605D01*
X138606742Y-85364051D01*
X138574150Y-85425028D01*
X138554079Y-85491192D01*
X138547302Y-85560000D01*
X136520000Y-85560000D01*
X136520000Y-83400000D01*
X136951976Y-83400000D01*
X136964043Y-83522521D01*
X136999781Y-83640334D01*
X137057817Y-83748911D01*
X137135920Y-83844080D01*
X137231089Y-83922183D01*
X137339666Y-83980219D01*
X137457479Y-84015957D01*
X137580000Y-84028024D01*
X138136750Y-84025000D01*
X138293000Y-83868750D01*
X138293000Y-82687000D01*
X137111250Y-82687000D01*
X136955000Y-82843250D01*
X136951976Y-83400000D01*
X136520000Y-83400000D01*
X136520000Y-81783000D01*
X136952427Y-81783000D01*
X136955000Y-82256750D01*
G36*
X154206280Y-117734040D02*
G01*
X154394797Y-117860003D01*
X154604266Y-117946768D01*
X154826636Y-117991000D01*
X155053364Y-117991000D01*
X155275734Y-117946768D01*
X155485203Y-117860003D01*
X155580001Y-117796661D01*
X155580001Y-118423339D01*
X155485203Y-118359997D01*
X155275734Y-118273232D01*
X155053364Y-118229000D01*
X154826636Y-118229000D01*
X154604266Y-118273232D01*
X154394797Y-118359997D01*
X154206280Y-118485960D01*
X154205001Y-118487239D01*
X154205001Y-117732761D01*
X154206280Y-117734040D01*
G37*
X154206280Y-117734040D02*
X154394797Y-117860003D01*
X154604266Y-117946768D01*
X154826636Y-117991000D01*
X155053364Y-117991000D01*
X155275734Y-117946768D01*
X155485203Y-117860003D01*
X155580001Y-117796661D01*
X155580001Y-118423339D01*
X155485203Y-118359997D01*
X155275734Y-118273232D01*
X155053364Y-118229000D01*
X154826636Y-118229000D01*
X154604266Y-118273232D01*
X154394797Y-118359997D01*
X154206280Y-118485960D01*
X154205001Y-118487239D01*
X154205001Y-117732761D01*
X154206280Y-117734040D01*
G36*
X154206280Y-115194040D02*
G01*
X154394797Y-115320003D01*
X154604266Y-115406768D01*
X154826636Y-115451000D01*
X155053364Y-115451000D01*
X155275734Y-115406768D01*
X155485203Y-115320003D01*
X155580001Y-115256661D01*
X155580001Y-115883339D01*
X155485203Y-115819997D01*
X155275734Y-115733232D01*
X155053364Y-115689000D01*
X154826636Y-115689000D01*
X154604266Y-115733232D01*
X154394797Y-115819997D01*
X154206280Y-115945960D01*
X154205001Y-115947239D01*
X154205001Y-115192761D01*
X154206280Y-115194040D01*
G37*
X154206280Y-115194040D02*
X154394797Y-115320003D01*
X154604266Y-115406768D01*
X154826636Y-115451000D01*
X155053364Y-115451000D01*
X155275734Y-115406768D01*
X155485203Y-115320003D01*
X155580001Y-115256661D01*
X155580001Y-115883339D01*
X155485203Y-115819997D01*
X155275734Y-115733232D01*
X155053364Y-115689000D01*
X154826636Y-115689000D01*
X154604266Y-115733232D01*
X154394797Y-115819997D01*
X154206280Y-115945960D01*
X154205001Y-115947239D01*
X154205001Y-115192761D01*
X154206280Y-115194040D01*
G36*
X154206280Y-112654040D02*
G01*
X154394797Y-112780003D01*
X154604266Y-112866768D01*
X154826636Y-112911000D01*
X155053364Y-112911000D01*
X155275734Y-112866768D01*
X155485203Y-112780003D01*
X155580001Y-112716661D01*
X155580001Y-113343339D01*
X155485203Y-113279997D01*
X155275734Y-113193232D01*
X155053364Y-113149000D01*
X154826636Y-113149000D01*
X154604266Y-113193232D01*
X154394797Y-113279997D01*
X154206280Y-113405960D01*
X154205001Y-113407239D01*
X154205001Y-112652761D01*
X154206280Y-112654040D01*
G37*
X154206280Y-112654040D02*
X154394797Y-112780003D01*
X154604266Y-112866768D01*
X154826636Y-112911000D01*
X155053364Y-112911000D01*
X155275734Y-112866768D01*
X155485203Y-112780003D01*
X155580001Y-112716661D01*
X155580001Y-113343339D01*
X155485203Y-113279997D01*
X155275734Y-113193232D01*
X155053364Y-113149000D01*
X154826636Y-113149000D01*
X154604266Y-113193232D01*
X154394797Y-113279997D01*
X154206280Y-113405960D01*
X154205001Y-113407239D01*
X154205001Y-112652761D01*
X154206280Y-112654040D01*
G36*
X154206280Y-110114040D02*
G01*
X154394797Y-110240003D01*
X154604266Y-110326768D01*
X154826636Y-110371000D01*
X155053364Y-110371000D01*
X155275734Y-110326768D01*
X155485203Y-110240003D01*
X155580001Y-110176661D01*
X155580001Y-110803339D01*
X155485203Y-110739997D01*
X155275734Y-110653232D01*
X155053364Y-110609000D01*
X154826636Y-110609000D01*
X154604266Y-110653232D01*
X154394797Y-110739997D01*
X154206280Y-110865960D01*
X154205001Y-110867239D01*
X154205001Y-110112761D01*
X154206280Y-110114040D01*
G37*
X154206280Y-110114040D02*
X154394797Y-110240003D01*
X154604266Y-110326768D01*
X154826636Y-110371000D01*
X155053364Y-110371000D01*
X155275734Y-110326768D01*
X155485203Y-110240003D01*
X155580001Y-110176661D01*
X155580001Y-110803339D01*
X155485203Y-110739997D01*
X155275734Y-110653232D01*
X155053364Y-110609000D01*
X154826636Y-110609000D01*
X154604266Y-110653232D01*
X154394797Y-110739997D01*
X154206280Y-110865960D01*
X154205001Y-110867239D01*
X154205001Y-110112761D01*
X154206280Y-110114040D01*
G36*
X154206280Y-107574040D02*
G01*
X154394797Y-107700003D01*
X154604266Y-107786768D01*
X154826636Y-107831000D01*
X155053364Y-107831000D01*
X155275734Y-107786768D01*
X155485203Y-107700003D01*
X155580001Y-107636661D01*
X155580001Y-108263339D01*
X155485203Y-108199997D01*
X155275734Y-108113232D01*
X155053364Y-108069000D01*
X154826636Y-108069000D01*
X154604266Y-108113232D01*
X154394797Y-108199997D01*
X154206280Y-108325960D01*
X154205001Y-108327239D01*
X154205001Y-107572761D01*
X154206280Y-107574040D01*
G37*
X154206280Y-107574040D02*
X154394797Y-107700003D01*
X154604266Y-107786768D01*
X154826636Y-107831000D01*
X155053364Y-107831000D01*
X155275734Y-107786768D01*
X155485203Y-107700003D01*
X155580001Y-107636661D01*
X155580001Y-108263339D01*
X155485203Y-108199997D01*
X155275734Y-108113232D01*
X155053364Y-108069000D01*
X154826636Y-108069000D01*
X154604266Y-108113232D01*
X154394797Y-108199997D01*
X154206280Y-108325960D01*
X154205001Y-108327239D01*
X154205001Y-107572761D01*
X154206280Y-107574040D01*
G36*
X154206280Y-105034040D02*
G01*
X154394797Y-105160003D01*
X154604266Y-105246768D01*
X154826636Y-105291000D01*
X155053364Y-105291000D01*
X155275734Y-105246768D01*
X155485203Y-105160003D01*
X155580001Y-105096661D01*
X155580001Y-105723339D01*
X155485203Y-105659997D01*
X155275734Y-105573232D01*
X155053364Y-105529000D01*
X154826636Y-105529000D01*
X154604266Y-105573232D01*
X154394797Y-105659997D01*
X154206280Y-105785960D01*
X154205001Y-105787239D01*
X154205001Y-105032761D01*
X154206280Y-105034040D01*
G37*
X154206280Y-105034040D02*
X154394797Y-105160003D01*
X154604266Y-105246768D01*
X154826636Y-105291000D01*
X155053364Y-105291000D01*
X155275734Y-105246768D01*
X155485203Y-105160003D01*
X155580001Y-105096661D01*
X155580001Y-105723339D01*
X155485203Y-105659997D01*
X155275734Y-105573232D01*
X155053364Y-105529000D01*
X154826636Y-105529000D01*
X154604266Y-105573232D01*
X154394797Y-105659997D01*
X154206280Y-105785960D01*
X154205001Y-105787239D01*
X154205001Y-105032761D01*
X154206280Y-105034040D01*
G36*
X151666280Y-102494040D02*
G01*
X151854797Y-102620003D01*
X152064266Y-102706768D01*
X152286636Y-102751000D01*
X152513364Y-102751000D01*
X152735734Y-102706768D01*
X152945203Y-102620003D01*
X153049001Y-102550647D01*
X153049001Y-103189353D01*
X152945203Y-103119997D01*
X152735734Y-103033232D01*
X152513364Y-102989000D01*
X152286636Y-102989000D01*
X152064266Y-103033232D01*
X151854797Y-103119997D01*
X151666280Y-103245960D01*
X151575335Y-103336905D01*
X151581000Y-103279388D01*
X151581000Y-102408760D01*
X151666280Y-102494040D01*
G37*
X151666280Y-102494040D02*
X151854797Y-102620003D01*
X152064266Y-102706768D01*
X152286636Y-102751000D01*
X152513364Y-102751000D01*
X152735734Y-102706768D01*
X152945203Y-102620003D01*
X153049001Y-102550647D01*
X153049001Y-103189353D01*
X152945203Y-103119997D01*
X152735734Y-103033232D01*
X152513364Y-102989000D01*
X152286636Y-102989000D01*
X152064266Y-103033232D01*
X151854797Y-103119997D01*
X151666280Y-103245960D01*
X151575335Y-103336905D01*
X151581000Y-103279388D01*
X151581000Y-102408760D01*
X151666280Y-102494040D01*
G36*
X154206280Y-102494040D02*
G01*
X154394797Y-102620003D01*
X154604266Y-102706768D01*
X154826636Y-102751000D01*
X155053364Y-102751000D01*
X155275734Y-102706768D01*
X155485203Y-102620003D01*
X155580000Y-102556661D01*
X155580000Y-103183339D01*
X155485203Y-103119997D01*
X155275734Y-103033232D01*
X155053364Y-102989000D01*
X154826636Y-102989000D01*
X154604266Y-103033232D01*
X154394797Y-103119997D01*
X154206280Y-103245960D01*
X154205001Y-103247239D01*
X154205001Y-102492761D01*
X154206280Y-102494040D01*
G37*
X154206280Y-102494040D02*
X154394797Y-102620003D01*
X154604266Y-102706768D01*
X154826636Y-102751000D01*
X155053364Y-102751000D01*
X155275734Y-102706768D01*
X155485203Y-102620003D01*
X155580000Y-102556661D01*
X155580000Y-103183339D01*
X155485203Y-103119997D01*
X155275734Y-103033232D01*
X155053364Y-102989000D01*
X154826636Y-102989000D01*
X154604266Y-103033232D01*
X154394797Y-103119997D01*
X154206280Y-103245960D01*
X154205001Y-103247239D01*
X154205001Y-102492761D01*
X154206280Y-102494040D01*
G36*
X151666280Y-99954040D02*
G01*
X151854797Y-100080003D01*
X152064266Y-100166768D01*
X152286636Y-100211000D01*
X152513364Y-100211000D01*
X152735734Y-100166768D01*
X152945203Y-100080003D01*
X153049001Y-100010647D01*
X153049001Y-100649353D01*
X152945203Y-100579997D01*
X152735734Y-100493232D01*
X152513364Y-100449000D01*
X152286636Y-100449000D01*
X152064266Y-100493232D01*
X151854797Y-100579997D01*
X151666280Y-100705960D01*
X151581000Y-100791240D01*
X151581000Y-99868760D01*
X151666280Y-99954040D01*
G37*
X151666280Y-99954040D02*
X151854797Y-100080003D01*
X152064266Y-100166768D01*
X152286636Y-100211000D01*
X152513364Y-100211000D01*
X152735734Y-100166768D01*
X152945203Y-100080003D01*
X153049001Y-100010647D01*
X153049001Y-100649353D01*
X152945203Y-100579997D01*
X152735734Y-100493232D01*
X152513364Y-100449000D01*
X152286636Y-100449000D01*
X152064266Y-100493232D01*
X151854797Y-100579997D01*
X151666280Y-100705960D01*
X151581000Y-100791240D01*
X151581000Y-99868760D01*
X151666280Y-99954040D01*
G36*
X154206280Y-99954040D02*
G01*
X154394797Y-100080003D01*
X154604266Y-100166768D01*
X154826636Y-100211000D01*
X155053364Y-100211000D01*
X155275734Y-100166768D01*
X155485203Y-100080003D01*
X155580000Y-100016661D01*
X155580000Y-100643339D01*
X155485203Y-100579997D01*
X155275734Y-100493232D01*
X155053364Y-100449000D01*
X154826636Y-100449000D01*
X154604266Y-100493232D01*
X154394797Y-100579997D01*
X154206280Y-100705960D01*
X154205001Y-100707239D01*
X154205001Y-99952761D01*
X154206280Y-99954040D01*
G37*
X154206280Y-99954040D02*
X154394797Y-100080003D01*
X154604266Y-100166768D01*
X154826636Y-100211000D01*
X155053364Y-100211000D01*
X155275734Y-100166768D01*
X155485203Y-100080003D01*
X155580000Y-100016661D01*
X155580000Y-100643339D01*
X155485203Y-100579997D01*
X155275734Y-100493232D01*
X155053364Y-100449000D01*
X154826636Y-100449000D01*
X154604266Y-100493232D01*
X154394797Y-100579997D01*
X154206280Y-100705960D01*
X154205001Y-100707239D01*
X154205001Y-99952761D01*
X154206280Y-99954040D01*
G36*
X151666280Y-97414040D02*
G01*
X151854797Y-97540003D01*
X152064266Y-97626768D01*
X152286636Y-97671000D01*
X152513364Y-97671000D01*
X152735734Y-97626768D01*
X152945203Y-97540003D01*
X153049001Y-97470647D01*
X153049001Y-98109353D01*
X152945203Y-98039997D01*
X152735734Y-97953232D01*
X152513364Y-97909000D01*
X152286636Y-97909000D01*
X152064266Y-97953232D01*
X151854797Y-98039997D01*
X151666280Y-98165960D01*
X151581000Y-98251240D01*
X151581000Y-97328760D01*
X151666280Y-97414040D01*
G37*
X151666280Y-97414040D02*
X151854797Y-97540003D01*
X152064266Y-97626768D01*
X152286636Y-97671000D01*
X152513364Y-97671000D01*
X152735734Y-97626768D01*
X152945203Y-97540003D01*
X153049001Y-97470647D01*
X153049001Y-98109353D01*
X152945203Y-98039997D01*
X152735734Y-97953232D01*
X152513364Y-97909000D01*
X152286636Y-97909000D01*
X152064266Y-97953232D01*
X151854797Y-98039997D01*
X151666280Y-98165960D01*
X151581000Y-98251240D01*
X151581000Y-97328760D01*
X151666280Y-97414040D01*
G36*
X154206280Y-97414040D02*
G01*
X154394797Y-97540003D01*
X154604266Y-97626768D01*
X154826636Y-97671000D01*
X155053364Y-97671000D01*
X155275734Y-97626768D01*
X155485203Y-97540003D01*
X155580000Y-97476661D01*
X155580000Y-98103339D01*
X155485203Y-98039997D01*
X155275734Y-97953232D01*
X155053364Y-97909000D01*
X154826636Y-97909000D01*
X154604266Y-97953232D01*
X154394797Y-98039997D01*
X154206280Y-98165960D01*
X154205001Y-98167239D01*
X154205001Y-97412761D01*
X154206280Y-97414040D01*
G37*
X154206280Y-97414040D02*
X154394797Y-97540003D01*
X154604266Y-97626768D01*
X154826636Y-97671000D01*
X155053364Y-97671000D01*
X155275734Y-97626768D01*
X155485203Y-97540003D01*
X155580000Y-97476661D01*
X155580000Y-98103339D01*
X155485203Y-98039997D01*
X155275734Y-97953232D01*
X155053364Y-97909000D01*
X154826636Y-97909000D01*
X154604266Y-97953232D01*
X154394797Y-98039997D01*
X154206280Y-98165960D01*
X154205001Y-98167239D01*
X154205001Y-97412761D01*
X154206280Y-97414040D01*
G36*
X152737122Y-81784407D02*
G01*
X152605688Y-81981113D01*
X152515154Y-82199681D01*
X152469000Y-82431712D01*
X152469000Y-82668288D01*
X152515154Y-82900319D01*
X152605688Y-83118887D01*
X152737122Y-83315593D01*
X152904407Y-83482878D01*
X153101113Y-83614312D01*
X153319681Y-83704846D01*
X153551712Y-83751000D01*
X153788288Y-83751000D01*
X154020319Y-83704846D01*
X154238887Y-83614312D01*
X154435593Y-83482878D01*
X154602878Y-83315593D01*
X154734312Y-83118887D01*
X154824846Y-82900319D01*
X154871000Y-82668288D01*
X154871000Y-82431712D01*
X154824846Y-82199681D01*
X154734312Y-81981113D01*
X154602878Y-81784407D01*
X154601471Y-81783000D01*
X155580000Y-81783000D01*
X155580000Y-85403338D01*
X155485203Y-85339997D01*
X155275734Y-85253232D01*
X155053364Y-85209000D01*
X154826636Y-85209000D01*
X154604266Y-85253232D01*
X154394797Y-85339997D01*
X154206280Y-85465960D01*
X154045960Y-85626280D01*
X153919997Y-85814797D01*
X153833232Y-86024266D01*
X153789000Y-86246636D01*
X153789000Y-86473364D01*
X153833232Y-86695734D01*
X153919997Y-86905203D01*
X154045960Y-87093720D01*
X154206280Y-87254040D01*
X154394797Y-87380003D01*
X154604266Y-87466768D01*
X154826636Y-87511000D01*
X155053364Y-87511000D01*
X155275734Y-87466768D01*
X155485203Y-87380003D01*
X155580000Y-87316662D01*
X155580000Y-87943338D01*
X155485203Y-87879997D01*
X155275734Y-87793232D01*
X155053364Y-87749000D01*
X154826636Y-87749000D01*
X154642953Y-87785537D01*
X151708000Y-84850585D01*
X151708000Y-83608223D01*
X151895593Y-83482878D01*
X152062878Y-83315593D01*
X152194312Y-83118887D01*
X152284846Y-82900319D01*
X152331000Y-82668288D01*
X152331000Y-82431712D01*
X152284846Y-82199681D01*
X152194312Y-81981113D01*
X152062878Y-81784407D01*
X152061471Y-81783000D01*
X152738529Y-81783000D01*
X152737122Y-81784407D01*
G37*
X152737122Y-81784407D02*
X152605688Y-81981113D01*
X152515154Y-82199681D01*
X152469000Y-82431712D01*
X152469000Y-82668288D01*
X152515154Y-82900319D01*
X152605688Y-83118887D01*
X152737122Y-83315593D01*
X152904407Y-83482878D01*
X153101113Y-83614312D01*
X153319681Y-83704846D01*
X153551712Y-83751000D01*
X153788288Y-83751000D01*
X154020319Y-83704846D01*
X154238887Y-83614312D01*
X154435593Y-83482878D01*
X154602878Y-83315593D01*
X154734312Y-83118887D01*
X154824846Y-82900319D01*
X154871000Y-82668288D01*
X154871000Y-82431712D01*
X154824846Y-82199681D01*
X154734312Y-81981113D01*
X154602878Y-81784407D01*
X154601471Y-81783000D01*
X155580000Y-81783000D01*
X155580000Y-85403338D01*
X155485203Y-85339997D01*
X155275734Y-85253232D01*
X155053364Y-85209000D01*
X154826636Y-85209000D01*
X154604266Y-85253232D01*
X154394797Y-85339997D01*
X154206280Y-85465960D01*
X154045960Y-85626280D01*
X153919997Y-85814797D01*
X153833232Y-86024266D01*
X153789000Y-86246636D01*
X153789000Y-86473364D01*
X153833232Y-86695734D01*
X153919997Y-86905203D01*
X154045960Y-87093720D01*
X154206280Y-87254040D01*
X154394797Y-87380003D01*
X154604266Y-87466768D01*
X154826636Y-87511000D01*
X155053364Y-87511000D01*
X155275734Y-87466768D01*
X155485203Y-87380003D01*
X155580000Y-87316662D01*
X155580000Y-87943338D01*
X155485203Y-87879997D01*
X155275734Y-87793232D01*
X155053364Y-87749000D01*
X154826636Y-87749000D01*
X154642953Y-87785537D01*
X151708000Y-84850585D01*
X151708000Y-83608223D01*
X151895593Y-83482878D01*
X152062878Y-83315593D01*
X152194312Y-83118887D01*
X152284846Y-82900319D01*
X152331000Y-82668288D01*
X152331000Y-82431712D01*
X152284846Y-82199681D01*
X152194312Y-81981113D01*
X152062878Y-81784407D01*
X152061471Y-81783000D01*
X152738529Y-81783000D01*
X152737122Y-81784407D01*
M02*
