G04 #@! TF.GenerationSoftware,KiCad,Pcbnew,(5.1.5)-3*
G04 #@! TF.CreationDate,2020-05-12T21:47:34-04:00*
G04 #@! TF.ProjectId,27xxx_to_27c080,32377878-785f-4746-9f5f-323763303830,rev?*
G04 #@! TF.SameCoordinates,Original*
G04 #@! TF.FileFunction,Legend,Bot*
G04 #@! TF.FilePolarity,Positive*
%FSLAX46Y46*%
G04 Gerber Fmt 4.6, Leading zero omitted, Abs format (unit mm)*
G04 Created by KiCad (PCBNEW (5.1.5)-3) date 2020-05-12 21:47:34*
%MOMM*%
%LPD*%
G04 APERTURE LIST*
%ADD10C,0.120000*%
%ADD11C,0.150000*%
G04 APERTURE END LIST*
D10*
X144161000Y-119445000D02*
G75*
G03X144861000Y-120145000I700000J0D01*
G01*
X145461000Y-120145000D02*
G75*
G03X146161000Y-119445000I0J700000D01*
G01*
X146161000Y-118045000D02*
G75*
G03X145461000Y-117345000I-700000J0D01*
G01*
X144861000Y-117345000D02*
G75*
G03X144161000Y-118045000I0J-700000D01*
G01*
X145461000Y-117345000D02*
X144861000Y-117345000D01*
X146161000Y-119445000D02*
X146161000Y-118045000D01*
X144861000Y-120145000D02*
X145461000Y-120145000D01*
X144161000Y-118045000D02*
X144161000Y-119445000D01*
X144161000Y-122236000D02*
X144161000Y-123636000D01*
X144861000Y-124336000D02*
X145461000Y-124336000D01*
X146161000Y-123636000D02*
X146161000Y-122236000D01*
X145461000Y-121536000D02*
X144861000Y-121536000D01*
X144861000Y-121536000D02*
G75*
G03X144161000Y-122236000I0J-700000D01*
G01*
X146161000Y-122236000D02*
G75*
G03X145461000Y-121536000I-700000J0D01*
G01*
X145461000Y-124336000D02*
G75*
G03X146161000Y-123636000I0J700000D01*
G01*
X144161000Y-123636000D02*
G75*
G03X144861000Y-124336000I700000J0D01*
G01*
X148284000Y-119006252D02*
X148284000Y-118483748D01*
X146864000Y-119006252D02*
X146864000Y-118483748D01*
X146864000Y-123197252D02*
X146864000Y-122674748D01*
X148284000Y-123197252D02*
X148284000Y-122674748D01*
X144279252Y-102541000D02*
X143756748Y-102541000D01*
X144279252Y-103961000D02*
X143756748Y-103961000D01*
X148470252Y-103961000D02*
X147947748Y-103961000D01*
X148470252Y-102541000D02*
X147947748Y-102541000D01*
X144279252Y-93524000D02*
X143756748Y-93524000D01*
X144279252Y-94944000D02*
X143756748Y-94944000D01*
X148470252Y-94944000D02*
X147947748Y-94944000D01*
X148470252Y-93524000D02*
X147947748Y-93524000D01*
X149050000Y-113724000D02*
X142115000Y-113724000D01*
X142115000Y-113724000D02*
X142115000Y-110304000D01*
X142115000Y-110304000D02*
X149050000Y-110304000D01*
X144318000Y-104884000D02*
X143718000Y-104884000D01*
X145018000Y-108334000D02*
X145018000Y-105534000D01*
X143718000Y-108984000D02*
X144318000Y-108984000D01*
X143018000Y-105534000D02*
X143018000Y-108334000D01*
X143018000Y-108284000D02*
G75*
G03X143718000Y-108984000I700000J0D01*
G01*
X144318000Y-108984000D02*
G75*
G03X145018000Y-108284000I0J700000D01*
G01*
X145018000Y-105584000D02*
G75*
G03X144318000Y-104884000I-700000J0D01*
G01*
X143718000Y-104884000D02*
G75*
G03X143018000Y-105584000I0J-700000D01*
G01*
X147909000Y-104884000D02*
G75*
G03X147209000Y-105584000I0J-700000D01*
G01*
X149209000Y-105584000D02*
G75*
G03X148509000Y-104884000I-700000J0D01*
G01*
X148509000Y-108984000D02*
G75*
G03X149209000Y-108284000I0J700000D01*
G01*
X147209000Y-108284000D02*
G75*
G03X147909000Y-108984000I700000J0D01*
G01*
X147209000Y-105534000D02*
X147209000Y-108334000D01*
X147909000Y-108984000D02*
X148509000Y-108984000D01*
X149209000Y-108334000D02*
X149209000Y-105534000D01*
X148509000Y-104884000D02*
X147909000Y-104884000D01*
X144318000Y-95994000D02*
X143718000Y-95994000D01*
X145018000Y-99444000D02*
X145018000Y-96644000D01*
X143718000Y-100094000D02*
X144318000Y-100094000D01*
X143018000Y-96644000D02*
X143018000Y-99444000D01*
X143018000Y-99394000D02*
G75*
G03X143718000Y-100094000I700000J0D01*
G01*
X144318000Y-100094000D02*
G75*
G03X145018000Y-99394000I0J700000D01*
G01*
X145018000Y-96694000D02*
G75*
G03X144318000Y-95994000I-700000J0D01*
G01*
X143718000Y-95994000D02*
G75*
G03X143018000Y-96694000I0J-700000D01*
G01*
X147909000Y-95994000D02*
G75*
G03X147209000Y-96694000I0J-700000D01*
G01*
X149209000Y-96694000D02*
G75*
G03X148509000Y-95994000I-700000J0D01*
G01*
X148509000Y-100094000D02*
G75*
G03X149209000Y-99394000I0J700000D01*
G01*
X147209000Y-99394000D02*
G75*
G03X147909000Y-100094000I700000J0D01*
G01*
X147209000Y-96644000D02*
X147209000Y-99444000D01*
X147909000Y-100094000D02*
X148509000Y-100094000D01*
X149209000Y-99444000D02*
X149209000Y-96644000D01*
X148509000Y-95994000D02*
X147909000Y-95994000D01*
D11*
X142813380Y-117911666D02*
X143527666Y-117911666D01*
X143670523Y-117864047D01*
X143765761Y-117768809D01*
X143813380Y-117625952D01*
X143813380Y-117530714D01*
X143813380Y-118387857D02*
X142813380Y-118387857D01*
X142813380Y-118768809D01*
X142861000Y-118864047D01*
X142908619Y-118911666D01*
X143003857Y-118959285D01*
X143146714Y-118959285D01*
X143241952Y-118911666D01*
X143289571Y-118864047D01*
X143337190Y-118768809D01*
X143337190Y-118387857D01*
X143813380Y-119911666D02*
X143813380Y-119340238D01*
X143813380Y-119625952D02*
X142813380Y-119625952D01*
X142956238Y-119530714D01*
X143051476Y-119435476D01*
X143099095Y-119340238D01*
X142813380Y-122102666D02*
X143527666Y-122102666D01*
X143670523Y-122055047D01*
X143765761Y-121959809D01*
X143813380Y-121816952D01*
X143813380Y-121721714D01*
X143813380Y-122578857D02*
X142813380Y-122578857D01*
X142813380Y-122959809D01*
X142861000Y-123055047D01*
X142908619Y-123102666D01*
X143003857Y-123150285D01*
X143146714Y-123150285D01*
X143241952Y-123102666D01*
X143289571Y-123055047D01*
X143337190Y-122959809D01*
X143337190Y-122578857D01*
X142908619Y-123531238D02*
X142861000Y-123578857D01*
X142813380Y-123674095D01*
X142813380Y-123912190D01*
X142861000Y-124007428D01*
X142908619Y-124055047D01*
X143003857Y-124102666D01*
X143099095Y-124102666D01*
X143241952Y-124055047D01*
X143813380Y-123483619D01*
X143813380Y-124102666D01*
X149676380Y-118102142D02*
X149200190Y-117768809D01*
X149676380Y-117530714D02*
X148676380Y-117530714D01*
X148676380Y-117911666D01*
X148724000Y-118006904D01*
X148771619Y-118054523D01*
X148866857Y-118102142D01*
X149009714Y-118102142D01*
X149104952Y-118054523D01*
X149152571Y-118006904D01*
X149200190Y-117911666D01*
X149200190Y-117530714D01*
X149676380Y-119054523D02*
X149676380Y-118483095D01*
X149676380Y-118768809D02*
X148676380Y-118768809D01*
X148819238Y-118673571D01*
X148914476Y-118578333D01*
X148962095Y-118483095D01*
X149009714Y-119911666D02*
X149676380Y-119911666D01*
X148628761Y-119673571D02*
X149343047Y-119435476D01*
X149343047Y-120054523D01*
X149676380Y-122293142D02*
X149200190Y-121959809D01*
X149676380Y-121721714D02*
X148676380Y-121721714D01*
X148676380Y-122102666D01*
X148724000Y-122197904D01*
X148771619Y-122245523D01*
X148866857Y-122293142D01*
X149009714Y-122293142D01*
X149104952Y-122245523D01*
X149152571Y-122197904D01*
X149200190Y-122102666D01*
X149200190Y-121721714D01*
X149676380Y-123245523D02*
X149676380Y-122674095D01*
X149676380Y-122959809D02*
X148676380Y-122959809D01*
X148819238Y-122864571D01*
X148914476Y-122769333D01*
X148962095Y-122674095D01*
X148676380Y-124150285D02*
X148676380Y-123674095D01*
X149152571Y-123626476D01*
X149104952Y-123674095D01*
X149057333Y-123769333D01*
X149057333Y-124007428D01*
X149104952Y-124102666D01*
X149152571Y-124150285D01*
X149247809Y-124197904D01*
X149485904Y-124197904D01*
X149581142Y-124150285D01*
X149628761Y-124102666D01*
X149676380Y-124007428D01*
X149676380Y-123769333D01*
X149628761Y-123674095D01*
X149581142Y-123626476D01*
X144660857Y-102053380D02*
X144994190Y-101577190D01*
X145232285Y-102053380D02*
X145232285Y-101053380D01*
X144851333Y-101053380D01*
X144756095Y-101101000D01*
X144708476Y-101148619D01*
X144660857Y-101243857D01*
X144660857Y-101386714D01*
X144708476Y-101481952D01*
X144756095Y-101529571D01*
X144851333Y-101577190D01*
X145232285Y-101577190D01*
X143708476Y-102053380D02*
X144279904Y-102053380D01*
X143994190Y-102053380D02*
X143994190Y-101053380D01*
X144089428Y-101196238D01*
X144184666Y-101291476D01*
X144279904Y-101339095D01*
X142851333Y-101053380D02*
X143041809Y-101053380D01*
X143137047Y-101101000D01*
X143184666Y-101148619D01*
X143279904Y-101291476D01*
X143327523Y-101481952D01*
X143327523Y-101862904D01*
X143279904Y-101958142D01*
X143232285Y-102005761D01*
X143137047Y-102053380D01*
X142946571Y-102053380D01*
X142851333Y-102005761D01*
X142803714Y-101958142D01*
X142756095Y-101862904D01*
X142756095Y-101624809D01*
X142803714Y-101529571D01*
X142851333Y-101481952D01*
X142946571Y-101434333D01*
X143137047Y-101434333D01*
X143232285Y-101481952D01*
X143279904Y-101529571D01*
X143327523Y-101624809D01*
X148851857Y-102053380D02*
X149185190Y-101577190D01*
X149423285Y-102053380D02*
X149423285Y-101053380D01*
X149042333Y-101053380D01*
X148947095Y-101101000D01*
X148899476Y-101148619D01*
X148851857Y-101243857D01*
X148851857Y-101386714D01*
X148899476Y-101481952D01*
X148947095Y-101529571D01*
X149042333Y-101577190D01*
X149423285Y-101577190D01*
X147899476Y-102053380D02*
X148470904Y-102053380D01*
X148185190Y-102053380D02*
X148185190Y-101053380D01*
X148280428Y-101196238D01*
X148375666Y-101291476D01*
X148470904Y-101339095D01*
X147566142Y-101053380D02*
X146899476Y-101053380D01*
X147328047Y-102053380D01*
X144660857Y-93036380D02*
X144994190Y-92560190D01*
X145232285Y-93036380D02*
X145232285Y-92036380D01*
X144851333Y-92036380D01*
X144756095Y-92084000D01*
X144708476Y-92131619D01*
X144660857Y-92226857D01*
X144660857Y-92369714D01*
X144708476Y-92464952D01*
X144756095Y-92512571D01*
X144851333Y-92560190D01*
X145232285Y-92560190D01*
X143708476Y-93036380D02*
X144279904Y-93036380D01*
X143994190Y-93036380D02*
X143994190Y-92036380D01*
X144089428Y-92179238D01*
X144184666Y-92274476D01*
X144279904Y-92322095D01*
X143137047Y-92464952D02*
X143232285Y-92417333D01*
X143279904Y-92369714D01*
X143327523Y-92274476D01*
X143327523Y-92226857D01*
X143279904Y-92131619D01*
X143232285Y-92084000D01*
X143137047Y-92036380D01*
X142946571Y-92036380D01*
X142851333Y-92084000D01*
X142803714Y-92131619D01*
X142756095Y-92226857D01*
X142756095Y-92274476D01*
X142803714Y-92369714D01*
X142851333Y-92417333D01*
X142946571Y-92464952D01*
X143137047Y-92464952D01*
X143232285Y-92512571D01*
X143279904Y-92560190D01*
X143327523Y-92655428D01*
X143327523Y-92845904D01*
X143279904Y-92941142D01*
X143232285Y-92988761D01*
X143137047Y-93036380D01*
X142946571Y-93036380D01*
X142851333Y-92988761D01*
X142803714Y-92941142D01*
X142756095Y-92845904D01*
X142756095Y-92655428D01*
X142803714Y-92560190D01*
X142851333Y-92512571D01*
X142946571Y-92464952D01*
X148851857Y-93036380D02*
X149185190Y-92560190D01*
X149423285Y-93036380D02*
X149423285Y-92036380D01*
X149042333Y-92036380D01*
X148947095Y-92084000D01*
X148899476Y-92131619D01*
X148851857Y-92226857D01*
X148851857Y-92369714D01*
X148899476Y-92464952D01*
X148947095Y-92512571D01*
X149042333Y-92560190D01*
X149423285Y-92560190D01*
X147899476Y-93036380D02*
X148470904Y-93036380D01*
X148185190Y-93036380D02*
X148185190Y-92036380D01*
X148280428Y-92179238D01*
X148375666Y-92274476D01*
X148470904Y-92322095D01*
X147423285Y-93036380D02*
X147232809Y-93036380D01*
X147137571Y-92988761D01*
X147089952Y-92941142D01*
X146994714Y-92798285D01*
X146947095Y-92607809D01*
X146947095Y-92226857D01*
X146994714Y-92131619D01*
X147042333Y-92084000D01*
X147137571Y-92036380D01*
X147328047Y-92036380D01*
X147423285Y-92084000D01*
X147470904Y-92131619D01*
X147518523Y-92226857D01*
X147518523Y-92464952D01*
X147470904Y-92560190D01*
X147423285Y-92607809D01*
X147328047Y-92655428D01*
X147137571Y-92655428D01*
X147042333Y-92607809D01*
X146994714Y-92560190D01*
X146947095Y-92464952D01*
X146216666Y-114921142D02*
X146264285Y-114968761D01*
X146407142Y-115016380D01*
X146502380Y-115016380D01*
X146645238Y-114968761D01*
X146740476Y-114873523D01*
X146788095Y-114778285D01*
X146835714Y-114587809D01*
X146835714Y-114444952D01*
X146788095Y-114254476D01*
X146740476Y-114159238D01*
X146645238Y-114064000D01*
X146502380Y-114016380D01*
X146407142Y-114016380D01*
X146264285Y-114064000D01*
X146216666Y-114111619D01*
X145264285Y-115016380D02*
X145835714Y-115016380D01*
X145550000Y-115016380D02*
X145550000Y-114016380D01*
X145645238Y-114159238D01*
X145740476Y-114254476D01*
X145835714Y-114302095D01*
X141670380Y-106100666D02*
X142384666Y-106100666D01*
X142527523Y-106053047D01*
X142622761Y-105957809D01*
X142670380Y-105814952D01*
X142670380Y-105719714D01*
X142670380Y-106576857D02*
X141670380Y-106576857D01*
X141670380Y-106957809D01*
X141718000Y-107053047D01*
X141765619Y-107100666D01*
X141860857Y-107148285D01*
X142003714Y-107148285D01*
X142098952Y-107100666D01*
X142146571Y-107053047D01*
X142194190Y-106957809D01*
X142194190Y-106576857D01*
X141670380Y-107481619D02*
X141670380Y-108100666D01*
X142051333Y-107767333D01*
X142051333Y-107910190D01*
X142098952Y-108005428D01*
X142146571Y-108053047D01*
X142241809Y-108100666D01*
X142479904Y-108100666D01*
X142575142Y-108053047D01*
X142622761Y-108005428D01*
X142670380Y-107910190D01*
X142670380Y-107624476D01*
X142622761Y-107529238D01*
X142575142Y-107481619D01*
X143470380Y-109486380D02*
X143470380Y-109581619D01*
X143518000Y-109676857D01*
X143565619Y-109724476D01*
X143660857Y-109772095D01*
X143851333Y-109819714D01*
X144089428Y-109819714D01*
X144279904Y-109772095D01*
X144375142Y-109724476D01*
X144422761Y-109676857D01*
X144470380Y-109581619D01*
X144470380Y-109486380D01*
X144422761Y-109391142D01*
X144375142Y-109343523D01*
X144279904Y-109295904D01*
X144089428Y-109248285D01*
X143851333Y-109248285D01*
X143660857Y-109295904D01*
X143565619Y-109343523D01*
X143518000Y-109391142D01*
X143470380Y-109486380D01*
X143470380Y-104572095D02*
X143470380Y-104095904D01*
X143946571Y-104048285D01*
X143898952Y-104095904D01*
X143851333Y-104191142D01*
X143851333Y-104429238D01*
X143898952Y-104524476D01*
X143946571Y-104572095D01*
X144041809Y-104619714D01*
X144279904Y-104619714D01*
X144375142Y-104572095D01*
X144422761Y-104524476D01*
X144470380Y-104429238D01*
X144470380Y-104191142D01*
X144422761Y-104095904D01*
X144375142Y-104048285D01*
X145861380Y-106100666D02*
X146575666Y-106100666D01*
X146718523Y-106053047D01*
X146813761Y-105957809D01*
X146861380Y-105814952D01*
X146861380Y-105719714D01*
X146861380Y-106576857D02*
X145861380Y-106576857D01*
X145861380Y-106957809D01*
X145909000Y-107053047D01*
X145956619Y-107100666D01*
X146051857Y-107148285D01*
X146194714Y-107148285D01*
X146289952Y-107100666D01*
X146337571Y-107053047D01*
X146385190Y-106957809D01*
X146385190Y-106576857D01*
X146194714Y-108005428D02*
X146861380Y-108005428D01*
X145813761Y-107767333D02*
X146528047Y-107529238D01*
X146528047Y-108148285D01*
X147661380Y-104572095D02*
X147661380Y-104095904D01*
X148137571Y-104048285D01*
X148089952Y-104095904D01*
X148042333Y-104191142D01*
X148042333Y-104429238D01*
X148089952Y-104524476D01*
X148137571Y-104572095D01*
X148232809Y-104619714D01*
X148470904Y-104619714D01*
X148566142Y-104572095D01*
X148613761Y-104524476D01*
X148661380Y-104429238D01*
X148661380Y-104191142D01*
X148613761Y-104095904D01*
X148566142Y-104048285D01*
X147661380Y-109486380D02*
X147661380Y-109581619D01*
X147709000Y-109676857D01*
X147756619Y-109724476D01*
X147851857Y-109772095D01*
X148042333Y-109819714D01*
X148280428Y-109819714D01*
X148470904Y-109772095D01*
X148566142Y-109724476D01*
X148613761Y-109676857D01*
X148661380Y-109581619D01*
X148661380Y-109486380D01*
X148613761Y-109391142D01*
X148566142Y-109343523D01*
X148470904Y-109295904D01*
X148280428Y-109248285D01*
X148042333Y-109248285D01*
X147851857Y-109295904D01*
X147756619Y-109343523D01*
X147709000Y-109391142D01*
X147661380Y-109486380D01*
X141670380Y-97210666D02*
X142384666Y-97210666D01*
X142527523Y-97163047D01*
X142622761Y-97067809D01*
X142670380Y-96924952D01*
X142670380Y-96829714D01*
X142670380Y-97686857D02*
X141670380Y-97686857D01*
X141670380Y-98067809D01*
X141718000Y-98163047D01*
X141765619Y-98210666D01*
X141860857Y-98258285D01*
X142003714Y-98258285D01*
X142098952Y-98210666D01*
X142146571Y-98163047D01*
X142194190Y-98067809D01*
X142194190Y-97686857D01*
X141670380Y-99163047D02*
X141670380Y-98686857D01*
X142146571Y-98639238D01*
X142098952Y-98686857D01*
X142051333Y-98782095D01*
X142051333Y-99020190D01*
X142098952Y-99115428D01*
X142146571Y-99163047D01*
X142241809Y-99210666D01*
X142479904Y-99210666D01*
X142575142Y-99163047D01*
X142622761Y-99115428D01*
X142670380Y-99020190D01*
X142670380Y-98782095D01*
X142622761Y-98686857D01*
X142575142Y-98639238D01*
X143470380Y-100596380D02*
X143470380Y-100691619D01*
X143518000Y-100786857D01*
X143565619Y-100834476D01*
X143660857Y-100882095D01*
X143851333Y-100929714D01*
X144089428Y-100929714D01*
X144279904Y-100882095D01*
X144375142Y-100834476D01*
X144422761Y-100786857D01*
X144470380Y-100691619D01*
X144470380Y-100596380D01*
X144422761Y-100501142D01*
X144375142Y-100453523D01*
X144279904Y-100405904D01*
X144089428Y-100358285D01*
X143851333Y-100358285D01*
X143660857Y-100405904D01*
X143565619Y-100453523D01*
X143518000Y-100501142D01*
X143470380Y-100596380D01*
X143470380Y-95682095D02*
X143470380Y-95205904D01*
X143946571Y-95158285D01*
X143898952Y-95205904D01*
X143851333Y-95301142D01*
X143851333Y-95539238D01*
X143898952Y-95634476D01*
X143946571Y-95682095D01*
X144041809Y-95729714D01*
X144279904Y-95729714D01*
X144375142Y-95682095D01*
X144422761Y-95634476D01*
X144470380Y-95539238D01*
X144470380Y-95301142D01*
X144422761Y-95205904D01*
X144375142Y-95158285D01*
X145861380Y-97210666D02*
X146575666Y-97210666D01*
X146718523Y-97163047D01*
X146813761Y-97067809D01*
X146861380Y-96924952D01*
X146861380Y-96829714D01*
X146861380Y-97686857D02*
X145861380Y-97686857D01*
X145861380Y-98067809D01*
X145909000Y-98163047D01*
X145956619Y-98210666D01*
X146051857Y-98258285D01*
X146194714Y-98258285D01*
X146289952Y-98210666D01*
X146337571Y-98163047D01*
X146385190Y-98067809D01*
X146385190Y-97686857D01*
X145861380Y-99115428D02*
X145861380Y-98924952D01*
X145909000Y-98829714D01*
X145956619Y-98782095D01*
X146099476Y-98686857D01*
X146289952Y-98639238D01*
X146670904Y-98639238D01*
X146766142Y-98686857D01*
X146813761Y-98734476D01*
X146861380Y-98829714D01*
X146861380Y-99020190D01*
X146813761Y-99115428D01*
X146766142Y-99163047D01*
X146670904Y-99210666D01*
X146432809Y-99210666D01*
X146337571Y-99163047D01*
X146289952Y-99115428D01*
X146242333Y-99020190D01*
X146242333Y-98829714D01*
X146289952Y-98734476D01*
X146337571Y-98686857D01*
X146432809Y-98639238D01*
X147661380Y-95682095D02*
X147661380Y-95205904D01*
X148137571Y-95158285D01*
X148089952Y-95205904D01*
X148042333Y-95301142D01*
X148042333Y-95539238D01*
X148089952Y-95634476D01*
X148137571Y-95682095D01*
X148232809Y-95729714D01*
X148470904Y-95729714D01*
X148566142Y-95682095D01*
X148613761Y-95634476D01*
X148661380Y-95539238D01*
X148661380Y-95301142D01*
X148613761Y-95205904D01*
X148566142Y-95158285D01*
X147661380Y-100596380D02*
X147661380Y-100691619D01*
X147709000Y-100786857D01*
X147756619Y-100834476D01*
X147851857Y-100882095D01*
X148042333Y-100929714D01*
X148280428Y-100929714D01*
X148470904Y-100882095D01*
X148566142Y-100834476D01*
X148613761Y-100786857D01*
X148661380Y-100691619D01*
X148661380Y-100596380D01*
X148613761Y-100501142D01*
X148566142Y-100453523D01*
X148470904Y-100405904D01*
X148280428Y-100358285D01*
X148042333Y-100358285D01*
X147851857Y-100405904D01*
X147756619Y-100453523D01*
X147709000Y-100501142D01*
X147661380Y-100596380D01*
M02*
