G04 #@! TF.GenerationSoftware,KiCad,Pcbnew,(5.1.5)-3*
G04 #@! TF.CreationDate,2020-05-12T21:47:34-04:00*
G04 #@! TF.ProjectId,27xxx_to_27c080,32377878-785f-4746-9f5f-323763303830,rev?*
G04 #@! TF.SameCoordinates,Original*
G04 #@! TF.FileFunction,Legend,Top*
G04 #@! TF.FilePolarity,Positive*
%FSLAX46Y46*%
G04 Gerber Fmt 4.6, Leading zero omitted, Abs format (unit mm)*
G04 Created by KiCad (PCBNEW (5.1.5)-3) date 2020-05-12 21:47:34*
%MOMM*%
%LPD*%
G04 APERTURE LIST*
%ADD10C,0.450000*%
%ADD11C,0.120000*%
%ADD12C,0.150000*%
G04 APERTURE END LIST*
D10*
X148730561Y-91997047D02*
X148825800Y-92092285D01*
X148921038Y-92282761D01*
X148921038Y-92758952D01*
X148825800Y-92949428D01*
X148730561Y-93044666D01*
X148540085Y-93139904D01*
X148349609Y-93139904D01*
X148063895Y-93044666D01*
X146921038Y-91901809D01*
X146921038Y-93139904D01*
X148921038Y-93806571D02*
X148921038Y-95139904D01*
X146921038Y-94282761D01*
X146921038Y-96949428D02*
X146921038Y-95806571D01*
X146921038Y-96378000D02*
X148921038Y-96378000D01*
X148635323Y-96187523D01*
X148444847Y-95997047D01*
X148349609Y-95806571D01*
X148730561Y-97711333D02*
X148825800Y-97806571D01*
X148921038Y-97997047D01*
X148921038Y-98473238D01*
X148825800Y-98663714D01*
X148730561Y-98758952D01*
X148540085Y-98854190D01*
X148349609Y-98854190D01*
X148063895Y-98758952D01*
X146921038Y-97616095D01*
X146921038Y-98854190D01*
X148063895Y-99997047D02*
X148159133Y-99806571D01*
X148254371Y-99711333D01*
X148444847Y-99616095D01*
X148540085Y-99616095D01*
X148730561Y-99711333D01*
X148825800Y-99806571D01*
X148921038Y-99997047D01*
X148921038Y-100378000D01*
X148825800Y-100568476D01*
X148730561Y-100663714D01*
X148540085Y-100758952D01*
X148444847Y-100758952D01*
X148254371Y-100663714D01*
X148159133Y-100568476D01*
X148063895Y-100378000D01*
X148063895Y-99997047D01*
X147968657Y-99806571D01*
X147873419Y-99711333D01*
X147682942Y-99616095D01*
X147301990Y-99616095D01*
X147111514Y-99711333D01*
X147016276Y-99806571D01*
X146921038Y-99997047D01*
X146921038Y-100378000D01*
X147016276Y-100568476D01*
X147111514Y-100663714D01*
X147301990Y-100758952D01*
X147682942Y-100758952D01*
X147873419Y-100663714D01*
X147968657Y-100568476D01*
X148063895Y-100378000D01*
X147682942Y-101616095D02*
X147682942Y-103139904D01*
X148730561Y-103997047D02*
X148825800Y-104092285D01*
X148921038Y-104282761D01*
X148921038Y-104758952D01*
X148825800Y-104949428D01*
X148730561Y-105044666D01*
X148540085Y-105139904D01*
X148349609Y-105139904D01*
X148063895Y-105044666D01*
X146921038Y-103901809D01*
X146921038Y-105139904D01*
X148921038Y-105806571D02*
X148921038Y-107139904D01*
X146921038Y-106282761D01*
X147111514Y-109044666D02*
X147016276Y-108949428D01*
X146921038Y-108663714D01*
X146921038Y-108473238D01*
X147016276Y-108187523D01*
X147206752Y-107997047D01*
X147397228Y-107901809D01*
X147778180Y-107806571D01*
X148063895Y-107806571D01*
X148444847Y-107901809D01*
X148635323Y-107997047D01*
X148825800Y-108187523D01*
X148921038Y-108473238D01*
X148921038Y-108663714D01*
X148825800Y-108949428D01*
X148730561Y-109044666D01*
X148921038Y-110282761D02*
X148921038Y-110473238D01*
X148825800Y-110663714D01*
X148730561Y-110758952D01*
X148540085Y-110854190D01*
X148159133Y-110949428D01*
X147682942Y-110949428D01*
X147301990Y-110854190D01*
X147111514Y-110758952D01*
X147016276Y-110663714D01*
X146921038Y-110473238D01*
X146921038Y-110282761D01*
X147016276Y-110092285D01*
X147111514Y-109997047D01*
X147301990Y-109901809D01*
X147682942Y-109806571D01*
X148159133Y-109806571D01*
X148540085Y-109901809D01*
X148730561Y-109997047D01*
X148825800Y-110092285D01*
X148921038Y-110282761D01*
X148063895Y-112092285D02*
X148159133Y-111901809D01*
X148254371Y-111806571D01*
X148444847Y-111711333D01*
X148540085Y-111711333D01*
X148730561Y-111806571D01*
X148825800Y-111901809D01*
X148921038Y-112092285D01*
X148921038Y-112473238D01*
X148825800Y-112663714D01*
X148730561Y-112758952D01*
X148540085Y-112854190D01*
X148444847Y-112854190D01*
X148254371Y-112758952D01*
X148159133Y-112663714D01*
X148063895Y-112473238D01*
X148063895Y-112092285D01*
X147968657Y-111901809D01*
X147873419Y-111806571D01*
X147682942Y-111711333D01*
X147301990Y-111711333D01*
X147111514Y-111806571D01*
X147016276Y-111901809D01*
X146921038Y-112092285D01*
X146921038Y-112473238D01*
X147016276Y-112663714D01*
X147111514Y-112758952D01*
X147301990Y-112854190D01*
X147682942Y-112854190D01*
X147873419Y-112758952D01*
X147968657Y-112663714D01*
X148063895Y-112473238D01*
X148921038Y-114092285D02*
X148921038Y-114282761D01*
X148825800Y-114473238D01*
X148730561Y-114568476D01*
X148540085Y-114663714D01*
X148159133Y-114758952D01*
X147682942Y-114758952D01*
X147301990Y-114663714D01*
X147111514Y-114568476D01*
X147016276Y-114473238D01*
X146921038Y-114282761D01*
X146921038Y-114092285D01*
X147016276Y-113901809D01*
X147111514Y-113806571D01*
X147301990Y-113711333D01*
X147682942Y-113616095D01*
X148159133Y-113616095D01*
X148540085Y-113711333D01*
X148730561Y-113806571D01*
X148825800Y-113901809D01*
X148921038Y-114092285D01*
X144042466Y-98139904D02*
X144042466Y-99092285D01*
X143471038Y-97949428D02*
X145471038Y-98616095D01*
X143471038Y-99282761D01*
X143471038Y-100806571D02*
X145471038Y-100806571D01*
X143566276Y-100806571D02*
X143471038Y-100616095D01*
X143471038Y-100235142D01*
X143566276Y-100044666D01*
X143661514Y-99949428D01*
X143851990Y-99854190D01*
X144423419Y-99854190D01*
X144613895Y-99949428D01*
X144709133Y-100044666D01*
X144804371Y-100235142D01*
X144804371Y-100616095D01*
X144709133Y-100806571D01*
X143471038Y-102616095D02*
X144518657Y-102616095D01*
X144709133Y-102520857D01*
X144804371Y-102330380D01*
X144804371Y-101949428D01*
X144709133Y-101758952D01*
X143566276Y-102616095D02*
X143471038Y-102425619D01*
X143471038Y-101949428D01*
X143566276Y-101758952D01*
X143756752Y-101663714D01*
X143947228Y-101663714D01*
X144137704Y-101758952D01*
X144232942Y-101949428D01*
X144232942Y-102425619D01*
X144328180Y-102616095D01*
X144804371Y-103568476D02*
X142804371Y-103568476D01*
X144709133Y-103568476D02*
X144804371Y-103758952D01*
X144804371Y-104139904D01*
X144709133Y-104330380D01*
X144613895Y-104425619D01*
X144423419Y-104520857D01*
X143851990Y-104520857D01*
X143661514Y-104425619D01*
X143566276Y-104330380D01*
X143471038Y-104139904D01*
X143471038Y-103758952D01*
X143566276Y-103568476D01*
X144804371Y-105092285D02*
X144804371Y-105854190D01*
X145471038Y-105378000D02*
X143756752Y-105378000D01*
X143566276Y-105473238D01*
X143471038Y-105663714D01*
X143471038Y-105854190D01*
X143566276Y-107282761D02*
X143471038Y-107092285D01*
X143471038Y-106711333D01*
X143566276Y-106520857D01*
X143756752Y-106425619D01*
X144518657Y-106425619D01*
X144709133Y-106520857D01*
X144804371Y-106711333D01*
X144804371Y-107092285D01*
X144709133Y-107282761D01*
X144518657Y-107378000D01*
X144328180Y-107378000D01*
X144137704Y-106425619D01*
X143471038Y-108235142D02*
X144804371Y-108235142D01*
X144423419Y-108235142D02*
X144613895Y-108330380D01*
X144709133Y-108425619D01*
X144804371Y-108616095D01*
X144804371Y-108806571D01*
D11*
X155000000Y-83880000D02*
X155000000Y-81220000D01*
X139700000Y-83880000D02*
X155000000Y-83880000D01*
X139700000Y-81220000D02*
X155000000Y-81220000D01*
X139700000Y-83880000D02*
X139700000Y-81220000D01*
X138430000Y-83880000D02*
X137100000Y-83880000D01*
X137100000Y-83880000D02*
X137100000Y-82550000D01*
X148320000Y-85030000D02*
G75*
G02X146320000Y-85030000I-1000000J0D01*
G01*
X146320000Y-85030000D02*
X140860000Y-85030000D01*
X140860000Y-85030000D02*
X140860000Y-125790000D01*
X140860000Y-125790000D02*
X153780000Y-125790000D01*
X153780000Y-125790000D02*
X153780000Y-85030000D01*
X153780000Y-85030000D02*
X148320000Y-85030000D01*
X145780000Y-90110000D02*
G75*
G02X143780000Y-90110000I-1000000J0D01*
G01*
X143780000Y-90110000D02*
X138320000Y-90110000D01*
X138320000Y-90110000D02*
X138320000Y-125790000D01*
X138320000Y-125790000D02*
X151240000Y-125790000D01*
X151240000Y-125790000D02*
X151240000Y-90110000D01*
X151240000Y-90110000D02*
X145780000Y-90110000D01*
D12*
X135552380Y-82883333D02*
X136266666Y-82883333D01*
X136409523Y-82930952D01*
X136504761Y-83026190D01*
X136552380Y-83169047D01*
X136552380Y-83264285D01*
X136552380Y-81883333D02*
X136552380Y-82454761D01*
X136552380Y-82169047D02*
X135552380Y-82169047D01*
X135695238Y-82264285D01*
X135790476Y-82359523D01*
X135838095Y-82454761D01*
X146558095Y-83482380D02*
X146558095Y-84291904D01*
X146605714Y-84387142D01*
X146653333Y-84434761D01*
X146748571Y-84482380D01*
X146939047Y-84482380D01*
X147034285Y-84434761D01*
X147081904Y-84387142D01*
X147129523Y-84291904D01*
X147129523Y-83482380D01*
X147558095Y-83577619D02*
X147605714Y-83530000D01*
X147700952Y-83482380D01*
X147939047Y-83482380D01*
X148034285Y-83530000D01*
X148081904Y-83577619D01*
X148129523Y-83672857D01*
X148129523Y-83768095D01*
X148081904Y-83910952D01*
X147510476Y-84482380D01*
X148129523Y-84482380D01*
X144018095Y-88562380D02*
X144018095Y-89371904D01*
X144065714Y-89467142D01*
X144113333Y-89514761D01*
X144208571Y-89562380D01*
X144399047Y-89562380D01*
X144494285Y-89514761D01*
X144541904Y-89467142D01*
X144589523Y-89371904D01*
X144589523Y-88562380D01*
X145589523Y-89562380D02*
X145018095Y-89562380D01*
X145303809Y-89562380D02*
X145303809Y-88562380D01*
X145208571Y-88705238D01*
X145113333Y-88800476D01*
X145018095Y-88848095D01*
M02*
