G04 #@! TF.GenerationSoftware,KiCad,Pcbnew,(5.1.5)-3*
G04 #@! TF.CreationDate,2020-05-12T21:47:34-04:00*
G04 #@! TF.ProjectId,27xxx_to_27c080,32377878-785f-4746-9f5f-323763303830,rev?*
G04 #@! TF.SameCoordinates,Original*
G04 #@! TF.FileFunction,Soldermask,Top*
G04 #@! TF.FilePolarity,Negative*
%FSLAX46Y46*%
G04 Gerber Fmt 4.6, Leading zero omitted, Abs format (unit mm)*
G04 Created by KiCad (PCBNEW (5.1.5)-3) date 2020-05-12 21:47:34*
%MOMM*%
%LPD*%
G04 APERTURE LIST*
%ADD10C,0.100000*%
G04 APERTURE END LIST*
D10*
G36*
X139948228Y-123641703D02*
G01*
X140103100Y-123705853D01*
X140242481Y-123798985D01*
X140361015Y-123917519D01*
X140454147Y-124056900D01*
X140518297Y-124211772D01*
X140551000Y-124376184D01*
X140551000Y-124543816D01*
X140518297Y-124708228D01*
X140454147Y-124863100D01*
X140361015Y-125002481D01*
X140242481Y-125121015D01*
X140103100Y-125214147D01*
X139948228Y-125278297D01*
X139783816Y-125311000D01*
X139616184Y-125311000D01*
X139451772Y-125278297D01*
X139296900Y-125214147D01*
X139157519Y-125121015D01*
X139038985Y-125002481D01*
X138945853Y-124863100D01*
X138881703Y-124708228D01*
X138849000Y-124543816D01*
X138849000Y-124376184D01*
X138881703Y-124211772D01*
X138945853Y-124056900D01*
X139038985Y-123917519D01*
X139157519Y-123798985D01*
X139296900Y-123705853D01*
X139451772Y-123641703D01*
X139616184Y-123609000D01*
X139783816Y-123609000D01*
X139948228Y-123641703D01*
G37*
G36*
X152648228Y-123641703D02*
G01*
X152803100Y-123705853D01*
X152942481Y-123798985D01*
X153061015Y-123917519D01*
X153154147Y-124056900D01*
X153218297Y-124211772D01*
X153251000Y-124376184D01*
X153251000Y-124543816D01*
X153218297Y-124708228D01*
X153154147Y-124863100D01*
X153061015Y-125002481D01*
X152942481Y-125121015D01*
X152803100Y-125214147D01*
X152648228Y-125278297D01*
X152483816Y-125311000D01*
X152316184Y-125311000D01*
X152151772Y-125278297D01*
X151996900Y-125214147D01*
X151857519Y-125121015D01*
X151738985Y-125002481D01*
X151645853Y-124863100D01*
X151581703Y-124708228D01*
X151549000Y-124543816D01*
X151549000Y-124376184D01*
X151581703Y-124211772D01*
X151645853Y-124056900D01*
X151738985Y-123917519D01*
X151857519Y-123798985D01*
X151996900Y-123705853D01*
X152151772Y-123641703D01*
X152316184Y-123609000D01*
X152483816Y-123609000D01*
X152648228Y-123641703D01*
G37*
G36*
X137408228Y-123641703D02*
G01*
X137563100Y-123705853D01*
X137702481Y-123798985D01*
X137821015Y-123917519D01*
X137914147Y-124056900D01*
X137978297Y-124211772D01*
X138011000Y-124376184D01*
X138011000Y-124543816D01*
X137978297Y-124708228D01*
X137914147Y-124863100D01*
X137821015Y-125002481D01*
X137702481Y-125121015D01*
X137563100Y-125214147D01*
X137408228Y-125278297D01*
X137243816Y-125311000D01*
X137076184Y-125311000D01*
X136911772Y-125278297D01*
X136756900Y-125214147D01*
X136617519Y-125121015D01*
X136498985Y-125002481D01*
X136405853Y-124863100D01*
X136341703Y-124708228D01*
X136309000Y-124543816D01*
X136309000Y-124376184D01*
X136341703Y-124211772D01*
X136405853Y-124056900D01*
X136498985Y-123917519D01*
X136617519Y-123798985D01*
X136756900Y-123705853D01*
X136911772Y-123641703D01*
X137076184Y-123609000D01*
X137243816Y-123609000D01*
X137408228Y-123641703D01*
G37*
G36*
X155188228Y-123641703D02*
G01*
X155343100Y-123705853D01*
X155482481Y-123798985D01*
X155601015Y-123917519D01*
X155694147Y-124056900D01*
X155758297Y-124211772D01*
X155791000Y-124376184D01*
X155791000Y-124543816D01*
X155758297Y-124708228D01*
X155694147Y-124863100D01*
X155601015Y-125002481D01*
X155482481Y-125121015D01*
X155343100Y-125214147D01*
X155188228Y-125278297D01*
X155023816Y-125311000D01*
X154856184Y-125311000D01*
X154691772Y-125278297D01*
X154536900Y-125214147D01*
X154397519Y-125121015D01*
X154278985Y-125002481D01*
X154185853Y-124863100D01*
X154121703Y-124708228D01*
X154089000Y-124543816D01*
X154089000Y-124376184D01*
X154121703Y-124211772D01*
X154185853Y-124056900D01*
X154278985Y-123917519D01*
X154397519Y-123798985D01*
X154536900Y-123705853D01*
X154691772Y-123641703D01*
X154856184Y-123609000D01*
X155023816Y-123609000D01*
X155188228Y-123641703D01*
G37*
G36*
X137408228Y-121101703D02*
G01*
X137563100Y-121165853D01*
X137702481Y-121258985D01*
X137821015Y-121377519D01*
X137914147Y-121516900D01*
X137978297Y-121671772D01*
X138011000Y-121836184D01*
X138011000Y-122003816D01*
X137978297Y-122168228D01*
X137914147Y-122323100D01*
X137821015Y-122462481D01*
X137702481Y-122581015D01*
X137563100Y-122674147D01*
X137408228Y-122738297D01*
X137243816Y-122771000D01*
X137076184Y-122771000D01*
X136911772Y-122738297D01*
X136756900Y-122674147D01*
X136617519Y-122581015D01*
X136498985Y-122462481D01*
X136405853Y-122323100D01*
X136341703Y-122168228D01*
X136309000Y-122003816D01*
X136309000Y-121836184D01*
X136341703Y-121671772D01*
X136405853Y-121516900D01*
X136498985Y-121377519D01*
X136617519Y-121258985D01*
X136756900Y-121165853D01*
X136911772Y-121101703D01*
X137076184Y-121069000D01*
X137243816Y-121069000D01*
X137408228Y-121101703D01*
G37*
G36*
X139948228Y-121101703D02*
G01*
X140103100Y-121165853D01*
X140242481Y-121258985D01*
X140361015Y-121377519D01*
X140454147Y-121516900D01*
X140518297Y-121671772D01*
X140551000Y-121836184D01*
X140551000Y-122003816D01*
X140518297Y-122168228D01*
X140454147Y-122323100D01*
X140361015Y-122462481D01*
X140242481Y-122581015D01*
X140103100Y-122674147D01*
X139948228Y-122738297D01*
X139783816Y-122771000D01*
X139616184Y-122771000D01*
X139451772Y-122738297D01*
X139296900Y-122674147D01*
X139157519Y-122581015D01*
X139038985Y-122462481D01*
X138945853Y-122323100D01*
X138881703Y-122168228D01*
X138849000Y-122003816D01*
X138849000Y-121836184D01*
X138881703Y-121671772D01*
X138945853Y-121516900D01*
X139038985Y-121377519D01*
X139157519Y-121258985D01*
X139296900Y-121165853D01*
X139451772Y-121101703D01*
X139616184Y-121069000D01*
X139783816Y-121069000D01*
X139948228Y-121101703D01*
G37*
G36*
X155188228Y-121101703D02*
G01*
X155343100Y-121165853D01*
X155482481Y-121258985D01*
X155601015Y-121377519D01*
X155694147Y-121516900D01*
X155758297Y-121671772D01*
X155791000Y-121836184D01*
X155791000Y-122003816D01*
X155758297Y-122168228D01*
X155694147Y-122323100D01*
X155601015Y-122462481D01*
X155482481Y-122581015D01*
X155343100Y-122674147D01*
X155188228Y-122738297D01*
X155023816Y-122771000D01*
X154856184Y-122771000D01*
X154691772Y-122738297D01*
X154536900Y-122674147D01*
X154397519Y-122581015D01*
X154278985Y-122462481D01*
X154185853Y-122323100D01*
X154121703Y-122168228D01*
X154089000Y-122003816D01*
X154089000Y-121836184D01*
X154121703Y-121671772D01*
X154185853Y-121516900D01*
X154278985Y-121377519D01*
X154397519Y-121258985D01*
X154536900Y-121165853D01*
X154691772Y-121101703D01*
X154856184Y-121069000D01*
X155023816Y-121069000D01*
X155188228Y-121101703D01*
G37*
G36*
X152648228Y-121101703D02*
G01*
X152803100Y-121165853D01*
X152942481Y-121258985D01*
X153061015Y-121377519D01*
X153154147Y-121516900D01*
X153218297Y-121671772D01*
X153251000Y-121836184D01*
X153251000Y-122003816D01*
X153218297Y-122168228D01*
X153154147Y-122323100D01*
X153061015Y-122462481D01*
X152942481Y-122581015D01*
X152803100Y-122674147D01*
X152648228Y-122738297D01*
X152483816Y-122771000D01*
X152316184Y-122771000D01*
X152151772Y-122738297D01*
X151996900Y-122674147D01*
X151857519Y-122581015D01*
X151738985Y-122462481D01*
X151645853Y-122323100D01*
X151581703Y-122168228D01*
X151549000Y-122003816D01*
X151549000Y-121836184D01*
X151581703Y-121671772D01*
X151645853Y-121516900D01*
X151738985Y-121377519D01*
X151857519Y-121258985D01*
X151996900Y-121165853D01*
X152151772Y-121101703D01*
X152316184Y-121069000D01*
X152483816Y-121069000D01*
X152648228Y-121101703D01*
G37*
G36*
X155188228Y-118561703D02*
G01*
X155343100Y-118625853D01*
X155482481Y-118718985D01*
X155601015Y-118837519D01*
X155694147Y-118976900D01*
X155758297Y-119131772D01*
X155791000Y-119296184D01*
X155791000Y-119463816D01*
X155758297Y-119628228D01*
X155694147Y-119783100D01*
X155601015Y-119922481D01*
X155482481Y-120041015D01*
X155343100Y-120134147D01*
X155188228Y-120198297D01*
X155023816Y-120231000D01*
X154856184Y-120231000D01*
X154691772Y-120198297D01*
X154536900Y-120134147D01*
X154397519Y-120041015D01*
X154278985Y-119922481D01*
X154185853Y-119783100D01*
X154121703Y-119628228D01*
X154089000Y-119463816D01*
X154089000Y-119296184D01*
X154121703Y-119131772D01*
X154185853Y-118976900D01*
X154278985Y-118837519D01*
X154397519Y-118718985D01*
X154536900Y-118625853D01*
X154691772Y-118561703D01*
X154856184Y-118529000D01*
X155023816Y-118529000D01*
X155188228Y-118561703D01*
G37*
G36*
X137408228Y-118561703D02*
G01*
X137563100Y-118625853D01*
X137702481Y-118718985D01*
X137821015Y-118837519D01*
X137914147Y-118976900D01*
X137978297Y-119131772D01*
X138011000Y-119296184D01*
X138011000Y-119463816D01*
X137978297Y-119628228D01*
X137914147Y-119783100D01*
X137821015Y-119922481D01*
X137702481Y-120041015D01*
X137563100Y-120134147D01*
X137408228Y-120198297D01*
X137243816Y-120231000D01*
X137076184Y-120231000D01*
X136911772Y-120198297D01*
X136756900Y-120134147D01*
X136617519Y-120041015D01*
X136498985Y-119922481D01*
X136405853Y-119783100D01*
X136341703Y-119628228D01*
X136309000Y-119463816D01*
X136309000Y-119296184D01*
X136341703Y-119131772D01*
X136405853Y-118976900D01*
X136498985Y-118837519D01*
X136617519Y-118718985D01*
X136756900Y-118625853D01*
X136911772Y-118561703D01*
X137076184Y-118529000D01*
X137243816Y-118529000D01*
X137408228Y-118561703D01*
G37*
G36*
X139948228Y-118561703D02*
G01*
X140103100Y-118625853D01*
X140242481Y-118718985D01*
X140361015Y-118837519D01*
X140454147Y-118976900D01*
X140518297Y-119131772D01*
X140551000Y-119296184D01*
X140551000Y-119463816D01*
X140518297Y-119628228D01*
X140454147Y-119783100D01*
X140361015Y-119922481D01*
X140242481Y-120041015D01*
X140103100Y-120134147D01*
X139948228Y-120198297D01*
X139783816Y-120231000D01*
X139616184Y-120231000D01*
X139451772Y-120198297D01*
X139296900Y-120134147D01*
X139157519Y-120041015D01*
X139038985Y-119922481D01*
X138945853Y-119783100D01*
X138881703Y-119628228D01*
X138849000Y-119463816D01*
X138849000Y-119296184D01*
X138881703Y-119131772D01*
X138945853Y-118976900D01*
X139038985Y-118837519D01*
X139157519Y-118718985D01*
X139296900Y-118625853D01*
X139451772Y-118561703D01*
X139616184Y-118529000D01*
X139783816Y-118529000D01*
X139948228Y-118561703D01*
G37*
G36*
X152648228Y-118561703D02*
G01*
X152803100Y-118625853D01*
X152942481Y-118718985D01*
X153061015Y-118837519D01*
X153154147Y-118976900D01*
X153218297Y-119131772D01*
X153251000Y-119296184D01*
X153251000Y-119463816D01*
X153218297Y-119628228D01*
X153154147Y-119783100D01*
X153061015Y-119922481D01*
X152942481Y-120041015D01*
X152803100Y-120134147D01*
X152648228Y-120198297D01*
X152483816Y-120231000D01*
X152316184Y-120231000D01*
X152151772Y-120198297D01*
X151996900Y-120134147D01*
X151857519Y-120041015D01*
X151738985Y-119922481D01*
X151645853Y-119783100D01*
X151581703Y-119628228D01*
X151549000Y-119463816D01*
X151549000Y-119296184D01*
X151581703Y-119131772D01*
X151645853Y-118976900D01*
X151738985Y-118837519D01*
X151857519Y-118718985D01*
X151996900Y-118625853D01*
X152151772Y-118561703D01*
X152316184Y-118529000D01*
X152483816Y-118529000D01*
X152648228Y-118561703D01*
G37*
G36*
X137408228Y-116021703D02*
G01*
X137563100Y-116085853D01*
X137702481Y-116178985D01*
X137821015Y-116297519D01*
X137914147Y-116436900D01*
X137978297Y-116591772D01*
X138011000Y-116756184D01*
X138011000Y-116923816D01*
X137978297Y-117088228D01*
X137914147Y-117243100D01*
X137821015Y-117382481D01*
X137702481Y-117501015D01*
X137563100Y-117594147D01*
X137408228Y-117658297D01*
X137243816Y-117691000D01*
X137076184Y-117691000D01*
X136911772Y-117658297D01*
X136756900Y-117594147D01*
X136617519Y-117501015D01*
X136498985Y-117382481D01*
X136405853Y-117243100D01*
X136341703Y-117088228D01*
X136309000Y-116923816D01*
X136309000Y-116756184D01*
X136341703Y-116591772D01*
X136405853Y-116436900D01*
X136498985Y-116297519D01*
X136617519Y-116178985D01*
X136756900Y-116085853D01*
X136911772Y-116021703D01*
X137076184Y-115989000D01*
X137243816Y-115989000D01*
X137408228Y-116021703D01*
G37*
G36*
X155188228Y-116021703D02*
G01*
X155343100Y-116085853D01*
X155482481Y-116178985D01*
X155601015Y-116297519D01*
X155694147Y-116436900D01*
X155758297Y-116591772D01*
X155791000Y-116756184D01*
X155791000Y-116923816D01*
X155758297Y-117088228D01*
X155694147Y-117243100D01*
X155601015Y-117382481D01*
X155482481Y-117501015D01*
X155343100Y-117594147D01*
X155188228Y-117658297D01*
X155023816Y-117691000D01*
X154856184Y-117691000D01*
X154691772Y-117658297D01*
X154536900Y-117594147D01*
X154397519Y-117501015D01*
X154278985Y-117382481D01*
X154185853Y-117243100D01*
X154121703Y-117088228D01*
X154089000Y-116923816D01*
X154089000Y-116756184D01*
X154121703Y-116591772D01*
X154185853Y-116436900D01*
X154278985Y-116297519D01*
X154397519Y-116178985D01*
X154536900Y-116085853D01*
X154691772Y-116021703D01*
X154856184Y-115989000D01*
X155023816Y-115989000D01*
X155188228Y-116021703D01*
G37*
G36*
X139948228Y-116021703D02*
G01*
X140103100Y-116085853D01*
X140242481Y-116178985D01*
X140361015Y-116297519D01*
X140454147Y-116436900D01*
X140518297Y-116591772D01*
X140551000Y-116756184D01*
X140551000Y-116923816D01*
X140518297Y-117088228D01*
X140454147Y-117243100D01*
X140361015Y-117382481D01*
X140242481Y-117501015D01*
X140103100Y-117594147D01*
X139948228Y-117658297D01*
X139783816Y-117691000D01*
X139616184Y-117691000D01*
X139451772Y-117658297D01*
X139296900Y-117594147D01*
X139157519Y-117501015D01*
X139038985Y-117382481D01*
X138945853Y-117243100D01*
X138881703Y-117088228D01*
X138849000Y-116923816D01*
X138849000Y-116756184D01*
X138881703Y-116591772D01*
X138945853Y-116436900D01*
X139038985Y-116297519D01*
X139157519Y-116178985D01*
X139296900Y-116085853D01*
X139451772Y-116021703D01*
X139616184Y-115989000D01*
X139783816Y-115989000D01*
X139948228Y-116021703D01*
G37*
G36*
X152648228Y-116021703D02*
G01*
X152803100Y-116085853D01*
X152942481Y-116178985D01*
X153061015Y-116297519D01*
X153154147Y-116436900D01*
X153218297Y-116591772D01*
X153251000Y-116756184D01*
X153251000Y-116923816D01*
X153218297Y-117088228D01*
X153154147Y-117243100D01*
X153061015Y-117382481D01*
X152942481Y-117501015D01*
X152803100Y-117594147D01*
X152648228Y-117658297D01*
X152483816Y-117691000D01*
X152316184Y-117691000D01*
X152151772Y-117658297D01*
X151996900Y-117594147D01*
X151857519Y-117501015D01*
X151738985Y-117382481D01*
X151645853Y-117243100D01*
X151581703Y-117088228D01*
X151549000Y-116923816D01*
X151549000Y-116756184D01*
X151581703Y-116591772D01*
X151645853Y-116436900D01*
X151738985Y-116297519D01*
X151857519Y-116178985D01*
X151996900Y-116085853D01*
X152151772Y-116021703D01*
X152316184Y-115989000D01*
X152483816Y-115989000D01*
X152648228Y-116021703D01*
G37*
G36*
X139948228Y-113481703D02*
G01*
X140103100Y-113545853D01*
X140242481Y-113638985D01*
X140361015Y-113757519D01*
X140454147Y-113896900D01*
X140518297Y-114051772D01*
X140551000Y-114216184D01*
X140551000Y-114383816D01*
X140518297Y-114548228D01*
X140454147Y-114703100D01*
X140361015Y-114842481D01*
X140242481Y-114961015D01*
X140103100Y-115054147D01*
X139948228Y-115118297D01*
X139783816Y-115151000D01*
X139616184Y-115151000D01*
X139451772Y-115118297D01*
X139296900Y-115054147D01*
X139157519Y-114961015D01*
X139038985Y-114842481D01*
X138945853Y-114703100D01*
X138881703Y-114548228D01*
X138849000Y-114383816D01*
X138849000Y-114216184D01*
X138881703Y-114051772D01*
X138945853Y-113896900D01*
X139038985Y-113757519D01*
X139157519Y-113638985D01*
X139296900Y-113545853D01*
X139451772Y-113481703D01*
X139616184Y-113449000D01*
X139783816Y-113449000D01*
X139948228Y-113481703D01*
G37*
G36*
X137408228Y-113481703D02*
G01*
X137563100Y-113545853D01*
X137702481Y-113638985D01*
X137821015Y-113757519D01*
X137914147Y-113896900D01*
X137978297Y-114051772D01*
X138011000Y-114216184D01*
X138011000Y-114383816D01*
X137978297Y-114548228D01*
X137914147Y-114703100D01*
X137821015Y-114842481D01*
X137702481Y-114961015D01*
X137563100Y-115054147D01*
X137408228Y-115118297D01*
X137243816Y-115151000D01*
X137076184Y-115151000D01*
X136911772Y-115118297D01*
X136756900Y-115054147D01*
X136617519Y-114961015D01*
X136498985Y-114842481D01*
X136405853Y-114703100D01*
X136341703Y-114548228D01*
X136309000Y-114383816D01*
X136309000Y-114216184D01*
X136341703Y-114051772D01*
X136405853Y-113896900D01*
X136498985Y-113757519D01*
X136617519Y-113638985D01*
X136756900Y-113545853D01*
X136911772Y-113481703D01*
X137076184Y-113449000D01*
X137243816Y-113449000D01*
X137408228Y-113481703D01*
G37*
G36*
X155188228Y-113481703D02*
G01*
X155343100Y-113545853D01*
X155482481Y-113638985D01*
X155601015Y-113757519D01*
X155694147Y-113896900D01*
X155758297Y-114051772D01*
X155791000Y-114216184D01*
X155791000Y-114383816D01*
X155758297Y-114548228D01*
X155694147Y-114703100D01*
X155601015Y-114842481D01*
X155482481Y-114961015D01*
X155343100Y-115054147D01*
X155188228Y-115118297D01*
X155023816Y-115151000D01*
X154856184Y-115151000D01*
X154691772Y-115118297D01*
X154536900Y-115054147D01*
X154397519Y-114961015D01*
X154278985Y-114842481D01*
X154185853Y-114703100D01*
X154121703Y-114548228D01*
X154089000Y-114383816D01*
X154089000Y-114216184D01*
X154121703Y-114051772D01*
X154185853Y-113896900D01*
X154278985Y-113757519D01*
X154397519Y-113638985D01*
X154536900Y-113545853D01*
X154691772Y-113481703D01*
X154856184Y-113449000D01*
X155023816Y-113449000D01*
X155188228Y-113481703D01*
G37*
G36*
X152648228Y-113481703D02*
G01*
X152803100Y-113545853D01*
X152942481Y-113638985D01*
X153061015Y-113757519D01*
X153154147Y-113896900D01*
X153218297Y-114051772D01*
X153251000Y-114216184D01*
X153251000Y-114383816D01*
X153218297Y-114548228D01*
X153154147Y-114703100D01*
X153061015Y-114842481D01*
X152942481Y-114961015D01*
X152803100Y-115054147D01*
X152648228Y-115118297D01*
X152483816Y-115151000D01*
X152316184Y-115151000D01*
X152151772Y-115118297D01*
X151996900Y-115054147D01*
X151857519Y-114961015D01*
X151738985Y-114842481D01*
X151645853Y-114703100D01*
X151581703Y-114548228D01*
X151549000Y-114383816D01*
X151549000Y-114216184D01*
X151581703Y-114051772D01*
X151645853Y-113896900D01*
X151738985Y-113757519D01*
X151857519Y-113638985D01*
X151996900Y-113545853D01*
X152151772Y-113481703D01*
X152316184Y-113449000D01*
X152483816Y-113449000D01*
X152648228Y-113481703D01*
G37*
G36*
X152648228Y-110941703D02*
G01*
X152803100Y-111005853D01*
X152942481Y-111098985D01*
X153061015Y-111217519D01*
X153154147Y-111356900D01*
X153218297Y-111511772D01*
X153251000Y-111676184D01*
X153251000Y-111843816D01*
X153218297Y-112008228D01*
X153154147Y-112163100D01*
X153061015Y-112302481D01*
X152942481Y-112421015D01*
X152803100Y-112514147D01*
X152648228Y-112578297D01*
X152483816Y-112611000D01*
X152316184Y-112611000D01*
X152151772Y-112578297D01*
X151996900Y-112514147D01*
X151857519Y-112421015D01*
X151738985Y-112302481D01*
X151645853Y-112163100D01*
X151581703Y-112008228D01*
X151549000Y-111843816D01*
X151549000Y-111676184D01*
X151581703Y-111511772D01*
X151645853Y-111356900D01*
X151738985Y-111217519D01*
X151857519Y-111098985D01*
X151996900Y-111005853D01*
X152151772Y-110941703D01*
X152316184Y-110909000D01*
X152483816Y-110909000D01*
X152648228Y-110941703D01*
G37*
G36*
X139948228Y-110941703D02*
G01*
X140103100Y-111005853D01*
X140242481Y-111098985D01*
X140361015Y-111217519D01*
X140454147Y-111356900D01*
X140518297Y-111511772D01*
X140551000Y-111676184D01*
X140551000Y-111843816D01*
X140518297Y-112008228D01*
X140454147Y-112163100D01*
X140361015Y-112302481D01*
X140242481Y-112421015D01*
X140103100Y-112514147D01*
X139948228Y-112578297D01*
X139783816Y-112611000D01*
X139616184Y-112611000D01*
X139451772Y-112578297D01*
X139296900Y-112514147D01*
X139157519Y-112421015D01*
X139038985Y-112302481D01*
X138945853Y-112163100D01*
X138881703Y-112008228D01*
X138849000Y-111843816D01*
X138849000Y-111676184D01*
X138881703Y-111511772D01*
X138945853Y-111356900D01*
X139038985Y-111217519D01*
X139157519Y-111098985D01*
X139296900Y-111005853D01*
X139451772Y-110941703D01*
X139616184Y-110909000D01*
X139783816Y-110909000D01*
X139948228Y-110941703D01*
G37*
G36*
X137408228Y-110941703D02*
G01*
X137563100Y-111005853D01*
X137702481Y-111098985D01*
X137821015Y-111217519D01*
X137914147Y-111356900D01*
X137978297Y-111511772D01*
X138011000Y-111676184D01*
X138011000Y-111843816D01*
X137978297Y-112008228D01*
X137914147Y-112163100D01*
X137821015Y-112302481D01*
X137702481Y-112421015D01*
X137563100Y-112514147D01*
X137408228Y-112578297D01*
X137243816Y-112611000D01*
X137076184Y-112611000D01*
X136911772Y-112578297D01*
X136756900Y-112514147D01*
X136617519Y-112421015D01*
X136498985Y-112302481D01*
X136405853Y-112163100D01*
X136341703Y-112008228D01*
X136309000Y-111843816D01*
X136309000Y-111676184D01*
X136341703Y-111511772D01*
X136405853Y-111356900D01*
X136498985Y-111217519D01*
X136617519Y-111098985D01*
X136756900Y-111005853D01*
X136911772Y-110941703D01*
X137076184Y-110909000D01*
X137243816Y-110909000D01*
X137408228Y-110941703D01*
G37*
G36*
X155188228Y-110941703D02*
G01*
X155343100Y-111005853D01*
X155482481Y-111098985D01*
X155601015Y-111217519D01*
X155694147Y-111356900D01*
X155758297Y-111511772D01*
X155791000Y-111676184D01*
X155791000Y-111843816D01*
X155758297Y-112008228D01*
X155694147Y-112163100D01*
X155601015Y-112302481D01*
X155482481Y-112421015D01*
X155343100Y-112514147D01*
X155188228Y-112578297D01*
X155023816Y-112611000D01*
X154856184Y-112611000D01*
X154691772Y-112578297D01*
X154536900Y-112514147D01*
X154397519Y-112421015D01*
X154278985Y-112302481D01*
X154185853Y-112163100D01*
X154121703Y-112008228D01*
X154089000Y-111843816D01*
X154089000Y-111676184D01*
X154121703Y-111511772D01*
X154185853Y-111356900D01*
X154278985Y-111217519D01*
X154397519Y-111098985D01*
X154536900Y-111005853D01*
X154691772Y-110941703D01*
X154856184Y-110909000D01*
X155023816Y-110909000D01*
X155188228Y-110941703D01*
G37*
G36*
X137408228Y-108401703D02*
G01*
X137563100Y-108465853D01*
X137702481Y-108558985D01*
X137821015Y-108677519D01*
X137914147Y-108816900D01*
X137978297Y-108971772D01*
X138011000Y-109136184D01*
X138011000Y-109303816D01*
X137978297Y-109468228D01*
X137914147Y-109623100D01*
X137821015Y-109762481D01*
X137702481Y-109881015D01*
X137563100Y-109974147D01*
X137408228Y-110038297D01*
X137243816Y-110071000D01*
X137076184Y-110071000D01*
X136911772Y-110038297D01*
X136756900Y-109974147D01*
X136617519Y-109881015D01*
X136498985Y-109762481D01*
X136405853Y-109623100D01*
X136341703Y-109468228D01*
X136309000Y-109303816D01*
X136309000Y-109136184D01*
X136341703Y-108971772D01*
X136405853Y-108816900D01*
X136498985Y-108677519D01*
X136617519Y-108558985D01*
X136756900Y-108465853D01*
X136911772Y-108401703D01*
X137076184Y-108369000D01*
X137243816Y-108369000D01*
X137408228Y-108401703D01*
G37*
G36*
X155188228Y-108401703D02*
G01*
X155343100Y-108465853D01*
X155482481Y-108558985D01*
X155601015Y-108677519D01*
X155694147Y-108816900D01*
X155758297Y-108971772D01*
X155791000Y-109136184D01*
X155791000Y-109303816D01*
X155758297Y-109468228D01*
X155694147Y-109623100D01*
X155601015Y-109762481D01*
X155482481Y-109881015D01*
X155343100Y-109974147D01*
X155188228Y-110038297D01*
X155023816Y-110071000D01*
X154856184Y-110071000D01*
X154691772Y-110038297D01*
X154536900Y-109974147D01*
X154397519Y-109881015D01*
X154278985Y-109762481D01*
X154185853Y-109623100D01*
X154121703Y-109468228D01*
X154089000Y-109303816D01*
X154089000Y-109136184D01*
X154121703Y-108971772D01*
X154185853Y-108816900D01*
X154278985Y-108677519D01*
X154397519Y-108558985D01*
X154536900Y-108465853D01*
X154691772Y-108401703D01*
X154856184Y-108369000D01*
X155023816Y-108369000D01*
X155188228Y-108401703D01*
G37*
G36*
X152648228Y-108401703D02*
G01*
X152803100Y-108465853D01*
X152942481Y-108558985D01*
X153061015Y-108677519D01*
X153154147Y-108816900D01*
X153218297Y-108971772D01*
X153251000Y-109136184D01*
X153251000Y-109303816D01*
X153218297Y-109468228D01*
X153154147Y-109623100D01*
X153061015Y-109762481D01*
X152942481Y-109881015D01*
X152803100Y-109974147D01*
X152648228Y-110038297D01*
X152483816Y-110071000D01*
X152316184Y-110071000D01*
X152151772Y-110038297D01*
X151996900Y-109974147D01*
X151857519Y-109881015D01*
X151738985Y-109762481D01*
X151645853Y-109623100D01*
X151581703Y-109468228D01*
X151549000Y-109303816D01*
X151549000Y-109136184D01*
X151581703Y-108971772D01*
X151645853Y-108816900D01*
X151738985Y-108677519D01*
X151857519Y-108558985D01*
X151996900Y-108465853D01*
X152151772Y-108401703D01*
X152316184Y-108369000D01*
X152483816Y-108369000D01*
X152648228Y-108401703D01*
G37*
G36*
X139948228Y-108401703D02*
G01*
X140103100Y-108465853D01*
X140242481Y-108558985D01*
X140361015Y-108677519D01*
X140454147Y-108816900D01*
X140518297Y-108971772D01*
X140551000Y-109136184D01*
X140551000Y-109303816D01*
X140518297Y-109468228D01*
X140454147Y-109623100D01*
X140361015Y-109762481D01*
X140242481Y-109881015D01*
X140103100Y-109974147D01*
X139948228Y-110038297D01*
X139783816Y-110071000D01*
X139616184Y-110071000D01*
X139451772Y-110038297D01*
X139296900Y-109974147D01*
X139157519Y-109881015D01*
X139038985Y-109762481D01*
X138945853Y-109623100D01*
X138881703Y-109468228D01*
X138849000Y-109303816D01*
X138849000Y-109136184D01*
X138881703Y-108971772D01*
X138945853Y-108816900D01*
X139038985Y-108677519D01*
X139157519Y-108558985D01*
X139296900Y-108465853D01*
X139451772Y-108401703D01*
X139616184Y-108369000D01*
X139783816Y-108369000D01*
X139948228Y-108401703D01*
G37*
G36*
X139948228Y-105861703D02*
G01*
X140103100Y-105925853D01*
X140242481Y-106018985D01*
X140361015Y-106137519D01*
X140454147Y-106276900D01*
X140518297Y-106431772D01*
X140551000Y-106596184D01*
X140551000Y-106763816D01*
X140518297Y-106928228D01*
X140454147Y-107083100D01*
X140361015Y-107222481D01*
X140242481Y-107341015D01*
X140103100Y-107434147D01*
X139948228Y-107498297D01*
X139783816Y-107531000D01*
X139616184Y-107531000D01*
X139451772Y-107498297D01*
X139296900Y-107434147D01*
X139157519Y-107341015D01*
X139038985Y-107222481D01*
X138945853Y-107083100D01*
X138881703Y-106928228D01*
X138849000Y-106763816D01*
X138849000Y-106596184D01*
X138881703Y-106431772D01*
X138945853Y-106276900D01*
X139038985Y-106137519D01*
X139157519Y-106018985D01*
X139296900Y-105925853D01*
X139451772Y-105861703D01*
X139616184Y-105829000D01*
X139783816Y-105829000D01*
X139948228Y-105861703D01*
G37*
G36*
X155188228Y-105861703D02*
G01*
X155343100Y-105925853D01*
X155482481Y-106018985D01*
X155601015Y-106137519D01*
X155694147Y-106276900D01*
X155758297Y-106431772D01*
X155791000Y-106596184D01*
X155791000Y-106763816D01*
X155758297Y-106928228D01*
X155694147Y-107083100D01*
X155601015Y-107222481D01*
X155482481Y-107341015D01*
X155343100Y-107434147D01*
X155188228Y-107498297D01*
X155023816Y-107531000D01*
X154856184Y-107531000D01*
X154691772Y-107498297D01*
X154536900Y-107434147D01*
X154397519Y-107341015D01*
X154278985Y-107222481D01*
X154185853Y-107083100D01*
X154121703Y-106928228D01*
X154089000Y-106763816D01*
X154089000Y-106596184D01*
X154121703Y-106431772D01*
X154185853Y-106276900D01*
X154278985Y-106137519D01*
X154397519Y-106018985D01*
X154536900Y-105925853D01*
X154691772Y-105861703D01*
X154856184Y-105829000D01*
X155023816Y-105829000D01*
X155188228Y-105861703D01*
G37*
G36*
X152648228Y-105861703D02*
G01*
X152803100Y-105925853D01*
X152942481Y-106018985D01*
X153061015Y-106137519D01*
X153154147Y-106276900D01*
X153218297Y-106431772D01*
X153251000Y-106596184D01*
X153251000Y-106763816D01*
X153218297Y-106928228D01*
X153154147Y-107083100D01*
X153061015Y-107222481D01*
X152942481Y-107341015D01*
X152803100Y-107434147D01*
X152648228Y-107498297D01*
X152483816Y-107531000D01*
X152316184Y-107531000D01*
X152151772Y-107498297D01*
X151996900Y-107434147D01*
X151857519Y-107341015D01*
X151738985Y-107222481D01*
X151645853Y-107083100D01*
X151581703Y-106928228D01*
X151549000Y-106763816D01*
X151549000Y-106596184D01*
X151581703Y-106431772D01*
X151645853Y-106276900D01*
X151738985Y-106137519D01*
X151857519Y-106018985D01*
X151996900Y-105925853D01*
X152151772Y-105861703D01*
X152316184Y-105829000D01*
X152483816Y-105829000D01*
X152648228Y-105861703D01*
G37*
G36*
X137408228Y-105861703D02*
G01*
X137563100Y-105925853D01*
X137702481Y-106018985D01*
X137821015Y-106137519D01*
X137914147Y-106276900D01*
X137978297Y-106431772D01*
X138011000Y-106596184D01*
X138011000Y-106763816D01*
X137978297Y-106928228D01*
X137914147Y-107083100D01*
X137821015Y-107222481D01*
X137702481Y-107341015D01*
X137563100Y-107434147D01*
X137408228Y-107498297D01*
X137243816Y-107531000D01*
X137076184Y-107531000D01*
X136911772Y-107498297D01*
X136756900Y-107434147D01*
X136617519Y-107341015D01*
X136498985Y-107222481D01*
X136405853Y-107083100D01*
X136341703Y-106928228D01*
X136309000Y-106763816D01*
X136309000Y-106596184D01*
X136341703Y-106431772D01*
X136405853Y-106276900D01*
X136498985Y-106137519D01*
X136617519Y-106018985D01*
X136756900Y-105925853D01*
X136911772Y-105861703D01*
X137076184Y-105829000D01*
X137243816Y-105829000D01*
X137408228Y-105861703D01*
G37*
G36*
X137408228Y-103321703D02*
G01*
X137563100Y-103385853D01*
X137702481Y-103478985D01*
X137821015Y-103597519D01*
X137914147Y-103736900D01*
X137978297Y-103891772D01*
X138011000Y-104056184D01*
X138011000Y-104223816D01*
X137978297Y-104388228D01*
X137914147Y-104543100D01*
X137821015Y-104682481D01*
X137702481Y-104801015D01*
X137563100Y-104894147D01*
X137408228Y-104958297D01*
X137243816Y-104991000D01*
X137076184Y-104991000D01*
X136911772Y-104958297D01*
X136756900Y-104894147D01*
X136617519Y-104801015D01*
X136498985Y-104682481D01*
X136405853Y-104543100D01*
X136341703Y-104388228D01*
X136309000Y-104223816D01*
X136309000Y-104056184D01*
X136341703Y-103891772D01*
X136405853Y-103736900D01*
X136498985Y-103597519D01*
X136617519Y-103478985D01*
X136756900Y-103385853D01*
X136911772Y-103321703D01*
X137076184Y-103289000D01*
X137243816Y-103289000D01*
X137408228Y-103321703D01*
G37*
G36*
X152648228Y-103321703D02*
G01*
X152803100Y-103385853D01*
X152942481Y-103478985D01*
X153061015Y-103597519D01*
X153154147Y-103736900D01*
X153218297Y-103891772D01*
X153251000Y-104056184D01*
X153251000Y-104223816D01*
X153218297Y-104388228D01*
X153154147Y-104543100D01*
X153061015Y-104682481D01*
X152942481Y-104801015D01*
X152803100Y-104894147D01*
X152648228Y-104958297D01*
X152483816Y-104991000D01*
X152316184Y-104991000D01*
X152151772Y-104958297D01*
X151996900Y-104894147D01*
X151857519Y-104801015D01*
X151738985Y-104682481D01*
X151645853Y-104543100D01*
X151581703Y-104388228D01*
X151549000Y-104223816D01*
X151549000Y-104056184D01*
X151581703Y-103891772D01*
X151645853Y-103736900D01*
X151738985Y-103597519D01*
X151857519Y-103478985D01*
X151996900Y-103385853D01*
X152151772Y-103321703D01*
X152316184Y-103289000D01*
X152483816Y-103289000D01*
X152648228Y-103321703D01*
G37*
G36*
X155188228Y-103321703D02*
G01*
X155343100Y-103385853D01*
X155482481Y-103478985D01*
X155601015Y-103597519D01*
X155694147Y-103736900D01*
X155758297Y-103891772D01*
X155791000Y-104056184D01*
X155791000Y-104223816D01*
X155758297Y-104388228D01*
X155694147Y-104543100D01*
X155601015Y-104682481D01*
X155482481Y-104801015D01*
X155343100Y-104894147D01*
X155188228Y-104958297D01*
X155023816Y-104991000D01*
X154856184Y-104991000D01*
X154691772Y-104958297D01*
X154536900Y-104894147D01*
X154397519Y-104801015D01*
X154278985Y-104682481D01*
X154185853Y-104543100D01*
X154121703Y-104388228D01*
X154089000Y-104223816D01*
X154089000Y-104056184D01*
X154121703Y-103891772D01*
X154185853Y-103736900D01*
X154278985Y-103597519D01*
X154397519Y-103478985D01*
X154536900Y-103385853D01*
X154691772Y-103321703D01*
X154856184Y-103289000D01*
X155023816Y-103289000D01*
X155188228Y-103321703D01*
G37*
G36*
X139948228Y-103321703D02*
G01*
X140103100Y-103385853D01*
X140242481Y-103478985D01*
X140361015Y-103597519D01*
X140454147Y-103736900D01*
X140518297Y-103891772D01*
X140551000Y-104056184D01*
X140551000Y-104223816D01*
X140518297Y-104388228D01*
X140454147Y-104543100D01*
X140361015Y-104682481D01*
X140242481Y-104801015D01*
X140103100Y-104894147D01*
X139948228Y-104958297D01*
X139783816Y-104991000D01*
X139616184Y-104991000D01*
X139451772Y-104958297D01*
X139296900Y-104894147D01*
X139157519Y-104801015D01*
X139038985Y-104682481D01*
X138945853Y-104543100D01*
X138881703Y-104388228D01*
X138849000Y-104223816D01*
X138849000Y-104056184D01*
X138881703Y-103891772D01*
X138945853Y-103736900D01*
X139038985Y-103597519D01*
X139157519Y-103478985D01*
X139296900Y-103385853D01*
X139451772Y-103321703D01*
X139616184Y-103289000D01*
X139783816Y-103289000D01*
X139948228Y-103321703D01*
G37*
G36*
X137408228Y-100781703D02*
G01*
X137563100Y-100845853D01*
X137702481Y-100938985D01*
X137821015Y-101057519D01*
X137914147Y-101196900D01*
X137978297Y-101351772D01*
X138011000Y-101516184D01*
X138011000Y-101683816D01*
X137978297Y-101848228D01*
X137914147Y-102003100D01*
X137821015Y-102142481D01*
X137702481Y-102261015D01*
X137563100Y-102354147D01*
X137408228Y-102418297D01*
X137243816Y-102451000D01*
X137076184Y-102451000D01*
X136911772Y-102418297D01*
X136756900Y-102354147D01*
X136617519Y-102261015D01*
X136498985Y-102142481D01*
X136405853Y-102003100D01*
X136341703Y-101848228D01*
X136309000Y-101683816D01*
X136309000Y-101516184D01*
X136341703Y-101351772D01*
X136405853Y-101196900D01*
X136498985Y-101057519D01*
X136617519Y-100938985D01*
X136756900Y-100845853D01*
X136911772Y-100781703D01*
X137076184Y-100749000D01*
X137243816Y-100749000D01*
X137408228Y-100781703D01*
G37*
G36*
X155188228Y-100781703D02*
G01*
X155343100Y-100845853D01*
X155482481Y-100938985D01*
X155601015Y-101057519D01*
X155694147Y-101196900D01*
X155758297Y-101351772D01*
X155791000Y-101516184D01*
X155791000Y-101683816D01*
X155758297Y-101848228D01*
X155694147Y-102003100D01*
X155601015Y-102142481D01*
X155482481Y-102261015D01*
X155343100Y-102354147D01*
X155188228Y-102418297D01*
X155023816Y-102451000D01*
X154856184Y-102451000D01*
X154691772Y-102418297D01*
X154536900Y-102354147D01*
X154397519Y-102261015D01*
X154278985Y-102142481D01*
X154185853Y-102003100D01*
X154121703Y-101848228D01*
X154089000Y-101683816D01*
X154089000Y-101516184D01*
X154121703Y-101351772D01*
X154185853Y-101196900D01*
X154278985Y-101057519D01*
X154397519Y-100938985D01*
X154536900Y-100845853D01*
X154691772Y-100781703D01*
X154856184Y-100749000D01*
X155023816Y-100749000D01*
X155188228Y-100781703D01*
G37*
G36*
X152648228Y-100781703D02*
G01*
X152803100Y-100845853D01*
X152942481Y-100938985D01*
X153061015Y-101057519D01*
X153154147Y-101196900D01*
X153218297Y-101351772D01*
X153251000Y-101516184D01*
X153251000Y-101683816D01*
X153218297Y-101848228D01*
X153154147Y-102003100D01*
X153061015Y-102142481D01*
X152942481Y-102261015D01*
X152803100Y-102354147D01*
X152648228Y-102418297D01*
X152483816Y-102451000D01*
X152316184Y-102451000D01*
X152151772Y-102418297D01*
X151996900Y-102354147D01*
X151857519Y-102261015D01*
X151738985Y-102142481D01*
X151645853Y-102003100D01*
X151581703Y-101848228D01*
X151549000Y-101683816D01*
X151549000Y-101516184D01*
X151581703Y-101351772D01*
X151645853Y-101196900D01*
X151738985Y-101057519D01*
X151857519Y-100938985D01*
X151996900Y-100845853D01*
X152151772Y-100781703D01*
X152316184Y-100749000D01*
X152483816Y-100749000D01*
X152648228Y-100781703D01*
G37*
G36*
X139948228Y-100781703D02*
G01*
X140103100Y-100845853D01*
X140242481Y-100938985D01*
X140361015Y-101057519D01*
X140454147Y-101196900D01*
X140518297Y-101351772D01*
X140551000Y-101516184D01*
X140551000Y-101683816D01*
X140518297Y-101848228D01*
X140454147Y-102003100D01*
X140361015Y-102142481D01*
X140242481Y-102261015D01*
X140103100Y-102354147D01*
X139948228Y-102418297D01*
X139783816Y-102451000D01*
X139616184Y-102451000D01*
X139451772Y-102418297D01*
X139296900Y-102354147D01*
X139157519Y-102261015D01*
X139038985Y-102142481D01*
X138945853Y-102003100D01*
X138881703Y-101848228D01*
X138849000Y-101683816D01*
X138849000Y-101516184D01*
X138881703Y-101351772D01*
X138945853Y-101196900D01*
X139038985Y-101057519D01*
X139157519Y-100938985D01*
X139296900Y-100845853D01*
X139451772Y-100781703D01*
X139616184Y-100749000D01*
X139783816Y-100749000D01*
X139948228Y-100781703D01*
G37*
G36*
X152648228Y-98241703D02*
G01*
X152803100Y-98305853D01*
X152942481Y-98398985D01*
X153061015Y-98517519D01*
X153154147Y-98656900D01*
X153218297Y-98811772D01*
X153251000Y-98976184D01*
X153251000Y-99143816D01*
X153218297Y-99308228D01*
X153154147Y-99463100D01*
X153061015Y-99602481D01*
X152942481Y-99721015D01*
X152803100Y-99814147D01*
X152648228Y-99878297D01*
X152483816Y-99911000D01*
X152316184Y-99911000D01*
X152151772Y-99878297D01*
X151996900Y-99814147D01*
X151857519Y-99721015D01*
X151738985Y-99602481D01*
X151645853Y-99463100D01*
X151581703Y-99308228D01*
X151549000Y-99143816D01*
X151549000Y-98976184D01*
X151581703Y-98811772D01*
X151645853Y-98656900D01*
X151738985Y-98517519D01*
X151857519Y-98398985D01*
X151996900Y-98305853D01*
X152151772Y-98241703D01*
X152316184Y-98209000D01*
X152483816Y-98209000D01*
X152648228Y-98241703D01*
G37*
G36*
X139948228Y-98241703D02*
G01*
X140103100Y-98305853D01*
X140242481Y-98398985D01*
X140361015Y-98517519D01*
X140454147Y-98656900D01*
X140518297Y-98811772D01*
X140551000Y-98976184D01*
X140551000Y-99143816D01*
X140518297Y-99308228D01*
X140454147Y-99463100D01*
X140361015Y-99602481D01*
X140242481Y-99721015D01*
X140103100Y-99814147D01*
X139948228Y-99878297D01*
X139783816Y-99911000D01*
X139616184Y-99911000D01*
X139451772Y-99878297D01*
X139296900Y-99814147D01*
X139157519Y-99721015D01*
X139038985Y-99602481D01*
X138945853Y-99463100D01*
X138881703Y-99308228D01*
X138849000Y-99143816D01*
X138849000Y-98976184D01*
X138881703Y-98811772D01*
X138945853Y-98656900D01*
X139038985Y-98517519D01*
X139157519Y-98398985D01*
X139296900Y-98305853D01*
X139451772Y-98241703D01*
X139616184Y-98209000D01*
X139783816Y-98209000D01*
X139948228Y-98241703D01*
G37*
G36*
X137408228Y-98241703D02*
G01*
X137563100Y-98305853D01*
X137702481Y-98398985D01*
X137821015Y-98517519D01*
X137914147Y-98656900D01*
X137978297Y-98811772D01*
X138011000Y-98976184D01*
X138011000Y-99143816D01*
X137978297Y-99308228D01*
X137914147Y-99463100D01*
X137821015Y-99602481D01*
X137702481Y-99721015D01*
X137563100Y-99814147D01*
X137408228Y-99878297D01*
X137243816Y-99911000D01*
X137076184Y-99911000D01*
X136911772Y-99878297D01*
X136756900Y-99814147D01*
X136617519Y-99721015D01*
X136498985Y-99602481D01*
X136405853Y-99463100D01*
X136341703Y-99308228D01*
X136309000Y-99143816D01*
X136309000Y-98976184D01*
X136341703Y-98811772D01*
X136405853Y-98656900D01*
X136498985Y-98517519D01*
X136617519Y-98398985D01*
X136756900Y-98305853D01*
X136911772Y-98241703D01*
X137076184Y-98209000D01*
X137243816Y-98209000D01*
X137408228Y-98241703D01*
G37*
G36*
X155188228Y-98241703D02*
G01*
X155343100Y-98305853D01*
X155482481Y-98398985D01*
X155601015Y-98517519D01*
X155694147Y-98656900D01*
X155758297Y-98811772D01*
X155791000Y-98976184D01*
X155791000Y-99143816D01*
X155758297Y-99308228D01*
X155694147Y-99463100D01*
X155601015Y-99602481D01*
X155482481Y-99721015D01*
X155343100Y-99814147D01*
X155188228Y-99878297D01*
X155023816Y-99911000D01*
X154856184Y-99911000D01*
X154691772Y-99878297D01*
X154536900Y-99814147D01*
X154397519Y-99721015D01*
X154278985Y-99602481D01*
X154185853Y-99463100D01*
X154121703Y-99308228D01*
X154089000Y-99143816D01*
X154089000Y-98976184D01*
X154121703Y-98811772D01*
X154185853Y-98656900D01*
X154278985Y-98517519D01*
X154397519Y-98398985D01*
X154536900Y-98305853D01*
X154691772Y-98241703D01*
X154856184Y-98209000D01*
X155023816Y-98209000D01*
X155188228Y-98241703D01*
G37*
G36*
X155188228Y-95701703D02*
G01*
X155343100Y-95765853D01*
X155482481Y-95858985D01*
X155601015Y-95977519D01*
X155694147Y-96116900D01*
X155758297Y-96271772D01*
X155791000Y-96436184D01*
X155791000Y-96603816D01*
X155758297Y-96768228D01*
X155694147Y-96923100D01*
X155601015Y-97062481D01*
X155482481Y-97181015D01*
X155343100Y-97274147D01*
X155188228Y-97338297D01*
X155023816Y-97371000D01*
X154856184Y-97371000D01*
X154691772Y-97338297D01*
X154536900Y-97274147D01*
X154397519Y-97181015D01*
X154278985Y-97062481D01*
X154185853Y-96923100D01*
X154121703Y-96768228D01*
X154089000Y-96603816D01*
X154089000Y-96436184D01*
X154121703Y-96271772D01*
X154185853Y-96116900D01*
X154278985Y-95977519D01*
X154397519Y-95858985D01*
X154536900Y-95765853D01*
X154691772Y-95701703D01*
X154856184Y-95669000D01*
X155023816Y-95669000D01*
X155188228Y-95701703D01*
G37*
G36*
X152648228Y-95701703D02*
G01*
X152803100Y-95765853D01*
X152942481Y-95858985D01*
X153061015Y-95977519D01*
X153154147Y-96116900D01*
X153218297Y-96271772D01*
X153251000Y-96436184D01*
X153251000Y-96603816D01*
X153218297Y-96768228D01*
X153154147Y-96923100D01*
X153061015Y-97062481D01*
X152942481Y-97181015D01*
X152803100Y-97274147D01*
X152648228Y-97338297D01*
X152483816Y-97371000D01*
X152316184Y-97371000D01*
X152151772Y-97338297D01*
X151996900Y-97274147D01*
X151857519Y-97181015D01*
X151738985Y-97062481D01*
X151645853Y-96923100D01*
X151581703Y-96768228D01*
X151549000Y-96603816D01*
X151549000Y-96436184D01*
X151581703Y-96271772D01*
X151645853Y-96116900D01*
X151738985Y-95977519D01*
X151857519Y-95858985D01*
X151996900Y-95765853D01*
X152151772Y-95701703D01*
X152316184Y-95669000D01*
X152483816Y-95669000D01*
X152648228Y-95701703D01*
G37*
G36*
X139948228Y-95701703D02*
G01*
X140103100Y-95765853D01*
X140242481Y-95858985D01*
X140361015Y-95977519D01*
X140454147Y-96116900D01*
X140518297Y-96271772D01*
X140551000Y-96436184D01*
X140551000Y-96603816D01*
X140518297Y-96768228D01*
X140454147Y-96923100D01*
X140361015Y-97062481D01*
X140242481Y-97181015D01*
X140103100Y-97274147D01*
X139948228Y-97338297D01*
X139783816Y-97371000D01*
X139616184Y-97371000D01*
X139451772Y-97338297D01*
X139296900Y-97274147D01*
X139157519Y-97181015D01*
X139038985Y-97062481D01*
X138945853Y-96923100D01*
X138881703Y-96768228D01*
X138849000Y-96603816D01*
X138849000Y-96436184D01*
X138881703Y-96271772D01*
X138945853Y-96116900D01*
X139038985Y-95977519D01*
X139157519Y-95858985D01*
X139296900Y-95765853D01*
X139451772Y-95701703D01*
X139616184Y-95669000D01*
X139783816Y-95669000D01*
X139948228Y-95701703D01*
G37*
G36*
X137408228Y-95701703D02*
G01*
X137563100Y-95765853D01*
X137702481Y-95858985D01*
X137821015Y-95977519D01*
X137914147Y-96116900D01*
X137978297Y-96271772D01*
X138011000Y-96436184D01*
X138011000Y-96603816D01*
X137978297Y-96768228D01*
X137914147Y-96923100D01*
X137821015Y-97062481D01*
X137702481Y-97181015D01*
X137563100Y-97274147D01*
X137408228Y-97338297D01*
X137243816Y-97371000D01*
X137076184Y-97371000D01*
X136911772Y-97338297D01*
X136756900Y-97274147D01*
X136617519Y-97181015D01*
X136498985Y-97062481D01*
X136405853Y-96923100D01*
X136341703Y-96768228D01*
X136309000Y-96603816D01*
X136309000Y-96436184D01*
X136341703Y-96271772D01*
X136405853Y-96116900D01*
X136498985Y-95977519D01*
X136617519Y-95858985D01*
X136756900Y-95765853D01*
X136911772Y-95701703D01*
X137076184Y-95669000D01*
X137243816Y-95669000D01*
X137408228Y-95701703D01*
G37*
G36*
X137408228Y-93161703D02*
G01*
X137563100Y-93225853D01*
X137702481Y-93318985D01*
X137821015Y-93437519D01*
X137914147Y-93576900D01*
X137978297Y-93731772D01*
X138011000Y-93896184D01*
X138011000Y-94063816D01*
X137978297Y-94228228D01*
X137914147Y-94383100D01*
X137821015Y-94522481D01*
X137702481Y-94641015D01*
X137563100Y-94734147D01*
X137408228Y-94798297D01*
X137243816Y-94831000D01*
X137076184Y-94831000D01*
X136911772Y-94798297D01*
X136756900Y-94734147D01*
X136617519Y-94641015D01*
X136498985Y-94522481D01*
X136405853Y-94383100D01*
X136341703Y-94228228D01*
X136309000Y-94063816D01*
X136309000Y-93896184D01*
X136341703Y-93731772D01*
X136405853Y-93576900D01*
X136498985Y-93437519D01*
X136617519Y-93318985D01*
X136756900Y-93225853D01*
X136911772Y-93161703D01*
X137076184Y-93129000D01*
X137243816Y-93129000D01*
X137408228Y-93161703D01*
G37*
G36*
X155188228Y-93161703D02*
G01*
X155343100Y-93225853D01*
X155482481Y-93318985D01*
X155601015Y-93437519D01*
X155694147Y-93576900D01*
X155758297Y-93731772D01*
X155791000Y-93896184D01*
X155791000Y-94063816D01*
X155758297Y-94228228D01*
X155694147Y-94383100D01*
X155601015Y-94522481D01*
X155482481Y-94641015D01*
X155343100Y-94734147D01*
X155188228Y-94798297D01*
X155023816Y-94831000D01*
X154856184Y-94831000D01*
X154691772Y-94798297D01*
X154536900Y-94734147D01*
X154397519Y-94641015D01*
X154278985Y-94522481D01*
X154185853Y-94383100D01*
X154121703Y-94228228D01*
X154089000Y-94063816D01*
X154089000Y-93896184D01*
X154121703Y-93731772D01*
X154185853Y-93576900D01*
X154278985Y-93437519D01*
X154397519Y-93318985D01*
X154536900Y-93225853D01*
X154691772Y-93161703D01*
X154856184Y-93129000D01*
X155023816Y-93129000D01*
X155188228Y-93161703D01*
G37*
G36*
X139948228Y-93161703D02*
G01*
X140103100Y-93225853D01*
X140242481Y-93318985D01*
X140361015Y-93437519D01*
X140454147Y-93576900D01*
X140518297Y-93731772D01*
X140551000Y-93896184D01*
X140551000Y-94063816D01*
X140518297Y-94228228D01*
X140454147Y-94383100D01*
X140361015Y-94522481D01*
X140242481Y-94641015D01*
X140103100Y-94734147D01*
X139948228Y-94798297D01*
X139783816Y-94831000D01*
X139616184Y-94831000D01*
X139451772Y-94798297D01*
X139296900Y-94734147D01*
X139157519Y-94641015D01*
X139038985Y-94522481D01*
X138945853Y-94383100D01*
X138881703Y-94228228D01*
X138849000Y-94063816D01*
X138849000Y-93896184D01*
X138881703Y-93731772D01*
X138945853Y-93576900D01*
X139038985Y-93437519D01*
X139157519Y-93318985D01*
X139296900Y-93225853D01*
X139451772Y-93161703D01*
X139616184Y-93129000D01*
X139783816Y-93129000D01*
X139948228Y-93161703D01*
G37*
G36*
X152648228Y-93161703D02*
G01*
X152803100Y-93225853D01*
X152942481Y-93318985D01*
X153061015Y-93437519D01*
X153154147Y-93576900D01*
X153218297Y-93731772D01*
X153251000Y-93896184D01*
X153251000Y-94063816D01*
X153218297Y-94228228D01*
X153154147Y-94383100D01*
X153061015Y-94522481D01*
X152942481Y-94641015D01*
X152803100Y-94734147D01*
X152648228Y-94798297D01*
X152483816Y-94831000D01*
X152316184Y-94831000D01*
X152151772Y-94798297D01*
X151996900Y-94734147D01*
X151857519Y-94641015D01*
X151738985Y-94522481D01*
X151645853Y-94383100D01*
X151581703Y-94228228D01*
X151549000Y-94063816D01*
X151549000Y-93896184D01*
X151581703Y-93731772D01*
X151645853Y-93576900D01*
X151738985Y-93437519D01*
X151857519Y-93318985D01*
X151996900Y-93225853D01*
X152151772Y-93161703D01*
X152316184Y-93129000D01*
X152483816Y-93129000D01*
X152648228Y-93161703D01*
G37*
G36*
X152648228Y-90621703D02*
G01*
X152803100Y-90685853D01*
X152942481Y-90778985D01*
X153061015Y-90897519D01*
X153154147Y-91036900D01*
X153218297Y-91191772D01*
X153251000Y-91356184D01*
X153251000Y-91523816D01*
X153218297Y-91688228D01*
X153154147Y-91843100D01*
X153061015Y-91982481D01*
X152942481Y-92101015D01*
X152803100Y-92194147D01*
X152648228Y-92258297D01*
X152483816Y-92291000D01*
X152316184Y-92291000D01*
X152151772Y-92258297D01*
X151996900Y-92194147D01*
X151857519Y-92101015D01*
X151738985Y-91982481D01*
X151645853Y-91843100D01*
X151581703Y-91688228D01*
X151549000Y-91523816D01*
X151549000Y-91356184D01*
X151581703Y-91191772D01*
X151645853Y-91036900D01*
X151738985Y-90897519D01*
X151857519Y-90778985D01*
X151996900Y-90685853D01*
X152151772Y-90621703D01*
X152316184Y-90589000D01*
X152483816Y-90589000D01*
X152648228Y-90621703D01*
G37*
G36*
X138011000Y-92291000D02*
G01*
X136309000Y-92291000D01*
X136309000Y-90589000D01*
X138011000Y-90589000D01*
X138011000Y-92291000D01*
G37*
G36*
X155188228Y-90621703D02*
G01*
X155343100Y-90685853D01*
X155482481Y-90778985D01*
X155601015Y-90897519D01*
X155694147Y-91036900D01*
X155758297Y-91191772D01*
X155791000Y-91356184D01*
X155791000Y-91523816D01*
X155758297Y-91688228D01*
X155694147Y-91843100D01*
X155601015Y-91982481D01*
X155482481Y-92101015D01*
X155343100Y-92194147D01*
X155188228Y-92258297D01*
X155023816Y-92291000D01*
X154856184Y-92291000D01*
X154691772Y-92258297D01*
X154536900Y-92194147D01*
X154397519Y-92101015D01*
X154278985Y-91982481D01*
X154185853Y-91843100D01*
X154121703Y-91688228D01*
X154089000Y-91523816D01*
X154089000Y-91356184D01*
X154121703Y-91191772D01*
X154185853Y-91036900D01*
X154278985Y-90897519D01*
X154397519Y-90778985D01*
X154536900Y-90685853D01*
X154691772Y-90621703D01*
X154856184Y-90589000D01*
X155023816Y-90589000D01*
X155188228Y-90621703D01*
G37*
G36*
X139948228Y-90621703D02*
G01*
X140103100Y-90685853D01*
X140242481Y-90778985D01*
X140361015Y-90897519D01*
X140454147Y-91036900D01*
X140518297Y-91191772D01*
X140551000Y-91356184D01*
X140551000Y-91523816D01*
X140518297Y-91688228D01*
X140454147Y-91843100D01*
X140361015Y-91982481D01*
X140242481Y-92101015D01*
X140103100Y-92194147D01*
X139948228Y-92258297D01*
X139783816Y-92291000D01*
X139616184Y-92291000D01*
X139451772Y-92258297D01*
X139296900Y-92194147D01*
X139157519Y-92101015D01*
X139038985Y-91982481D01*
X138945853Y-91843100D01*
X138881703Y-91688228D01*
X138849000Y-91523816D01*
X138849000Y-91356184D01*
X138881703Y-91191772D01*
X138945853Y-91036900D01*
X139038985Y-90897519D01*
X139157519Y-90778985D01*
X139296900Y-90685853D01*
X139451772Y-90621703D01*
X139616184Y-90589000D01*
X139783816Y-90589000D01*
X139948228Y-90621703D01*
G37*
G36*
X155188228Y-88081703D02*
G01*
X155343100Y-88145853D01*
X155482481Y-88238985D01*
X155601015Y-88357519D01*
X155694147Y-88496900D01*
X155758297Y-88651772D01*
X155791000Y-88816184D01*
X155791000Y-88983816D01*
X155758297Y-89148228D01*
X155694147Y-89303100D01*
X155601015Y-89442481D01*
X155482481Y-89561015D01*
X155343100Y-89654147D01*
X155188228Y-89718297D01*
X155023816Y-89751000D01*
X154856184Y-89751000D01*
X154691772Y-89718297D01*
X154536900Y-89654147D01*
X154397519Y-89561015D01*
X154278985Y-89442481D01*
X154185853Y-89303100D01*
X154121703Y-89148228D01*
X154089000Y-88983816D01*
X154089000Y-88816184D01*
X154121703Y-88651772D01*
X154185853Y-88496900D01*
X154278985Y-88357519D01*
X154397519Y-88238985D01*
X154536900Y-88145853D01*
X154691772Y-88081703D01*
X154856184Y-88049000D01*
X155023816Y-88049000D01*
X155188228Y-88081703D01*
G37*
G36*
X139948228Y-88081703D02*
G01*
X140103100Y-88145853D01*
X140242481Y-88238985D01*
X140361015Y-88357519D01*
X140454147Y-88496900D01*
X140518297Y-88651772D01*
X140551000Y-88816184D01*
X140551000Y-88983816D01*
X140518297Y-89148228D01*
X140454147Y-89303100D01*
X140361015Y-89442481D01*
X140242481Y-89561015D01*
X140103100Y-89654147D01*
X139948228Y-89718297D01*
X139783816Y-89751000D01*
X139616184Y-89751000D01*
X139451772Y-89718297D01*
X139296900Y-89654147D01*
X139157519Y-89561015D01*
X139038985Y-89442481D01*
X138945853Y-89303100D01*
X138881703Y-89148228D01*
X138849000Y-88983816D01*
X138849000Y-88816184D01*
X138881703Y-88651772D01*
X138945853Y-88496900D01*
X139038985Y-88357519D01*
X139157519Y-88238985D01*
X139296900Y-88145853D01*
X139451772Y-88081703D01*
X139616184Y-88049000D01*
X139783816Y-88049000D01*
X139948228Y-88081703D01*
G37*
G36*
X155188228Y-85541703D02*
G01*
X155343100Y-85605853D01*
X155482481Y-85698985D01*
X155601015Y-85817519D01*
X155694147Y-85956900D01*
X155758297Y-86111772D01*
X155791000Y-86276184D01*
X155791000Y-86443816D01*
X155758297Y-86608228D01*
X155694147Y-86763100D01*
X155601015Y-86902481D01*
X155482481Y-87021015D01*
X155343100Y-87114147D01*
X155188228Y-87178297D01*
X155023816Y-87211000D01*
X154856184Y-87211000D01*
X154691772Y-87178297D01*
X154536900Y-87114147D01*
X154397519Y-87021015D01*
X154278985Y-86902481D01*
X154185853Y-86763100D01*
X154121703Y-86608228D01*
X154089000Y-86443816D01*
X154089000Y-86276184D01*
X154121703Y-86111772D01*
X154185853Y-85956900D01*
X154278985Y-85817519D01*
X154397519Y-85698985D01*
X154536900Y-85605853D01*
X154691772Y-85541703D01*
X154856184Y-85509000D01*
X155023816Y-85509000D01*
X155188228Y-85541703D01*
G37*
G36*
X140551000Y-87211000D02*
G01*
X138849000Y-87211000D01*
X138849000Y-85509000D01*
X140551000Y-85509000D01*
X140551000Y-87211000D01*
G37*
G36*
X151243512Y-81653927D02*
G01*
X151392812Y-81683624D01*
X151556784Y-81751544D01*
X151704354Y-81850147D01*
X151829853Y-81975646D01*
X151928456Y-82123216D01*
X151996376Y-82287188D01*
X152031000Y-82461259D01*
X152031000Y-82638741D01*
X151996376Y-82812812D01*
X151928456Y-82976784D01*
X151829853Y-83124354D01*
X151704354Y-83249853D01*
X151556784Y-83348456D01*
X151392812Y-83416376D01*
X151243512Y-83446073D01*
X151218742Y-83451000D01*
X151041258Y-83451000D01*
X151016488Y-83446073D01*
X150867188Y-83416376D01*
X150703216Y-83348456D01*
X150555646Y-83249853D01*
X150430147Y-83124354D01*
X150331544Y-82976784D01*
X150263624Y-82812812D01*
X150229000Y-82638741D01*
X150229000Y-82461259D01*
X150263624Y-82287188D01*
X150331544Y-82123216D01*
X150430147Y-81975646D01*
X150555646Y-81850147D01*
X150703216Y-81751544D01*
X150867188Y-81683624D01*
X151016488Y-81653927D01*
X151041258Y-81649000D01*
X151218742Y-81649000D01*
X151243512Y-81653927D01*
G37*
G36*
X153783512Y-81653927D02*
G01*
X153932812Y-81683624D01*
X154096784Y-81751544D01*
X154244354Y-81850147D01*
X154369853Y-81975646D01*
X154468456Y-82123216D01*
X154536376Y-82287188D01*
X154571000Y-82461259D01*
X154571000Y-82638741D01*
X154536376Y-82812812D01*
X154468456Y-82976784D01*
X154369853Y-83124354D01*
X154244354Y-83249853D01*
X154096784Y-83348456D01*
X153932812Y-83416376D01*
X153783512Y-83446073D01*
X153758742Y-83451000D01*
X153581258Y-83451000D01*
X153556488Y-83446073D01*
X153407188Y-83416376D01*
X153243216Y-83348456D01*
X153095646Y-83249853D01*
X152970147Y-83124354D01*
X152871544Y-82976784D01*
X152803624Y-82812812D01*
X152769000Y-82638741D01*
X152769000Y-82461259D01*
X152803624Y-82287188D01*
X152871544Y-82123216D01*
X152970147Y-81975646D01*
X153095646Y-81850147D01*
X153243216Y-81751544D01*
X153407188Y-81683624D01*
X153556488Y-81653927D01*
X153581258Y-81649000D01*
X153758742Y-81649000D01*
X153783512Y-81653927D01*
G37*
G36*
X148703512Y-81653927D02*
G01*
X148852812Y-81683624D01*
X149016784Y-81751544D01*
X149164354Y-81850147D01*
X149289853Y-81975646D01*
X149388456Y-82123216D01*
X149456376Y-82287188D01*
X149491000Y-82461259D01*
X149491000Y-82638741D01*
X149456376Y-82812812D01*
X149388456Y-82976784D01*
X149289853Y-83124354D01*
X149164354Y-83249853D01*
X149016784Y-83348456D01*
X148852812Y-83416376D01*
X148703512Y-83446073D01*
X148678742Y-83451000D01*
X148501258Y-83451000D01*
X148476488Y-83446073D01*
X148327188Y-83416376D01*
X148163216Y-83348456D01*
X148015646Y-83249853D01*
X147890147Y-83124354D01*
X147791544Y-82976784D01*
X147723624Y-82812812D01*
X147689000Y-82638741D01*
X147689000Y-82461259D01*
X147723624Y-82287188D01*
X147791544Y-82123216D01*
X147890147Y-81975646D01*
X148015646Y-81850147D01*
X148163216Y-81751544D01*
X148327188Y-81683624D01*
X148476488Y-81653927D01*
X148501258Y-81649000D01*
X148678742Y-81649000D01*
X148703512Y-81653927D01*
G37*
G36*
X146163512Y-81653927D02*
G01*
X146312812Y-81683624D01*
X146476784Y-81751544D01*
X146624354Y-81850147D01*
X146749853Y-81975646D01*
X146848456Y-82123216D01*
X146916376Y-82287188D01*
X146951000Y-82461259D01*
X146951000Y-82638741D01*
X146916376Y-82812812D01*
X146848456Y-82976784D01*
X146749853Y-83124354D01*
X146624354Y-83249853D01*
X146476784Y-83348456D01*
X146312812Y-83416376D01*
X146163512Y-83446073D01*
X146138742Y-83451000D01*
X145961258Y-83451000D01*
X145936488Y-83446073D01*
X145787188Y-83416376D01*
X145623216Y-83348456D01*
X145475646Y-83249853D01*
X145350147Y-83124354D01*
X145251544Y-82976784D01*
X145183624Y-82812812D01*
X145149000Y-82638741D01*
X145149000Y-82461259D01*
X145183624Y-82287188D01*
X145251544Y-82123216D01*
X145350147Y-81975646D01*
X145475646Y-81850147D01*
X145623216Y-81751544D01*
X145787188Y-81683624D01*
X145936488Y-81653927D01*
X145961258Y-81649000D01*
X146138742Y-81649000D01*
X146163512Y-81653927D01*
G37*
G36*
X143623512Y-81653927D02*
G01*
X143772812Y-81683624D01*
X143936784Y-81751544D01*
X144084354Y-81850147D01*
X144209853Y-81975646D01*
X144308456Y-82123216D01*
X144376376Y-82287188D01*
X144411000Y-82461259D01*
X144411000Y-82638741D01*
X144376376Y-82812812D01*
X144308456Y-82976784D01*
X144209853Y-83124354D01*
X144084354Y-83249853D01*
X143936784Y-83348456D01*
X143772812Y-83416376D01*
X143623512Y-83446073D01*
X143598742Y-83451000D01*
X143421258Y-83451000D01*
X143396488Y-83446073D01*
X143247188Y-83416376D01*
X143083216Y-83348456D01*
X142935646Y-83249853D01*
X142810147Y-83124354D01*
X142711544Y-82976784D01*
X142643624Y-82812812D01*
X142609000Y-82638741D01*
X142609000Y-82461259D01*
X142643624Y-82287188D01*
X142711544Y-82123216D01*
X142810147Y-81975646D01*
X142935646Y-81850147D01*
X143083216Y-81751544D01*
X143247188Y-81683624D01*
X143396488Y-81653927D01*
X143421258Y-81649000D01*
X143598742Y-81649000D01*
X143623512Y-81653927D01*
G37*
G36*
X141083512Y-81653927D02*
G01*
X141232812Y-81683624D01*
X141396784Y-81751544D01*
X141544354Y-81850147D01*
X141669853Y-81975646D01*
X141768456Y-82123216D01*
X141836376Y-82287188D01*
X141871000Y-82461259D01*
X141871000Y-82638741D01*
X141836376Y-82812812D01*
X141768456Y-82976784D01*
X141669853Y-83124354D01*
X141544354Y-83249853D01*
X141396784Y-83348456D01*
X141232812Y-83416376D01*
X141083512Y-83446073D01*
X141058742Y-83451000D01*
X140881258Y-83451000D01*
X140856488Y-83446073D01*
X140707188Y-83416376D01*
X140543216Y-83348456D01*
X140395646Y-83249853D01*
X140270147Y-83124354D01*
X140171544Y-82976784D01*
X140103624Y-82812812D01*
X140069000Y-82638741D01*
X140069000Y-82461259D01*
X140103624Y-82287188D01*
X140171544Y-82123216D01*
X140270147Y-81975646D01*
X140395646Y-81850147D01*
X140543216Y-81751544D01*
X140707188Y-81683624D01*
X140856488Y-81653927D01*
X140881258Y-81649000D01*
X141058742Y-81649000D01*
X141083512Y-81653927D01*
G37*
G36*
X139331000Y-83451000D02*
G01*
X137529000Y-83451000D01*
X137529000Y-81649000D01*
X139331000Y-81649000D01*
X139331000Y-83451000D01*
G37*
M02*
