%FSLAX45Y45*%
G04 Gerber Fmt 4.5, Leading zero omitted, Abs format (unit mm)*
G04 Created by KiCad (PCBNEW (5.1.2)-1) date 2020-02-06 22:00:10*
%MOMM*%
%LPD*%
G04 APERTURE LIST*
%ADD10C,0.050000*%
%ADD11C,0.200000*%
%ADD12C,0.300000*%
G04 APERTURE END LIST*
D10*
X17399000Y-6858000D02*
X17348200Y-6858000D01*
X17399000Y-10795000D02*
X17399000Y-6858000D01*
X15367000Y-10795000D02*
X17399000Y-10795000D01*
X15367000Y-6858000D02*
X15367000Y-10795000D01*
X15367000Y-6858000D02*
X17348200Y-6858000D01*
D11*
X15918500Y-7727000D02*
X15958500Y-7767000D01*
X15958500Y-7727000D02*
X15918500Y-7767000D01*
X15918500Y-8235000D02*
X15958500Y-8275000D01*
X15958500Y-8235000D02*
X15918500Y-8275000D01*
X16045500Y-7854000D02*
X16085500Y-7894000D01*
X16085500Y-7854000D02*
X16045500Y-7894000D01*
X16045500Y-8108000D02*
X16085500Y-8148000D01*
X16085500Y-8108000D02*
X16045500Y-8148000D01*
X16085500Y-8449000D02*
X16125500Y-8489000D01*
X16125500Y-8449000D02*
X16085500Y-8489000D01*
X16109000Y-9886000D02*
X16149000Y-9926000D01*
X16149000Y-9886000D02*
X16109000Y-9926000D01*
X16324900Y-7815900D02*
X16364900Y-7855900D01*
X16364900Y-7815900D02*
X16324900Y-7855900D01*
X16426500Y-8870000D02*
X16466500Y-8910000D01*
X16466500Y-8870000D02*
X16426500Y-8910000D01*
X16490000Y-8108000D02*
X16530000Y-8148000D01*
X16530000Y-8108000D02*
X16490000Y-8148000D01*
X16490000Y-9886000D02*
X16530000Y-9926000D01*
X16530000Y-9886000D02*
X16490000Y-9926000D01*
X16740500Y-9398000D02*
G75*
G03X16740500Y-9398000I-40000J0D01*
G01*
X16740500Y-10414000D02*
G75*
G03X16740500Y-10414000I-40000J0D01*
G01*
X16359500Y-9398000D02*
G75*
G03X16359500Y-9398000I-40000J0D01*
G01*
X16359500Y-10414000D02*
G75*
G03X16359500Y-10414000I-40000J0D01*
G01*
X16740500Y-7620000D02*
G75*
G03X16740500Y-7620000I-40000J0D01*
G01*
X16740500Y-8636000D02*
G75*
G03X16740500Y-8636000I-40000J0D01*
G01*
X15788000Y-7366000D02*
G75*
G03X15788000Y-7366000I-40000J0D01*
G01*
X15788000Y-7620000D02*
G75*
G03X15788000Y-7620000I-40000J0D01*
G01*
X15788000Y-7874000D02*
G75*
G03X15788000Y-7874000I-40000J0D01*
G01*
X15788000Y-8128000D02*
G75*
G03X15788000Y-8128000I-40000J0D01*
G01*
X15788000Y-8382000D02*
G75*
G03X15788000Y-8382000I-40000J0D01*
G01*
X15788000Y-8636000D02*
G75*
G03X15788000Y-8636000I-40000J0D01*
G01*
X15788000Y-8890000D02*
G75*
G03X15788000Y-8890000I-40000J0D01*
G01*
X15788000Y-9144000D02*
G75*
G03X15788000Y-9144000I-40000J0D01*
G01*
X15788000Y-9398000D02*
G75*
G03X15788000Y-9398000I-40000J0D01*
G01*
X15788000Y-9652000D02*
G75*
G03X15788000Y-9652000I-40000J0D01*
G01*
X15788000Y-9906000D02*
G75*
G03X15788000Y-9906000I-40000J0D01*
G01*
X15788000Y-10160000D02*
G75*
G03X15788000Y-10160000I-40000J0D01*
G01*
X15788000Y-10414000D02*
G75*
G03X15788000Y-10414000I-40000J0D01*
G01*
X15788000Y-10668000D02*
G75*
G03X15788000Y-10668000I-40000J0D01*
G01*
X17312000Y-7366000D02*
G75*
G03X17312000Y-7366000I-40000J0D01*
G01*
X17312000Y-7620000D02*
G75*
G03X17312000Y-7620000I-40000J0D01*
G01*
X17312000Y-7874000D02*
G75*
G03X17312000Y-7874000I-40000J0D01*
G01*
X17312000Y-8128000D02*
G75*
G03X17312000Y-8128000I-40000J0D01*
G01*
X17312000Y-8382000D02*
G75*
G03X17312000Y-8382000I-40000J0D01*
G01*
X17312000Y-8636000D02*
G75*
G03X17312000Y-8636000I-40000J0D01*
G01*
X17312000Y-8890000D02*
G75*
G03X17312000Y-8890000I-40000J0D01*
G01*
X17312000Y-9144000D02*
G75*
G03X17312000Y-9144000I-40000J0D01*
G01*
X17312000Y-9398000D02*
G75*
G03X17312000Y-9398000I-40000J0D01*
G01*
X17312000Y-9652000D02*
G75*
G03X17312000Y-9652000I-40000J0D01*
G01*
X17312000Y-9906000D02*
G75*
G03X17312000Y-9906000I-40000J0D01*
G01*
X17312000Y-10160000D02*
G75*
G03X17312000Y-10160000I-40000J0D01*
G01*
X17312000Y-10414000D02*
G75*
G03X17312000Y-10414000I-40000J0D01*
G01*
X17312000Y-10668000D02*
G75*
G03X17312000Y-10668000I-40000J0D01*
G01*
X16359500Y-7620000D02*
G75*
G03X16359500Y-7620000I-40000J0D01*
G01*
X16359500Y-8636000D02*
G75*
G03X16359500Y-8636000I-40000J0D01*
G01*
X15534000Y-7874000D02*
G75*
G03X15534000Y-7874000I-40000J0D01*
G01*
X15534000Y-8128000D02*
G75*
G03X15534000Y-8128000I-40000J0D01*
G01*
X15534000Y-8382000D02*
G75*
G03X15534000Y-8382000I-40000J0D01*
G01*
X15534000Y-8636000D02*
G75*
G03X15534000Y-8636000I-40000J0D01*
G01*
X15534000Y-8890000D02*
G75*
G03X15534000Y-8890000I-40000J0D01*
G01*
X15534000Y-9144000D02*
G75*
G03X15534000Y-9144000I-40000J0D01*
G01*
X15534000Y-9398000D02*
G75*
G03X15534000Y-9398000I-40000J0D01*
G01*
X15534000Y-9652000D02*
G75*
G03X15534000Y-9652000I-40000J0D01*
G01*
X15534000Y-9906000D02*
G75*
G03X15534000Y-9906000I-40000J0D01*
G01*
X15534000Y-10160000D02*
G75*
G03X15534000Y-10160000I-40000J0D01*
G01*
X15534000Y-10414000D02*
G75*
G03X15534000Y-10414000I-40000J0D01*
G01*
X15534000Y-10668000D02*
G75*
G03X15534000Y-10668000I-40000J0D01*
G01*
X17058000Y-7874000D02*
G75*
G03X17058000Y-7874000I-40000J0D01*
G01*
X17058000Y-8128000D02*
G75*
G03X17058000Y-8128000I-40000J0D01*
G01*
X17058000Y-8382000D02*
G75*
G03X17058000Y-8382000I-40000J0D01*
G01*
X17058000Y-8636000D02*
G75*
G03X17058000Y-8636000I-40000J0D01*
G01*
X17058000Y-8890000D02*
G75*
G03X17058000Y-8890000I-40000J0D01*
G01*
X17058000Y-9144000D02*
G75*
G03X17058000Y-9144000I-40000J0D01*
G01*
X17058000Y-9398000D02*
G75*
G03X17058000Y-9398000I-40000J0D01*
G01*
X17058000Y-9652000D02*
G75*
G03X17058000Y-9652000I-40000J0D01*
G01*
X17058000Y-9906000D02*
G75*
G03X17058000Y-9906000I-40000J0D01*
G01*
X17058000Y-10160000D02*
G75*
G03X17058000Y-10160000I-40000J0D01*
G01*
X17058000Y-10414000D02*
G75*
G03X17058000Y-10414000I-40000J0D01*
G01*
X17058000Y-10668000D02*
G75*
G03X17058000Y-10668000I-40000J0D01*
G01*
X15494000Y-6935000D02*
X15494000Y-7035000D01*
X15444000Y-6985000D02*
X15544000Y-6985000D01*
X15748000Y-6935000D02*
X15748000Y-7035000D01*
X15698000Y-6985000D02*
X15798000Y-6985000D01*
X16002000Y-6935000D02*
X16002000Y-7035000D01*
X15952000Y-6985000D02*
X16052000Y-6985000D01*
X16256000Y-6935000D02*
X16256000Y-7035000D01*
X16206000Y-6985000D02*
X16306000Y-6985000D01*
X16510000Y-6935000D02*
X16510000Y-7035000D01*
X16460000Y-6985000D02*
X16560000Y-6985000D01*
D12*
X15650928Y-11263214D02*
X15650928Y-10963214D01*
X15722357Y-10963214D01*
X15765214Y-10977500D01*
X15793786Y-11006072D01*
X15808071Y-11034643D01*
X15822357Y-11091786D01*
X15822357Y-11134643D01*
X15808071Y-11191786D01*
X15793786Y-11220357D01*
X15765214Y-11248929D01*
X15722357Y-11263214D01*
X15650928Y-11263214D01*
X15950928Y-11263214D02*
X15950928Y-11063214D01*
X15950928Y-11120357D02*
X15965214Y-11091786D01*
X15979500Y-11077500D01*
X16008071Y-11063214D01*
X16036643Y-11063214D01*
X16136643Y-11263214D02*
X16136643Y-11063214D01*
X16136643Y-10963214D02*
X16122357Y-10977500D01*
X16136643Y-10991786D01*
X16150928Y-10977500D01*
X16136643Y-10963214D01*
X16136643Y-10991786D01*
X16322357Y-11263214D02*
X16293786Y-11248929D01*
X16279500Y-11220357D01*
X16279500Y-10963214D01*
X16479500Y-11263214D02*
X16450928Y-11248929D01*
X16436643Y-11220357D01*
X16436643Y-10963214D01*
X16822357Y-11263214D02*
X16822357Y-10963214D01*
X16922357Y-11177500D01*
X17022357Y-10963214D01*
X17022357Y-11263214D01*
X17293786Y-11263214D02*
X17293786Y-11106072D01*
X17279500Y-11077500D01*
X17250928Y-11063214D01*
X17193786Y-11063214D01*
X17165214Y-11077500D01*
X17293786Y-11248929D02*
X17265214Y-11263214D01*
X17193786Y-11263214D01*
X17165214Y-11248929D01*
X17150928Y-11220357D01*
X17150928Y-11191786D01*
X17165214Y-11163214D01*
X17193786Y-11148929D01*
X17265214Y-11148929D01*
X17293786Y-11134643D01*
X17436643Y-11063214D02*
X17436643Y-11363214D01*
X17436643Y-11077500D02*
X17465214Y-11063214D01*
X17522357Y-11063214D01*
X17550928Y-11077500D01*
X17565214Y-11091786D01*
X17579500Y-11120357D01*
X17579500Y-11206071D01*
X17565214Y-11234643D01*
X17550928Y-11248929D01*
X17522357Y-11263214D01*
X17465214Y-11263214D01*
X17436643Y-11248929D01*
X17708071Y-11234643D02*
X17722357Y-11248929D01*
X17708071Y-11263214D01*
X17693786Y-11248929D01*
X17708071Y-11234643D01*
X17708071Y-11263214D01*
X17708071Y-11077500D02*
X17722357Y-11091786D01*
X17708071Y-11106072D01*
X17693786Y-11091786D01*
X17708071Y-11077500D01*
X17708071Y-11106072D01*
X15324500Y-11737500D02*
X15364500Y-11777500D01*
X15364500Y-11737500D02*
X15324500Y-11777500D01*
X15708071Y-11593214D02*
X15736643Y-11593214D01*
X15765214Y-11607500D01*
X15779500Y-11621786D01*
X15793786Y-11650357D01*
X15808071Y-11707500D01*
X15808071Y-11778929D01*
X15793786Y-11836071D01*
X15779500Y-11864643D01*
X15765214Y-11878929D01*
X15736643Y-11893214D01*
X15708071Y-11893214D01*
X15679500Y-11878929D01*
X15665214Y-11864643D01*
X15650928Y-11836071D01*
X15636643Y-11778929D01*
X15636643Y-11707500D01*
X15650928Y-11650357D01*
X15665214Y-11621786D01*
X15679500Y-11607500D01*
X15708071Y-11593214D01*
X15936643Y-11864643D02*
X15950928Y-11878929D01*
X15936643Y-11893214D01*
X15922357Y-11878929D01*
X15936643Y-11864643D01*
X15936643Y-11893214D01*
X16208071Y-11693214D02*
X16208071Y-11893214D01*
X16136643Y-11578929D02*
X16065214Y-11793214D01*
X16250928Y-11793214D01*
X16422357Y-11593214D02*
X16450928Y-11593214D01*
X16479500Y-11607500D01*
X16493786Y-11621786D01*
X16508071Y-11650357D01*
X16522357Y-11707500D01*
X16522357Y-11778929D01*
X16508071Y-11836071D01*
X16493786Y-11864643D01*
X16479500Y-11878929D01*
X16450928Y-11893214D01*
X16422357Y-11893214D01*
X16393786Y-11878929D01*
X16379500Y-11864643D01*
X16365214Y-11836071D01*
X16350928Y-11778929D01*
X16350928Y-11707500D01*
X16365214Y-11650357D01*
X16379500Y-11621786D01*
X16393786Y-11607500D01*
X16422357Y-11593214D01*
X16650928Y-11893214D02*
X16650928Y-11693214D01*
X16650928Y-11721786D02*
X16665214Y-11707500D01*
X16693786Y-11693214D01*
X16736643Y-11693214D01*
X16765214Y-11707500D01*
X16779500Y-11736071D01*
X16779500Y-11893214D01*
X16779500Y-11736071D02*
X16793786Y-11707500D01*
X16822357Y-11693214D01*
X16865214Y-11693214D01*
X16893786Y-11707500D01*
X16908071Y-11736071D01*
X16908071Y-11893214D01*
X17050928Y-11893214D02*
X17050928Y-11693214D01*
X17050928Y-11721786D02*
X17065214Y-11707500D01*
X17093786Y-11693214D01*
X17136643Y-11693214D01*
X17165214Y-11707500D01*
X17179500Y-11736071D01*
X17179500Y-11893214D01*
X17179500Y-11736071D02*
X17193786Y-11707500D01*
X17222357Y-11693214D01*
X17265214Y-11693214D01*
X17293786Y-11707500D01*
X17308071Y-11736071D01*
X17308071Y-11893214D01*
X17893786Y-11578929D02*
X17636643Y-11964643D01*
X18279500Y-11593214D02*
X18308071Y-11593214D01*
X18336643Y-11607500D01*
X18350928Y-11621786D01*
X18365214Y-11650357D01*
X18379500Y-11707500D01*
X18379500Y-11778929D01*
X18365214Y-11836071D01*
X18350928Y-11864643D01*
X18336643Y-11878929D01*
X18308071Y-11893214D01*
X18279500Y-11893214D01*
X18250928Y-11878929D01*
X18236643Y-11864643D01*
X18222357Y-11836071D01*
X18208071Y-11778929D01*
X18208071Y-11707500D01*
X18222357Y-11650357D01*
X18236643Y-11621786D01*
X18250928Y-11607500D01*
X18279500Y-11593214D01*
X18508071Y-11864643D02*
X18522357Y-11878929D01*
X18508071Y-11893214D01*
X18493786Y-11878929D01*
X18508071Y-11864643D01*
X18508071Y-11893214D01*
X18708071Y-11593214D02*
X18736643Y-11593214D01*
X18765214Y-11607500D01*
X18779500Y-11621786D01*
X18793786Y-11650357D01*
X18808071Y-11707500D01*
X18808071Y-11778929D01*
X18793786Y-11836071D01*
X18779500Y-11864643D01*
X18765214Y-11878929D01*
X18736643Y-11893214D01*
X18708071Y-11893214D01*
X18679500Y-11878929D01*
X18665214Y-11864643D01*
X18650928Y-11836071D01*
X18636643Y-11778929D01*
X18636643Y-11707500D01*
X18650928Y-11650357D01*
X18665214Y-11621786D01*
X18679500Y-11607500D01*
X18708071Y-11593214D01*
X19093786Y-11893214D02*
X18922357Y-11893214D01*
X19008071Y-11893214D02*
X19008071Y-11593214D01*
X18979500Y-11636071D01*
X18950928Y-11664643D01*
X18922357Y-11678929D01*
X19350928Y-11593214D02*
X19293786Y-11593214D01*
X19265214Y-11607500D01*
X19250928Y-11621786D01*
X19222357Y-11664643D01*
X19208071Y-11721786D01*
X19208071Y-11836071D01*
X19222357Y-11864643D01*
X19236643Y-11878929D01*
X19265214Y-11893214D01*
X19322357Y-11893214D01*
X19350928Y-11878929D01*
X19365214Y-11864643D01*
X19379500Y-11836071D01*
X19379500Y-11764643D01*
X19365214Y-11736071D01*
X19350928Y-11721786D01*
X19322357Y-11707500D01*
X19265214Y-11707500D01*
X19236643Y-11721786D01*
X19222357Y-11736071D01*
X19208071Y-11764643D01*
X19493786Y-11593214D02*
X19493786Y-11650357D01*
X19608071Y-11593214D02*
X19608071Y-11650357D01*
X20050928Y-12007500D02*
X20036643Y-11993214D01*
X20008071Y-11950357D01*
X19993786Y-11921786D01*
X19979500Y-11878929D01*
X19965214Y-11807500D01*
X19965214Y-11750357D01*
X19979500Y-11678929D01*
X19993786Y-11636071D01*
X20008071Y-11607500D01*
X20036643Y-11564643D01*
X20050928Y-11550357D01*
X20322357Y-11893214D02*
X20150928Y-11893214D01*
X20236643Y-11893214D02*
X20236643Y-11593214D01*
X20208071Y-11636071D01*
X20179500Y-11664643D01*
X20150928Y-11678929D01*
X20508071Y-11593214D02*
X20536643Y-11593214D01*
X20565214Y-11607500D01*
X20579500Y-11621786D01*
X20593786Y-11650357D01*
X20608071Y-11707500D01*
X20608071Y-11778929D01*
X20593786Y-11836071D01*
X20579500Y-11864643D01*
X20565214Y-11878929D01*
X20536643Y-11893214D01*
X20508071Y-11893214D01*
X20479500Y-11878929D01*
X20465214Y-11864643D01*
X20450928Y-11836071D01*
X20436643Y-11778929D01*
X20436643Y-11707500D01*
X20450928Y-11650357D01*
X20465214Y-11621786D01*
X20479500Y-11607500D01*
X20508071Y-11593214D01*
X20965214Y-11893214D02*
X20965214Y-11593214D01*
X21093786Y-11893214D02*
X21093786Y-11736071D01*
X21079500Y-11707500D01*
X21050928Y-11693214D01*
X21008071Y-11693214D01*
X20979500Y-11707500D01*
X20965214Y-11721786D01*
X21279500Y-11893214D02*
X21250928Y-11878929D01*
X21236643Y-11864643D01*
X21222357Y-11836071D01*
X21222357Y-11750357D01*
X21236643Y-11721786D01*
X21250928Y-11707500D01*
X21279500Y-11693214D01*
X21322357Y-11693214D01*
X21350928Y-11707500D01*
X21365214Y-11721786D01*
X21379500Y-11750357D01*
X21379500Y-11836071D01*
X21365214Y-11864643D01*
X21350928Y-11878929D01*
X21322357Y-11893214D01*
X21279500Y-11893214D01*
X21550928Y-11893214D02*
X21522357Y-11878929D01*
X21508071Y-11850357D01*
X21508071Y-11593214D01*
X21779500Y-11878929D02*
X21750928Y-11893214D01*
X21693786Y-11893214D01*
X21665214Y-11878929D01*
X21650928Y-11850357D01*
X21650928Y-11736071D01*
X21665214Y-11707500D01*
X21693786Y-11693214D01*
X21750928Y-11693214D01*
X21779500Y-11707500D01*
X21793786Y-11736071D01*
X21793786Y-11764643D01*
X21650928Y-11793214D01*
X21908071Y-11878929D02*
X21936643Y-11893214D01*
X21993786Y-11893214D01*
X22022357Y-11878929D01*
X22036643Y-11850357D01*
X22036643Y-11836071D01*
X22022357Y-11807500D01*
X21993786Y-11793214D01*
X21950928Y-11793214D01*
X21922357Y-11778929D01*
X21908071Y-11750357D01*
X21908071Y-11736071D01*
X21922357Y-11707500D01*
X21950928Y-11693214D01*
X21993786Y-11693214D01*
X22022357Y-11707500D01*
X22136643Y-12007500D02*
X22150928Y-11993214D01*
X22179500Y-11950357D01*
X22193786Y-11921786D01*
X22208071Y-11878929D01*
X22222357Y-11807500D01*
X22222357Y-11750357D01*
X22208071Y-11678929D01*
X22193786Y-11636071D01*
X22179500Y-11607500D01*
X22150928Y-11564643D01*
X22136643Y-11550357D01*
X15364500Y-12153500D02*
G75*
G03X15364500Y-12153500I-40000J0D01*
G01*
X15708071Y-11989214D02*
X15736643Y-11989214D01*
X15765214Y-12003500D01*
X15779500Y-12017786D01*
X15793786Y-12046357D01*
X15808071Y-12103500D01*
X15808071Y-12174929D01*
X15793786Y-12232071D01*
X15779500Y-12260643D01*
X15765214Y-12274929D01*
X15736643Y-12289214D01*
X15708071Y-12289214D01*
X15679500Y-12274929D01*
X15665214Y-12260643D01*
X15650928Y-12232071D01*
X15636643Y-12174929D01*
X15636643Y-12103500D01*
X15650928Y-12046357D01*
X15665214Y-12017786D01*
X15679500Y-12003500D01*
X15708071Y-11989214D01*
X15936643Y-12260643D02*
X15950928Y-12274929D01*
X15936643Y-12289214D01*
X15922357Y-12274929D01*
X15936643Y-12260643D01*
X15936643Y-12289214D01*
X16122357Y-12117786D02*
X16093786Y-12103500D01*
X16079500Y-12089214D01*
X16065214Y-12060643D01*
X16065214Y-12046357D01*
X16079500Y-12017786D01*
X16093786Y-12003500D01*
X16122357Y-11989214D01*
X16179500Y-11989214D01*
X16208071Y-12003500D01*
X16222357Y-12017786D01*
X16236643Y-12046357D01*
X16236643Y-12060643D01*
X16222357Y-12089214D01*
X16208071Y-12103500D01*
X16179500Y-12117786D01*
X16122357Y-12117786D01*
X16093786Y-12132071D01*
X16079500Y-12146357D01*
X16065214Y-12174929D01*
X16065214Y-12232071D01*
X16079500Y-12260643D01*
X16093786Y-12274929D01*
X16122357Y-12289214D01*
X16179500Y-12289214D01*
X16208071Y-12274929D01*
X16222357Y-12260643D01*
X16236643Y-12232071D01*
X16236643Y-12174929D01*
X16222357Y-12146357D01*
X16208071Y-12132071D01*
X16179500Y-12117786D01*
X16422357Y-11989214D02*
X16450928Y-11989214D01*
X16479500Y-12003500D01*
X16493786Y-12017786D01*
X16508071Y-12046357D01*
X16522357Y-12103500D01*
X16522357Y-12174929D01*
X16508071Y-12232071D01*
X16493786Y-12260643D01*
X16479500Y-12274929D01*
X16450928Y-12289214D01*
X16422357Y-12289214D01*
X16393786Y-12274929D01*
X16379500Y-12260643D01*
X16365214Y-12232071D01*
X16350928Y-12174929D01*
X16350928Y-12103500D01*
X16365214Y-12046357D01*
X16379500Y-12017786D01*
X16393786Y-12003500D01*
X16422357Y-11989214D01*
X16650928Y-12289214D02*
X16650928Y-12089214D01*
X16650928Y-12117786D02*
X16665214Y-12103500D01*
X16693786Y-12089214D01*
X16736643Y-12089214D01*
X16765214Y-12103500D01*
X16779500Y-12132071D01*
X16779500Y-12289214D01*
X16779500Y-12132071D02*
X16793786Y-12103500D01*
X16822357Y-12089214D01*
X16865214Y-12089214D01*
X16893786Y-12103500D01*
X16908071Y-12132071D01*
X16908071Y-12289214D01*
X17050928Y-12289214D02*
X17050928Y-12089214D01*
X17050928Y-12117786D02*
X17065214Y-12103500D01*
X17093786Y-12089214D01*
X17136643Y-12089214D01*
X17165214Y-12103500D01*
X17179500Y-12132071D01*
X17179500Y-12289214D01*
X17179500Y-12132071D02*
X17193786Y-12103500D01*
X17222357Y-12089214D01*
X17265214Y-12089214D01*
X17293786Y-12103500D01*
X17308071Y-12132071D01*
X17308071Y-12289214D01*
X17893786Y-11974929D02*
X17636643Y-12360643D01*
X18279500Y-11989214D02*
X18308071Y-11989214D01*
X18336643Y-12003500D01*
X18350928Y-12017786D01*
X18365214Y-12046357D01*
X18379500Y-12103500D01*
X18379500Y-12174929D01*
X18365214Y-12232071D01*
X18350928Y-12260643D01*
X18336643Y-12274929D01*
X18308071Y-12289214D01*
X18279500Y-12289214D01*
X18250928Y-12274929D01*
X18236643Y-12260643D01*
X18222357Y-12232071D01*
X18208071Y-12174929D01*
X18208071Y-12103500D01*
X18222357Y-12046357D01*
X18236643Y-12017786D01*
X18250928Y-12003500D01*
X18279500Y-11989214D01*
X18508071Y-12260643D02*
X18522357Y-12274929D01*
X18508071Y-12289214D01*
X18493786Y-12274929D01*
X18508071Y-12260643D01*
X18508071Y-12289214D01*
X18708071Y-11989214D02*
X18736643Y-11989214D01*
X18765214Y-12003500D01*
X18779500Y-12017786D01*
X18793786Y-12046357D01*
X18808071Y-12103500D01*
X18808071Y-12174929D01*
X18793786Y-12232071D01*
X18779500Y-12260643D01*
X18765214Y-12274929D01*
X18736643Y-12289214D01*
X18708071Y-12289214D01*
X18679500Y-12274929D01*
X18665214Y-12260643D01*
X18650928Y-12232071D01*
X18636643Y-12174929D01*
X18636643Y-12103500D01*
X18650928Y-12046357D01*
X18665214Y-12017786D01*
X18679500Y-12003500D01*
X18708071Y-11989214D01*
X18908071Y-11989214D02*
X19093786Y-11989214D01*
X18993786Y-12103500D01*
X19036643Y-12103500D01*
X19065214Y-12117786D01*
X19079500Y-12132071D01*
X19093786Y-12160643D01*
X19093786Y-12232071D01*
X19079500Y-12260643D01*
X19065214Y-12274929D01*
X19036643Y-12289214D01*
X18950928Y-12289214D01*
X18922357Y-12274929D01*
X18908071Y-12260643D01*
X19379500Y-12289214D02*
X19208071Y-12289214D01*
X19293786Y-12289214D02*
X19293786Y-11989214D01*
X19265214Y-12032071D01*
X19236643Y-12060643D01*
X19208071Y-12074929D01*
X19493786Y-11989214D02*
X19493786Y-12046357D01*
X19608071Y-11989214D02*
X19608071Y-12046357D01*
X20050928Y-12403500D02*
X20036643Y-12389214D01*
X20008071Y-12346357D01*
X19993786Y-12317786D01*
X19979500Y-12274929D01*
X19965214Y-12203500D01*
X19965214Y-12146357D01*
X19979500Y-12074929D01*
X19993786Y-12032071D01*
X20008071Y-12003500D01*
X20036643Y-11960643D01*
X20050928Y-11946357D01*
X20293786Y-11989214D02*
X20236643Y-11989214D01*
X20208071Y-12003500D01*
X20193786Y-12017786D01*
X20165214Y-12060643D01*
X20150928Y-12117786D01*
X20150928Y-12232071D01*
X20165214Y-12260643D01*
X20179500Y-12274929D01*
X20208071Y-12289214D01*
X20265214Y-12289214D01*
X20293786Y-12274929D01*
X20308071Y-12260643D01*
X20322357Y-12232071D01*
X20322357Y-12160643D01*
X20308071Y-12132071D01*
X20293786Y-12117786D01*
X20265214Y-12103500D01*
X20208071Y-12103500D01*
X20179500Y-12117786D01*
X20165214Y-12132071D01*
X20150928Y-12160643D01*
X20508071Y-11989214D02*
X20536643Y-11989214D01*
X20565214Y-12003500D01*
X20579500Y-12017786D01*
X20593786Y-12046357D01*
X20608071Y-12103500D01*
X20608071Y-12174929D01*
X20593786Y-12232071D01*
X20579500Y-12260643D01*
X20565214Y-12274929D01*
X20536643Y-12289214D01*
X20508071Y-12289214D01*
X20479500Y-12274929D01*
X20465214Y-12260643D01*
X20450928Y-12232071D01*
X20436643Y-12174929D01*
X20436643Y-12103500D01*
X20450928Y-12046357D01*
X20465214Y-12017786D01*
X20479500Y-12003500D01*
X20508071Y-11989214D01*
X20965214Y-12289214D02*
X20965214Y-11989214D01*
X21093786Y-12289214D02*
X21093786Y-12132071D01*
X21079500Y-12103500D01*
X21050928Y-12089214D01*
X21008071Y-12089214D01*
X20979500Y-12103500D01*
X20965214Y-12117786D01*
X21279500Y-12289214D02*
X21250928Y-12274929D01*
X21236643Y-12260643D01*
X21222357Y-12232071D01*
X21222357Y-12146357D01*
X21236643Y-12117786D01*
X21250928Y-12103500D01*
X21279500Y-12089214D01*
X21322357Y-12089214D01*
X21350928Y-12103500D01*
X21365214Y-12117786D01*
X21379500Y-12146357D01*
X21379500Y-12232071D01*
X21365214Y-12260643D01*
X21350928Y-12274929D01*
X21322357Y-12289214D01*
X21279500Y-12289214D01*
X21550928Y-12289214D02*
X21522357Y-12274929D01*
X21508071Y-12246357D01*
X21508071Y-11989214D01*
X21779500Y-12274929D02*
X21750928Y-12289214D01*
X21693786Y-12289214D01*
X21665214Y-12274929D01*
X21650928Y-12246357D01*
X21650928Y-12132071D01*
X21665214Y-12103500D01*
X21693786Y-12089214D01*
X21750928Y-12089214D01*
X21779500Y-12103500D01*
X21793786Y-12132071D01*
X21793786Y-12160643D01*
X21650928Y-12189214D01*
X21908071Y-12274929D02*
X21936643Y-12289214D01*
X21993786Y-12289214D01*
X22022357Y-12274929D01*
X22036643Y-12246357D01*
X22036643Y-12232071D01*
X22022357Y-12203500D01*
X21993786Y-12189214D01*
X21950928Y-12189214D01*
X21922357Y-12174929D01*
X21908071Y-12146357D01*
X21908071Y-12132071D01*
X21922357Y-12103500D01*
X21950928Y-12089214D01*
X21993786Y-12089214D01*
X22022357Y-12103500D01*
X22136643Y-12403500D02*
X22150928Y-12389214D01*
X22179500Y-12346357D01*
X22193786Y-12317786D01*
X22208071Y-12274929D01*
X22222357Y-12203500D01*
X22222357Y-12146357D01*
X22208071Y-12074929D01*
X22193786Y-12032071D01*
X22179500Y-12003500D01*
X22150928Y-11960643D01*
X22136643Y-11946357D01*
X15314500Y-12499500D02*
X15314500Y-12599500D01*
X15264500Y-12549500D02*
X15364500Y-12549500D01*
X15808071Y-12685214D02*
X15636643Y-12685214D01*
X15722357Y-12685214D02*
X15722357Y-12385214D01*
X15693786Y-12428071D01*
X15665214Y-12456643D01*
X15636643Y-12470929D01*
X15936643Y-12656643D02*
X15950928Y-12670929D01*
X15936643Y-12685214D01*
X15922357Y-12670929D01*
X15936643Y-12656643D01*
X15936643Y-12685214D01*
X16136643Y-12385214D02*
X16165214Y-12385214D01*
X16193786Y-12399500D01*
X16208071Y-12413786D01*
X16222357Y-12442357D01*
X16236643Y-12499500D01*
X16236643Y-12570929D01*
X16222357Y-12628071D01*
X16208071Y-12656643D01*
X16193786Y-12670929D01*
X16165214Y-12685214D01*
X16136643Y-12685214D01*
X16108071Y-12670929D01*
X16093786Y-12656643D01*
X16079500Y-12628071D01*
X16065214Y-12570929D01*
X16065214Y-12499500D01*
X16079500Y-12442357D01*
X16093786Y-12413786D01*
X16108071Y-12399500D01*
X16136643Y-12385214D01*
X16422357Y-12385214D02*
X16450928Y-12385214D01*
X16479500Y-12399500D01*
X16493786Y-12413786D01*
X16508071Y-12442357D01*
X16522357Y-12499500D01*
X16522357Y-12570929D01*
X16508071Y-12628071D01*
X16493786Y-12656643D01*
X16479500Y-12670929D01*
X16450928Y-12685214D01*
X16422357Y-12685214D01*
X16393786Y-12670929D01*
X16379500Y-12656643D01*
X16365214Y-12628071D01*
X16350928Y-12570929D01*
X16350928Y-12499500D01*
X16365214Y-12442357D01*
X16379500Y-12413786D01*
X16393786Y-12399500D01*
X16422357Y-12385214D01*
X16650928Y-12685214D02*
X16650928Y-12485214D01*
X16650928Y-12513786D02*
X16665214Y-12499500D01*
X16693786Y-12485214D01*
X16736643Y-12485214D01*
X16765214Y-12499500D01*
X16779500Y-12528071D01*
X16779500Y-12685214D01*
X16779500Y-12528071D02*
X16793786Y-12499500D01*
X16822357Y-12485214D01*
X16865214Y-12485214D01*
X16893786Y-12499500D01*
X16908071Y-12528071D01*
X16908071Y-12685214D01*
X17050928Y-12685214D02*
X17050928Y-12485214D01*
X17050928Y-12513786D02*
X17065214Y-12499500D01*
X17093786Y-12485214D01*
X17136643Y-12485214D01*
X17165214Y-12499500D01*
X17179500Y-12528071D01*
X17179500Y-12685214D01*
X17179500Y-12528071D02*
X17193786Y-12499500D01*
X17222357Y-12485214D01*
X17265214Y-12485214D01*
X17293786Y-12499500D01*
X17308071Y-12528071D01*
X17308071Y-12685214D01*
X17893786Y-12370929D02*
X17636643Y-12756643D01*
X18279500Y-12385214D02*
X18308071Y-12385214D01*
X18336643Y-12399500D01*
X18350928Y-12413786D01*
X18365214Y-12442357D01*
X18379500Y-12499500D01*
X18379500Y-12570929D01*
X18365214Y-12628071D01*
X18350928Y-12656643D01*
X18336643Y-12670929D01*
X18308071Y-12685214D01*
X18279500Y-12685214D01*
X18250928Y-12670929D01*
X18236643Y-12656643D01*
X18222357Y-12628071D01*
X18208071Y-12570929D01*
X18208071Y-12499500D01*
X18222357Y-12442357D01*
X18236643Y-12413786D01*
X18250928Y-12399500D01*
X18279500Y-12385214D01*
X18508071Y-12656643D02*
X18522357Y-12670929D01*
X18508071Y-12685214D01*
X18493786Y-12670929D01*
X18508071Y-12656643D01*
X18508071Y-12685214D01*
X18708071Y-12385214D02*
X18736643Y-12385214D01*
X18765214Y-12399500D01*
X18779500Y-12413786D01*
X18793786Y-12442357D01*
X18808071Y-12499500D01*
X18808071Y-12570929D01*
X18793786Y-12628071D01*
X18779500Y-12656643D01*
X18765214Y-12670929D01*
X18736643Y-12685214D01*
X18708071Y-12685214D01*
X18679500Y-12670929D01*
X18665214Y-12656643D01*
X18650928Y-12628071D01*
X18636643Y-12570929D01*
X18636643Y-12499500D01*
X18650928Y-12442357D01*
X18665214Y-12413786D01*
X18679500Y-12399500D01*
X18708071Y-12385214D01*
X18908071Y-12385214D02*
X19093786Y-12385214D01*
X18993786Y-12499500D01*
X19036643Y-12499500D01*
X19065214Y-12513786D01*
X19079500Y-12528071D01*
X19093786Y-12556643D01*
X19093786Y-12628071D01*
X19079500Y-12656643D01*
X19065214Y-12670929D01*
X19036643Y-12685214D01*
X18950928Y-12685214D01*
X18922357Y-12670929D01*
X18908071Y-12656643D01*
X19236643Y-12685214D02*
X19293786Y-12685214D01*
X19322357Y-12670929D01*
X19336643Y-12656643D01*
X19365214Y-12613786D01*
X19379500Y-12556643D01*
X19379500Y-12442357D01*
X19365214Y-12413786D01*
X19350928Y-12399500D01*
X19322357Y-12385214D01*
X19265214Y-12385214D01*
X19236643Y-12399500D01*
X19222357Y-12413786D01*
X19208071Y-12442357D01*
X19208071Y-12513786D01*
X19222357Y-12542357D01*
X19236643Y-12556643D01*
X19265214Y-12570929D01*
X19322357Y-12570929D01*
X19350928Y-12556643D01*
X19365214Y-12542357D01*
X19379500Y-12513786D01*
X19493786Y-12385214D02*
X19493786Y-12442357D01*
X19608071Y-12385214D02*
X19608071Y-12442357D01*
X20050928Y-12799500D02*
X20036643Y-12785214D01*
X20008071Y-12742357D01*
X19993786Y-12713786D01*
X19979500Y-12670929D01*
X19965214Y-12599500D01*
X19965214Y-12542357D01*
X19979500Y-12470929D01*
X19993786Y-12428071D01*
X20008071Y-12399500D01*
X20036643Y-12356643D01*
X20050928Y-12342357D01*
X20308071Y-12385214D02*
X20165214Y-12385214D01*
X20150928Y-12528071D01*
X20165214Y-12513786D01*
X20193786Y-12499500D01*
X20265214Y-12499500D01*
X20293786Y-12513786D01*
X20308071Y-12528071D01*
X20322357Y-12556643D01*
X20322357Y-12628071D01*
X20308071Y-12656643D01*
X20293786Y-12670929D01*
X20265214Y-12685214D01*
X20193786Y-12685214D01*
X20165214Y-12670929D01*
X20150928Y-12656643D01*
X20679500Y-12685214D02*
X20679500Y-12385214D01*
X20808071Y-12685214D02*
X20808071Y-12528071D01*
X20793786Y-12499500D01*
X20765214Y-12485214D01*
X20722357Y-12485214D01*
X20693786Y-12499500D01*
X20679500Y-12513786D01*
X20993786Y-12685214D02*
X20965214Y-12670929D01*
X20950928Y-12656643D01*
X20936643Y-12628071D01*
X20936643Y-12542357D01*
X20950928Y-12513786D01*
X20965214Y-12499500D01*
X20993786Y-12485214D01*
X21036643Y-12485214D01*
X21065214Y-12499500D01*
X21079500Y-12513786D01*
X21093786Y-12542357D01*
X21093786Y-12628071D01*
X21079500Y-12656643D01*
X21065214Y-12670929D01*
X21036643Y-12685214D01*
X20993786Y-12685214D01*
X21265214Y-12685214D02*
X21236643Y-12670929D01*
X21222357Y-12642357D01*
X21222357Y-12385214D01*
X21493786Y-12670929D02*
X21465214Y-12685214D01*
X21408071Y-12685214D01*
X21379500Y-12670929D01*
X21365214Y-12642357D01*
X21365214Y-12528071D01*
X21379500Y-12499500D01*
X21408071Y-12485214D01*
X21465214Y-12485214D01*
X21493786Y-12499500D01*
X21508071Y-12528071D01*
X21508071Y-12556643D01*
X21365214Y-12585214D01*
X21622357Y-12670929D02*
X21650928Y-12685214D01*
X21708071Y-12685214D01*
X21736643Y-12670929D01*
X21750928Y-12642357D01*
X21750928Y-12628071D01*
X21736643Y-12599500D01*
X21708071Y-12585214D01*
X21665214Y-12585214D01*
X21636643Y-12570929D01*
X21622357Y-12542357D01*
X21622357Y-12528071D01*
X21636643Y-12499500D01*
X21665214Y-12485214D01*
X21708071Y-12485214D01*
X21736643Y-12499500D01*
X21850928Y-12799500D02*
X21865214Y-12785214D01*
X21893786Y-12742357D01*
X21908071Y-12713786D01*
X21922357Y-12670929D01*
X21936643Y-12599500D01*
X21936643Y-12542357D01*
X21922357Y-12470929D01*
X21908071Y-12428071D01*
X21893786Y-12399500D01*
X21865214Y-12356643D01*
X21850928Y-12342357D01*
M02*
