G04 #@! TF.GenerationSoftware,KiCad,Pcbnew,(5.1.2)-1*
G04 #@! TF.CreationDate,2020-02-06T22:00:07-05:00*
G04 #@! TF.ProjectId,23xxxAdapter,32337878-7841-4646-9170-7465722e6b69,rev?*
G04 #@! TF.SameCoordinates,Original*
G04 #@! TF.FileFunction,Soldermask,Top*
G04 #@! TF.FilePolarity,Negative*
%FSLAX46Y46*%
G04 Gerber Fmt 4.6, Leading zero omitted, Abs format (unit mm)*
G04 Created by KiCad (PCBNEW (5.1.2)-1) date 2020-02-06 22:00:07*
%MOMM*%
%LPD*%
G04 APERTURE LIST*
%ADD10C,0.100000*%
G04 APERTURE END LIST*
D10*
G36*
X157646823Y-105841313D02*
G01*
X157807242Y-105889976D01*
X157939906Y-105960886D01*
X157955078Y-105968996D01*
X158084659Y-106075341D01*
X158191004Y-106204922D01*
X158191005Y-106204924D01*
X158270024Y-106352758D01*
X158318687Y-106513177D01*
X158335117Y-106680000D01*
X158318687Y-106846823D01*
X158270024Y-107007242D01*
X158199114Y-107139906D01*
X158191004Y-107155078D01*
X158084659Y-107284659D01*
X157955078Y-107391004D01*
X157955076Y-107391005D01*
X157807242Y-107470024D01*
X157646823Y-107518687D01*
X157521804Y-107531000D01*
X157438196Y-107531000D01*
X157313177Y-107518687D01*
X157152758Y-107470024D01*
X157004924Y-107391005D01*
X157004922Y-107391004D01*
X156875341Y-107284659D01*
X156768996Y-107155078D01*
X156760886Y-107139906D01*
X156689976Y-107007242D01*
X156641313Y-106846823D01*
X156624883Y-106680000D01*
X156641313Y-106513177D01*
X156689976Y-106352758D01*
X156768995Y-106204924D01*
X156768996Y-106204922D01*
X156875341Y-106075341D01*
X157004922Y-105968996D01*
X157020094Y-105960886D01*
X157152758Y-105889976D01*
X157313177Y-105841313D01*
X157438196Y-105829000D01*
X157521804Y-105829000D01*
X157646823Y-105841313D01*
X157646823Y-105841313D01*
G37*
G36*
X172886823Y-105841313D02*
G01*
X173047242Y-105889976D01*
X173179906Y-105960886D01*
X173195078Y-105968996D01*
X173324659Y-106075341D01*
X173431004Y-106204922D01*
X173431005Y-106204924D01*
X173510024Y-106352758D01*
X173558687Y-106513177D01*
X173575117Y-106680000D01*
X173558687Y-106846823D01*
X173510024Y-107007242D01*
X173439114Y-107139906D01*
X173431004Y-107155078D01*
X173324659Y-107284659D01*
X173195078Y-107391004D01*
X173195076Y-107391005D01*
X173047242Y-107470024D01*
X172886823Y-107518687D01*
X172761804Y-107531000D01*
X172678196Y-107531000D01*
X172553177Y-107518687D01*
X172392758Y-107470024D01*
X172244924Y-107391005D01*
X172244922Y-107391004D01*
X172115341Y-107284659D01*
X172008996Y-107155078D01*
X172000886Y-107139906D01*
X171929976Y-107007242D01*
X171881313Y-106846823D01*
X171864883Y-106680000D01*
X171881313Y-106513177D01*
X171929976Y-106352758D01*
X172008995Y-106204924D01*
X172008996Y-106204922D01*
X172115341Y-106075341D01*
X172244922Y-105968996D01*
X172260094Y-105960886D01*
X172392758Y-105889976D01*
X172553177Y-105841313D01*
X172678196Y-105829000D01*
X172761804Y-105829000D01*
X172886823Y-105841313D01*
X172886823Y-105841313D01*
G37*
G36*
X155106823Y-105841313D02*
G01*
X155267242Y-105889976D01*
X155399906Y-105960886D01*
X155415078Y-105968996D01*
X155544659Y-106075341D01*
X155651004Y-106204922D01*
X155651005Y-106204924D01*
X155730024Y-106352758D01*
X155778687Y-106513177D01*
X155795117Y-106680000D01*
X155778687Y-106846823D01*
X155730024Y-107007242D01*
X155659114Y-107139906D01*
X155651004Y-107155078D01*
X155544659Y-107284659D01*
X155415078Y-107391004D01*
X155415076Y-107391005D01*
X155267242Y-107470024D01*
X155106823Y-107518687D01*
X154981804Y-107531000D01*
X154898196Y-107531000D01*
X154773177Y-107518687D01*
X154612758Y-107470024D01*
X154464924Y-107391005D01*
X154464922Y-107391004D01*
X154335341Y-107284659D01*
X154228996Y-107155078D01*
X154220886Y-107139906D01*
X154149976Y-107007242D01*
X154101313Y-106846823D01*
X154084883Y-106680000D01*
X154101313Y-106513177D01*
X154149976Y-106352758D01*
X154228995Y-106204924D01*
X154228996Y-106204922D01*
X154335341Y-106075341D01*
X154464922Y-105968996D01*
X154480094Y-105960886D01*
X154612758Y-105889976D01*
X154773177Y-105841313D01*
X154898196Y-105829000D01*
X154981804Y-105829000D01*
X155106823Y-105841313D01*
X155106823Y-105841313D01*
G37*
G36*
X170346823Y-105841313D02*
G01*
X170507242Y-105889976D01*
X170639906Y-105960886D01*
X170655078Y-105968996D01*
X170784659Y-106075341D01*
X170891004Y-106204922D01*
X170891005Y-106204924D01*
X170970024Y-106352758D01*
X171018687Y-106513177D01*
X171035117Y-106680000D01*
X171018687Y-106846823D01*
X170970024Y-107007242D01*
X170899114Y-107139906D01*
X170891004Y-107155078D01*
X170784659Y-107284659D01*
X170655078Y-107391004D01*
X170655076Y-107391005D01*
X170507242Y-107470024D01*
X170346823Y-107518687D01*
X170221804Y-107531000D01*
X170138196Y-107531000D01*
X170013177Y-107518687D01*
X169852758Y-107470024D01*
X169704924Y-107391005D01*
X169704922Y-107391004D01*
X169575341Y-107284659D01*
X169468996Y-107155078D01*
X169460886Y-107139906D01*
X169389976Y-107007242D01*
X169341313Y-106846823D01*
X169324883Y-106680000D01*
X169341313Y-106513177D01*
X169389976Y-106352758D01*
X169468995Y-106204924D01*
X169468996Y-106204922D01*
X169575341Y-106075341D01*
X169704922Y-105968996D01*
X169720094Y-105960886D01*
X169852758Y-105889976D01*
X170013177Y-105841313D01*
X170138196Y-105829000D01*
X170221804Y-105829000D01*
X170346823Y-105841313D01*
X170346823Y-105841313D01*
G37*
G36*
X163443228Y-103321703D02*
G01*
X163598100Y-103385853D01*
X163737481Y-103478985D01*
X163856015Y-103597519D01*
X163949147Y-103736900D01*
X164013297Y-103891772D01*
X164046000Y-104056184D01*
X164046000Y-104223816D01*
X164013297Y-104388228D01*
X163949147Y-104543100D01*
X163856015Y-104682481D01*
X163737481Y-104801015D01*
X163598100Y-104894147D01*
X163443228Y-104958297D01*
X163278816Y-104991000D01*
X163111184Y-104991000D01*
X162946772Y-104958297D01*
X162791900Y-104894147D01*
X162652519Y-104801015D01*
X162533985Y-104682481D01*
X162440853Y-104543100D01*
X162376703Y-104388228D01*
X162344000Y-104223816D01*
X162344000Y-104056184D01*
X162376703Y-103891772D01*
X162440853Y-103736900D01*
X162533985Y-103597519D01*
X162652519Y-103478985D01*
X162791900Y-103385853D01*
X162946772Y-103321703D01*
X163111184Y-103289000D01*
X163278816Y-103289000D01*
X163443228Y-103321703D01*
X163443228Y-103321703D01*
G37*
G36*
X172886823Y-103301313D02*
G01*
X173047242Y-103349976D01*
X173114361Y-103385852D01*
X173195078Y-103428996D01*
X173324659Y-103535341D01*
X173431004Y-103664922D01*
X173431005Y-103664924D01*
X173510024Y-103812758D01*
X173558687Y-103973177D01*
X173575117Y-104140000D01*
X173558687Y-104306823D01*
X173510024Y-104467242D01*
X173469477Y-104543100D01*
X173431004Y-104615078D01*
X173324659Y-104744659D01*
X173195078Y-104851004D01*
X173195076Y-104851005D01*
X173047242Y-104930024D01*
X172886823Y-104978687D01*
X172761804Y-104991000D01*
X172678196Y-104991000D01*
X172553177Y-104978687D01*
X172392758Y-104930024D01*
X172244924Y-104851005D01*
X172244922Y-104851004D01*
X172115341Y-104744659D01*
X172008996Y-104615078D01*
X171970523Y-104543100D01*
X171929976Y-104467242D01*
X171881313Y-104306823D01*
X171864883Y-104140000D01*
X171881313Y-103973177D01*
X171929976Y-103812758D01*
X172008995Y-103664924D01*
X172008996Y-103664922D01*
X172115341Y-103535341D01*
X172244922Y-103428996D01*
X172325639Y-103385852D01*
X172392758Y-103349976D01*
X172553177Y-103301313D01*
X172678196Y-103289000D01*
X172761804Y-103289000D01*
X172886823Y-103301313D01*
X172886823Y-103301313D01*
G37*
G36*
X155106823Y-103301313D02*
G01*
X155267242Y-103349976D01*
X155334361Y-103385852D01*
X155415078Y-103428996D01*
X155544659Y-103535341D01*
X155651004Y-103664922D01*
X155651005Y-103664924D01*
X155730024Y-103812758D01*
X155778687Y-103973177D01*
X155795117Y-104140000D01*
X155778687Y-104306823D01*
X155730024Y-104467242D01*
X155689477Y-104543100D01*
X155651004Y-104615078D01*
X155544659Y-104744659D01*
X155415078Y-104851004D01*
X155415076Y-104851005D01*
X155267242Y-104930024D01*
X155106823Y-104978687D01*
X154981804Y-104991000D01*
X154898196Y-104991000D01*
X154773177Y-104978687D01*
X154612758Y-104930024D01*
X154464924Y-104851005D01*
X154464922Y-104851004D01*
X154335341Y-104744659D01*
X154228996Y-104615078D01*
X154190523Y-104543100D01*
X154149976Y-104467242D01*
X154101313Y-104306823D01*
X154084883Y-104140000D01*
X154101313Y-103973177D01*
X154149976Y-103812758D01*
X154228995Y-103664924D01*
X154228996Y-103664922D01*
X154335341Y-103535341D01*
X154464922Y-103428996D01*
X154545639Y-103385852D01*
X154612758Y-103349976D01*
X154773177Y-103301313D01*
X154898196Y-103289000D01*
X154981804Y-103289000D01*
X155106823Y-103301313D01*
X155106823Y-103301313D01*
G37*
G36*
X170346823Y-103301313D02*
G01*
X170507242Y-103349976D01*
X170574361Y-103385852D01*
X170655078Y-103428996D01*
X170784659Y-103535341D01*
X170891004Y-103664922D01*
X170891005Y-103664924D01*
X170970024Y-103812758D01*
X171018687Y-103973177D01*
X171035117Y-104140000D01*
X171018687Y-104306823D01*
X170970024Y-104467242D01*
X170929477Y-104543100D01*
X170891004Y-104615078D01*
X170784659Y-104744659D01*
X170655078Y-104851004D01*
X170655076Y-104851005D01*
X170507242Y-104930024D01*
X170346823Y-104978687D01*
X170221804Y-104991000D01*
X170138196Y-104991000D01*
X170013177Y-104978687D01*
X169852758Y-104930024D01*
X169704924Y-104851005D01*
X169704922Y-104851004D01*
X169575341Y-104744659D01*
X169468996Y-104615078D01*
X169430523Y-104543100D01*
X169389976Y-104467242D01*
X169341313Y-104306823D01*
X169324883Y-104140000D01*
X169341313Y-103973177D01*
X169389976Y-103812758D01*
X169468995Y-103664924D01*
X169468996Y-103664922D01*
X169575341Y-103535341D01*
X169704922Y-103428996D01*
X169785639Y-103385852D01*
X169852758Y-103349976D01*
X170013177Y-103301313D01*
X170138196Y-103289000D01*
X170221804Y-103289000D01*
X170346823Y-103301313D01*
X170346823Y-103301313D01*
G37*
G36*
X157646823Y-103301313D02*
G01*
X157807242Y-103349976D01*
X157874361Y-103385852D01*
X157955078Y-103428996D01*
X158084659Y-103535341D01*
X158191004Y-103664922D01*
X158191005Y-103664924D01*
X158270024Y-103812758D01*
X158318687Y-103973177D01*
X158335117Y-104140000D01*
X158318687Y-104306823D01*
X158270024Y-104467242D01*
X158229477Y-104543100D01*
X158191004Y-104615078D01*
X158084659Y-104744659D01*
X157955078Y-104851004D01*
X157955076Y-104851005D01*
X157807242Y-104930024D01*
X157646823Y-104978687D01*
X157521804Y-104991000D01*
X157438196Y-104991000D01*
X157313177Y-104978687D01*
X157152758Y-104930024D01*
X157004924Y-104851005D01*
X157004922Y-104851004D01*
X156875341Y-104744659D01*
X156768996Y-104615078D01*
X156730523Y-104543100D01*
X156689976Y-104467242D01*
X156641313Y-104306823D01*
X156624883Y-104140000D01*
X156641313Y-103973177D01*
X156689976Y-103812758D01*
X156768995Y-103664924D01*
X156768996Y-103664922D01*
X156875341Y-103535341D01*
X157004922Y-103428996D01*
X157085639Y-103385852D01*
X157152758Y-103349976D01*
X157313177Y-103301313D01*
X157438196Y-103289000D01*
X157521804Y-103289000D01*
X157646823Y-103301313D01*
X157646823Y-103301313D01*
G37*
G36*
X167253228Y-103321703D02*
G01*
X167408100Y-103385853D01*
X167547481Y-103478985D01*
X167666015Y-103597519D01*
X167759147Y-103736900D01*
X167823297Y-103891772D01*
X167856000Y-104056184D01*
X167856000Y-104223816D01*
X167823297Y-104388228D01*
X167759147Y-104543100D01*
X167666015Y-104682481D01*
X167547481Y-104801015D01*
X167408100Y-104894147D01*
X167253228Y-104958297D01*
X167088816Y-104991000D01*
X166921184Y-104991000D01*
X166756772Y-104958297D01*
X166601900Y-104894147D01*
X166462519Y-104801015D01*
X166343985Y-104682481D01*
X166250853Y-104543100D01*
X166186703Y-104388228D01*
X166154000Y-104223816D01*
X166154000Y-104056184D01*
X166186703Y-103891772D01*
X166250853Y-103736900D01*
X166343985Y-103597519D01*
X166462519Y-103478985D01*
X166601900Y-103385853D01*
X166756772Y-103321703D01*
X166921184Y-103289000D01*
X167088816Y-103289000D01*
X167253228Y-103321703D01*
X167253228Y-103321703D01*
G37*
G36*
X172886823Y-100761313D02*
G01*
X173047242Y-100809976D01*
X173179906Y-100880886D01*
X173195078Y-100888996D01*
X173324659Y-100995341D01*
X173431004Y-101124922D01*
X173431005Y-101124924D01*
X173510024Y-101272758D01*
X173558687Y-101433177D01*
X173575117Y-101600000D01*
X173558687Y-101766823D01*
X173510024Y-101927242D01*
X173439114Y-102059906D01*
X173431004Y-102075078D01*
X173324659Y-102204659D01*
X173195078Y-102311004D01*
X173195076Y-102311005D01*
X173047242Y-102390024D01*
X172886823Y-102438687D01*
X172761804Y-102451000D01*
X172678196Y-102451000D01*
X172553177Y-102438687D01*
X172392758Y-102390024D01*
X172244924Y-102311005D01*
X172244922Y-102311004D01*
X172115341Y-102204659D01*
X172008996Y-102075078D01*
X172000886Y-102059906D01*
X171929976Y-101927242D01*
X171881313Y-101766823D01*
X171864883Y-101600000D01*
X171881313Y-101433177D01*
X171929976Y-101272758D01*
X172008995Y-101124924D01*
X172008996Y-101124922D01*
X172115341Y-100995341D01*
X172244922Y-100888996D01*
X172260094Y-100880886D01*
X172392758Y-100809976D01*
X172553177Y-100761313D01*
X172678196Y-100749000D01*
X172761804Y-100749000D01*
X172886823Y-100761313D01*
X172886823Y-100761313D01*
G37*
G36*
X155106823Y-100761313D02*
G01*
X155267242Y-100809976D01*
X155399906Y-100880886D01*
X155415078Y-100888996D01*
X155544659Y-100995341D01*
X155651004Y-101124922D01*
X155651005Y-101124924D01*
X155730024Y-101272758D01*
X155778687Y-101433177D01*
X155795117Y-101600000D01*
X155778687Y-101766823D01*
X155730024Y-101927242D01*
X155659114Y-102059906D01*
X155651004Y-102075078D01*
X155544659Y-102204659D01*
X155415078Y-102311004D01*
X155415076Y-102311005D01*
X155267242Y-102390024D01*
X155106823Y-102438687D01*
X154981804Y-102451000D01*
X154898196Y-102451000D01*
X154773177Y-102438687D01*
X154612758Y-102390024D01*
X154464924Y-102311005D01*
X154464922Y-102311004D01*
X154335341Y-102204659D01*
X154228996Y-102075078D01*
X154220886Y-102059906D01*
X154149976Y-101927242D01*
X154101313Y-101766823D01*
X154084883Y-101600000D01*
X154101313Y-101433177D01*
X154149976Y-101272758D01*
X154228995Y-101124924D01*
X154228996Y-101124922D01*
X154335341Y-100995341D01*
X154464922Y-100888996D01*
X154480094Y-100880886D01*
X154612758Y-100809976D01*
X154773177Y-100761313D01*
X154898196Y-100749000D01*
X154981804Y-100749000D01*
X155106823Y-100761313D01*
X155106823Y-100761313D01*
G37*
G36*
X157646823Y-100761313D02*
G01*
X157807242Y-100809976D01*
X157939906Y-100880886D01*
X157955078Y-100888996D01*
X158084659Y-100995341D01*
X158191004Y-101124922D01*
X158191005Y-101124924D01*
X158270024Y-101272758D01*
X158318687Y-101433177D01*
X158335117Y-101600000D01*
X158318687Y-101766823D01*
X158270024Y-101927242D01*
X158199114Y-102059906D01*
X158191004Y-102075078D01*
X158084659Y-102204659D01*
X157955078Y-102311004D01*
X157955076Y-102311005D01*
X157807242Y-102390024D01*
X157646823Y-102438687D01*
X157521804Y-102451000D01*
X157438196Y-102451000D01*
X157313177Y-102438687D01*
X157152758Y-102390024D01*
X157004924Y-102311005D01*
X157004922Y-102311004D01*
X156875341Y-102204659D01*
X156768996Y-102075078D01*
X156760886Y-102059906D01*
X156689976Y-101927242D01*
X156641313Y-101766823D01*
X156624883Y-101600000D01*
X156641313Y-101433177D01*
X156689976Y-101272758D01*
X156768995Y-101124924D01*
X156768996Y-101124922D01*
X156875341Y-100995341D01*
X157004922Y-100888996D01*
X157020094Y-100880886D01*
X157152758Y-100809976D01*
X157313177Y-100761313D01*
X157438196Y-100749000D01*
X157521804Y-100749000D01*
X157646823Y-100761313D01*
X157646823Y-100761313D01*
G37*
G36*
X170346823Y-100761313D02*
G01*
X170507242Y-100809976D01*
X170639906Y-100880886D01*
X170655078Y-100888996D01*
X170784659Y-100995341D01*
X170891004Y-101124922D01*
X170891005Y-101124924D01*
X170970024Y-101272758D01*
X171018687Y-101433177D01*
X171035117Y-101600000D01*
X171018687Y-101766823D01*
X170970024Y-101927242D01*
X170899114Y-102059906D01*
X170891004Y-102075078D01*
X170784659Y-102204659D01*
X170655078Y-102311004D01*
X170655076Y-102311005D01*
X170507242Y-102390024D01*
X170346823Y-102438687D01*
X170221804Y-102451000D01*
X170138196Y-102451000D01*
X170013177Y-102438687D01*
X169852758Y-102390024D01*
X169704924Y-102311005D01*
X169704922Y-102311004D01*
X169575341Y-102204659D01*
X169468996Y-102075078D01*
X169460886Y-102059906D01*
X169389976Y-101927242D01*
X169341313Y-101766823D01*
X169324883Y-101600000D01*
X169341313Y-101433177D01*
X169389976Y-101272758D01*
X169468995Y-101124924D01*
X169468996Y-101124922D01*
X169575341Y-100995341D01*
X169704922Y-100888996D01*
X169720094Y-100880886D01*
X169852758Y-100809976D01*
X170013177Y-100761313D01*
X170138196Y-100749000D01*
X170221804Y-100749000D01*
X170346823Y-100761313D01*
X170346823Y-100761313D01*
G37*
G36*
X155106823Y-98221313D02*
G01*
X155267242Y-98269976D01*
X155399906Y-98340886D01*
X155415078Y-98348996D01*
X155544659Y-98455341D01*
X155651004Y-98584922D01*
X155651005Y-98584924D01*
X155730024Y-98732758D01*
X155778687Y-98893177D01*
X155795117Y-99060000D01*
X155778687Y-99226823D01*
X155730024Y-99387242D01*
X155659114Y-99519906D01*
X155651004Y-99535078D01*
X155544659Y-99664659D01*
X155415078Y-99771004D01*
X155415076Y-99771005D01*
X155267242Y-99850024D01*
X155106823Y-99898687D01*
X154981804Y-99911000D01*
X154898196Y-99911000D01*
X154773177Y-99898687D01*
X154612758Y-99850024D01*
X154464924Y-99771005D01*
X154464922Y-99771004D01*
X154335341Y-99664659D01*
X154228996Y-99535078D01*
X154220886Y-99519906D01*
X154149976Y-99387242D01*
X154101313Y-99226823D01*
X154084883Y-99060000D01*
X154101313Y-98893177D01*
X154149976Y-98732758D01*
X154228995Y-98584924D01*
X154228996Y-98584922D01*
X154335341Y-98455341D01*
X154464922Y-98348996D01*
X154480094Y-98340886D01*
X154612758Y-98269976D01*
X154773177Y-98221313D01*
X154898196Y-98209000D01*
X154981804Y-98209000D01*
X155106823Y-98221313D01*
X155106823Y-98221313D01*
G37*
G36*
X157646823Y-98221313D02*
G01*
X157807242Y-98269976D01*
X157939906Y-98340886D01*
X157955078Y-98348996D01*
X158084659Y-98455341D01*
X158191004Y-98584922D01*
X158191005Y-98584924D01*
X158270024Y-98732758D01*
X158318687Y-98893177D01*
X158335117Y-99060000D01*
X158318687Y-99226823D01*
X158270024Y-99387242D01*
X158199114Y-99519906D01*
X158191004Y-99535078D01*
X158084659Y-99664659D01*
X157955078Y-99771004D01*
X157955076Y-99771005D01*
X157807242Y-99850024D01*
X157646823Y-99898687D01*
X157521804Y-99911000D01*
X157438196Y-99911000D01*
X157313177Y-99898687D01*
X157152758Y-99850024D01*
X157004924Y-99771005D01*
X157004922Y-99771004D01*
X156875341Y-99664659D01*
X156768996Y-99535078D01*
X156760886Y-99519906D01*
X156689976Y-99387242D01*
X156641313Y-99226823D01*
X156624883Y-99060000D01*
X156641313Y-98893177D01*
X156689976Y-98732758D01*
X156768995Y-98584924D01*
X156768996Y-98584922D01*
X156875341Y-98455341D01*
X157004922Y-98348996D01*
X157020094Y-98340886D01*
X157152758Y-98269976D01*
X157313177Y-98221313D01*
X157438196Y-98209000D01*
X157521804Y-98209000D01*
X157646823Y-98221313D01*
X157646823Y-98221313D01*
G37*
G36*
X172886823Y-98221313D02*
G01*
X173047242Y-98269976D01*
X173179906Y-98340886D01*
X173195078Y-98348996D01*
X173324659Y-98455341D01*
X173431004Y-98584922D01*
X173431005Y-98584924D01*
X173510024Y-98732758D01*
X173558687Y-98893177D01*
X173575117Y-99060000D01*
X173558687Y-99226823D01*
X173510024Y-99387242D01*
X173439114Y-99519906D01*
X173431004Y-99535078D01*
X173324659Y-99664659D01*
X173195078Y-99771004D01*
X173195076Y-99771005D01*
X173047242Y-99850024D01*
X172886823Y-99898687D01*
X172761804Y-99911000D01*
X172678196Y-99911000D01*
X172553177Y-99898687D01*
X172392758Y-99850024D01*
X172244924Y-99771005D01*
X172244922Y-99771004D01*
X172115341Y-99664659D01*
X172008996Y-99535078D01*
X172000886Y-99519906D01*
X171929976Y-99387242D01*
X171881313Y-99226823D01*
X171864883Y-99060000D01*
X171881313Y-98893177D01*
X171929976Y-98732758D01*
X172008995Y-98584924D01*
X172008996Y-98584922D01*
X172115341Y-98455341D01*
X172244922Y-98348996D01*
X172260094Y-98340886D01*
X172392758Y-98269976D01*
X172553177Y-98221313D01*
X172678196Y-98209000D01*
X172761804Y-98209000D01*
X172886823Y-98221313D01*
X172886823Y-98221313D01*
G37*
G36*
X170346823Y-98221313D02*
G01*
X170507242Y-98269976D01*
X170639906Y-98340886D01*
X170655078Y-98348996D01*
X170784659Y-98455341D01*
X170891004Y-98584922D01*
X170891005Y-98584924D01*
X170970024Y-98732758D01*
X171018687Y-98893177D01*
X171035117Y-99060000D01*
X171018687Y-99226823D01*
X170970024Y-99387242D01*
X170899114Y-99519906D01*
X170891004Y-99535078D01*
X170784659Y-99664659D01*
X170655078Y-99771004D01*
X170655076Y-99771005D01*
X170507242Y-99850024D01*
X170346823Y-99898687D01*
X170221804Y-99911000D01*
X170138196Y-99911000D01*
X170013177Y-99898687D01*
X169852758Y-99850024D01*
X169704924Y-99771005D01*
X169704922Y-99771004D01*
X169575341Y-99664659D01*
X169468996Y-99535078D01*
X169460886Y-99519906D01*
X169389976Y-99387242D01*
X169341313Y-99226823D01*
X169324883Y-99060000D01*
X169341313Y-98893177D01*
X169389976Y-98732758D01*
X169468995Y-98584924D01*
X169468996Y-98584922D01*
X169575341Y-98455341D01*
X169704922Y-98348996D01*
X169720094Y-98340886D01*
X169852758Y-98269976D01*
X170013177Y-98221313D01*
X170138196Y-98209000D01*
X170221804Y-98209000D01*
X170346823Y-98221313D01*
X170346823Y-98221313D01*
G37*
G36*
X157646823Y-95681313D02*
G01*
X157807242Y-95729976D01*
X157939906Y-95800886D01*
X157955078Y-95808996D01*
X158084659Y-95915341D01*
X158191004Y-96044922D01*
X158191005Y-96044924D01*
X158270024Y-96192758D01*
X158318687Y-96353177D01*
X158335117Y-96520000D01*
X158318687Y-96686823D01*
X158270024Y-96847242D01*
X158199114Y-96979906D01*
X158191004Y-96995078D01*
X158084659Y-97124659D01*
X157955078Y-97231004D01*
X157955076Y-97231005D01*
X157807242Y-97310024D01*
X157646823Y-97358687D01*
X157521804Y-97371000D01*
X157438196Y-97371000D01*
X157313177Y-97358687D01*
X157152758Y-97310024D01*
X157004924Y-97231005D01*
X157004922Y-97231004D01*
X156875341Y-97124659D01*
X156768996Y-96995078D01*
X156760886Y-96979906D01*
X156689976Y-96847242D01*
X156641313Y-96686823D01*
X156624883Y-96520000D01*
X156641313Y-96353177D01*
X156689976Y-96192758D01*
X156768995Y-96044924D01*
X156768996Y-96044922D01*
X156875341Y-95915341D01*
X157004922Y-95808996D01*
X157020094Y-95800886D01*
X157152758Y-95729976D01*
X157313177Y-95681313D01*
X157438196Y-95669000D01*
X157521804Y-95669000D01*
X157646823Y-95681313D01*
X157646823Y-95681313D01*
G37*
G36*
X155106823Y-95681313D02*
G01*
X155267242Y-95729976D01*
X155399906Y-95800886D01*
X155415078Y-95808996D01*
X155544659Y-95915341D01*
X155651004Y-96044922D01*
X155651005Y-96044924D01*
X155730024Y-96192758D01*
X155778687Y-96353177D01*
X155795117Y-96520000D01*
X155778687Y-96686823D01*
X155730024Y-96847242D01*
X155659114Y-96979906D01*
X155651004Y-96995078D01*
X155544659Y-97124659D01*
X155415078Y-97231004D01*
X155415076Y-97231005D01*
X155267242Y-97310024D01*
X155106823Y-97358687D01*
X154981804Y-97371000D01*
X154898196Y-97371000D01*
X154773177Y-97358687D01*
X154612758Y-97310024D01*
X154464924Y-97231005D01*
X154464922Y-97231004D01*
X154335341Y-97124659D01*
X154228996Y-96995078D01*
X154220886Y-96979906D01*
X154149976Y-96847242D01*
X154101313Y-96686823D01*
X154084883Y-96520000D01*
X154101313Y-96353177D01*
X154149976Y-96192758D01*
X154228995Y-96044924D01*
X154228996Y-96044922D01*
X154335341Y-95915341D01*
X154464922Y-95808996D01*
X154480094Y-95800886D01*
X154612758Y-95729976D01*
X154773177Y-95681313D01*
X154898196Y-95669000D01*
X154981804Y-95669000D01*
X155106823Y-95681313D01*
X155106823Y-95681313D01*
G37*
G36*
X170346823Y-95681313D02*
G01*
X170507242Y-95729976D01*
X170639906Y-95800886D01*
X170655078Y-95808996D01*
X170784659Y-95915341D01*
X170891004Y-96044922D01*
X170891005Y-96044924D01*
X170970024Y-96192758D01*
X171018687Y-96353177D01*
X171035117Y-96520000D01*
X171018687Y-96686823D01*
X170970024Y-96847242D01*
X170899114Y-96979906D01*
X170891004Y-96995078D01*
X170784659Y-97124659D01*
X170655078Y-97231004D01*
X170655076Y-97231005D01*
X170507242Y-97310024D01*
X170346823Y-97358687D01*
X170221804Y-97371000D01*
X170138196Y-97371000D01*
X170013177Y-97358687D01*
X169852758Y-97310024D01*
X169704924Y-97231005D01*
X169704922Y-97231004D01*
X169575341Y-97124659D01*
X169468996Y-96995078D01*
X169460886Y-96979906D01*
X169389976Y-96847242D01*
X169341313Y-96686823D01*
X169324883Y-96520000D01*
X169341313Y-96353177D01*
X169389976Y-96192758D01*
X169468995Y-96044924D01*
X169468996Y-96044922D01*
X169575341Y-95915341D01*
X169704922Y-95808996D01*
X169720094Y-95800886D01*
X169852758Y-95729976D01*
X170013177Y-95681313D01*
X170138196Y-95669000D01*
X170221804Y-95669000D01*
X170346823Y-95681313D01*
X170346823Y-95681313D01*
G37*
G36*
X172886823Y-95681313D02*
G01*
X173047242Y-95729976D01*
X173179906Y-95800886D01*
X173195078Y-95808996D01*
X173324659Y-95915341D01*
X173431004Y-96044922D01*
X173431005Y-96044924D01*
X173510024Y-96192758D01*
X173558687Y-96353177D01*
X173575117Y-96520000D01*
X173558687Y-96686823D01*
X173510024Y-96847242D01*
X173439114Y-96979906D01*
X173431004Y-96995078D01*
X173324659Y-97124659D01*
X173195078Y-97231004D01*
X173195076Y-97231005D01*
X173047242Y-97310024D01*
X172886823Y-97358687D01*
X172761804Y-97371000D01*
X172678196Y-97371000D01*
X172553177Y-97358687D01*
X172392758Y-97310024D01*
X172244924Y-97231005D01*
X172244922Y-97231004D01*
X172115341Y-97124659D01*
X172008996Y-96995078D01*
X172000886Y-96979906D01*
X171929976Y-96847242D01*
X171881313Y-96686823D01*
X171864883Y-96520000D01*
X171881313Y-96353177D01*
X171929976Y-96192758D01*
X172008995Y-96044924D01*
X172008996Y-96044922D01*
X172115341Y-95915341D01*
X172244922Y-95808996D01*
X172260094Y-95800886D01*
X172392758Y-95729976D01*
X172553177Y-95681313D01*
X172678196Y-95669000D01*
X172761804Y-95669000D01*
X172886823Y-95681313D01*
X172886823Y-95681313D01*
G37*
G36*
X170346823Y-93141313D02*
G01*
X170507242Y-93189976D01*
X170639906Y-93260886D01*
X170655078Y-93268996D01*
X170784659Y-93375341D01*
X170891004Y-93504922D01*
X170891005Y-93504924D01*
X170970024Y-93652758D01*
X171018687Y-93813177D01*
X171035117Y-93980000D01*
X171018687Y-94146823D01*
X170970024Y-94307242D01*
X170899114Y-94439906D01*
X170891004Y-94455078D01*
X170784659Y-94584659D01*
X170655078Y-94691004D01*
X170655076Y-94691005D01*
X170507242Y-94770024D01*
X170346823Y-94818687D01*
X170221804Y-94831000D01*
X170138196Y-94831000D01*
X170013177Y-94818687D01*
X169852758Y-94770024D01*
X169704924Y-94691005D01*
X169704922Y-94691004D01*
X169575341Y-94584659D01*
X169468996Y-94455078D01*
X169460886Y-94439906D01*
X169389976Y-94307242D01*
X169341313Y-94146823D01*
X169324883Y-93980000D01*
X169341313Y-93813177D01*
X169389976Y-93652758D01*
X169468995Y-93504924D01*
X169468996Y-93504922D01*
X169575341Y-93375341D01*
X169704922Y-93268996D01*
X169720094Y-93260886D01*
X169852758Y-93189976D01*
X170013177Y-93141313D01*
X170138196Y-93129000D01*
X170221804Y-93129000D01*
X170346823Y-93141313D01*
X170346823Y-93141313D01*
G37*
G36*
X167171823Y-93141313D02*
G01*
X167332242Y-93189976D01*
X167464906Y-93260886D01*
X167480078Y-93268996D01*
X167609659Y-93375341D01*
X167716004Y-93504922D01*
X167716005Y-93504924D01*
X167795024Y-93652758D01*
X167843687Y-93813177D01*
X167860117Y-93980000D01*
X167843687Y-94146823D01*
X167795024Y-94307242D01*
X167724114Y-94439906D01*
X167716004Y-94455078D01*
X167609659Y-94584659D01*
X167480078Y-94691004D01*
X167480076Y-94691005D01*
X167332242Y-94770024D01*
X167171823Y-94818687D01*
X167046804Y-94831000D01*
X166963196Y-94831000D01*
X166838177Y-94818687D01*
X166677758Y-94770024D01*
X166529924Y-94691005D01*
X166529922Y-94691004D01*
X166400341Y-94584659D01*
X166293996Y-94455078D01*
X166285886Y-94439906D01*
X166214976Y-94307242D01*
X166166313Y-94146823D01*
X166149883Y-93980000D01*
X166166313Y-93813177D01*
X166214976Y-93652758D01*
X166293995Y-93504924D01*
X166293996Y-93504922D01*
X166400341Y-93375341D01*
X166529922Y-93268996D01*
X166545094Y-93260886D01*
X166677758Y-93189976D01*
X166838177Y-93141313D01*
X166963196Y-93129000D01*
X167046804Y-93129000D01*
X167171823Y-93141313D01*
X167171823Y-93141313D01*
G37*
G36*
X155106823Y-93141313D02*
G01*
X155267242Y-93189976D01*
X155399906Y-93260886D01*
X155415078Y-93268996D01*
X155544659Y-93375341D01*
X155651004Y-93504922D01*
X155651005Y-93504924D01*
X155730024Y-93652758D01*
X155778687Y-93813177D01*
X155795117Y-93980000D01*
X155778687Y-94146823D01*
X155730024Y-94307242D01*
X155659114Y-94439906D01*
X155651004Y-94455078D01*
X155544659Y-94584659D01*
X155415078Y-94691004D01*
X155415076Y-94691005D01*
X155267242Y-94770024D01*
X155106823Y-94818687D01*
X154981804Y-94831000D01*
X154898196Y-94831000D01*
X154773177Y-94818687D01*
X154612758Y-94770024D01*
X154464924Y-94691005D01*
X154464922Y-94691004D01*
X154335341Y-94584659D01*
X154228996Y-94455078D01*
X154220886Y-94439906D01*
X154149976Y-94307242D01*
X154101313Y-94146823D01*
X154084883Y-93980000D01*
X154101313Y-93813177D01*
X154149976Y-93652758D01*
X154228995Y-93504924D01*
X154228996Y-93504922D01*
X154335341Y-93375341D01*
X154464922Y-93268996D01*
X154480094Y-93260886D01*
X154612758Y-93189976D01*
X154773177Y-93141313D01*
X154898196Y-93129000D01*
X154981804Y-93129000D01*
X155106823Y-93141313D01*
X155106823Y-93141313D01*
G37*
G36*
X163361823Y-93141313D02*
G01*
X163522242Y-93189976D01*
X163654906Y-93260886D01*
X163670078Y-93268996D01*
X163799659Y-93375341D01*
X163906004Y-93504922D01*
X163906005Y-93504924D01*
X163985024Y-93652758D01*
X164033687Y-93813177D01*
X164050117Y-93980000D01*
X164033687Y-94146823D01*
X163985024Y-94307242D01*
X163914114Y-94439906D01*
X163906004Y-94455078D01*
X163799659Y-94584659D01*
X163670078Y-94691004D01*
X163670076Y-94691005D01*
X163522242Y-94770024D01*
X163361823Y-94818687D01*
X163236804Y-94831000D01*
X163153196Y-94831000D01*
X163028177Y-94818687D01*
X162867758Y-94770024D01*
X162719924Y-94691005D01*
X162719922Y-94691004D01*
X162590341Y-94584659D01*
X162483996Y-94455078D01*
X162475886Y-94439906D01*
X162404976Y-94307242D01*
X162356313Y-94146823D01*
X162339883Y-93980000D01*
X162356313Y-93813177D01*
X162404976Y-93652758D01*
X162483995Y-93504924D01*
X162483996Y-93504922D01*
X162590341Y-93375341D01*
X162719922Y-93268996D01*
X162735094Y-93260886D01*
X162867758Y-93189976D01*
X163028177Y-93141313D01*
X163153196Y-93129000D01*
X163236804Y-93129000D01*
X163361823Y-93141313D01*
X163361823Y-93141313D01*
G37*
G36*
X157646823Y-93141313D02*
G01*
X157807242Y-93189976D01*
X157939906Y-93260886D01*
X157955078Y-93268996D01*
X158084659Y-93375341D01*
X158191004Y-93504922D01*
X158191005Y-93504924D01*
X158270024Y-93652758D01*
X158318687Y-93813177D01*
X158335117Y-93980000D01*
X158318687Y-94146823D01*
X158270024Y-94307242D01*
X158199114Y-94439906D01*
X158191004Y-94455078D01*
X158084659Y-94584659D01*
X157955078Y-94691004D01*
X157955076Y-94691005D01*
X157807242Y-94770024D01*
X157646823Y-94818687D01*
X157521804Y-94831000D01*
X157438196Y-94831000D01*
X157313177Y-94818687D01*
X157152758Y-94770024D01*
X157004924Y-94691005D01*
X157004922Y-94691004D01*
X156875341Y-94584659D01*
X156768996Y-94455078D01*
X156760886Y-94439906D01*
X156689976Y-94307242D01*
X156641313Y-94146823D01*
X156624883Y-93980000D01*
X156641313Y-93813177D01*
X156689976Y-93652758D01*
X156768995Y-93504924D01*
X156768996Y-93504922D01*
X156875341Y-93375341D01*
X157004922Y-93268996D01*
X157020094Y-93260886D01*
X157152758Y-93189976D01*
X157313177Y-93141313D01*
X157438196Y-93129000D01*
X157521804Y-93129000D01*
X157646823Y-93141313D01*
X157646823Y-93141313D01*
G37*
G36*
X172886823Y-93141313D02*
G01*
X173047242Y-93189976D01*
X173179906Y-93260886D01*
X173195078Y-93268996D01*
X173324659Y-93375341D01*
X173431004Y-93504922D01*
X173431005Y-93504924D01*
X173510024Y-93652758D01*
X173558687Y-93813177D01*
X173575117Y-93980000D01*
X173558687Y-94146823D01*
X173510024Y-94307242D01*
X173439114Y-94439906D01*
X173431004Y-94455078D01*
X173324659Y-94584659D01*
X173195078Y-94691004D01*
X173195076Y-94691005D01*
X173047242Y-94770024D01*
X172886823Y-94818687D01*
X172761804Y-94831000D01*
X172678196Y-94831000D01*
X172553177Y-94818687D01*
X172392758Y-94770024D01*
X172244924Y-94691005D01*
X172244922Y-94691004D01*
X172115341Y-94584659D01*
X172008996Y-94455078D01*
X172000886Y-94439906D01*
X171929976Y-94307242D01*
X171881313Y-94146823D01*
X171864883Y-93980000D01*
X171881313Y-93813177D01*
X171929976Y-93652758D01*
X172008995Y-93504924D01*
X172008996Y-93504922D01*
X172115341Y-93375341D01*
X172244922Y-93268996D01*
X172260094Y-93260886D01*
X172392758Y-93189976D01*
X172553177Y-93141313D01*
X172678196Y-93129000D01*
X172761804Y-93129000D01*
X172886823Y-93141313D01*
X172886823Y-93141313D01*
G37*
G36*
X172886823Y-90601313D02*
G01*
X173047242Y-90649976D01*
X173179906Y-90720886D01*
X173195078Y-90728996D01*
X173324659Y-90835341D01*
X173431004Y-90964922D01*
X173431005Y-90964924D01*
X173510024Y-91112758D01*
X173558687Y-91273177D01*
X173575117Y-91440000D01*
X173558687Y-91606823D01*
X173510024Y-91767242D01*
X173439114Y-91899906D01*
X173431004Y-91915078D01*
X173324659Y-92044659D01*
X173195078Y-92151004D01*
X173195076Y-92151005D01*
X173047242Y-92230024D01*
X172886823Y-92278687D01*
X172761804Y-92291000D01*
X172678196Y-92291000D01*
X172553177Y-92278687D01*
X172392758Y-92230024D01*
X172244924Y-92151005D01*
X172244922Y-92151004D01*
X172115341Y-92044659D01*
X172008996Y-91915078D01*
X172000886Y-91899906D01*
X171929976Y-91767242D01*
X171881313Y-91606823D01*
X171864883Y-91440000D01*
X171881313Y-91273177D01*
X171929976Y-91112758D01*
X172008995Y-90964924D01*
X172008996Y-90964922D01*
X172115341Y-90835341D01*
X172244922Y-90728996D01*
X172260094Y-90720886D01*
X172392758Y-90649976D01*
X172553177Y-90601313D01*
X172678196Y-90589000D01*
X172761804Y-90589000D01*
X172886823Y-90601313D01*
X172886823Y-90601313D01*
G37*
G36*
X170346823Y-90601313D02*
G01*
X170507242Y-90649976D01*
X170639906Y-90720886D01*
X170655078Y-90728996D01*
X170784659Y-90835341D01*
X170891004Y-90964922D01*
X170891005Y-90964924D01*
X170970024Y-91112758D01*
X171018687Y-91273177D01*
X171035117Y-91440000D01*
X171018687Y-91606823D01*
X170970024Y-91767242D01*
X170899114Y-91899906D01*
X170891004Y-91915078D01*
X170784659Y-92044659D01*
X170655078Y-92151004D01*
X170655076Y-92151005D01*
X170507242Y-92230024D01*
X170346823Y-92278687D01*
X170221804Y-92291000D01*
X170138196Y-92291000D01*
X170013177Y-92278687D01*
X169852758Y-92230024D01*
X169704924Y-92151005D01*
X169704922Y-92151004D01*
X169575341Y-92044659D01*
X169468996Y-91915078D01*
X169460886Y-91899906D01*
X169389976Y-91767242D01*
X169341313Y-91606823D01*
X169324883Y-91440000D01*
X169341313Y-91273177D01*
X169389976Y-91112758D01*
X169468995Y-90964924D01*
X169468996Y-90964922D01*
X169575341Y-90835341D01*
X169704922Y-90728996D01*
X169720094Y-90720886D01*
X169852758Y-90649976D01*
X170013177Y-90601313D01*
X170138196Y-90589000D01*
X170221804Y-90589000D01*
X170346823Y-90601313D01*
X170346823Y-90601313D01*
G37*
G36*
X157646823Y-90601313D02*
G01*
X157807242Y-90649976D01*
X157939906Y-90720886D01*
X157955078Y-90728996D01*
X158084659Y-90835341D01*
X158191004Y-90964922D01*
X158191005Y-90964924D01*
X158270024Y-91112758D01*
X158318687Y-91273177D01*
X158335117Y-91440000D01*
X158318687Y-91606823D01*
X158270024Y-91767242D01*
X158199114Y-91899906D01*
X158191004Y-91915078D01*
X158084659Y-92044659D01*
X157955078Y-92151004D01*
X157955076Y-92151005D01*
X157807242Y-92230024D01*
X157646823Y-92278687D01*
X157521804Y-92291000D01*
X157438196Y-92291000D01*
X157313177Y-92278687D01*
X157152758Y-92230024D01*
X157004924Y-92151005D01*
X157004922Y-92151004D01*
X156875341Y-92044659D01*
X156768996Y-91915078D01*
X156760886Y-91899906D01*
X156689976Y-91767242D01*
X156641313Y-91606823D01*
X156624883Y-91440000D01*
X156641313Y-91273177D01*
X156689976Y-91112758D01*
X156768995Y-90964924D01*
X156768996Y-90964922D01*
X156875341Y-90835341D01*
X157004922Y-90728996D01*
X157020094Y-90720886D01*
X157152758Y-90649976D01*
X157313177Y-90601313D01*
X157438196Y-90589000D01*
X157521804Y-90589000D01*
X157646823Y-90601313D01*
X157646823Y-90601313D01*
G37*
G36*
X155106823Y-90601313D02*
G01*
X155267242Y-90649976D01*
X155399906Y-90720886D01*
X155415078Y-90728996D01*
X155544659Y-90835341D01*
X155651004Y-90964922D01*
X155651005Y-90964924D01*
X155730024Y-91112758D01*
X155778687Y-91273177D01*
X155795117Y-91440000D01*
X155778687Y-91606823D01*
X155730024Y-91767242D01*
X155659114Y-91899906D01*
X155651004Y-91915078D01*
X155544659Y-92044659D01*
X155415078Y-92151004D01*
X155415076Y-92151005D01*
X155267242Y-92230024D01*
X155106823Y-92278687D01*
X154981804Y-92291000D01*
X154898196Y-92291000D01*
X154773177Y-92278687D01*
X154612758Y-92230024D01*
X154464924Y-92151005D01*
X154464922Y-92151004D01*
X154335341Y-92044659D01*
X154228996Y-91915078D01*
X154220886Y-91899906D01*
X154149976Y-91767242D01*
X154101313Y-91606823D01*
X154084883Y-91440000D01*
X154101313Y-91273177D01*
X154149976Y-91112758D01*
X154228995Y-90964924D01*
X154228996Y-90964922D01*
X154335341Y-90835341D01*
X154464922Y-90728996D01*
X154480094Y-90720886D01*
X154612758Y-90649976D01*
X154773177Y-90601313D01*
X154898196Y-90589000D01*
X154981804Y-90589000D01*
X155106823Y-90601313D01*
X155106823Y-90601313D01*
G37*
G36*
X172886823Y-88061313D02*
G01*
X173047242Y-88109976D01*
X173179906Y-88180886D01*
X173195078Y-88188996D01*
X173324659Y-88295341D01*
X173431004Y-88424922D01*
X173431005Y-88424924D01*
X173510024Y-88572758D01*
X173558687Y-88733177D01*
X173575117Y-88900000D01*
X173558687Y-89066823D01*
X173510024Y-89227242D01*
X173439114Y-89359906D01*
X173431004Y-89375078D01*
X173324659Y-89504659D01*
X173195078Y-89611004D01*
X173195076Y-89611005D01*
X173047242Y-89690024D01*
X172886823Y-89738687D01*
X172761804Y-89751000D01*
X172678196Y-89751000D01*
X172553177Y-89738687D01*
X172392758Y-89690024D01*
X172244924Y-89611005D01*
X172244922Y-89611004D01*
X172115341Y-89504659D01*
X172008996Y-89375078D01*
X172000886Y-89359906D01*
X171929976Y-89227242D01*
X171881313Y-89066823D01*
X171864883Y-88900000D01*
X171881313Y-88733177D01*
X171929976Y-88572758D01*
X172008995Y-88424924D01*
X172008996Y-88424922D01*
X172115341Y-88295341D01*
X172244922Y-88188996D01*
X172260094Y-88180886D01*
X172392758Y-88109976D01*
X172553177Y-88061313D01*
X172678196Y-88049000D01*
X172761804Y-88049000D01*
X172886823Y-88061313D01*
X172886823Y-88061313D01*
G37*
G36*
X157646823Y-88061313D02*
G01*
X157807242Y-88109976D01*
X157939906Y-88180886D01*
X157955078Y-88188996D01*
X158084659Y-88295341D01*
X158191004Y-88424922D01*
X158191005Y-88424924D01*
X158270024Y-88572758D01*
X158318687Y-88733177D01*
X158335117Y-88900000D01*
X158318687Y-89066823D01*
X158270024Y-89227242D01*
X158199114Y-89359906D01*
X158191004Y-89375078D01*
X158084659Y-89504659D01*
X157955078Y-89611004D01*
X157955076Y-89611005D01*
X157807242Y-89690024D01*
X157646823Y-89738687D01*
X157521804Y-89751000D01*
X157438196Y-89751000D01*
X157313177Y-89738687D01*
X157152758Y-89690024D01*
X157004924Y-89611005D01*
X157004922Y-89611004D01*
X156875341Y-89504659D01*
X156768996Y-89375078D01*
X156760886Y-89359906D01*
X156689976Y-89227242D01*
X156641313Y-89066823D01*
X156624883Y-88900000D01*
X156641313Y-88733177D01*
X156689976Y-88572758D01*
X156768995Y-88424924D01*
X156768996Y-88424922D01*
X156875341Y-88295341D01*
X157004922Y-88188996D01*
X157020094Y-88180886D01*
X157152758Y-88109976D01*
X157313177Y-88061313D01*
X157438196Y-88049000D01*
X157521804Y-88049000D01*
X157646823Y-88061313D01*
X157646823Y-88061313D01*
G37*
G36*
X170346823Y-88061313D02*
G01*
X170507242Y-88109976D01*
X170639906Y-88180886D01*
X170655078Y-88188996D01*
X170784659Y-88295341D01*
X170891004Y-88424922D01*
X170891005Y-88424924D01*
X170970024Y-88572758D01*
X171018687Y-88733177D01*
X171035117Y-88900000D01*
X171018687Y-89066823D01*
X170970024Y-89227242D01*
X170899114Y-89359906D01*
X170891004Y-89375078D01*
X170784659Y-89504659D01*
X170655078Y-89611004D01*
X170655076Y-89611005D01*
X170507242Y-89690024D01*
X170346823Y-89738687D01*
X170221804Y-89751000D01*
X170138196Y-89751000D01*
X170013177Y-89738687D01*
X169852758Y-89690024D01*
X169704924Y-89611005D01*
X169704922Y-89611004D01*
X169575341Y-89504659D01*
X169468996Y-89375078D01*
X169460886Y-89359906D01*
X169389976Y-89227242D01*
X169341313Y-89066823D01*
X169324883Y-88900000D01*
X169341313Y-88733177D01*
X169389976Y-88572758D01*
X169468995Y-88424924D01*
X169468996Y-88424922D01*
X169575341Y-88295341D01*
X169704922Y-88188996D01*
X169720094Y-88180886D01*
X169852758Y-88109976D01*
X170013177Y-88061313D01*
X170138196Y-88049000D01*
X170221804Y-88049000D01*
X170346823Y-88061313D01*
X170346823Y-88061313D01*
G37*
G36*
X155106823Y-88061313D02*
G01*
X155267242Y-88109976D01*
X155399906Y-88180886D01*
X155415078Y-88188996D01*
X155544659Y-88295341D01*
X155651004Y-88424922D01*
X155651005Y-88424924D01*
X155730024Y-88572758D01*
X155778687Y-88733177D01*
X155795117Y-88900000D01*
X155778687Y-89066823D01*
X155730024Y-89227242D01*
X155659114Y-89359906D01*
X155651004Y-89375078D01*
X155544659Y-89504659D01*
X155415078Y-89611004D01*
X155415076Y-89611005D01*
X155267242Y-89690024D01*
X155106823Y-89738687D01*
X154981804Y-89751000D01*
X154898196Y-89751000D01*
X154773177Y-89738687D01*
X154612758Y-89690024D01*
X154464924Y-89611005D01*
X154464922Y-89611004D01*
X154335341Y-89504659D01*
X154228996Y-89375078D01*
X154220886Y-89359906D01*
X154149976Y-89227242D01*
X154101313Y-89066823D01*
X154084883Y-88900000D01*
X154101313Y-88733177D01*
X154149976Y-88572758D01*
X154228995Y-88424924D01*
X154228996Y-88424922D01*
X154335341Y-88295341D01*
X154464922Y-88188996D01*
X154480094Y-88180886D01*
X154612758Y-88109976D01*
X154773177Y-88061313D01*
X154898196Y-88049000D01*
X154981804Y-88049000D01*
X155106823Y-88061313D01*
X155106823Y-88061313D01*
G37*
G36*
X163443228Y-85541703D02*
G01*
X163598100Y-85605853D01*
X163737481Y-85698985D01*
X163856015Y-85817519D01*
X163949147Y-85956900D01*
X164013297Y-86111772D01*
X164046000Y-86276184D01*
X164046000Y-86443816D01*
X164013297Y-86608228D01*
X163949147Y-86763100D01*
X163856015Y-86902481D01*
X163737481Y-87021015D01*
X163598100Y-87114147D01*
X163443228Y-87178297D01*
X163278816Y-87211000D01*
X163111184Y-87211000D01*
X162946772Y-87178297D01*
X162791900Y-87114147D01*
X162652519Y-87021015D01*
X162533985Y-86902481D01*
X162440853Y-86763100D01*
X162376703Y-86608228D01*
X162344000Y-86443816D01*
X162344000Y-86276184D01*
X162376703Y-86111772D01*
X162440853Y-85956900D01*
X162533985Y-85817519D01*
X162652519Y-85698985D01*
X162791900Y-85605853D01*
X162946772Y-85541703D01*
X163111184Y-85509000D01*
X163278816Y-85509000D01*
X163443228Y-85541703D01*
X163443228Y-85541703D01*
G37*
G36*
X172886823Y-85521313D02*
G01*
X173047242Y-85569976D01*
X173114361Y-85605852D01*
X173195078Y-85648996D01*
X173324659Y-85755341D01*
X173431004Y-85884922D01*
X173431005Y-85884924D01*
X173510024Y-86032758D01*
X173558687Y-86193177D01*
X173575117Y-86360000D01*
X173558687Y-86526823D01*
X173510024Y-86687242D01*
X173469477Y-86763100D01*
X173431004Y-86835078D01*
X173324659Y-86964659D01*
X173195078Y-87071004D01*
X173195076Y-87071005D01*
X173047242Y-87150024D01*
X172886823Y-87198687D01*
X172761804Y-87211000D01*
X172678196Y-87211000D01*
X172553177Y-87198687D01*
X172392758Y-87150024D01*
X172244924Y-87071005D01*
X172244922Y-87071004D01*
X172115341Y-86964659D01*
X172008996Y-86835078D01*
X171970523Y-86763100D01*
X171929976Y-86687242D01*
X171881313Y-86526823D01*
X171864883Y-86360000D01*
X171881313Y-86193177D01*
X171929976Y-86032758D01*
X172008995Y-85884924D01*
X172008996Y-85884922D01*
X172115341Y-85755341D01*
X172244922Y-85648996D01*
X172325639Y-85605852D01*
X172392758Y-85569976D01*
X172553177Y-85521313D01*
X172678196Y-85509000D01*
X172761804Y-85509000D01*
X172886823Y-85521313D01*
X172886823Y-85521313D01*
G37*
G36*
X167253228Y-85541703D02*
G01*
X167408100Y-85605853D01*
X167547481Y-85698985D01*
X167666015Y-85817519D01*
X167759147Y-85956900D01*
X167823297Y-86111772D01*
X167856000Y-86276184D01*
X167856000Y-86443816D01*
X167823297Y-86608228D01*
X167759147Y-86763100D01*
X167666015Y-86902481D01*
X167547481Y-87021015D01*
X167408100Y-87114147D01*
X167253228Y-87178297D01*
X167088816Y-87211000D01*
X166921184Y-87211000D01*
X166756772Y-87178297D01*
X166601900Y-87114147D01*
X166462519Y-87021015D01*
X166343985Y-86902481D01*
X166250853Y-86763100D01*
X166186703Y-86608228D01*
X166154000Y-86443816D01*
X166154000Y-86276184D01*
X166186703Y-86111772D01*
X166250853Y-85956900D01*
X166343985Y-85817519D01*
X166462519Y-85698985D01*
X166601900Y-85605853D01*
X166756772Y-85541703D01*
X166921184Y-85509000D01*
X167088816Y-85509000D01*
X167253228Y-85541703D01*
X167253228Y-85541703D01*
G37*
G36*
X170346823Y-85521313D02*
G01*
X170507242Y-85569976D01*
X170574361Y-85605852D01*
X170655078Y-85648996D01*
X170784659Y-85755341D01*
X170891004Y-85884922D01*
X170891005Y-85884924D01*
X170970024Y-86032758D01*
X171018687Y-86193177D01*
X171035117Y-86360000D01*
X171018687Y-86526823D01*
X170970024Y-86687242D01*
X170929477Y-86763100D01*
X170891004Y-86835078D01*
X170784659Y-86964659D01*
X170655078Y-87071004D01*
X170655076Y-87071005D01*
X170507242Y-87150024D01*
X170346823Y-87198687D01*
X170221804Y-87211000D01*
X170138196Y-87211000D01*
X170013177Y-87198687D01*
X169852758Y-87150024D01*
X169704924Y-87071005D01*
X169704922Y-87071004D01*
X169575341Y-86964659D01*
X169468996Y-86835078D01*
X169430523Y-86763100D01*
X169389976Y-86687242D01*
X169341313Y-86526823D01*
X169324883Y-86360000D01*
X169341313Y-86193177D01*
X169389976Y-86032758D01*
X169468995Y-85884924D01*
X169468996Y-85884922D01*
X169575341Y-85755341D01*
X169704922Y-85648996D01*
X169785639Y-85605852D01*
X169852758Y-85569976D01*
X170013177Y-85521313D01*
X170138196Y-85509000D01*
X170221804Y-85509000D01*
X170346823Y-85521313D01*
X170346823Y-85521313D01*
G37*
G36*
X155106823Y-85521313D02*
G01*
X155267242Y-85569976D01*
X155334361Y-85605852D01*
X155415078Y-85648996D01*
X155544659Y-85755341D01*
X155651004Y-85884922D01*
X155651005Y-85884924D01*
X155730024Y-86032758D01*
X155778687Y-86193177D01*
X155795117Y-86360000D01*
X155778687Y-86526823D01*
X155730024Y-86687242D01*
X155689477Y-86763100D01*
X155651004Y-86835078D01*
X155544659Y-86964659D01*
X155415078Y-87071004D01*
X155415076Y-87071005D01*
X155267242Y-87150024D01*
X155106823Y-87198687D01*
X154981804Y-87211000D01*
X154898196Y-87211000D01*
X154773177Y-87198687D01*
X154612758Y-87150024D01*
X154464924Y-87071005D01*
X154464922Y-87071004D01*
X154335341Y-86964659D01*
X154228996Y-86835078D01*
X154190523Y-86763100D01*
X154149976Y-86687242D01*
X154101313Y-86526823D01*
X154084883Y-86360000D01*
X154101313Y-86193177D01*
X154149976Y-86032758D01*
X154228995Y-85884924D01*
X154228996Y-85884922D01*
X154335341Y-85755341D01*
X154464922Y-85648996D01*
X154545639Y-85605852D01*
X154612758Y-85569976D01*
X154773177Y-85521313D01*
X154898196Y-85509000D01*
X154981804Y-85509000D01*
X155106823Y-85521313D01*
X155106823Y-85521313D01*
G37*
G36*
X157646823Y-85521313D02*
G01*
X157807242Y-85569976D01*
X157874361Y-85605852D01*
X157955078Y-85648996D01*
X158084659Y-85755341D01*
X158191004Y-85884922D01*
X158191005Y-85884924D01*
X158270024Y-86032758D01*
X158318687Y-86193177D01*
X158335117Y-86360000D01*
X158318687Y-86526823D01*
X158270024Y-86687242D01*
X158229477Y-86763100D01*
X158191004Y-86835078D01*
X158084659Y-86964659D01*
X157955078Y-87071004D01*
X157955076Y-87071005D01*
X157807242Y-87150024D01*
X157646823Y-87198687D01*
X157521804Y-87211000D01*
X157438196Y-87211000D01*
X157313177Y-87198687D01*
X157152758Y-87150024D01*
X157004924Y-87071005D01*
X157004922Y-87071004D01*
X156875341Y-86964659D01*
X156768996Y-86835078D01*
X156730523Y-86763100D01*
X156689976Y-86687242D01*
X156641313Y-86526823D01*
X156624883Y-86360000D01*
X156641313Y-86193177D01*
X156689976Y-86032758D01*
X156768995Y-85884924D01*
X156768996Y-85884922D01*
X156875341Y-85755341D01*
X157004922Y-85648996D01*
X157085639Y-85605852D01*
X157152758Y-85569976D01*
X157313177Y-85521313D01*
X157438196Y-85509000D01*
X157521804Y-85509000D01*
X157646823Y-85521313D01*
X157646823Y-85521313D01*
G37*
G36*
X155106823Y-82981313D02*
G01*
X155267242Y-83029976D01*
X155399906Y-83100886D01*
X155415078Y-83108996D01*
X155544659Y-83215341D01*
X155651004Y-83344922D01*
X155651005Y-83344924D01*
X155730024Y-83492758D01*
X155778687Y-83653177D01*
X155795117Y-83820000D01*
X155778687Y-83986823D01*
X155730024Y-84147242D01*
X155659114Y-84279906D01*
X155651004Y-84295078D01*
X155544659Y-84424659D01*
X155415078Y-84531004D01*
X155415076Y-84531005D01*
X155267242Y-84610024D01*
X155106823Y-84658687D01*
X154981804Y-84671000D01*
X154898196Y-84671000D01*
X154773177Y-84658687D01*
X154612758Y-84610024D01*
X154464924Y-84531005D01*
X154464922Y-84531004D01*
X154335341Y-84424659D01*
X154228996Y-84295078D01*
X154220886Y-84279906D01*
X154149976Y-84147242D01*
X154101313Y-83986823D01*
X154084883Y-83820000D01*
X154101313Y-83653177D01*
X154149976Y-83492758D01*
X154228995Y-83344924D01*
X154228996Y-83344922D01*
X154335341Y-83215341D01*
X154464922Y-83108996D01*
X154480094Y-83100886D01*
X154612758Y-83029976D01*
X154773177Y-82981313D01*
X154898196Y-82969000D01*
X154981804Y-82969000D01*
X155106823Y-82981313D01*
X155106823Y-82981313D01*
G37*
G36*
X172886823Y-82981313D02*
G01*
X173047242Y-83029976D01*
X173179906Y-83100886D01*
X173195078Y-83108996D01*
X173324659Y-83215341D01*
X173431004Y-83344922D01*
X173431005Y-83344924D01*
X173510024Y-83492758D01*
X173558687Y-83653177D01*
X173575117Y-83820000D01*
X173558687Y-83986823D01*
X173510024Y-84147242D01*
X173439114Y-84279906D01*
X173431004Y-84295078D01*
X173324659Y-84424659D01*
X173195078Y-84531004D01*
X173195076Y-84531005D01*
X173047242Y-84610024D01*
X172886823Y-84658687D01*
X172761804Y-84671000D01*
X172678196Y-84671000D01*
X172553177Y-84658687D01*
X172392758Y-84610024D01*
X172244924Y-84531005D01*
X172244922Y-84531004D01*
X172115341Y-84424659D01*
X172008996Y-84295078D01*
X172000886Y-84279906D01*
X171929976Y-84147242D01*
X171881313Y-83986823D01*
X171864883Y-83820000D01*
X171881313Y-83653177D01*
X171929976Y-83492758D01*
X172008995Y-83344924D01*
X172008996Y-83344922D01*
X172115341Y-83215341D01*
X172244922Y-83108996D01*
X172260094Y-83100886D01*
X172392758Y-83029976D01*
X172553177Y-82981313D01*
X172678196Y-82969000D01*
X172761804Y-82969000D01*
X172886823Y-82981313D01*
X172886823Y-82981313D01*
G37*
G36*
X170346823Y-82981313D02*
G01*
X170507242Y-83029976D01*
X170639906Y-83100886D01*
X170655078Y-83108996D01*
X170784659Y-83215341D01*
X170891004Y-83344922D01*
X170891005Y-83344924D01*
X170970024Y-83492758D01*
X171018687Y-83653177D01*
X171035117Y-83820000D01*
X171018687Y-83986823D01*
X170970024Y-84147242D01*
X170899114Y-84279906D01*
X170891004Y-84295078D01*
X170784659Y-84424659D01*
X170655078Y-84531004D01*
X170655076Y-84531005D01*
X170507242Y-84610024D01*
X170346823Y-84658687D01*
X170221804Y-84671000D01*
X170138196Y-84671000D01*
X170013177Y-84658687D01*
X169852758Y-84610024D01*
X169704924Y-84531005D01*
X169704922Y-84531004D01*
X169575341Y-84424659D01*
X169468996Y-84295078D01*
X169460886Y-84279906D01*
X169389976Y-84147242D01*
X169341313Y-83986823D01*
X169324883Y-83820000D01*
X169341313Y-83653177D01*
X169389976Y-83492758D01*
X169468995Y-83344924D01*
X169468996Y-83344922D01*
X169575341Y-83215341D01*
X169704922Y-83108996D01*
X169720094Y-83100886D01*
X169852758Y-83029976D01*
X170013177Y-82981313D01*
X170138196Y-82969000D01*
X170221804Y-82969000D01*
X170346823Y-82981313D01*
X170346823Y-82981313D01*
G37*
G36*
X157646823Y-82981313D02*
G01*
X157807242Y-83029976D01*
X157939906Y-83100886D01*
X157955078Y-83108996D01*
X158084659Y-83215341D01*
X158191004Y-83344922D01*
X158191005Y-83344924D01*
X158270024Y-83492758D01*
X158318687Y-83653177D01*
X158335117Y-83820000D01*
X158318687Y-83986823D01*
X158270024Y-84147242D01*
X158199114Y-84279906D01*
X158191004Y-84295078D01*
X158084659Y-84424659D01*
X157955078Y-84531004D01*
X157955076Y-84531005D01*
X157807242Y-84610024D01*
X157646823Y-84658687D01*
X157521804Y-84671000D01*
X157438196Y-84671000D01*
X157313177Y-84658687D01*
X157152758Y-84610024D01*
X157004924Y-84531005D01*
X157004922Y-84531004D01*
X156875341Y-84424659D01*
X156768996Y-84295078D01*
X156760886Y-84279906D01*
X156689976Y-84147242D01*
X156641313Y-83986823D01*
X156624883Y-83820000D01*
X156641313Y-83653177D01*
X156689976Y-83492758D01*
X156768995Y-83344924D01*
X156768996Y-83344922D01*
X156875341Y-83215341D01*
X157004922Y-83108996D01*
X157020094Y-83100886D01*
X157152758Y-83029976D01*
X157313177Y-82981313D01*
X157438196Y-82969000D01*
X157521804Y-82969000D01*
X157646823Y-82981313D01*
X157646823Y-82981313D01*
G37*
G36*
X157646823Y-80441313D02*
G01*
X157807242Y-80489976D01*
X157939906Y-80560886D01*
X157955078Y-80568996D01*
X158084659Y-80675341D01*
X158191004Y-80804922D01*
X158191005Y-80804924D01*
X158270024Y-80952758D01*
X158318687Y-81113177D01*
X158335117Y-81280000D01*
X158318687Y-81446823D01*
X158270024Y-81607242D01*
X158199114Y-81739906D01*
X158191004Y-81755078D01*
X158084659Y-81884659D01*
X157955078Y-81991004D01*
X157955076Y-81991005D01*
X157807242Y-82070024D01*
X157646823Y-82118687D01*
X157521804Y-82131000D01*
X157438196Y-82131000D01*
X157313177Y-82118687D01*
X157152758Y-82070024D01*
X157004924Y-81991005D01*
X157004922Y-81991004D01*
X156875341Y-81884659D01*
X156768996Y-81755078D01*
X156760886Y-81739906D01*
X156689976Y-81607242D01*
X156641313Y-81446823D01*
X156624883Y-81280000D01*
X156641313Y-81113177D01*
X156689976Y-80952758D01*
X156768995Y-80804924D01*
X156768996Y-80804922D01*
X156875341Y-80675341D01*
X157004922Y-80568996D01*
X157020094Y-80560886D01*
X157152758Y-80489976D01*
X157313177Y-80441313D01*
X157438196Y-80429000D01*
X157521804Y-80429000D01*
X157646823Y-80441313D01*
X157646823Y-80441313D01*
G37*
G36*
X155106823Y-80441313D02*
G01*
X155267242Y-80489976D01*
X155399906Y-80560886D01*
X155415078Y-80568996D01*
X155544659Y-80675341D01*
X155651004Y-80804922D01*
X155651005Y-80804924D01*
X155730024Y-80952758D01*
X155778687Y-81113177D01*
X155795117Y-81280000D01*
X155778687Y-81446823D01*
X155730024Y-81607242D01*
X155659114Y-81739906D01*
X155651004Y-81755078D01*
X155544659Y-81884659D01*
X155415078Y-81991004D01*
X155415076Y-81991005D01*
X155267242Y-82070024D01*
X155106823Y-82118687D01*
X154981804Y-82131000D01*
X154898196Y-82131000D01*
X154773177Y-82118687D01*
X154612758Y-82070024D01*
X154464924Y-81991005D01*
X154464922Y-81991004D01*
X154335341Y-81884659D01*
X154228996Y-81755078D01*
X154220886Y-81739906D01*
X154149976Y-81607242D01*
X154101313Y-81446823D01*
X154084883Y-81280000D01*
X154101313Y-81113177D01*
X154149976Y-80952758D01*
X154228995Y-80804924D01*
X154228996Y-80804922D01*
X154335341Y-80675341D01*
X154464922Y-80568996D01*
X154480094Y-80560886D01*
X154612758Y-80489976D01*
X154773177Y-80441313D01*
X154898196Y-80429000D01*
X154981804Y-80429000D01*
X155106823Y-80441313D01*
X155106823Y-80441313D01*
G37*
G36*
X172886823Y-80441313D02*
G01*
X173047242Y-80489976D01*
X173179906Y-80560886D01*
X173195078Y-80568996D01*
X173324659Y-80675341D01*
X173431004Y-80804922D01*
X173431005Y-80804924D01*
X173510024Y-80952758D01*
X173558687Y-81113177D01*
X173575117Y-81280000D01*
X173558687Y-81446823D01*
X173510024Y-81607242D01*
X173439114Y-81739906D01*
X173431004Y-81755078D01*
X173324659Y-81884659D01*
X173195078Y-81991004D01*
X173195076Y-81991005D01*
X173047242Y-82070024D01*
X172886823Y-82118687D01*
X172761804Y-82131000D01*
X172678196Y-82131000D01*
X172553177Y-82118687D01*
X172392758Y-82070024D01*
X172244924Y-81991005D01*
X172244922Y-81991004D01*
X172115341Y-81884659D01*
X172008996Y-81755078D01*
X172000886Y-81739906D01*
X171929976Y-81607242D01*
X171881313Y-81446823D01*
X171864883Y-81280000D01*
X171881313Y-81113177D01*
X171929976Y-80952758D01*
X172008995Y-80804924D01*
X172008996Y-80804922D01*
X172115341Y-80675341D01*
X172244922Y-80568996D01*
X172260094Y-80560886D01*
X172392758Y-80489976D01*
X172553177Y-80441313D01*
X172678196Y-80429000D01*
X172761804Y-80429000D01*
X172886823Y-80441313D01*
X172886823Y-80441313D01*
G37*
G36*
X170346823Y-80441313D02*
G01*
X170507242Y-80489976D01*
X170639906Y-80560886D01*
X170655078Y-80568996D01*
X170784659Y-80675341D01*
X170891004Y-80804922D01*
X170891005Y-80804924D01*
X170970024Y-80952758D01*
X171018687Y-81113177D01*
X171035117Y-81280000D01*
X171018687Y-81446823D01*
X170970024Y-81607242D01*
X170899114Y-81739906D01*
X170891004Y-81755078D01*
X170784659Y-81884659D01*
X170655078Y-81991004D01*
X170655076Y-81991005D01*
X170507242Y-82070024D01*
X170346823Y-82118687D01*
X170221804Y-82131000D01*
X170138196Y-82131000D01*
X170013177Y-82118687D01*
X169852758Y-82070024D01*
X169704924Y-81991005D01*
X169704922Y-81991004D01*
X169575341Y-81884659D01*
X169468996Y-81755078D01*
X169460886Y-81739906D01*
X169389976Y-81607242D01*
X169341313Y-81446823D01*
X169324883Y-81280000D01*
X169341313Y-81113177D01*
X169389976Y-80952758D01*
X169468995Y-80804924D01*
X169468996Y-80804922D01*
X169575341Y-80675341D01*
X169704922Y-80568996D01*
X169720094Y-80560886D01*
X169852758Y-80489976D01*
X170013177Y-80441313D01*
X170138196Y-80429000D01*
X170221804Y-80429000D01*
X170346823Y-80441313D01*
X170346823Y-80441313D01*
G37*
G36*
X170346823Y-77901313D02*
G01*
X170507242Y-77949976D01*
X170639906Y-78020886D01*
X170655078Y-78028996D01*
X170784659Y-78135341D01*
X170891004Y-78264922D01*
X170891005Y-78264924D01*
X170970024Y-78412758D01*
X171018687Y-78573177D01*
X171035117Y-78740000D01*
X171018687Y-78906823D01*
X170970024Y-79067242D01*
X170899114Y-79199906D01*
X170891004Y-79215078D01*
X170784659Y-79344659D01*
X170655078Y-79451004D01*
X170655076Y-79451005D01*
X170507242Y-79530024D01*
X170346823Y-79578687D01*
X170221804Y-79591000D01*
X170138196Y-79591000D01*
X170013177Y-79578687D01*
X169852758Y-79530024D01*
X169704924Y-79451005D01*
X169704922Y-79451004D01*
X169575341Y-79344659D01*
X169468996Y-79215078D01*
X169460886Y-79199906D01*
X169389976Y-79067242D01*
X169341313Y-78906823D01*
X169324883Y-78740000D01*
X169341313Y-78573177D01*
X169389976Y-78412758D01*
X169468995Y-78264924D01*
X169468996Y-78264922D01*
X169575341Y-78135341D01*
X169704922Y-78028996D01*
X169720094Y-78020886D01*
X169852758Y-77949976D01*
X170013177Y-77901313D01*
X170138196Y-77889000D01*
X170221804Y-77889000D01*
X170346823Y-77901313D01*
X170346823Y-77901313D01*
G37*
G36*
X155791000Y-79591000D02*
G01*
X154089000Y-79591000D01*
X154089000Y-77889000D01*
X155791000Y-77889000D01*
X155791000Y-79591000D01*
X155791000Y-79591000D01*
G37*
G36*
X172886823Y-77901313D02*
G01*
X173047242Y-77949976D01*
X173179906Y-78020886D01*
X173195078Y-78028996D01*
X173324659Y-78135341D01*
X173431004Y-78264922D01*
X173431005Y-78264924D01*
X173510024Y-78412758D01*
X173558687Y-78573177D01*
X173575117Y-78740000D01*
X173558687Y-78906823D01*
X173510024Y-79067242D01*
X173439114Y-79199906D01*
X173431004Y-79215078D01*
X173324659Y-79344659D01*
X173195078Y-79451004D01*
X173195076Y-79451005D01*
X173047242Y-79530024D01*
X172886823Y-79578687D01*
X172761804Y-79591000D01*
X172678196Y-79591000D01*
X172553177Y-79578687D01*
X172392758Y-79530024D01*
X172244924Y-79451005D01*
X172244922Y-79451004D01*
X172115341Y-79344659D01*
X172008996Y-79215078D01*
X172000886Y-79199906D01*
X171929976Y-79067242D01*
X171881313Y-78906823D01*
X171864883Y-78740000D01*
X171881313Y-78573177D01*
X171929976Y-78412758D01*
X172008995Y-78264924D01*
X172008996Y-78264922D01*
X172115341Y-78135341D01*
X172244922Y-78028996D01*
X172260094Y-78020886D01*
X172392758Y-77949976D01*
X172553177Y-77901313D01*
X172678196Y-77889000D01*
X172761804Y-77889000D01*
X172886823Y-77901313D01*
X172886823Y-77901313D01*
G37*
G36*
X157646823Y-77901313D02*
G01*
X157807242Y-77949976D01*
X157939906Y-78020886D01*
X157955078Y-78028996D01*
X158084659Y-78135341D01*
X158191004Y-78264922D01*
X158191005Y-78264924D01*
X158270024Y-78412758D01*
X158318687Y-78573177D01*
X158335117Y-78740000D01*
X158318687Y-78906823D01*
X158270024Y-79067242D01*
X158199114Y-79199906D01*
X158191004Y-79215078D01*
X158084659Y-79344659D01*
X157955078Y-79451004D01*
X157955076Y-79451005D01*
X157807242Y-79530024D01*
X157646823Y-79578687D01*
X157521804Y-79591000D01*
X157438196Y-79591000D01*
X157313177Y-79578687D01*
X157152758Y-79530024D01*
X157004924Y-79451005D01*
X157004922Y-79451004D01*
X156875341Y-79344659D01*
X156768996Y-79215078D01*
X156760886Y-79199906D01*
X156689976Y-79067242D01*
X156641313Y-78906823D01*
X156624883Y-78740000D01*
X156641313Y-78573177D01*
X156689976Y-78412758D01*
X156768995Y-78264924D01*
X156768996Y-78264922D01*
X156875341Y-78135341D01*
X157004922Y-78028996D01*
X157020094Y-78020886D01*
X157152758Y-77949976D01*
X157313177Y-77901313D01*
X157438196Y-77889000D01*
X157521804Y-77889000D01*
X157646823Y-77901313D01*
X157646823Y-77901313D01*
G37*
G36*
X163361823Y-75361313D02*
G01*
X163522242Y-75409976D01*
X163654906Y-75480886D01*
X163670078Y-75488996D01*
X163799659Y-75595341D01*
X163906004Y-75724922D01*
X163906005Y-75724924D01*
X163985024Y-75872758D01*
X164033687Y-76033177D01*
X164050117Y-76200000D01*
X164033687Y-76366823D01*
X163985024Y-76527242D01*
X163914114Y-76659906D01*
X163906004Y-76675078D01*
X163799659Y-76804659D01*
X163670078Y-76911004D01*
X163670076Y-76911005D01*
X163522242Y-76990024D01*
X163361823Y-77038687D01*
X163236804Y-77051000D01*
X163153196Y-77051000D01*
X163028177Y-77038687D01*
X162867758Y-76990024D01*
X162719924Y-76911005D01*
X162719922Y-76911004D01*
X162590341Y-76804659D01*
X162483996Y-76675078D01*
X162475886Y-76659906D01*
X162404976Y-76527242D01*
X162356313Y-76366823D01*
X162339883Y-76200000D01*
X162356313Y-76033177D01*
X162404976Y-75872758D01*
X162483995Y-75724924D01*
X162483996Y-75724922D01*
X162590341Y-75595341D01*
X162719922Y-75488996D01*
X162735094Y-75480886D01*
X162867758Y-75409976D01*
X163028177Y-75361313D01*
X163153196Y-75349000D01*
X163236804Y-75349000D01*
X163361823Y-75361313D01*
X163361823Y-75361313D01*
G37*
G36*
X157646823Y-75361313D02*
G01*
X157807242Y-75409976D01*
X157939906Y-75480886D01*
X157955078Y-75488996D01*
X158084659Y-75595341D01*
X158191004Y-75724922D01*
X158191005Y-75724924D01*
X158270024Y-75872758D01*
X158318687Y-76033177D01*
X158335117Y-76200000D01*
X158318687Y-76366823D01*
X158270024Y-76527242D01*
X158199114Y-76659906D01*
X158191004Y-76675078D01*
X158084659Y-76804659D01*
X157955078Y-76911004D01*
X157955076Y-76911005D01*
X157807242Y-76990024D01*
X157646823Y-77038687D01*
X157521804Y-77051000D01*
X157438196Y-77051000D01*
X157313177Y-77038687D01*
X157152758Y-76990024D01*
X157004924Y-76911005D01*
X157004922Y-76911004D01*
X156875341Y-76804659D01*
X156768996Y-76675078D01*
X156760886Y-76659906D01*
X156689976Y-76527242D01*
X156641313Y-76366823D01*
X156624883Y-76200000D01*
X156641313Y-76033177D01*
X156689976Y-75872758D01*
X156768995Y-75724924D01*
X156768996Y-75724922D01*
X156875341Y-75595341D01*
X157004922Y-75488996D01*
X157020094Y-75480886D01*
X157152758Y-75409976D01*
X157313177Y-75361313D01*
X157438196Y-75349000D01*
X157521804Y-75349000D01*
X157646823Y-75361313D01*
X157646823Y-75361313D01*
G37*
G36*
X172886823Y-75361313D02*
G01*
X173047242Y-75409976D01*
X173179906Y-75480886D01*
X173195078Y-75488996D01*
X173324659Y-75595341D01*
X173431004Y-75724922D01*
X173431005Y-75724924D01*
X173510024Y-75872758D01*
X173558687Y-76033177D01*
X173575117Y-76200000D01*
X173558687Y-76366823D01*
X173510024Y-76527242D01*
X173439114Y-76659906D01*
X173431004Y-76675078D01*
X173324659Y-76804659D01*
X173195078Y-76911004D01*
X173195076Y-76911005D01*
X173047242Y-76990024D01*
X172886823Y-77038687D01*
X172761804Y-77051000D01*
X172678196Y-77051000D01*
X172553177Y-77038687D01*
X172392758Y-76990024D01*
X172244924Y-76911005D01*
X172244922Y-76911004D01*
X172115341Y-76804659D01*
X172008996Y-76675078D01*
X172000886Y-76659906D01*
X171929976Y-76527242D01*
X171881313Y-76366823D01*
X171864883Y-76200000D01*
X171881313Y-76033177D01*
X171929976Y-75872758D01*
X172008995Y-75724924D01*
X172008996Y-75724922D01*
X172115341Y-75595341D01*
X172244922Y-75488996D01*
X172260094Y-75480886D01*
X172392758Y-75409976D01*
X172553177Y-75361313D01*
X172678196Y-75349000D01*
X172761804Y-75349000D01*
X172886823Y-75361313D01*
X172886823Y-75361313D01*
G37*
G36*
X167171823Y-75361313D02*
G01*
X167332242Y-75409976D01*
X167464906Y-75480886D01*
X167480078Y-75488996D01*
X167609659Y-75595341D01*
X167716004Y-75724922D01*
X167716005Y-75724924D01*
X167795024Y-75872758D01*
X167843687Y-76033177D01*
X167860117Y-76200000D01*
X167843687Y-76366823D01*
X167795024Y-76527242D01*
X167724114Y-76659906D01*
X167716004Y-76675078D01*
X167609659Y-76804659D01*
X167480078Y-76911004D01*
X167480076Y-76911005D01*
X167332242Y-76990024D01*
X167171823Y-77038687D01*
X167046804Y-77051000D01*
X166963196Y-77051000D01*
X166838177Y-77038687D01*
X166677758Y-76990024D01*
X166529924Y-76911005D01*
X166529922Y-76911004D01*
X166400341Y-76804659D01*
X166293996Y-76675078D01*
X166285886Y-76659906D01*
X166214976Y-76527242D01*
X166166313Y-76366823D01*
X166149883Y-76200000D01*
X166166313Y-76033177D01*
X166214976Y-75872758D01*
X166293995Y-75724924D01*
X166293996Y-75724922D01*
X166400341Y-75595341D01*
X166529922Y-75488996D01*
X166545094Y-75480886D01*
X166677758Y-75409976D01*
X166838177Y-75361313D01*
X166963196Y-75349000D01*
X167046804Y-75349000D01*
X167171823Y-75361313D01*
X167171823Y-75361313D01*
G37*
G36*
X172886823Y-72821313D02*
G01*
X173047242Y-72869976D01*
X173179906Y-72940886D01*
X173195078Y-72948996D01*
X173324659Y-73055341D01*
X173431004Y-73184922D01*
X173431005Y-73184924D01*
X173510024Y-73332758D01*
X173558687Y-73493177D01*
X173575117Y-73660000D01*
X173558687Y-73826823D01*
X173510024Y-73987242D01*
X173439114Y-74119906D01*
X173431004Y-74135078D01*
X173324659Y-74264659D01*
X173195078Y-74371004D01*
X173195076Y-74371005D01*
X173047242Y-74450024D01*
X172886823Y-74498687D01*
X172761804Y-74511000D01*
X172678196Y-74511000D01*
X172553177Y-74498687D01*
X172392758Y-74450024D01*
X172244924Y-74371005D01*
X172244922Y-74371004D01*
X172115341Y-74264659D01*
X172008996Y-74135078D01*
X172000886Y-74119906D01*
X171929976Y-73987242D01*
X171881313Y-73826823D01*
X171864883Y-73660000D01*
X171881313Y-73493177D01*
X171929976Y-73332758D01*
X172008995Y-73184924D01*
X172008996Y-73184922D01*
X172115341Y-73055341D01*
X172244922Y-72948996D01*
X172260094Y-72940886D01*
X172392758Y-72869976D01*
X172553177Y-72821313D01*
X172678196Y-72809000D01*
X172761804Y-72809000D01*
X172886823Y-72821313D01*
X172886823Y-72821313D01*
G37*
G36*
X158331000Y-74511000D02*
G01*
X156629000Y-74511000D01*
X156629000Y-72809000D01*
X158331000Y-72809000D01*
X158331000Y-74511000D01*
X158331000Y-74511000D01*
G37*
G36*
X165210443Y-68955519D02*
G01*
X165276627Y-68962037D01*
X165446466Y-69013557D01*
X165602991Y-69097222D01*
X165638729Y-69126552D01*
X165740186Y-69209814D01*
X165823448Y-69311271D01*
X165852778Y-69347009D01*
X165936443Y-69503534D01*
X165987963Y-69673373D01*
X166005359Y-69850000D01*
X165987963Y-70026627D01*
X165936443Y-70196466D01*
X165852778Y-70352991D01*
X165823448Y-70388729D01*
X165740186Y-70490186D01*
X165638729Y-70573448D01*
X165602991Y-70602778D01*
X165446466Y-70686443D01*
X165276627Y-70737963D01*
X165210443Y-70744481D01*
X165144260Y-70751000D01*
X165055740Y-70751000D01*
X164989557Y-70744481D01*
X164923373Y-70737963D01*
X164753534Y-70686443D01*
X164597009Y-70602778D01*
X164561271Y-70573448D01*
X164459814Y-70490186D01*
X164376552Y-70388729D01*
X164347222Y-70352991D01*
X164263557Y-70196466D01*
X164212037Y-70026627D01*
X164194641Y-69850000D01*
X164212037Y-69673373D01*
X164263557Y-69503534D01*
X164347222Y-69347009D01*
X164376552Y-69311271D01*
X164459814Y-69209814D01*
X164561271Y-69126552D01*
X164597009Y-69097222D01*
X164753534Y-69013557D01*
X164923373Y-68962037D01*
X164989557Y-68955519D01*
X165055740Y-68949000D01*
X165144260Y-68949000D01*
X165210443Y-68955519D01*
X165210443Y-68955519D01*
G37*
G36*
X162670443Y-68955519D02*
G01*
X162736627Y-68962037D01*
X162906466Y-69013557D01*
X163062991Y-69097222D01*
X163098729Y-69126552D01*
X163200186Y-69209814D01*
X163283448Y-69311271D01*
X163312778Y-69347009D01*
X163396443Y-69503534D01*
X163447963Y-69673373D01*
X163465359Y-69850000D01*
X163447963Y-70026627D01*
X163396443Y-70196466D01*
X163312778Y-70352991D01*
X163283448Y-70388729D01*
X163200186Y-70490186D01*
X163098729Y-70573448D01*
X163062991Y-70602778D01*
X162906466Y-70686443D01*
X162736627Y-70737963D01*
X162670443Y-70744481D01*
X162604260Y-70751000D01*
X162515740Y-70751000D01*
X162449557Y-70744481D01*
X162383373Y-70737963D01*
X162213534Y-70686443D01*
X162057009Y-70602778D01*
X162021271Y-70573448D01*
X161919814Y-70490186D01*
X161836552Y-70388729D01*
X161807222Y-70352991D01*
X161723557Y-70196466D01*
X161672037Y-70026627D01*
X161654641Y-69850000D01*
X161672037Y-69673373D01*
X161723557Y-69503534D01*
X161807222Y-69347009D01*
X161836552Y-69311271D01*
X161919814Y-69209814D01*
X162021271Y-69126552D01*
X162057009Y-69097222D01*
X162213534Y-69013557D01*
X162383373Y-68962037D01*
X162449557Y-68955519D01*
X162515740Y-68949000D01*
X162604260Y-68949000D01*
X162670443Y-68955519D01*
X162670443Y-68955519D01*
G37*
G36*
X160130443Y-68955519D02*
G01*
X160196627Y-68962037D01*
X160366466Y-69013557D01*
X160522991Y-69097222D01*
X160558729Y-69126552D01*
X160660186Y-69209814D01*
X160743448Y-69311271D01*
X160772778Y-69347009D01*
X160856443Y-69503534D01*
X160907963Y-69673373D01*
X160925359Y-69850000D01*
X160907963Y-70026627D01*
X160856443Y-70196466D01*
X160772778Y-70352991D01*
X160743448Y-70388729D01*
X160660186Y-70490186D01*
X160558729Y-70573448D01*
X160522991Y-70602778D01*
X160366466Y-70686443D01*
X160196627Y-70737963D01*
X160130443Y-70744481D01*
X160064260Y-70751000D01*
X159975740Y-70751000D01*
X159909557Y-70744481D01*
X159843373Y-70737963D01*
X159673534Y-70686443D01*
X159517009Y-70602778D01*
X159481271Y-70573448D01*
X159379814Y-70490186D01*
X159296552Y-70388729D01*
X159267222Y-70352991D01*
X159183557Y-70196466D01*
X159132037Y-70026627D01*
X159114641Y-69850000D01*
X159132037Y-69673373D01*
X159183557Y-69503534D01*
X159267222Y-69347009D01*
X159296552Y-69311271D01*
X159379814Y-69209814D01*
X159481271Y-69126552D01*
X159517009Y-69097222D01*
X159673534Y-69013557D01*
X159843373Y-68962037D01*
X159909557Y-68955519D01*
X159975740Y-68949000D01*
X160064260Y-68949000D01*
X160130443Y-68955519D01*
X160130443Y-68955519D01*
G37*
G36*
X157590443Y-68955519D02*
G01*
X157656627Y-68962037D01*
X157826466Y-69013557D01*
X157982991Y-69097222D01*
X158018729Y-69126552D01*
X158120186Y-69209814D01*
X158203448Y-69311271D01*
X158232778Y-69347009D01*
X158316443Y-69503534D01*
X158367963Y-69673373D01*
X158385359Y-69850000D01*
X158367963Y-70026627D01*
X158316443Y-70196466D01*
X158232778Y-70352991D01*
X158203448Y-70388729D01*
X158120186Y-70490186D01*
X158018729Y-70573448D01*
X157982991Y-70602778D01*
X157826466Y-70686443D01*
X157656627Y-70737963D01*
X157590443Y-70744481D01*
X157524260Y-70751000D01*
X157435740Y-70751000D01*
X157369557Y-70744481D01*
X157303373Y-70737963D01*
X157133534Y-70686443D01*
X156977009Y-70602778D01*
X156941271Y-70573448D01*
X156839814Y-70490186D01*
X156756552Y-70388729D01*
X156727222Y-70352991D01*
X156643557Y-70196466D01*
X156592037Y-70026627D01*
X156574641Y-69850000D01*
X156592037Y-69673373D01*
X156643557Y-69503534D01*
X156727222Y-69347009D01*
X156756552Y-69311271D01*
X156839814Y-69209814D01*
X156941271Y-69126552D01*
X156977009Y-69097222D01*
X157133534Y-69013557D01*
X157303373Y-68962037D01*
X157369557Y-68955519D01*
X157435740Y-68949000D01*
X157524260Y-68949000D01*
X157590443Y-68955519D01*
X157590443Y-68955519D01*
G37*
G36*
X155841000Y-70751000D02*
G01*
X154039000Y-70751000D01*
X154039000Y-68949000D01*
X155841000Y-68949000D01*
X155841000Y-70751000D01*
X155841000Y-70751000D01*
G37*
M02*
