M48
; DRILL file {KiCad (5.1.2)-1} date 2/6/2020 10:00:09 PM
; FORMAT={-:-/ absolute / inch / decimal}
; #@! TF.CreationDate,2020-02-06T22:00:09-05:00
; #@! TF.GenerationSoftware,Kicad,Pcbnew,(5.1.2)-1
; #@! TF.FileFunction,Plated,1,2,PTH
FMAT,2
INCH
T1C0.0157
T2C0.0315
T3C0.0394
%
G90
G05
T1
X6.275Y-3.05
X6.275Y-3.25
X6.325Y-3.1
X6.325Y-3.2
X6.3407Y-3.3343
X6.35Y-3.9
X6.435Y-3.085
X6.475Y-3.5
X6.5Y-3.2
X6.5Y-3.9
T2
X6.575Y-3.7
X6.575Y-4.1
X6.425Y-3.7
X6.425Y-4.1
X6.575Y-3.0
X6.575Y-3.4
X6.2Y-2.9
X6.2Y-3.0
X6.2Y-3.1
X6.2Y-3.2
X6.2Y-3.3
X6.2Y-3.4
X6.2Y-3.5
X6.2Y-3.6
X6.2Y-3.7
X6.2Y-3.8
X6.2Y-3.9
X6.2Y-4.0
X6.2Y-4.1
X6.2Y-4.2
X6.8Y-2.9
X6.8Y-3.0
X6.8Y-3.1
X6.8Y-3.2
X6.8Y-3.3
X6.8Y-3.4
X6.8Y-3.5
X6.8Y-3.6
X6.8Y-3.7
X6.8Y-3.8
X6.8Y-3.9
X6.8Y-4.0
X6.8Y-4.1
X6.8Y-4.2
X6.425Y-3.0
X6.425Y-3.4
X6.1Y-3.1
X6.1Y-3.2
X6.1Y-3.3
X6.1Y-3.4
X6.1Y-3.5
X6.1Y-3.6
X6.1Y-3.7
X6.1Y-3.8
X6.1Y-3.9
X6.1Y-4.0
X6.1Y-4.1
X6.1Y-4.2
X6.7Y-3.1
X6.7Y-3.2
X6.7Y-3.3
X6.7Y-3.4
X6.7Y-3.5
X6.7Y-3.6
X6.7Y-3.7
X6.7Y-3.8
X6.7Y-3.9
X6.7Y-4.0
X6.7Y-4.1
X6.7Y-4.2
T3
X6.1Y-2.75
X6.2Y-2.75
X6.3Y-2.75
X6.4Y-2.75
X6.5Y-2.75
T0
M30
