G04 #@! TF.GenerationSoftware,KiCad,Pcbnew,(5.1.2)-1*
G04 #@! TF.CreationDate,2020-02-06T22:00:07-05:00*
G04 #@! TF.ProjectId,23xxxAdapter,32337878-7841-4646-9170-7465722e6b69,rev?*
G04 #@! TF.SameCoordinates,Original*
G04 #@! TF.FileFunction,Copper,L1,Top*
G04 #@! TF.FilePolarity,Positive*
%FSLAX46Y46*%
G04 Gerber Fmt 4.6, Leading zero omitted, Abs format (unit mm)*
G04 Created by KiCad (PCBNEW (5.1.2)-1) date 2020-02-06 22:00:07*
%MOMM*%
%LPD*%
G04 APERTURE LIST*
%ADD10R,1.600000X1.600000*%
%ADD11O,1.600000X1.600000*%
%ADD12R,1.700000X1.700000*%
%ADD13O,1.700000X1.700000*%
%ADD14C,1.600000*%
%ADD15C,0.800000*%
%ADD16C,1.500000*%
%ADD17C,0.539000*%
%ADD18C,1.000000*%
%ADD19C,0.540000*%
G04 APERTURE END LIST*
D10*
X157480000Y-73660000D03*
D11*
X172720000Y-106680000D03*
X157480000Y-76200000D03*
X172720000Y-104140000D03*
X157480000Y-78740000D03*
X172720000Y-101600000D03*
X157480000Y-81280000D03*
X172720000Y-99060000D03*
X157480000Y-83820000D03*
X172720000Y-96520000D03*
X157480000Y-86360000D03*
X172720000Y-93980000D03*
X157480000Y-88900000D03*
X172720000Y-91440000D03*
X157480000Y-91440000D03*
X172720000Y-88900000D03*
X157480000Y-93980000D03*
X172720000Y-86360000D03*
X157480000Y-96520000D03*
X172720000Y-83820000D03*
X157480000Y-99060000D03*
X172720000Y-81280000D03*
X157480000Y-101600000D03*
X172720000Y-78740000D03*
X157480000Y-104140000D03*
X172720000Y-76200000D03*
X157480000Y-106680000D03*
X172720000Y-73660000D03*
D12*
X154940000Y-69850000D03*
D13*
X157480000Y-69850000D03*
X160020000Y-69850000D03*
X162560000Y-69850000D03*
X165100000Y-69850000D03*
D14*
X167005000Y-86360000D03*
D11*
X167005000Y-76200000D03*
X163195000Y-76200000D03*
D14*
X163195000Y-86360000D03*
D11*
X167005000Y-93980000D03*
D14*
X167005000Y-104140000D03*
X163195000Y-104140000D03*
D11*
X163195000Y-93980000D03*
D10*
X154940000Y-78740000D03*
D11*
X170180000Y-106680000D03*
X154940000Y-81280000D03*
X170180000Y-104140000D03*
X154940000Y-83820000D03*
X170180000Y-101600000D03*
X154940000Y-86360000D03*
X170180000Y-99060000D03*
X154940000Y-88900000D03*
X170180000Y-96520000D03*
X154940000Y-91440000D03*
X170180000Y-93980000D03*
X154940000Y-93980000D03*
X170180000Y-91440000D03*
X154940000Y-96520000D03*
X170180000Y-88900000D03*
X154940000Y-99060000D03*
X170180000Y-86360000D03*
X154940000Y-101600000D03*
X170180000Y-83820000D03*
X154940000Y-104140000D03*
X170180000Y-81280000D03*
X154940000Y-106680000D03*
X170180000Y-78740000D03*
D15*
X160655000Y-78740000D03*
X160655000Y-81280000D03*
X165100000Y-99060000D03*
X165100000Y-81280000D03*
X164465000Y-88900000D03*
X163449000Y-78359000D03*
X161290000Y-99060000D03*
X159385000Y-77470000D03*
X159385000Y-82550000D03*
X161054999Y-84690001D03*
D16*
X154940000Y-106680000D02*
X157480000Y-106680000D01*
D17*
X163994999Y-76999999D02*
X163195000Y-76200000D01*
X167004501Y-80009501D02*
X163994999Y-76999999D01*
X171450499Y-80009501D02*
X167004501Y-80009501D01*
X172720000Y-78740000D02*
X171450499Y-80009501D01*
D18*
X160655000Y-78740000D02*
X160655000Y-81280000D01*
D17*
X160655000Y-81280000D02*
X160655000Y-81280000D01*
D18*
X165100000Y-95885000D02*
X167005000Y-93980000D01*
X165100000Y-99060000D02*
X165100000Y-95885000D01*
X170180000Y-76200000D02*
X172720000Y-73660000D01*
X170180000Y-78740000D02*
X170180000Y-76200000D01*
D16*
X163195000Y-104140000D02*
X167005000Y-104140000D01*
X163195000Y-86360000D02*
X167005000Y-86360000D01*
X162063630Y-86360000D02*
X159385000Y-89038630D01*
X163195000Y-86360000D02*
X162063630Y-86360000D01*
X159385000Y-89038630D02*
X159385000Y-102235000D01*
X159385000Y-102235000D02*
X161290000Y-104140000D01*
X161290000Y-104140000D02*
X163195000Y-104140000D01*
X170180000Y-106680000D02*
X172720000Y-106680000D01*
D17*
X165100000Y-81280000D02*
X165100000Y-81280000D01*
X155829000Y-71501000D02*
X157480000Y-69850000D01*
X155829000Y-74454102D02*
X155829000Y-71501000D01*
X156305397Y-74930499D02*
X155829000Y-74454102D01*
X164465000Y-88900000D02*
X164465000Y-88900000D01*
D18*
X170180000Y-86360000D02*
X165100000Y-81280000D01*
X165100000Y-81280000D02*
X165100000Y-80010000D01*
X165100000Y-80010000D02*
X163449000Y-78359000D01*
X163449000Y-78359000D02*
X163449000Y-78359000D01*
X167640000Y-88900000D02*
X170180000Y-86360000D01*
X164465000Y-88900000D02*
X167640000Y-88900000D01*
D17*
X156306395Y-74929501D02*
X156305397Y-74930499D01*
X165734501Y-74929501D02*
X156306395Y-74929501D01*
X167005000Y-76200000D02*
X165734501Y-74929501D01*
D16*
X170180000Y-104140000D02*
X172720000Y-104140000D01*
X154940000Y-78740000D02*
X157480000Y-78740000D01*
X170180000Y-101600000D02*
X172720000Y-101600000D01*
X154940000Y-81280000D02*
X157480000Y-81280000D01*
X170180000Y-99060000D02*
X172720000Y-99060000D01*
X154940000Y-83820000D02*
X157480000Y-83820000D01*
X170180000Y-96520000D02*
X172720000Y-96520000D01*
X154940000Y-86360000D02*
X157480000Y-86360000D01*
X170180000Y-88900000D02*
X172720000Y-88900000D01*
D19*
X171450000Y-92710000D02*
X169545000Y-92710000D01*
X172720000Y-93980000D02*
X171450000Y-92710000D01*
X169380001Y-89699999D02*
X170180000Y-88900000D01*
X168909999Y-90170001D02*
X169380001Y-89699999D01*
X168909999Y-92074999D02*
X168909999Y-90170001D01*
X169545000Y-92710000D02*
X168909999Y-92074999D01*
D16*
X154940000Y-88900000D02*
X157480000Y-88900000D01*
X170180000Y-91440000D02*
X172720000Y-91440000D01*
X154940000Y-91440000D02*
X157480000Y-91440000D01*
X154940000Y-93980000D02*
X157480000Y-93980000D01*
X154940000Y-96520000D02*
X157480000Y-96520000D01*
X170180000Y-83820000D02*
X172720000Y-83820000D01*
X154940000Y-99060000D02*
X157480000Y-99060000D01*
X170180000Y-81280000D02*
X172720000Y-81280000D01*
X154940000Y-101600000D02*
X157480000Y-101600000D01*
X154940000Y-104140000D02*
X157480000Y-104140000D01*
D18*
X157480000Y-73660000D02*
X163830000Y-73660000D01*
X165100000Y-72390000D02*
X165100000Y-69850000D01*
X163830000Y-73660000D02*
X165100000Y-72390000D01*
X161290000Y-95885000D02*
X163195000Y-93980000D01*
X161290000Y-99060000D02*
X161290000Y-95885000D01*
D17*
X159385000Y-82550000D02*
X159385000Y-82550000D01*
D18*
X159385000Y-82550000D02*
X159385000Y-77470000D01*
X161855010Y-83889990D02*
X161054999Y-84690001D01*
X161855010Y-78242940D02*
X161855010Y-83889990D01*
X159812070Y-76200000D02*
X161855010Y-78242940D01*
X157480000Y-76200000D02*
X159812070Y-76200000D01*
X161054999Y-84690001D02*
X161054999Y-84690001D01*
M02*
