G04 #@! TF.GenerationSoftware,KiCad,Pcbnew,(5.1.5)-3*
G04 #@! TF.CreationDate,2020-06-09T01:26:27-04:00*
G04 #@! TF.ProjectId,dip14tssop,64697031-3474-4737-936f-702e6b696361,rev?*
G04 #@! TF.SameCoordinates,Original*
G04 #@! TF.FileFunction,Legend,Top*
G04 #@! TF.FilePolarity,Positive*
%FSLAX46Y46*%
G04 Gerber Fmt 4.6, Leading zero omitted, Abs format (unit mm)*
G04 Created by KiCad (PCBNEW (5.1.5)-3) date 2020-06-09 01:26:27*
%MOMM*%
%LPD*%
G04 APERTURE LIST*
%ADD10C,0.120000*%
%ADD11C,0.150000*%
G04 APERTURE END LIST*
D10*
X111490000Y-69790000D02*
G75*
G02X109490000Y-69790000I-1000000J0D01*
G01*
X109490000Y-69790000D02*
X107840000Y-69790000D01*
X107840000Y-69790000D02*
X107840000Y-87690000D01*
X107840000Y-87690000D02*
X113140000Y-87690000D01*
X113140000Y-87690000D02*
X113140000Y-69790000D01*
X113140000Y-69790000D02*
X111490000Y-69790000D01*
D11*
X111594000Y-76115000D02*
X111594000Y-76240000D01*
X116244000Y-76115000D02*
X116244000Y-76340000D01*
X116244000Y-81365000D02*
X116244000Y-81140000D01*
X111594000Y-81365000D02*
X111594000Y-81140000D01*
X111594000Y-76115000D02*
X116244000Y-76115000D01*
X111594000Y-81365000D02*
X116244000Y-81365000D01*
X111594000Y-76240000D02*
X110244000Y-76240000D01*
X109728095Y-68242380D02*
X109728095Y-69051904D01*
X109775714Y-69147142D01*
X109823333Y-69194761D01*
X109918571Y-69242380D01*
X110109047Y-69242380D01*
X110204285Y-69194761D01*
X110251904Y-69147142D01*
X110299523Y-69051904D01*
X110299523Y-68242380D01*
X111299523Y-69242380D02*
X110728095Y-69242380D01*
X111013809Y-69242380D02*
X111013809Y-68242380D01*
X110918571Y-68385238D01*
X110823333Y-68480476D01*
X110728095Y-68528095D01*
X113157095Y-74642380D02*
X113157095Y-75451904D01*
X113204714Y-75547142D01*
X113252333Y-75594761D01*
X113347571Y-75642380D01*
X113538047Y-75642380D01*
X113633285Y-75594761D01*
X113680904Y-75547142D01*
X113728523Y-75451904D01*
X113728523Y-74642380D01*
X114157095Y-74737619D02*
X114204714Y-74690000D01*
X114299952Y-74642380D01*
X114538047Y-74642380D01*
X114633285Y-74690000D01*
X114680904Y-74737619D01*
X114728523Y-74832857D01*
X114728523Y-74928095D01*
X114680904Y-75070952D01*
X114109476Y-75642380D01*
X114728523Y-75642380D01*
M02*
