G04 #@! TF.GenerationSoftware,KiCad,Pcbnew,(5.1.5)-3*
G04 #@! TF.CreationDate,2020-06-09T01:26:27-04:00*
G04 #@! TF.ProjectId,dip14tssop,64697031-3474-4737-936f-702e6b696361,rev?*
G04 #@! TF.SameCoordinates,Original*
G04 #@! TF.FileFunction,Soldermask,Bot*
G04 #@! TF.FilePolarity,Negative*
%FSLAX46Y46*%
G04 Gerber Fmt 4.6, Leading zero omitted, Abs format (unit mm)*
G04 Created by KiCad (PCBNEW (5.1.5)-3) date 2020-06-09 01:26:27*
%MOMM*%
%LPD*%
G04 APERTURE LIST*
%ADD10C,0.100000*%
G04 APERTURE END LIST*
D10*
G36*
X106928228Y-85541703D02*
G01*
X107083100Y-85605853D01*
X107222481Y-85698985D01*
X107341015Y-85817519D01*
X107434147Y-85956900D01*
X107498297Y-86111772D01*
X107531000Y-86276184D01*
X107531000Y-86443816D01*
X107498297Y-86608228D01*
X107434147Y-86763100D01*
X107341015Y-86902481D01*
X107222481Y-87021015D01*
X107083100Y-87114147D01*
X106928228Y-87178297D01*
X106763816Y-87211000D01*
X106596184Y-87211000D01*
X106431772Y-87178297D01*
X106276900Y-87114147D01*
X106137519Y-87021015D01*
X106018985Y-86902481D01*
X105925853Y-86763100D01*
X105861703Y-86608228D01*
X105829000Y-86443816D01*
X105829000Y-86276184D01*
X105861703Y-86111772D01*
X105925853Y-85956900D01*
X106018985Y-85817519D01*
X106137519Y-85698985D01*
X106276900Y-85605853D01*
X106431772Y-85541703D01*
X106596184Y-85509000D01*
X106763816Y-85509000D01*
X106928228Y-85541703D01*
G37*
G36*
X114548228Y-85541703D02*
G01*
X114703100Y-85605853D01*
X114842481Y-85698985D01*
X114961015Y-85817519D01*
X115054147Y-85956900D01*
X115118297Y-86111772D01*
X115151000Y-86276184D01*
X115151000Y-86443816D01*
X115118297Y-86608228D01*
X115054147Y-86763100D01*
X114961015Y-86902481D01*
X114842481Y-87021015D01*
X114703100Y-87114147D01*
X114548228Y-87178297D01*
X114383816Y-87211000D01*
X114216184Y-87211000D01*
X114051772Y-87178297D01*
X113896900Y-87114147D01*
X113757519Y-87021015D01*
X113638985Y-86902481D01*
X113545853Y-86763100D01*
X113481703Y-86608228D01*
X113449000Y-86443816D01*
X113449000Y-86276184D01*
X113481703Y-86111772D01*
X113545853Y-85956900D01*
X113638985Y-85817519D01*
X113757519Y-85698985D01*
X113896900Y-85605853D01*
X114051772Y-85541703D01*
X114216184Y-85509000D01*
X114383816Y-85509000D01*
X114548228Y-85541703D01*
G37*
G36*
X114548228Y-83001703D02*
G01*
X114703100Y-83065853D01*
X114842481Y-83158985D01*
X114961015Y-83277519D01*
X115054147Y-83416900D01*
X115118297Y-83571772D01*
X115151000Y-83736184D01*
X115151000Y-83903816D01*
X115118297Y-84068228D01*
X115054147Y-84223100D01*
X114961015Y-84362481D01*
X114842481Y-84481015D01*
X114703100Y-84574147D01*
X114548228Y-84638297D01*
X114383816Y-84671000D01*
X114216184Y-84671000D01*
X114051772Y-84638297D01*
X113896900Y-84574147D01*
X113757519Y-84481015D01*
X113638985Y-84362481D01*
X113545853Y-84223100D01*
X113481703Y-84068228D01*
X113449000Y-83903816D01*
X113449000Y-83736184D01*
X113481703Y-83571772D01*
X113545853Y-83416900D01*
X113638985Y-83277519D01*
X113757519Y-83158985D01*
X113896900Y-83065853D01*
X114051772Y-83001703D01*
X114216184Y-82969000D01*
X114383816Y-82969000D01*
X114548228Y-83001703D01*
G37*
G36*
X106928228Y-83001703D02*
G01*
X107083100Y-83065853D01*
X107222481Y-83158985D01*
X107341015Y-83277519D01*
X107434147Y-83416900D01*
X107498297Y-83571772D01*
X107531000Y-83736184D01*
X107531000Y-83903816D01*
X107498297Y-84068228D01*
X107434147Y-84223100D01*
X107341015Y-84362481D01*
X107222481Y-84481015D01*
X107083100Y-84574147D01*
X106928228Y-84638297D01*
X106763816Y-84671000D01*
X106596184Y-84671000D01*
X106431772Y-84638297D01*
X106276900Y-84574147D01*
X106137519Y-84481015D01*
X106018985Y-84362481D01*
X105925853Y-84223100D01*
X105861703Y-84068228D01*
X105829000Y-83903816D01*
X105829000Y-83736184D01*
X105861703Y-83571772D01*
X105925853Y-83416900D01*
X106018985Y-83277519D01*
X106137519Y-83158985D01*
X106276900Y-83065853D01*
X106431772Y-83001703D01*
X106596184Y-82969000D01*
X106763816Y-82969000D01*
X106928228Y-83001703D01*
G37*
G36*
X106928228Y-80461703D02*
G01*
X107083100Y-80525853D01*
X107222481Y-80618985D01*
X107341015Y-80737519D01*
X107434147Y-80876900D01*
X107498297Y-81031772D01*
X107531000Y-81196184D01*
X107531000Y-81363816D01*
X107498297Y-81528228D01*
X107434147Y-81683100D01*
X107341015Y-81822481D01*
X107222481Y-81941015D01*
X107083100Y-82034147D01*
X106928228Y-82098297D01*
X106763816Y-82131000D01*
X106596184Y-82131000D01*
X106431772Y-82098297D01*
X106276900Y-82034147D01*
X106137519Y-81941015D01*
X106018985Y-81822481D01*
X105925853Y-81683100D01*
X105861703Y-81528228D01*
X105829000Y-81363816D01*
X105829000Y-81196184D01*
X105861703Y-81031772D01*
X105925853Y-80876900D01*
X106018985Y-80737519D01*
X106137519Y-80618985D01*
X106276900Y-80525853D01*
X106431772Y-80461703D01*
X106596184Y-80429000D01*
X106763816Y-80429000D01*
X106928228Y-80461703D01*
G37*
G36*
X114548228Y-80461703D02*
G01*
X114703100Y-80525853D01*
X114842481Y-80618985D01*
X114961015Y-80737519D01*
X115054147Y-80876900D01*
X115118297Y-81031772D01*
X115151000Y-81196184D01*
X115151000Y-81363816D01*
X115118297Y-81528228D01*
X115054147Y-81683100D01*
X114961015Y-81822481D01*
X114842481Y-81941015D01*
X114703100Y-82034147D01*
X114548228Y-82098297D01*
X114383816Y-82131000D01*
X114216184Y-82131000D01*
X114051772Y-82098297D01*
X113896900Y-82034147D01*
X113757519Y-81941015D01*
X113638985Y-81822481D01*
X113545853Y-81683100D01*
X113481703Y-81528228D01*
X113449000Y-81363816D01*
X113449000Y-81196184D01*
X113481703Y-81031772D01*
X113545853Y-80876900D01*
X113638985Y-80737519D01*
X113757519Y-80618985D01*
X113896900Y-80525853D01*
X114051772Y-80461703D01*
X114216184Y-80429000D01*
X114383816Y-80429000D01*
X114548228Y-80461703D01*
G37*
G36*
X106928228Y-77921703D02*
G01*
X107083100Y-77985853D01*
X107222481Y-78078985D01*
X107341015Y-78197519D01*
X107434147Y-78336900D01*
X107498297Y-78491772D01*
X107531000Y-78656184D01*
X107531000Y-78823816D01*
X107498297Y-78988228D01*
X107434147Y-79143100D01*
X107341015Y-79282481D01*
X107222481Y-79401015D01*
X107083100Y-79494147D01*
X106928228Y-79558297D01*
X106763816Y-79591000D01*
X106596184Y-79591000D01*
X106431772Y-79558297D01*
X106276900Y-79494147D01*
X106137519Y-79401015D01*
X106018985Y-79282481D01*
X105925853Y-79143100D01*
X105861703Y-78988228D01*
X105829000Y-78823816D01*
X105829000Y-78656184D01*
X105861703Y-78491772D01*
X105925853Y-78336900D01*
X106018985Y-78197519D01*
X106137519Y-78078985D01*
X106276900Y-77985853D01*
X106431772Y-77921703D01*
X106596184Y-77889000D01*
X106763816Y-77889000D01*
X106928228Y-77921703D01*
G37*
G36*
X114548228Y-77921703D02*
G01*
X114703100Y-77985853D01*
X114842481Y-78078985D01*
X114961015Y-78197519D01*
X115054147Y-78336900D01*
X115118297Y-78491772D01*
X115151000Y-78656184D01*
X115151000Y-78823816D01*
X115118297Y-78988228D01*
X115054147Y-79143100D01*
X114961015Y-79282481D01*
X114842481Y-79401015D01*
X114703100Y-79494147D01*
X114548228Y-79558297D01*
X114383816Y-79591000D01*
X114216184Y-79591000D01*
X114051772Y-79558297D01*
X113896900Y-79494147D01*
X113757519Y-79401015D01*
X113638985Y-79282481D01*
X113545853Y-79143100D01*
X113481703Y-78988228D01*
X113449000Y-78823816D01*
X113449000Y-78656184D01*
X113481703Y-78491772D01*
X113545853Y-78336900D01*
X113638985Y-78197519D01*
X113757519Y-78078985D01*
X113896900Y-77985853D01*
X114051772Y-77921703D01*
X114216184Y-77889000D01*
X114383816Y-77889000D01*
X114548228Y-77921703D01*
G37*
G36*
X106928228Y-75381703D02*
G01*
X107083100Y-75445853D01*
X107222481Y-75538985D01*
X107341015Y-75657519D01*
X107434147Y-75796900D01*
X107498297Y-75951772D01*
X107531000Y-76116184D01*
X107531000Y-76283816D01*
X107498297Y-76448228D01*
X107434147Y-76603100D01*
X107341015Y-76742481D01*
X107222481Y-76861015D01*
X107083100Y-76954147D01*
X106928228Y-77018297D01*
X106763816Y-77051000D01*
X106596184Y-77051000D01*
X106431772Y-77018297D01*
X106276900Y-76954147D01*
X106137519Y-76861015D01*
X106018985Y-76742481D01*
X105925853Y-76603100D01*
X105861703Y-76448228D01*
X105829000Y-76283816D01*
X105829000Y-76116184D01*
X105861703Y-75951772D01*
X105925853Y-75796900D01*
X106018985Y-75657519D01*
X106137519Y-75538985D01*
X106276900Y-75445853D01*
X106431772Y-75381703D01*
X106596184Y-75349000D01*
X106763816Y-75349000D01*
X106928228Y-75381703D01*
G37*
G36*
X114548228Y-75381703D02*
G01*
X114703100Y-75445853D01*
X114842481Y-75538985D01*
X114961015Y-75657519D01*
X115054147Y-75796900D01*
X115118297Y-75951772D01*
X115151000Y-76116184D01*
X115151000Y-76283816D01*
X115118297Y-76448228D01*
X115054147Y-76603100D01*
X114961015Y-76742481D01*
X114842481Y-76861015D01*
X114703100Y-76954147D01*
X114548228Y-77018297D01*
X114383816Y-77051000D01*
X114216184Y-77051000D01*
X114051772Y-77018297D01*
X113896900Y-76954147D01*
X113757519Y-76861015D01*
X113638985Y-76742481D01*
X113545853Y-76603100D01*
X113481703Y-76448228D01*
X113449000Y-76283816D01*
X113449000Y-76116184D01*
X113481703Y-75951772D01*
X113545853Y-75796900D01*
X113638985Y-75657519D01*
X113757519Y-75538985D01*
X113896900Y-75445853D01*
X114051772Y-75381703D01*
X114216184Y-75349000D01*
X114383816Y-75349000D01*
X114548228Y-75381703D01*
G37*
G36*
X106928228Y-72841703D02*
G01*
X107083100Y-72905853D01*
X107222481Y-72998985D01*
X107341015Y-73117519D01*
X107434147Y-73256900D01*
X107498297Y-73411772D01*
X107531000Y-73576184D01*
X107531000Y-73743816D01*
X107498297Y-73908228D01*
X107434147Y-74063100D01*
X107341015Y-74202481D01*
X107222481Y-74321015D01*
X107083100Y-74414147D01*
X106928228Y-74478297D01*
X106763816Y-74511000D01*
X106596184Y-74511000D01*
X106431772Y-74478297D01*
X106276900Y-74414147D01*
X106137519Y-74321015D01*
X106018985Y-74202481D01*
X105925853Y-74063100D01*
X105861703Y-73908228D01*
X105829000Y-73743816D01*
X105829000Y-73576184D01*
X105861703Y-73411772D01*
X105925853Y-73256900D01*
X106018985Y-73117519D01*
X106137519Y-72998985D01*
X106276900Y-72905853D01*
X106431772Y-72841703D01*
X106596184Y-72809000D01*
X106763816Y-72809000D01*
X106928228Y-72841703D01*
G37*
G36*
X114548228Y-72841703D02*
G01*
X114703100Y-72905853D01*
X114842481Y-72998985D01*
X114961015Y-73117519D01*
X115054147Y-73256900D01*
X115118297Y-73411772D01*
X115151000Y-73576184D01*
X115151000Y-73743816D01*
X115118297Y-73908228D01*
X115054147Y-74063100D01*
X114961015Y-74202481D01*
X114842481Y-74321015D01*
X114703100Y-74414147D01*
X114548228Y-74478297D01*
X114383816Y-74511000D01*
X114216184Y-74511000D01*
X114051772Y-74478297D01*
X113896900Y-74414147D01*
X113757519Y-74321015D01*
X113638985Y-74202481D01*
X113545853Y-74063100D01*
X113481703Y-73908228D01*
X113449000Y-73743816D01*
X113449000Y-73576184D01*
X113481703Y-73411772D01*
X113545853Y-73256900D01*
X113638985Y-73117519D01*
X113757519Y-72998985D01*
X113896900Y-72905853D01*
X114051772Y-72841703D01*
X114216184Y-72809000D01*
X114383816Y-72809000D01*
X114548228Y-72841703D01*
G37*
G36*
X110316674Y-72539465D02*
G01*
X110354367Y-72550899D01*
X110389103Y-72569466D01*
X110419548Y-72594452D01*
X110444534Y-72624897D01*
X110463101Y-72659633D01*
X110474535Y-72697326D01*
X110479000Y-72742661D01*
X110479000Y-73579339D01*
X110474535Y-73624674D01*
X110463101Y-73662367D01*
X110444534Y-73697103D01*
X110419548Y-73727548D01*
X110389103Y-73752534D01*
X110354367Y-73771101D01*
X110316674Y-73782535D01*
X110271339Y-73787000D01*
X109184661Y-73787000D01*
X109139326Y-73782535D01*
X109101633Y-73771101D01*
X109066897Y-73752534D01*
X109036452Y-73727548D01*
X109011466Y-73697103D01*
X108992899Y-73662367D01*
X108981465Y-73624674D01*
X108977000Y-73579339D01*
X108977000Y-72742661D01*
X108981465Y-72697326D01*
X108992899Y-72659633D01*
X109011466Y-72624897D01*
X109036452Y-72594452D01*
X109066897Y-72569466D01*
X109101633Y-72550899D01*
X109139326Y-72539465D01*
X109184661Y-72535000D01*
X110271339Y-72535000D01*
X110316674Y-72539465D01*
G37*
G36*
X107531000Y-71971000D02*
G01*
X105829000Y-71971000D01*
X105829000Y-70269000D01*
X107531000Y-70269000D01*
X107531000Y-71971000D01*
G37*
G36*
X114548228Y-70301703D02*
G01*
X114703100Y-70365853D01*
X114842481Y-70458985D01*
X114961015Y-70577519D01*
X115054147Y-70716900D01*
X115118297Y-70871772D01*
X115151000Y-71036184D01*
X115151000Y-71203816D01*
X115118297Y-71368228D01*
X115054147Y-71523100D01*
X114961015Y-71662481D01*
X114842481Y-71781015D01*
X114703100Y-71874147D01*
X114548228Y-71938297D01*
X114383816Y-71971000D01*
X114216184Y-71971000D01*
X114051772Y-71938297D01*
X113896900Y-71874147D01*
X113757519Y-71781015D01*
X113638985Y-71662481D01*
X113545853Y-71523100D01*
X113481703Y-71368228D01*
X113449000Y-71203816D01*
X113449000Y-71036184D01*
X113481703Y-70871772D01*
X113545853Y-70716900D01*
X113638985Y-70577519D01*
X113757519Y-70458985D01*
X113896900Y-70365853D01*
X114051772Y-70301703D01*
X114216184Y-70269000D01*
X114383816Y-70269000D01*
X114548228Y-70301703D01*
G37*
G36*
X110316674Y-70489465D02*
G01*
X110354367Y-70500899D01*
X110389103Y-70519466D01*
X110419548Y-70544452D01*
X110444534Y-70574897D01*
X110463101Y-70609633D01*
X110474535Y-70647326D01*
X110479000Y-70692661D01*
X110479000Y-71529339D01*
X110474535Y-71574674D01*
X110463101Y-71612367D01*
X110444534Y-71647103D01*
X110419548Y-71677548D01*
X110389103Y-71702534D01*
X110354367Y-71721101D01*
X110316674Y-71732535D01*
X110271339Y-71737000D01*
X109184661Y-71737000D01*
X109139326Y-71732535D01*
X109101633Y-71721101D01*
X109066897Y-71702534D01*
X109036452Y-71677548D01*
X109011466Y-71647103D01*
X108992899Y-71612367D01*
X108981465Y-71574674D01*
X108977000Y-71529339D01*
X108977000Y-70692661D01*
X108981465Y-70647326D01*
X108992899Y-70609633D01*
X109011466Y-70574897D01*
X109036452Y-70544452D01*
X109066897Y-70519466D01*
X109101633Y-70500899D01*
X109139326Y-70489465D01*
X109184661Y-70485000D01*
X110271339Y-70485000D01*
X110316674Y-70489465D01*
G37*
M02*
