G04 #@! TF.GenerationSoftware,KiCad,Pcbnew,(5.1.2)-1*
G04 #@! TF.CreationDate,2020-04-06T18:09:32-04:00*
G04 #@! TF.ProjectId,LM323K,4c4d3332-334b-42e6-9b69-6361645f7063,rev?*
G04 #@! TF.SameCoordinates,Original*
G04 #@! TF.FileFunction,Legend,Top*
G04 #@! TF.FilePolarity,Positive*
%FSLAX46Y46*%
G04 Gerber Fmt 4.6, Leading zero omitted, Abs format (unit mm)*
G04 Created by KiCad (PCBNEW (5.1.2)-1) date 2020-04-06 18:09:32*
%MOMM*%
%LPD*%
G04 APERTURE LIST*
%ADD10C,0.500000*%
%ADD11C,0.120000*%
%ADD12C,0.150000*%
G04 APERTURE END LIST*
D10*
X88225142Y-63721428D02*
X88225142Y-65150000D01*
X85225142Y-65150000D01*
X88225142Y-62721428D02*
X85225142Y-62721428D01*
X87368000Y-61721428D01*
X85225142Y-60721428D01*
X88225142Y-60721428D01*
X85225142Y-59578571D02*
X85225142Y-57721428D01*
X86368000Y-58721428D01*
X86368000Y-58292857D01*
X86510857Y-58007142D01*
X86653714Y-57864285D01*
X86939428Y-57721428D01*
X87653714Y-57721428D01*
X87939428Y-57864285D01*
X88082285Y-58007142D01*
X88225142Y-58292857D01*
X88225142Y-59150000D01*
X88082285Y-59435714D01*
X87939428Y-59578571D01*
X85510857Y-56578571D02*
X85368000Y-56435714D01*
X85225142Y-56150000D01*
X85225142Y-55435714D01*
X85368000Y-55150000D01*
X85510857Y-55007142D01*
X85796571Y-54864285D01*
X86082285Y-54864285D01*
X86510857Y-55007142D01*
X88225142Y-56721428D01*
X88225142Y-54864285D01*
X85225142Y-53864285D02*
X85225142Y-52007142D01*
X86368000Y-53007142D01*
X86368000Y-52578571D01*
X86510857Y-52292857D01*
X86653714Y-52150000D01*
X86939428Y-52007142D01*
X87653714Y-52007142D01*
X87939428Y-52150000D01*
X88082285Y-52292857D01*
X88225142Y-52578571D01*
X88225142Y-53435714D01*
X88082285Y-53721428D01*
X87939428Y-53864285D01*
X88225142Y-50721428D02*
X85225142Y-50721428D01*
X88225142Y-49007142D02*
X86510857Y-50292857D01*
X85225142Y-49007142D02*
X86939428Y-50721428D01*
D11*
X102160000Y-49156252D02*
X102160000Y-48633748D01*
X103580000Y-49156252D02*
X103580000Y-48633748D01*
X103580000Y-58046252D02*
X103580000Y-57523748D01*
X102160000Y-58046252D02*
X102160000Y-57523748D01*
X103580000Y-65143748D02*
X103580000Y-65666252D01*
X102160000Y-65143748D02*
X102160000Y-65666252D01*
X89378330Y-44808226D02*
X77478330Y-52808226D01*
X89378330Y-69508226D02*
X77378330Y-61408226D01*
X101778330Y-44908226D02*
X113578330Y-52908226D01*
X101778330Y-69408226D02*
X113578330Y-61408226D01*
X101884200Y-44964075D02*
G75*
G03X89378330Y-44808226I-6405870J-12194151D01*
G01*
X101884200Y-69352377D02*
G75*
G02X89378330Y-69508226I-6405870J12194151D01*
G01*
X77401364Y-61455919D02*
G75*
G02X77478330Y-52808226I2976966J4297693D01*
G01*
X113425506Y-61512085D02*
G75*
G03X113578330Y-52908226I-2847176J4353859D01*
G01*
X91564000Y-47501000D02*
X90174000Y-47501000D01*
X91564000Y-49741000D02*
X91564000Y-47501000D01*
X99444000Y-49741000D02*
X91564000Y-49741000D01*
X99444000Y-47501000D02*
X99444000Y-49741000D01*
X100844000Y-47501000D02*
X99444000Y-47501000D01*
X100844000Y-47491000D02*
X100844000Y-45721000D01*
X100844000Y-45721000D02*
X90174000Y-45721000D01*
X90174000Y-45721000D02*
X90174000Y-47501000D01*
X90174000Y-55246000D02*
X90174000Y-57026000D01*
X100844000Y-55246000D02*
X90174000Y-55246000D01*
X100844000Y-57016000D02*
X100844000Y-55246000D01*
X100844000Y-57026000D02*
X99444000Y-57026000D01*
X99444000Y-57026000D02*
X99444000Y-59266000D01*
X99444000Y-59266000D02*
X91564000Y-59266000D01*
X91564000Y-59266000D02*
X91564000Y-57026000D01*
X91564000Y-57026000D02*
X90174000Y-57026000D01*
X90174000Y-64771000D02*
X90174000Y-66551000D01*
X100844000Y-64771000D02*
X90174000Y-64771000D01*
X100844000Y-66541000D02*
X100844000Y-64771000D01*
X100844000Y-66551000D02*
X99444000Y-66551000D01*
X99444000Y-66551000D02*
X99444000Y-68791000D01*
X99444000Y-68791000D02*
X91564000Y-68791000D01*
X91564000Y-68791000D02*
X91564000Y-66551000D01*
X91564000Y-66551000D02*
X90174000Y-66551000D01*
X108480694Y-50165000D02*
G75*
G03X108480694Y-50165000I-1800694J0D01*
G01*
X108480694Y-64135000D02*
G75*
G03X108480694Y-64135000I-1800694J0D01*
G01*
D12*
X101577142Y-49061666D02*
X101624761Y-49109285D01*
X101672380Y-49252142D01*
X101672380Y-49347380D01*
X101624761Y-49490238D01*
X101529523Y-49585476D01*
X101434285Y-49633095D01*
X101243809Y-49680714D01*
X101100952Y-49680714D01*
X100910476Y-49633095D01*
X100815238Y-49585476D01*
X100720000Y-49490238D01*
X100672380Y-49347380D01*
X100672380Y-49252142D01*
X100720000Y-49109285D01*
X100767619Y-49061666D01*
X101672380Y-48109285D02*
X101672380Y-48680714D01*
X101672380Y-48395000D02*
X100672380Y-48395000D01*
X100815238Y-48490238D01*
X100910476Y-48585476D01*
X100958095Y-48680714D01*
X101577142Y-57951666D02*
X101624761Y-57999285D01*
X101672380Y-58142142D01*
X101672380Y-58237380D01*
X101624761Y-58380238D01*
X101529523Y-58475476D01*
X101434285Y-58523095D01*
X101243809Y-58570714D01*
X101100952Y-58570714D01*
X100910476Y-58523095D01*
X100815238Y-58475476D01*
X100720000Y-58380238D01*
X100672380Y-58237380D01*
X100672380Y-58142142D01*
X100720000Y-57999285D01*
X100767619Y-57951666D01*
X100767619Y-57570714D02*
X100720000Y-57523095D01*
X100672380Y-57427857D01*
X100672380Y-57189761D01*
X100720000Y-57094523D01*
X100767619Y-57046904D01*
X100862857Y-56999285D01*
X100958095Y-56999285D01*
X101100952Y-57046904D01*
X101672380Y-57618333D01*
X101672380Y-56999285D01*
X104877142Y-65571666D02*
X104924761Y-65619285D01*
X104972380Y-65762142D01*
X104972380Y-65857380D01*
X104924761Y-66000238D01*
X104829523Y-66095476D01*
X104734285Y-66143095D01*
X104543809Y-66190714D01*
X104400952Y-66190714D01*
X104210476Y-66143095D01*
X104115238Y-66095476D01*
X104020000Y-66000238D01*
X103972380Y-65857380D01*
X103972380Y-65762142D01*
X104020000Y-65619285D01*
X104067619Y-65571666D01*
X103972380Y-65238333D02*
X103972380Y-64619285D01*
X104353333Y-64952619D01*
X104353333Y-64809761D01*
X104400952Y-64714523D01*
X104448571Y-64666904D01*
X104543809Y-64619285D01*
X104781904Y-64619285D01*
X104877142Y-64666904D01*
X104924761Y-64714523D01*
X104972380Y-64809761D01*
X104972380Y-65095476D01*
X104924761Y-65190714D01*
X104877142Y-65238333D01*
X94716425Y-41910606D02*
X94716425Y-42720130D01*
X94764044Y-42815368D01*
X94811663Y-42862987D01*
X94906901Y-42910606D01*
X95097377Y-42910606D01*
X95192615Y-42862987D01*
X95240234Y-42815368D01*
X95287853Y-42720130D01*
X95287853Y-41910606D01*
X95954520Y-41910606D02*
X96049758Y-41910606D01*
X96144996Y-41958226D01*
X96192615Y-42005845D01*
X96240234Y-42101083D01*
X96287853Y-42291559D01*
X96287853Y-42529654D01*
X96240234Y-42720130D01*
X96192615Y-42815368D01*
X96144996Y-42862987D01*
X96049758Y-42910606D01*
X95954520Y-42910606D01*
X95859282Y-42862987D01*
X95811663Y-42815368D01*
X95764044Y-42720130D01*
X95716425Y-42529654D01*
X95716425Y-42291559D01*
X95764044Y-42101083D01*
X95811663Y-42005845D01*
X95859282Y-41958226D01*
X95954520Y-41910606D01*
X94742095Y-50633380D02*
X94742095Y-51442904D01*
X94789714Y-51538142D01*
X94837333Y-51585761D01*
X94932571Y-51633380D01*
X95123047Y-51633380D01*
X95218285Y-51585761D01*
X95265904Y-51538142D01*
X95313523Y-51442904D01*
X95313523Y-50633380D01*
X96313523Y-51633380D02*
X95742095Y-51633380D01*
X96027809Y-51633380D02*
X96027809Y-50633380D01*
X95932571Y-50776238D01*
X95837333Y-50871476D01*
X95742095Y-50919095D01*
X94742095Y-60158380D02*
X94742095Y-60967904D01*
X94789714Y-61063142D01*
X94837333Y-61110761D01*
X94932571Y-61158380D01*
X95123047Y-61158380D01*
X95218285Y-61110761D01*
X95265904Y-61063142D01*
X95313523Y-60967904D01*
X95313523Y-60158380D01*
X95742095Y-60253619D02*
X95789714Y-60206000D01*
X95884952Y-60158380D01*
X96123047Y-60158380D01*
X96218285Y-60206000D01*
X96265904Y-60253619D01*
X96313523Y-60348857D01*
X96313523Y-60444095D01*
X96265904Y-60586952D01*
X95694476Y-61158380D01*
X96313523Y-61158380D01*
X94742095Y-69683380D02*
X94742095Y-70492904D01*
X94789714Y-70588142D01*
X94837333Y-70635761D01*
X94932571Y-70683380D01*
X95123047Y-70683380D01*
X95218285Y-70635761D01*
X95265904Y-70588142D01*
X95313523Y-70492904D01*
X95313523Y-69683380D01*
X95694476Y-69683380D02*
X96313523Y-69683380D01*
X95980190Y-70064333D01*
X96123047Y-70064333D01*
X96218285Y-70111952D01*
X96265904Y-70159571D01*
X96313523Y-70254809D01*
X96313523Y-70492904D01*
X96265904Y-70588142D01*
X96218285Y-70635761D01*
X96123047Y-70683380D01*
X95837333Y-70683380D01*
X95742095Y-70635761D01*
X95694476Y-70588142D01*
X105441904Y-52215000D02*
X105346666Y-52167380D01*
X105203809Y-52167380D01*
X105060952Y-52215000D01*
X104965714Y-52310238D01*
X104918095Y-52405476D01*
X104870476Y-52595952D01*
X104870476Y-52738809D01*
X104918095Y-52929285D01*
X104965714Y-53024523D01*
X105060952Y-53119761D01*
X105203809Y-53167380D01*
X105299047Y-53167380D01*
X105441904Y-53119761D01*
X105489523Y-53072142D01*
X105489523Y-52738809D01*
X105299047Y-52738809D01*
X105918095Y-53167380D02*
X105918095Y-52167380D01*
X106489523Y-53167380D01*
X106489523Y-52167380D01*
X106965714Y-53167380D02*
X106965714Y-52167380D01*
X107203809Y-52167380D01*
X107346666Y-52215000D01*
X107441904Y-52310238D01*
X107489523Y-52405476D01*
X107537142Y-52595952D01*
X107537142Y-52738809D01*
X107489523Y-52929285D01*
X107441904Y-53024523D01*
X107346666Y-53119761D01*
X107203809Y-53167380D01*
X106965714Y-53167380D01*
X108489523Y-53167380D02*
X107918095Y-53167380D01*
X108203809Y-53167380D02*
X108203809Y-52167380D01*
X108108571Y-52310238D01*
X108013333Y-52405476D01*
X107918095Y-52453095D01*
X105441904Y-61095000D02*
X105346666Y-61047380D01*
X105203809Y-61047380D01*
X105060952Y-61095000D01*
X104965714Y-61190238D01*
X104918095Y-61285476D01*
X104870476Y-61475952D01*
X104870476Y-61618809D01*
X104918095Y-61809285D01*
X104965714Y-61904523D01*
X105060952Y-61999761D01*
X105203809Y-62047380D01*
X105299047Y-62047380D01*
X105441904Y-61999761D01*
X105489523Y-61952142D01*
X105489523Y-61618809D01*
X105299047Y-61618809D01*
X105918095Y-62047380D02*
X105918095Y-61047380D01*
X106489523Y-62047380D01*
X106489523Y-61047380D01*
X106965714Y-62047380D02*
X106965714Y-61047380D01*
X107203809Y-61047380D01*
X107346666Y-61095000D01*
X107441904Y-61190238D01*
X107489523Y-61285476D01*
X107537142Y-61475952D01*
X107537142Y-61618809D01*
X107489523Y-61809285D01*
X107441904Y-61904523D01*
X107346666Y-61999761D01*
X107203809Y-62047380D01*
X106965714Y-62047380D01*
X107918095Y-61142619D02*
X107965714Y-61095000D01*
X108060952Y-61047380D01*
X108299047Y-61047380D01*
X108394285Y-61095000D01*
X108441904Y-61142619D01*
X108489523Y-61237857D01*
X108489523Y-61333095D01*
X108441904Y-61475952D01*
X107870476Y-62047380D01*
X108489523Y-62047380D01*
M02*
