G04 #@! TF.GenerationSoftware,KiCad,Pcbnew,(5.1.2)-1*
G04 #@! TF.CreationDate,2020-04-06T18:09:32-04:00*
G04 #@! TF.ProjectId,LM323K,4c4d3332-334b-42e6-9b69-6361645f7063,rev?*
G04 #@! TF.SameCoordinates,Original*
G04 #@! TF.FileFunction,Soldermask,Top*
G04 #@! TF.FilePolarity,Negative*
%FSLAX46Y46*%
G04 Gerber Fmt 4.6, Leading zero omitted, Abs format (unit mm)*
G04 Created by KiCad (PCBNEW (5.1.2)-1) date 2020-04-06 18:09:32*
%MOMM*%
%LPD*%
G04 APERTURE LIST*
%ADD10C,0.100000*%
G04 APERTURE END LIST*
D10*
G36*
X93915000Y-68642000D02*
G01*
X92013000Y-68642000D01*
X92013000Y-66740000D01*
X93915000Y-66740000D01*
X93915000Y-68642000D01*
X93915000Y-68642000D01*
G37*
G36*
X98321395Y-66776546D02*
G01*
X98494466Y-66848234D01*
X98494467Y-66848235D01*
X98650227Y-66952310D01*
X98782690Y-67084773D01*
X98782691Y-67084775D01*
X98886766Y-67240534D01*
X98958454Y-67413605D01*
X98995000Y-67597333D01*
X98995000Y-67784667D01*
X98958454Y-67968395D01*
X98886766Y-68141466D01*
X98886765Y-68141467D01*
X98782690Y-68297227D01*
X98650227Y-68429690D01*
X98571818Y-68482081D01*
X98494466Y-68533766D01*
X98321395Y-68605454D01*
X98137667Y-68642000D01*
X97950333Y-68642000D01*
X97766605Y-68605454D01*
X97593534Y-68533766D01*
X97516182Y-68482081D01*
X97437773Y-68429690D01*
X97305310Y-68297227D01*
X97201235Y-68141467D01*
X97201234Y-68141466D01*
X97129546Y-67968395D01*
X97093000Y-67784667D01*
X97093000Y-67597333D01*
X97129546Y-67413605D01*
X97201234Y-67240534D01*
X97305309Y-67084775D01*
X97305310Y-67084773D01*
X97437773Y-66952310D01*
X97593533Y-66848235D01*
X97593534Y-66848234D01*
X97766605Y-66776546D01*
X97950333Y-66740000D01*
X98137667Y-66740000D01*
X98321395Y-66776546D01*
X98321395Y-66776546D01*
G37*
G36*
X95781395Y-66776546D02*
G01*
X95954466Y-66848234D01*
X95954467Y-66848235D01*
X96110227Y-66952310D01*
X96242690Y-67084773D01*
X96242691Y-67084775D01*
X96346766Y-67240534D01*
X96418454Y-67413605D01*
X96455000Y-67597333D01*
X96455000Y-67784667D01*
X96418454Y-67968395D01*
X96346766Y-68141466D01*
X96346765Y-68141467D01*
X96242690Y-68297227D01*
X96110227Y-68429690D01*
X96031818Y-68482081D01*
X95954466Y-68533766D01*
X95781395Y-68605454D01*
X95597667Y-68642000D01*
X95410333Y-68642000D01*
X95226605Y-68605454D01*
X95053534Y-68533766D01*
X94976182Y-68482081D01*
X94897773Y-68429690D01*
X94765310Y-68297227D01*
X94661235Y-68141467D01*
X94661234Y-68141466D01*
X94589546Y-67968395D01*
X94553000Y-67784667D01*
X94553000Y-67597333D01*
X94589546Y-67413605D01*
X94661234Y-67240534D01*
X94765309Y-67084775D01*
X94765310Y-67084773D01*
X94897773Y-66952310D01*
X95053533Y-66848235D01*
X95053534Y-66848234D01*
X95226605Y-66776546D01*
X95410333Y-66740000D01*
X95597667Y-66740000D01*
X95781395Y-66776546D01*
X95781395Y-66776546D01*
G37*
G36*
X103458674Y-65808465D02*
G01*
X103496367Y-65819899D01*
X103531103Y-65838466D01*
X103561548Y-65863452D01*
X103586534Y-65893897D01*
X103605101Y-65928633D01*
X103616535Y-65966326D01*
X103621000Y-66011661D01*
X103621000Y-66848339D01*
X103616535Y-66893674D01*
X103605101Y-66931367D01*
X103586534Y-66966103D01*
X103561548Y-66996548D01*
X103531103Y-67021534D01*
X103496367Y-67040101D01*
X103458674Y-67051535D01*
X103413339Y-67056000D01*
X102326661Y-67056000D01*
X102281326Y-67051535D01*
X102243633Y-67040101D01*
X102208897Y-67021534D01*
X102178452Y-66996548D01*
X102153466Y-66966103D01*
X102134899Y-66931367D01*
X102123465Y-66893674D01*
X102119000Y-66848339D01*
X102119000Y-66011661D01*
X102123465Y-65966326D01*
X102134899Y-65928633D01*
X102153466Y-65893897D01*
X102178452Y-65863452D01*
X102208897Y-65838466D01*
X102243633Y-65819899D01*
X102281326Y-65808465D01*
X102326661Y-65804000D01*
X103413339Y-65804000D01*
X103458674Y-65808465D01*
X103458674Y-65808465D01*
G37*
G36*
X106982585Y-62613802D02*
G01*
X107132410Y-62643604D01*
X107414674Y-62760521D01*
X107668705Y-62930259D01*
X107884741Y-63146295D01*
X108054479Y-63400326D01*
X108169336Y-63677617D01*
X108171396Y-63682591D01*
X108230401Y-63979226D01*
X108231000Y-63982240D01*
X108231000Y-64287760D01*
X108171396Y-64587410D01*
X108054479Y-64869674D01*
X107884741Y-65123705D01*
X107668705Y-65339741D01*
X107414674Y-65509479D01*
X107132410Y-65626396D01*
X106982585Y-65656198D01*
X106832761Y-65686000D01*
X106527239Y-65686000D01*
X106377415Y-65656198D01*
X106227590Y-65626396D01*
X105945326Y-65509479D01*
X105691295Y-65339741D01*
X105475259Y-65123705D01*
X105305521Y-64869674D01*
X105188604Y-64587410D01*
X105129000Y-64287760D01*
X105129000Y-63982240D01*
X105129600Y-63979226D01*
X105188604Y-63682591D01*
X105190664Y-63677617D01*
X105305521Y-63400326D01*
X105475259Y-63146295D01*
X105691295Y-62930259D01*
X105945326Y-62760521D01*
X106227590Y-62643604D01*
X106377415Y-62613802D01*
X106527239Y-62584000D01*
X106832761Y-62584000D01*
X106982585Y-62613802D01*
X106982585Y-62613802D01*
G37*
G36*
X103458674Y-63758465D02*
G01*
X103496367Y-63769899D01*
X103531103Y-63788466D01*
X103561548Y-63813452D01*
X103586534Y-63843897D01*
X103605101Y-63878633D01*
X103616535Y-63916326D01*
X103621000Y-63961661D01*
X103621000Y-64798339D01*
X103616535Y-64843674D01*
X103605101Y-64881367D01*
X103586534Y-64916103D01*
X103561548Y-64946548D01*
X103531103Y-64971534D01*
X103496367Y-64990101D01*
X103458674Y-65001535D01*
X103413339Y-65006000D01*
X102326661Y-65006000D01*
X102281326Y-65001535D01*
X102243633Y-64990101D01*
X102208897Y-64971534D01*
X102178452Y-64946548D01*
X102153466Y-64916103D01*
X102134899Y-64881367D01*
X102123465Y-64843674D01*
X102119000Y-64798339D01*
X102119000Y-63961661D01*
X102123465Y-63916326D01*
X102134899Y-63878633D01*
X102153466Y-63843897D01*
X102178452Y-63813452D01*
X102208897Y-63788466D01*
X102243633Y-63769899D01*
X102281326Y-63758465D01*
X102326661Y-63754000D01*
X103413339Y-63754000D01*
X103458674Y-63758465D01*
X103458674Y-63758465D01*
G37*
G36*
X94072402Y-61329144D02*
G01*
X94318269Y-61430985D01*
X94429658Y-61505413D01*
X94539541Y-61578835D01*
X94727721Y-61767015D01*
X94875572Y-61988289D01*
X94977412Y-62234154D01*
X95029330Y-62495163D01*
X95029330Y-62761289D01*
X94977412Y-63022298D01*
X94875572Y-63268163D01*
X94727721Y-63489437D01*
X94539541Y-63677617D01*
X94429658Y-63751039D01*
X94318269Y-63825467D01*
X94318268Y-63825468D01*
X94318267Y-63825468D01*
X94072402Y-63927308D01*
X93811393Y-63979226D01*
X93545267Y-63979226D01*
X93284258Y-63927308D01*
X93038393Y-63825468D01*
X93038392Y-63825468D01*
X93038391Y-63825467D01*
X92927002Y-63751039D01*
X92817119Y-63677617D01*
X92628939Y-63489437D01*
X92481088Y-63268163D01*
X92379248Y-63022298D01*
X92327330Y-62761289D01*
X92327330Y-62495163D01*
X92379248Y-62234154D01*
X92481088Y-61988289D01*
X92628939Y-61767015D01*
X92817119Y-61578835D01*
X92927002Y-61505413D01*
X93038391Y-61430985D01*
X93284258Y-61329144D01*
X93545267Y-61277226D01*
X93811393Y-61277226D01*
X94072402Y-61329144D01*
X94072402Y-61329144D01*
G37*
G36*
X111519318Y-54056199D02*
G01*
X112106412Y-54299381D01*
X112106414Y-54299382D01*
X112634785Y-54652428D01*
X113084128Y-55101771D01*
X113437174Y-55630142D01*
X113437175Y-55630144D01*
X113680357Y-56217238D01*
X113804330Y-56840491D01*
X113804330Y-57475961D01*
X113680357Y-58099214D01*
X113537792Y-58443396D01*
X113437174Y-58686310D01*
X113084128Y-59214681D01*
X112634785Y-59664024D01*
X112106414Y-60017070D01*
X112106413Y-60017071D01*
X112106412Y-60017071D01*
X111519318Y-60260253D01*
X110896065Y-60384226D01*
X110260595Y-60384226D01*
X109637342Y-60260253D01*
X109050248Y-60017071D01*
X109050247Y-60017071D01*
X109050246Y-60017070D01*
X108521875Y-59664024D01*
X108072532Y-59214681D01*
X107719486Y-58686310D01*
X107618868Y-58443396D01*
X107476303Y-58099214D01*
X107352330Y-57475961D01*
X107352330Y-56840491D01*
X107476303Y-56217238D01*
X107719485Y-55630144D01*
X107719486Y-55630142D01*
X108072532Y-55101771D01*
X108521875Y-54652428D01*
X109050246Y-54299382D01*
X109050248Y-54299381D01*
X109637342Y-54056199D01*
X110260595Y-53932226D01*
X110896065Y-53932226D01*
X111519318Y-54056199D01*
X111519318Y-54056199D01*
G37*
G36*
X81319318Y-54056199D02*
G01*
X81906412Y-54299381D01*
X81906414Y-54299382D01*
X82434785Y-54652428D01*
X82884128Y-55101771D01*
X83237174Y-55630142D01*
X83237175Y-55630144D01*
X83480357Y-56217238D01*
X83604330Y-56840491D01*
X83604330Y-57475961D01*
X83480357Y-58099214D01*
X83337792Y-58443396D01*
X83237174Y-58686310D01*
X82884128Y-59214681D01*
X82434785Y-59664024D01*
X81906414Y-60017070D01*
X81906413Y-60017071D01*
X81906412Y-60017071D01*
X81319318Y-60260253D01*
X80696065Y-60384226D01*
X80060595Y-60384226D01*
X79437342Y-60260253D01*
X78850248Y-60017071D01*
X78850247Y-60017071D01*
X78850246Y-60017070D01*
X78321875Y-59664024D01*
X77872532Y-59214681D01*
X77519486Y-58686310D01*
X77418868Y-58443396D01*
X77276303Y-58099214D01*
X77152330Y-57475961D01*
X77152330Y-56840491D01*
X77276303Y-56217238D01*
X77519485Y-55630144D01*
X77519486Y-55630142D01*
X77872532Y-55101771D01*
X78321875Y-54652428D01*
X78850246Y-54299382D01*
X78850248Y-54299381D01*
X79437342Y-54056199D01*
X80060595Y-53932226D01*
X80696065Y-53932226D01*
X81319318Y-54056199D01*
X81319318Y-54056199D01*
G37*
G36*
X103458674Y-58188465D02*
G01*
X103496367Y-58199899D01*
X103531103Y-58218466D01*
X103561548Y-58243452D01*
X103586534Y-58273897D01*
X103605101Y-58308633D01*
X103616535Y-58346326D01*
X103621000Y-58391661D01*
X103621000Y-59228339D01*
X103616535Y-59273674D01*
X103605101Y-59311367D01*
X103586534Y-59346103D01*
X103561548Y-59376548D01*
X103531103Y-59401534D01*
X103496367Y-59420101D01*
X103458674Y-59431535D01*
X103413339Y-59436000D01*
X102326661Y-59436000D01*
X102281326Y-59431535D01*
X102243633Y-59420101D01*
X102208897Y-59401534D01*
X102178452Y-59376548D01*
X102153466Y-59346103D01*
X102134899Y-59311367D01*
X102123465Y-59273674D01*
X102119000Y-59228339D01*
X102119000Y-58391661D01*
X102123465Y-58346326D01*
X102134899Y-58308633D01*
X102153466Y-58273897D01*
X102178452Y-58243452D01*
X102208897Y-58218466D01*
X102243633Y-58199899D01*
X102281326Y-58188465D01*
X102326661Y-58184000D01*
X103413339Y-58184000D01*
X103458674Y-58188465D01*
X103458674Y-58188465D01*
G37*
G36*
X93915000Y-59117000D02*
G01*
X92013000Y-59117000D01*
X92013000Y-57215000D01*
X93915000Y-57215000D01*
X93915000Y-59117000D01*
X93915000Y-59117000D01*
G37*
G36*
X95781395Y-57251546D02*
G01*
X95954466Y-57323234D01*
X95979754Y-57340131D01*
X96110227Y-57427310D01*
X96242690Y-57559773D01*
X96242691Y-57559775D01*
X96346766Y-57715534D01*
X96418454Y-57888605D01*
X96455000Y-58072333D01*
X96455000Y-58259667D01*
X96418454Y-58443395D01*
X96346766Y-58616466D01*
X96346765Y-58616467D01*
X96242690Y-58772227D01*
X96110227Y-58904690D01*
X96031818Y-58957081D01*
X95954466Y-59008766D01*
X95781395Y-59080454D01*
X95597667Y-59117000D01*
X95410333Y-59117000D01*
X95226605Y-59080454D01*
X95053534Y-59008766D01*
X94976182Y-58957081D01*
X94897773Y-58904690D01*
X94765310Y-58772227D01*
X94661235Y-58616467D01*
X94661234Y-58616466D01*
X94589546Y-58443395D01*
X94553000Y-58259667D01*
X94553000Y-58072333D01*
X94589546Y-57888605D01*
X94661234Y-57715534D01*
X94765309Y-57559775D01*
X94765310Y-57559773D01*
X94897773Y-57427310D01*
X95028246Y-57340131D01*
X95053534Y-57323234D01*
X95226605Y-57251546D01*
X95410333Y-57215000D01*
X95597667Y-57215000D01*
X95781395Y-57251546D01*
X95781395Y-57251546D01*
G37*
G36*
X98321395Y-57251546D02*
G01*
X98494466Y-57323234D01*
X98519754Y-57340131D01*
X98650227Y-57427310D01*
X98782690Y-57559773D01*
X98782691Y-57559775D01*
X98886766Y-57715534D01*
X98958454Y-57888605D01*
X98995000Y-58072333D01*
X98995000Y-58259667D01*
X98958454Y-58443395D01*
X98886766Y-58616466D01*
X98886765Y-58616467D01*
X98782690Y-58772227D01*
X98650227Y-58904690D01*
X98571818Y-58957081D01*
X98494466Y-59008766D01*
X98321395Y-59080454D01*
X98137667Y-59117000D01*
X97950333Y-59117000D01*
X97766605Y-59080454D01*
X97593534Y-59008766D01*
X97516182Y-58957081D01*
X97437773Y-58904690D01*
X97305310Y-58772227D01*
X97201235Y-58616467D01*
X97201234Y-58616466D01*
X97129546Y-58443395D01*
X97093000Y-58259667D01*
X97093000Y-58072333D01*
X97129546Y-57888605D01*
X97201234Y-57715534D01*
X97305309Y-57559775D01*
X97305310Y-57559773D01*
X97437773Y-57427310D01*
X97568246Y-57340131D01*
X97593534Y-57323234D01*
X97766605Y-57251546D01*
X97950333Y-57215000D01*
X98137667Y-57215000D01*
X98321395Y-57251546D01*
X98321395Y-57251546D01*
G37*
G36*
X103458674Y-56138465D02*
G01*
X103496367Y-56149899D01*
X103531103Y-56168466D01*
X103561548Y-56193452D01*
X103586534Y-56223897D01*
X103605101Y-56258633D01*
X103616535Y-56296326D01*
X103621000Y-56341661D01*
X103621000Y-57178339D01*
X103616535Y-57223674D01*
X103605101Y-57261367D01*
X103586534Y-57296103D01*
X103561548Y-57326548D01*
X103531103Y-57351534D01*
X103496367Y-57370101D01*
X103458674Y-57381535D01*
X103413339Y-57386000D01*
X102326661Y-57386000D01*
X102281326Y-57381535D01*
X102243633Y-57370101D01*
X102208897Y-57351534D01*
X102178452Y-57326548D01*
X102153466Y-57296103D01*
X102134899Y-57261367D01*
X102123465Y-57223674D01*
X102119000Y-57178339D01*
X102119000Y-56341661D01*
X102123465Y-56296326D01*
X102134899Y-56258633D01*
X102153466Y-56223897D01*
X102178452Y-56193452D01*
X102208897Y-56168466D01*
X102243633Y-56149899D01*
X102281326Y-56138465D01*
X102326661Y-56134000D01*
X103413339Y-56134000D01*
X103458674Y-56138465D01*
X103458674Y-56138465D01*
G37*
G36*
X95029330Y-53059226D02*
G01*
X92327330Y-53059226D01*
X92327330Y-50357226D01*
X95029330Y-50357226D01*
X95029330Y-53059226D01*
X95029330Y-53059226D01*
G37*
G36*
X106982585Y-48643802D02*
G01*
X107132410Y-48673604D01*
X107414674Y-48790521D01*
X107668705Y-48960259D01*
X107884741Y-49176295D01*
X108054479Y-49430326D01*
X108171396Y-49712590D01*
X108231000Y-50012240D01*
X108231000Y-50317760D01*
X108171396Y-50617410D01*
X108054479Y-50899674D01*
X107884741Y-51153705D01*
X107668705Y-51369741D01*
X107414674Y-51539479D01*
X107132410Y-51656396D01*
X106982585Y-51686198D01*
X106832761Y-51716000D01*
X106527239Y-51716000D01*
X106377415Y-51686198D01*
X106227590Y-51656396D01*
X105945326Y-51539479D01*
X105691295Y-51369741D01*
X105475259Y-51153705D01*
X105305521Y-50899674D01*
X105188604Y-50617410D01*
X105129000Y-50317760D01*
X105129000Y-50012240D01*
X105188604Y-49712590D01*
X105305521Y-49430326D01*
X105475259Y-49176295D01*
X105691295Y-48960259D01*
X105945326Y-48790521D01*
X106227590Y-48673604D01*
X106377415Y-48643802D01*
X106527239Y-48614000D01*
X106832761Y-48614000D01*
X106982585Y-48643802D01*
X106982585Y-48643802D01*
G37*
G36*
X103458674Y-49298465D02*
G01*
X103496367Y-49309899D01*
X103531103Y-49328466D01*
X103561548Y-49353452D01*
X103586534Y-49383897D01*
X103605101Y-49418633D01*
X103616535Y-49456326D01*
X103621000Y-49501661D01*
X103621000Y-50338339D01*
X103616535Y-50383674D01*
X103605101Y-50421367D01*
X103586534Y-50456103D01*
X103561548Y-50486548D01*
X103531103Y-50511534D01*
X103496367Y-50530101D01*
X103458674Y-50541535D01*
X103413339Y-50546000D01*
X102326661Y-50546000D01*
X102281326Y-50541535D01*
X102243633Y-50530101D01*
X102208897Y-50511534D01*
X102178452Y-50486548D01*
X102153466Y-50456103D01*
X102134899Y-50421367D01*
X102123465Y-50383674D01*
X102119000Y-50338339D01*
X102119000Y-49501661D01*
X102123465Y-49456326D01*
X102134899Y-49418633D01*
X102153466Y-49383897D01*
X102178452Y-49353452D01*
X102208897Y-49328466D01*
X102243633Y-49309899D01*
X102281326Y-49298465D01*
X102326661Y-49294000D01*
X103413339Y-49294000D01*
X103458674Y-49298465D01*
X103458674Y-49298465D01*
G37*
G36*
X93915000Y-49592000D02*
G01*
X92013000Y-49592000D01*
X92013000Y-47690000D01*
X93915000Y-47690000D01*
X93915000Y-49592000D01*
X93915000Y-49592000D01*
G37*
G36*
X95781395Y-47726546D02*
G01*
X95954466Y-47798234D01*
X95954467Y-47798235D01*
X96110227Y-47902310D01*
X96242690Y-48034773D01*
X96242691Y-48034775D01*
X96346766Y-48190534D01*
X96418454Y-48363605D01*
X96455000Y-48547333D01*
X96455000Y-48734667D01*
X96418454Y-48918395D01*
X96346766Y-49091466D01*
X96346765Y-49091467D01*
X96242690Y-49247227D01*
X96110227Y-49379690D01*
X96031818Y-49432081D01*
X95954466Y-49483766D01*
X95781395Y-49555454D01*
X95597667Y-49592000D01*
X95410333Y-49592000D01*
X95226605Y-49555454D01*
X95053534Y-49483766D01*
X94976182Y-49432081D01*
X94897773Y-49379690D01*
X94765310Y-49247227D01*
X94661235Y-49091467D01*
X94661234Y-49091466D01*
X94589546Y-48918395D01*
X94553000Y-48734667D01*
X94553000Y-48547333D01*
X94589546Y-48363605D01*
X94661234Y-48190534D01*
X94765309Y-48034775D01*
X94765310Y-48034773D01*
X94897773Y-47902310D01*
X95053533Y-47798235D01*
X95053534Y-47798234D01*
X95226605Y-47726546D01*
X95410333Y-47690000D01*
X95597667Y-47690000D01*
X95781395Y-47726546D01*
X95781395Y-47726546D01*
G37*
G36*
X98321395Y-47726546D02*
G01*
X98494466Y-47798234D01*
X98494467Y-47798235D01*
X98650227Y-47902310D01*
X98782690Y-48034773D01*
X98782691Y-48034775D01*
X98886766Y-48190534D01*
X98958454Y-48363605D01*
X98995000Y-48547333D01*
X98995000Y-48734667D01*
X98958454Y-48918395D01*
X98886766Y-49091466D01*
X98886765Y-49091467D01*
X98782690Y-49247227D01*
X98650227Y-49379690D01*
X98571818Y-49432081D01*
X98494466Y-49483766D01*
X98321395Y-49555454D01*
X98137667Y-49592000D01*
X97950333Y-49592000D01*
X97766605Y-49555454D01*
X97593534Y-49483766D01*
X97516182Y-49432081D01*
X97437773Y-49379690D01*
X97305310Y-49247227D01*
X97201235Y-49091467D01*
X97201234Y-49091466D01*
X97129546Y-48918395D01*
X97093000Y-48734667D01*
X97093000Y-48547333D01*
X97129546Y-48363605D01*
X97201234Y-48190534D01*
X97305309Y-48034775D01*
X97305310Y-48034773D01*
X97437773Y-47902310D01*
X97593533Y-47798235D01*
X97593534Y-47798234D01*
X97766605Y-47726546D01*
X97950333Y-47690000D01*
X98137667Y-47690000D01*
X98321395Y-47726546D01*
X98321395Y-47726546D01*
G37*
G36*
X103458674Y-47248465D02*
G01*
X103496367Y-47259899D01*
X103531103Y-47278466D01*
X103561548Y-47303452D01*
X103586534Y-47333897D01*
X103605101Y-47368633D01*
X103616535Y-47406326D01*
X103621000Y-47451661D01*
X103621000Y-48288339D01*
X103616535Y-48333674D01*
X103605101Y-48371367D01*
X103586534Y-48406103D01*
X103561548Y-48436548D01*
X103531103Y-48461534D01*
X103496367Y-48480101D01*
X103458674Y-48491535D01*
X103413339Y-48496000D01*
X102326661Y-48496000D01*
X102281326Y-48491535D01*
X102243633Y-48480101D01*
X102208897Y-48461534D01*
X102178452Y-48436548D01*
X102153466Y-48406103D01*
X102134899Y-48371367D01*
X102123465Y-48333674D01*
X102119000Y-48288339D01*
X102119000Y-47451661D01*
X102123465Y-47406326D01*
X102134899Y-47368633D01*
X102153466Y-47333897D01*
X102178452Y-47303452D01*
X102208897Y-47278466D01*
X102243633Y-47259899D01*
X102281326Y-47248465D01*
X102326661Y-47244000D01*
X103413339Y-47244000D01*
X103458674Y-47248465D01*
X103458674Y-47248465D01*
G37*
M02*
