G04 #@! TF.GenerationSoftware,KiCad,Pcbnew,(5.1.2)-1*
G04 #@! TF.CreationDate,2020-04-06T18:09:32-04:00*
G04 #@! TF.ProjectId,LM323K,4c4d3332-334b-42e6-9b69-6361645f7063,rev?*
G04 #@! TF.SameCoordinates,Original*
G04 #@! TF.FileFunction,Copper,L2,Bot*
G04 #@! TF.FilePolarity,Positive*
%FSLAX46Y46*%
G04 Gerber Fmt 4.6, Leading zero omitted, Abs format (unit mm)*
G04 Created by KiCad (PCBNEW (5.1.2)-1) date 2020-04-06 18:09:32*
%MOMM*%
%LPD*%
G04 APERTURE LIST*
%ADD10R,2.600000X2.600000*%
%ADD11C,2.600000*%
%ADD12C,6.350000*%
%ADD13R,1.800000X1.800000*%
%ADD14C,1.800000*%
%ADD15C,3.000000*%
%ADD16C,0.800000*%
%ADD17C,0.234000*%
G04 APERTURE END LIST*
D10*
X93678330Y-51708226D03*
D11*
X93678330Y-62628226D03*
D12*
X80378330Y-57158226D03*
X110578330Y-57158226D03*
D13*
X92964000Y-48641000D03*
D14*
X95504000Y-48641000D03*
X98044000Y-48641000D03*
X98044000Y-58166000D03*
X95504000Y-58166000D03*
D13*
X92964000Y-58166000D03*
D14*
X98044000Y-67691000D03*
X95504000Y-67691000D03*
D13*
X92964000Y-67691000D03*
D15*
X106680000Y-50165000D03*
X106680000Y-64135000D03*
D16*
X102895400Y-66802000D03*
X102870000Y-56489600D03*
X102816727Y-47952707D03*
D17*
G36*
X96344888Y-43609217D02*
G01*
X97779757Y-43778017D01*
X99188553Y-44098332D01*
X100556751Y-44567024D01*
X101610974Y-45048785D01*
X113452748Y-53009642D01*
X114119007Y-53563021D01*
X114674142Y-54210987D01*
X115112165Y-54943224D01*
X115420550Y-55738789D01*
X115590483Y-56574951D01*
X115617103Y-57427780D01*
X115499648Y-58272912D01*
X115241479Y-59086163D01*
X114849977Y-59844288D01*
X114336333Y-60525615D01*
X113709472Y-61116086D01*
X113373313Y-61360212D01*
X101614411Y-69265357D01*
X100356939Y-69828101D01*
X98982961Y-70274785D01*
X97569298Y-70572934D01*
X96131958Y-70719174D01*
X94687222Y-70711849D01*
X93251433Y-70551040D01*
X91840870Y-70238571D01*
X90470088Y-69777504D01*
X89361711Y-69278439D01*
X85661645Y-66791000D01*
X91711302Y-66791000D01*
X91711302Y-68591000D01*
X91718079Y-68659808D01*
X91738150Y-68725972D01*
X91770742Y-68786949D01*
X91814605Y-68840395D01*
X91868051Y-68884258D01*
X91929028Y-68916850D01*
X91995192Y-68936921D01*
X92064000Y-68943698D01*
X93864000Y-68943698D01*
X93932808Y-68936921D01*
X93998972Y-68916850D01*
X94059949Y-68884258D01*
X94113395Y-68840395D01*
X94157258Y-68786949D01*
X94189850Y-68725972D01*
X94209921Y-68659808D01*
X94216698Y-68591000D01*
X94216698Y-67567787D01*
X96793000Y-67567787D01*
X96793000Y-67814213D01*
X96841075Y-68055903D01*
X96935378Y-68283571D01*
X97072285Y-68488466D01*
X97246534Y-68662715D01*
X97451429Y-68799622D01*
X97679097Y-68893925D01*
X97920787Y-68942000D01*
X98167213Y-68942000D01*
X98408903Y-68893925D01*
X98636571Y-68799622D01*
X98841466Y-68662715D01*
X99015715Y-68488466D01*
X99152622Y-68283571D01*
X99246925Y-68055903D01*
X99295000Y-67814213D01*
X99295000Y-67567787D01*
X99246925Y-67326097D01*
X99152622Y-67098429D01*
X99015715Y-66893534D01*
X98841466Y-66719285D01*
X98636571Y-66582378D01*
X98408903Y-66488075D01*
X98167213Y-66440000D01*
X97920787Y-66440000D01*
X97679097Y-66488075D01*
X97451429Y-66582378D01*
X97246534Y-66719285D01*
X97072285Y-66893534D01*
X96935378Y-67098429D01*
X96841075Y-67326097D01*
X96793000Y-67567787D01*
X94216698Y-67567787D01*
X94216698Y-66791000D01*
X94209921Y-66722192D01*
X94189850Y-66656028D01*
X94157258Y-66595051D01*
X94113395Y-66541605D01*
X94059949Y-66497742D01*
X93998972Y-66465150D01*
X93932808Y-66445079D01*
X93864000Y-66438302D01*
X92064000Y-66438302D01*
X91995192Y-66445079D01*
X91929028Y-66465150D01*
X91868051Y-66497742D01*
X91814605Y-66541605D01*
X91770742Y-66595051D01*
X91738150Y-66656028D01*
X91718079Y-66722192D01*
X91711302Y-66791000D01*
X85661645Y-66791000D01*
X79227637Y-62465617D01*
X92027330Y-62465617D01*
X92027330Y-62790835D01*
X92090777Y-63109805D01*
X92215233Y-63410268D01*
X92395915Y-63680677D01*
X92625879Y-63910641D01*
X92896288Y-64091323D01*
X93196751Y-64215779D01*
X93515721Y-64279226D01*
X93840939Y-64279226D01*
X94159909Y-64215779D01*
X94460372Y-64091323D01*
X94730781Y-63910641D01*
X94960745Y-63680677D01*
X95141427Y-63410268D01*
X95265883Y-63109805D01*
X95329330Y-62790835D01*
X95329330Y-62465617D01*
X95265883Y-62146647D01*
X95141427Y-61846184D01*
X94960745Y-61575775D01*
X94730781Y-61345811D01*
X94460372Y-61165129D01*
X94159909Y-61040673D01*
X93840939Y-60977226D01*
X93515721Y-60977226D01*
X93196751Y-61040673D01*
X92896288Y-61165129D01*
X92625879Y-61345811D01*
X92395915Y-61575775D01*
X92215233Y-61846184D01*
X92090777Y-62146647D01*
X92027330Y-62465617D01*
X79227637Y-62465617D01*
X77597662Y-61369836D01*
X76921697Y-60834308D01*
X76351730Y-60199342D01*
X75896903Y-59477428D01*
X75570209Y-58689196D01*
X75380997Y-57857193D01*
X75348853Y-57266000D01*
X91711302Y-57266000D01*
X91711302Y-59066000D01*
X91718079Y-59134808D01*
X91738150Y-59200972D01*
X91770742Y-59261949D01*
X91814605Y-59315395D01*
X91868051Y-59359258D01*
X91929028Y-59391850D01*
X91995192Y-59411921D01*
X92064000Y-59418698D01*
X93864000Y-59418698D01*
X93932808Y-59411921D01*
X93998972Y-59391850D01*
X94059949Y-59359258D01*
X94113395Y-59315395D01*
X94157258Y-59261949D01*
X94189850Y-59200972D01*
X94209921Y-59134808D01*
X94216698Y-59066000D01*
X94216698Y-58042787D01*
X96793000Y-58042787D01*
X96793000Y-58289213D01*
X96841075Y-58530903D01*
X96935378Y-58758571D01*
X97072285Y-58963466D01*
X97246534Y-59137715D01*
X97451429Y-59274622D01*
X97679097Y-59368925D01*
X97920787Y-59417000D01*
X98167213Y-59417000D01*
X98408903Y-59368925D01*
X98636571Y-59274622D01*
X98841466Y-59137715D01*
X99015715Y-58963466D01*
X99152622Y-58758571D01*
X99246925Y-58530903D01*
X99295000Y-58289213D01*
X99295000Y-58042787D01*
X99246925Y-57801097D01*
X99152622Y-57573429D01*
X99015715Y-57368534D01*
X98841466Y-57194285D01*
X98636571Y-57057378D01*
X98408903Y-56963075D01*
X98167213Y-56915000D01*
X97920787Y-56915000D01*
X97679097Y-56963075D01*
X97451429Y-57057378D01*
X97246534Y-57194285D01*
X97072285Y-57368534D01*
X96935378Y-57573429D01*
X96841075Y-57801097D01*
X96793000Y-58042787D01*
X94216698Y-58042787D01*
X94216698Y-57266000D01*
X94209921Y-57197192D01*
X94189850Y-57131028D01*
X94157258Y-57070051D01*
X94113395Y-57016605D01*
X94059949Y-56972742D01*
X93998972Y-56940150D01*
X93932808Y-56920079D01*
X93864000Y-56913302D01*
X92064000Y-56913302D01*
X91995192Y-56920079D01*
X91929028Y-56940150D01*
X91868051Y-56972742D01*
X91814605Y-57016605D01*
X91770742Y-57070051D01*
X91738150Y-57131028D01*
X91718079Y-57197192D01*
X91711302Y-57266000D01*
X75348853Y-57266000D01*
X75334673Y-57005203D01*
X75432563Y-56157589D01*
X75671867Y-55338586D01*
X76045744Y-54571607D01*
X76543502Y-53878593D01*
X77156546Y-53273793D01*
X77497378Y-53014034D01*
X81373517Y-50408226D01*
X92025632Y-50408226D01*
X92025632Y-53008226D01*
X92032409Y-53077034D01*
X92052480Y-53143198D01*
X92085072Y-53204175D01*
X92128935Y-53257621D01*
X92182381Y-53301484D01*
X92243358Y-53334076D01*
X92309522Y-53354147D01*
X92378330Y-53360924D01*
X94978330Y-53360924D01*
X95047138Y-53354147D01*
X95113302Y-53334076D01*
X95174279Y-53301484D01*
X95227725Y-53257621D01*
X95271588Y-53204175D01*
X95304180Y-53143198D01*
X95324251Y-53077034D01*
X95331028Y-53008226D01*
X95331028Y-50408226D01*
X95324251Y-50339418D01*
X95304180Y-50273254D01*
X95271588Y-50212277D01*
X95227725Y-50158831D01*
X95174279Y-50114968D01*
X95113302Y-50082376D01*
X95047138Y-50062305D01*
X94978330Y-50055528D01*
X92378330Y-50055528D01*
X92309522Y-50062305D01*
X92243358Y-50082376D01*
X92182381Y-50114968D01*
X92128935Y-50158831D01*
X92085072Y-50212277D01*
X92052480Y-50273254D01*
X92032409Y-50339418D01*
X92025632Y-50408226D01*
X81373517Y-50408226D01*
X85341017Y-47741000D01*
X91711302Y-47741000D01*
X91711302Y-49541000D01*
X91718079Y-49609808D01*
X91738150Y-49675972D01*
X91770742Y-49736949D01*
X91814605Y-49790395D01*
X91868051Y-49834258D01*
X91929028Y-49866850D01*
X91995192Y-49886921D01*
X92064000Y-49893698D01*
X93864000Y-49893698D01*
X93932808Y-49886921D01*
X93998972Y-49866850D01*
X94059949Y-49834258D01*
X94113395Y-49790395D01*
X94157258Y-49736949D01*
X94189850Y-49675972D01*
X94209921Y-49609808D01*
X94216698Y-49541000D01*
X94216698Y-48517787D01*
X96793000Y-48517787D01*
X96793000Y-48764213D01*
X96841075Y-49005903D01*
X96935378Y-49233571D01*
X97072285Y-49438466D01*
X97246534Y-49612715D01*
X97451429Y-49749622D01*
X97679097Y-49843925D01*
X97920787Y-49892000D01*
X98167213Y-49892000D01*
X98408903Y-49843925D01*
X98636571Y-49749622D01*
X98841466Y-49612715D01*
X99015715Y-49438466D01*
X99152622Y-49233571D01*
X99246925Y-49005903D01*
X99295000Y-48764213D01*
X99295000Y-48517787D01*
X99246925Y-48276097D01*
X99152622Y-48048429D01*
X99015715Y-47843534D01*
X98841466Y-47669285D01*
X98636571Y-47532378D01*
X98408903Y-47438075D01*
X98167213Y-47390000D01*
X97920787Y-47390000D01*
X97679097Y-47438075D01*
X97451429Y-47532378D01*
X97246534Y-47669285D01*
X97072285Y-47843534D01*
X96935378Y-48048429D01*
X96841075Y-48276097D01*
X96793000Y-48517787D01*
X94216698Y-48517787D01*
X94216698Y-47741000D01*
X94209921Y-47672192D01*
X94189850Y-47606028D01*
X94157258Y-47545051D01*
X94113395Y-47491605D01*
X94059949Y-47447742D01*
X93998972Y-47415150D01*
X93932808Y-47395079D01*
X93864000Y-47388302D01*
X92064000Y-47388302D01*
X91995192Y-47395079D01*
X91929028Y-47415150D01*
X91868051Y-47447742D01*
X91814605Y-47491605D01*
X91770742Y-47545051D01*
X91738150Y-47606028D01*
X91718079Y-47672192D01*
X91711302Y-47741000D01*
X85341017Y-47741000D01*
X89360475Y-45038844D01*
X90670331Y-44461388D01*
X92046776Y-44022359D01*
X93462075Y-43732084D01*
X94900205Y-43593849D01*
X96344888Y-43609217D01*
X96344888Y-43609217D01*
G37*
X96344888Y-43609217D02*
X97779757Y-43778017D01*
X99188553Y-44098332D01*
X100556751Y-44567024D01*
X101610974Y-45048785D01*
X113452748Y-53009642D01*
X114119007Y-53563021D01*
X114674142Y-54210987D01*
X115112165Y-54943224D01*
X115420550Y-55738789D01*
X115590483Y-56574951D01*
X115617103Y-57427780D01*
X115499648Y-58272912D01*
X115241479Y-59086163D01*
X114849977Y-59844288D01*
X114336333Y-60525615D01*
X113709472Y-61116086D01*
X113373313Y-61360212D01*
X101614411Y-69265357D01*
X100356939Y-69828101D01*
X98982961Y-70274785D01*
X97569298Y-70572934D01*
X96131958Y-70719174D01*
X94687222Y-70711849D01*
X93251433Y-70551040D01*
X91840870Y-70238571D01*
X90470088Y-69777504D01*
X89361711Y-69278439D01*
X85661645Y-66791000D01*
X91711302Y-66791000D01*
X91711302Y-68591000D01*
X91718079Y-68659808D01*
X91738150Y-68725972D01*
X91770742Y-68786949D01*
X91814605Y-68840395D01*
X91868051Y-68884258D01*
X91929028Y-68916850D01*
X91995192Y-68936921D01*
X92064000Y-68943698D01*
X93864000Y-68943698D01*
X93932808Y-68936921D01*
X93998972Y-68916850D01*
X94059949Y-68884258D01*
X94113395Y-68840395D01*
X94157258Y-68786949D01*
X94189850Y-68725972D01*
X94209921Y-68659808D01*
X94216698Y-68591000D01*
X94216698Y-67567787D01*
X96793000Y-67567787D01*
X96793000Y-67814213D01*
X96841075Y-68055903D01*
X96935378Y-68283571D01*
X97072285Y-68488466D01*
X97246534Y-68662715D01*
X97451429Y-68799622D01*
X97679097Y-68893925D01*
X97920787Y-68942000D01*
X98167213Y-68942000D01*
X98408903Y-68893925D01*
X98636571Y-68799622D01*
X98841466Y-68662715D01*
X99015715Y-68488466D01*
X99152622Y-68283571D01*
X99246925Y-68055903D01*
X99295000Y-67814213D01*
X99295000Y-67567787D01*
X99246925Y-67326097D01*
X99152622Y-67098429D01*
X99015715Y-66893534D01*
X98841466Y-66719285D01*
X98636571Y-66582378D01*
X98408903Y-66488075D01*
X98167213Y-66440000D01*
X97920787Y-66440000D01*
X97679097Y-66488075D01*
X97451429Y-66582378D01*
X97246534Y-66719285D01*
X97072285Y-66893534D01*
X96935378Y-67098429D01*
X96841075Y-67326097D01*
X96793000Y-67567787D01*
X94216698Y-67567787D01*
X94216698Y-66791000D01*
X94209921Y-66722192D01*
X94189850Y-66656028D01*
X94157258Y-66595051D01*
X94113395Y-66541605D01*
X94059949Y-66497742D01*
X93998972Y-66465150D01*
X93932808Y-66445079D01*
X93864000Y-66438302D01*
X92064000Y-66438302D01*
X91995192Y-66445079D01*
X91929028Y-66465150D01*
X91868051Y-66497742D01*
X91814605Y-66541605D01*
X91770742Y-66595051D01*
X91738150Y-66656028D01*
X91718079Y-66722192D01*
X91711302Y-66791000D01*
X85661645Y-66791000D01*
X79227637Y-62465617D01*
X92027330Y-62465617D01*
X92027330Y-62790835D01*
X92090777Y-63109805D01*
X92215233Y-63410268D01*
X92395915Y-63680677D01*
X92625879Y-63910641D01*
X92896288Y-64091323D01*
X93196751Y-64215779D01*
X93515721Y-64279226D01*
X93840939Y-64279226D01*
X94159909Y-64215779D01*
X94460372Y-64091323D01*
X94730781Y-63910641D01*
X94960745Y-63680677D01*
X95141427Y-63410268D01*
X95265883Y-63109805D01*
X95329330Y-62790835D01*
X95329330Y-62465617D01*
X95265883Y-62146647D01*
X95141427Y-61846184D01*
X94960745Y-61575775D01*
X94730781Y-61345811D01*
X94460372Y-61165129D01*
X94159909Y-61040673D01*
X93840939Y-60977226D01*
X93515721Y-60977226D01*
X93196751Y-61040673D01*
X92896288Y-61165129D01*
X92625879Y-61345811D01*
X92395915Y-61575775D01*
X92215233Y-61846184D01*
X92090777Y-62146647D01*
X92027330Y-62465617D01*
X79227637Y-62465617D01*
X77597662Y-61369836D01*
X76921697Y-60834308D01*
X76351730Y-60199342D01*
X75896903Y-59477428D01*
X75570209Y-58689196D01*
X75380997Y-57857193D01*
X75348853Y-57266000D01*
X91711302Y-57266000D01*
X91711302Y-59066000D01*
X91718079Y-59134808D01*
X91738150Y-59200972D01*
X91770742Y-59261949D01*
X91814605Y-59315395D01*
X91868051Y-59359258D01*
X91929028Y-59391850D01*
X91995192Y-59411921D01*
X92064000Y-59418698D01*
X93864000Y-59418698D01*
X93932808Y-59411921D01*
X93998972Y-59391850D01*
X94059949Y-59359258D01*
X94113395Y-59315395D01*
X94157258Y-59261949D01*
X94189850Y-59200972D01*
X94209921Y-59134808D01*
X94216698Y-59066000D01*
X94216698Y-58042787D01*
X96793000Y-58042787D01*
X96793000Y-58289213D01*
X96841075Y-58530903D01*
X96935378Y-58758571D01*
X97072285Y-58963466D01*
X97246534Y-59137715D01*
X97451429Y-59274622D01*
X97679097Y-59368925D01*
X97920787Y-59417000D01*
X98167213Y-59417000D01*
X98408903Y-59368925D01*
X98636571Y-59274622D01*
X98841466Y-59137715D01*
X99015715Y-58963466D01*
X99152622Y-58758571D01*
X99246925Y-58530903D01*
X99295000Y-58289213D01*
X99295000Y-58042787D01*
X99246925Y-57801097D01*
X99152622Y-57573429D01*
X99015715Y-57368534D01*
X98841466Y-57194285D01*
X98636571Y-57057378D01*
X98408903Y-56963075D01*
X98167213Y-56915000D01*
X97920787Y-56915000D01*
X97679097Y-56963075D01*
X97451429Y-57057378D01*
X97246534Y-57194285D01*
X97072285Y-57368534D01*
X96935378Y-57573429D01*
X96841075Y-57801097D01*
X96793000Y-58042787D01*
X94216698Y-58042787D01*
X94216698Y-57266000D01*
X94209921Y-57197192D01*
X94189850Y-57131028D01*
X94157258Y-57070051D01*
X94113395Y-57016605D01*
X94059949Y-56972742D01*
X93998972Y-56940150D01*
X93932808Y-56920079D01*
X93864000Y-56913302D01*
X92064000Y-56913302D01*
X91995192Y-56920079D01*
X91929028Y-56940150D01*
X91868051Y-56972742D01*
X91814605Y-57016605D01*
X91770742Y-57070051D01*
X91738150Y-57131028D01*
X91718079Y-57197192D01*
X91711302Y-57266000D01*
X75348853Y-57266000D01*
X75334673Y-57005203D01*
X75432563Y-56157589D01*
X75671867Y-55338586D01*
X76045744Y-54571607D01*
X76543502Y-53878593D01*
X77156546Y-53273793D01*
X77497378Y-53014034D01*
X81373517Y-50408226D01*
X92025632Y-50408226D01*
X92025632Y-53008226D01*
X92032409Y-53077034D01*
X92052480Y-53143198D01*
X92085072Y-53204175D01*
X92128935Y-53257621D01*
X92182381Y-53301484D01*
X92243358Y-53334076D01*
X92309522Y-53354147D01*
X92378330Y-53360924D01*
X94978330Y-53360924D01*
X95047138Y-53354147D01*
X95113302Y-53334076D01*
X95174279Y-53301484D01*
X95227725Y-53257621D01*
X95271588Y-53204175D01*
X95304180Y-53143198D01*
X95324251Y-53077034D01*
X95331028Y-53008226D01*
X95331028Y-50408226D01*
X95324251Y-50339418D01*
X95304180Y-50273254D01*
X95271588Y-50212277D01*
X95227725Y-50158831D01*
X95174279Y-50114968D01*
X95113302Y-50082376D01*
X95047138Y-50062305D01*
X94978330Y-50055528D01*
X92378330Y-50055528D01*
X92309522Y-50062305D01*
X92243358Y-50082376D01*
X92182381Y-50114968D01*
X92128935Y-50158831D01*
X92085072Y-50212277D01*
X92052480Y-50273254D01*
X92032409Y-50339418D01*
X92025632Y-50408226D01*
X81373517Y-50408226D01*
X85341017Y-47741000D01*
X91711302Y-47741000D01*
X91711302Y-49541000D01*
X91718079Y-49609808D01*
X91738150Y-49675972D01*
X91770742Y-49736949D01*
X91814605Y-49790395D01*
X91868051Y-49834258D01*
X91929028Y-49866850D01*
X91995192Y-49886921D01*
X92064000Y-49893698D01*
X93864000Y-49893698D01*
X93932808Y-49886921D01*
X93998972Y-49866850D01*
X94059949Y-49834258D01*
X94113395Y-49790395D01*
X94157258Y-49736949D01*
X94189850Y-49675972D01*
X94209921Y-49609808D01*
X94216698Y-49541000D01*
X94216698Y-48517787D01*
X96793000Y-48517787D01*
X96793000Y-48764213D01*
X96841075Y-49005903D01*
X96935378Y-49233571D01*
X97072285Y-49438466D01*
X97246534Y-49612715D01*
X97451429Y-49749622D01*
X97679097Y-49843925D01*
X97920787Y-49892000D01*
X98167213Y-49892000D01*
X98408903Y-49843925D01*
X98636571Y-49749622D01*
X98841466Y-49612715D01*
X99015715Y-49438466D01*
X99152622Y-49233571D01*
X99246925Y-49005903D01*
X99295000Y-48764213D01*
X99295000Y-48517787D01*
X99246925Y-48276097D01*
X99152622Y-48048429D01*
X99015715Y-47843534D01*
X98841466Y-47669285D01*
X98636571Y-47532378D01*
X98408903Y-47438075D01*
X98167213Y-47390000D01*
X97920787Y-47390000D01*
X97679097Y-47438075D01*
X97451429Y-47532378D01*
X97246534Y-47669285D01*
X97072285Y-47843534D01*
X96935378Y-48048429D01*
X96841075Y-48276097D01*
X96793000Y-48517787D01*
X94216698Y-48517787D01*
X94216698Y-47741000D01*
X94209921Y-47672192D01*
X94189850Y-47606028D01*
X94157258Y-47545051D01*
X94113395Y-47491605D01*
X94059949Y-47447742D01*
X93998972Y-47415150D01*
X93932808Y-47395079D01*
X93864000Y-47388302D01*
X92064000Y-47388302D01*
X91995192Y-47395079D01*
X91929028Y-47415150D01*
X91868051Y-47447742D01*
X91814605Y-47491605D01*
X91770742Y-47545051D01*
X91738150Y-47606028D01*
X91718079Y-47672192D01*
X91711302Y-47741000D01*
X85341017Y-47741000D01*
X89360475Y-45038844D01*
X90670331Y-44461388D01*
X92046776Y-44022359D01*
X93462075Y-43732084D01*
X94900205Y-43593849D01*
X96344888Y-43609217D01*
M02*
