G04 #@! TF.GenerationSoftware,KiCad,Pcbnew,(5.1.2)-1*
G04 #@! TF.CreationDate,2020-04-06T18:09:32-04:00*
G04 #@! TF.ProjectId,LM323K,4c4d3332-334b-42e6-9b69-6361645f7063,rev?*
G04 #@! TF.SameCoordinates,Original*
G04 #@! TF.FileFunction,Soldermask,Bot*
G04 #@! TF.FilePolarity,Negative*
%FSLAX46Y46*%
G04 Gerber Fmt 4.6, Leading zero omitted, Abs format (unit mm)*
G04 Created by KiCad (PCBNEW (5.1.2)-1) date 2020-04-06 18:09:32*
%MOMM*%
%LPD*%
G04 APERTURE LIST*
%ADD10C,0.100000*%
G04 APERTURE END LIST*
D10*
G36*
X116840000Y-76200000D02*
G01*
X101600000Y-76200000D01*
X101600000Y-38100000D01*
X116840000Y-38100000D01*
X116840000Y-76200000D01*
G37*
X116840000Y-76200000D02*
X101600000Y-76200000D01*
X101600000Y-38100000D01*
X116840000Y-38100000D01*
X116840000Y-76200000D01*
G36*
X88900000Y-76200000D02*
G01*
X73660000Y-76200000D01*
X73660000Y-38100000D01*
X88900000Y-38100000D01*
X88900000Y-76200000D01*
G37*
X88900000Y-76200000D02*
X73660000Y-76200000D01*
X73660000Y-38100000D01*
X88900000Y-38100000D01*
X88900000Y-76200000D01*
G36*
X95781395Y-66776546D02*
G01*
X95954466Y-66848234D01*
X95954467Y-66848235D01*
X96110227Y-66952310D01*
X96242690Y-67084773D01*
X96242691Y-67084775D01*
X96346766Y-67240534D01*
X96418454Y-67413605D01*
X96455000Y-67597333D01*
X96455000Y-67784667D01*
X96418454Y-67968395D01*
X96346766Y-68141466D01*
X96346765Y-68141467D01*
X96242690Y-68297227D01*
X96110227Y-68429690D01*
X96031818Y-68482081D01*
X95954466Y-68533766D01*
X95781395Y-68605454D01*
X95597667Y-68642000D01*
X95410333Y-68642000D01*
X95226605Y-68605454D01*
X95053534Y-68533766D01*
X94976182Y-68482081D01*
X94897773Y-68429690D01*
X94765310Y-68297227D01*
X94661235Y-68141467D01*
X94661234Y-68141466D01*
X94589546Y-67968395D01*
X94553000Y-67784667D01*
X94553000Y-67597333D01*
X94589546Y-67413605D01*
X94661234Y-67240534D01*
X94765309Y-67084775D01*
X94765310Y-67084773D01*
X94897773Y-66952310D01*
X95053533Y-66848235D01*
X95053534Y-66848234D01*
X95226605Y-66776546D01*
X95410333Y-66740000D01*
X95597667Y-66740000D01*
X95781395Y-66776546D01*
X95781395Y-66776546D01*
G37*
G36*
X93915000Y-68642000D02*
G01*
X92013000Y-68642000D01*
X92013000Y-66740000D01*
X93915000Y-66740000D01*
X93915000Y-68642000D01*
X93915000Y-68642000D01*
G37*
G36*
X98321395Y-66776546D02*
G01*
X98494466Y-66848234D01*
X98494467Y-66848235D01*
X98650227Y-66952310D01*
X98782690Y-67084773D01*
X98782691Y-67084775D01*
X98886766Y-67240534D01*
X98958454Y-67413605D01*
X98995000Y-67597333D01*
X98995000Y-67784667D01*
X98958454Y-67968395D01*
X98886766Y-68141466D01*
X98886765Y-68141467D01*
X98782690Y-68297227D01*
X98650227Y-68429690D01*
X98571818Y-68482081D01*
X98494466Y-68533766D01*
X98321395Y-68605454D01*
X98137667Y-68642000D01*
X97950333Y-68642000D01*
X97766605Y-68605454D01*
X97593534Y-68533766D01*
X97516182Y-68482081D01*
X97437773Y-68429690D01*
X97305310Y-68297227D01*
X97201235Y-68141467D01*
X97201234Y-68141466D01*
X97129546Y-67968395D01*
X97093000Y-67784667D01*
X97093000Y-67597333D01*
X97129546Y-67413605D01*
X97201234Y-67240534D01*
X97305309Y-67084775D01*
X97305310Y-67084773D01*
X97437773Y-66952310D01*
X97593533Y-66848235D01*
X97593534Y-66848234D01*
X97766605Y-66776546D01*
X97950333Y-66740000D01*
X98137667Y-66740000D01*
X98321395Y-66776546D01*
X98321395Y-66776546D01*
G37*
G36*
X106982585Y-62613802D02*
G01*
X107132410Y-62643604D01*
X107414674Y-62760521D01*
X107668705Y-62930259D01*
X107884741Y-63146295D01*
X108054479Y-63400326D01*
X108169336Y-63677617D01*
X108171396Y-63682591D01*
X108230401Y-63979226D01*
X108231000Y-63982240D01*
X108231000Y-64287760D01*
X108171396Y-64587410D01*
X108054479Y-64869674D01*
X107884741Y-65123705D01*
X107668705Y-65339741D01*
X107414674Y-65509479D01*
X107132410Y-65626396D01*
X106982585Y-65656198D01*
X106832761Y-65686000D01*
X106527239Y-65686000D01*
X106377415Y-65656198D01*
X106227590Y-65626396D01*
X105945326Y-65509479D01*
X105691295Y-65339741D01*
X105475259Y-65123705D01*
X105305521Y-64869674D01*
X105188604Y-64587410D01*
X105129000Y-64287760D01*
X105129000Y-63982240D01*
X105129600Y-63979226D01*
X105188604Y-63682591D01*
X105190664Y-63677617D01*
X105305521Y-63400326D01*
X105475259Y-63146295D01*
X105691295Y-62930259D01*
X105945326Y-62760521D01*
X106227590Y-62643604D01*
X106377415Y-62613802D01*
X106527239Y-62584000D01*
X106832761Y-62584000D01*
X106982585Y-62613802D01*
X106982585Y-62613802D01*
G37*
G36*
X94072402Y-61329144D02*
G01*
X94318269Y-61430985D01*
X94429658Y-61505413D01*
X94539541Y-61578835D01*
X94727721Y-61767015D01*
X94875572Y-61988289D01*
X94977412Y-62234154D01*
X95029330Y-62495163D01*
X95029330Y-62761289D01*
X94977412Y-63022298D01*
X94875572Y-63268163D01*
X94727721Y-63489437D01*
X94539541Y-63677617D01*
X94429658Y-63751039D01*
X94318269Y-63825467D01*
X94318268Y-63825468D01*
X94318267Y-63825468D01*
X94072402Y-63927308D01*
X93811393Y-63979226D01*
X93545267Y-63979226D01*
X93284258Y-63927308D01*
X93038393Y-63825468D01*
X93038392Y-63825468D01*
X93038391Y-63825467D01*
X92927002Y-63751039D01*
X92817119Y-63677617D01*
X92628939Y-63489437D01*
X92481088Y-63268163D01*
X92379248Y-63022298D01*
X92327330Y-62761289D01*
X92327330Y-62495163D01*
X92379248Y-62234154D01*
X92481088Y-61988289D01*
X92628939Y-61767015D01*
X92817119Y-61578835D01*
X92927002Y-61505413D01*
X93038391Y-61430985D01*
X93284258Y-61329144D01*
X93545267Y-61277226D01*
X93811393Y-61277226D01*
X94072402Y-61329144D01*
X94072402Y-61329144D01*
G37*
G36*
X111519318Y-54056199D02*
G01*
X112106412Y-54299381D01*
X112106414Y-54299382D01*
X112634785Y-54652428D01*
X113084128Y-55101771D01*
X113437174Y-55630142D01*
X113437175Y-55630144D01*
X113680357Y-56217238D01*
X113804330Y-56840491D01*
X113804330Y-57475961D01*
X113680357Y-58099214D01*
X113537792Y-58443396D01*
X113437174Y-58686310D01*
X113084128Y-59214681D01*
X112634785Y-59664024D01*
X112106414Y-60017070D01*
X112106413Y-60017071D01*
X112106412Y-60017071D01*
X111519318Y-60260253D01*
X110896065Y-60384226D01*
X110260595Y-60384226D01*
X109637342Y-60260253D01*
X109050248Y-60017071D01*
X109050247Y-60017071D01*
X109050246Y-60017070D01*
X108521875Y-59664024D01*
X108072532Y-59214681D01*
X107719486Y-58686310D01*
X107618868Y-58443396D01*
X107476303Y-58099214D01*
X107352330Y-57475961D01*
X107352330Y-56840491D01*
X107476303Y-56217238D01*
X107719485Y-55630144D01*
X107719486Y-55630142D01*
X108072532Y-55101771D01*
X108521875Y-54652428D01*
X109050246Y-54299382D01*
X109050248Y-54299381D01*
X109637342Y-54056199D01*
X110260595Y-53932226D01*
X110896065Y-53932226D01*
X111519318Y-54056199D01*
X111519318Y-54056199D01*
G37*
G36*
X81319318Y-54056199D02*
G01*
X81906412Y-54299381D01*
X81906414Y-54299382D01*
X82434785Y-54652428D01*
X82884128Y-55101771D01*
X83237174Y-55630142D01*
X83237175Y-55630144D01*
X83480357Y-56217238D01*
X83604330Y-56840491D01*
X83604330Y-57475961D01*
X83480357Y-58099214D01*
X83337792Y-58443396D01*
X83237174Y-58686310D01*
X82884128Y-59214681D01*
X82434785Y-59664024D01*
X81906414Y-60017070D01*
X81906413Y-60017071D01*
X81906412Y-60017071D01*
X81319318Y-60260253D01*
X80696065Y-60384226D01*
X80060595Y-60384226D01*
X79437342Y-60260253D01*
X78850248Y-60017071D01*
X78850247Y-60017071D01*
X78850246Y-60017070D01*
X78321875Y-59664024D01*
X77872532Y-59214681D01*
X77519486Y-58686310D01*
X77418868Y-58443396D01*
X77276303Y-58099214D01*
X77152330Y-57475961D01*
X77152330Y-56840491D01*
X77276303Y-56217238D01*
X77519485Y-55630144D01*
X77519486Y-55630142D01*
X77872532Y-55101771D01*
X78321875Y-54652428D01*
X78850246Y-54299382D01*
X78850248Y-54299381D01*
X79437342Y-54056199D01*
X80060595Y-53932226D01*
X80696065Y-53932226D01*
X81319318Y-54056199D01*
X81319318Y-54056199D01*
G37*
G36*
X98321395Y-57251546D02*
G01*
X98494466Y-57323234D01*
X98494467Y-57323235D01*
X98650227Y-57427310D01*
X98782690Y-57559773D01*
X98782691Y-57559775D01*
X98886766Y-57715534D01*
X98958454Y-57888605D01*
X98995000Y-58072333D01*
X98995000Y-58259667D01*
X98958454Y-58443395D01*
X98886766Y-58616466D01*
X98886765Y-58616467D01*
X98782690Y-58772227D01*
X98650227Y-58904690D01*
X98571818Y-58957081D01*
X98494466Y-59008766D01*
X98321395Y-59080454D01*
X98137667Y-59117000D01*
X97950333Y-59117000D01*
X97766605Y-59080454D01*
X97593534Y-59008766D01*
X97516182Y-58957081D01*
X97437773Y-58904690D01*
X97305310Y-58772227D01*
X97201235Y-58616467D01*
X97201234Y-58616466D01*
X97129546Y-58443395D01*
X97093000Y-58259667D01*
X97093000Y-58072333D01*
X97129546Y-57888605D01*
X97201234Y-57715534D01*
X97305309Y-57559775D01*
X97305310Y-57559773D01*
X97437773Y-57427310D01*
X97593533Y-57323235D01*
X97593534Y-57323234D01*
X97766605Y-57251546D01*
X97950333Y-57215000D01*
X98137667Y-57215000D01*
X98321395Y-57251546D01*
X98321395Y-57251546D01*
G37*
G36*
X95781395Y-57251546D02*
G01*
X95954466Y-57323234D01*
X95954467Y-57323235D01*
X96110227Y-57427310D01*
X96242690Y-57559773D01*
X96242691Y-57559775D01*
X96346766Y-57715534D01*
X96418454Y-57888605D01*
X96455000Y-58072333D01*
X96455000Y-58259667D01*
X96418454Y-58443395D01*
X96346766Y-58616466D01*
X96346765Y-58616467D01*
X96242690Y-58772227D01*
X96110227Y-58904690D01*
X96031818Y-58957081D01*
X95954466Y-59008766D01*
X95781395Y-59080454D01*
X95597667Y-59117000D01*
X95410333Y-59117000D01*
X95226605Y-59080454D01*
X95053534Y-59008766D01*
X94976182Y-58957081D01*
X94897773Y-58904690D01*
X94765310Y-58772227D01*
X94661235Y-58616467D01*
X94661234Y-58616466D01*
X94589546Y-58443395D01*
X94553000Y-58259667D01*
X94553000Y-58072333D01*
X94589546Y-57888605D01*
X94661234Y-57715534D01*
X94765309Y-57559775D01*
X94765310Y-57559773D01*
X94897773Y-57427310D01*
X95053533Y-57323235D01*
X95053534Y-57323234D01*
X95226605Y-57251546D01*
X95410333Y-57215000D01*
X95597667Y-57215000D01*
X95781395Y-57251546D01*
X95781395Y-57251546D01*
G37*
G36*
X93915000Y-59117000D02*
G01*
X92013000Y-59117000D01*
X92013000Y-57215000D01*
X93915000Y-57215000D01*
X93915000Y-59117000D01*
X93915000Y-59117000D01*
G37*
G36*
X95029330Y-53059226D02*
G01*
X92327330Y-53059226D01*
X92327330Y-50357226D01*
X95029330Y-50357226D01*
X95029330Y-53059226D01*
X95029330Y-53059226D01*
G37*
G36*
X106982585Y-48643802D02*
G01*
X107132410Y-48673604D01*
X107414674Y-48790521D01*
X107668705Y-48960259D01*
X107884741Y-49176295D01*
X108054479Y-49430326D01*
X108171396Y-49712590D01*
X108231000Y-50012240D01*
X108231000Y-50317760D01*
X108171396Y-50617410D01*
X108054479Y-50899674D01*
X107884741Y-51153705D01*
X107668705Y-51369741D01*
X107414674Y-51539479D01*
X107132410Y-51656396D01*
X106982585Y-51686198D01*
X106832761Y-51716000D01*
X106527239Y-51716000D01*
X106377415Y-51686198D01*
X106227590Y-51656396D01*
X105945326Y-51539479D01*
X105691295Y-51369741D01*
X105475259Y-51153705D01*
X105305521Y-50899674D01*
X105188604Y-50617410D01*
X105129000Y-50317760D01*
X105129000Y-50012240D01*
X105188604Y-49712590D01*
X105305521Y-49430326D01*
X105475259Y-49176295D01*
X105691295Y-48960259D01*
X105945326Y-48790521D01*
X106227590Y-48673604D01*
X106377415Y-48643802D01*
X106527239Y-48614000D01*
X106832761Y-48614000D01*
X106982585Y-48643802D01*
X106982585Y-48643802D01*
G37*
G36*
X93915000Y-49592000D02*
G01*
X92013000Y-49592000D01*
X92013000Y-47690000D01*
X93915000Y-47690000D01*
X93915000Y-49592000D01*
X93915000Y-49592000D01*
G37*
G36*
X95781395Y-47726546D02*
G01*
X95954466Y-47798234D01*
X95954467Y-47798235D01*
X96110227Y-47902310D01*
X96242690Y-48034773D01*
X96242691Y-48034775D01*
X96346766Y-48190534D01*
X96418454Y-48363605D01*
X96455000Y-48547333D01*
X96455000Y-48734667D01*
X96418454Y-48918395D01*
X96346766Y-49091466D01*
X96346765Y-49091467D01*
X96242690Y-49247227D01*
X96110227Y-49379690D01*
X96031818Y-49432081D01*
X95954466Y-49483766D01*
X95781395Y-49555454D01*
X95597667Y-49592000D01*
X95410333Y-49592000D01*
X95226605Y-49555454D01*
X95053534Y-49483766D01*
X94976182Y-49432081D01*
X94897773Y-49379690D01*
X94765310Y-49247227D01*
X94661235Y-49091467D01*
X94661234Y-49091466D01*
X94589546Y-48918395D01*
X94553000Y-48734667D01*
X94553000Y-48547333D01*
X94589546Y-48363605D01*
X94661234Y-48190534D01*
X94765309Y-48034775D01*
X94765310Y-48034773D01*
X94897773Y-47902310D01*
X95053533Y-47798235D01*
X95053534Y-47798234D01*
X95226605Y-47726546D01*
X95410333Y-47690000D01*
X95597667Y-47690000D01*
X95781395Y-47726546D01*
X95781395Y-47726546D01*
G37*
G36*
X98321395Y-47726546D02*
G01*
X98494466Y-47798234D01*
X98494467Y-47798235D01*
X98650227Y-47902310D01*
X98782690Y-48034773D01*
X98782691Y-48034775D01*
X98886766Y-48190534D01*
X98958454Y-48363605D01*
X98995000Y-48547333D01*
X98995000Y-48734667D01*
X98958454Y-48918395D01*
X98886766Y-49091466D01*
X98886765Y-49091467D01*
X98782690Y-49247227D01*
X98650227Y-49379690D01*
X98571818Y-49432081D01*
X98494466Y-49483766D01*
X98321395Y-49555454D01*
X98137667Y-49592000D01*
X97950333Y-49592000D01*
X97766605Y-49555454D01*
X97593534Y-49483766D01*
X97516182Y-49432081D01*
X97437773Y-49379690D01*
X97305310Y-49247227D01*
X97201235Y-49091467D01*
X97201234Y-49091466D01*
X97129546Y-48918395D01*
X97093000Y-48734667D01*
X97093000Y-48547333D01*
X97129546Y-48363605D01*
X97201234Y-48190534D01*
X97305309Y-48034775D01*
X97305310Y-48034773D01*
X97437773Y-47902310D01*
X97593533Y-47798235D01*
X97593534Y-47798234D01*
X97766605Y-47726546D01*
X97950333Y-47690000D01*
X98137667Y-47690000D01*
X98321395Y-47726546D01*
X98321395Y-47726546D01*
G37*
M02*
