M48
; DRILL file {KiCad (5.1.5)-3} date 6/23/2020 5:41:59 AM
; FORMAT={-:-/ absolute / inch / decimal}
; #@! TF.CreationDate,2020-06-23T05:41:59-04:00
; #@! TF.GenerationSoftware,Kicad,Pcbnew,(5.1.5)-3
; #@! TF.FileFunction,Plated,1,2,PTH
FMAT,2
INCH
T1C0.0157
T2C0.0315
%
G90
G05
T1
X4.28Y-2.91
X4.35Y-2.825
X4.35Y-3.43
X4.605Y-3.025
X4.605Y-3.66
X4.64Y-2.825
T2
X4.2Y-2.8
X4.2Y-2.9
X4.2Y-3.0
X4.2Y-3.1
X4.2Y-3.2
X4.2Y-3.3
X4.2Y-3.4
X4.2Y-3.5
X4.2Y-3.6
X4.2Y-3.7
X4.5Y-2.8
X4.5Y-2.9
X4.5Y-3.0
X4.5Y-3.1
X4.5Y-3.2
X4.5Y-3.3
X4.5Y-3.4
X4.5Y-3.5
X4.5Y-3.6
X4.5Y-3.7
T0
M30
