G04 #@! TF.GenerationSoftware,KiCad,Pcbnew,(5.1.5)-3*
G04 #@! TF.CreationDate,2020-06-23T05:41:58-04:00*
G04 #@! TF.ProjectId,dip20tssop,64697032-3074-4737-936f-702e6b696361,rev?*
G04 #@! TF.SameCoordinates,Original*
G04 #@! TF.FileFunction,Copper,L1,Top*
G04 #@! TF.FilePolarity,Positive*
%FSLAX46Y46*%
G04 Gerber Fmt 4.6, Leading zero omitted, Abs format (unit mm)*
G04 Created by KiCad (PCBNEW (5.1.5)-3) date 2020-06-23 05:41:58*
%MOMM*%
%LPD*%
G04 APERTURE LIST*
%ADD10R,1.600000X1.600000*%
%ADD11O,1.600000X1.600000*%
%ADD12R,1.450000X0.450000*%
%ADD13C,0.800000*%
%ADD14C,0.250000*%
%ADD15C,0.400000*%
%ADD16C,0.600000*%
%ADD17C,0.239000*%
G04 APERTURE END LIST*
D10*
X106680000Y-71120000D03*
D11*
X114300000Y-93980000D03*
X106680000Y-73660000D03*
X114300000Y-91440000D03*
X106680000Y-76200000D03*
X114300000Y-88900000D03*
X106680000Y-78740000D03*
X114300000Y-86360000D03*
X106680000Y-81280000D03*
X114300000Y-83820000D03*
X106680000Y-83820000D03*
X114300000Y-81280000D03*
X106680000Y-86360000D03*
X114300000Y-78740000D03*
X106680000Y-88900000D03*
X114300000Y-76200000D03*
X106680000Y-91440000D03*
X114300000Y-73660000D03*
X106680000Y-93980000D03*
X114300000Y-71120000D03*
D12*
X112366000Y-79625000D03*
X112366000Y-80275000D03*
X112366000Y-80925000D03*
X112366000Y-81575000D03*
X112366000Y-82225000D03*
X112366000Y-82875000D03*
X112366000Y-83525000D03*
X112366000Y-84175000D03*
X112366000Y-84825000D03*
X112366000Y-85475000D03*
X118266000Y-85475000D03*
X118266000Y-84825000D03*
X118266000Y-84175000D03*
X118266000Y-83525000D03*
X118266000Y-82875000D03*
X118266000Y-82225000D03*
X118266000Y-81575000D03*
X118266000Y-80925000D03*
X118266000Y-80275000D03*
X118266000Y-79625000D03*
D13*
X110490000Y-87122000D03*
X117856000Y-71755000D03*
X110490000Y-71755000D03*
X108712000Y-73914000D03*
X116967000Y-76835000D03*
X116967000Y-92964000D03*
D14*
X107730000Y-71120000D02*
X106680000Y-71120000D01*
X112366000Y-75756000D02*
X107730000Y-71120000D01*
X112366000Y-79625000D02*
X112366000Y-75756000D01*
X107479999Y-74459999D02*
X106680000Y-73660000D01*
X107805001Y-76689001D02*
X107805001Y-74785001D01*
X107805001Y-74785001D02*
X107479999Y-74459999D01*
X111391000Y-80275000D02*
X107805001Y-76689001D01*
X112366000Y-80275000D02*
X111391000Y-80275000D01*
X107805001Y-90314999D02*
X107479999Y-90640001D01*
X107479999Y-90640001D02*
X106680000Y-91440000D01*
X107805001Y-88500997D02*
X107805001Y-90314999D01*
X111480998Y-84825000D02*
X107805001Y-88500997D01*
X112366000Y-84825000D02*
X111480998Y-84825000D01*
X106680000Y-76214000D02*
X106680000Y-76200000D01*
X111391000Y-80925000D02*
X106680000Y-76214000D01*
X112366000Y-80925000D02*
X111391000Y-80925000D01*
X109515000Y-81575000D02*
X106680000Y-78740000D01*
X112366000Y-81575000D02*
X109515000Y-81575000D01*
X118266000Y-90014000D02*
X114300000Y-93980000D01*
X118266000Y-85475000D02*
X118266000Y-90014000D01*
X107625000Y-82225000D02*
X106680000Y-81280000D01*
X112366000Y-82225000D02*
X107625000Y-82225000D01*
X115099999Y-90640001D02*
X114300000Y-91440000D01*
X115875011Y-89864989D02*
X115099999Y-90640001D01*
X115875011Y-86240989D02*
X115875011Y-89864989D01*
X117291000Y-84825000D02*
X115875011Y-86240989D01*
X118266000Y-84825000D02*
X117291000Y-84825000D01*
X107625000Y-82875000D02*
X106680000Y-83820000D01*
X112366000Y-82875000D02*
X107625000Y-82875000D01*
X115099999Y-88100001D02*
X114300000Y-88900000D01*
X115425001Y-86040999D02*
X115425001Y-87774999D01*
X117291000Y-84175000D02*
X115425001Y-86040999D01*
X115425001Y-87774999D02*
X115099999Y-88100001D01*
X118266000Y-84175000D02*
X117291000Y-84175000D01*
D15*
X118266000Y-79000000D02*
X118260000Y-78994000D01*
X118266000Y-79625000D02*
X118266000Y-79000000D01*
D16*
X118266000Y-75086000D02*
X114300000Y-71120000D01*
X118266000Y-79000000D02*
X118266000Y-75086000D01*
D14*
X117135000Y-83525000D02*
X114300000Y-86360000D01*
X118266000Y-83525000D02*
X117135000Y-83525000D01*
X109515000Y-83525000D02*
X106680000Y-86360000D01*
X112366000Y-83525000D02*
X109515000Y-83525000D01*
X115245000Y-82875000D02*
X114300000Y-83820000D01*
X118266000Y-82875000D02*
X115245000Y-82875000D01*
D15*
X112268000Y-85573000D02*
X112366000Y-85475000D01*
X112268000Y-86741000D02*
X112268000Y-85573000D01*
X110490000Y-87122000D02*
X111887000Y-87122000D01*
X111887000Y-87122000D02*
X112268000Y-86741000D01*
D14*
X115245000Y-82225000D02*
X114300000Y-81280000D01*
X118266000Y-82225000D02*
X115245000Y-82225000D01*
X117135000Y-81575000D02*
X114300000Y-78740000D01*
X118266000Y-81575000D02*
X117135000Y-81575000D01*
X106680000Y-88886000D02*
X106680000Y-88900000D01*
X111391000Y-84175000D02*
X106680000Y-88886000D01*
X112366000Y-84175000D02*
X111391000Y-84175000D01*
X115099999Y-76999999D02*
X114300000Y-76200000D01*
X115425001Y-78969003D02*
X115425001Y-77325001D01*
X115425001Y-77325001D02*
X115099999Y-76999999D01*
X117380998Y-80925000D02*
X115425001Y-78969003D01*
X118266000Y-80925000D02*
X117380998Y-80925000D01*
X115875011Y-75235011D02*
X115099999Y-74459999D01*
X115875011Y-78769013D02*
X115875011Y-75235011D01*
X117380998Y-80275000D02*
X115875011Y-78769013D01*
X115099999Y-74459999D02*
X114300000Y-73660000D01*
X118266000Y-80275000D02*
X117380998Y-80275000D01*
D17*
G36*
X118961500Y-94704500D02*
G01*
X115209220Y-94704500D01*
X115326649Y-94528755D01*
X115413979Y-94317922D01*
X115458500Y-94094102D01*
X115458500Y-93865898D01*
X115413979Y-93642078D01*
X115386949Y-93576823D01*
X118591098Y-90372675D01*
X118609540Y-90357540D01*
X118624675Y-90339098D01*
X118624679Y-90339094D01*
X118669960Y-90283919D01*
X118714857Y-90199923D01*
X118725906Y-90163498D01*
X118742504Y-90108782D01*
X118749500Y-90037749D01*
X118749500Y-90037739D01*
X118751838Y-90014000D01*
X118749500Y-89990261D01*
X118749500Y-86060234D01*
X118961500Y-86060234D01*
X118961500Y-94704500D01*
G37*
X118961500Y-94704500D02*
X115209220Y-94704500D01*
X115326649Y-94528755D01*
X115413979Y-94317922D01*
X115458500Y-94094102D01*
X115458500Y-93865898D01*
X115413979Y-93642078D01*
X115386949Y-93576823D01*
X118591098Y-90372675D01*
X118609540Y-90357540D01*
X118624675Y-90339098D01*
X118624679Y-90339094D01*
X118669960Y-90283919D01*
X118714857Y-90199923D01*
X118725906Y-90163498D01*
X118742504Y-90108782D01*
X118749500Y-90037749D01*
X118749500Y-90037739D01*
X118751838Y-90014000D01*
X118749500Y-89990261D01*
X118749500Y-86060234D01*
X118961500Y-86060234D01*
X118961500Y-94704500D01*
G36*
X112520500Y-85580500D02*
G01*
X112500500Y-85580500D01*
X112500500Y-86170625D01*
X112657375Y-86327500D01*
X113079658Y-86330434D01*
X113141500Y-86325464D01*
X113141500Y-86474102D01*
X113186021Y-86697922D01*
X113273351Y-86908755D01*
X113400135Y-87098500D01*
X113561500Y-87259865D01*
X113751245Y-87386649D01*
X113962078Y-87473979D01*
X114185898Y-87518500D01*
X114414102Y-87518500D01*
X114637922Y-87473979D01*
X114848755Y-87386649D01*
X114941502Y-87324677D01*
X114941502Y-87574726D01*
X114703177Y-87813051D01*
X114637922Y-87786021D01*
X114414102Y-87741500D01*
X114185898Y-87741500D01*
X113962078Y-87786021D01*
X113751245Y-87873351D01*
X113561500Y-88000135D01*
X113400135Y-88161500D01*
X113273351Y-88351245D01*
X113186021Y-88562078D01*
X113141500Y-88785898D01*
X113141500Y-89014102D01*
X113186021Y-89237922D01*
X113273351Y-89448755D01*
X113400135Y-89638500D01*
X113561500Y-89799865D01*
X113751245Y-89926649D01*
X113962078Y-90013979D01*
X114185898Y-90058500D01*
X114414102Y-90058500D01*
X114637922Y-90013979D01*
X114848755Y-89926649D01*
X115038500Y-89799865D01*
X115199865Y-89638500D01*
X115326649Y-89448755D01*
X115391512Y-89292162D01*
X115391512Y-89664716D01*
X114703177Y-90353051D01*
X114637922Y-90326021D01*
X114414102Y-90281500D01*
X114185898Y-90281500D01*
X113962078Y-90326021D01*
X113751245Y-90413351D01*
X113561500Y-90540135D01*
X113400135Y-90701500D01*
X113273351Y-90891245D01*
X113186021Y-91102078D01*
X113141500Y-91325898D01*
X113141500Y-91554102D01*
X113186021Y-91777922D01*
X113273351Y-91988755D01*
X113400135Y-92178500D01*
X113561500Y-92339865D01*
X113751245Y-92466649D01*
X113962078Y-92553979D01*
X114185898Y-92598500D01*
X114414102Y-92598500D01*
X114637922Y-92553979D01*
X114848755Y-92466649D01*
X115038500Y-92339865D01*
X115199865Y-92178500D01*
X115326649Y-91988755D01*
X115413979Y-91777922D01*
X115458500Y-91554102D01*
X115458500Y-91325898D01*
X115413979Y-91102078D01*
X115386949Y-91036823D01*
X116200104Y-90223668D01*
X116218551Y-90208529D01*
X116278971Y-90134907D01*
X116323868Y-90050912D01*
X116351515Y-89959771D01*
X116358511Y-89888738D01*
X116358511Y-89888729D01*
X116360849Y-89864990D01*
X116358511Y-89841251D01*
X116358511Y-86441261D01*
X117180766Y-85619006D01*
X117180766Y-85700000D01*
X117187688Y-85770278D01*
X117208187Y-85837856D01*
X117241476Y-85900135D01*
X117286276Y-85954724D01*
X117340865Y-85999524D01*
X117403144Y-86032813D01*
X117470722Y-86053312D01*
X117541000Y-86060234D01*
X117782500Y-86060234D01*
X117782501Y-89813726D01*
X114703177Y-92893051D01*
X114637922Y-92866021D01*
X114414102Y-92821500D01*
X114185898Y-92821500D01*
X113962078Y-92866021D01*
X113751245Y-92953351D01*
X113561500Y-93080135D01*
X113400135Y-93241500D01*
X113273351Y-93431245D01*
X113186021Y-93642078D01*
X113141500Y-93865898D01*
X113141500Y-94094102D01*
X113186021Y-94317922D01*
X113273351Y-94528755D01*
X113390780Y-94704500D01*
X107909738Y-94704500D01*
X108026922Y-94452836D01*
X108062613Y-94335161D01*
X107943486Y-94114500D01*
X106814500Y-94114500D01*
X106814500Y-94134500D01*
X106545500Y-94134500D01*
X106545500Y-94114500D01*
X106525500Y-94114500D01*
X106525500Y-93845500D01*
X106545500Y-93845500D01*
X106545500Y-93825500D01*
X106814500Y-93825500D01*
X106814500Y-93845500D01*
X107943486Y-93845500D01*
X108062613Y-93624839D01*
X108026922Y-93507164D01*
X107908796Y-93253478D01*
X107743448Y-93027712D01*
X107537232Y-92838542D01*
X107298073Y-92693237D01*
X107035162Y-92597382D01*
X106814502Y-92715719D01*
X106814502Y-92594442D01*
X107017922Y-92553979D01*
X107228755Y-92466649D01*
X107418500Y-92339865D01*
X107579865Y-92178500D01*
X107706649Y-91988755D01*
X107793979Y-91777922D01*
X107838500Y-91554102D01*
X107838500Y-91325898D01*
X107793979Y-91102078D01*
X107766949Y-91036823D01*
X108130094Y-90673678D01*
X108148541Y-90658539D01*
X108166677Y-90636441D01*
X108208961Y-90584918D01*
X108253858Y-90500922D01*
X108257018Y-90490504D01*
X108281505Y-90409781D01*
X108288501Y-90338748D01*
X108288501Y-90338739D01*
X108290839Y-90315000D01*
X108288501Y-90291261D01*
X108288501Y-88701269D01*
X111056824Y-85932946D01*
X111062895Y-85951735D01*
X111123114Y-86059681D01*
X111203236Y-86153804D01*
X111300180Y-86230488D01*
X111410222Y-86286785D01*
X111529132Y-86320533D01*
X111652342Y-86330434D01*
X112074625Y-86327500D01*
X112231500Y-86170625D01*
X112231500Y-85580500D01*
X112211500Y-85580500D01*
X112211500Y-85410234D01*
X112520500Y-85410234D01*
X112520500Y-85580500D01*
G37*
X112520500Y-85580500D02*
X112500500Y-85580500D01*
X112500500Y-86170625D01*
X112657375Y-86327500D01*
X113079658Y-86330434D01*
X113141500Y-86325464D01*
X113141500Y-86474102D01*
X113186021Y-86697922D01*
X113273351Y-86908755D01*
X113400135Y-87098500D01*
X113561500Y-87259865D01*
X113751245Y-87386649D01*
X113962078Y-87473979D01*
X114185898Y-87518500D01*
X114414102Y-87518500D01*
X114637922Y-87473979D01*
X114848755Y-87386649D01*
X114941502Y-87324677D01*
X114941502Y-87574726D01*
X114703177Y-87813051D01*
X114637922Y-87786021D01*
X114414102Y-87741500D01*
X114185898Y-87741500D01*
X113962078Y-87786021D01*
X113751245Y-87873351D01*
X113561500Y-88000135D01*
X113400135Y-88161500D01*
X113273351Y-88351245D01*
X113186021Y-88562078D01*
X113141500Y-88785898D01*
X113141500Y-89014102D01*
X113186021Y-89237922D01*
X113273351Y-89448755D01*
X113400135Y-89638500D01*
X113561500Y-89799865D01*
X113751245Y-89926649D01*
X113962078Y-90013979D01*
X114185898Y-90058500D01*
X114414102Y-90058500D01*
X114637922Y-90013979D01*
X114848755Y-89926649D01*
X115038500Y-89799865D01*
X115199865Y-89638500D01*
X115326649Y-89448755D01*
X115391512Y-89292162D01*
X115391512Y-89664716D01*
X114703177Y-90353051D01*
X114637922Y-90326021D01*
X114414102Y-90281500D01*
X114185898Y-90281500D01*
X113962078Y-90326021D01*
X113751245Y-90413351D01*
X113561500Y-90540135D01*
X113400135Y-90701500D01*
X113273351Y-90891245D01*
X113186021Y-91102078D01*
X113141500Y-91325898D01*
X113141500Y-91554102D01*
X113186021Y-91777922D01*
X113273351Y-91988755D01*
X113400135Y-92178500D01*
X113561500Y-92339865D01*
X113751245Y-92466649D01*
X113962078Y-92553979D01*
X114185898Y-92598500D01*
X114414102Y-92598500D01*
X114637922Y-92553979D01*
X114848755Y-92466649D01*
X115038500Y-92339865D01*
X115199865Y-92178500D01*
X115326649Y-91988755D01*
X115413979Y-91777922D01*
X115458500Y-91554102D01*
X115458500Y-91325898D01*
X115413979Y-91102078D01*
X115386949Y-91036823D01*
X116200104Y-90223668D01*
X116218551Y-90208529D01*
X116278971Y-90134907D01*
X116323868Y-90050912D01*
X116351515Y-89959771D01*
X116358511Y-89888738D01*
X116358511Y-89888729D01*
X116360849Y-89864990D01*
X116358511Y-89841251D01*
X116358511Y-86441261D01*
X117180766Y-85619006D01*
X117180766Y-85700000D01*
X117187688Y-85770278D01*
X117208187Y-85837856D01*
X117241476Y-85900135D01*
X117286276Y-85954724D01*
X117340865Y-85999524D01*
X117403144Y-86032813D01*
X117470722Y-86053312D01*
X117541000Y-86060234D01*
X117782500Y-86060234D01*
X117782501Y-89813726D01*
X114703177Y-92893051D01*
X114637922Y-92866021D01*
X114414102Y-92821500D01*
X114185898Y-92821500D01*
X113962078Y-92866021D01*
X113751245Y-92953351D01*
X113561500Y-93080135D01*
X113400135Y-93241500D01*
X113273351Y-93431245D01*
X113186021Y-93642078D01*
X113141500Y-93865898D01*
X113141500Y-94094102D01*
X113186021Y-94317922D01*
X113273351Y-94528755D01*
X113390780Y-94704500D01*
X107909738Y-94704500D01*
X108026922Y-94452836D01*
X108062613Y-94335161D01*
X107943486Y-94114500D01*
X106814500Y-94114500D01*
X106814500Y-94134500D01*
X106545500Y-94134500D01*
X106545500Y-94114500D01*
X106525500Y-94114500D01*
X106525500Y-93845500D01*
X106545500Y-93845500D01*
X106545500Y-93825500D01*
X106814500Y-93825500D01*
X106814500Y-93845500D01*
X107943486Y-93845500D01*
X108062613Y-93624839D01*
X108026922Y-93507164D01*
X107908796Y-93253478D01*
X107743448Y-93027712D01*
X107537232Y-92838542D01*
X107298073Y-92693237D01*
X107035162Y-92597382D01*
X106814502Y-92715719D01*
X106814502Y-92594442D01*
X107017922Y-92553979D01*
X107228755Y-92466649D01*
X107418500Y-92339865D01*
X107579865Y-92178500D01*
X107706649Y-91988755D01*
X107793979Y-91777922D01*
X107838500Y-91554102D01*
X107838500Y-91325898D01*
X107793979Y-91102078D01*
X107766949Y-91036823D01*
X108130094Y-90673678D01*
X108148541Y-90658539D01*
X108166677Y-90636441D01*
X108208961Y-90584918D01*
X108253858Y-90500922D01*
X108257018Y-90490504D01*
X108281505Y-90409781D01*
X108288501Y-90338748D01*
X108288501Y-90338739D01*
X108290839Y-90315000D01*
X108288501Y-90291261D01*
X108288501Y-88701269D01*
X111056824Y-85932946D01*
X111062895Y-85951735D01*
X111123114Y-86059681D01*
X111203236Y-86153804D01*
X111300180Y-86230488D01*
X111410222Y-86286785D01*
X111529132Y-86320533D01*
X111652342Y-86330434D01*
X112074625Y-86327500D01*
X112231500Y-86170625D01*
X112231500Y-85580500D01*
X112211500Y-85580500D01*
X112211500Y-85410234D01*
X112520500Y-85410234D01*
X112520500Y-85580500D01*
G36*
X111882501Y-75956274D02*
G01*
X111882500Y-79039766D01*
X111641000Y-79039766D01*
X111570722Y-79046688D01*
X111503144Y-79067187D01*
X111440865Y-79100476D01*
X111386276Y-79145276D01*
X111341476Y-79199865D01*
X111308187Y-79262144D01*
X111287688Y-79329722D01*
X111280766Y-79400000D01*
X111280766Y-79480994D01*
X108288501Y-76488729D01*
X108288501Y-74808739D01*
X108290839Y-74785000D01*
X108288501Y-74761261D01*
X108288501Y-74761252D01*
X108281505Y-74690219D01*
X108253858Y-74599078D01*
X108232898Y-74559865D01*
X108208961Y-74515082D01*
X108163680Y-74459908D01*
X108148541Y-74441461D01*
X108130094Y-74426322D01*
X107766949Y-74063177D01*
X107793979Y-73997922D01*
X107838500Y-73774102D01*
X107838500Y-73545898D01*
X107793979Y-73322078D01*
X107706649Y-73111245D01*
X107579865Y-72921500D01*
X107418500Y-72760135D01*
X107228755Y-72633351D01*
X107017922Y-72546021D01*
X106794102Y-72501500D01*
X106565898Y-72501500D01*
X106342078Y-72546021D01*
X106131245Y-72633351D01*
X105955500Y-72750780D01*
X105955500Y-72280234D01*
X107480000Y-72280234D01*
X107550278Y-72273312D01*
X107617856Y-72252813D01*
X107680135Y-72219524D01*
X107734724Y-72174724D01*
X107779524Y-72120135D01*
X107812813Y-72057856D01*
X107833312Y-71990278D01*
X107840234Y-71920000D01*
X107840234Y-71914006D01*
X111882501Y-75956274D01*
G37*
X111882501Y-75956274D02*
X111882500Y-79039766D01*
X111641000Y-79039766D01*
X111570722Y-79046688D01*
X111503144Y-79067187D01*
X111440865Y-79100476D01*
X111386276Y-79145276D01*
X111341476Y-79199865D01*
X111308187Y-79262144D01*
X111287688Y-79329722D01*
X111280766Y-79400000D01*
X111280766Y-79480994D01*
X108288501Y-76488729D01*
X108288501Y-74808739D01*
X108290839Y-74785000D01*
X108288501Y-74761261D01*
X108288501Y-74761252D01*
X108281505Y-74690219D01*
X108253858Y-74599078D01*
X108232898Y-74559865D01*
X108208961Y-74515082D01*
X108163680Y-74459908D01*
X108148541Y-74441461D01*
X108130094Y-74426322D01*
X107766949Y-74063177D01*
X107793979Y-73997922D01*
X107838500Y-73774102D01*
X107838500Y-73545898D01*
X107793979Y-73322078D01*
X107706649Y-73111245D01*
X107579865Y-72921500D01*
X107418500Y-72760135D01*
X107228755Y-72633351D01*
X107017922Y-72546021D01*
X106794102Y-72501500D01*
X106565898Y-72501500D01*
X106342078Y-72546021D01*
X106131245Y-72633351D01*
X105955500Y-72750780D01*
X105955500Y-72280234D01*
X107480000Y-72280234D01*
X107550278Y-72273312D01*
X107617856Y-72252813D01*
X107680135Y-72219524D01*
X107734724Y-72174724D01*
X107779524Y-72120135D01*
X107812813Y-72057856D01*
X107833312Y-71990278D01*
X107840234Y-71920000D01*
X107840234Y-71914006D01*
X111882501Y-75956274D01*
G36*
X117607501Y-75358761D02*
G01*
X117607500Y-79032347D01*
X117608231Y-79039766D01*
X117541000Y-79039766D01*
X117470722Y-79046688D01*
X117403144Y-79067187D01*
X117340865Y-79100476D01*
X117286276Y-79145276D01*
X117241476Y-79199865D01*
X117208187Y-79262144D01*
X117187688Y-79329722D01*
X117181573Y-79391803D01*
X116358511Y-78568741D01*
X116358511Y-75258749D01*
X116360849Y-75235010D01*
X116358511Y-75211271D01*
X116358511Y-75211262D01*
X116351515Y-75140229D01*
X116323868Y-75049088D01*
X116278971Y-74965093D01*
X116218551Y-74891471D01*
X116200104Y-74876332D01*
X115386949Y-74063177D01*
X115413979Y-73997922D01*
X115458500Y-73774102D01*
X115458500Y-73545898D01*
X115413979Y-73322078D01*
X115326649Y-73111245D01*
X115259519Y-73010779D01*
X117607501Y-75358761D01*
G37*
X117607501Y-75358761D02*
X117607500Y-79032347D01*
X117608231Y-79039766D01*
X117541000Y-79039766D01*
X117470722Y-79046688D01*
X117403144Y-79067187D01*
X117340865Y-79100476D01*
X117286276Y-79145276D01*
X117241476Y-79199865D01*
X117208187Y-79262144D01*
X117187688Y-79329722D01*
X117181573Y-79391803D01*
X116358511Y-78568741D01*
X116358511Y-75258749D01*
X116360849Y-75235010D01*
X116358511Y-75211271D01*
X116358511Y-75211262D01*
X116351515Y-75140229D01*
X116323868Y-75049088D01*
X116278971Y-74965093D01*
X116218551Y-74891471D01*
X116200104Y-74876332D01*
X115386949Y-74063177D01*
X115413979Y-73997922D01*
X115458500Y-73774102D01*
X115458500Y-73545898D01*
X115413979Y-73322078D01*
X115326649Y-73111245D01*
X115259519Y-73010779D01*
X117607501Y-75358761D01*
G36*
X113273351Y-70571245D02*
G01*
X113186021Y-70782078D01*
X113141500Y-71005898D01*
X113141500Y-71234102D01*
X113186021Y-71457922D01*
X113273351Y-71668755D01*
X113400135Y-71858500D01*
X113561500Y-72019865D01*
X113751245Y-72146649D01*
X113962078Y-72233979D01*
X114185898Y-72278500D01*
X114414102Y-72278500D01*
X114508470Y-72259729D01*
X114949222Y-72700481D01*
X114848755Y-72633351D01*
X114637922Y-72546021D01*
X114414102Y-72501500D01*
X114185898Y-72501500D01*
X113962078Y-72546021D01*
X113751245Y-72633351D01*
X113561500Y-72760135D01*
X113400135Y-72921500D01*
X113273351Y-73111245D01*
X113186021Y-73322078D01*
X113141500Y-73545898D01*
X113141500Y-73774102D01*
X113186021Y-73997922D01*
X113273351Y-74208755D01*
X113400135Y-74398500D01*
X113561500Y-74559865D01*
X113751245Y-74686649D01*
X113962078Y-74773979D01*
X114185898Y-74818500D01*
X114414102Y-74818500D01*
X114637922Y-74773979D01*
X114703177Y-74746949D01*
X115391512Y-75435284D01*
X115391512Y-75807838D01*
X115326649Y-75651245D01*
X115199865Y-75461500D01*
X115038500Y-75300135D01*
X114848755Y-75173351D01*
X114637922Y-75086021D01*
X114414102Y-75041500D01*
X114185898Y-75041500D01*
X113962078Y-75086021D01*
X113751245Y-75173351D01*
X113561500Y-75300135D01*
X113400135Y-75461500D01*
X113273351Y-75651245D01*
X113186021Y-75862078D01*
X113141500Y-76085898D01*
X113141500Y-76314102D01*
X113186021Y-76537922D01*
X113273351Y-76748755D01*
X113400135Y-76938500D01*
X113561500Y-77099865D01*
X113751245Y-77226649D01*
X113962078Y-77313979D01*
X114185898Y-77358500D01*
X114414102Y-77358500D01*
X114637922Y-77313979D01*
X114703177Y-77286949D01*
X114941502Y-77525274D01*
X114941502Y-77775323D01*
X114848755Y-77713351D01*
X114637922Y-77626021D01*
X114414102Y-77581500D01*
X114185898Y-77581500D01*
X113962078Y-77626021D01*
X113751245Y-77713351D01*
X113561500Y-77840135D01*
X113400135Y-78001500D01*
X113273351Y-78191245D01*
X113186021Y-78402078D01*
X113141500Y-78625898D01*
X113141500Y-78854102D01*
X113180998Y-79052670D01*
X113161278Y-79046688D01*
X113091000Y-79039766D01*
X112849500Y-79039766D01*
X112849500Y-75779738D01*
X112851838Y-75755999D01*
X112849500Y-75732260D01*
X112849500Y-75732251D01*
X112842504Y-75661218D01*
X112814857Y-75570077D01*
X112769960Y-75486081D01*
X112724679Y-75430906D01*
X112724675Y-75430902D01*
X112709540Y-75412460D01*
X112691098Y-75397325D01*
X108088679Y-70794907D01*
X108073540Y-70776460D01*
X107999918Y-70716040D01*
X107915923Y-70671143D01*
X107840234Y-70648183D01*
X107840234Y-70395500D01*
X113390780Y-70395500D01*
X113273351Y-70571245D01*
G37*
X113273351Y-70571245D02*
X113186021Y-70782078D01*
X113141500Y-71005898D01*
X113141500Y-71234102D01*
X113186021Y-71457922D01*
X113273351Y-71668755D01*
X113400135Y-71858500D01*
X113561500Y-72019865D01*
X113751245Y-72146649D01*
X113962078Y-72233979D01*
X114185898Y-72278500D01*
X114414102Y-72278500D01*
X114508470Y-72259729D01*
X114949222Y-72700481D01*
X114848755Y-72633351D01*
X114637922Y-72546021D01*
X114414102Y-72501500D01*
X114185898Y-72501500D01*
X113962078Y-72546021D01*
X113751245Y-72633351D01*
X113561500Y-72760135D01*
X113400135Y-72921500D01*
X113273351Y-73111245D01*
X113186021Y-73322078D01*
X113141500Y-73545898D01*
X113141500Y-73774102D01*
X113186021Y-73997922D01*
X113273351Y-74208755D01*
X113400135Y-74398500D01*
X113561500Y-74559865D01*
X113751245Y-74686649D01*
X113962078Y-74773979D01*
X114185898Y-74818500D01*
X114414102Y-74818500D01*
X114637922Y-74773979D01*
X114703177Y-74746949D01*
X115391512Y-75435284D01*
X115391512Y-75807838D01*
X115326649Y-75651245D01*
X115199865Y-75461500D01*
X115038500Y-75300135D01*
X114848755Y-75173351D01*
X114637922Y-75086021D01*
X114414102Y-75041500D01*
X114185898Y-75041500D01*
X113962078Y-75086021D01*
X113751245Y-75173351D01*
X113561500Y-75300135D01*
X113400135Y-75461500D01*
X113273351Y-75651245D01*
X113186021Y-75862078D01*
X113141500Y-76085898D01*
X113141500Y-76314102D01*
X113186021Y-76537922D01*
X113273351Y-76748755D01*
X113400135Y-76938500D01*
X113561500Y-77099865D01*
X113751245Y-77226649D01*
X113962078Y-77313979D01*
X114185898Y-77358500D01*
X114414102Y-77358500D01*
X114637922Y-77313979D01*
X114703177Y-77286949D01*
X114941502Y-77525274D01*
X114941502Y-77775323D01*
X114848755Y-77713351D01*
X114637922Y-77626021D01*
X114414102Y-77581500D01*
X114185898Y-77581500D01*
X113962078Y-77626021D01*
X113751245Y-77713351D01*
X113561500Y-77840135D01*
X113400135Y-78001500D01*
X113273351Y-78191245D01*
X113186021Y-78402078D01*
X113141500Y-78625898D01*
X113141500Y-78854102D01*
X113180998Y-79052670D01*
X113161278Y-79046688D01*
X113091000Y-79039766D01*
X112849500Y-79039766D01*
X112849500Y-75779738D01*
X112851838Y-75755999D01*
X112849500Y-75732260D01*
X112849500Y-75732251D01*
X112842504Y-75661218D01*
X112814857Y-75570077D01*
X112769960Y-75486081D01*
X112724679Y-75430906D01*
X112724675Y-75430902D01*
X112709540Y-75412460D01*
X112691098Y-75397325D01*
X108088679Y-70794907D01*
X108073540Y-70776460D01*
X107999918Y-70716040D01*
X107915923Y-70671143D01*
X107840234Y-70648183D01*
X107840234Y-70395500D01*
X113390780Y-70395500D01*
X113273351Y-70571245D01*
G36*
X118961501Y-79039766D02*
G01*
X118923769Y-79039766D01*
X118924500Y-79032348D01*
X118924500Y-75118348D01*
X118927686Y-75086000D01*
X118914972Y-74956911D01*
X118900394Y-74908855D01*
X118877318Y-74832784D01*
X118816172Y-74718387D01*
X118733883Y-74618117D01*
X118708755Y-74597496D01*
X115439729Y-71328470D01*
X115458500Y-71234102D01*
X115458500Y-71005898D01*
X115413979Y-70782078D01*
X115326649Y-70571245D01*
X115209220Y-70395500D01*
X118961501Y-70395500D01*
X118961501Y-79039766D01*
G37*
X118961501Y-79039766D02*
X118923769Y-79039766D01*
X118924500Y-79032348D01*
X118924500Y-75118348D01*
X118927686Y-75086000D01*
X118914972Y-74956911D01*
X118900394Y-74908855D01*
X118877318Y-74832784D01*
X118816172Y-74718387D01*
X118733883Y-74618117D01*
X118708755Y-74597496D01*
X115439729Y-71328470D01*
X115458500Y-71234102D01*
X115458500Y-71005898D01*
X115413979Y-70782078D01*
X115326649Y-70571245D01*
X115209220Y-70395500D01*
X118961501Y-70395500D01*
X118961501Y-79039766D01*
M02*
