G04 #@! TF.GenerationSoftware,KiCad,Pcbnew,(5.1.5)-3*
G04 #@! TF.CreationDate,2020-06-23T06:11:58-04:00*
G04 #@! TF.ProjectId,dip20soic573-373,64697032-3073-46f6-9963-3537332d3337,rev?*
G04 #@! TF.SameCoordinates,Original*
G04 #@! TF.FileFunction,Copper,L2,Bot*
G04 #@! TF.FilePolarity,Positive*
%FSLAX46Y46*%
G04 Gerber Fmt 4.6, Leading zero omitted, Abs format (unit mm)*
G04 Created by KiCad (PCBNEW (5.1.5)-3) date 2020-06-23 06:11:58*
%MOMM*%
%LPD*%
G04 APERTURE LIST*
%ADD10C,0.100000*%
%ADD11R,1.600000X1.600000*%
%ADD12O,1.600000X1.600000*%
%ADD13C,0.400000*%
%ADD14C,0.800000*%
%ADD15C,0.250000*%
%ADD16C,1.500000*%
%ADD17C,0.239000*%
G04 APERTURE END LIST*
G04 #@! TA.AperFunction,SMDPad,CuDef*
D10*
G36*
X110964505Y-74855204D02*
G01*
X110988773Y-74858804D01*
X111012572Y-74864765D01*
X111035671Y-74873030D01*
X111057850Y-74883520D01*
X111078893Y-74896132D01*
X111098599Y-74910747D01*
X111116777Y-74927223D01*
X111133253Y-74945401D01*
X111147868Y-74965107D01*
X111160480Y-74986150D01*
X111170970Y-75008329D01*
X111179235Y-75031428D01*
X111185196Y-75055227D01*
X111188796Y-75079495D01*
X111190000Y-75103999D01*
X111190000Y-75754001D01*
X111188796Y-75778505D01*
X111185196Y-75802773D01*
X111179235Y-75826572D01*
X111170970Y-75849671D01*
X111160480Y-75871850D01*
X111147868Y-75892893D01*
X111133253Y-75912599D01*
X111116777Y-75930777D01*
X111098599Y-75947253D01*
X111078893Y-75961868D01*
X111057850Y-75974480D01*
X111035671Y-75984970D01*
X111012572Y-75993235D01*
X110988773Y-75999196D01*
X110964505Y-76002796D01*
X110940001Y-76004000D01*
X110039999Y-76004000D01*
X110015495Y-76002796D01*
X109991227Y-75999196D01*
X109967428Y-75993235D01*
X109944329Y-75984970D01*
X109922150Y-75974480D01*
X109901107Y-75961868D01*
X109881401Y-75947253D01*
X109863223Y-75930777D01*
X109846747Y-75912599D01*
X109832132Y-75892893D01*
X109819520Y-75871850D01*
X109809030Y-75849671D01*
X109800765Y-75826572D01*
X109794804Y-75802773D01*
X109791204Y-75778505D01*
X109790000Y-75754001D01*
X109790000Y-75103999D01*
X109791204Y-75079495D01*
X109794804Y-75055227D01*
X109800765Y-75031428D01*
X109809030Y-75008329D01*
X109819520Y-74986150D01*
X109832132Y-74965107D01*
X109846747Y-74945401D01*
X109863223Y-74927223D01*
X109881401Y-74910747D01*
X109901107Y-74896132D01*
X109922150Y-74883520D01*
X109944329Y-74873030D01*
X109967428Y-74864765D01*
X109991227Y-74858804D01*
X110015495Y-74855204D01*
X110039999Y-74854000D01*
X110940001Y-74854000D01*
X110964505Y-74855204D01*
G37*
G04 #@! TD.AperFunction*
G04 #@! TA.AperFunction,SMDPad,CuDef*
G36*
X110964505Y-76905204D02*
G01*
X110988773Y-76908804D01*
X111012572Y-76914765D01*
X111035671Y-76923030D01*
X111057850Y-76933520D01*
X111078893Y-76946132D01*
X111098599Y-76960747D01*
X111116777Y-76977223D01*
X111133253Y-76995401D01*
X111147868Y-77015107D01*
X111160480Y-77036150D01*
X111170970Y-77058329D01*
X111179235Y-77081428D01*
X111185196Y-77105227D01*
X111188796Y-77129495D01*
X111190000Y-77153999D01*
X111190000Y-77804001D01*
X111188796Y-77828505D01*
X111185196Y-77852773D01*
X111179235Y-77876572D01*
X111170970Y-77899671D01*
X111160480Y-77921850D01*
X111147868Y-77942893D01*
X111133253Y-77962599D01*
X111116777Y-77980777D01*
X111098599Y-77997253D01*
X111078893Y-78011868D01*
X111057850Y-78024480D01*
X111035671Y-78034970D01*
X111012572Y-78043235D01*
X110988773Y-78049196D01*
X110964505Y-78052796D01*
X110940001Y-78054000D01*
X110039999Y-78054000D01*
X110015495Y-78052796D01*
X109991227Y-78049196D01*
X109967428Y-78043235D01*
X109944329Y-78034970D01*
X109922150Y-78024480D01*
X109901107Y-78011868D01*
X109881401Y-77997253D01*
X109863223Y-77980777D01*
X109846747Y-77962599D01*
X109832132Y-77942893D01*
X109819520Y-77921850D01*
X109809030Y-77899671D01*
X109800765Y-77876572D01*
X109794804Y-77852773D01*
X109791204Y-77828505D01*
X109790000Y-77804001D01*
X109790000Y-77153999D01*
X109791204Y-77129495D01*
X109794804Y-77105227D01*
X109800765Y-77081428D01*
X109809030Y-77058329D01*
X109819520Y-77036150D01*
X109832132Y-77015107D01*
X109846747Y-76995401D01*
X109863223Y-76977223D01*
X109881401Y-76960747D01*
X109901107Y-76946132D01*
X109922150Y-76933520D01*
X109944329Y-76923030D01*
X109967428Y-76914765D01*
X109991227Y-76908804D01*
X110015495Y-76905204D01*
X110039999Y-76904000D01*
X110940001Y-76904000D01*
X110964505Y-76905204D01*
G37*
G04 #@! TD.AperFunction*
D11*
X106680000Y-71120000D03*
D12*
X114300000Y-93980000D03*
X106680000Y-73660000D03*
X114300000Y-91440000D03*
X106680000Y-76200000D03*
X114300000Y-88900000D03*
X106680000Y-78740000D03*
X114300000Y-86360000D03*
X106680000Y-81280000D03*
X114300000Y-83820000D03*
X106680000Y-83820000D03*
X114300000Y-81280000D03*
X106680000Y-86360000D03*
X114300000Y-78740000D03*
X106680000Y-88900000D03*
X114300000Y-76200000D03*
X106680000Y-91440000D03*
X114300000Y-73660000D03*
X106680000Y-93980000D03*
X114300000Y-71120000D03*
D13*
X109982000Y-72517000D03*
X111379000Y-83312000D03*
X110998000Y-88011000D03*
X109855000Y-89662000D03*
X115824000Y-83185000D03*
X109220000Y-83185000D03*
X108204000Y-80645000D03*
D14*
X112549999Y-86233000D03*
X112549999Y-87200001D03*
X117983000Y-71501000D03*
X110490000Y-71374000D03*
X118364000Y-94107000D03*
X107950000Y-74930000D03*
D13*
X117221000Y-85725000D03*
X109982000Y-85725000D03*
X110617000Y-82169000D03*
X108585000Y-81915000D03*
X110490000Y-86995000D03*
X111142001Y-79773001D03*
X117221000Y-86995000D03*
X115697000Y-76835000D03*
D15*
X107823000Y-72517000D02*
X106680000Y-73660000D01*
X109982000Y-72517000D02*
X107823000Y-72517000D01*
X111379000Y-83312000D02*
X111379000Y-87630000D01*
X111379000Y-87630000D02*
X110998000Y-88011000D01*
X110998000Y-88011000D02*
X110998000Y-88011000D01*
X108077000Y-91440000D02*
X106680000Y-91440000D01*
X109855000Y-89662000D02*
X108077000Y-91440000D01*
X115824000Y-89916000D02*
X114300000Y-91440000D01*
X115824000Y-83185000D02*
X115824000Y-89916000D01*
X110490000Y-88900000D02*
X114300000Y-88900000D01*
X109220000Y-83185000D02*
X109220000Y-87630000D01*
X109220000Y-87630000D02*
X110490000Y-88900000D01*
D16*
X110490000Y-74930000D02*
X114300000Y-71120000D01*
X110490000Y-75429000D02*
X110490000Y-74930000D01*
D15*
X108004001Y-85035999D02*
X107479999Y-85560001D01*
X107479999Y-85560001D02*
X106680000Y-86360000D01*
X108059999Y-81662999D02*
X108059999Y-84980001D01*
X108204000Y-80645000D02*
X108204000Y-81518998D01*
X108059999Y-84980001D02*
X106680000Y-86360000D01*
X108204000Y-81518998D02*
X108059999Y-81662999D01*
D16*
X111190000Y-77479000D02*
X110490000Y-77479000D01*
X112549999Y-78838999D02*
X111190000Y-77479000D01*
X112549999Y-87200001D02*
X112549999Y-78838999D01*
D15*
X116349001Y-82197631D02*
X116349001Y-84853001D01*
X114300000Y-81280000D02*
X115431370Y-81280000D01*
X116349001Y-84853001D02*
X117221000Y-85725000D01*
X115431370Y-81280000D02*
X116349001Y-82197631D01*
X109982000Y-85725000D02*
X109982000Y-82804000D01*
X109982000Y-82804000D02*
X110617000Y-82169000D01*
X110617000Y-82169000D02*
X110617000Y-82169000D01*
X108585000Y-86995000D02*
X106680000Y-88900000D01*
X108585000Y-81915000D02*
X108585000Y-86995000D01*
X110490000Y-85994002D02*
X110617000Y-85867002D01*
X110490000Y-86995000D02*
X110490000Y-85994002D01*
X110853999Y-83456001D02*
X110853999Y-83059999D01*
X110617000Y-85867002D02*
X110617000Y-83693000D01*
X110617000Y-83693000D02*
X110853999Y-83456001D01*
X111142001Y-82771997D02*
X111142001Y-79773001D01*
X110853999Y-83059999D02*
X111142001Y-82771997D01*
X111142001Y-79773001D02*
X111142001Y-79773001D01*
X117746001Y-86469999D02*
X117746001Y-82694001D01*
X117221000Y-86995000D02*
X117746001Y-86469999D01*
X117746001Y-82694001D02*
X115697000Y-80645000D01*
X115697000Y-80645000D02*
X115697000Y-76835000D01*
X115697000Y-76835000D02*
X115697000Y-76835000D01*
D17*
G36*
X113273351Y-70571245D02*
G01*
X113267872Y-70584472D01*
X109744679Y-74107667D01*
X109702381Y-74142380D01*
X109563858Y-74311171D01*
X109460925Y-74503743D01*
X109397540Y-74712696D01*
X109381500Y-74875550D01*
X109381500Y-74875557D01*
X109376138Y-74930000D01*
X109381500Y-74984443D01*
X109381500Y-75483449D01*
X109397540Y-75646303D01*
X109429766Y-75752538D01*
X109429766Y-75754001D01*
X109441491Y-75873052D01*
X109476217Y-75987527D01*
X109532609Y-76093028D01*
X109608499Y-76185501D01*
X109700972Y-76261391D01*
X109733897Y-76278990D01*
X109666989Y-76285580D01*
X109548704Y-76321461D01*
X109439693Y-76379728D01*
X109344144Y-76458144D01*
X109265728Y-76553693D01*
X109207461Y-76662704D01*
X109171580Y-76780989D01*
X109159464Y-76904000D01*
X109162500Y-77187625D01*
X109319375Y-77344500D01*
X110355500Y-77344500D01*
X110355500Y-77324500D01*
X110624500Y-77324500D01*
X110624500Y-77344500D01*
X111660625Y-77344500D01*
X111817500Y-77187625D01*
X111820536Y-76904000D01*
X111808420Y-76780989D01*
X111772539Y-76662704D01*
X111714272Y-76553693D01*
X111635856Y-76458144D01*
X111540307Y-76379728D01*
X111431296Y-76321461D01*
X111313011Y-76285580D01*
X111246103Y-76278990D01*
X111279028Y-76261391D01*
X111371501Y-76185501D01*
X111447391Y-76093028D01*
X111503783Y-75987527D01*
X111538509Y-75873052D01*
X111550234Y-75754001D01*
X111550234Y-75752539D01*
X111582460Y-75646304D01*
X111598500Y-75483450D01*
X111598500Y-75389154D01*
X113153454Y-73834201D01*
X113186021Y-73997922D01*
X113273351Y-74208755D01*
X113400135Y-74398500D01*
X113561500Y-74559865D01*
X113751245Y-74686649D01*
X113962078Y-74773979D01*
X114185898Y-74818500D01*
X114414102Y-74818500D01*
X114637922Y-74773979D01*
X114848755Y-74686649D01*
X115038500Y-74559865D01*
X115199865Y-74398500D01*
X115326649Y-74208755D01*
X115413979Y-73997922D01*
X115458500Y-73774102D01*
X115458500Y-73545898D01*
X115413979Y-73322078D01*
X115326649Y-73111245D01*
X115199865Y-72921500D01*
X115038500Y-72760135D01*
X114848755Y-72633351D01*
X114637922Y-72546021D01*
X114474201Y-72513455D01*
X114835528Y-72152128D01*
X114848755Y-72146649D01*
X115038500Y-72019865D01*
X115199865Y-71858500D01*
X115326649Y-71668755D01*
X115413979Y-71457922D01*
X115458500Y-71234102D01*
X115458500Y-71005898D01*
X115413979Y-70782078D01*
X115326649Y-70571245D01*
X115209220Y-70395500D01*
X118961501Y-70395500D01*
X118961500Y-94704500D01*
X115209220Y-94704500D01*
X115326649Y-94528755D01*
X115413979Y-94317922D01*
X115458500Y-94094102D01*
X115458500Y-93865898D01*
X115413979Y-93642078D01*
X115326649Y-93431245D01*
X115199865Y-93241500D01*
X115038500Y-93080135D01*
X114848755Y-92953351D01*
X114637922Y-92866021D01*
X114414102Y-92821500D01*
X114185898Y-92821500D01*
X113962078Y-92866021D01*
X113751245Y-92953351D01*
X113561500Y-93080135D01*
X113400135Y-93241500D01*
X113273351Y-93431245D01*
X113186021Y-93642078D01*
X113141500Y-93865898D01*
X113141500Y-94094102D01*
X113186021Y-94317922D01*
X113273351Y-94528755D01*
X113390780Y-94704500D01*
X107909738Y-94704500D01*
X108026922Y-94452836D01*
X108062613Y-94335161D01*
X107943486Y-94114500D01*
X106814500Y-94114500D01*
X106814500Y-94134500D01*
X106545500Y-94134500D01*
X106545500Y-94114500D01*
X106525500Y-94114500D01*
X106525500Y-93845500D01*
X106545500Y-93845500D01*
X106545500Y-93825500D01*
X106814500Y-93825500D01*
X106814500Y-93845500D01*
X107943486Y-93845500D01*
X108062613Y-93624839D01*
X108026922Y-93507164D01*
X107908796Y-93253478D01*
X107743448Y-93027712D01*
X107537232Y-92838542D01*
X107298073Y-92693237D01*
X107035162Y-92597382D01*
X106814502Y-92715719D01*
X106814502Y-92594442D01*
X107017922Y-92553979D01*
X107228755Y-92466649D01*
X107418500Y-92339865D01*
X107579865Y-92178500D01*
X107706649Y-91988755D01*
X107733679Y-91923500D01*
X108053261Y-91923500D01*
X108077000Y-91925838D01*
X108100739Y-91923500D01*
X108100749Y-91923500D01*
X108171782Y-91916504D01*
X108262923Y-91888857D01*
X108346918Y-91843960D01*
X108420540Y-91783540D01*
X108435679Y-91765093D01*
X109997719Y-90203053D01*
X110017908Y-90199037D01*
X110119549Y-90156936D01*
X110211023Y-90095815D01*
X110288815Y-90018023D01*
X110349936Y-89926549D01*
X110392037Y-89824908D01*
X110413500Y-89717007D01*
X110413500Y-89606993D01*
X110392037Y-89499092D01*
X110349936Y-89397451D01*
X110320870Y-89353951D01*
X110395218Y-89376504D01*
X110466251Y-89383500D01*
X110466260Y-89383500D01*
X110489999Y-89385838D01*
X110513738Y-89383500D01*
X113246321Y-89383500D01*
X113273351Y-89448755D01*
X113400135Y-89638500D01*
X113561500Y-89799865D01*
X113751245Y-89926649D01*
X113962078Y-90013979D01*
X114185898Y-90058500D01*
X114414102Y-90058500D01*
X114637922Y-90013979D01*
X114848755Y-89926649D01*
X115038500Y-89799865D01*
X115199865Y-89638500D01*
X115326649Y-89448755D01*
X115340501Y-89415314D01*
X115340501Y-89715727D01*
X114703177Y-90353051D01*
X114637922Y-90326021D01*
X114414102Y-90281500D01*
X114185898Y-90281500D01*
X113962078Y-90326021D01*
X113751245Y-90413351D01*
X113561500Y-90540135D01*
X113400135Y-90701500D01*
X113273351Y-90891245D01*
X113186021Y-91102078D01*
X113141500Y-91325898D01*
X113141500Y-91554102D01*
X113186021Y-91777922D01*
X113273351Y-91988755D01*
X113400135Y-92178500D01*
X113561500Y-92339865D01*
X113751245Y-92466649D01*
X113962078Y-92553979D01*
X114185898Y-92598500D01*
X114414102Y-92598500D01*
X114637922Y-92553979D01*
X114848755Y-92466649D01*
X115038500Y-92339865D01*
X115199865Y-92178500D01*
X115326649Y-91988755D01*
X115413979Y-91777922D01*
X115458500Y-91554102D01*
X115458500Y-91325898D01*
X115413979Y-91102078D01*
X115386949Y-91036823D01*
X116149093Y-90274679D01*
X116167540Y-90259540D01*
X116227960Y-90185918D01*
X116272857Y-90101923D01*
X116300504Y-90010782D01*
X116307500Y-89939749D01*
X116307500Y-89939740D01*
X116309838Y-89916001D01*
X116307500Y-89892262D01*
X116307500Y-85495272D01*
X116679947Y-85867719D01*
X116683963Y-85887908D01*
X116726064Y-85989549D01*
X116787185Y-86081023D01*
X116864977Y-86158815D01*
X116956451Y-86219936D01*
X117058092Y-86262037D01*
X117165993Y-86283500D01*
X117248728Y-86283500D01*
X117078281Y-86453947D01*
X117058092Y-86457963D01*
X116956451Y-86500064D01*
X116864977Y-86561185D01*
X116787185Y-86638977D01*
X116726064Y-86730451D01*
X116683963Y-86832092D01*
X116662500Y-86939993D01*
X116662500Y-87050007D01*
X116683963Y-87157908D01*
X116726064Y-87259549D01*
X116787185Y-87351023D01*
X116864977Y-87428815D01*
X116956451Y-87489936D01*
X117058092Y-87532037D01*
X117165993Y-87553500D01*
X117276007Y-87553500D01*
X117383908Y-87532037D01*
X117485549Y-87489936D01*
X117577023Y-87428815D01*
X117654815Y-87351023D01*
X117715936Y-87259549D01*
X117758037Y-87157908D01*
X117762053Y-87137719D01*
X118071094Y-86828678D01*
X118089541Y-86813539D01*
X118149961Y-86739917D01*
X118194858Y-86655922D01*
X118222505Y-86564781D01*
X118229501Y-86493748D01*
X118229501Y-86493747D01*
X118231840Y-86469999D01*
X118229501Y-86446250D01*
X118229501Y-82717739D01*
X118231839Y-82694000D01*
X118229501Y-82670261D01*
X118229501Y-82670252D01*
X118222505Y-82599219D01*
X118194858Y-82508078D01*
X118179266Y-82478907D01*
X118149961Y-82424082D01*
X118104680Y-82368907D01*
X118104676Y-82368903D01*
X118089541Y-82350461D01*
X118071099Y-82335326D01*
X116180500Y-80444728D01*
X116180500Y-77116664D01*
X116191936Y-77099549D01*
X116234037Y-76997908D01*
X116255500Y-76890007D01*
X116255500Y-76779993D01*
X116234037Y-76672092D01*
X116191936Y-76570451D01*
X116130815Y-76478977D01*
X116053023Y-76401185D01*
X115961549Y-76340064D01*
X115859908Y-76297963D01*
X115752007Y-76276500D01*
X115641993Y-76276500D01*
X115534092Y-76297963D01*
X115455211Y-76330636D01*
X115458500Y-76314102D01*
X115458500Y-76085898D01*
X115413979Y-75862078D01*
X115326649Y-75651245D01*
X115199865Y-75461500D01*
X115038500Y-75300135D01*
X114848755Y-75173351D01*
X114637922Y-75086021D01*
X114414102Y-75041500D01*
X114185898Y-75041500D01*
X113962078Y-75086021D01*
X113751245Y-75173351D01*
X113561500Y-75300135D01*
X113400135Y-75461500D01*
X113273351Y-75651245D01*
X113186021Y-75862078D01*
X113141500Y-76085898D01*
X113141500Y-76314102D01*
X113186021Y-76537922D01*
X113273351Y-76748755D01*
X113400135Y-76938500D01*
X113561500Y-77099865D01*
X113751245Y-77226649D01*
X113962078Y-77313979D01*
X114185898Y-77358500D01*
X114414102Y-77358500D01*
X114637922Y-77313979D01*
X114848755Y-77226649D01*
X115038500Y-77099865D01*
X115156727Y-76981638D01*
X115159963Y-76997908D01*
X115202064Y-77099549D01*
X115213501Y-77116666D01*
X115213501Y-78021907D01*
X115199865Y-78001500D01*
X115038500Y-77840135D01*
X114848755Y-77713351D01*
X114637922Y-77626021D01*
X114414102Y-77581500D01*
X114185898Y-77581500D01*
X113962078Y-77626021D01*
X113751245Y-77713351D01*
X113561500Y-77840135D01*
X113400135Y-78001500D01*
X113273351Y-78191245D01*
X113186021Y-78402078D01*
X113141500Y-78625898D01*
X113141500Y-78854102D01*
X113186021Y-79077922D01*
X113273351Y-79288755D01*
X113400135Y-79478500D01*
X113561500Y-79639865D01*
X113751245Y-79766649D01*
X113962078Y-79853979D01*
X114185898Y-79898500D01*
X114414102Y-79898500D01*
X114637922Y-79853979D01*
X114848755Y-79766649D01*
X115038500Y-79639865D01*
X115199865Y-79478500D01*
X115213500Y-79458093D01*
X115213500Y-80561906D01*
X115199865Y-80541500D01*
X115038500Y-80380135D01*
X114848755Y-80253351D01*
X114637922Y-80166021D01*
X114414102Y-80121500D01*
X114185898Y-80121500D01*
X113962078Y-80166021D01*
X113751245Y-80253351D01*
X113561500Y-80380135D01*
X113400135Y-80541500D01*
X113273351Y-80731245D01*
X113186021Y-80942078D01*
X113141500Y-81165898D01*
X113141500Y-81394102D01*
X113186021Y-81617922D01*
X113273351Y-81828755D01*
X113400135Y-82018500D01*
X113561500Y-82179865D01*
X113751245Y-82306649D01*
X113962078Y-82393979D01*
X114185898Y-82438500D01*
X114414102Y-82438500D01*
X114637922Y-82393979D01*
X114848755Y-82306649D01*
X115038500Y-82179865D01*
X115199865Y-82018500D01*
X115314514Y-81846916D01*
X115865501Y-82397904D01*
X115865501Y-82626500D01*
X115768993Y-82626500D01*
X115661092Y-82647963D01*
X115559451Y-82690064D01*
X115467977Y-82751185D01*
X115390185Y-82828977D01*
X115329064Y-82920451D01*
X115286963Y-83022092D01*
X115265500Y-83129993D01*
X115265500Y-83179729D01*
X115199865Y-83081500D01*
X115038500Y-82920135D01*
X114848755Y-82793351D01*
X114637922Y-82706021D01*
X114414102Y-82661500D01*
X114185898Y-82661500D01*
X113962078Y-82706021D01*
X113751245Y-82793351D01*
X113561500Y-82920135D01*
X113400135Y-83081500D01*
X113273351Y-83271245D01*
X113186021Y-83482078D01*
X113141500Y-83705898D01*
X113141500Y-83934102D01*
X113186021Y-84157922D01*
X113273351Y-84368755D01*
X113400135Y-84558500D01*
X113561500Y-84719865D01*
X113751245Y-84846649D01*
X113962078Y-84933979D01*
X114185898Y-84978500D01*
X114414102Y-84978500D01*
X114637922Y-84933979D01*
X114848755Y-84846649D01*
X115038500Y-84719865D01*
X115199865Y-84558500D01*
X115326649Y-84368755D01*
X115340500Y-84335315D01*
X115340500Y-85844685D01*
X115326649Y-85811245D01*
X115199865Y-85621500D01*
X115038500Y-85460135D01*
X114848755Y-85333351D01*
X114637922Y-85246021D01*
X114414102Y-85201500D01*
X114185898Y-85201500D01*
X113962078Y-85246021D01*
X113751245Y-85333351D01*
X113561500Y-85460135D01*
X113400135Y-85621500D01*
X113273351Y-85811245D01*
X113186021Y-86022078D01*
X113141500Y-86245898D01*
X113141500Y-86474102D01*
X113186021Y-86697922D01*
X113273351Y-86908755D01*
X113400135Y-87098500D01*
X113561500Y-87259865D01*
X113751245Y-87386649D01*
X113962078Y-87473979D01*
X114185898Y-87518500D01*
X114414102Y-87518500D01*
X114637922Y-87473979D01*
X114848755Y-87386649D01*
X115038500Y-87259865D01*
X115199865Y-87098500D01*
X115326649Y-86908755D01*
X115340501Y-86875314D01*
X115340501Y-88384686D01*
X115326649Y-88351245D01*
X115199865Y-88161500D01*
X115038500Y-88000135D01*
X114848755Y-87873351D01*
X114637922Y-87786021D01*
X114414102Y-87741500D01*
X114185898Y-87741500D01*
X113962078Y-87786021D01*
X113751245Y-87873351D01*
X113561500Y-88000135D01*
X113400135Y-88161500D01*
X113273351Y-88351245D01*
X113246321Y-88416500D01*
X111382338Y-88416500D01*
X111431815Y-88367023D01*
X111492936Y-88275549D01*
X111535037Y-88173908D01*
X111539053Y-88153719D01*
X111704093Y-87988679D01*
X111722540Y-87973540D01*
X111782960Y-87899918D01*
X111827857Y-87815923D01*
X111855504Y-87724782D01*
X111862500Y-87653749D01*
X111862500Y-87653740D01*
X111864838Y-87630001D01*
X111862500Y-87606262D01*
X111862500Y-83593664D01*
X111873936Y-83576549D01*
X111916037Y-83474908D01*
X111937500Y-83367007D01*
X111937500Y-83256993D01*
X111916037Y-83149092D01*
X111873936Y-83047451D01*
X111812815Y-82955977D01*
X111735023Y-82878185D01*
X111643549Y-82817064D01*
X111624191Y-82809046D01*
X111625501Y-82795746D01*
X111625501Y-82795737D01*
X111627839Y-82771998D01*
X111625501Y-82748259D01*
X111625501Y-80054665D01*
X111636937Y-80037550D01*
X111679038Y-79935909D01*
X111700501Y-79828008D01*
X111700501Y-79717994D01*
X111679038Y-79610093D01*
X111636937Y-79508452D01*
X111575816Y-79416978D01*
X111498024Y-79339186D01*
X111406550Y-79278065D01*
X111304909Y-79235964D01*
X111197008Y-79214501D01*
X111086994Y-79214501D01*
X110979093Y-79235964D01*
X110877452Y-79278065D01*
X110785978Y-79339186D01*
X110708186Y-79416978D01*
X110647065Y-79508452D01*
X110604964Y-79610093D01*
X110583501Y-79717994D01*
X110583501Y-79828008D01*
X110604964Y-79935909D01*
X110647065Y-80037550D01*
X110658502Y-80054667D01*
X110658501Y-81610500D01*
X110561993Y-81610500D01*
X110454092Y-81631963D01*
X110352451Y-81674064D01*
X110260977Y-81735185D01*
X110183185Y-81812977D01*
X110122064Y-81904451D01*
X110079963Y-82006092D01*
X110075947Y-82026281D01*
X109656903Y-82445325D01*
X109638461Y-82460460D01*
X109623326Y-82478902D01*
X109623321Y-82478907D01*
X109578040Y-82534082D01*
X109533143Y-82618078D01*
X109506798Y-82704930D01*
X109484549Y-82690064D01*
X109382908Y-82647963D01*
X109275007Y-82626500D01*
X109164993Y-82626500D01*
X109068500Y-82645694D01*
X109068500Y-82196664D01*
X109079936Y-82179549D01*
X109122037Y-82077908D01*
X109143500Y-81970007D01*
X109143500Y-81859993D01*
X109122037Y-81752092D01*
X109079936Y-81650451D01*
X109018815Y-81558977D01*
X108941023Y-81481185D01*
X108849549Y-81420064D01*
X108747908Y-81377963D01*
X108687500Y-81365947D01*
X108687500Y-80926664D01*
X108698936Y-80909549D01*
X108741037Y-80807908D01*
X108762500Y-80700007D01*
X108762500Y-80589993D01*
X108741037Y-80482092D01*
X108698936Y-80380451D01*
X108637815Y-80288977D01*
X108560023Y-80211185D01*
X108468549Y-80150064D01*
X108366908Y-80107963D01*
X108259007Y-80086500D01*
X108148993Y-80086500D01*
X108041092Y-80107963D01*
X107939451Y-80150064D01*
X107847977Y-80211185D01*
X107770185Y-80288977D01*
X107709064Y-80380451D01*
X107666963Y-80482092D01*
X107645500Y-80589993D01*
X107645500Y-80639729D01*
X107579865Y-80541500D01*
X107418500Y-80380135D01*
X107228755Y-80253351D01*
X107017922Y-80166021D01*
X106794102Y-80121500D01*
X106565898Y-80121500D01*
X106342078Y-80166021D01*
X106131245Y-80253351D01*
X105955500Y-80370780D01*
X105955500Y-79649220D01*
X106131245Y-79766649D01*
X106342078Y-79853979D01*
X106565898Y-79898500D01*
X106794102Y-79898500D01*
X107017922Y-79853979D01*
X107228755Y-79766649D01*
X107418500Y-79639865D01*
X107579865Y-79478500D01*
X107706649Y-79288755D01*
X107793979Y-79077922D01*
X107838500Y-78854102D01*
X107838500Y-78625898D01*
X107793979Y-78402078D01*
X107706649Y-78191245D01*
X107614945Y-78054000D01*
X109159464Y-78054000D01*
X109171580Y-78177011D01*
X109207461Y-78295296D01*
X109265728Y-78404307D01*
X109344144Y-78499856D01*
X109439693Y-78578272D01*
X109548704Y-78636539D01*
X109666989Y-78672420D01*
X109790000Y-78684536D01*
X110198625Y-78681500D01*
X110355500Y-78524625D01*
X110355500Y-77613500D01*
X110624500Y-77613500D01*
X110624500Y-78524625D01*
X110781375Y-78681500D01*
X111190000Y-78684536D01*
X111313011Y-78672420D01*
X111431296Y-78636539D01*
X111540307Y-78578272D01*
X111635856Y-78499856D01*
X111714272Y-78404307D01*
X111772539Y-78295296D01*
X111808420Y-78177011D01*
X111820536Y-78054000D01*
X111817500Y-77770375D01*
X111660625Y-77613500D01*
X110624500Y-77613500D01*
X110355500Y-77613500D01*
X109319375Y-77613500D01*
X109162500Y-77770375D01*
X109159464Y-78054000D01*
X107614945Y-78054000D01*
X107579865Y-78001500D01*
X107418500Y-77840135D01*
X107228755Y-77713351D01*
X107017922Y-77626021D01*
X106794102Y-77581500D01*
X106565898Y-77581500D01*
X106342078Y-77626021D01*
X106131245Y-77713351D01*
X105955500Y-77830780D01*
X105955500Y-77109220D01*
X106131245Y-77226649D01*
X106342078Y-77313979D01*
X106565898Y-77358500D01*
X106794102Y-77358500D01*
X107017922Y-77313979D01*
X107228755Y-77226649D01*
X107418500Y-77099865D01*
X107579865Y-76938500D01*
X107706649Y-76748755D01*
X107793979Y-76537922D01*
X107838500Y-76314102D01*
X107838500Y-76085898D01*
X107793979Y-75862078D01*
X107706649Y-75651245D01*
X107579865Y-75461500D01*
X107418500Y-75300135D01*
X107228755Y-75173351D01*
X107017922Y-75086021D01*
X106794102Y-75041500D01*
X106565898Y-75041500D01*
X106342078Y-75086021D01*
X106131245Y-75173351D01*
X105955500Y-75290780D01*
X105955500Y-74569220D01*
X106131245Y-74686649D01*
X106342078Y-74773979D01*
X106565898Y-74818500D01*
X106794102Y-74818500D01*
X107017922Y-74773979D01*
X107228755Y-74686649D01*
X107418500Y-74559865D01*
X107579865Y-74398500D01*
X107706649Y-74208755D01*
X107793979Y-73997922D01*
X107838500Y-73774102D01*
X107838500Y-73545898D01*
X107793979Y-73322078D01*
X107766950Y-73256823D01*
X108023273Y-73000500D01*
X109700336Y-73000500D01*
X109717451Y-73011936D01*
X109819092Y-73054037D01*
X109926993Y-73075500D01*
X110037007Y-73075500D01*
X110144908Y-73054037D01*
X110246549Y-73011936D01*
X110338023Y-72950815D01*
X110415815Y-72873023D01*
X110476936Y-72781549D01*
X110519037Y-72679908D01*
X110540500Y-72572007D01*
X110540500Y-72461993D01*
X110519037Y-72354092D01*
X110476936Y-72252451D01*
X110415815Y-72160977D01*
X110338023Y-72083185D01*
X110246549Y-72022064D01*
X110144908Y-71979963D01*
X110037007Y-71958500D01*
X109926993Y-71958500D01*
X109819092Y-71979963D01*
X109717451Y-72022064D01*
X109700336Y-72033500D01*
X107846738Y-72033500D01*
X107822999Y-72031162D01*
X107820846Y-72031374D01*
X107833312Y-71990278D01*
X107840234Y-71920000D01*
X107840234Y-70395500D01*
X113390780Y-70395500D01*
X113273351Y-70571245D01*
G37*
X113273351Y-70571245D02*
X113267872Y-70584472D01*
X109744679Y-74107667D01*
X109702381Y-74142380D01*
X109563858Y-74311171D01*
X109460925Y-74503743D01*
X109397540Y-74712696D01*
X109381500Y-74875550D01*
X109381500Y-74875557D01*
X109376138Y-74930000D01*
X109381500Y-74984443D01*
X109381500Y-75483449D01*
X109397540Y-75646303D01*
X109429766Y-75752538D01*
X109429766Y-75754001D01*
X109441491Y-75873052D01*
X109476217Y-75987527D01*
X109532609Y-76093028D01*
X109608499Y-76185501D01*
X109700972Y-76261391D01*
X109733897Y-76278990D01*
X109666989Y-76285580D01*
X109548704Y-76321461D01*
X109439693Y-76379728D01*
X109344144Y-76458144D01*
X109265728Y-76553693D01*
X109207461Y-76662704D01*
X109171580Y-76780989D01*
X109159464Y-76904000D01*
X109162500Y-77187625D01*
X109319375Y-77344500D01*
X110355500Y-77344500D01*
X110355500Y-77324500D01*
X110624500Y-77324500D01*
X110624500Y-77344500D01*
X111660625Y-77344500D01*
X111817500Y-77187625D01*
X111820536Y-76904000D01*
X111808420Y-76780989D01*
X111772539Y-76662704D01*
X111714272Y-76553693D01*
X111635856Y-76458144D01*
X111540307Y-76379728D01*
X111431296Y-76321461D01*
X111313011Y-76285580D01*
X111246103Y-76278990D01*
X111279028Y-76261391D01*
X111371501Y-76185501D01*
X111447391Y-76093028D01*
X111503783Y-75987527D01*
X111538509Y-75873052D01*
X111550234Y-75754001D01*
X111550234Y-75752539D01*
X111582460Y-75646304D01*
X111598500Y-75483450D01*
X111598500Y-75389154D01*
X113153454Y-73834201D01*
X113186021Y-73997922D01*
X113273351Y-74208755D01*
X113400135Y-74398500D01*
X113561500Y-74559865D01*
X113751245Y-74686649D01*
X113962078Y-74773979D01*
X114185898Y-74818500D01*
X114414102Y-74818500D01*
X114637922Y-74773979D01*
X114848755Y-74686649D01*
X115038500Y-74559865D01*
X115199865Y-74398500D01*
X115326649Y-74208755D01*
X115413979Y-73997922D01*
X115458500Y-73774102D01*
X115458500Y-73545898D01*
X115413979Y-73322078D01*
X115326649Y-73111245D01*
X115199865Y-72921500D01*
X115038500Y-72760135D01*
X114848755Y-72633351D01*
X114637922Y-72546021D01*
X114474201Y-72513455D01*
X114835528Y-72152128D01*
X114848755Y-72146649D01*
X115038500Y-72019865D01*
X115199865Y-71858500D01*
X115326649Y-71668755D01*
X115413979Y-71457922D01*
X115458500Y-71234102D01*
X115458500Y-71005898D01*
X115413979Y-70782078D01*
X115326649Y-70571245D01*
X115209220Y-70395500D01*
X118961501Y-70395500D01*
X118961500Y-94704500D01*
X115209220Y-94704500D01*
X115326649Y-94528755D01*
X115413979Y-94317922D01*
X115458500Y-94094102D01*
X115458500Y-93865898D01*
X115413979Y-93642078D01*
X115326649Y-93431245D01*
X115199865Y-93241500D01*
X115038500Y-93080135D01*
X114848755Y-92953351D01*
X114637922Y-92866021D01*
X114414102Y-92821500D01*
X114185898Y-92821500D01*
X113962078Y-92866021D01*
X113751245Y-92953351D01*
X113561500Y-93080135D01*
X113400135Y-93241500D01*
X113273351Y-93431245D01*
X113186021Y-93642078D01*
X113141500Y-93865898D01*
X113141500Y-94094102D01*
X113186021Y-94317922D01*
X113273351Y-94528755D01*
X113390780Y-94704500D01*
X107909738Y-94704500D01*
X108026922Y-94452836D01*
X108062613Y-94335161D01*
X107943486Y-94114500D01*
X106814500Y-94114500D01*
X106814500Y-94134500D01*
X106545500Y-94134500D01*
X106545500Y-94114500D01*
X106525500Y-94114500D01*
X106525500Y-93845500D01*
X106545500Y-93845500D01*
X106545500Y-93825500D01*
X106814500Y-93825500D01*
X106814500Y-93845500D01*
X107943486Y-93845500D01*
X108062613Y-93624839D01*
X108026922Y-93507164D01*
X107908796Y-93253478D01*
X107743448Y-93027712D01*
X107537232Y-92838542D01*
X107298073Y-92693237D01*
X107035162Y-92597382D01*
X106814502Y-92715719D01*
X106814502Y-92594442D01*
X107017922Y-92553979D01*
X107228755Y-92466649D01*
X107418500Y-92339865D01*
X107579865Y-92178500D01*
X107706649Y-91988755D01*
X107733679Y-91923500D01*
X108053261Y-91923500D01*
X108077000Y-91925838D01*
X108100739Y-91923500D01*
X108100749Y-91923500D01*
X108171782Y-91916504D01*
X108262923Y-91888857D01*
X108346918Y-91843960D01*
X108420540Y-91783540D01*
X108435679Y-91765093D01*
X109997719Y-90203053D01*
X110017908Y-90199037D01*
X110119549Y-90156936D01*
X110211023Y-90095815D01*
X110288815Y-90018023D01*
X110349936Y-89926549D01*
X110392037Y-89824908D01*
X110413500Y-89717007D01*
X110413500Y-89606993D01*
X110392037Y-89499092D01*
X110349936Y-89397451D01*
X110320870Y-89353951D01*
X110395218Y-89376504D01*
X110466251Y-89383500D01*
X110466260Y-89383500D01*
X110489999Y-89385838D01*
X110513738Y-89383500D01*
X113246321Y-89383500D01*
X113273351Y-89448755D01*
X113400135Y-89638500D01*
X113561500Y-89799865D01*
X113751245Y-89926649D01*
X113962078Y-90013979D01*
X114185898Y-90058500D01*
X114414102Y-90058500D01*
X114637922Y-90013979D01*
X114848755Y-89926649D01*
X115038500Y-89799865D01*
X115199865Y-89638500D01*
X115326649Y-89448755D01*
X115340501Y-89415314D01*
X115340501Y-89715727D01*
X114703177Y-90353051D01*
X114637922Y-90326021D01*
X114414102Y-90281500D01*
X114185898Y-90281500D01*
X113962078Y-90326021D01*
X113751245Y-90413351D01*
X113561500Y-90540135D01*
X113400135Y-90701500D01*
X113273351Y-90891245D01*
X113186021Y-91102078D01*
X113141500Y-91325898D01*
X113141500Y-91554102D01*
X113186021Y-91777922D01*
X113273351Y-91988755D01*
X113400135Y-92178500D01*
X113561500Y-92339865D01*
X113751245Y-92466649D01*
X113962078Y-92553979D01*
X114185898Y-92598500D01*
X114414102Y-92598500D01*
X114637922Y-92553979D01*
X114848755Y-92466649D01*
X115038500Y-92339865D01*
X115199865Y-92178500D01*
X115326649Y-91988755D01*
X115413979Y-91777922D01*
X115458500Y-91554102D01*
X115458500Y-91325898D01*
X115413979Y-91102078D01*
X115386949Y-91036823D01*
X116149093Y-90274679D01*
X116167540Y-90259540D01*
X116227960Y-90185918D01*
X116272857Y-90101923D01*
X116300504Y-90010782D01*
X116307500Y-89939749D01*
X116307500Y-89939740D01*
X116309838Y-89916001D01*
X116307500Y-89892262D01*
X116307500Y-85495272D01*
X116679947Y-85867719D01*
X116683963Y-85887908D01*
X116726064Y-85989549D01*
X116787185Y-86081023D01*
X116864977Y-86158815D01*
X116956451Y-86219936D01*
X117058092Y-86262037D01*
X117165993Y-86283500D01*
X117248728Y-86283500D01*
X117078281Y-86453947D01*
X117058092Y-86457963D01*
X116956451Y-86500064D01*
X116864977Y-86561185D01*
X116787185Y-86638977D01*
X116726064Y-86730451D01*
X116683963Y-86832092D01*
X116662500Y-86939993D01*
X116662500Y-87050007D01*
X116683963Y-87157908D01*
X116726064Y-87259549D01*
X116787185Y-87351023D01*
X116864977Y-87428815D01*
X116956451Y-87489936D01*
X117058092Y-87532037D01*
X117165993Y-87553500D01*
X117276007Y-87553500D01*
X117383908Y-87532037D01*
X117485549Y-87489936D01*
X117577023Y-87428815D01*
X117654815Y-87351023D01*
X117715936Y-87259549D01*
X117758037Y-87157908D01*
X117762053Y-87137719D01*
X118071094Y-86828678D01*
X118089541Y-86813539D01*
X118149961Y-86739917D01*
X118194858Y-86655922D01*
X118222505Y-86564781D01*
X118229501Y-86493748D01*
X118229501Y-86493747D01*
X118231840Y-86469999D01*
X118229501Y-86446250D01*
X118229501Y-82717739D01*
X118231839Y-82694000D01*
X118229501Y-82670261D01*
X118229501Y-82670252D01*
X118222505Y-82599219D01*
X118194858Y-82508078D01*
X118179266Y-82478907D01*
X118149961Y-82424082D01*
X118104680Y-82368907D01*
X118104676Y-82368903D01*
X118089541Y-82350461D01*
X118071099Y-82335326D01*
X116180500Y-80444728D01*
X116180500Y-77116664D01*
X116191936Y-77099549D01*
X116234037Y-76997908D01*
X116255500Y-76890007D01*
X116255500Y-76779993D01*
X116234037Y-76672092D01*
X116191936Y-76570451D01*
X116130815Y-76478977D01*
X116053023Y-76401185D01*
X115961549Y-76340064D01*
X115859908Y-76297963D01*
X115752007Y-76276500D01*
X115641993Y-76276500D01*
X115534092Y-76297963D01*
X115455211Y-76330636D01*
X115458500Y-76314102D01*
X115458500Y-76085898D01*
X115413979Y-75862078D01*
X115326649Y-75651245D01*
X115199865Y-75461500D01*
X115038500Y-75300135D01*
X114848755Y-75173351D01*
X114637922Y-75086021D01*
X114414102Y-75041500D01*
X114185898Y-75041500D01*
X113962078Y-75086021D01*
X113751245Y-75173351D01*
X113561500Y-75300135D01*
X113400135Y-75461500D01*
X113273351Y-75651245D01*
X113186021Y-75862078D01*
X113141500Y-76085898D01*
X113141500Y-76314102D01*
X113186021Y-76537922D01*
X113273351Y-76748755D01*
X113400135Y-76938500D01*
X113561500Y-77099865D01*
X113751245Y-77226649D01*
X113962078Y-77313979D01*
X114185898Y-77358500D01*
X114414102Y-77358500D01*
X114637922Y-77313979D01*
X114848755Y-77226649D01*
X115038500Y-77099865D01*
X115156727Y-76981638D01*
X115159963Y-76997908D01*
X115202064Y-77099549D01*
X115213501Y-77116666D01*
X115213501Y-78021907D01*
X115199865Y-78001500D01*
X115038500Y-77840135D01*
X114848755Y-77713351D01*
X114637922Y-77626021D01*
X114414102Y-77581500D01*
X114185898Y-77581500D01*
X113962078Y-77626021D01*
X113751245Y-77713351D01*
X113561500Y-77840135D01*
X113400135Y-78001500D01*
X113273351Y-78191245D01*
X113186021Y-78402078D01*
X113141500Y-78625898D01*
X113141500Y-78854102D01*
X113186021Y-79077922D01*
X113273351Y-79288755D01*
X113400135Y-79478500D01*
X113561500Y-79639865D01*
X113751245Y-79766649D01*
X113962078Y-79853979D01*
X114185898Y-79898500D01*
X114414102Y-79898500D01*
X114637922Y-79853979D01*
X114848755Y-79766649D01*
X115038500Y-79639865D01*
X115199865Y-79478500D01*
X115213500Y-79458093D01*
X115213500Y-80561906D01*
X115199865Y-80541500D01*
X115038500Y-80380135D01*
X114848755Y-80253351D01*
X114637922Y-80166021D01*
X114414102Y-80121500D01*
X114185898Y-80121500D01*
X113962078Y-80166021D01*
X113751245Y-80253351D01*
X113561500Y-80380135D01*
X113400135Y-80541500D01*
X113273351Y-80731245D01*
X113186021Y-80942078D01*
X113141500Y-81165898D01*
X113141500Y-81394102D01*
X113186021Y-81617922D01*
X113273351Y-81828755D01*
X113400135Y-82018500D01*
X113561500Y-82179865D01*
X113751245Y-82306649D01*
X113962078Y-82393979D01*
X114185898Y-82438500D01*
X114414102Y-82438500D01*
X114637922Y-82393979D01*
X114848755Y-82306649D01*
X115038500Y-82179865D01*
X115199865Y-82018500D01*
X115314514Y-81846916D01*
X115865501Y-82397904D01*
X115865501Y-82626500D01*
X115768993Y-82626500D01*
X115661092Y-82647963D01*
X115559451Y-82690064D01*
X115467977Y-82751185D01*
X115390185Y-82828977D01*
X115329064Y-82920451D01*
X115286963Y-83022092D01*
X115265500Y-83129993D01*
X115265500Y-83179729D01*
X115199865Y-83081500D01*
X115038500Y-82920135D01*
X114848755Y-82793351D01*
X114637922Y-82706021D01*
X114414102Y-82661500D01*
X114185898Y-82661500D01*
X113962078Y-82706021D01*
X113751245Y-82793351D01*
X113561500Y-82920135D01*
X113400135Y-83081500D01*
X113273351Y-83271245D01*
X113186021Y-83482078D01*
X113141500Y-83705898D01*
X113141500Y-83934102D01*
X113186021Y-84157922D01*
X113273351Y-84368755D01*
X113400135Y-84558500D01*
X113561500Y-84719865D01*
X113751245Y-84846649D01*
X113962078Y-84933979D01*
X114185898Y-84978500D01*
X114414102Y-84978500D01*
X114637922Y-84933979D01*
X114848755Y-84846649D01*
X115038500Y-84719865D01*
X115199865Y-84558500D01*
X115326649Y-84368755D01*
X115340500Y-84335315D01*
X115340500Y-85844685D01*
X115326649Y-85811245D01*
X115199865Y-85621500D01*
X115038500Y-85460135D01*
X114848755Y-85333351D01*
X114637922Y-85246021D01*
X114414102Y-85201500D01*
X114185898Y-85201500D01*
X113962078Y-85246021D01*
X113751245Y-85333351D01*
X113561500Y-85460135D01*
X113400135Y-85621500D01*
X113273351Y-85811245D01*
X113186021Y-86022078D01*
X113141500Y-86245898D01*
X113141500Y-86474102D01*
X113186021Y-86697922D01*
X113273351Y-86908755D01*
X113400135Y-87098500D01*
X113561500Y-87259865D01*
X113751245Y-87386649D01*
X113962078Y-87473979D01*
X114185898Y-87518500D01*
X114414102Y-87518500D01*
X114637922Y-87473979D01*
X114848755Y-87386649D01*
X115038500Y-87259865D01*
X115199865Y-87098500D01*
X115326649Y-86908755D01*
X115340501Y-86875314D01*
X115340501Y-88384686D01*
X115326649Y-88351245D01*
X115199865Y-88161500D01*
X115038500Y-88000135D01*
X114848755Y-87873351D01*
X114637922Y-87786021D01*
X114414102Y-87741500D01*
X114185898Y-87741500D01*
X113962078Y-87786021D01*
X113751245Y-87873351D01*
X113561500Y-88000135D01*
X113400135Y-88161500D01*
X113273351Y-88351245D01*
X113246321Y-88416500D01*
X111382338Y-88416500D01*
X111431815Y-88367023D01*
X111492936Y-88275549D01*
X111535037Y-88173908D01*
X111539053Y-88153719D01*
X111704093Y-87988679D01*
X111722540Y-87973540D01*
X111782960Y-87899918D01*
X111827857Y-87815923D01*
X111855504Y-87724782D01*
X111862500Y-87653749D01*
X111862500Y-87653740D01*
X111864838Y-87630001D01*
X111862500Y-87606262D01*
X111862500Y-83593664D01*
X111873936Y-83576549D01*
X111916037Y-83474908D01*
X111937500Y-83367007D01*
X111937500Y-83256993D01*
X111916037Y-83149092D01*
X111873936Y-83047451D01*
X111812815Y-82955977D01*
X111735023Y-82878185D01*
X111643549Y-82817064D01*
X111624191Y-82809046D01*
X111625501Y-82795746D01*
X111625501Y-82795737D01*
X111627839Y-82771998D01*
X111625501Y-82748259D01*
X111625501Y-80054665D01*
X111636937Y-80037550D01*
X111679038Y-79935909D01*
X111700501Y-79828008D01*
X111700501Y-79717994D01*
X111679038Y-79610093D01*
X111636937Y-79508452D01*
X111575816Y-79416978D01*
X111498024Y-79339186D01*
X111406550Y-79278065D01*
X111304909Y-79235964D01*
X111197008Y-79214501D01*
X111086994Y-79214501D01*
X110979093Y-79235964D01*
X110877452Y-79278065D01*
X110785978Y-79339186D01*
X110708186Y-79416978D01*
X110647065Y-79508452D01*
X110604964Y-79610093D01*
X110583501Y-79717994D01*
X110583501Y-79828008D01*
X110604964Y-79935909D01*
X110647065Y-80037550D01*
X110658502Y-80054667D01*
X110658501Y-81610500D01*
X110561993Y-81610500D01*
X110454092Y-81631963D01*
X110352451Y-81674064D01*
X110260977Y-81735185D01*
X110183185Y-81812977D01*
X110122064Y-81904451D01*
X110079963Y-82006092D01*
X110075947Y-82026281D01*
X109656903Y-82445325D01*
X109638461Y-82460460D01*
X109623326Y-82478902D01*
X109623321Y-82478907D01*
X109578040Y-82534082D01*
X109533143Y-82618078D01*
X109506798Y-82704930D01*
X109484549Y-82690064D01*
X109382908Y-82647963D01*
X109275007Y-82626500D01*
X109164993Y-82626500D01*
X109068500Y-82645694D01*
X109068500Y-82196664D01*
X109079936Y-82179549D01*
X109122037Y-82077908D01*
X109143500Y-81970007D01*
X109143500Y-81859993D01*
X109122037Y-81752092D01*
X109079936Y-81650451D01*
X109018815Y-81558977D01*
X108941023Y-81481185D01*
X108849549Y-81420064D01*
X108747908Y-81377963D01*
X108687500Y-81365947D01*
X108687500Y-80926664D01*
X108698936Y-80909549D01*
X108741037Y-80807908D01*
X108762500Y-80700007D01*
X108762500Y-80589993D01*
X108741037Y-80482092D01*
X108698936Y-80380451D01*
X108637815Y-80288977D01*
X108560023Y-80211185D01*
X108468549Y-80150064D01*
X108366908Y-80107963D01*
X108259007Y-80086500D01*
X108148993Y-80086500D01*
X108041092Y-80107963D01*
X107939451Y-80150064D01*
X107847977Y-80211185D01*
X107770185Y-80288977D01*
X107709064Y-80380451D01*
X107666963Y-80482092D01*
X107645500Y-80589993D01*
X107645500Y-80639729D01*
X107579865Y-80541500D01*
X107418500Y-80380135D01*
X107228755Y-80253351D01*
X107017922Y-80166021D01*
X106794102Y-80121500D01*
X106565898Y-80121500D01*
X106342078Y-80166021D01*
X106131245Y-80253351D01*
X105955500Y-80370780D01*
X105955500Y-79649220D01*
X106131245Y-79766649D01*
X106342078Y-79853979D01*
X106565898Y-79898500D01*
X106794102Y-79898500D01*
X107017922Y-79853979D01*
X107228755Y-79766649D01*
X107418500Y-79639865D01*
X107579865Y-79478500D01*
X107706649Y-79288755D01*
X107793979Y-79077922D01*
X107838500Y-78854102D01*
X107838500Y-78625898D01*
X107793979Y-78402078D01*
X107706649Y-78191245D01*
X107614945Y-78054000D01*
X109159464Y-78054000D01*
X109171580Y-78177011D01*
X109207461Y-78295296D01*
X109265728Y-78404307D01*
X109344144Y-78499856D01*
X109439693Y-78578272D01*
X109548704Y-78636539D01*
X109666989Y-78672420D01*
X109790000Y-78684536D01*
X110198625Y-78681500D01*
X110355500Y-78524625D01*
X110355500Y-77613500D01*
X110624500Y-77613500D01*
X110624500Y-78524625D01*
X110781375Y-78681500D01*
X111190000Y-78684536D01*
X111313011Y-78672420D01*
X111431296Y-78636539D01*
X111540307Y-78578272D01*
X111635856Y-78499856D01*
X111714272Y-78404307D01*
X111772539Y-78295296D01*
X111808420Y-78177011D01*
X111820536Y-78054000D01*
X111817500Y-77770375D01*
X111660625Y-77613500D01*
X110624500Y-77613500D01*
X110355500Y-77613500D01*
X109319375Y-77613500D01*
X109162500Y-77770375D01*
X109159464Y-78054000D01*
X107614945Y-78054000D01*
X107579865Y-78001500D01*
X107418500Y-77840135D01*
X107228755Y-77713351D01*
X107017922Y-77626021D01*
X106794102Y-77581500D01*
X106565898Y-77581500D01*
X106342078Y-77626021D01*
X106131245Y-77713351D01*
X105955500Y-77830780D01*
X105955500Y-77109220D01*
X106131245Y-77226649D01*
X106342078Y-77313979D01*
X106565898Y-77358500D01*
X106794102Y-77358500D01*
X107017922Y-77313979D01*
X107228755Y-77226649D01*
X107418500Y-77099865D01*
X107579865Y-76938500D01*
X107706649Y-76748755D01*
X107793979Y-76537922D01*
X107838500Y-76314102D01*
X107838500Y-76085898D01*
X107793979Y-75862078D01*
X107706649Y-75651245D01*
X107579865Y-75461500D01*
X107418500Y-75300135D01*
X107228755Y-75173351D01*
X107017922Y-75086021D01*
X106794102Y-75041500D01*
X106565898Y-75041500D01*
X106342078Y-75086021D01*
X106131245Y-75173351D01*
X105955500Y-75290780D01*
X105955500Y-74569220D01*
X106131245Y-74686649D01*
X106342078Y-74773979D01*
X106565898Y-74818500D01*
X106794102Y-74818500D01*
X107017922Y-74773979D01*
X107228755Y-74686649D01*
X107418500Y-74559865D01*
X107579865Y-74398500D01*
X107706649Y-74208755D01*
X107793979Y-73997922D01*
X107838500Y-73774102D01*
X107838500Y-73545898D01*
X107793979Y-73322078D01*
X107766950Y-73256823D01*
X108023273Y-73000500D01*
X109700336Y-73000500D01*
X109717451Y-73011936D01*
X109819092Y-73054037D01*
X109926993Y-73075500D01*
X110037007Y-73075500D01*
X110144908Y-73054037D01*
X110246549Y-73011936D01*
X110338023Y-72950815D01*
X110415815Y-72873023D01*
X110476936Y-72781549D01*
X110519037Y-72679908D01*
X110540500Y-72572007D01*
X110540500Y-72461993D01*
X110519037Y-72354092D01*
X110476936Y-72252451D01*
X110415815Y-72160977D01*
X110338023Y-72083185D01*
X110246549Y-72022064D01*
X110144908Y-71979963D01*
X110037007Y-71958500D01*
X109926993Y-71958500D01*
X109819092Y-71979963D01*
X109717451Y-72022064D01*
X109700336Y-72033500D01*
X107846738Y-72033500D01*
X107822999Y-72031162D01*
X107820846Y-72031374D01*
X107833312Y-71990278D01*
X107840234Y-71920000D01*
X107840234Y-70395500D01*
X113390780Y-70395500D01*
X113273351Y-70571245D01*
M02*
