M48
; DRILL file {KiCad (5.1.5)-3} date 6/23/2020 6:12:00 AM
; FORMAT={-:-/ absolute / inch / decimal}
; #@! TF.CreationDate,2020-06-23T06:12:00-04:00
; #@! TF.GenerationSoftware,Kicad,Pcbnew,(5.1.5)-3
; #@! TF.FileFunction,Plated,1,2,PTH
FMAT,2
INCH
T1C0.0138
T2C0.0157
T3C0.0315
%
G90
G05
T1
X4.26Y-3.175
X4.275Y-3.225
X4.3Y-3.275
X4.325Y-3.53
X4.33Y-2.855
X4.33Y-3.375
X4.35Y-3.425
X4.355Y-3.235
X4.37Y-3.465
X4.3757Y-3.1407
X4.385Y-3.28
X4.555Y-3.025
X4.56Y-3.275
X4.615Y-3.375
X4.615Y-3.425
T2
X4.25Y-2.95
X4.35Y-2.81
X4.4311Y-3.395
X4.4311Y-3.4331
X4.645Y-2.815
X4.66Y-3.705
T3
X4.2Y-2.8
X4.2Y-2.9
X4.2Y-3.0
X4.2Y-3.1
X4.2Y-3.2
X4.2Y-3.3
X4.2Y-3.4
X4.2Y-3.5
X4.2Y-3.6
X4.2Y-3.7
X4.5Y-2.8
X4.5Y-2.9
X4.5Y-3.0
X4.5Y-3.1
X4.5Y-3.2
X4.5Y-3.3
X4.5Y-3.4
X4.5Y-3.5
X4.5Y-3.6
X4.5Y-3.7
T0
M30
