%FSLAX45Y45*%
G04 Gerber Fmt 4.5, Leading zero omitted, Abs format (unit mm)*
G04 Created by KiCad (PCBNEW (5.1.5)-3) date 2020-06-23 21:54:54*
%MOMM*%
%LPD*%
G04 APERTURE LIST*
%TA.AperFunction,Profile*%
%ADD10C,0.120000*%
%TD*%
%ADD11C,0.200000*%
%ADD12C,0.300000*%
G04 APERTURE END LIST*
D10*
X11938000Y-9512300D02*
X11938000Y-6997700D01*
X10553700Y-9512300D02*
X11938000Y-9512300D01*
X10553700Y-6997700D02*
X10553700Y-9512300D01*
X11938000Y-6997700D02*
X10553700Y-6997700D01*
D11*
D12*
X10834128Y-9984014D02*
X10834128Y-9684014D01*
X10905557Y-9684014D01*
X10948414Y-9698300D01*
X10976986Y-9726872D01*
X10991271Y-9755443D01*
X11005557Y-9812586D01*
X11005557Y-9855443D01*
X10991271Y-9912586D01*
X10976986Y-9941157D01*
X10948414Y-9969729D01*
X10905557Y-9984014D01*
X10834128Y-9984014D01*
X11134128Y-9984014D02*
X11134128Y-9784014D01*
X11134128Y-9841157D02*
X11148414Y-9812586D01*
X11162700Y-9798300D01*
X11191271Y-9784014D01*
X11219843Y-9784014D01*
X11319843Y-9984014D02*
X11319843Y-9784014D01*
X11319843Y-9684014D02*
X11305557Y-9698300D01*
X11319843Y-9712586D01*
X11334128Y-9698300D01*
X11319843Y-9684014D01*
X11319843Y-9712586D01*
X11505557Y-9984014D02*
X11476986Y-9969729D01*
X11462700Y-9941157D01*
X11462700Y-9684014D01*
X11662700Y-9984014D02*
X11634128Y-9969729D01*
X11619843Y-9941157D01*
X11619843Y-9684014D01*
X12005557Y-9984014D02*
X12005557Y-9684014D01*
X12105557Y-9898300D01*
X12205557Y-9684014D01*
X12205557Y-9984014D01*
X12476986Y-9984014D02*
X12476986Y-9826872D01*
X12462700Y-9798300D01*
X12434128Y-9784014D01*
X12376986Y-9784014D01*
X12348414Y-9798300D01*
X12476986Y-9969729D02*
X12448414Y-9984014D01*
X12376986Y-9984014D01*
X12348414Y-9969729D01*
X12334128Y-9941157D01*
X12334128Y-9912586D01*
X12348414Y-9884014D01*
X12376986Y-9869729D01*
X12448414Y-9869729D01*
X12476986Y-9855443D01*
X12619843Y-9784014D02*
X12619843Y-10084014D01*
X12619843Y-9798300D02*
X12648414Y-9784014D01*
X12705557Y-9784014D01*
X12734128Y-9798300D01*
X12748414Y-9812586D01*
X12762700Y-9841157D01*
X12762700Y-9926872D01*
X12748414Y-9955443D01*
X12734128Y-9969729D01*
X12705557Y-9984014D01*
X12648414Y-9984014D01*
X12619843Y-9969729D01*
X12891271Y-9955443D02*
X12905557Y-9969729D01*
X12891271Y-9984014D01*
X12876986Y-9969729D01*
X12891271Y-9955443D01*
X12891271Y-9984014D01*
X12891271Y-9798300D02*
X12905557Y-9812586D01*
X12891271Y-9826872D01*
X12876986Y-9812586D01*
X12891271Y-9798300D01*
X12891271Y-9826872D01*
M02*
