M48
; DRILL file {KiCad (5.1.5)-3} date 6/23/2020 9:54:53 PM
; FORMAT={-:-/ absolute / inch / decimal}
; #@! TF.CreationDate,2020-06-23T21:54:53-04:00
; #@! TF.GenerationSoftware,Kicad,Pcbnew,(5.1.5)-3
; #@! TF.FileFunction,Plated,1,2,PTH
FMAT,2
INCH
T1C0.0138
T2C0.0157
T3C0.0315
%
G90
G05
T1
X4.28Y-3.41
X4.28Y-3.48
X4.38Y-3.6
X4.395Y-3.04
X4.405Y-3.2625
X4.42Y-3.2885
X4.4425Y-3.41
X4.4435Y-3.314
X4.5513Y-3.4557
X4.6061Y-3.1976
X4.636Y-3.2115
X4.6365Y-3.237
X4.6365Y-3.263
X4.6365Y-3.2885
X4.67Y-3.16
X4.676Y-3.314
T2
X4.27Y-3.1205
X4.28Y-2.91
X4.29Y-3.225
X4.35Y-2.83
X4.35Y-3.1015
X4.35Y-3.365
X4.35Y-3.535
X4.35Y-3.7
X4.579Y-3.5405
X4.6Y-2.93
X4.636Y-2.813
X4.655Y-3.7
T3
X4.2Y-2.8
X4.2Y-2.9
X4.2Y-3.0
X4.2Y-3.1
X4.2Y-3.2
X4.2Y-3.3
X4.2Y-3.4
X4.2Y-3.5
X4.2Y-3.6
X4.2Y-3.7
X4.5Y-2.8
X4.5Y-2.9
X4.5Y-3.0
X4.5Y-3.1
X4.5Y-3.2
X4.5Y-3.3
X4.5Y-3.4
X4.5Y-3.5
X4.5Y-3.6
X4.5Y-3.7
T0
M30
