G04 #@! TF.GenerationSoftware,KiCad,Pcbnew,(5.1.5)-3*
G04 #@! TF.CreationDate,2020-06-23T21:54:51-04:00*
G04 #@! TF.ProjectId,dip20tssop573-373,64697032-3074-4737-936f-703537332d33,rev?*
G04 #@! TF.SameCoordinates,Original*
G04 #@! TF.FileFunction,Copper,L2,Bot*
G04 #@! TF.FilePolarity,Positive*
%FSLAX46Y46*%
G04 Gerber Fmt 4.6, Leading zero omitted, Abs format (unit mm)*
G04 Created by KiCad (PCBNEW (5.1.5)-3) date 2020-06-23 21:54:51*
%MOMM*%
%LPD*%
G04 APERTURE LIST*
%ADD10C,0.100000*%
%ADD11R,1.600000X1.600000*%
%ADD12O,1.600000X1.600000*%
%ADD13C,0.400000*%
%ADD14C,0.800000*%
%ADD15C,0.250000*%
%ADD16C,1.500000*%
%ADD17C,0.239000*%
G04 APERTURE END LIST*
G04 #@! TA.AperFunction,SMDPad,CuDef*
D10*
G36*
X110964505Y-75617204D02*
G01*
X110988773Y-75620804D01*
X111012572Y-75626765D01*
X111035671Y-75635030D01*
X111057850Y-75645520D01*
X111078893Y-75658132D01*
X111098599Y-75672747D01*
X111116777Y-75689223D01*
X111133253Y-75707401D01*
X111147868Y-75727107D01*
X111160480Y-75748150D01*
X111170970Y-75770329D01*
X111179235Y-75793428D01*
X111185196Y-75817227D01*
X111188796Y-75841495D01*
X111190000Y-75865999D01*
X111190000Y-76516001D01*
X111188796Y-76540505D01*
X111185196Y-76564773D01*
X111179235Y-76588572D01*
X111170970Y-76611671D01*
X111160480Y-76633850D01*
X111147868Y-76654893D01*
X111133253Y-76674599D01*
X111116777Y-76692777D01*
X111098599Y-76709253D01*
X111078893Y-76723868D01*
X111057850Y-76736480D01*
X111035671Y-76746970D01*
X111012572Y-76755235D01*
X110988773Y-76761196D01*
X110964505Y-76764796D01*
X110940001Y-76766000D01*
X110039999Y-76766000D01*
X110015495Y-76764796D01*
X109991227Y-76761196D01*
X109967428Y-76755235D01*
X109944329Y-76746970D01*
X109922150Y-76736480D01*
X109901107Y-76723868D01*
X109881401Y-76709253D01*
X109863223Y-76692777D01*
X109846747Y-76674599D01*
X109832132Y-76654893D01*
X109819520Y-76633850D01*
X109809030Y-76611671D01*
X109800765Y-76588572D01*
X109794804Y-76564773D01*
X109791204Y-76540505D01*
X109790000Y-76516001D01*
X109790000Y-75865999D01*
X109791204Y-75841495D01*
X109794804Y-75817227D01*
X109800765Y-75793428D01*
X109809030Y-75770329D01*
X109819520Y-75748150D01*
X109832132Y-75727107D01*
X109846747Y-75707401D01*
X109863223Y-75689223D01*
X109881401Y-75672747D01*
X109901107Y-75658132D01*
X109922150Y-75645520D01*
X109944329Y-75635030D01*
X109967428Y-75626765D01*
X109991227Y-75620804D01*
X110015495Y-75617204D01*
X110039999Y-75616000D01*
X110940001Y-75616000D01*
X110964505Y-75617204D01*
G37*
G04 #@! TD.AperFunction*
G04 #@! TA.AperFunction,SMDPad,CuDef*
G36*
X110964505Y-77667204D02*
G01*
X110988773Y-77670804D01*
X111012572Y-77676765D01*
X111035671Y-77685030D01*
X111057850Y-77695520D01*
X111078893Y-77708132D01*
X111098599Y-77722747D01*
X111116777Y-77739223D01*
X111133253Y-77757401D01*
X111147868Y-77777107D01*
X111160480Y-77798150D01*
X111170970Y-77820329D01*
X111179235Y-77843428D01*
X111185196Y-77867227D01*
X111188796Y-77891495D01*
X111190000Y-77915999D01*
X111190000Y-78566001D01*
X111188796Y-78590505D01*
X111185196Y-78614773D01*
X111179235Y-78638572D01*
X111170970Y-78661671D01*
X111160480Y-78683850D01*
X111147868Y-78704893D01*
X111133253Y-78724599D01*
X111116777Y-78742777D01*
X111098599Y-78759253D01*
X111078893Y-78773868D01*
X111057850Y-78786480D01*
X111035671Y-78796970D01*
X111012572Y-78805235D01*
X110988773Y-78811196D01*
X110964505Y-78814796D01*
X110940001Y-78816000D01*
X110039999Y-78816000D01*
X110015495Y-78814796D01*
X109991227Y-78811196D01*
X109967428Y-78805235D01*
X109944329Y-78796970D01*
X109922150Y-78786480D01*
X109901107Y-78773868D01*
X109881401Y-78759253D01*
X109863223Y-78742777D01*
X109846747Y-78724599D01*
X109832132Y-78704893D01*
X109819520Y-78683850D01*
X109809030Y-78661671D01*
X109800765Y-78638572D01*
X109794804Y-78614773D01*
X109791204Y-78590505D01*
X109790000Y-78566001D01*
X109790000Y-77915999D01*
X109791204Y-77891495D01*
X109794804Y-77867227D01*
X109800765Y-77843428D01*
X109809030Y-77820329D01*
X109819520Y-77798150D01*
X109832132Y-77777107D01*
X109846747Y-77757401D01*
X109863223Y-77739223D01*
X109881401Y-77722747D01*
X109901107Y-77708132D01*
X109922150Y-77695520D01*
X109944329Y-77685030D01*
X109967428Y-77676765D01*
X109991227Y-77670804D01*
X110015495Y-77667204D01*
X110039999Y-77666000D01*
X110940001Y-77666000D01*
X110964505Y-77667204D01*
G37*
G04 #@! TD.AperFunction*
D11*
X106680000Y-71120000D03*
D12*
X114300000Y-93980000D03*
X106680000Y-73660000D03*
X114300000Y-91440000D03*
X106680000Y-76200000D03*
X114300000Y-88900000D03*
X106680000Y-78740000D03*
X114300000Y-86360000D03*
X106680000Y-81280000D03*
X114300000Y-83820000D03*
X106680000Y-83820000D03*
X114300000Y-81280000D03*
X106680000Y-86360000D03*
X114300000Y-78740000D03*
X106680000Y-88900000D03*
X114300000Y-76200000D03*
X106680000Y-91440000D03*
X114300000Y-73660000D03*
X106680000Y-93980000D03*
X114300000Y-71120000D03*
D13*
X111633000Y-77216000D03*
X118618000Y-80264000D03*
X117767100Y-82219800D03*
X111252000Y-91440000D03*
X108712000Y-86614000D03*
X116995950Y-81220050D03*
X112839500Y-86614000D03*
X117767100Y-82880200D03*
X117754400Y-81572100D03*
X108712000Y-88392000D03*
X115602801Y-87774999D03*
X111887000Y-82867500D03*
X112268000Y-83527900D03*
X117767100Y-83527900D03*
D14*
X110490000Y-85471000D03*
X110490000Y-71882000D03*
X108712000Y-73914000D03*
X108966000Y-81915000D03*
X116840000Y-74422000D03*
X118237000Y-93980000D03*
X110490000Y-93980000D03*
X110490000Y-89789000D03*
X116306600Y-89928700D03*
X117754400Y-71450200D03*
X108458000Y-79260700D03*
X110490000Y-78778100D03*
D13*
X118770400Y-84175600D03*
X112864900Y-84175600D03*
D15*
X111832999Y-77415999D02*
X116150999Y-77415999D01*
X111633000Y-77216000D02*
X111832999Y-77415999D01*
X116150999Y-77415999D02*
X118618000Y-79883000D01*
X118618000Y-79883000D02*
X118618000Y-80264000D01*
X118618000Y-80264000D02*
X118618000Y-80264000D01*
X112377001Y-90314999D02*
X111451999Y-91240001D01*
X117767100Y-82219800D02*
X117661788Y-82219800D01*
X114840001Y-90314999D02*
X112377001Y-90314999D01*
X111451999Y-91240001D02*
X111252000Y-91440000D01*
X116792089Y-83089499D02*
X116792089Y-88362911D01*
X117661788Y-82219800D02*
X116792089Y-83089499D01*
X116792089Y-88362911D02*
X114840001Y-90314999D01*
X106680000Y-81280000D02*
X108712000Y-83312000D01*
X108712000Y-83312000D02*
X108712000Y-86614000D01*
X108712000Y-86614000D02*
X108712000Y-86614000D01*
X115892069Y-86432933D02*
X114840001Y-87485001D01*
X114840001Y-87485001D02*
X113824801Y-87485001D01*
X116995950Y-81220050D02*
X115892069Y-82323931D01*
X115892069Y-82323931D02*
X115892069Y-86432933D01*
X113824801Y-87485001D02*
X113550700Y-87210900D01*
X113550700Y-87210900D02*
X113436400Y-87210900D01*
X113436400Y-87210900D02*
X112839500Y-86614000D01*
X112839500Y-86614000D02*
X112839500Y-86614000D01*
X117242099Y-83275899D02*
X117242099Y-90076799D01*
X117767100Y-82880200D02*
X117637798Y-82880200D01*
X117637798Y-82880200D02*
X117242099Y-83275899D01*
X115878898Y-91440000D02*
X114300000Y-91440000D01*
X117242099Y-90076799D02*
X115878898Y-91440000D01*
X106680000Y-83820000D02*
X107950000Y-85090000D01*
X107950000Y-85090000D02*
X107950000Y-88138000D01*
X107950000Y-88138000D02*
X108204000Y-88392000D01*
X108204000Y-88392000D02*
X108712000Y-88392000D01*
X108712000Y-88392000D02*
X108712000Y-88392000D01*
X116342079Y-87035721D02*
X115602801Y-87774999D01*
X116342079Y-82867819D02*
X116342079Y-87035721D01*
X117754400Y-81572100D02*
X117637798Y-81572100D01*
X117637798Y-81572100D02*
X116342079Y-82867819D01*
X111633000Y-86233000D02*
X114300000Y-88900000D01*
X111633000Y-83404342D02*
X111633000Y-86233000D01*
X111887000Y-82867500D02*
X111887000Y-83150342D01*
X111887000Y-83150342D02*
X111633000Y-83404342D01*
D16*
X110490000Y-74930000D02*
X114300000Y-71120000D01*
X110490000Y-76191000D02*
X110490000Y-74930000D01*
D15*
X112268000Y-84328000D02*
X114300000Y-86360000D01*
X112268000Y-83527900D02*
X112268000Y-84328000D01*
X115099999Y-82338999D02*
X115099999Y-83020001D01*
X117665641Y-80695049D02*
X116743949Y-80695049D01*
X118292101Y-81321509D02*
X117665641Y-80695049D01*
X115099999Y-83020001D02*
X114300000Y-83820000D01*
X117767100Y-83527900D02*
X117767100Y-83451700D01*
X116743949Y-80695049D02*
X115099999Y-82338999D01*
X117767100Y-83451700D02*
X117813599Y-83405201D01*
X117813599Y-83405201D02*
X118019101Y-83405201D01*
X118019101Y-83405201D02*
X118292101Y-83132201D01*
X118292101Y-83132201D02*
X118292101Y-81321509D01*
D16*
X110490000Y-90170000D02*
X106680000Y-93980000D01*
X110490000Y-78241000D02*
X110490000Y-78778100D01*
X110490000Y-85471000D02*
X110490000Y-89789000D01*
X110490000Y-89789000D02*
X110490000Y-90170000D01*
X110490000Y-78778100D02*
X110490000Y-85471000D01*
D15*
X115334961Y-80245039D02*
X115180601Y-80399399D01*
X115180601Y-80399399D02*
X114300000Y-81280000D01*
X118770400Y-81163398D02*
X117852041Y-80245039D01*
X117852041Y-80245039D02*
X115334961Y-80245039D01*
X118770400Y-84175600D02*
X118770400Y-81163398D01*
X112864900Y-80175100D02*
X114300000Y-78740000D01*
X112864900Y-84175600D02*
X112864900Y-80175100D01*
D17*
G36*
X113273351Y-70571245D02*
G01*
X113267872Y-70584472D01*
X109744679Y-74107667D01*
X109702381Y-74142380D01*
X109647909Y-74208755D01*
X109563857Y-74311172D01*
X109460925Y-74503744D01*
X109443901Y-74559865D01*
X109397540Y-74712696D01*
X109381500Y-74875550D01*
X109381500Y-74875557D01*
X109376138Y-74930000D01*
X109381500Y-74984443D01*
X109381500Y-76245449D01*
X109397540Y-76408303D01*
X109429766Y-76514538D01*
X109429766Y-76516001D01*
X109441491Y-76635052D01*
X109476217Y-76749527D01*
X109532609Y-76855028D01*
X109608499Y-76947501D01*
X109700972Y-77023391D01*
X109733897Y-77040990D01*
X109666989Y-77047580D01*
X109548704Y-77083461D01*
X109439693Y-77141728D01*
X109344144Y-77220144D01*
X109265728Y-77315693D01*
X109207461Y-77424704D01*
X109171580Y-77542989D01*
X109159464Y-77666000D01*
X109162500Y-77949625D01*
X109319375Y-78106500D01*
X110355500Y-78106500D01*
X110355500Y-78086500D01*
X110624500Y-78086500D01*
X110624500Y-78106500D01*
X111660625Y-78106500D01*
X111817500Y-77949625D01*
X111818027Y-77900363D01*
X111832998Y-77901837D01*
X111856737Y-77899499D01*
X113502136Y-77899499D01*
X113400135Y-78001500D01*
X113273351Y-78191245D01*
X113186021Y-78402078D01*
X113141500Y-78625898D01*
X113141500Y-78854102D01*
X113186021Y-79077922D01*
X113213051Y-79143177D01*
X112539803Y-79816425D01*
X112521361Y-79831560D01*
X112506226Y-79850002D01*
X112506221Y-79850007D01*
X112460940Y-79905182D01*
X112416043Y-79989178D01*
X112388397Y-80080318D01*
X112379062Y-80175100D01*
X112381401Y-80198849D01*
X112381400Y-82602149D01*
X112320815Y-82511477D01*
X112243023Y-82433685D01*
X112151549Y-82372564D01*
X112049908Y-82330463D01*
X111942007Y-82309000D01*
X111831993Y-82309000D01*
X111724092Y-82330463D01*
X111622451Y-82372564D01*
X111530977Y-82433685D01*
X111453185Y-82511477D01*
X111392064Y-82602951D01*
X111349963Y-82704592D01*
X111328500Y-82812493D01*
X111328500Y-82922507D01*
X111345516Y-83008054D01*
X111307907Y-83045663D01*
X111289460Y-83060802D01*
X111229040Y-83134424D01*
X111184143Y-83218420D01*
X111156496Y-83309561D01*
X111149500Y-83380594D01*
X111149500Y-83380603D01*
X111147162Y-83404342D01*
X111149500Y-83428081D01*
X111149501Y-86209251D01*
X111147162Y-86233000D01*
X111156497Y-86327782D01*
X111184143Y-86418922D01*
X111229040Y-86502918D01*
X111274321Y-86558093D01*
X111274326Y-86558098D01*
X111289461Y-86576540D01*
X111307903Y-86591675D01*
X113213051Y-88496823D01*
X113186021Y-88562078D01*
X113141500Y-88785898D01*
X113141500Y-89014102D01*
X113186021Y-89237922D01*
X113273351Y-89448755D01*
X113400135Y-89638500D01*
X113561500Y-89799865D01*
X113608843Y-89831499D01*
X112400739Y-89831499D01*
X112377000Y-89829161D01*
X112353261Y-89831499D01*
X112353252Y-89831499D01*
X112282219Y-89838495D01*
X112191078Y-89866142D01*
X112107083Y-89911039D01*
X112033461Y-89971459D01*
X112018322Y-89989906D01*
X111109281Y-90898947D01*
X111089092Y-90902963D01*
X110987451Y-90945064D01*
X110895977Y-91006185D01*
X110818185Y-91083977D01*
X110757064Y-91175451D01*
X110714963Y-91277092D01*
X110693500Y-91384993D01*
X110693500Y-91495007D01*
X110714963Y-91602908D01*
X110757064Y-91704549D01*
X110818185Y-91796023D01*
X110895977Y-91873815D01*
X110987451Y-91934936D01*
X111089092Y-91977037D01*
X111196993Y-91998500D01*
X111307007Y-91998500D01*
X111414908Y-91977037D01*
X111516549Y-91934936D01*
X111608023Y-91873815D01*
X111685815Y-91796023D01*
X111746936Y-91704549D01*
X111789037Y-91602908D01*
X111793053Y-91582719D01*
X112577273Y-90798499D01*
X113335322Y-90798499D01*
X113273351Y-90891245D01*
X113186021Y-91102078D01*
X113141500Y-91325898D01*
X113141500Y-91554102D01*
X113186021Y-91777922D01*
X113273351Y-91988755D01*
X113400135Y-92178500D01*
X113561500Y-92339865D01*
X113751245Y-92466649D01*
X113962078Y-92553979D01*
X114185898Y-92598500D01*
X114414102Y-92598500D01*
X114637922Y-92553979D01*
X114848755Y-92466649D01*
X115038500Y-92339865D01*
X115199865Y-92178500D01*
X115326649Y-91988755D01*
X115353679Y-91923500D01*
X115855159Y-91923500D01*
X115878898Y-91925838D01*
X115902637Y-91923500D01*
X115902647Y-91923500D01*
X115973680Y-91916504D01*
X116064821Y-91888857D01*
X116148816Y-91843960D01*
X116222438Y-91783540D01*
X116237577Y-91765093D01*
X117567192Y-90435478D01*
X117585639Y-90420339D01*
X117646059Y-90346717D01*
X117690956Y-90262722D01*
X117718603Y-90171581D01*
X117725599Y-90100548D01*
X117725599Y-90100539D01*
X117727937Y-90076800D01*
X117725599Y-90053061D01*
X117725599Y-84086400D01*
X117822107Y-84086400D01*
X117930008Y-84064937D01*
X118031649Y-84022836D01*
X118123123Y-83961715D01*
X118200915Y-83883923D01*
X118229674Y-83840882D01*
X118286900Y-83810294D01*
X118286900Y-83893936D01*
X118275464Y-83911051D01*
X118233363Y-84012692D01*
X118211900Y-84120593D01*
X118211900Y-84230607D01*
X118233363Y-84338508D01*
X118275464Y-84440149D01*
X118336585Y-84531623D01*
X118414377Y-84609415D01*
X118505851Y-84670536D01*
X118607492Y-84712637D01*
X118715393Y-84734100D01*
X118825407Y-84734100D01*
X118933308Y-84712637D01*
X118961500Y-84700959D01*
X118961500Y-94704500D01*
X115209220Y-94704500D01*
X115326649Y-94528755D01*
X115413979Y-94317922D01*
X115458500Y-94094102D01*
X115458500Y-93865898D01*
X115413979Y-93642078D01*
X115326649Y-93431245D01*
X115199865Y-93241500D01*
X115038500Y-93080135D01*
X114848755Y-92953351D01*
X114637922Y-92866021D01*
X114414102Y-92821500D01*
X114185898Y-92821500D01*
X113962078Y-92866021D01*
X113751245Y-92953351D01*
X113561500Y-93080135D01*
X113400135Y-93241500D01*
X113273351Y-93431245D01*
X113186021Y-93642078D01*
X113141500Y-93865898D01*
X113141500Y-94094102D01*
X113186021Y-94317922D01*
X113273351Y-94528755D01*
X113390780Y-94704500D01*
X107909738Y-94704500D01*
X108026922Y-94452836D01*
X108062613Y-94335161D01*
X107943486Y-94114500D01*
X106814500Y-94114500D01*
X106814500Y-94134500D01*
X106545500Y-94134500D01*
X106545500Y-94114500D01*
X106525500Y-94114500D01*
X106525500Y-93845500D01*
X106545500Y-93845500D01*
X106545500Y-93825500D01*
X106814500Y-93825500D01*
X106814500Y-93845500D01*
X107943486Y-93845500D01*
X108062613Y-93624839D01*
X108026922Y-93507164D01*
X107908796Y-93253478D01*
X107743448Y-93027712D01*
X107537232Y-92838542D01*
X107298073Y-92693237D01*
X107035162Y-92597382D01*
X106814502Y-92715719D01*
X106814502Y-92594442D01*
X107017922Y-92553979D01*
X107228755Y-92466649D01*
X107418500Y-92339865D01*
X107579865Y-92178500D01*
X107706649Y-91988755D01*
X107793979Y-91777922D01*
X107838500Y-91554102D01*
X107838500Y-91325898D01*
X107793979Y-91102078D01*
X107706649Y-90891245D01*
X107579865Y-90701500D01*
X107418500Y-90540135D01*
X107228755Y-90413351D01*
X107017922Y-90326021D01*
X106794102Y-90281500D01*
X106565898Y-90281500D01*
X106342078Y-90326021D01*
X106131245Y-90413351D01*
X105955500Y-90530780D01*
X105955500Y-89809220D01*
X106131245Y-89926649D01*
X106342078Y-90013979D01*
X106565898Y-90058500D01*
X106794102Y-90058500D01*
X107017922Y-90013979D01*
X107228755Y-89926649D01*
X107418500Y-89799865D01*
X107579865Y-89638500D01*
X107706649Y-89448755D01*
X107793979Y-89237922D01*
X107838500Y-89014102D01*
X107838500Y-88785898D01*
X107819722Y-88691494D01*
X107845321Y-88717093D01*
X107860460Y-88735540D01*
X107934082Y-88795960D01*
X108018077Y-88840857D01*
X108109218Y-88868504D01*
X108180251Y-88875500D01*
X108180260Y-88875500D01*
X108203999Y-88877838D01*
X108227738Y-88875500D01*
X108430336Y-88875500D01*
X108447451Y-88886936D01*
X108549092Y-88929037D01*
X108656993Y-88950500D01*
X108767007Y-88950500D01*
X108874908Y-88929037D01*
X108976549Y-88886936D01*
X109068023Y-88825815D01*
X109145815Y-88748023D01*
X109206936Y-88656549D01*
X109249037Y-88554908D01*
X109270500Y-88447007D01*
X109270500Y-88336993D01*
X109249037Y-88229092D01*
X109206936Y-88127451D01*
X109145815Y-88035977D01*
X109068023Y-87958185D01*
X108976549Y-87897064D01*
X108874908Y-87854963D01*
X108767007Y-87833500D01*
X108656993Y-87833500D01*
X108549092Y-87854963D01*
X108447451Y-87897064D01*
X108433500Y-87906386D01*
X108433500Y-87099614D01*
X108447451Y-87108936D01*
X108549092Y-87151037D01*
X108656993Y-87172500D01*
X108767007Y-87172500D01*
X108874908Y-87151037D01*
X108976549Y-87108936D01*
X109068023Y-87047815D01*
X109145815Y-86970023D01*
X109206936Y-86878549D01*
X109249037Y-86776908D01*
X109270500Y-86669007D01*
X109270500Y-86558993D01*
X109249037Y-86451092D01*
X109206936Y-86349451D01*
X109195500Y-86332336D01*
X109195500Y-83335739D01*
X109197838Y-83312000D01*
X109195500Y-83288261D01*
X109195500Y-83288251D01*
X109188504Y-83217218D01*
X109160857Y-83126077D01*
X109141561Y-83089977D01*
X109115960Y-83042081D01*
X109070679Y-82986906D01*
X109070675Y-82986902D01*
X109055540Y-82968460D01*
X109037098Y-82953325D01*
X107766949Y-81683177D01*
X107793979Y-81617922D01*
X107838500Y-81394102D01*
X107838500Y-81165898D01*
X107793979Y-80942078D01*
X107706649Y-80731245D01*
X107579865Y-80541500D01*
X107418500Y-80380135D01*
X107228755Y-80253351D01*
X107017922Y-80166021D01*
X106794102Y-80121500D01*
X106565898Y-80121500D01*
X106342078Y-80166021D01*
X106131245Y-80253351D01*
X105955500Y-80370780D01*
X105955500Y-79649220D01*
X106131245Y-79766649D01*
X106342078Y-79853979D01*
X106565898Y-79898500D01*
X106794102Y-79898500D01*
X107017922Y-79853979D01*
X107228755Y-79766649D01*
X107418500Y-79639865D01*
X107579865Y-79478500D01*
X107706649Y-79288755D01*
X107793979Y-79077922D01*
X107838500Y-78854102D01*
X107838500Y-78816000D01*
X109159464Y-78816000D01*
X109171580Y-78939011D01*
X109207461Y-79057296D01*
X109265728Y-79166307D01*
X109344144Y-79261856D01*
X109439693Y-79340272D01*
X109548704Y-79398539D01*
X109666989Y-79434420D01*
X109790000Y-79446536D01*
X110198625Y-79443500D01*
X110355500Y-79286625D01*
X110355500Y-78375500D01*
X110624500Y-78375500D01*
X110624500Y-79286625D01*
X110781375Y-79443500D01*
X111190000Y-79446536D01*
X111313011Y-79434420D01*
X111431296Y-79398539D01*
X111540307Y-79340272D01*
X111635856Y-79261856D01*
X111714272Y-79166307D01*
X111772539Y-79057296D01*
X111808420Y-78939011D01*
X111820536Y-78816000D01*
X111817500Y-78532375D01*
X111660625Y-78375500D01*
X110624500Y-78375500D01*
X110355500Y-78375500D01*
X109319375Y-78375500D01*
X109162500Y-78532375D01*
X109159464Y-78816000D01*
X107838500Y-78816000D01*
X107838500Y-78625898D01*
X107793979Y-78402078D01*
X107706649Y-78191245D01*
X107579865Y-78001500D01*
X107418500Y-77840135D01*
X107228755Y-77713351D01*
X107017922Y-77626021D01*
X106794102Y-77581500D01*
X106565898Y-77581500D01*
X106342078Y-77626021D01*
X106131245Y-77713351D01*
X105955500Y-77830780D01*
X105955500Y-77109220D01*
X106131245Y-77226649D01*
X106342078Y-77313979D01*
X106565898Y-77358500D01*
X106794102Y-77358500D01*
X107017922Y-77313979D01*
X107228755Y-77226649D01*
X107418500Y-77099865D01*
X107579865Y-76938500D01*
X107706649Y-76748755D01*
X107793979Y-76537922D01*
X107838500Y-76314102D01*
X107838500Y-76085898D01*
X107793979Y-75862078D01*
X107706649Y-75651245D01*
X107579865Y-75461500D01*
X107418500Y-75300135D01*
X107228755Y-75173351D01*
X107017922Y-75086021D01*
X106794102Y-75041500D01*
X106565898Y-75041500D01*
X106342078Y-75086021D01*
X106131245Y-75173351D01*
X105955500Y-75290780D01*
X105955500Y-74569220D01*
X106131245Y-74686649D01*
X106342078Y-74773979D01*
X106565898Y-74818500D01*
X106794102Y-74818500D01*
X107017922Y-74773979D01*
X107228755Y-74686649D01*
X107418500Y-74559865D01*
X107579865Y-74398500D01*
X107706649Y-74208755D01*
X107793979Y-73997922D01*
X107838500Y-73774102D01*
X107838500Y-73545898D01*
X107793979Y-73322078D01*
X107706649Y-73111245D01*
X107579865Y-72921500D01*
X107418500Y-72760135D01*
X107228755Y-72633351D01*
X107017922Y-72546021D01*
X106794102Y-72501500D01*
X106565898Y-72501500D01*
X106342078Y-72546021D01*
X106131245Y-72633351D01*
X105955500Y-72750780D01*
X105955500Y-72280234D01*
X107480000Y-72280234D01*
X107550278Y-72273312D01*
X107617856Y-72252813D01*
X107680135Y-72219524D01*
X107734724Y-72174724D01*
X107779524Y-72120135D01*
X107812813Y-72057856D01*
X107833312Y-71990278D01*
X107840234Y-71920000D01*
X107840234Y-70395500D01*
X113390780Y-70395500D01*
X113273351Y-70571245D01*
G37*
X113273351Y-70571245D02*
X113267872Y-70584472D01*
X109744679Y-74107667D01*
X109702381Y-74142380D01*
X109647909Y-74208755D01*
X109563857Y-74311172D01*
X109460925Y-74503744D01*
X109443901Y-74559865D01*
X109397540Y-74712696D01*
X109381500Y-74875550D01*
X109381500Y-74875557D01*
X109376138Y-74930000D01*
X109381500Y-74984443D01*
X109381500Y-76245449D01*
X109397540Y-76408303D01*
X109429766Y-76514538D01*
X109429766Y-76516001D01*
X109441491Y-76635052D01*
X109476217Y-76749527D01*
X109532609Y-76855028D01*
X109608499Y-76947501D01*
X109700972Y-77023391D01*
X109733897Y-77040990D01*
X109666989Y-77047580D01*
X109548704Y-77083461D01*
X109439693Y-77141728D01*
X109344144Y-77220144D01*
X109265728Y-77315693D01*
X109207461Y-77424704D01*
X109171580Y-77542989D01*
X109159464Y-77666000D01*
X109162500Y-77949625D01*
X109319375Y-78106500D01*
X110355500Y-78106500D01*
X110355500Y-78086500D01*
X110624500Y-78086500D01*
X110624500Y-78106500D01*
X111660625Y-78106500D01*
X111817500Y-77949625D01*
X111818027Y-77900363D01*
X111832998Y-77901837D01*
X111856737Y-77899499D01*
X113502136Y-77899499D01*
X113400135Y-78001500D01*
X113273351Y-78191245D01*
X113186021Y-78402078D01*
X113141500Y-78625898D01*
X113141500Y-78854102D01*
X113186021Y-79077922D01*
X113213051Y-79143177D01*
X112539803Y-79816425D01*
X112521361Y-79831560D01*
X112506226Y-79850002D01*
X112506221Y-79850007D01*
X112460940Y-79905182D01*
X112416043Y-79989178D01*
X112388397Y-80080318D01*
X112379062Y-80175100D01*
X112381401Y-80198849D01*
X112381400Y-82602149D01*
X112320815Y-82511477D01*
X112243023Y-82433685D01*
X112151549Y-82372564D01*
X112049908Y-82330463D01*
X111942007Y-82309000D01*
X111831993Y-82309000D01*
X111724092Y-82330463D01*
X111622451Y-82372564D01*
X111530977Y-82433685D01*
X111453185Y-82511477D01*
X111392064Y-82602951D01*
X111349963Y-82704592D01*
X111328500Y-82812493D01*
X111328500Y-82922507D01*
X111345516Y-83008054D01*
X111307907Y-83045663D01*
X111289460Y-83060802D01*
X111229040Y-83134424D01*
X111184143Y-83218420D01*
X111156496Y-83309561D01*
X111149500Y-83380594D01*
X111149500Y-83380603D01*
X111147162Y-83404342D01*
X111149500Y-83428081D01*
X111149501Y-86209251D01*
X111147162Y-86233000D01*
X111156497Y-86327782D01*
X111184143Y-86418922D01*
X111229040Y-86502918D01*
X111274321Y-86558093D01*
X111274326Y-86558098D01*
X111289461Y-86576540D01*
X111307903Y-86591675D01*
X113213051Y-88496823D01*
X113186021Y-88562078D01*
X113141500Y-88785898D01*
X113141500Y-89014102D01*
X113186021Y-89237922D01*
X113273351Y-89448755D01*
X113400135Y-89638500D01*
X113561500Y-89799865D01*
X113608843Y-89831499D01*
X112400739Y-89831499D01*
X112377000Y-89829161D01*
X112353261Y-89831499D01*
X112353252Y-89831499D01*
X112282219Y-89838495D01*
X112191078Y-89866142D01*
X112107083Y-89911039D01*
X112033461Y-89971459D01*
X112018322Y-89989906D01*
X111109281Y-90898947D01*
X111089092Y-90902963D01*
X110987451Y-90945064D01*
X110895977Y-91006185D01*
X110818185Y-91083977D01*
X110757064Y-91175451D01*
X110714963Y-91277092D01*
X110693500Y-91384993D01*
X110693500Y-91495007D01*
X110714963Y-91602908D01*
X110757064Y-91704549D01*
X110818185Y-91796023D01*
X110895977Y-91873815D01*
X110987451Y-91934936D01*
X111089092Y-91977037D01*
X111196993Y-91998500D01*
X111307007Y-91998500D01*
X111414908Y-91977037D01*
X111516549Y-91934936D01*
X111608023Y-91873815D01*
X111685815Y-91796023D01*
X111746936Y-91704549D01*
X111789037Y-91602908D01*
X111793053Y-91582719D01*
X112577273Y-90798499D01*
X113335322Y-90798499D01*
X113273351Y-90891245D01*
X113186021Y-91102078D01*
X113141500Y-91325898D01*
X113141500Y-91554102D01*
X113186021Y-91777922D01*
X113273351Y-91988755D01*
X113400135Y-92178500D01*
X113561500Y-92339865D01*
X113751245Y-92466649D01*
X113962078Y-92553979D01*
X114185898Y-92598500D01*
X114414102Y-92598500D01*
X114637922Y-92553979D01*
X114848755Y-92466649D01*
X115038500Y-92339865D01*
X115199865Y-92178500D01*
X115326649Y-91988755D01*
X115353679Y-91923500D01*
X115855159Y-91923500D01*
X115878898Y-91925838D01*
X115902637Y-91923500D01*
X115902647Y-91923500D01*
X115973680Y-91916504D01*
X116064821Y-91888857D01*
X116148816Y-91843960D01*
X116222438Y-91783540D01*
X116237577Y-91765093D01*
X117567192Y-90435478D01*
X117585639Y-90420339D01*
X117646059Y-90346717D01*
X117690956Y-90262722D01*
X117718603Y-90171581D01*
X117725599Y-90100548D01*
X117725599Y-90100539D01*
X117727937Y-90076800D01*
X117725599Y-90053061D01*
X117725599Y-84086400D01*
X117822107Y-84086400D01*
X117930008Y-84064937D01*
X118031649Y-84022836D01*
X118123123Y-83961715D01*
X118200915Y-83883923D01*
X118229674Y-83840882D01*
X118286900Y-83810294D01*
X118286900Y-83893936D01*
X118275464Y-83911051D01*
X118233363Y-84012692D01*
X118211900Y-84120593D01*
X118211900Y-84230607D01*
X118233363Y-84338508D01*
X118275464Y-84440149D01*
X118336585Y-84531623D01*
X118414377Y-84609415D01*
X118505851Y-84670536D01*
X118607492Y-84712637D01*
X118715393Y-84734100D01*
X118825407Y-84734100D01*
X118933308Y-84712637D01*
X118961500Y-84700959D01*
X118961500Y-94704500D01*
X115209220Y-94704500D01*
X115326649Y-94528755D01*
X115413979Y-94317922D01*
X115458500Y-94094102D01*
X115458500Y-93865898D01*
X115413979Y-93642078D01*
X115326649Y-93431245D01*
X115199865Y-93241500D01*
X115038500Y-93080135D01*
X114848755Y-92953351D01*
X114637922Y-92866021D01*
X114414102Y-92821500D01*
X114185898Y-92821500D01*
X113962078Y-92866021D01*
X113751245Y-92953351D01*
X113561500Y-93080135D01*
X113400135Y-93241500D01*
X113273351Y-93431245D01*
X113186021Y-93642078D01*
X113141500Y-93865898D01*
X113141500Y-94094102D01*
X113186021Y-94317922D01*
X113273351Y-94528755D01*
X113390780Y-94704500D01*
X107909738Y-94704500D01*
X108026922Y-94452836D01*
X108062613Y-94335161D01*
X107943486Y-94114500D01*
X106814500Y-94114500D01*
X106814500Y-94134500D01*
X106545500Y-94134500D01*
X106545500Y-94114500D01*
X106525500Y-94114500D01*
X106525500Y-93845500D01*
X106545500Y-93845500D01*
X106545500Y-93825500D01*
X106814500Y-93825500D01*
X106814500Y-93845500D01*
X107943486Y-93845500D01*
X108062613Y-93624839D01*
X108026922Y-93507164D01*
X107908796Y-93253478D01*
X107743448Y-93027712D01*
X107537232Y-92838542D01*
X107298073Y-92693237D01*
X107035162Y-92597382D01*
X106814502Y-92715719D01*
X106814502Y-92594442D01*
X107017922Y-92553979D01*
X107228755Y-92466649D01*
X107418500Y-92339865D01*
X107579865Y-92178500D01*
X107706649Y-91988755D01*
X107793979Y-91777922D01*
X107838500Y-91554102D01*
X107838500Y-91325898D01*
X107793979Y-91102078D01*
X107706649Y-90891245D01*
X107579865Y-90701500D01*
X107418500Y-90540135D01*
X107228755Y-90413351D01*
X107017922Y-90326021D01*
X106794102Y-90281500D01*
X106565898Y-90281500D01*
X106342078Y-90326021D01*
X106131245Y-90413351D01*
X105955500Y-90530780D01*
X105955500Y-89809220D01*
X106131245Y-89926649D01*
X106342078Y-90013979D01*
X106565898Y-90058500D01*
X106794102Y-90058500D01*
X107017922Y-90013979D01*
X107228755Y-89926649D01*
X107418500Y-89799865D01*
X107579865Y-89638500D01*
X107706649Y-89448755D01*
X107793979Y-89237922D01*
X107838500Y-89014102D01*
X107838500Y-88785898D01*
X107819722Y-88691494D01*
X107845321Y-88717093D01*
X107860460Y-88735540D01*
X107934082Y-88795960D01*
X108018077Y-88840857D01*
X108109218Y-88868504D01*
X108180251Y-88875500D01*
X108180260Y-88875500D01*
X108203999Y-88877838D01*
X108227738Y-88875500D01*
X108430336Y-88875500D01*
X108447451Y-88886936D01*
X108549092Y-88929037D01*
X108656993Y-88950500D01*
X108767007Y-88950500D01*
X108874908Y-88929037D01*
X108976549Y-88886936D01*
X109068023Y-88825815D01*
X109145815Y-88748023D01*
X109206936Y-88656549D01*
X109249037Y-88554908D01*
X109270500Y-88447007D01*
X109270500Y-88336993D01*
X109249037Y-88229092D01*
X109206936Y-88127451D01*
X109145815Y-88035977D01*
X109068023Y-87958185D01*
X108976549Y-87897064D01*
X108874908Y-87854963D01*
X108767007Y-87833500D01*
X108656993Y-87833500D01*
X108549092Y-87854963D01*
X108447451Y-87897064D01*
X108433500Y-87906386D01*
X108433500Y-87099614D01*
X108447451Y-87108936D01*
X108549092Y-87151037D01*
X108656993Y-87172500D01*
X108767007Y-87172500D01*
X108874908Y-87151037D01*
X108976549Y-87108936D01*
X109068023Y-87047815D01*
X109145815Y-86970023D01*
X109206936Y-86878549D01*
X109249037Y-86776908D01*
X109270500Y-86669007D01*
X109270500Y-86558993D01*
X109249037Y-86451092D01*
X109206936Y-86349451D01*
X109195500Y-86332336D01*
X109195500Y-83335739D01*
X109197838Y-83312000D01*
X109195500Y-83288261D01*
X109195500Y-83288251D01*
X109188504Y-83217218D01*
X109160857Y-83126077D01*
X109141561Y-83089977D01*
X109115960Y-83042081D01*
X109070679Y-82986906D01*
X109070675Y-82986902D01*
X109055540Y-82968460D01*
X109037098Y-82953325D01*
X107766949Y-81683177D01*
X107793979Y-81617922D01*
X107838500Y-81394102D01*
X107838500Y-81165898D01*
X107793979Y-80942078D01*
X107706649Y-80731245D01*
X107579865Y-80541500D01*
X107418500Y-80380135D01*
X107228755Y-80253351D01*
X107017922Y-80166021D01*
X106794102Y-80121500D01*
X106565898Y-80121500D01*
X106342078Y-80166021D01*
X106131245Y-80253351D01*
X105955500Y-80370780D01*
X105955500Y-79649220D01*
X106131245Y-79766649D01*
X106342078Y-79853979D01*
X106565898Y-79898500D01*
X106794102Y-79898500D01*
X107017922Y-79853979D01*
X107228755Y-79766649D01*
X107418500Y-79639865D01*
X107579865Y-79478500D01*
X107706649Y-79288755D01*
X107793979Y-79077922D01*
X107838500Y-78854102D01*
X107838500Y-78816000D01*
X109159464Y-78816000D01*
X109171580Y-78939011D01*
X109207461Y-79057296D01*
X109265728Y-79166307D01*
X109344144Y-79261856D01*
X109439693Y-79340272D01*
X109548704Y-79398539D01*
X109666989Y-79434420D01*
X109790000Y-79446536D01*
X110198625Y-79443500D01*
X110355500Y-79286625D01*
X110355500Y-78375500D01*
X110624500Y-78375500D01*
X110624500Y-79286625D01*
X110781375Y-79443500D01*
X111190000Y-79446536D01*
X111313011Y-79434420D01*
X111431296Y-79398539D01*
X111540307Y-79340272D01*
X111635856Y-79261856D01*
X111714272Y-79166307D01*
X111772539Y-79057296D01*
X111808420Y-78939011D01*
X111820536Y-78816000D01*
X111817500Y-78532375D01*
X111660625Y-78375500D01*
X110624500Y-78375500D01*
X110355500Y-78375500D01*
X109319375Y-78375500D01*
X109162500Y-78532375D01*
X109159464Y-78816000D01*
X107838500Y-78816000D01*
X107838500Y-78625898D01*
X107793979Y-78402078D01*
X107706649Y-78191245D01*
X107579865Y-78001500D01*
X107418500Y-77840135D01*
X107228755Y-77713351D01*
X107017922Y-77626021D01*
X106794102Y-77581500D01*
X106565898Y-77581500D01*
X106342078Y-77626021D01*
X106131245Y-77713351D01*
X105955500Y-77830780D01*
X105955500Y-77109220D01*
X106131245Y-77226649D01*
X106342078Y-77313979D01*
X106565898Y-77358500D01*
X106794102Y-77358500D01*
X107017922Y-77313979D01*
X107228755Y-77226649D01*
X107418500Y-77099865D01*
X107579865Y-76938500D01*
X107706649Y-76748755D01*
X107793979Y-76537922D01*
X107838500Y-76314102D01*
X107838500Y-76085898D01*
X107793979Y-75862078D01*
X107706649Y-75651245D01*
X107579865Y-75461500D01*
X107418500Y-75300135D01*
X107228755Y-75173351D01*
X107017922Y-75086021D01*
X106794102Y-75041500D01*
X106565898Y-75041500D01*
X106342078Y-75086021D01*
X106131245Y-75173351D01*
X105955500Y-75290780D01*
X105955500Y-74569220D01*
X106131245Y-74686649D01*
X106342078Y-74773979D01*
X106565898Y-74818500D01*
X106794102Y-74818500D01*
X107017922Y-74773979D01*
X107228755Y-74686649D01*
X107418500Y-74559865D01*
X107579865Y-74398500D01*
X107706649Y-74208755D01*
X107793979Y-73997922D01*
X107838500Y-73774102D01*
X107838500Y-73545898D01*
X107793979Y-73322078D01*
X107706649Y-73111245D01*
X107579865Y-72921500D01*
X107418500Y-72760135D01*
X107228755Y-72633351D01*
X107017922Y-72546021D01*
X106794102Y-72501500D01*
X106565898Y-72501500D01*
X106342078Y-72546021D01*
X106131245Y-72633351D01*
X105955500Y-72750780D01*
X105955500Y-72280234D01*
X107480000Y-72280234D01*
X107550278Y-72273312D01*
X107617856Y-72252813D01*
X107680135Y-72219524D01*
X107734724Y-72174724D01*
X107779524Y-72120135D01*
X107812813Y-72057856D01*
X107833312Y-71990278D01*
X107840234Y-71920000D01*
X107840234Y-70395500D01*
X113390780Y-70395500D01*
X113273351Y-70571245D01*
G36*
X116758600Y-89876526D02*
G01*
X115678626Y-90956500D01*
X115353679Y-90956500D01*
X115326649Y-90891245D01*
X115199865Y-90701500D01*
X115168911Y-90670546D01*
X115183541Y-90658539D01*
X115198680Y-90640092D01*
X116758600Y-89080172D01*
X116758600Y-89876526D01*
G37*
X116758600Y-89876526D02*
X115678626Y-90956500D01*
X115353679Y-90956500D01*
X115326649Y-90891245D01*
X115199865Y-90701500D01*
X115168911Y-90670546D01*
X115183541Y-90658539D01*
X115198680Y-90640092D01*
X116758600Y-89080172D01*
X116758600Y-89876526D01*
G36*
X118961501Y-79539428D02*
G01*
X118943098Y-79524325D01*
X116509678Y-77090906D01*
X116494539Y-77072459D01*
X116420917Y-77012039D01*
X116336922Y-76967142D01*
X116245781Y-76939495D01*
X116174748Y-76932499D01*
X116174738Y-76932499D01*
X116150999Y-76930161D01*
X116127260Y-76932499D01*
X115203875Y-76932499D01*
X115326649Y-76748755D01*
X115413979Y-76537922D01*
X115458500Y-76314102D01*
X115458500Y-76085898D01*
X115413979Y-75862078D01*
X115326649Y-75651245D01*
X115199865Y-75461500D01*
X115038500Y-75300135D01*
X114848755Y-75173351D01*
X114637922Y-75086021D01*
X114414102Y-75041500D01*
X114185898Y-75041500D01*
X113962078Y-75086021D01*
X113751245Y-75173351D01*
X113561500Y-75300135D01*
X113400135Y-75461500D01*
X113273351Y-75651245D01*
X113186021Y-75862078D01*
X113141500Y-76085898D01*
X113141500Y-76314102D01*
X113186021Y-76537922D01*
X113273351Y-76748755D01*
X113396125Y-76932499D01*
X112115273Y-76932499D01*
X112066815Y-76859977D01*
X111989023Y-76782185D01*
X111897549Y-76721064D01*
X111795908Y-76678963D01*
X111688007Y-76657500D01*
X111577993Y-76657500D01*
X111528727Y-76667300D01*
X111538509Y-76635052D01*
X111550234Y-76516001D01*
X111550234Y-76514539D01*
X111582460Y-76408304D01*
X111598500Y-76245450D01*
X111598500Y-75389154D01*
X113153454Y-73834201D01*
X113186021Y-73997922D01*
X113273351Y-74208755D01*
X113400135Y-74398500D01*
X113561500Y-74559865D01*
X113751245Y-74686649D01*
X113962078Y-74773979D01*
X114185898Y-74818500D01*
X114414102Y-74818500D01*
X114637922Y-74773979D01*
X114848755Y-74686649D01*
X115038500Y-74559865D01*
X115199865Y-74398500D01*
X115326649Y-74208755D01*
X115413979Y-73997922D01*
X115458500Y-73774102D01*
X115458500Y-73545898D01*
X115413979Y-73322078D01*
X115326649Y-73111245D01*
X115199865Y-72921500D01*
X115038500Y-72760135D01*
X114848755Y-72633351D01*
X114637922Y-72546021D01*
X114474201Y-72513455D01*
X114835528Y-72152128D01*
X114848755Y-72146649D01*
X115038500Y-72019865D01*
X115199865Y-71858500D01*
X115326649Y-71668755D01*
X115413979Y-71457922D01*
X115458500Y-71234102D01*
X115458500Y-71005898D01*
X115413979Y-70782078D01*
X115326649Y-70571245D01*
X115209220Y-70395500D01*
X118961501Y-70395500D01*
X118961501Y-79539428D01*
G37*
X118961501Y-79539428D02*
X118943098Y-79524325D01*
X116509678Y-77090906D01*
X116494539Y-77072459D01*
X116420917Y-77012039D01*
X116336922Y-76967142D01*
X116245781Y-76939495D01*
X116174748Y-76932499D01*
X116174738Y-76932499D01*
X116150999Y-76930161D01*
X116127260Y-76932499D01*
X115203875Y-76932499D01*
X115326649Y-76748755D01*
X115413979Y-76537922D01*
X115458500Y-76314102D01*
X115458500Y-76085898D01*
X115413979Y-75862078D01*
X115326649Y-75651245D01*
X115199865Y-75461500D01*
X115038500Y-75300135D01*
X114848755Y-75173351D01*
X114637922Y-75086021D01*
X114414102Y-75041500D01*
X114185898Y-75041500D01*
X113962078Y-75086021D01*
X113751245Y-75173351D01*
X113561500Y-75300135D01*
X113400135Y-75461500D01*
X113273351Y-75651245D01*
X113186021Y-75862078D01*
X113141500Y-76085898D01*
X113141500Y-76314102D01*
X113186021Y-76537922D01*
X113273351Y-76748755D01*
X113396125Y-76932499D01*
X112115273Y-76932499D01*
X112066815Y-76859977D01*
X111989023Y-76782185D01*
X111897549Y-76721064D01*
X111795908Y-76678963D01*
X111688007Y-76657500D01*
X111577993Y-76657500D01*
X111528727Y-76667300D01*
X111538509Y-76635052D01*
X111550234Y-76516001D01*
X111550234Y-76514539D01*
X111582460Y-76408304D01*
X111598500Y-76245450D01*
X111598500Y-75389154D01*
X113153454Y-73834201D01*
X113186021Y-73997922D01*
X113273351Y-74208755D01*
X113400135Y-74398500D01*
X113561500Y-74559865D01*
X113751245Y-74686649D01*
X113962078Y-74773979D01*
X114185898Y-74818500D01*
X114414102Y-74818500D01*
X114637922Y-74773979D01*
X114848755Y-74686649D01*
X115038500Y-74559865D01*
X115199865Y-74398500D01*
X115326649Y-74208755D01*
X115413979Y-73997922D01*
X115458500Y-73774102D01*
X115458500Y-73545898D01*
X115413979Y-73322078D01*
X115326649Y-73111245D01*
X115199865Y-72921500D01*
X115038500Y-72760135D01*
X114848755Y-72633351D01*
X114637922Y-72546021D01*
X114474201Y-72513455D01*
X114835528Y-72152128D01*
X114848755Y-72146649D01*
X115038500Y-72019865D01*
X115199865Y-71858500D01*
X115326649Y-71668755D01*
X115413979Y-71457922D01*
X115458500Y-71234102D01*
X115458500Y-71005898D01*
X115413979Y-70782078D01*
X115326649Y-70571245D01*
X115209220Y-70395500D01*
X118961501Y-70395500D01*
X118961501Y-79539428D01*
M02*
