G04 #@! TF.GenerationSoftware,KiCad,Pcbnew,(5.1.5)-3*
G04 #@! TF.CreationDate,2020-06-23T21:54:51-04:00*
G04 #@! TF.ProjectId,dip20tssop573-373,64697032-3074-4737-936f-703537332d33,rev?*
G04 #@! TF.SameCoordinates,Original*
G04 #@! TF.FileFunction,Copper,L1,Top*
G04 #@! TF.FilePolarity,Positive*
%FSLAX46Y46*%
G04 Gerber Fmt 4.6, Leading zero omitted, Abs format (unit mm)*
G04 Created by KiCad (PCBNEW (5.1.5)-3) date 2020-06-23 21:54:51*
%MOMM*%
%LPD*%
G04 APERTURE LIST*
%ADD10R,1.600000X1.600000*%
%ADD11O,1.600000X1.600000*%
%ADD12R,1.450000X0.450000*%
%ADD13C,0.400000*%
%ADD14C,0.800000*%
%ADD15C,0.250000*%
%ADD16C,0.400000*%
%ADD17C,0.600000*%
%ADD18C,0.239000*%
G04 APERTURE END LIST*
D10*
X106680000Y-71120000D03*
D11*
X114300000Y-93980000D03*
X106680000Y-73660000D03*
X114300000Y-91440000D03*
X106680000Y-76200000D03*
X114300000Y-88900000D03*
X106680000Y-78740000D03*
X114300000Y-86360000D03*
X106680000Y-81280000D03*
X114300000Y-83820000D03*
X106680000Y-83820000D03*
X114300000Y-81280000D03*
X106680000Y-86360000D03*
X114300000Y-78740000D03*
X106680000Y-88900000D03*
X114300000Y-76200000D03*
X106680000Y-91440000D03*
X114300000Y-73660000D03*
X106680000Y-93980000D03*
X114300000Y-71120000D03*
D12*
X112366000Y-79625000D03*
X112366000Y-80275000D03*
X112366000Y-80925000D03*
X112366000Y-81575000D03*
X112366000Y-82225000D03*
X112366000Y-82875000D03*
X112366000Y-83525000D03*
X112366000Y-84175000D03*
X112366000Y-84825000D03*
X112366000Y-85475000D03*
X118266000Y-85475000D03*
X118266000Y-84825000D03*
X118266000Y-84175000D03*
X118266000Y-83525000D03*
X118266000Y-82875000D03*
X118266000Y-82225000D03*
X118266000Y-81575000D03*
X118266000Y-80925000D03*
X118266000Y-80275000D03*
X118266000Y-79625000D03*
D13*
X111633000Y-77216000D03*
X118618000Y-80264000D03*
X117767100Y-82219800D03*
X111252000Y-91440000D03*
X108712000Y-86614000D03*
X116995950Y-81220050D03*
X112839500Y-86614000D03*
X117767100Y-82880200D03*
X117754400Y-81572100D03*
X108712000Y-88392000D03*
X115602801Y-87774999D03*
X111887000Y-82867500D03*
X112268000Y-83527900D03*
X117767100Y-83527900D03*
D14*
X110490000Y-85471000D03*
X110490000Y-71882000D03*
X108712000Y-73914000D03*
X108966000Y-81915000D03*
X116840000Y-74422000D03*
X118237000Y-93980000D03*
X110490000Y-93980000D03*
X110490000Y-89789000D03*
X116306600Y-89928700D03*
X117754400Y-71450200D03*
X108458000Y-79260700D03*
X110490000Y-78778100D03*
D13*
X118770400Y-84175600D03*
X112864900Y-84175600D03*
D15*
X107730000Y-71120000D02*
X106680000Y-71120000D01*
X112366000Y-75756000D02*
X107730000Y-71120000D01*
X112366000Y-79625000D02*
X112366000Y-75756000D01*
X106680000Y-74534998D02*
X109361002Y-77216000D01*
X106680000Y-73660000D02*
X106680000Y-74534998D01*
X109361002Y-77216000D02*
X111252000Y-77216000D01*
X111252000Y-77216000D02*
X111633000Y-77216000D01*
X111633000Y-77216000D02*
X111633000Y-77216000D01*
X106680000Y-91440000D02*
X111252000Y-91440000D01*
X111252000Y-91440000D02*
X111252000Y-91440000D01*
X110755000Y-80275000D02*
X106680000Y-76200000D01*
X112366000Y-80275000D02*
X110755000Y-80275000D01*
X108865000Y-80925000D02*
X106680000Y-78740000D01*
X112366000Y-80925000D02*
X108865000Y-80925000D01*
X118266000Y-85950000D02*
X118266000Y-85475000D01*
X115431370Y-93980000D02*
X118266000Y-91145370D01*
X118266000Y-91145370D02*
X118266000Y-85950000D01*
X114300000Y-93980000D02*
X115431370Y-93980000D01*
X108712000Y-86614000D02*
X111379000Y-86614000D01*
X117291000Y-80925000D02*
X116995950Y-81220050D01*
X118266000Y-80925000D02*
X117291000Y-80925000D01*
X116995950Y-81220050D02*
X116954300Y-81261700D01*
X111379000Y-86614000D02*
X112839500Y-86614000D01*
X108712000Y-88392000D02*
X111252000Y-88392000D01*
X111869001Y-87774999D02*
X115602801Y-87774999D01*
X111252000Y-88392000D02*
X111869001Y-87774999D01*
D16*
X118266000Y-79625000D02*
X118266000Y-79277000D01*
D17*
X118266000Y-73954630D02*
X118266000Y-79549999D01*
X114300000Y-71120000D02*
X115431370Y-71120000D01*
X115431370Y-71120000D02*
X118266000Y-73954630D01*
D15*
X107479999Y-85486001D02*
X111391000Y-81575000D01*
X111391000Y-81575000D02*
X112366000Y-81575000D01*
X107479999Y-85560001D02*
X107479999Y-85486001D01*
X106680000Y-86360000D02*
X107479999Y-85560001D01*
X110494000Y-85475000D02*
X110490000Y-85471000D01*
X112366000Y-85475000D02*
X110494000Y-85475000D01*
X111391000Y-82225000D02*
X112366000Y-82225000D01*
X106680000Y-88900000D02*
X107930009Y-87649991D01*
X107930009Y-85685991D02*
X111391000Y-82225000D01*
X107930009Y-87649991D02*
X107930009Y-85685991D01*
X114300000Y-76200000D02*
X115697000Y-77597000D01*
X115697000Y-84582000D02*
X115316000Y-84963000D01*
X115316000Y-84963000D02*
X113479000Y-84963000D01*
X115697000Y-77597000D02*
X115697000Y-84582000D01*
X113341000Y-84825000D02*
X112366000Y-84825000D01*
X113479000Y-84963000D02*
X113341000Y-84825000D01*
X117291000Y-84825000D02*
X118266000Y-84825000D01*
X116459000Y-83993000D02*
X117291000Y-84825000D01*
X116459000Y-75819000D02*
X116459000Y-83993000D01*
X114300000Y-73660000D02*
X116459000Y-75819000D01*
D18*
G36*
X118961500Y-94704500D02*
G01*
X115209220Y-94704500D01*
X115326649Y-94528755D01*
X115353679Y-94463500D01*
X115407631Y-94463500D01*
X115431370Y-94465838D01*
X115455109Y-94463500D01*
X115455119Y-94463500D01*
X115526152Y-94456504D01*
X115617293Y-94428857D01*
X115701288Y-94383960D01*
X115774910Y-94323540D01*
X115790049Y-94305093D01*
X118591098Y-91504045D01*
X118609540Y-91488910D01*
X118624675Y-91470468D01*
X118624679Y-91470464D01*
X118669960Y-91415289D01*
X118714857Y-91331293D01*
X118714857Y-91331292D01*
X118742504Y-91240152D01*
X118749500Y-91169119D01*
X118749500Y-91169110D01*
X118751838Y-91145371D01*
X118749500Y-91121632D01*
X118749500Y-86060234D01*
X118961500Y-86060234D01*
X118961500Y-94704500D01*
G37*
X118961500Y-94704500D02*
X115209220Y-94704500D01*
X115326649Y-94528755D01*
X115353679Y-94463500D01*
X115407631Y-94463500D01*
X115431370Y-94465838D01*
X115455109Y-94463500D01*
X115455119Y-94463500D01*
X115526152Y-94456504D01*
X115617293Y-94428857D01*
X115701288Y-94383960D01*
X115774910Y-94323540D01*
X115790049Y-94305093D01*
X118591098Y-91504045D01*
X118609540Y-91488910D01*
X118624675Y-91470468D01*
X118624679Y-91470464D01*
X118669960Y-91415289D01*
X118714857Y-91331293D01*
X118714857Y-91331292D01*
X118742504Y-91240152D01*
X118749500Y-91169119D01*
X118749500Y-91169110D01*
X118751838Y-91145371D01*
X118749500Y-91121632D01*
X118749500Y-86060234D01*
X118961500Y-86060234D01*
X118961500Y-94704500D01*
G36*
X116932321Y-85150093D02*
G01*
X116947460Y-85168540D01*
X117021082Y-85228960D01*
X117105077Y-85273857D01*
X117180766Y-85296817D01*
X117180766Y-85700000D01*
X117187688Y-85770278D01*
X117208187Y-85837856D01*
X117241476Y-85900135D01*
X117286276Y-85954724D01*
X117340865Y-85999524D01*
X117403144Y-86032813D01*
X117470722Y-86053312D01*
X117541000Y-86060234D01*
X117782501Y-86060234D01*
X117782500Y-90945097D01*
X115314514Y-93413084D01*
X115199865Y-93241500D01*
X115038500Y-93080135D01*
X114848755Y-92953351D01*
X114637922Y-92866021D01*
X114414102Y-92821500D01*
X114185898Y-92821500D01*
X113962078Y-92866021D01*
X113751245Y-92953351D01*
X113561500Y-93080135D01*
X113400135Y-93241500D01*
X113273351Y-93431245D01*
X113186021Y-93642078D01*
X113141500Y-93865898D01*
X113141500Y-94094102D01*
X113186021Y-94317922D01*
X113273351Y-94528755D01*
X113390780Y-94704500D01*
X107909738Y-94704500D01*
X108026922Y-94452836D01*
X108062613Y-94335161D01*
X107943486Y-94114500D01*
X106814500Y-94114500D01*
X106814500Y-94134500D01*
X106545500Y-94134500D01*
X106545500Y-94114500D01*
X106525500Y-94114500D01*
X106525500Y-93845500D01*
X106545500Y-93845500D01*
X106545500Y-93825500D01*
X106814500Y-93825500D01*
X106814500Y-93845500D01*
X107943486Y-93845500D01*
X108062613Y-93624839D01*
X108026922Y-93507164D01*
X107908796Y-93253478D01*
X107743448Y-93027712D01*
X107537232Y-92838542D01*
X107298073Y-92693237D01*
X107035162Y-92597382D01*
X106814502Y-92715719D01*
X106814502Y-92594442D01*
X107017922Y-92553979D01*
X107228755Y-92466649D01*
X107418500Y-92339865D01*
X107579865Y-92178500D01*
X107706649Y-91988755D01*
X107733679Y-91923500D01*
X110970336Y-91923500D01*
X110987451Y-91934936D01*
X111089092Y-91977037D01*
X111196993Y-91998500D01*
X111307007Y-91998500D01*
X111414908Y-91977037D01*
X111516549Y-91934936D01*
X111608023Y-91873815D01*
X111685815Y-91796023D01*
X111746936Y-91704549D01*
X111789037Y-91602908D01*
X111810500Y-91495007D01*
X111810500Y-91384993D01*
X111798746Y-91325898D01*
X113141500Y-91325898D01*
X113141500Y-91554102D01*
X113186021Y-91777922D01*
X113273351Y-91988755D01*
X113400135Y-92178500D01*
X113561500Y-92339865D01*
X113751245Y-92466649D01*
X113962078Y-92553979D01*
X114185898Y-92598500D01*
X114414102Y-92598500D01*
X114637922Y-92553979D01*
X114848755Y-92466649D01*
X115038500Y-92339865D01*
X115199865Y-92178500D01*
X115326649Y-91988755D01*
X115413979Y-91777922D01*
X115458500Y-91554102D01*
X115458500Y-91325898D01*
X115413979Y-91102078D01*
X115326649Y-90891245D01*
X115199865Y-90701500D01*
X115038500Y-90540135D01*
X114848755Y-90413351D01*
X114637922Y-90326021D01*
X114414102Y-90281500D01*
X114185898Y-90281500D01*
X113962078Y-90326021D01*
X113751245Y-90413351D01*
X113561500Y-90540135D01*
X113400135Y-90701500D01*
X113273351Y-90891245D01*
X113186021Y-91102078D01*
X113141500Y-91325898D01*
X111798746Y-91325898D01*
X111789037Y-91277092D01*
X111746936Y-91175451D01*
X111685815Y-91083977D01*
X111608023Y-91006185D01*
X111516549Y-90945064D01*
X111414908Y-90902963D01*
X111307007Y-90881500D01*
X111196993Y-90881500D01*
X111089092Y-90902963D01*
X110987451Y-90945064D01*
X110970336Y-90956500D01*
X107733679Y-90956500D01*
X107706649Y-90891245D01*
X107579865Y-90701500D01*
X107418500Y-90540135D01*
X107228755Y-90413351D01*
X107017922Y-90326021D01*
X106794102Y-90281500D01*
X106565898Y-90281500D01*
X106342078Y-90326021D01*
X106131245Y-90413351D01*
X105955500Y-90530780D01*
X105955500Y-89809220D01*
X106131245Y-89926649D01*
X106342078Y-90013979D01*
X106565898Y-90058500D01*
X106794102Y-90058500D01*
X107017922Y-90013979D01*
X107228755Y-89926649D01*
X107418500Y-89799865D01*
X107579865Y-89638500D01*
X107706649Y-89448755D01*
X107793979Y-89237922D01*
X107838500Y-89014102D01*
X107838500Y-88785898D01*
X107793979Y-88562078D01*
X107766949Y-88496823D01*
X108255102Y-88008670D01*
X108273549Y-87993531D01*
X108333969Y-87919909D01*
X108378866Y-87835914D01*
X108406513Y-87744773D01*
X108413509Y-87673740D01*
X108413509Y-87673737D01*
X108415848Y-87649991D01*
X108413509Y-87626245D01*
X108413509Y-87086257D01*
X108447451Y-87108936D01*
X108549092Y-87151037D01*
X108656993Y-87172500D01*
X108767007Y-87172500D01*
X108874908Y-87151037D01*
X108976549Y-87108936D01*
X108993664Y-87097500D01*
X112557836Y-87097500D01*
X112574951Y-87108936D01*
X112676592Y-87151037D01*
X112784493Y-87172500D01*
X112894507Y-87172500D01*
X113002408Y-87151037D01*
X113104049Y-87108936D01*
X113195523Y-87047815D01*
X113273315Y-86970023D01*
X113293802Y-86939362D01*
X113400135Y-87098500D01*
X113561500Y-87259865D01*
X113608843Y-87291499D01*
X111892739Y-87291499D01*
X111869000Y-87289161D01*
X111845261Y-87291499D01*
X111845252Y-87291499D01*
X111774219Y-87298495D01*
X111683078Y-87326142D01*
X111599082Y-87371039D01*
X111543907Y-87416320D01*
X111543903Y-87416324D01*
X111525461Y-87431459D01*
X111510326Y-87449901D01*
X111051728Y-87908500D01*
X108993664Y-87908500D01*
X108976549Y-87897064D01*
X108874908Y-87854963D01*
X108767007Y-87833500D01*
X108656993Y-87833500D01*
X108549092Y-87854963D01*
X108447451Y-87897064D01*
X108355977Y-87958185D01*
X108278185Y-88035977D01*
X108217064Y-88127451D01*
X108174963Y-88229092D01*
X108153500Y-88336993D01*
X108153500Y-88447007D01*
X108174963Y-88554908D01*
X108217064Y-88656549D01*
X108278185Y-88748023D01*
X108355977Y-88825815D01*
X108447451Y-88886936D01*
X108549092Y-88929037D01*
X108656993Y-88950500D01*
X108767007Y-88950500D01*
X108874908Y-88929037D01*
X108976549Y-88886936D01*
X108993664Y-88875500D01*
X111228261Y-88875500D01*
X111252000Y-88877838D01*
X111275739Y-88875500D01*
X111275749Y-88875500D01*
X111346782Y-88868504D01*
X111437923Y-88840857D01*
X111521918Y-88795960D01*
X111595540Y-88735540D01*
X111610679Y-88717093D01*
X112069274Y-88258499D01*
X113335322Y-88258499D01*
X113273351Y-88351245D01*
X113186021Y-88562078D01*
X113141500Y-88785898D01*
X113141500Y-89014102D01*
X113186021Y-89237922D01*
X113273351Y-89448755D01*
X113400135Y-89638500D01*
X113561500Y-89799865D01*
X113751245Y-89926649D01*
X113962078Y-90013979D01*
X114185898Y-90058500D01*
X114414102Y-90058500D01*
X114637922Y-90013979D01*
X114848755Y-89926649D01*
X115038500Y-89799865D01*
X115199865Y-89638500D01*
X115326649Y-89448755D01*
X115413979Y-89237922D01*
X115458500Y-89014102D01*
X115458500Y-88785898D01*
X115413979Y-88562078D01*
X115326649Y-88351245D01*
X115264678Y-88258499D01*
X115321137Y-88258499D01*
X115338252Y-88269935D01*
X115439893Y-88312036D01*
X115547794Y-88333499D01*
X115657808Y-88333499D01*
X115765709Y-88312036D01*
X115867350Y-88269935D01*
X115958824Y-88208814D01*
X116036616Y-88131022D01*
X116097737Y-88039548D01*
X116139838Y-87937907D01*
X116161301Y-87830006D01*
X116161301Y-87719992D01*
X116139838Y-87612091D01*
X116097737Y-87510450D01*
X116036616Y-87418976D01*
X115958824Y-87341184D01*
X115867350Y-87280063D01*
X115765709Y-87237962D01*
X115657808Y-87216499D01*
X115547794Y-87216499D01*
X115439893Y-87237962D01*
X115338252Y-87280063D01*
X115321137Y-87291499D01*
X114991157Y-87291499D01*
X115038500Y-87259865D01*
X115199865Y-87098500D01*
X115326649Y-86908755D01*
X115413979Y-86697922D01*
X115458500Y-86474102D01*
X115458500Y-86245898D01*
X115413979Y-86022078D01*
X115326649Y-85811245D01*
X115199865Y-85621500D01*
X115038500Y-85460135D01*
X115018094Y-85446500D01*
X115292261Y-85446500D01*
X115316000Y-85448838D01*
X115339739Y-85446500D01*
X115339749Y-85446500D01*
X115410782Y-85439504D01*
X115501923Y-85411857D01*
X115585918Y-85366960D01*
X115659540Y-85306540D01*
X115674679Y-85288093D01*
X116022093Y-84940679D01*
X116040540Y-84925540D01*
X116100960Y-84851918D01*
X116145857Y-84767923D01*
X116173504Y-84676782D01*
X116180500Y-84605749D01*
X116180500Y-84605740D01*
X116182838Y-84582001D01*
X116180500Y-84558262D01*
X116180500Y-84398272D01*
X116932321Y-85150093D01*
G37*
X116932321Y-85150093D02*
X116947460Y-85168540D01*
X117021082Y-85228960D01*
X117105077Y-85273857D01*
X117180766Y-85296817D01*
X117180766Y-85700000D01*
X117187688Y-85770278D01*
X117208187Y-85837856D01*
X117241476Y-85900135D01*
X117286276Y-85954724D01*
X117340865Y-85999524D01*
X117403144Y-86032813D01*
X117470722Y-86053312D01*
X117541000Y-86060234D01*
X117782501Y-86060234D01*
X117782500Y-90945097D01*
X115314514Y-93413084D01*
X115199865Y-93241500D01*
X115038500Y-93080135D01*
X114848755Y-92953351D01*
X114637922Y-92866021D01*
X114414102Y-92821500D01*
X114185898Y-92821500D01*
X113962078Y-92866021D01*
X113751245Y-92953351D01*
X113561500Y-93080135D01*
X113400135Y-93241500D01*
X113273351Y-93431245D01*
X113186021Y-93642078D01*
X113141500Y-93865898D01*
X113141500Y-94094102D01*
X113186021Y-94317922D01*
X113273351Y-94528755D01*
X113390780Y-94704500D01*
X107909738Y-94704500D01*
X108026922Y-94452836D01*
X108062613Y-94335161D01*
X107943486Y-94114500D01*
X106814500Y-94114500D01*
X106814500Y-94134500D01*
X106545500Y-94134500D01*
X106545500Y-94114500D01*
X106525500Y-94114500D01*
X106525500Y-93845500D01*
X106545500Y-93845500D01*
X106545500Y-93825500D01*
X106814500Y-93825500D01*
X106814500Y-93845500D01*
X107943486Y-93845500D01*
X108062613Y-93624839D01*
X108026922Y-93507164D01*
X107908796Y-93253478D01*
X107743448Y-93027712D01*
X107537232Y-92838542D01*
X107298073Y-92693237D01*
X107035162Y-92597382D01*
X106814502Y-92715719D01*
X106814502Y-92594442D01*
X107017922Y-92553979D01*
X107228755Y-92466649D01*
X107418500Y-92339865D01*
X107579865Y-92178500D01*
X107706649Y-91988755D01*
X107733679Y-91923500D01*
X110970336Y-91923500D01*
X110987451Y-91934936D01*
X111089092Y-91977037D01*
X111196993Y-91998500D01*
X111307007Y-91998500D01*
X111414908Y-91977037D01*
X111516549Y-91934936D01*
X111608023Y-91873815D01*
X111685815Y-91796023D01*
X111746936Y-91704549D01*
X111789037Y-91602908D01*
X111810500Y-91495007D01*
X111810500Y-91384993D01*
X111798746Y-91325898D01*
X113141500Y-91325898D01*
X113141500Y-91554102D01*
X113186021Y-91777922D01*
X113273351Y-91988755D01*
X113400135Y-92178500D01*
X113561500Y-92339865D01*
X113751245Y-92466649D01*
X113962078Y-92553979D01*
X114185898Y-92598500D01*
X114414102Y-92598500D01*
X114637922Y-92553979D01*
X114848755Y-92466649D01*
X115038500Y-92339865D01*
X115199865Y-92178500D01*
X115326649Y-91988755D01*
X115413979Y-91777922D01*
X115458500Y-91554102D01*
X115458500Y-91325898D01*
X115413979Y-91102078D01*
X115326649Y-90891245D01*
X115199865Y-90701500D01*
X115038500Y-90540135D01*
X114848755Y-90413351D01*
X114637922Y-90326021D01*
X114414102Y-90281500D01*
X114185898Y-90281500D01*
X113962078Y-90326021D01*
X113751245Y-90413351D01*
X113561500Y-90540135D01*
X113400135Y-90701500D01*
X113273351Y-90891245D01*
X113186021Y-91102078D01*
X113141500Y-91325898D01*
X111798746Y-91325898D01*
X111789037Y-91277092D01*
X111746936Y-91175451D01*
X111685815Y-91083977D01*
X111608023Y-91006185D01*
X111516549Y-90945064D01*
X111414908Y-90902963D01*
X111307007Y-90881500D01*
X111196993Y-90881500D01*
X111089092Y-90902963D01*
X110987451Y-90945064D01*
X110970336Y-90956500D01*
X107733679Y-90956500D01*
X107706649Y-90891245D01*
X107579865Y-90701500D01*
X107418500Y-90540135D01*
X107228755Y-90413351D01*
X107017922Y-90326021D01*
X106794102Y-90281500D01*
X106565898Y-90281500D01*
X106342078Y-90326021D01*
X106131245Y-90413351D01*
X105955500Y-90530780D01*
X105955500Y-89809220D01*
X106131245Y-89926649D01*
X106342078Y-90013979D01*
X106565898Y-90058500D01*
X106794102Y-90058500D01*
X107017922Y-90013979D01*
X107228755Y-89926649D01*
X107418500Y-89799865D01*
X107579865Y-89638500D01*
X107706649Y-89448755D01*
X107793979Y-89237922D01*
X107838500Y-89014102D01*
X107838500Y-88785898D01*
X107793979Y-88562078D01*
X107766949Y-88496823D01*
X108255102Y-88008670D01*
X108273549Y-87993531D01*
X108333969Y-87919909D01*
X108378866Y-87835914D01*
X108406513Y-87744773D01*
X108413509Y-87673740D01*
X108413509Y-87673737D01*
X108415848Y-87649991D01*
X108413509Y-87626245D01*
X108413509Y-87086257D01*
X108447451Y-87108936D01*
X108549092Y-87151037D01*
X108656993Y-87172500D01*
X108767007Y-87172500D01*
X108874908Y-87151037D01*
X108976549Y-87108936D01*
X108993664Y-87097500D01*
X112557836Y-87097500D01*
X112574951Y-87108936D01*
X112676592Y-87151037D01*
X112784493Y-87172500D01*
X112894507Y-87172500D01*
X113002408Y-87151037D01*
X113104049Y-87108936D01*
X113195523Y-87047815D01*
X113273315Y-86970023D01*
X113293802Y-86939362D01*
X113400135Y-87098500D01*
X113561500Y-87259865D01*
X113608843Y-87291499D01*
X111892739Y-87291499D01*
X111869000Y-87289161D01*
X111845261Y-87291499D01*
X111845252Y-87291499D01*
X111774219Y-87298495D01*
X111683078Y-87326142D01*
X111599082Y-87371039D01*
X111543907Y-87416320D01*
X111543903Y-87416324D01*
X111525461Y-87431459D01*
X111510326Y-87449901D01*
X111051728Y-87908500D01*
X108993664Y-87908500D01*
X108976549Y-87897064D01*
X108874908Y-87854963D01*
X108767007Y-87833500D01*
X108656993Y-87833500D01*
X108549092Y-87854963D01*
X108447451Y-87897064D01*
X108355977Y-87958185D01*
X108278185Y-88035977D01*
X108217064Y-88127451D01*
X108174963Y-88229092D01*
X108153500Y-88336993D01*
X108153500Y-88447007D01*
X108174963Y-88554908D01*
X108217064Y-88656549D01*
X108278185Y-88748023D01*
X108355977Y-88825815D01*
X108447451Y-88886936D01*
X108549092Y-88929037D01*
X108656993Y-88950500D01*
X108767007Y-88950500D01*
X108874908Y-88929037D01*
X108976549Y-88886936D01*
X108993664Y-88875500D01*
X111228261Y-88875500D01*
X111252000Y-88877838D01*
X111275739Y-88875500D01*
X111275749Y-88875500D01*
X111346782Y-88868504D01*
X111437923Y-88840857D01*
X111521918Y-88795960D01*
X111595540Y-88735540D01*
X111610679Y-88717093D01*
X112069274Y-88258499D01*
X113335322Y-88258499D01*
X113273351Y-88351245D01*
X113186021Y-88562078D01*
X113141500Y-88785898D01*
X113141500Y-89014102D01*
X113186021Y-89237922D01*
X113273351Y-89448755D01*
X113400135Y-89638500D01*
X113561500Y-89799865D01*
X113751245Y-89926649D01*
X113962078Y-90013979D01*
X114185898Y-90058500D01*
X114414102Y-90058500D01*
X114637922Y-90013979D01*
X114848755Y-89926649D01*
X115038500Y-89799865D01*
X115199865Y-89638500D01*
X115326649Y-89448755D01*
X115413979Y-89237922D01*
X115458500Y-89014102D01*
X115458500Y-88785898D01*
X115413979Y-88562078D01*
X115326649Y-88351245D01*
X115264678Y-88258499D01*
X115321137Y-88258499D01*
X115338252Y-88269935D01*
X115439893Y-88312036D01*
X115547794Y-88333499D01*
X115657808Y-88333499D01*
X115765709Y-88312036D01*
X115867350Y-88269935D01*
X115958824Y-88208814D01*
X116036616Y-88131022D01*
X116097737Y-88039548D01*
X116139838Y-87937907D01*
X116161301Y-87830006D01*
X116161301Y-87719992D01*
X116139838Y-87612091D01*
X116097737Y-87510450D01*
X116036616Y-87418976D01*
X115958824Y-87341184D01*
X115867350Y-87280063D01*
X115765709Y-87237962D01*
X115657808Y-87216499D01*
X115547794Y-87216499D01*
X115439893Y-87237962D01*
X115338252Y-87280063D01*
X115321137Y-87291499D01*
X114991157Y-87291499D01*
X115038500Y-87259865D01*
X115199865Y-87098500D01*
X115326649Y-86908755D01*
X115413979Y-86697922D01*
X115458500Y-86474102D01*
X115458500Y-86245898D01*
X115413979Y-86022078D01*
X115326649Y-85811245D01*
X115199865Y-85621500D01*
X115038500Y-85460135D01*
X115018094Y-85446500D01*
X115292261Y-85446500D01*
X115316000Y-85448838D01*
X115339739Y-85446500D01*
X115339749Y-85446500D01*
X115410782Y-85439504D01*
X115501923Y-85411857D01*
X115585918Y-85366960D01*
X115659540Y-85306540D01*
X115674679Y-85288093D01*
X116022093Y-84940679D01*
X116040540Y-84925540D01*
X116100960Y-84851918D01*
X116145857Y-84767923D01*
X116173504Y-84676782D01*
X116180500Y-84605749D01*
X116180500Y-84605740D01*
X116182838Y-84582001D01*
X116180500Y-84558262D01*
X116180500Y-84398272D01*
X116932321Y-85150093D01*
G36*
X111280766Y-83100000D02*
G01*
X111287688Y-83170278D01*
X111296704Y-83200000D01*
X111287688Y-83229722D01*
X111280766Y-83300000D01*
X111280766Y-83750000D01*
X111287688Y-83820278D01*
X111296704Y-83850000D01*
X111287688Y-83879722D01*
X111280766Y-83950000D01*
X111280766Y-84400000D01*
X111287688Y-84470278D01*
X111296704Y-84500000D01*
X111287688Y-84529722D01*
X111280766Y-84600000D01*
X111280766Y-84734869D01*
X111203236Y-84796196D01*
X111123114Y-84890319D01*
X111062895Y-84998265D01*
X111024892Y-85115885D01*
X111013500Y-85212625D01*
X111170375Y-85369500D01*
X111478237Y-85369500D01*
X111503144Y-85382813D01*
X111570722Y-85403312D01*
X111641000Y-85410234D01*
X112520500Y-85410234D01*
X112520500Y-85580500D01*
X112500500Y-85580500D01*
X112500500Y-85629500D01*
X112231500Y-85629500D01*
X112231500Y-85580500D01*
X111170375Y-85580500D01*
X111013500Y-85737375D01*
X111024892Y-85834115D01*
X111062895Y-85951735D01*
X111123114Y-86059681D01*
X111183399Y-86130500D01*
X108993664Y-86130500D01*
X108976549Y-86119064D01*
X108874908Y-86076963D01*
X108767007Y-86055500D01*
X108656993Y-86055500D01*
X108549092Y-86076963D01*
X108447451Y-86119064D01*
X108413509Y-86141743D01*
X108413509Y-85886263D01*
X111280766Y-83019006D01*
X111280766Y-83100000D01*
G37*
X111280766Y-83100000D02*
X111287688Y-83170278D01*
X111296704Y-83200000D01*
X111287688Y-83229722D01*
X111280766Y-83300000D01*
X111280766Y-83750000D01*
X111287688Y-83820278D01*
X111296704Y-83850000D01*
X111287688Y-83879722D01*
X111280766Y-83950000D01*
X111280766Y-84400000D01*
X111287688Y-84470278D01*
X111296704Y-84500000D01*
X111287688Y-84529722D01*
X111280766Y-84600000D01*
X111280766Y-84734869D01*
X111203236Y-84796196D01*
X111123114Y-84890319D01*
X111062895Y-84998265D01*
X111024892Y-85115885D01*
X111013500Y-85212625D01*
X111170375Y-85369500D01*
X111478237Y-85369500D01*
X111503144Y-85382813D01*
X111570722Y-85403312D01*
X111641000Y-85410234D01*
X112520500Y-85410234D01*
X112520500Y-85580500D01*
X112500500Y-85580500D01*
X112500500Y-85629500D01*
X112231500Y-85629500D01*
X112231500Y-85580500D01*
X111170375Y-85580500D01*
X111013500Y-85737375D01*
X111024892Y-85834115D01*
X111062895Y-85951735D01*
X111123114Y-86059681D01*
X111183399Y-86130500D01*
X108993664Y-86130500D01*
X108976549Y-86119064D01*
X108874908Y-86076963D01*
X108767007Y-86055500D01*
X108656993Y-86055500D01*
X108549092Y-86076963D01*
X108447451Y-86119064D01*
X108413509Y-86141743D01*
X108413509Y-85886263D01*
X111280766Y-83019006D01*
X111280766Y-83100000D01*
G36*
X106131245Y-79766649D02*
G01*
X106342078Y-79853979D01*
X106565898Y-79898500D01*
X106794102Y-79898500D01*
X107017922Y-79853979D01*
X107083177Y-79826949D01*
X108506320Y-81250092D01*
X108521460Y-81268540D01*
X108595082Y-81328960D01*
X108679077Y-81373857D01*
X108770218Y-81401504D01*
X108841251Y-81408500D01*
X108841254Y-81408500D01*
X108865000Y-81410839D01*
X108888746Y-81408500D01*
X110873728Y-81408500D01*
X107154905Y-85127323D01*
X107136459Y-85142461D01*
X107076039Y-85216083D01*
X107052402Y-85260303D01*
X107017922Y-85246021D01*
X106794102Y-85201500D01*
X106565898Y-85201500D01*
X106342078Y-85246021D01*
X106131245Y-85333351D01*
X105955500Y-85450780D01*
X105955500Y-84729220D01*
X106131245Y-84846649D01*
X106342078Y-84933979D01*
X106565898Y-84978500D01*
X106794102Y-84978500D01*
X107017922Y-84933979D01*
X107228755Y-84846649D01*
X107418500Y-84719865D01*
X107579865Y-84558500D01*
X107706649Y-84368755D01*
X107793979Y-84157922D01*
X107838500Y-83934102D01*
X107838500Y-83705898D01*
X107793979Y-83482078D01*
X107706649Y-83271245D01*
X107579865Y-83081500D01*
X107418500Y-82920135D01*
X107228755Y-82793351D01*
X107017922Y-82706021D01*
X106794102Y-82661500D01*
X106565898Y-82661500D01*
X106342078Y-82706021D01*
X106131245Y-82793351D01*
X105955500Y-82910780D01*
X105955500Y-82189220D01*
X106131245Y-82306649D01*
X106342078Y-82393979D01*
X106565898Y-82438500D01*
X106794102Y-82438500D01*
X107017922Y-82393979D01*
X107228755Y-82306649D01*
X107418500Y-82179865D01*
X107579865Y-82018500D01*
X107706649Y-81828755D01*
X107793979Y-81617922D01*
X107838500Y-81394102D01*
X107838500Y-81165898D01*
X107793979Y-80942078D01*
X107706649Y-80731245D01*
X107579865Y-80541500D01*
X107418500Y-80380135D01*
X107228755Y-80253351D01*
X107017922Y-80166021D01*
X106794102Y-80121500D01*
X106565898Y-80121500D01*
X106342078Y-80166021D01*
X106131245Y-80253351D01*
X105955500Y-80370780D01*
X105955500Y-79649220D01*
X106131245Y-79766649D01*
G37*
X106131245Y-79766649D02*
X106342078Y-79853979D01*
X106565898Y-79898500D01*
X106794102Y-79898500D01*
X107017922Y-79853979D01*
X107083177Y-79826949D01*
X108506320Y-81250092D01*
X108521460Y-81268540D01*
X108595082Y-81328960D01*
X108679077Y-81373857D01*
X108770218Y-81401504D01*
X108841251Y-81408500D01*
X108841254Y-81408500D01*
X108865000Y-81410839D01*
X108888746Y-81408500D01*
X110873728Y-81408500D01*
X107154905Y-85127323D01*
X107136459Y-85142461D01*
X107076039Y-85216083D01*
X107052402Y-85260303D01*
X107017922Y-85246021D01*
X106794102Y-85201500D01*
X106565898Y-85201500D01*
X106342078Y-85246021D01*
X106131245Y-85333351D01*
X105955500Y-85450780D01*
X105955500Y-84729220D01*
X106131245Y-84846649D01*
X106342078Y-84933979D01*
X106565898Y-84978500D01*
X106794102Y-84978500D01*
X107017922Y-84933979D01*
X107228755Y-84846649D01*
X107418500Y-84719865D01*
X107579865Y-84558500D01*
X107706649Y-84368755D01*
X107793979Y-84157922D01*
X107838500Y-83934102D01*
X107838500Y-83705898D01*
X107793979Y-83482078D01*
X107706649Y-83271245D01*
X107579865Y-83081500D01*
X107418500Y-82920135D01*
X107228755Y-82793351D01*
X107017922Y-82706021D01*
X106794102Y-82661500D01*
X106565898Y-82661500D01*
X106342078Y-82706021D01*
X106131245Y-82793351D01*
X105955500Y-82910780D01*
X105955500Y-82189220D01*
X106131245Y-82306649D01*
X106342078Y-82393979D01*
X106565898Y-82438500D01*
X106794102Y-82438500D01*
X107017922Y-82393979D01*
X107228755Y-82306649D01*
X107418500Y-82179865D01*
X107579865Y-82018500D01*
X107706649Y-81828755D01*
X107793979Y-81617922D01*
X107838500Y-81394102D01*
X107838500Y-81165898D01*
X107793979Y-80942078D01*
X107706649Y-80731245D01*
X107579865Y-80541500D01*
X107418500Y-80380135D01*
X107228755Y-80253351D01*
X107017922Y-80166021D01*
X106794102Y-80121500D01*
X106565898Y-80121500D01*
X106342078Y-80166021D01*
X106131245Y-80253351D01*
X105955500Y-80370780D01*
X105955500Y-79649220D01*
X106131245Y-79766649D01*
G36*
X113273351Y-70571245D02*
G01*
X113186021Y-70782078D01*
X113141500Y-71005898D01*
X113141500Y-71234102D01*
X113186021Y-71457922D01*
X113273351Y-71668755D01*
X113400135Y-71858500D01*
X113561500Y-72019865D01*
X113751245Y-72146649D01*
X113962078Y-72233979D01*
X114185898Y-72278500D01*
X114414102Y-72278500D01*
X114637922Y-72233979D01*
X114848755Y-72146649D01*
X115038500Y-72019865D01*
X115199865Y-71858500D01*
X115215384Y-71835274D01*
X117607500Y-74227390D01*
X117607501Y-79039766D01*
X117541000Y-79039766D01*
X117470722Y-79046688D01*
X117403144Y-79067187D01*
X117340865Y-79100476D01*
X117286276Y-79145276D01*
X117241476Y-79199865D01*
X117208187Y-79262144D01*
X117187688Y-79329722D01*
X117180766Y-79400000D01*
X117180766Y-79850000D01*
X117187688Y-79920278D01*
X117196704Y-79950000D01*
X117187688Y-79979722D01*
X117180766Y-80050000D01*
X117180766Y-80453183D01*
X117105077Y-80476143D01*
X117021081Y-80521040D01*
X117011932Y-80528549D01*
X116947460Y-80581460D01*
X116942500Y-80587504D01*
X116942500Y-75842738D01*
X116944838Y-75818999D01*
X116942500Y-75795260D01*
X116942500Y-75795251D01*
X116935504Y-75724218D01*
X116907857Y-75633077D01*
X116862960Y-75549081D01*
X116817679Y-75493906D01*
X116817675Y-75493902D01*
X116802540Y-75475460D01*
X116784098Y-75460325D01*
X115386949Y-74063177D01*
X115413979Y-73997922D01*
X115458500Y-73774102D01*
X115458500Y-73545898D01*
X115413979Y-73322078D01*
X115326649Y-73111245D01*
X115199865Y-72921500D01*
X115038500Y-72760135D01*
X114848755Y-72633351D01*
X114637922Y-72546021D01*
X114414102Y-72501500D01*
X114185898Y-72501500D01*
X113962078Y-72546021D01*
X113751245Y-72633351D01*
X113561500Y-72760135D01*
X113400135Y-72921500D01*
X113273351Y-73111245D01*
X113186021Y-73322078D01*
X113141500Y-73545898D01*
X113141500Y-73774102D01*
X113186021Y-73997922D01*
X113273351Y-74208755D01*
X113400135Y-74398500D01*
X113561500Y-74559865D01*
X113751245Y-74686649D01*
X113962078Y-74773979D01*
X114185898Y-74818500D01*
X114414102Y-74818500D01*
X114637922Y-74773979D01*
X114703177Y-74746949D01*
X115975500Y-76019273D01*
X115975500Y-77191728D01*
X115386949Y-76603177D01*
X115413979Y-76537922D01*
X115458500Y-76314102D01*
X115458500Y-76085898D01*
X115413979Y-75862078D01*
X115326649Y-75651245D01*
X115199865Y-75461500D01*
X115038500Y-75300135D01*
X114848755Y-75173351D01*
X114637922Y-75086021D01*
X114414102Y-75041500D01*
X114185898Y-75041500D01*
X113962078Y-75086021D01*
X113751245Y-75173351D01*
X113561500Y-75300135D01*
X113400135Y-75461500D01*
X113273351Y-75651245D01*
X113186021Y-75862078D01*
X113141500Y-76085898D01*
X113141500Y-76314102D01*
X113186021Y-76537922D01*
X113273351Y-76748755D01*
X113400135Y-76938500D01*
X113561500Y-77099865D01*
X113751245Y-77226649D01*
X113962078Y-77313979D01*
X114185898Y-77358500D01*
X114414102Y-77358500D01*
X114637922Y-77313979D01*
X114703177Y-77286949D01*
X115213500Y-77797272D01*
X115213500Y-78021906D01*
X115199865Y-78001500D01*
X115038500Y-77840135D01*
X114848755Y-77713351D01*
X114637922Y-77626021D01*
X114414102Y-77581500D01*
X114185898Y-77581500D01*
X113962078Y-77626021D01*
X113751245Y-77713351D01*
X113561500Y-77840135D01*
X113400135Y-78001500D01*
X113273351Y-78191245D01*
X113186021Y-78402078D01*
X113141500Y-78625898D01*
X113141500Y-78854102D01*
X113180998Y-79052670D01*
X113161278Y-79046688D01*
X113091000Y-79039766D01*
X112849500Y-79039766D01*
X112849500Y-75779738D01*
X112851838Y-75755999D01*
X112849500Y-75732260D01*
X112849500Y-75732251D01*
X112842504Y-75661218D01*
X112814857Y-75570077D01*
X112803634Y-75549081D01*
X112769960Y-75486081D01*
X112724679Y-75430906D01*
X112724675Y-75430902D01*
X112709540Y-75412460D01*
X112691098Y-75397325D01*
X108088679Y-70794907D01*
X108073540Y-70776460D01*
X107999918Y-70716040D01*
X107915923Y-70671143D01*
X107840234Y-70648183D01*
X107840234Y-70395500D01*
X113390780Y-70395500D01*
X113273351Y-70571245D01*
G37*
X113273351Y-70571245D02*
X113186021Y-70782078D01*
X113141500Y-71005898D01*
X113141500Y-71234102D01*
X113186021Y-71457922D01*
X113273351Y-71668755D01*
X113400135Y-71858500D01*
X113561500Y-72019865D01*
X113751245Y-72146649D01*
X113962078Y-72233979D01*
X114185898Y-72278500D01*
X114414102Y-72278500D01*
X114637922Y-72233979D01*
X114848755Y-72146649D01*
X115038500Y-72019865D01*
X115199865Y-71858500D01*
X115215384Y-71835274D01*
X117607500Y-74227390D01*
X117607501Y-79039766D01*
X117541000Y-79039766D01*
X117470722Y-79046688D01*
X117403144Y-79067187D01*
X117340865Y-79100476D01*
X117286276Y-79145276D01*
X117241476Y-79199865D01*
X117208187Y-79262144D01*
X117187688Y-79329722D01*
X117180766Y-79400000D01*
X117180766Y-79850000D01*
X117187688Y-79920278D01*
X117196704Y-79950000D01*
X117187688Y-79979722D01*
X117180766Y-80050000D01*
X117180766Y-80453183D01*
X117105077Y-80476143D01*
X117021081Y-80521040D01*
X117011932Y-80528549D01*
X116947460Y-80581460D01*
X116942500Y-80587504D01*
X116942500Y-75842738D01*
X116944838Y-75818999D01*
X116942500Y-75795260D01*
X116942500Y-75795251D01*
X116935504Y-75724218D01*
X116907857Y-75633077D01*
X116862960Y-75549081D01*
X116817679Y-75493906D01*
X116817675Y-75493902D01*
X116802540Y-75475460D01*
X116784098Y-75460325D01*
X115386949Y-74063177D01*
X115413979Y-73997922D01*
X115458500Y-73774102D01*
X115458500Y-73545898D01*
X115413979Y-73322078D01*
X115326649Y-73111245D01*
X115199865Y-72921500D01*
X115038500Y-72760135D01*
X114848755Y-72633351D01*
X114637922Y-72546021D01*
X114414102Y-72501500D01*
X114185898Y-72501500D01*
X113962078Y-72546021D01*
X113751245Y-72633351D01*
X113561500Y-72760135D01*
X113400135Y-72921500D01*
X113273351Y-73111245D01*
X113186021Y-73322078D01*
X113141500Y-73545898D01*
X113141500Y-73774102D01*
X113186021Y-73997922D01*
X113273351Y-74208755D01*
X113400135Y-74398500D01*
X113561500Y-74559865D01*
X113751245Y-74686649D01*
X113962078Y-74773979D01*
X114185898Y-74818500D01*
X114414102Y-74818500D01*
X114637922Y-74773979D01*
X114703177Y-74746949D01*
X115975500Y-76019273D01*
X115975500Y-77191728D01*
X115386949Y-76603177D01*
X115413979Y-76537922D01*
X115458500Y-76314102D01*
X115458500Y-76085898D01*
X115413979Y-75862078D01*
X115326649Y-75651245D01*
X115199865Y-75461500D01*
X115038500Y-75300135D01*
X114848755Y-75173351D01*
X114637922Y-75086021D01*
X114414102Y-75041500D01*
X114185898Y-75041500D01*
X113962078Y-75086021D01*
X113751245Y-75173351D01*
X113561500Y-75300135D01*
X113400135Y-75461500D01*
X113273351Y-75651245D01*
X113186021Y-75862078D01*
X113141500Y-76085898D01*
X113141500Y-76314102D01*
X113186021Y-76537922D01*
X113273351Y-76748755D01*
X113400135Y-76938500D01*
X113561500Y-77099865D01*
X113751245Y-77226649D01*
X113962078Y-77313979D01*
X114185898Y-77358500D01*
X114414102Y-77358500D01*
X114637922Y-77313979D01*
X114703177Y-77286949D01*
X115213500Y-77797272D01*
X115213500Y-78021906D01*
X115199865Y-78001500D01*
X115038500Y-77840135D01*
X114848755Y-77713351D01*
X114637922Y-77626021D01*
X114414102Y-77581500D01*
X114185898Y-77581500D01*
X113962078Y-77626021D01*
X113751245Y-77713351D01*
X113561500Y-77840135D01*
X113400135Y-78001500D01*
X113273351Y-78191245D01*
X113186021Y-78402078D01*
X113141500Y-78625898D01*
X113141500Y-78854102D01*
X113180998Y-79052670D01*
X113161278Y-79046688D01*
X113091000Y-79039766D01*
X112849500Y-79039766D01*
X112849500Y-75779738D01*
X112851838Y-75755999D01*
X112849500Y-75732260D01*
X112849500Y-75732251D01*
X112842504Y-75661218D01*
X112814857Y-75570077D01*
X112803634Y-75549081D01*
X112769960Y-75486081D01*
X112724679Y-75430906D01*
X112724675Y-75430902D01*
X112709540Y-75412460D01*
X112691098Y-75397325D01*
X108088679Y-70794907D01*
X108073540Y-70776460D01*
X107999918Y-70716040D01*
X107915923Y-70671143D01*
X107840234Y-70648183D01*
X107840234Y-70395500D01*
X113390780Y-70395500D01*
X113273351Y-70571245D01*
G36*
X106131245Y-77226649D02*
G01*
X106342078Y-77313979D01*
X106565898Y-77358500D01*
X106794102Y-77358500D01*
X107017922Y-77313979D01*
X107083177Y-77286949D01*
X110237727Y-80441500D01*
X109065272Y-80441500D01*
X107766949Y-79143177D01*
X107793979Y-79077922D01*
X107838500Y-78854102D01*
X107838500Y-78625898D01*
X107793979Y-78402078D01*
X107706649Y-78191245D01*
X107579865Y-78001500D01*
X107418500Y-77840135D01*
X107228755Y-77713351D01*
X107017922Y-77626021D01*
X106794102Y-77581500D01*
X106565898Y-77581500D01*
X106342078Y-77626021D01*
X106131245Y-77713351D01*
X105955500Y-77830780D01*
X105955500Y-77109220D01*
X106131245Y-77226649D01*
G37*
X106131245Y-77226649D02*
X106342078Y-77313979D01*
X106565898Y-77358500D01*
X106794102Y-77358500D01*
X107017922Y-77313979D01*
X107083177Y-77286949D01*
X110237727Y-80441500D01*
X109065272Y-80441500D01*
X107766949Y-79143177D01*
X107793979Y-79077922D01*
X107838500Y-78854102D01*
X107838500Y-78625898D01*
X107793979Y-78402078D01*
X107706649Y-78191245D01*
X107579865Y-78001500D01*
X107418500Y-77840135D01*
X107228755Y-77713351D01*
X107017922Y-77626021D01*
X106794102Y-77581500D01*
X106565898Y-77581500D01*
X106342078Y-77626021D01*
X106131245Y-77713351D01*
X105955500Y-77830780D01*
X105955500Y-77109220D01*
X106131245Y-77226649D01*
G36*
X109002323Y-77541093D02*
G01*
X109017462Y-77559540D01*
X109091084Y-77619960D01*
X109175079Y-77664857D01*
X109266220Y-77692504D01*
X109337253Y-77699500D01*
X109337262Y-77699500D01*
X109361001Y-77701838D01*
X109384740Y-77699500D01*
X111351336Y-77699500D01*
X111368451Y-77710936D01*
X111470092Y-77753037D01*
X111577993Y-77774500D01*
X111688007Y-77774500D01*
X111795908Y-77753037D01*
X111882500Y-77717169D01*
X111882500Y-79039766D01*
X111641000Y-79039766D01*
X111570722Y-79046688D01*
X111503144Y-79067187D01*
X111440865Y-79100476D01*
X111386276Y-79145276D01*
X111341476Y-79199865D01*
X111308187Y-79262144D01*
X111287688Y-79329722D01*
X111280766Y-79400000D01*
X111280766Y-79791500D01*
X110955273Y-79791500D01*
X107766949Y-76603177D01*
X107793979Y-76537922D01*
X107828020Y-76366790D01*
X109002323Y-77541093D01*
G37*
X109002323Y-77541093D02*
X109017462Y-77559540D01*
X109091084Y-77619960D01*
X109175079Y-77664857D01*
X109266220Y-77692504D01*
X109337253Y-77699500D01*
X109337262Y-77699500D01*
X109361001Y-77701838D01*
X109384740Y-77699500D01*
X111351336Y-77699500D01*
X111368451Y-77710936D01*
X111470092Y-77753037D01*
X111577993Y-77774500D01*
X111688007Y-77774500D01*
X111795908Y-77753037D01*
X111882500Y-77717169D01*
X111882500Y-79039766D01*
X111641000Y-79039766D01*
X111570722Y-79046688D01*
X111503144Y-79067187D01*
X111440865Y-79100476D01*
X111386276Y-79145276D01*
X111341476Y-79199865D01*
X111308187Y-79262144D01*
X111287688Y-79329722D01*
X111280766Y-79400000D01*
X111280766Y-79791500D01*
X110955273Y-79791500D01*
X107766949Y-76603177D01*
X107793979Y-76537922D01*
X107828020Y-76366790D01*
X109002323Y-77541093D01*
G36*
X118961501Y-79039766D02*
G01*
X118924500Y-79039766D01*
X118924500Y-73986975D01*
X118927686Y-73954629D01*
X118916979Y-73845922D01*
X118914972Y-73825541D01*
X118877318Y-73701414D01*
X118816172Y-73587017D01*
X118733883Y-73486747D01*
X118708757Y-73466127D01*
X115919879Y-70677250D01*
X115899253Y-70652117D01*
X115798983Y-70569828D01*
X115684586Y-70508682D01*
X115560459Y-70471028D01*
X115463718Y-70461500D01*
X115463716Y-70461500D01*
X115431370Y-70458314D01*
X115399024Y-70461500D01*
X115253319Y-70461500D01*
X115209220Y-70395500D01*
X118961501Y-70395500D01*
X118961501Y-79039766D01*
G37*
X118961501Y-79039766D02*
X118924500Y-79039766D01*
X118924500Y-73986975D01*
X118927686Y-73954629D01*
X118916979Y-73845922D01*
X118914972Y-73825541D01*
X118877318Y-73701414D01*
X118816172Y-73587017D01*
X118733883Y-73486747D01*
X118708757Y-73466127D01*
X115919879Y-70677250D01*
X115899253Y-70652117D01*
X115798983Y-70569828D01*
X115684586Y-70508682D01*
X115560459Y-70471028D01*
X115463718Y-70461500D01*
X115463716Y-70461500D01*
X115431370Y-70458314D01*
X115399024Y-70461500D01*
X115253319Y-70461500D01*
X115209220Y-70395500D01*
X118961501Y-70395500D01*
X118961501Y-79039766D01*
G36*
X111882501Y-75956274D02*
G01*
X111882501Y-76714831D01*
X111795908Y-76678963D01*
X111688007Y-76657500D01*
X111577993Y-76657500D01*
X111470092Y-76678963D01*
X111368451Y-76721064D01*
X111351336Y-76732500D01*
X109561274Y-76732500D01*
X107400600Y-74571826D01*
X107418500Y-74559865D01*
X107579865Y-74398500D01*
X107706649Y-74208755D01*
X107793979Y-73997922D01*
X107838500Y-73774102D01*
X107838500Y-73545898D01*
X107793979Y-73322078D01*
X107706649Y-73111245D01*
X107579865Y-72921500D01*
X107418500Y-72760135D01*
X107228755Y-72633351D01*
X107017922Y-72546021D01*
X106794102Y-72501500D01*
X106565898Y-72501500D01*
X106342078Y-72546021D01*
X106131245Y-72633351D01*
X105955500Y-72750780D01*
X105955500Y-72280234D01*
X107480000Y-72280234D01*
X107550278Y-72273312D01*
X107617856Y-72252813D01*
X107680135Y-72219524D01*
X107734724Y-72174724D01*
X107779524Y-72120135D01*
X107812813Y-72057856D01*
X107833312Y-71990278D01*
X107840234Y-71920000D01*
X107840234Y-71914006D01*
X111882501Y-75956274D01*
G37*
X111882501Y-75956274D02*
X111882501Y-76714831D01*
X111795908Y-76678963D01*
X111688007Y-76657500D01*
X111577993Y-76657500D01*
X111470092Y-76678963D01*
X111368451Y-76721064D01*
X111351336Y-76732500D01*
X109561274Y-76732500D01*
X107400600Y-74571826D01*
X107418500Y-74559865D01*
X107579865Y-74398500D01*
X107706649Y-74208755D01*
X107793979Y-73997922D01*
X107838500Y-73774102D01*
X107838500Y-73545898D01*
X107793979Y-73322078D01*
X107706649Y-73111245D01*
X107579865Y-72921500D01*
X107418500Y-72760135D01*
X107228755Y-72633351D01*
X107017922Y-72546021D01*
X106794102Y-72501500D01*
X106565898Y-72501500D01*
X106342078Y-72546021D01*
X106131245Y-72633351D01*
X105955500Y-72750780D01*
X105955500Y-72280234D01*
X107480000Y-72280234D01*
X107550278Y-72273312D01*
X107617856Y-72252813D01*
X107680135Y-72219524D01*
X107734724Y-72174724D01*
X107779524Y-72120135D01*
X107812813Y-72057856D01*
X107833312Y-71990278D01*
X107840234Y-71920000D01*
X107840234Y-71914006D01*
X111882501Y-75956274D01*
M02*
