M48
; DRILL file {KiCad (5.1.5)-3} date 6/23/2020 5:32:53 AM
; FORMAT={-:-/ absolute / inch / decimal}
; #@! TF.CreationDate,2020-06-23T05:32:53-04:00
; #@! TF.GenerationSoftware,Kicad,Pcbnew,(5.1.5)-3
; #@! TF.FileFunction,Plated,1,2,PTH
FMAT,2
INCH
T1C0.0138
T2C0.0157
T3C0.0315
%
G90
G05
T1
X4.275Y-3.125
X4.275Y-3.375
X4.3Y-3.075
X4.3Y-3.425
T2
X4.29Y-2.885
X4.375Y-2.825
X4.59Y-2.97
X4.63Y-3.67
X4.635Y-2.82
T3
X4.2Y-2.8
X4.2Y-2.9
X4.2Y-3.0
X4.2Y-3.1
X4.2Y-3.2
X4.2Y-3.3
X4.2Y-3.4
X4.2Y-3.5
X4.2Y-3.6
X4.2Y-3.7
X4.5Y-2.8
X4.5Y-2.9
X4.5Y-3.0
X4.5Y-3.1
X4.5Y-3.2
X4.5Y-3.3
X4.5Y-3.4
X4.5Y-3.5
X4.5Y-3.6
X4.5Y-3.7
T0
M30
