G04 #@! TF.GenerationSoftware,KiCad,Pcbnew,(5.1.5)-3*
G04 #@! TF.CreationDate,2020-06-23T05:32:50-04:00*
G04 #@! TF.ProjectId,dip20soic,64697032-3073-46f6-9963-2e6b69636164,rev?*
G04 #@! TF.SameCoordinates,Original*
G04 #@! TF.FileFunction,Copper,L2,Bot*
G04 #@! TF.FilePolarity,Positive*
%FSLAX46Y46*%
G04 Gerber Fmt 4.6, Leading zero omitted, Abs format (unit mm)*
G04 Created by KiCad (PCBNEW (5.1.5)-3) date 2020-06-23 05:32:50*
%MOMM*%
%LPD*%
G04 APERTURE LIST*
%ADD10C,0.100000*%
%ADD11R,1.600000X1.600000*%
%ADD12O,1.600000X1.600000*%
%ADD13C,0.400000*%
%ADD14C,0.800000*%
%ADD15C,0.250000*%
%ADD16C,1.500000*%
%ADD17C,0.239000*%
G04 APERTURE END LIST*
G04 #@! TA.AperFunction,SMDPad,CuDef*
D10*
G36*
X110964505Y-80951204D02*
G01*
X110988773Y-80954804D01*
X111012572Y-80960765D01*
X111035671Y-80969030D01*
X111057850Y-80979520D01*
X111078893Y-80992132D01*
X111098599Y-81006747D01*
X111116777Y-81023223D01*
X111133253Y-81041401D01*
X111147868Y-81061107D01*
X111160480Y-81082150D01*
X111170970Y-81104329D01*
X111179235Y-81127428D01*
X111185196Y-81151227D01*
X111188796Y-81175495D01*
X111190000Y-81199999D01*
X111190000Y-81850001D01*
X111188796Y-81874505D01*
X111185196Y-81898773D01*
X111179235Y-81922572D01*
X111170970Y-81945671D01*
X111160480Y-81967850D01*
X111147868Y-81988893D01*
X111133253Y-82008599D01*
X111116777Y-82026777D01*
X111098599Y-82043253D01*
X111078893Y-82057868D01*
X111057850Y-82070480D01*
X111035671Y-82080970D01*
X111012572Y-82089235D01*
X110988773Y-82095196D01*
X110964505Y-82098796D01*
X110940001Y-82100000D01*
X110039999Y-82100000D01*
X110015495Y-82098796D01*
X109991227Y-82095196D01*
X109967428Y-82089235D01*
X109944329Y-82080970D01*
X109922150Y-82070480D01*
X109901107Y-82057868D01*
X109881401Y-82043253D01*
X109863223Y-82026777D01*
X109846747Y-82008599D01*
X109832132Y-81988893D01*
X109819520Y-81967850D01*
X109809030Y-81945671D01*
X109800765Y-81922572D01*
X109794804Y-81898773D01*
X109791204Y-81874505D01*
X109790000Y-81850001D01*
X109790000Y-81199999D01*
X109791204Y-81175495D01*
X109794804Y-81151227D01*
X109800765Y-81127428D01*
X109809030Y-81104329D01*
X109819520Y-81082150D01*
X109832132Y-81061107D01*
X109846747Y-81041401D01*
X109863223Y-81023223D01*
X109881401Y-81006747D01*
X109901107Y-80992132D01*
X109922150Y-80979520D01*
X109944329Y-80969030D01*
X109967428Y-80960765D01*
X109991227Y-80954804D01*
X110015495Y-80951204D01*
X110039999Y-80950000D01*
X110940001Y-80950000D01*
X110964505Y-80951204D01*
G37*
G04 #@! TD.AperFunction*
G04 #@! TA.AperFunction,SMDPad,CuDef*
G36*
X110964505Y-83001204D02*
G01*
X110988773Y-83004804D01*
X111012572Y-83010765D01*
X111035671Y-83019030D01*
X111057850Y-83029520D01*
X111078893Y-83042132D01*
X111098599Y-83056747D01*
X111116777Y-83073223D01*
X111133253Y-83091401D01*
X111147868Y-83111107D01*
X111160480Y-83132150D01*
X111170970Y-83154329D01*
X111179235Y-83177428D01*
X111185196Y-83201227D01*
X111188796Y-83225495D01*
X111190000Y-83249999D01*
X111190000Y-83900001D01*
X111188796Y-83924505D01*
X111185196Y-83948773D01*
X111179235Y-83972572D01*
X111170970Y-83995671D01*
X111160480Y-84017850D01*
X111147868Y-84038893D01*
X111133253Y-84058599D01*
X111116777Y-84076777D01*
X111098599Y-84093253D01*
X111078893Y-84107868D01*
X111057850Y-84120480D01*
X111035671Y-84130970D01*
X111012572Y-84139235D01*
X110988773Y-84145196D01*
X110964505Y-84148796D01*
X110940001Y-84150000D01*
X110039999Y-84150000D01*
X110015495Y-84148796D01*
X109991227Y-84145196D01*
X109967428Y-84139235D01*
X109944329Y-84130970D01*
X109922150Y-84120480D01*
X109901107Y-84107868D01*
X109881401Y-84093253D01*
X109863223Y-84076777D01*
X109846747Y-84058599D01*
X109832132Y-84038893D01*
X109819520Y-84017850D01*
X109809030Y-83995671D01*
X109800765Y-83972572D01*
X109794804Y-83948773D01*
X109791204Y-83924505D01*
X109790000Y-83900001D01*
X109790000Y-83249999D01*
X109791204Y-83225495D01*
X109794804Y-83201227D01*
X109800765Y-83177428D01*
X109809030Y-83154329D01*
X109819520Y-83132150D01*
X109832132Y-83111107D01*
X109846747Y-83091401D01*
X109863223Y-83073223D01*
X109881401Y-83056747D01*
X109901107Y-83042132D01*
X109922150Y-83029520D01*
X109944329Y-83019030D01*
X109967428Y-83010765D01*
X109991227Y-83004804D01*
X110015495Y-83001204D01*
X110039999Y-83000000D01*
X110940001Y-83000000D01*
X110964505Y-83001204D01*
G37*
G04 #@! TD.AperFunction*
D11*
X106680000Y-71120000D03*
D12*
X114300000Y-93980000D03*
X106680000Y-73660000D03*
X114300000Y-91440000D03*
X106680000Y-76200000D03*
X114300000Y-88900000D03*
X106680000Y-78740000D03*
X114300000Y-86360000D03*
X106680000Y-81280000D03*
X114300000Y-83820000D03*
X106680000Y-83820000D03*
X114300000Y-81280000D03*
X106680000Y-86360000D03*
X114300000Y-78740000D03*
X106680000Y-88900000D03*
X114300000Y-76200000D03*
X106680000Y-91440000D03*
X114300000Y-73660000D03*
X106680000Y-93980000D03*
X114300000Y-71120000D03*
D13*
X109220000Y-78105000D03*
X108585000Y-79375000D03*
X109220000Y-86995000D03*
X108585000Y-85725000D03*
D14*
X111125000Y-71755000D03*
X117729000Y-71628000D03*
X116586000Y-75438000D03*
X117602000Y-93218000D03*
X108966000Y-73279000D03*
D15*
X109220000Y-76200000D02*
X106680000Y-73660000D01*
X109220000Y-78105000D02*
X109220000Y-76200000D01*
X109220000Y-88900000D02*
X106680000Y-91440000D01*
X109220000Y-86995000D02*
X109220000Y-88900000D01*
X108585000Y-78105000D02*
X106680000Y-76200000D01*
X108585000Y-79375000D02*
X108585000Y-78105000D01*
D16*
X110490000Y-74930000D02*
X114300000Y-71120000D01*
X110490000Y-81525000D02*
X110490000Y-74930000D01*
X110490000Y-90170000D02*
X110490000Y-83575000D01*
X106680000Y-93980000D02*
X110490000Y-90170000D01*
D15*
X108585000Y-86995000D02*
X106680000Y-88900000D01*
X108585000Y-85725000D02*
X108585000Y-86995000D01*
D17*
G36*
X118961500Y-94704500D02*
G01*
X115209220Y-94704500D01*
X115326649Y-94528755D01*
X115413979Y-94317922D01*
X115458500Y-94094102D01*
X115458500Y-93865898D01*
X115413979Y-93642078D01*
X115326649Y-93431245D01*
X115199865Y-93241500D01*
X115038500Y-93080135D01*
X114848755Y-92953351D01*
X114637922Y-92866021D01*
X114414102Y-92821500D01*
X114185898Y-92821500D01*
X113962078Y-92866021D01*
X113751245Y-92953351D01*
X113561500Y-93080135D01*
X113400135Y-93241500D01*
X113273351Y-93431245D01*
X113186021Y-93642078D01*
X113141500Y-93865898D01*
X113141500Y-94094102D01*
X113186021Y-94317922D01*
X113273351Y-94528755D01*
X113390780Y-94704500D01*
X107909738Y-94704500D01*
X108026922Y-94452836D01*
X108062613Y-94335161D01*
X107943486Y-94114500D01*
X106814500Y-94114500D01*
X106814500Y-94134500D01*
X106545500Y-94134500D01*
X106545500Y-94114500D01*
X106525500Y-94114500D01*
X106525500Y-93845500D01*
X106545500Y-93845500D01*
X106545500Y-93825500D01*
X106814500Y-93825500D01*
X106814500Y-93845500D01*
X107943486Y-93845500D01*
X108062613Y-93624839D01*
X108026922Y-93507164D01*
X107908796Y-93253478D01*
X107743448Y-93027712D01*
X107537232Y-92838542D01*
X107298073Y-92693237D01*
X107035162Y-92597382D01*
X106814502Y-92715719D01*
X106814502Y-92594442D01*
X107017922Y-92553979D01*
X107228755Y-92466649D01*
X107418500Y-92339865D01*
X107579865Y-92178500D01*
X107706649Y-91988755D01*
X107793979Y-91777922D01*
X107838500Y-91554102D01*
X107838500Y-91325898D01*
X113141500Y-91325898D01*
X113141500Y-91554102D01*
X113186021Y-91777922D01*
X113273351Y-91988755D01*
X113400135Y-92178500D01*
X113561500Y-92339865D01*
X113751245Y-92466649D01*
X113962078Y-92553979D01*
X114185898Y-92598500D01*
X114414102Y-92598500D01*
X114637922Y-92553979D01*
X114848755Y-92466649D01*
X115038500Y-92339865D01*
X115199865Y-92178500D01*
X115326649Y-91988755D01*
X115413979Y-91777922D01*
X115458500Y-91554102D01*
X115458500Y-91325898D01*
X115413979Y-91102078D01*
X115326649Y-90891245D01*
X115199865Y-90701500D01*
X115038500Y-90540135D01*
X114848755Y-90413351D01*
X114637922Y-90326021D01*
X114414102Y-90281500D01*
X114185898Y-90281500D01*
X113962078Y-90326021D01*
X113751245Y-90413351D01*
X113561500Y-90540135D01*
X113400135Y-90701500D01*
X113273351Y-90891245D01*
X113186021Y-91102078D01*
X113141500Y-91325898D01*
X107838500Y-91325898D01*
X107793979Y-91102078D01*
X107766949Y-91036823D01*
X109545093Y-89258679D01*
X109563540Y-89243540D01*
X109623960Y-89169918D01*
X109668857Y-89085923D01*
X109696504Y-88994782D01*
X109703500Y-88923749D01*
X109703500Y-88923740D01*
X109705838Y-88900001D01*
X109703500Y-88876262D01*
X109703500Y-88785898D01*
X113141500Y-88785898D01*
X113141500Y-89014102D01*
X113186021Y-89237922D01*
X113273351Y-89448755D01*
X113400135Y-89638500D01*
X113561500Y-89799865D01*
X113751245Y-89926649D01*
X113962078Y-90013979D01*
X114185898Y-90058500D01*
X114414102Y-90058500D01*
X114637922Y-90013979D01*
X114848755Y-89926649D01*
X115038500Y-89799865D01*
X115199865Y-89638500D01*
X115326649Y-89448755D01*
X115413979Y-89237922D01*
X115458500Y-89014102D01*
X115458500Y-88785898D01*
X115413979Y-88562078D01*
X115326649Y-88351245D01*
X115199865Y-88161500D01*
X115038500Y-88000135D01*
X114848755Y-87873351D01*
X114637922Y-87786021D01*
X114414102Y-87741500D01*
X114185898Y-87741500D01*
X113962078Y-87786021D01*
X113751245Y-87873351D01*
X113561500Y-88000135D01*
X113400135Y-88161500D01*
X113273351Y-88351245D01*
X113186021Y-88562078D01*
X113141500Y-88785898D01*
X109703500Y-88785898D01*
X109703500Y-87276664D01*
X109714936Y-87259549D01*
X109757037Y-87157908D01*
X109778500Y-87050007D01*
X109778500Y-86939993D01*
X109757037Y-86832092D01*
X109714936Y-86730451D01*
X109653815Y-86638977D01*
X109576023Y-86561185D01*
X109484549Y-86500064D01*
X109382908Y-86457963D01*
X109275007Y-86436500D01*
X109164993Y-86436500D01*
X109068500Y-86455694D01*
X109068500Y-86245898D01*
X113141500Y-86245898D01*
X113141500Y-86474102D01*
X113186021Y-86697922D01*
X113273351Y-86908755D01*
X113400135Y-87098500D01*
X113561500Y-87259865D01*
X113751245Y-87386649D01*
X113962078Y-87473979D01*
X114185898Y-87518500D01*
X114414102Y-87518500D01*
X114637922Y-87473979D01*
X114848755Y-87386649D01*
X115038500Y-87259865D01*
X115199865Y-87098500D01*
X115326649Y-86908755D01*
X115413979Y-86697922D01*
X115458500Y-86474102D01*
X115458500Y-86245898D01*
X115413979Y-86022078D01*
X115326649Y-85811245D01*
X115199865Y-85621500D01*
X115038500Y-85460135D01*
X114848755Y-85333351D01*
X114637922Y-85246021D01*
X114414102Y-85201500D01*
X114185898Y-85201500D01*
X113962078Y-85246021D01*
X113751245Y-85333351D01*
X113561500Y-85460135D01*
X113400135Y-85621500D01*
X113273351Y-85811245D01*
X113186021Y-86022078D01*
X113141500Y-86245898D01*
X109068500Y-86245898D01*
X109068500Y-86006664D01*
X109079936Y-85989549D01*
X109122037Y-85887908D01*
X109143500Y-85780007D01*
X109143500Y-85669993D01*
X109122037Y-85562092D01*
X109079936Y-85460451D01*
X109018815Y-85368977D01*
X108941023Y-85291185D01*
X108849549Y-85230064D01*
X108747908Y-85187963D01*
X108640007Y-85166500D01*
X108529993Y-85166500D01*
X108422092Y-85187963D01*
X108320451Y-85230064D01*
X108228977Y-85291185D01*
X108151185Y-85368977D01*
X108090064Y-85460451D01*
X108047963Y-85562092D01*
X108026500Y-85669993D01*
X108026500Y-85780007D01*
X108047963Y-85887908D01*
X108090064Y-85989549D01*
X108101500Y-86006665D01*
X108101501Y-86794727D01*
X107083177Y-87813051D01*
X107017922Y-87786021D01*
X106794102Y-87741500D01*
X106565898Y-87741500D01*
X106342078Y-87786021D01*
X106131245Y-87873351D01*
X105955500Y-87990780D01*
X105955500Y-87269220D01*
X106131245Y-87386649D01*
X106342078Y-87473979D01*
X106565898Y-87518500D01*
X106794102Y-87518500D01*
X107017922Y-87473979D01*
X107228755Y-87386649D01*
X107418500Y-87259865D01*
X107579865Y-87098500D01*
X107706649Y-86908755D01*
X107793979Y-86697922D01*
X107838500Y-86474102D01*
X107838500Y-86245898D01*
X107793979Y-86022078D01*
X107706649Y-85811245D01*
X107579865Y-85621500D01*
X107418500Y-85460135D01*
X107228755Y-85333351D01*
X107017922Y-85246021D01*
X106794102Y-85201500D01*
X106565898Y-85201500D01*
X106342078Y-85246021D01*
X106131245Y-85333351D01*
X105955500Y-85450780D01*
X105955500Y-84729220D01*
X106131245Y-84846649D01*
X106342078Y-84933979D01*
X106565898Y-84978500D01*
X106794102Y-84978500D01*
X107017922Y-84933979D01*
X107228755Y-84846649D01*
X107418500Y-84719865D01*
X107579865Y-84558500D01*
X107706649Y-84368755D01*
X107793979Y-84157922D01*
X107795554Y-84150000D01*
X109159464Y-84150000D01*
X109171580Y-84273011D01*
X109207461Y-84391296D01*
X109265728Y-84500307D01*
X109344144Y-84595856D01*
X109439693Y-84674272D01*
X109548704Y-84732539D01*
X109666989Y-84768420D01*
X109790000Y-84780536D01*
X110198625Y-84777500D01*
X110355500Y-84620625D01*
X110355500Y-83709500D01*
X110624500Y-83709500D01*
X110624500Y-84620625D01*
X110781375Y-84777500D01*
X111190000Y-84780536D01*
X111313011Y-84768420D01*
X111431296Y-84732539D01*
X111540307Y-84674272D01*
X111635856Y-84595856D01*
X111714272Y-84500307D01*
X111772539Y-84391296D01*
X111808420Y-84273011D01*
X111820536Y-84150000D01*
X111817500Y-83866375D01*
X111660625Y-83709500D01*
X110624500Y-83709500D01*
X110355500Y-83709500D01*
X109319375Y-83709500D01*
X109162500Y-83866375D01*
X109159464Y-84150000D01*
X107795554Y-84150000D01*
X107838500Y-83934102D01*
X107838500Y-83705898D01*
X113141500Y-83705898D01*
X113141500Y-83934102D01*
X113186021Y-84157922D01*
X113273351Y-84368755D01*
X113400135Y-84558500D01*
X113561500Y-84719865D01*
X113751245Y-84846649D01*
X113962078Y-84933979D01*
X114185898Y-84978500D01*
X114414102Y-84978500D01*
X114637922Y-84933979D01*
X114848755Y-84846649D01*
X115038500Y-84719865D01*
X115199865Y-84558500D01*
X115326649Y-84368755D01*
X115413979Y-84157922D01*
X115458500Y-83934102D01*
X115458500Y-83705898D01*
X115413979Y-83482078D01*
X115326649Y-83271245D01*
X115199865Y-83081500D01*
X115038500Y-82920135D01*
X114848755Y-82793351D01*
X114637922Y-82706021D01*
X114414102Y-82661500D01*
X114185898Y-82661500D01*
X113962078Y-82706021D01*
X113751245Y-82793351D01*
X113561500Y-82920135D01*
X113400135Y-83081500D01*
X113273351Y-83271245D01*
X113186021Y-83482078D01*
X113141500Y-83705898D01*
X107838500Y-83705898D01*
X107793979Y-83482078D01*
X107706649Y-83271245D01*
X107579865Y-83081500D01*
X107418500Y-82920135D01*
X107228755Y-82793351D01*
X107017922Y-82706021D01*
X106794102Y-82661500D01*
X106565898Y-82661500D01*
X106342078Y-82706021D01*
X106131245Y-82793351D01*
X105955500Y-82910780D01*
X105955500Y-82189220D01*
X106131245Y-82306649D01*
X106342078Y-82393979D01*
X106565898Y-82438500D01*
X106794102Y-82438500D01*
X107017922Y-82393979D01*
X107228755Y-82306649D01*
X107418500Y-82179865D01*
X107579865Y-82018500D01*
X107706649Y-81828755D01*
X107793979Y-81617922D01*
X107838500Y-81394102D01*
X107838500Y-81165898D01*
X107793979Y-80942078D01*
X107706649Y-80731245D01*
X107579865Y-80541500D01*
X107418500Y-80380135D01*
X107228755Y-80253351D01*
X107017922Y-80166021D01*
X106794102Y-80121500D01*
X106565898Y-80121500D01*
X106342078Y-80166021D01*
X106131245Y-80253351D01*
X105955500Y-80370780D01*
X105955500Y-79649220D01*
X106131245Y-79766649D01*
X106342078Y-79853979D01*
X106565898Y-79898500D01*
X106794102Y-79898500D01*
X107017922Y-79853979D01*
X107228755Y-79766649D01*
X107418500Y-79639865D01*
X107579865Y-79478500D01*
X107706649Y-79288755D01*
X107793979Y-79077922D01*
X107838500Y-78854102D01*
X107838500Y-78625898D01*
X107793979Y-78402078D01*
X107706649Y-78191245D01*
X107579865Y-78001500D01*
X107418500Y-77840135D01*
X107228755Y-77713351D01*
X107017922Y-77626021D01*
X106794102Y-77581500D01*
X106565898Y-77581500D01*
X106342078Y-77626021D01*
X106131245Y-77713351D01*
X105955500Y-77830780D01*
X105955500Y-77109220D01*
X106131245Y-77226649D01*
X106342078Y-77313979D01*
X106565898Y-77358500D01*
X106794102Y-77358500D01*
X107017922Y-77313979D01*
X107083177Y-77286949D01*
X108101501Y-78305273D01*
X108101500Y-79093335D01*
X108090064Y-79110451D01*
X108047963Y-79212092D01*
X108026500Y-79319993D01*
X108026500Y-79430007D01*
X108047963Y-79537908D01*
X108090064Y-79639549D01*
X108151185Y-79731023D01*
X108228977Y-79808815D01*
X108320451Y-79869936D01*
X108422092Y-79912037D01*
X108529993Y-79933500D01*
X108640007Y-79933500D01*
X108747908Y-79912037D01*
X108849549Y-79869936D01*
X108941023Y-79808815D01*
X109018815Y-79731023D01*
X109079936Y-79639549D01*
X109122037Y-79537908D01*
X109143500Y-79430007D01*
X109143500Y-79319993D01*
X109122037Y-79212092D01*
X109079936Y-79110451D01*
X109068500Y-79093336D01*
X109068500Y-78644306D01*
X109164993Y-78663500D01*
X109275007Y-78663500D01*
X109381500Y-78642317D01*
X109381500Y-81579449D01*
X109397540Y-81742303D01*
X109429766Y-81848538D01*
X109429766Y-81850001D01*
X109441491Y-81969052D01*
X109476217Y-82083527D01*
X109532609Y-82189028D01*
X109608499Y-82281501D01*
X109700972Y-82357391D01*
X109733897Y-82374990D01*
X109666989Y-82381580D01*
X109548704Y-82417461D01*
X109439693Y-82475728D01*
X109344144Y-82554144D01*
X109265728Y-82649693D01*
X109207461Y-82758704D01*
X109171580Y-82876989D01*
X109159464Y-83000000D01*
X109162500Y-83283625D01*
X109319375Y-83440500D01*
X110355500Y-83440500D01*
X110355500Y-83420500D01*
X110624500Y-83420500D01*
X110624500Y-83440500D01*
X111660625Y-83440500D01*
X111817500Y-83283625D01*
X111820536Y-83000000D01*
X111808420Y-82876989D01*
X111772539Y-82758704D01*
X111714272Y-82649693D01*
X111635856Y-82554144D01*
X111540307Y-82475728D01*
X111431296Y-82417461D01*
X111313011Y-82381580D01*
X111246103Y-82374990D01*
X111279028Y-82357391D01*
X111371501Y-82281501D01*
X111447391Y-82189028D01*
X111503783Y-82083527D01*
X111538509Y-81969052D01*
X111550234Y-81850001D01*
X111550234Y-81848539D01*
X111582460Y-81742304D01*
X111598500Y-81579450D01*
X111598500Y-81165898D01*
X113141500Y-81165898D01*
X113141500Y-81394102D01*
X113186021Y-81617922D01*
X113273351Y-81828755D01*
X113400135Y-82018500D01*
X113561500Y-82179865D01*
X113751245Y-82306649D01*
X113962078Y-82393979D01*
X114185898Y-82438500D01*
X114414102Y-82438500D01*
X114637922Y-82393979D01*
X114848755Y-82306649D01*
X115038500Y-82179865D01*
X115199865Y-82018500D01*
X115326649Y-81828755D01*
X115413979Y-81617922D01*
X115458500Y-81394102D01*
X115458500Y-81165898D01*
X115413979Y-80942078D01*
X115326649Y-80731245D01*
X115199865Y-80541500D01*
X115038500Y-80380135D01*
X114848755Y-80253351D01*
X114637922Y-80166021D01*
X114414102Y-80121500D01*
X114185898Y-80121500D01*
X113962078Y-80166021D01*
X113751245Y-80253351D01*
X113561500Y-80380135D01*
X113400135Y-80541500D01*
X113273351Y-80731245D01*
X113186021Y-80942078D01*
X113141500Y-81165898D01*
X111598500Y-81165898D01*
X111598500Y-78625898D01*
X113141500Y-78625898D01*
X113141500Y-78854102D01*
X113186021Y-79077922D01*
X113273351Y-79288755D01*
X113400135Y-79478500D01*
X113561500Y-79639865D01*
X113751245Y-79766649D01*
X113962078Y-79853979D01*
X114185898Y-79898500D01*
X114414102Y-79898500D01*
X114637922Y-79853979D01*
X114848755Y-79766649D01*
X115038500Y-79639865D01*
X115199865Y-79478500D01*
X115326649Y-79288755D01*
X115413979Y-79077922D01*
X115458500Y-78854102D01*
X115458500Y-78625898D01*
X115413979Y-78402078D01*
X115326649Y-78191245D01*
X115199865Y-78001500D01*
X115038500Y-77840135D01*
X114848755Y-77713351D01*
X114637922Y-77626021D01*
X114414102Y-77581500D01*
X114185898Y-77581500D01*
X113962078Y-77626021D01*
X113751245Y-77713351D01*
X113561500Y-77840135D01*
X113400135Y-78001500D01*
X113273351Y-78191245D01*
X113186021Y-78402078D01*
X113141500Y-78625898D01*
X111598500Y-78625898D01*
X111598500Y-76085898D01*
X113141500Y-76085898D01*
X113141500Y-76314102D01*
X113186021Y-76537922D01*
X113273351Y-76748755D01*
X113400135Y-76938500D01*
X113561500Y-77099865D01*
X113751245Y-77226649D01*
X113962078Y-77313979D01*
X114185898Y-77358500D01*
X114414102Y-77358500D01*
X114637922Y-77313979D01*
X114848755Y-77226649D01*
X115038500Y-77099865D01*
X115199865Y-76938500D01*
X115326649Y-76748755D01*
X115413979Y-76537922D01*
X115458500Y-76314102D01*
X115458500Y-76085898D01*
X115413979Y-75862078D01*
X115326649Y-75651245D01*
X115199865Y-75461500D01*
X115038500Y-75300135D01*
X114848755Y-75173351D01*
X114637922Y-75086021D01*
X114414102Y-75041500D01*
X114185898Y-75041500D01*
X113962078Y-75086021D01*
X113751245Y-75173351D01*
X113561500Y-75300135D01*
X113400135Y-75461500D01*
X113273351Y-75651245D01*
X113186021Y-75862078D01*
X113141500Y-76085898D01*
X111598500Y-76085898D01*
X111598500Y-75389154D01*
X113153454Y-73834201D01*
X113186021Y-73997922D01*
X113273351Y-74208755D01*
X113400135Y-74398500D01*
X113561500Y-74559865D01*
X113751245Y-74686649D01*
X113962078Y-74773979D01*
X114185898Y-74818500D01*
X114414102Y-74818500D01*
X114637922Y-74773979D01*
X114848755Y-74686649D01*
X115038500Y-74559865D01*
X115199865Y-74398500D01*
X115326649Y-74208755D01*
X115413979Y-73997922D01*
X115458500Y-73774102D01*
X115458500Y-73545898D01*
X115413979Y-73322078D01*
X115326649Y-73111245D01*
X115199865Y-72921500D01*
X115038500Y-72760135D01*
X114848755Y-72633351D01*
X114637922Y-72546021D01*
X114474201Y-72513455D01*
X114835528Y-72152128D01*
X114848755Y-72146649D01*
X115038500Y-72019865D01*
X115199865Y-71858500D01*
X115326649Y-71668755D01*
X115413979Y-71457922D01*
X115458500Y-71234102D01*
X115458500Y-71005898D01*
X115413979Y-70782078D01*
X115326649Y-70571245D01*
X115209220Y-70395500D01*
X118961501Y-70395500D01*
X118961500Y-94704500D01*
G37*
X118961500Y-94704500D02*
X115209220Y-94704500D01*
X115326649Y-94528755D01*
X115413979Y-94317922D01*
X115458500Y-94094102D01*
X115458500Y-93865898D01*
X115413979Y-93642078D01*
X115326649Y-93431245D01*
X115199865Y-93241500D01*
X115038500Y-93080135D01*
X114848755Y-92953351D01*
X114637922Y-92866021D01*
X114414102Y-92821500D01*
X114185898Y-92821500D01*
X113962078Y-92866021D01*
X113751245Y-92953351D01*
X113561500Y-93080135D01*
X113400135Y-93241500D01*
X113273351Y-93431245D01*
X113186021Y-93642078D01*
X113141500Y-93865898D01*
X113141500Y-94094102D01*
X113186021Y-94317922D01*
X113273351Y-94528755D01*
X113390780Y-94704500D01*
X107909738Y-94704500D01*
X108026922Y-94452836D01*
X108062613Y-94335161D01*
X107943486Y-94114500D01*
X106814500Y-94114500D01*
X106814500Y-94134500D01*
X106545500Y-94134500D01*
X106545500Y-94114500D01*
X106525500Y-94114500D01*
X106525500Y-93845500D01*
X106545500Y-93845500D01*
X106545500Y-93825500D01*
X106814500Y-93825500D01*
X106814500Y-93845500D01*
X107943486Y-93845500D01*
X108062613Y-93624839D01*
X108026922Y-93507164D01*
X107908796Y-93253478D01*
X107743448Y-93027712D01*
X107537232Y-92838542D01*
X107298073Y-92693237D01*
X107035162Y-92597382D01*
X106814502Y-92715719D01*
X106814502Y-92594442D01*
X107017922Y-92553979D01*
X107228755Y-92466649D01*
X107418500Y-92339865D01*
X107579865Y-92178500D01*
X107706649Y-91988755D01*
X107793979Y-91777922D01*
X107838500Y-91554102D01*
X107838500Y-91325898D01*
X113141500Y-91325898D01*
X113141500Y-91554102D01*
X113186021Y-91777922D01*
X113273351Y-91988755D01*
X113400135Y-92178500D01*
X113561500Y-92339865D01*
X113751245Y-92466649D01*
X113962078Y-92553979D01*
X114185898Y-92598500D01*
X114414102Y-92598500D01*
X114637922Y-92553979D01*
X114848755Y-92466649D01*
X115038500Y-92339865D01*
X115199865Y-92178500D01*
X115326649Y-91988755D01*
X115413979Y-91777922D01*
X115458500Y-91554102D01*
X115458500Y-91325898D01*
X115413979Y-91102078D01*
X115326649Y-90891245D01*
X115199865Y-90701500D01*
X115038500Y-90540135D01*
X114848755Y-90413351D01*
X114637922Y-90326021D01*
X114414102Y-90281500D01*
X114185898Y-90281500D01*
X113962078Y-90326021D01*
X113751245Y-90413351D01*
X113561500Y-90540135D01*
X113400135Y-90701500D01*
X113273351Y-90891245D01*
X113186021Y-91102078D01*
X113141500Y-91325898D01*
X107838500Y-91325898D01*
X107793979Y-91102078D01*
X107766949Y-91036823D01*
X109545093Y-89258679D01*
X109563540Y-89243540D01*
X109623960Y-89169918D01*
X109668857Y-89085923D01*
X109696504Y-88994782D01*
X109703500Y-88923749D01*
X109703500Y-88923740D01*
X109705838Y-88900001D01*
X109703500Y-88876262D01*
X109703500Y-88785898D01*
X113141500Y-88785898D01*
X113141500Y-89014102D01*
X113186021Y-89237922D01*
X113273351Y-89448755D01*
X113400135Y-89638500D01*
X113561500Y-89799865D01*
X113751245Y-89926649D01*
X113962078Y-90013979D01*
X114185898Y-90058500D01*
X114414102Y-90058500D01*
X114637922Y-90013979D01*
X114848755Y-89926649D01*
X115038500Y-89799865D01*
X115199865Y-89638500D01*
X115326649Y-89448755D01*
X115413979Y-89237922D01*
X115458500Y-89014102D01*
X115458500Y-88785898D01*
X115413979Y-88562078D01*
X115326649Y-88351245D01*
X115199865Y-88161500D01*
X115038500Y-88000135D01*
X114848755Y-87873351D01*
X114637922Y-87786021D01*
X114414102Y-87741500D01*
X114185898Y-87741500D01*
X113962078Y-87786021D01*
X113751245Y-87873351D01*
X113561500Y-88000135D01*
X113400135Y-88161500D01*
X113273351Y-88351245D01*
X113186021Y-88562078D01*
X113141500Y-88785898D01*
X109703500Y-88785898D01*
X109703500Y-87276664D01*
X109714936Y-87259549D01*
X109757037Y-87157908D01*
X109778500Y-87050007D01*
X109778500Y-86939993D01*
X109757037Y-86832092D01*
X109714936Y-86730451D01*
X109653815Y-86638977D01*
X109576023Y-86561185D01*
X109484549Y-86500064D01*
X109382908Y-86457963D01*
X109275007Y-86436500D01*
X109164993Y-86436500D01*
X109068500Y-86455694D01*
X109068500Y-86245898D01*
X113141500Y-86245898D01*
X113141500Y-86474102D01*
X113186021Y-86697922D01*
X113273351Y-86908755D01*
X113400135Y-87098500D01*
X113561500Y-87259865D01*
X113751245Y-87386649D01*
X113962078Y-87473979D01*
X114185898Y-87518500D01*
X114414102Y-87518500D01*
X114637922Y-87473979D01*
X114848755Y-87386649D01*
X115038500Y-87259865D01*
X115199865Y-87098500D01*
X115326649Y-86908755D01*
X115413979Y-86697922D01*
X115458500Y-86474102D01*
X115458500Y-86245898D01*
X115413979Y-86022078D01*
X115326649Y-85811245D01*
X115199865Y-85621500D01*
X115038500Y-85460135D01*
X114848755Y-85333351D01*
X114637922Y-85246021D01*
X114414102Y-85201500D01*
X114185898Y-85201500D01*
X113962078Y-85246021D01*
X113751245Y-85333351D01*
X113561500Y-85460135D01*
X113400135Y-85621500D01*
X113273351Y-85811245D01*
X113186021Y-86022078D01*
X113141500Y-86245898D01*
X109068500Y-86245898D01*
X109068500Y-86006664D01*
X109079936Y-85989549D01*
X109122037Y-85887908D01*
X109143500Y-85780007D01*
X109143500Y-85669993D01*
X109122037Y-85562092D01*
X109079936Y-85460451D01*
X109018815Y-85368977D01*
X108941023Y-85291185D01*
X108849549Y-85230064D01*
X108747908Y-85187963D01*
X108640007Y-85166500D01*
X108529993Y-85166500D01*
X108422092Y-85187963D01*
X108320451Y-85230064D01*
X108228977Y-85291185D01*
X108151185Y-85368977D01*
X108090064Y-85460451D01*
X108047963Y-85562092D01*
X108026500Y-85669993D01*
X108026500Y-85780007D01*
X108047963Y-85887908D01*
X108090064Y-85989549D01*
X108101500Y-86006665D01*
X108101501Y-86794727D01*
X107083177Y-87813051D01*
X107017922Y-87786021D01*
X106794102Y-87741500D01*
X106565898Y-87741500D01*
X106342078Y-87786021D01*
X106131245Y-87873351D01*
X105955500Y-87990780D01*
X105955500Y-87269220D01*
X106131245Y-87386649D01*
X106342078Y-87473979D01*
X106565898Y-87518500D01*
X106794102Y-87518500D01*
X107017922Y-87473979D01*
X107228755Y-87386649D01*
X107418500Y-87259865D01*
X107579865Y-87098500D01*
X107706649Y-86908755D01*
X107793979Y-86697922D01*
X107838500Y-86474102D01*
X107838500Y-86245898D01*
X107793979Y-86022078D01*
X107706649Y-85811245D01*
X107579865Y-85621500D01*
X107418500Y-85460135D01*
X107228755Y-85333351D01*
X107017922Y-85246021D01*
X106794102Y-85201500D01*
X106565898Y-85201500D01*
X106342078Y-85246021D01*
X106131245Y-85333351D01*
X105955500Y-85450780D01*
X105955500Y-84729220D01*
X106131245Y-84846649D01*
X106342078Y-84933979D01*
X106565898Y-84978500D01*
X106794102Y-84978500D01*
X107017922Y-84933979D01*
X107228755Y-84846649D01*
X107418500Y-84719865D01*
X107579865Y-84558500D01*
X107706649Y-84368755D01*
X107793979Y-84157922D01*
X107795554Y-84150000D01*
X109159464Y-84150000D01*
X109171580Y-84273011D01*
X109207461Y-84391296D01*
X109265728Y-84500307D01*
X109344144Y-84595856D01*
X109439693Y-84674272D01*
X109548704Y-84732539D01*
X109666989Y-84768420D01*
X109790000Y-84780536D01*
X110198625Y-84777500D01*
X110355500Y-84620625D01*
X110355500Y-83709500D01*
X110624500Y-83709500D01*
X110624500Y-84620625D01*
X110781375Y-84777500D01*
X111190000Y-84780536D01*
X111313011Y-84768420D01*
X111431296Y-84732539D01*
X111540307Y-84674272D01*
X111635856Y-84595856D01*
X111714272Y-84500307D01*
X111772539Y-84391296D01*
X111808420Y-84273011D01*
X111820536Y-84150000D01*
X111817500Y-83866375D01*
X111660625Y-83709500D01*
X110624500Y-83709500D01*
X110355500Y-83709500D01*
X109319375Y-83709500D01*
X109162500Y-83866375D01*
X109159464Y-84150000D01*
X107795554Y-84150000D01*
X107838500Y-83934102D01*
X107838500Y-83705898D01*
X113141500Y-83705898D01*
X113141500Y-83934102D01*
X113186021Y-84157922D01*
X113273351Y-84368755D01*
X113400135Y-84558500D01*
X113561500Y-84719865D01*
X113751245Y-84846649D01*
X113962078Y-84933979D01*
X114185898Y-84978500D01*
X114414102Y-84978500D01*
X114637922Y-84933979D01*
X114848755Y-84846649D01*
X115038500Y-84719865D01*
X115199865Y-84558500D01*
X115326649Y-84368755D01*
X115413979Y-84157922D01*
X115458500Y-83934102D01*
X115458500Y-83705898D01*
X115413979Y-83482078D01*
X115326649Y-83271245D01*
X115199865Y-83081500D01*
X115038500Y-82920135D01*
X114848755Y-82793351D01*
X114637922Y-82706021D01*
X114414102Y-82661500D01*
X114185898Y-82661500D01*
X113962078Y-82706021D01*
X113751245Y-82793351D01*
X113561500Y-82920135D01*
X113400135Y-83081500D01*
X113273351Y-83271245D01*
X113186021Y-83482078D01*
X113141500Y-83705898D01*
X107838500Y-83705898D01*
X107793979Y-83482078D01*
X107706649Y-83271245D01*
X107579865Y-83081500D01*
X107418500Y-82920135D01*
X107228755Y-82793351D01*
X107017922Y-82706021D01*
X106794102Y-82661500D01*
X106565898Y-82661500D01*
X106342078Y-82706021D01*
X106131245Y-82793351D01*
X105955500Y-82910780D01*
X105955500Y-82189220D01*
X106131245Y-82306649D01*
X106342078Y-82393979D01*
X106565898Y-82438500D01*
X106794102Y-82438500D01*
X107017922Y-82393979D01*
X107228755Y-82306649D01*
X107418500Y-82179865D01*
X107579865Y-82018500D01*
X107706649Y-81828755D01*
X107793979Y-81617922D01*
X107838500Y-81394102D01*
X107838500Y-81165898D01*
X107793979Y-80942078D01*
X107706649Y-80731245D01*
X107579865Y-80541500D01*
X107418500Y-80380135D01*
X107228755Y-80253351D01*
X107017922Y-80166021D01*
X106794102Y-80121500D01*
X106565898Y-80121500D01*
X106342078Y-80166021D01*
X106131245Y-80253351D01*
X105955500Y-80370780D01*
X105955500Y-79649220D01*
X106131245Y-79766649D01*
X106342078Y-79853979D01*
X106565898Y-79898500D01*
X106794102Y-79898500D01*
X107017922Y-79853979D01*
X107228755Y-79766649D01*
X107418500Y-79639865D01*
X107579865Y-79478500D01*
X107706649Y-79288755D01*
X107793979Y-79077922D01*
X107838500Y-78854102D01*
X107838500Y-78625898D01*
X107793979Y-78402078D01*
X107706649Y-78191245D01*
X107579865Y-78001500D01*
X107418500Y-77840135D01*
X107228755Y-77713351D01*
X107017922Y-77626021D01*
X106794102Y-77581500D01*
X106565898Y-77581500D01*
X106342078Y-77626021D01*
X106131245Y-77713351D01*
X105955500Y-77830780D01*
X105955500Y-77109220D01*
X106131245Y-77226649D01*
X106342078Y-77313979D01*
X106565898Y-77358500D01*
X106794102Y-77358500D01*
X107017922Y-77313979D01*
X107083177Y-77286949D01*
X108101501Y-78305273D01*
X108101500Y-79093335D01*
X108090064Y-79110451D01*
X108047963Y-79212092D01*
X108026500Y-79319993D01*
X108026500Y-79430007D01*
X108047963Y-79537908D01*
X108090064Y-79639549D01*
X108151185Y-79731023D01*
X108228977Y-79808815D01*
X108320451Y-79869936D01*
X108422092Y-79912037D01*
X108529993Y-79933500D01*
X108640007Y-79933500D01*
X108747908Y-79912037D01*
X108849549Y-79869936D01*
X108941023Y-79808815D01*
X109018815Y-79731023D01*
X109079936Y-79639549D01*
X109122037Y-79537908D01*
X109143500Y-79430007D01*
X109143500Y-79319993D01*
X109122037Y-79212092D01*
X109079936Y-79110451D01*
X109068500Y-79093336D01*
X109068500Y-78644306D01*
X109164993Y-78663500D01*
X109275007Y-78663500D01*
X109381500Y-78642317D01*
X109381500Y-81579449D01*
X109397540Y-81742303D01*
X109429766Y-81848538D01*
X109429766Y-81850001D01*
X109441491Y-81969052D01*
X109476217Y-82083527D01*
X109532609Y-82189028D01*
X109608499Y-82281501D01*
X109700972Y-82357391D01*
X109733897Y-82374990D01*
X109666989Y-82381580D01*
X109548704Y-82417461D01*
X109439693Y-82475728D01*
X109344144Y-82554144D01*
X109265728Y-82649693D01*
X109207461Y-82758704D01*
X109171580Y-82876989D01*
X109159464Y-83000000D01*
X109162500Y-83283625D01*
X109319375Y-83440500D01*
X110355500Y-83440500D01*
X110355500Y-83420500D01*
X110624500Y-83420500D01*
X110624500Y-83440500D01*
X111660625Y-83440500D01*
X111817500Y-83283625D01*
X111820536Y-83000000D01*
X111808420Y-82876989D01*
X111772539Y-82758704D01*
X111714272Y-82649693D01*
X111635856Y-82554144D01*
X111540307Y-82475728D01*
X111431296Y-82417461D01*
X111313011Y-82381580D01*
X111246103Y-82374990D01*
X111279028Y-82357391D01*
X111371501Y-82281501D01*
X111447391Y-82189028D01*
X111503783Y-82083527D01*
X111538509Y-81969052D01*
X111550234Y-81850001D01*
X111550234Y-81848539D01*
X111582460Y-81742304D01*
X111598500Y-81579450D01*
X111598500Y-81165898D01*
X113141500Y-81165898D01*
X113141500Y-81394102D01*
X113186021Y-81617922D01*
X113273351Y-81828755D01*
X113400135Y-82018500D01*
X113561500Y-82179865D01*
X113751245Y-82306649D01*
X113962078Y-82393979D01*
X114185898Y-82438500D01*
X114414102Y-82438500D01*
X114637922Y-82393979D01*
X114848755Y-82306649D01*
X115038500Y-82179865D01*
X115199865Y-82018500D01*
X115326649Y-81828755D01*
X115413979Y-81617922D01*
X115458500Y-81394102D01*
X115458500Y-81165898D01*
X115413979Y-80942078D01*
X115326649Y-80731245D01*
X115199865Y-80541500D01*
X115038500Y-80380135D01*
X114848755Y-80253351D01*
X114637922Y-80166021D01*
X114414102Y-80121500D01*
X114185898Y-80121500D01*
X113962078Y-80166021D01*
X113751245Y-80253351D01*
X113561500Y-80380135D01*
X113400135Y-80541500D01*
X113273351Y-80731245D01*
X113186021Y-80942078D01*
X113141500Y-81165898D01*
X111598500Y-81165898D01*
X111598500Y-78625898D01*
X113141500Y-78625898D01*
X113141500Y-78854102D01*
X113186021Y-79077922D01*
X113273351Y-79288755D01*
X113400135Y-79478500D01*
X113561500Y-79639865D01*
X113751245Y-79766649D01*
X113962078Y-79853979D01*
X114185898Y-79898500D01*
X114414102Y-79898500D01*
X114637922Y-79853979D01*
X114848755Y-79766649D01*
X115038500Y-79639865D01*
X115199865Y-79478500D01*
X115326649Y-79288755D01*
X115413979Y-79077922D01*
X115458500Y-78854102D01*
X115458500Y-78625898D01*
X115413979Y-78402078D01*
X115326649Y-78191245D01*
X115199865Y-78001500D01*
X115038500Y-77840135D01*
X114848755Y-77713351D01*
X114637922Y-77626021D01*
X114414102Y-77581500D01*
X114185898Y-77581500D01*
X113962078Y-77626021D01*
X113751245Y-77713351D01*
X113561500Y-77840135D01*
X113400135Y-78001500D01*
X113273351Y-78191245D01*
X113186021Y-78402078D01*
X113141500Y-78625898D01*
X111598500Y-78625898D01*
X111598500Y-76085898D01*
X113141500Y-76085898D01*
X113141500Y-76314102D01*
X113186021Y-76537922D01*
X113273351Y-76748755D01*
X113400135Y-76938500D01*
X113561500Y-77099865D01*
X113751245Y-77226649D01*
X113962078Y-77313979D01*
X114185898Y-77358500D01*
X114414102Y-77358500D01*
X114637922Y-77313979D01*
X114848755Y-77226649D01*
X115038500Y-77099865D01*
X115199865Y-76938500D01*
X115326649Y-76748755D01*
X115413979Y-76537922D01*
X115458500Y-76314102D01*
X115458500Y-76085898D01*
X115413979Y-75862078D01*
X115326649Y-75651245D01*
X115199865Y-75461500D01*
X115038500Y-75300135D01*
X114848755Y-75173351D01*
X114637922Y-75086021D01*
X114414102Y-75041500D01*
X114185898Y-75041500D01*
X113962078Y-75086021D01*
X113751245Y-75173351D01*
X113561500Y-75300135D01*
X113400135Y-75461500D01*
X113273351Y-75651245D01*
X113186021Y-75862078D01*
X113141500Y-76085898D01*
X111598500Y-76085898D01*
X111598500Y-75389154D01*
X113153454Y-73834201D01*
X113186021Y-73997922D01*
X113273351Y-74208755D01*
X113400135Y-74398500D01*
X113561500Y-74559865D01*
X113751245Y-74686649D01*
X113962078Y-74773979D01*
X114185898Y-74818500D01*
X114414102Y-74818500D01*
X114637922Y-74773979D01*
X114848755Y-74686649D01*
X115038500Y-74559865D01*
X115199865Y-74398500D01*
X115326649Y-74208755D01*
X115413979Y-73997922D01*
X115458500Y-73774102D01*
X115458500Y-73545898D01*
X115413979Y-73322078D01*
X115326649Y-73111245D01*
X115199865Y-72921500D01*
X115038500Y-72760135D01*
X114848755Y-72633351D01*
X114637922Y-72546021D01*
X114474201Y-72513455D01*
X114835528Y-72152128D01*
X114848755Y-72146649D01*
X115038500Y-72019865D01*
X115199865Y-71858500D01*
X115326649Y-71668755D01*
X115413979Y-71457922D01*
X115458500Y-71234102D01*
X115458500Y-71005898D01*
X115413979Y-70782078D01*
X115326649Y-70571245D01*
X115209220Y-70395500D01*
X118961501Y-70395500D01*
X118961500Y-94704500D01*
G36*
X113273351Y-70571245D02*
G01*
X113267872Y-70584472D01*
X109744679Y-74107667D01*
X109702381Y-74142380D01*
X109647909Y-74208755D01*
X109563857Y-74311172D01*
X109460925Y-74503744D01*
X109397540Y-74712697D01*
X109376138Y-74930000D01*
X109381501Y-74984453D01*
X109381501Y-75677729D01*
X107766949Y-74063177D01*
X107793979Y-73997922D01*
X107838500Y-73774102D01*
X107838500Y-73545898D01*
X107793979Y-73322078D01*
X107706649Y-73111245D01*
X107579865Y-72921500D01*
X107418500Y-72760135D01*
X107228755Y-72633351D01*
X107017922Y-72546021D01*
X106794102Y-72501500D01*
X106565898Y-72501500D01*
X106342078Y-72546021D01*
X106131245Y-72633351D01*
X105955500Y-72750780D01*
X105955500Y-72280234D01*
X107480000Y-72280234D01*
X107550278Y-72273312D01*
X107617856Y-72252813D01*
X107680135Y-72219524D01*
X107734724Y-72174724D01*
X107779524Y-72120135D01*
X107812813Y-72057856D01*
X107833312Y-71990278D01*
X107840234Y-71920000D01*
X107840234Y-70395500D01*
X113390780Y-70395500D01*
X113273351Y-70571245D01*
G37*
X113273351Y-70571245D02*
X113267872Y-70584472D01*
X109744679Y-74107667D01*
X109702381Y-74142380D01*
X109647909Y-74208755D01*
X109563857Y-74311172D01*
X109460925Y-74503744D01*
X109397540Y-74712697D01*
X109376138Y-74930000D01*
X109381501Y-74984453D01*
X109381501Y-75677729D01*
X107766949Y-74063177D01*
X107793979Y-73997922D01*
X107838500Y-73774102D01*
X107838500Y-73545898D01*
X107793979Y-73322078D01*
X107706649Y-73111245D01*
X107579865Y-72921500D01*
X107418500Y-72760135D01*
X107228755Y-72633351D01*
X107017922Y-72546021D01*
X106794102Y-72501500D01*
X106565898Y-72501500D01*
X106342078Y-72546021D01*
X106131245Y-72633351D01*
X105955500Y-72750780D01*
X105955500Y-72280234D01*
X107480000Y-72280234D01*
X107550278Y-72273312D01*
X107617856Y-72252813D01*
X107680135Y-72219524D01*
X107734724Y-72174724D01*
X107779524Y-72120135D01*
X107812813Y-72057856D01*
X107833312Y-71990278D01*
X107840234Y-71920000D01*
X107840234Y-70395500D01*
X113390780Y-70395500D01*
X113273351Y-70571245D01*
M02*
