G04 #@! TF.GenerationSoftware,KiCad,Pcbnew,(5.1.5)-3*
G04 #@! TF.CreationDate,2020-06-23T05:32:50-04:00*
G04 #@! TF.ProjectId,dip20soic,64697032-3073-46f6-9963-2e6b69636164,rev?*
G04 #@! TF.SameCoordinates,Original*
G04 #@! TF.FileFunction,Legend,Top*
G04 #@! TF.FilePolarity,Positive*
%FSLAX46Y46*%
G04 Gerber Fmt 4.6, Leading zero omitted, Abs format (unit mm)*
G04 Created by KiCad (PCBNEW (5.1.5)-3) date 2020-06-23 05:32:50*
%MOMM*%
%LPD*%
G04 APERTURE LIST*
%ADD10C,0.120000*%
%ADD11C,0.150000*%
G04 APERTURE END LIST*
D10*
X111490000Y-69790000D02*
G75*
G02X109490000Y-69790000I-1000000J0D01*
G01*
X109490000Y-69790000D02*
X107840000Y-69790000D01*
X107840000Y-69790000D02*
X107840000Y-95310000D01*
X107840000Y-95310000D02*
X113140000Y-95310000D01*
X113140000Y-95310000D02*
X113140000Y-69790000D01*
X113140000Y-69790000D02*
X111490000Y-69790000D01*
X113489000Y-89060000D02*
X117349000Y-89060000D01*
X117349000Y-89060000D02*
X117349000Y-88825000D01*
X113489000Y-89060000D02*
X109629000Y-89060000D01*
X109629000Y-89060000D02*
X109629000Y-88825000D01*
X113489000Y-76040000D02*
X117349000Y-76040000D01*
X117349000Y-76040000D02*
X117349000Y-76275000D01*
X113489000Y-76040000D02*
X109629000Y-76040000D01*
X109629000Y-76040000D02*
X109629000Y-76275000D01*
X109629000Y-76275000D02*
X107814000Y-76275000D01*
D11*
X109728095Y-68242380D02*
X109728095Y-69051904D01*
X109775714Y-69147142D01*
X109823333Y-69194761D01*
X109918571Y-69242380D01*
X110109047Y-69242380D01*
X110204285Y-69194761D01*
X110251904Y-69147142D01*
X110299523Y-69051904D01*
X110299523Y-68242380D01*
X111299523Y-69242380D02*
X110728095Y-69242380D01*
X111013809Y-69242380D02*
X111013809Y-68242380D01*
X110918571Y-68385238D01*
X110823333Y-68480476D01*
X110728095Y-68528095D01*
X112727095Y-74652380D02*
X112727095Y-75461904D01*
X112774714Y-75557142D01*
X112822333Y-75604761D01*
X112917571Y-75652380D01*
X113108047Y-75652380D01*
X113203285Y-75604761D01*
X113250904Y-75557142D01*
X113298523Y-75461904D01*
X113298523Y-74652380D01*
X113727095Y-74747619D02*
X113774714Y-74700000D01*
X113869952Y-74652380D01*
X114108047Y-74652380D01*
X114203285Y-74700000D01*
X114250904Y-74747619D01*
X114298523Y-74842857D01*
X114298523Y-74938095D01*
X114250904Y-75080952D01*
X113679476Y-75652380D01*
X114298523Y-75652380D01*
M02*
