G04 #@! TF.GenerationSoftware,KiCad,Pcbnew,(5.1.5)-3*
G04 #@! TF.CreationDate,2020-07-23T01:10:48-04:00*
G04 #@! TF.ProjectId,74LS12,37344c53-3132-42e6-9b69-6361645f7063,rev?*
G04 #@! TF.SameCoordinates,Original*
G04 #@! TF.FileFunction,Legend,Top*
G04 #@! TF.FilePolarity,Positive*
%FSLAX46Y46*%
G04 Gerber Fmt 4.6, Leading zero omitted, Abs format (unit mm)*
G04 Created by KiCad (PCBNEW (5.1.5)-3) date 2020-07-23 01:10:48*
%MOMM*%
%LPD*%
G04 APERTURE LIST*
%ADD10C,0.120000*%
%ADD11C,0.150000*%
G04 APERTURE END LIST*
D10*
X125378501Y-76572001D02*
G75*
G02X123378501Y-76572001I-1000000J0D01*
G01*
X123378501Y-76572001D02*
X121728501Y-76572001D01*
X121728501Y-76572001D02*
X121728501Y-94472001D01*
X121728501Y-94472001D02*
X127028501Y-94472001D01*
X127028501Y-94472001D02*
X127028501Y-76572001D01*
X127028501Y-76572001D02*
X125378501Y-76572001D01*
D11*
X121390500Y-85383000D02*
X121515500Y-85383000D01*
X121390500Y-80733000D02*
X121615500Y-80733000D01*
X126640500Y-80733000D02*
X126415500Y-80733000D01*
X126640500Y-85383000D02*
X126415500Y-85383000D01*
X121390500Y-85383000D02*
X121390500Y-80733000D01*
X126640500Y-85383000D02*
X126640500Y-80733000D01*
X121515500Y-85383000D02*
X121515500Y-86733000D01*
X121565000Y-93319000D02*
X121690000Y-93319000D01*
X121565000Y-90069000D02*
X121790000Y-90069000D01*
X124815000Y-90069000D02*
X124590000Y-90069000D01*
X124815000Y-93319000D02*
X124590000Y-93319000D01*
X121565000Y-93319000D02*
X121565000Y-90069000D01*
X124815000Y-93319000D02*
X124815000Y-90069000D01*
X121690000Y-93319000D02*
X121690000Y-94394000D01*
X122017928Y-77747880D02*
X122617928Y-77747880D01*
X122232214Y-78747880D01*
X123346500Y-78081214D02*
X123346500Y-78747880D01*
X123132214Y-77700261D02*
X122917928Y-78414547D01*
X123475071Y-78414547D01*
X124246500Y-78747880D02*
X123817928Y-78747880D01*
X123817928Y-77747880D01*
X124503642Y-78700261D02*
X124632214Y-78747880D01*
X124846500Y-78747880D01*
X124932214Y-78700261D01*
X124975071Y-78652642D01*
X125017928Y-78557404D01*
X125017928Y-78462166D01*
X124975071Y-78366928D01*
X124932214Y-78319309D01*
X124846500Y-78271690D01*
X124675071Y-78224071D01*
X124589357Y-78176452D01*
X124546500Y-78128833D01*
X124503642Y-78033595D01*
X124503642Y-77938357D01*
X124546500Y-77843119D01*
X124589357Y-77795500D01*
X124675071Y-77747880D01*
X124889357Y-77747880D01*
X125017928Y-77795500D01*
X125875071Y-78747880D02*
X125360785Y-78747880D01*
X125617928Y-78747880D02*
X125617928Y-77747880D01*
X125532214Y-77890738D01*
X125446500Y-77985976D01*
X125360785Y-78033595D01*
X126217928Y-77843119D02*
X126260785Y-77795500D01*
X126346500Y-77747880D01*
X126560785Y-77747880D01*
X126646500Y-77795500D01*
X126689357Y-77843119D01*
X126732214Y-77938357D01*
X126732214Y-78033595D01*
X126689357Y-78176452D01*
X126175071Y-78747880D01*
X126732214Y-78747880D01*
X123616596Y-75024381D02*
X123616596Y-75833905D01*
X123664215Y-75929143D01*
X123711834Y-75976762D01*
X123807072Y-76024381D01*
X123997548Y-76024381D01*
X124092786Y-75976762D01*
X124140405Y-75929143D01*
X124188024Y-75833905D01*
X124188024Y-75024381D01*
X125188024Y-76024381D02*
X124616596Y-76024381D01*
X124902310Y-76024381D02*
X124902310Y-75024381D01*
X124807072Y-75167239D01*
X124711834Y-75262477D01*
X124616596Y-75310096D01*
X123467880Y-83819904D02*
X124277404Y-83819904D01*
X124372642Y-83772285D01*
X124420261Y-83724666D01*
X124467880Y-83629428D01*
X124467880Y-83438952D01*
X124420261Y-83343714D01*
X124372642Y-83296095D01*
X124277404Y-83248476D01*
X123467880Y-83248476D01*
X123563119Y-82819904D02*
X123515500Y-82772285D01*
X123467880Y-82677047D01*
X123467880Y-82438952D01*
X123515500Y-82343714D01*
X123563119Y-82296095D01*
X123658357Y-82248476D01*
X123753595Y-82248476D01*
X123896452Y-82296095D01*
X124467880Y-82867523D01*
X124467880Y-82248476D01*
X122642380Y-92455904D02*
X123451904Y-92455904D01*
X123547142Y-92408285D01*
X123594761Y-92360666D01*
X123642380Y-92265428D01*
X123642380Y-92074952D01*
X123594761Y-91979714D01*
X123547142Y-91932095D01*
X123451904Y-91884476D01*
X122642380Y-91884476D01*
X122642380Y-91503523D02*
X122642380Y-90884476D01*
X123023333Y-91217809D01*
X123023333Y-91074952D01*
X123070952Y-90979714D01*
X123118571Y-90932095D01*
X123213809Y-90884476D01*
X123451904Y-90884476D01*
X123547142Y-90932095D01*
X123594761Y-90979714D01*
X123642380Y-91074952D01*
X123642380Y-91360666D01*
X123594761Y-91455904D01*
X123547142Y-91503523D01*
M02*
