G04 #@! TF.GenerationSoftware,KiCad,Pcbnew,(5.1.5)-3*
G04 #@! TF.CreationDate,2020-07-23T01:10:48-04:00*
G04 #@! TF.ProjectId,74LS12,37344c53-3132-42e6-9b69-6361645f7063,rev?*
G04 #@! TF.SameCoordinates,Original*
G04 #@! TF.FileFunction,Copper,L1,Top*
G04 #@! TF.FilePolarity,Positive*
%FSLAX46Y46*%
G04 Gerber Fmt 4.6, Leading zero omitted, Abs format (unit mm)*
G04 Created by KiCad (PCBNEW (5.1.5)-3) date 2020-07-23 01:10:48*
%MOMM*%
%LPD*%
G04 APERTURE LIST*
%ADD10R,1.600000X1.600000*%
%ADD11O,1.600000X1.600000*%
%ADD12R,0.450000X1.450000*%
%ADD13R,0.400000X1.100000*%
%ADD14C,0.350000*%
%ADD15C,0.439000*%
%ADD16C,0.425000*%
%ADD17C,0.880000*%
%ADD18C,0.288000*%
G04 APERTURE END LIST*
D10*
X120568501Y-77902001D03*
D11*
X128188501Y-93142001D03*
X120568501Y-80442001D03*
X128188501Y-90602001D03*
X120568501Y-82982001D03*
X128188501Y-88062001D03*
X120568501Y-85522001D03*
X128188501Y-85522001D03*
X120568501Y-88062001D03*
X128188501Y-82982001D03*
X120568501Y-90602001D03*
X128188501Y-80442001D03*
X120568501Y-93142001D03*
X128188501Y-77902001D03*
D12*
X122065500Y-86008000D03*
X122715500Y-86008000D03*
X123365500Y-86008000D03*
X124015500Y-86008000D03*
X124665500Y-86008000D03*
X125315500Y-86008000D03*
X125965500Y-86008000D03*
X125965500Y-80108000D03*
X125315500Y-80108000D03*
X124665500Y-80108000D03*
X124015500Y-80108000D03*
X123365500Y-80108000D03*
X122715500Y-80108000D03*
X122065500Y-80108000D03*
D13*
X122215000Y-93844000D03*
X122865000Y-93844000D03*
X123515000Y-93844000D03*
X124165000Y-93844000D03*
X124165000Y-89544000D03*
X123515000Y-89544000D03*
X122865000Y-89544000D03*
X122215000Y-89544000D03*
D14*
X122110500Y-93408500D03*
X124333000Y-93408500D03*
X122063000Y-89392000D03*
X123376490Y-78740000D03*
X125958600Y-86855300D03*
X126111000Y-76962000D03*
X122428000Y-83693000D03*
X121693502Y-81696998D03*
X126873000Y-79629000D03*
X123634500Y-88328500D03*
X121793000Y-91948000D03*
X122618500Y-76962000D03*
X122936000Y-88582500D03*
X125476000Y-87376000D03*
X123888500Y-91694000D03*
X126346500Y-82087000D03*
X125476000Y-82550000D03*
X124714000Y-90741500D03*
D15*
X122269500Y-78740000D02*
X122759398Y-78740000D01*
X122065500Y-78944000D02*
X122269500Y-78740000D01*
X122065500Y-80108000D02*
X122065500Y-78944000D01*
D16*
X122063000Y-89392000D02*
X122215000Y-89544000D01*
D15*
X122759398Y-78740000D02*
X123376490Y-78740000D01*
X123376490Y-78740000D02*
X123376490Y-78740000D01*
D16*
X125965500Y-86061000D02*
X125984000Y-86079500D01*
X125965500Y-86008000D02*
X125965500Y-86061000D01*
X125958600Y-86079500D02*
X125958600Y-86804500D01*
X125958600Y-86804500D02*
X125958600Y-86855300D01*
D15*
X124165000Y-93576500D02*
X124333000Y-93408500D01*
X124165000Y-93844000D02*
X124165000Y-93576500D01*
D17*
X120568501Y-93142001D02*
X121762502Y-91948000D01*
D15*
X121807501Y-77902001D02*
X120568501Y-77902001D01*
D16*
X124015500Y-78671898D02*
X124015500Y-80108000D01*
D15*
X121807501Y-77902001D02*
X121932499Y-77902001D01*
X124015500Y-78475314D02*
X124015500Y-78671898D01*
X123442187Y-77902001D02*
X124015500Y-78475314D01*
X121807501Y-77902001D02*
X123442187Y-77902001D01*
X124804000Y-89544000D02*
X125176000Y-89916000D01*
X124165000Y-89544000D02*
X124804000Y-89544000D01*
X125176000Y-89916000D02*
X125304912Y-89916000D01*
X125304912Y-89916000D02*
X127400412Y-92011500D01*
X127388502Y-92342002D02*
X128188501Y-93142001D01*
X127388502Y-92023410D02*
X127388502Y-92342002D01*
X127400412Y-92011500D02*
X127388502Y-92023410D01*
X123444000Y-76962000D02*
X122618500Y-76962000D01*
X122618500Y-76962000D02*
X122618500Y-76962000D01*
X124665500Y-80108000D02*
X124665500Y-78714203D01*
X124665500Y-78183500D02*
X124665500Y-78714203D01*
X123444000Y-76962000D02*
X124665500Y-78183500D01*
D16*
X127559001Y-90602001D02*
X128188501Y-90602001D01*
X127317499Y-90360500D02*
X127947000Y-90360500D01*
X127947000Y-90360500D02*
X128188501Y-90602001D01*
D15*
X126653108Y-90360500D02*
X127317499Y-90360500D01*
X124015500Y-87722892D02*
X126653108Y-90360500D01*
X124015500Y-86008000D02*
X124015500Y-87722892D01*
X121699871Y-82982001D02*
X120568501Y-82982001D01*
X122715500Y-81966372D02*
X121699871Y-82982001D01*
X122715500Y-80108000D02*
X122715500Y-81966372D01*
D16*
X124665500Y-86008000D02*
X124665500Y-87158000D01*
X128188501Y-88663999D02*
X128188501Y-88062001D01*
D15*
X124676491Y-87274991D02*
X124676491Y-87480187D01*
X124665500Y-87158000D02*
X124665500Y-87264000D01*
X124665500Y-87264000D02*
X124676491Y-87274991D01*
X125258305Y-88062001D02*
X128188501Y-88062001D01*
X124676491Y-87480187D02*
X125258305Y-88062001D01*
D16*
X122065500Y-86008000D02*
X122065500Y-84944500D01*
X122065500Y-84944500D02*
X121856500Y-84735500D01*
X121856500Y-84735500D02*
X121258500Y-84735500D01*
X120568501Y-85425499D02*
X120568501Y-85522001D01*
X121258500Y-84735500D02*
X120568501Y-85425499D01*
D15*
X125964000Y-78676500D02*
X127190500Y-78676500D01*
X127190500Y-78676500D02*
X128016000Y-79502000D01*
X128016000Y-80269500D02*
X128188501Y-80442001D01*
X128016000Y-79502000D02*
X128016000Y-80269500D01*
X127185000Y-84518500D02*
X128188501Y-85522001D01*
X124206000Y-84518500D02*
X127185000Y-84518500D01*
D16*
X123812498Y-84518500D02*
X124206000Y-84518500D01*
X123365500Y-84965498D02*
X123812498Y-84518500D01*
X123365500Y-86008000D02*
X123365500Y-84965498D01*
D15*
X120725999Y-88062001D02*
X120568501Y-88062001D01*
X121348500Y-87439500D02*
X120725999Y-88062001D01*
D16*
X122715500Y-87050502D02*
X122453502Y-87312500D01*
X122715500Y-86008000D02*
X122715500Y-87050502D01*
X121475500Y-87312500D02*
X121348500Y-87439500D01*
X122453502Y-87312500D02*
X121475500Y-87312500D01*
D15*
X122865000Y-89544000D02*
X122865000Y-88653500D01*
X122865000Y-88653500D02*
X122936000Y-88582500D01*
X122936000Y-88582500D02*
X122936000Y-88582500D01*
D16*
X122865000Y-92869000D02*
X122872500Y-92861500D01*
X122865000Y-93844000D02*
X122865000Y-92869000D01*
X122872500Y-92861500D02*
X122872500Y-91440000D01*
X122034501Y-90602001D02*
X120568501Y-90602001D01*
X122872500Y-91440000D02*
X122034501Y-90602001D01*
X125315500Y-78958000D02*
X125597000Y-78676500D01*
X125597000Y-78676500D02*
X125964000Y-78676500D01*
X125315500Y-80108000D02*
X125315500Y-78958000D01*
X125315500Y-86008000D02*
X125315500Y-87158000D01*
D18*
X125315500Y-87158000D02*
X125315500Y-87215500D01*
D15*
X125315500Y-87215500D02*
X125476000Y-87376000D01*
D18*
X125476000Y-87376000D02*
X125412500Y-87312500D01*
X125476000Y-87376000D02*
X125476000Y-87376000D01*
D15*
X123515000Y-93352500D02*
X123507500Y-93345000D01*
X123515000Y-93844000D02*
X123515000Y-93352500D01*
X123507500Y-93345000D02*
X123507500Y-92075000D01*
X123507500Y-92075000D02*
X123888500Y-91694000D01*
X123888500Y-91694000D02*
X123888500Y-91694000D01*
X126346500Y-82087000D02*
X126346500Y-82087000D01*
X122215000Y-93513000D02*
X122110500Y-93408500D01*
X122215000Y-93844000D02*
X122215000Y-93513000D01*
X125965500Y-81706000D02*
X126346500Y-82087000D01*
X125965500Y-80108000D02*
X125965500Y-81706000D01*
X125001500Y-82550000D02*
X125476000Y-82550000D01*
X125476000Y-82550000D02*
X125476000Y-82550000D01*
X123525990Y-90410092D02*
X123857398Y-90741500D01*
X123525990Y-89553490D02*
X123525990Y-90410092D01*
X123515000Y-89544000D02*
X123516500Y-89544000D01*
X123516500Y-89544000D02*
X123525990Y-89553490D01*
X123857398Y-90741500D02*
X124714000Y-90741500D01*
X124714000Y-90741500D02*
X124714000Y-90741500D01*
X124643500Y-82550000D02*
X125001500Y-82550000D01*
X123365500Y-81272000D02*
X124643500Y-82550000D01*
X123365500Y-80108000D02*
X123365500Y-81272000D01*
D18*
G36*
X126737002Y-92269450D02*
G01*
X126737002Y-92310002D01*
X126733850Y-92342002D01*
X126737002Y-92374002D01*
X126737002Y-92374005D01*
X126746429Y-92469718D01*
X126783682Y-92592526D01*
X126844179Y-92705707D01*
X126925594Y-92804911D01*
X126950453Y-92825312D01*
X126987908Y-92862767D01*
X126956501Y-93020660D01*
X126956501Y-93263342D01*
X127003846Y-93501362D01*
X127096717Y-93725572D01*
X127231544Y-93927355D01*
X127403147Y-94098958D01*
X127586544Y-94221500D01*
X125018206Y-94221500D01*
X125017000Y-94117000D01*
X124854000Y-93954000D01*
X124221000Y-93954000D01*
X124221000Y-93974000D01*
X124156380Y-93974000D01*
X124157073Y-93971716D01*
X124166500Y-93876003D01*
X124166500Y-93384503D01*
X124169652Y-93352500D01*
X124163890Y-93294000D01*
X124159000Y-93244349D01*
X124159000Y-92805000D01*
X124221000Y-92805000D01*
X124221000Y-93734000D01*
X124854000Y-93734000D01*
X125017000Y-93571000D01*
X125020116Y-93301105D01*
X125008915Y-93173161D01*
X124972968Y-93049862D01*
X124913657Y-92935944D01*
X124833261Y-92835786D01*
X124734870Y-92753238D01*
X124622266Y-92691470D01*
X124499775Y-92652857D01*
X124384000Y-92642000D01*
X124221000Y-92805000D01*
X124159000Y-92805000D01*
X124159000Y-92344859D01*
X124326544Y-92177315D01*
X124351409Y-92156909D01*
X124432823Y-92057705D01*
X124493320Y-91944524D01*
X124530573Y-91821716D01*
X124543152Y-91694000D01*
X124530573Y-91566284D01*
X124493320Y-91443476D01*
X124466340Y-91393000D01*
X124746003Y-91393000D01*
X124841716Y-91383573D01*
X124964524Y-91346320D01*
X125077705Y-91285823D01*
X125176909Y-91204409D01*
X125258323Y-91105205D01*
X125318820Y-90992024D01*
X125351580Y-90884027D01*
X126737002Y-92269450D01*
G37*
X126737002Y-92269450D02*
X126737002Y-92310002D01*
X126733850Y-92342002D01*
X126737002Y-92374002D01*
X126737002Y-92374005D01*
X126746429Y-92469718D01*
X126783682Y-92592526D01*
X126844179Y-92705707D01*
X126925594Y-92804911D01*
X126950453Y-92825312D01*
X126987908Y-92862767D01*
X126956501Y-93020660D01*
X126956501Y-93263342D01*
X127003846Y-93501362D01*
X127096717Y-93725572D01*
X127231544Y-93927355D01*
X127403147Y-94098958D01*
X127586544Y-94221500D01*
X125018206Y-94221500D01*
X125017000Y-94117000D01*
X124854000Y-93954000D01*
X124221000Y-93954000D01*
X124221000Y-93974000D01*
X124156380Y-93974000D01*
X124157073Y-93971716D01*
X124166500Y-93876003D01*
X124166500Y-93384503D01*
X124169652Y-93352500D01*
X124163890Y-93294000D01*
X124159000Y-93244349D01*
X124159000Y-92805000D01*
X124221000Y-92805000D01*
X124221000Y-93734000D01*
X124854000Y-93734000D01*
X125017000Y-93571000D01*
X125020116Y-93301105D01*
X125008915Y-93173161D01*
X124972968Y-93049862D01*
X124913657Y-92935944D01*
X124833261Y-92835786D01*
X124734870Y-92753238D01*
X124622266Y-92691470D01*
X124499775Y-92652857D01*
X124384000Y-92642000D01*
X124221000Y-92805000D01*
X124159000Y-92805000D01*
X124159000Y-92344859D01*
X124326544Y-92177315D01*
X124351409Y-92156909D01*
X124432823Y-92057705D01*
X124493320Y-91944524D01*
X124530573Y-91821716D01*
X124543152Y-91694000D01*
X124530573Y-91566284D01*
X124493320Y-91443476D01*
X124466340Y-91393000D01*
X124746003Y-91393000D01*
X124841716Y-91383573D01*
X124964524Y-91346320D01*
X125077705Y-91285823D01*
X125176909Y-91204409D01*
X125258323Y-91105205D01*
X125318820Y-90992024D01*
X125351580Y-90884027D01*
X126737002Y-92269450D01*
G36*
X120678501Y-93032001D02*
G01*
X120698501Y-93032001D01*
X120698501Y-93252001D01*
X120678501Y-93252001D01*
X120678501Y-93272001D01*
X120458501Y-93272001D01*
X120458501Y-93252001D01*
X120438501Y-93252001D01*
X120438501Y-93032001D01*
X120458501Y-93032001D01*
X120458501Y-93012001D01*
X120678501Y-93012001D01*
X120678501Y-93032001D01*
G37*
X120678501Y-93032001D02*
X120698501Y-93032001D01*
X120698501Y-93252001D01*
X120678501Y-93252001D01*
X120678501Y-93272001D01*
X120458501Y-93272001D01*
X120458501Y-93252001D01*
X120438501Y-93252001D01*
X120438501Y-93032001D01*
X120458501Y-93032001D01*
X120458501Y-93012001D01*
X120678501Y-93012001D01*
X120678501Y-93032001D01*
G36*
X122228001Y-91706962D02*
G01*
X122228000Y-92761196D01*
X122227588Y-92765381D01*
X122110500Y-92753848D01*
X121982784Y-92766428D01*
X121970189Y-92770249D01*
X121929392Y-92635748D01*
X121804478Y-92379979D01*
X121632066Y-92153494D01*
X121418782Y-91964997D01*
X121172822Y-91821731D01*
X120992678Y-91759808D01*
X121152072Y-91693785D01*
X121353855Y-91558958D01*
X121525458Y-91387355D01*
X121619574Y-91246501D01*
X121767541Y-91246501D01*
X122228001Y-91706962D01*
G37*
X122228001Y-91706962D02*
X122228000Y-92761196D01*
X122227588Y-92765381D01*
X122110500Y-92753848D01*
X121982784Y-92766428D01*
X121970189Y-92770249D01*
X121929392Y-92635748D01*
X121804478Y-92379979D01*
X121632066Y-92153494D01*
X121418782Y-91964997D01*
X121172822Y-91821731D01*
X120992678Y-91759808D01*
X121152072Y-91693785D01*
X121353855Y-91558958D01*
X121525458Y-91387355D01*
X121619574Y-91246501D01*
X121767541Y-91246501D01*
X122228001Y-91706962D01*
G36*
X123364001Y-87690882D02*
G01*
X123360848Y-87722892D01*
X123373428Y-87850608D01*
X123410681Y-87973417D01*
X123471177Y-88086597D01*
X123510769Y-88134839D01*
X123552592Y-88185801D01*
X123577451Y-88206202D01*
X123934193Y-88562944D01*
X123880313Y-88568251D01*
X123840000Y-88580480D01*
X123799687Y-88568251D01*
X123715000Y-88559910D01*
X123588427Y-88559910D01*
X123578073Y-88454784D01*
X123540820Y-88331976D01*
X123480323Y-88218795D01*
X123398909Y-88119591D01*
X123299705Y-88038177D01*
X123186524Y-87977680D01*
X123063716Y-87940427D01*
X122968003Y-87931000D01*
X122967999Y-87931000D01*
X122935999Y-87927848D01*
X122903999Y-87931000D01*
X122903997Y-87931000D01*
X122808284Y-87940427D01*
X122685476Y-87977680D01*
X122572295Y-88038177D01*
X122473091Y-88119591D01*
X122452685Y-88144456D01*
X122426952Y-88170189D01*
X122402092Y-88190591D01*
X122381691Y-88215450D01*
X122320677Y-88289795D01*
X122260181Y-88402975D01*
X122253286Y-88425706D01*
X122222928Y-88525784D01*
X122219566Y-88559910D01*
X122015000Y-88559910D01*
X121930313Y-88568251D01*
X121848881Y-88592953D01*
X121773833Y-88633067D01*
X121708052Y-88687052D01*
X121654067Y-88752833D01*
X121613953Y-88827881D01*
X121589251Y-88909313D01*
X121584324Y-88959338D01*
X121524526Y-89032203D01*
X121464679Y-89144168D01*
X121427826Y-89265656D01*
X121415383Y-89392000D01*
X121427826Y-89518344D01*
X121464679Y-89639832D01*
X121524526Y-89751797D01*
X121580910Y-89820501D01*
X121580910Y-89899637D01*
X121525458Y-89816647D01*
X121353855Y-89645044D01*
X121152072Y-89510217D01*
X120927862Y-89417346D01*
X120689842Y-89370001D01*
X120447160Y-89370001D01*
X120209140Y-89417346D01*
X119984930Y-89510217D01*
X119964000Y-89524202D01*
X119964000Y-89139800D01*
X119984930Y-89153785D01*
X120209140Y-89246656D01*
X120447160Y-89294001D01*
X120689842Y-89294001D01*
X120927862Y-89246656D01*
X121152072Y-89153785D01*
X121353855Y-89018958D01*
X121525458Y-88847355D01*
X121660285Y-88645572D01*
X121753156Y-88421362D01*
X121800501Y-88183342D01*
X121800501Y-87957000D01*
X122421853Y-87957000D01*
X122453502Y-87960117D01*
X122485151Y-87957000D01*
X122485159Y-87957000D01*
X122579846Y-87947674D01*
X122701335Y-87910821D01*
X122813299Y-87850975D01*
X122911437Y-87770435D01*
X122931620Y-87745842D01*
X123148842Y-87528620D01*
X123173435Y-87508437D01*
X123253975Y-87410299D01*
X123313821Y-87298335D01*
X123329004Y-87248283D01*
X123350674Y-87176847D01*
X123351635Y-87167090D01*
X123364001Y-87167090D01*
X123364001Y-87690882D01*
G37*
X123364001Y-87690882D02*
X123360848Y-87722892D01*
X123373428Y-87850608D01*
X123410681Y-87973417D01*
X123471177Y-88086597D01*
X123510769Y-88134839D01*
X123552592Y-88185801D01*
X123577451Y-88206202D01*
X123934193Y-88562944D01*
X123880313Y-88568251D01*
X123840000Y-88580480D01*
X123799687Y-88568251D01*
X123715000Y-88559910D01*
X123588427Y-88559910D01*
X123578073Y-88454784D01*
X123540820Y-88331976D01*
X123480323Y-88218795D01*
X123398909Y-88119591D01*
X123299705Y-88038177D01*
X123186524Y-87977680D01*
X123063716Y-87940427D01*
X122968003Y-87931000D01*
X122967999Y-87931000D01*
X122935999Y-87927848D01*
X122903999Y-87931000D01*
X122903997Y-87931000D01*
X122808284Y-87940427D01*
X122685476Y-87977680D01*
X122572295Y-88038177D01*
X122473091Y-88119591D01*
X122452685Y-88144456D01*
X122426952Y-88170189D01*
X122402092Y-88190591D01*
X122381691Y-88215450D01*
X122320677Y-88289795D01*
X122260181Y-88402975D01*
X122253286Y-88425706D01*
X122222928Y-88525784D01*
X122219566Y-88559910D01*
X122015000Y-88559910D01*
X121930313Y-88568251D01*
X121848881Y-88592953D01*
X121773833Y-88633067D01*
X121708052Y-88687052D01*
X121654067Y-88752833D01*
X121613953Y-88827881D01*
X121589251Y-88909313D01*
X121584324Y-88959338D01*
X121524526Y-89032203D01*
X121464679Y-89144168D01*
X121427826Y-89265656D01*
X121415383Y-89392000D01*
X121427826Y-89518344D01*
X121464679Y-89639832D01*
X121524526Y-89751797D01*
X121580910Y-89820501D01*
X121580910Y-89899637D01*
X121525458Y-89816647D01*
X121353855Y-89645044D01*
X121152072Y-89510217D01*
X120927862Y-89417346D01*
X120689842Y-89370001D01*
X120447160Y-89370001D01*
X120209140Y-89417346D01*
X119984930Y-89510217D01*
X119964000Y-89524202D01*
X119964000Y-89139800D01*
X119984930Y-89153785D01*
X120209140Y-89246656D01*
X120447160Y-89294001D01*
X120689842Y-89294001D01*
X120927862Y-89246656D01*
X121152072Y-89153785D01*
X121353855Y-89018958D01*
X121525458Y-88847355D01*
X121660285Y-88645572D01*
X121753156Y-88421362D01*
X121800501Y-88183342D01*
X121800501Y-87957000D01*
X122421853Y-87957000D01*
X122453502Y-87960117D01*
X122485151Y-87957000D01*
X122485159Y-87957000D01*
X122579846Y-87947674D01*
X122701335Y-87910821D01*
X122813299Y-87850975D01*
X122911437Y-87770435D01*
X122931620Y-87745842D01*
X123148842Y-87528620D01*
X123173435Y-87508437D01*
X123253975Y-87410299D01*
X123313821Y-87298335D01*
X123329004Y-87248283D01*
X123350674Y-87176847D01*
X123351635Y-87167090D01*
X123364001Y-87167090D01*
X123364001Y-87690882D01*
G36*
X126987908Y-85242767D02*
G01*
X126956501Y-85400660D01*
X126956501Y-85643342D01*
X127003846Y-85881362D01*
X127096717Y-86105572D01*
X127231544Y-86307355D01*
X127403147Y-86478958D01*
X127604930Y-86613785D01*
X127829140Y-86706656D01*
X128067160Y-86754001D01*
X128309842Y-86754001D01*
X128547862Y-86706656D01*
X128772072Y-86613785D01*
X128829001Y-86575747D01*
X128829001Y-87008255D01*
X128772072Y-86970217D01*
X128547862Y-86877346D01*
X128309842Y-86830001D01*
X128067160Y-86830001D01*
X127829140Y-86877346D01*
X127604930Y-86970217D01*
X127403147Y-87105044D01*
X127231544Y-87276647D01*
X127142106Y-87410501D01*
X126127253Y-87410501D01*
X126130651Y-87375999D01*
X126123020Y-87298520D01*
X126209500Y-87385000D01*
X126324117Y-87374385D01*
X126446678Y-87335993D01*
X126559393Y-87274429D01*
X126657933Y-87192058D01*
X126738509Y-87092046D01*
X126798026Y-86978236D01*
X126834195Y-86855001D01*
X126845628Y-86727078D01*
X126842500Y-86281000D01*
X126679500Y-86118000D01*
X126046500Y-86118000D01*
X126046500Y-86138000D01*
X125974590Y-86138000D01*
X125974590Y-85878000D01*
X126046500Y-85878000D01*
X126046500Y-85898000D01*
X126679500Y-85898000D01*
X126842500Y-85735000D01*
X126845628Y-85288922D01*
X126834999Y-85170000D01*
X126915141Y-85170000D01*
X126987908Y-85242767D01*
G37*
X126987908Y-85242767D02*
X126956501Y-85400660D01*
X126956501Y-85643342D01*
X127003846Y-85881362D01*
X127096717Y-86105572D01*
X127231544Y-86307355D01*
X127403147Y-86478958D01*
X127604930Y-86613785D01*
X127829140Y-86706656D01*
X128067160Y-86754001D01*
X128309842Y-86754001D01*
X128547862Y-86706656D01*
X128772072Y-86613785D01*
X128829001Y-86575747D01*
X128829001Y-87008255D01*
X128772072Y-86970217D01*
X128547862Y-86877346D01*
X128309842Y-86830001D01*
X128067160Y-86830001D01*
X127829140Y-86877346D01*
X127604930Y-86970217D01*
X127403147Y-87105044D01*
X127231544Y-87276647D01*
X127142106Y-87410501D01*
X126127253Y-87410501D01*
X126130651Y-87375999D01*
X126123020Y-87298520D01*
X126209500Y-87385000D01*
X126324117Y-87374385D01*
X126446678Y-87335993D01*
X126559393Y-87274429D01*
X126657933Y-87192058D01*
X126738509Y-87092046D01*
X126798026Y-86978236D01*
X126834195Y-86855001D01*
X126845628Y-86727078D01*
X126842500Y-86281000D01*
X126679500Y-86118000D01*
X126046500Y-86118000D01*
X126046500Y-86138000D01*
X125974590Y-86138000D01*
X125974590Y-85878000D01*
X126046500Y-85878000D01*
X126046500Y-85898000D01*
X126679500Y-85898000D01*
X126842500Y-85735000D01*
X126845628Y-85288922D01*
X126834999Y-85170000D01*
X126915141Y-85170000D01*
X126987908Y-85242767D01*
G36*
X127240416Y-79647775D02*
G01*
X127231544Y-79656647D01*
X127096717Y-79858430D01*
X127003846Y-80082640D01*
X126956501Y-80320660D01*
X126956501Y-80563342D01*
X127003846Y-80801362D01*
X127096717Y-81025572D01*
X127231544Y-81227355D01*
X127403147Y-81398958D01*
X127604930Y-81533785D01*
X127829140Y-81626656D01*
X128067160Y-81674001D01*
X128309842Y-81674001D01*
X128547862Y-81626656D01*
X128772072Y-81533785D01*
X128829000Y-81495747D01*
X128829000Y-81928255D01*
X128772072Y-81890217D01*
X128547862Y-81797346D01*
X128309842Y-81750001D01*
X128067160Y-81750001D01*
X127829140Y-81797346D01*
X127604930Y-81890217D01*
X127403147Y-82025044D01*
X127231544Y-82196647D01*
X127096717Y-82398430D01*
X127003846Y-82622640D01*
X126956501Y-82860660D01*
X126956501Y-83103342D01*
X127003846Y-83341362D01*
X127096717Y-83565572D01*
X127231544Y-83767355D01*
X127352764Y-83888575D01*
X127312716Y-83876427D01*
X127217003Y-83867000D01*
X127217000Y-83867000D01*
X127185000Y-83863848D01*
X127153000Y-83867000D01*
X124173997Y-83867000D01*
X124102926Y-83874000D01*
X123844155Y-83874000D01*
X123812498Y-83870882D01*
X123686153Y-83883326D01*
X123586089Y-83913680D01*
X123564665Y-83920179D01*
X123452701Y-83980025D01*
X123354563Y-84060565D01*
X123334384Y-84085153D01*
X122932153Y-84487385D01*
X122907566Y-84507563D01*
X122887388Y-84532150D01*
X122887385Y-84532153D01*
X122827026Y-84605701D01*
X122767179Y-84717666D01*
X122730326Y-84839154D01*
X122729365Y-84848910D01*
X122703703Y-84848910D01*
X122700674Y-84818155D01*
X122670191Y-84717666D01*
X122663821Y-84696667D01*
X122603975Y-84584703D01*
X122523435Y-84486565D01*
X122498842Y-84466382D01*
X122334618Y-84302158D01*
X122314435Y-84277565D01*
X122216297Y-84197025D01*
X122104333Y-84137179D01*
X121982844Y-84100326D01*
X121888157Y-84091000D01*
X121888149Y-84091000D01*
X121856500Y-84087883D01*
X121824851Y-84091000D01*
X121290149Y-84091000D01*
X121258500Y-84087883D01*
X121226850Y-84091000D01*
X121226843Y-84091000D01*
X121143580Y-84099201D01*
X121132155Y-84100326D01*
X121010667Y-84137179D01*
X120898703Y-84197025D01*
X120800565Y-84277565D01*
X120780386Y-84302153D01*
X120775500Y-84307039D01*
X120689842Y-84290001D01*
X120447160Y-84290001D01*
X120209140Y-84337346D01*
X119984930Y-84430217D01*
X119964000Y-84444202D01*
X119964000Y-84059800D01*
X119984930Y-84073785D01*
X120209140Y-84166656D01*
X120447160Y-84214001D01*
X120689842Y-84214001D01*
X120927862Y-84166656D01*
X121152072Y-84073785D01*
X121353855Y-83938958D01*
X121525458Y-83767355D01*
X121614896Y-83633501D01*
X121667871Y-83633501D01*
X121699871Y-83636653D01*
X121731871Y-83633501D01*
X121731874Y-83633501D01*
X121827587Y-83624074D01*
X121950395Y-83586821D01*
X122063576Y-83526324D01*
X122162780Y-83444910D01*
X122183186Y-83420045D01*
X123153549Y-82449683D01*
X123178409Y-82429281D01*
X123259823Y-82330077D01*
X123320320Y-82216896D01*
X123336313Y-82164173D01*
X124160189Y-82988049D01*
X124180591Y-83012909D01*
X124205449Y-83033309D01*
X124279794Y-83094323D01*
X124353413Y-83133673D01*
X124392976Y-83154820D01*
X124515784Y-83192073D01*
X124611497Y-83201500D01*
X124611500Y-83201500D01*
X124643500Y-83204652D01*
X124675500Y-83201500D01*
X125508003Y-83201500D01*
X125603716Y-83192073D01*
X125726524Y-83154820D01*
X125839705Y-83094323D01*
X125938909Y-83012909D01*
X126020323Y-82913705D01*
X126080820Y-82800524D01*
X126112293Y-82696770D01*
X126218784Y-82729073D01*
X126314497Y-82738500D01*
X126314507Y-82738500D01*
X126346499Y-82741651D01*
X126378491Y-82738500D01*
X126378503Y-82738500D01*
X126474216Y-82729073D01*
X126597024Y-82691820D01*
X126710205Y-82631323D01*
X126809409Y-82549909D01*
X126890823Y-82450705D01*
X126951320Y-82337524D01*
X126988573Y-82214716D01*
X127001152Y-82087000D01*
X126988573Y-81959284D01*
X126951320Y-81836476D01*
X126890823Y-81723295D01*
X126809409Y-81624091D01*
X126784544Y-81603685D01*
X126617000Y-81436141D01*
X126617000Y-80910062D01*
X126624590Y-80833000D01*
X126624590Y-79383000D01*
X126619173Y-79328000D01*
X126920641Y-79328000D01*
X127240416Y-79647775D01*
G37*
X127240416Y-79647775D02*
X127231544Y-79656647D01*
X127096717Y-79858430D01*
X127003846Y-80082640D01*
X126956501Y-80320660D01*
X126956501Y-80563342D01*
X127003846Y-80801362D01*
X127096717Y-81025572D01*
X127231544Y-81227355D01*
X127403147Y-81398958D01*
X127604930Y-81533785D01*
X127829140Y-81626656D01*
X128067160Y-81674001D01*
X128309842Y-81674001D01*
X128547862Y-81626656D01*
X128772072Y-81533785D01*
X128829000Y-81495747D01*
X128829000Y-81928255D01*
X128772072Y-81890217D01*
X128547862Y-81797346D01*
X128309842Y-81750001D01*
X128067160Y-81750001D01*
X127829140Y-81797346D01*
X127604930Y-81890217D01*
X127403147Y-82025044D01*
X127231544Y-82196647D01*
X127096717Y-82398430D01*
X127003846Y-82622640D01*
X126956501Y-82860660D01*
X126956501Y-83103342D01*
X127003846Y-83341362D01*
X127096717Y-83565572D01*
X127231544Y-83767355D01*
X127352764Y-83888575D01*
X127312716Y-83876427D01*
X127217003Y-83867000D01*
X127217000Y-83867000D01*
X127185000Y-83863848D01*
X127153000Y-83867000D01*
X124173997Y-83867000D01*
X124102926Y-83874000D01*
X123844155Y-83874000D01*
X123812498Y-83870882D01*
X123686153Y-83883326D01*
X123586089Y-83913680D01*
X123564665Y-83920179D01*
X123452701Y-83980025D01*
X123354563Y-84060565D01*
X123334384Y-84085153D01*
X122932153Y-84487385D01*
X122907566Y-84507563D01*
X122887388Y-84532150D01*
X122887385Y-84532153D01*
X122827026Y-84605701D01*
X122767179Y-84717666D01*
X122730326Y-84839154D01*
X122729365Y-84848910D01*
X122703703Y-84848910D01*
X122700674Y-84818155D01*
X122670191Y-84717666D01*
X122663821Y-84696667D01*
X122603975Y-84584703D01*
X122523435Y-84486565D01*
X122498842Y-84466382D01*
X122334618Y-84302158D01*
X122314435Y-84277565D01*
X122216297Y-84197025D01*
X122104333Y-84137179D01*
X121982844Y-84100326D01*
X121888157Y-84091000D01*
X121888149Y-84091000D01*
X121856500Y-84087883D01*
X121824851Y-84091000D01*
X121290149Y-84091000D01*
X121258500Y-84087883D01*
X121226850Y-84091000D01*
X121226843Y-84091000D01*
X121143580Y-84099201D01*
X121132155Y-84100326D01*
X121010667Y-84137179D01*
X120898703Y-84197025D01*
X120800565Y-84277565D01*
X120780386Y-84302153D01*
X120775500Y-84307039D01*
X120689842Y-84290001D01*
X120447160Y-84290001D01*
X120209140Y-84337346D01*
X119984930Y-84430217D01*
X119964000Y-84444202D01*
X119964000Y-84059800D01*
X119984930Y-84073785D01*
X120209140Y-84166656D01*
X120447160Y-84214001D01*
X120689842Y-84214001D01*
X120927862Y-84166656D01*
X121152072Y-84073785D01*
X121353855Y-83938958D01*
X121525458Y-83767355D01*
X121614896Y-83633501D01*
X121667871Y-83633501D01*
X121699871Y-83636653D01*
X121731871Y-83633501D01*
X121731874Y-83633501D01*
X121827587Y-83624074D01*
X121950395Y-83586821D01*
X122063576Y-83526324D01*
X122162780Y-83444910D01*
X122183186Y-83420045D01*
X123153549Y-82449683D01*
X123178409Y-82429281D01*
X123259823Y-82330077D01*
X123320320Y-82216896D01*
X123336313Y-82164173D01*
X124160189Y-82988049D01*
X124180591Y-83012909D01*
X124205449Y-83033309D01*
X124279794Y-83094323D01*
X124353413Y-83133673D01*
X124392976Y-83154820D01*
X124515784Y-83192073D01*
X124611497Y-83201500D01*
X124611500Y-83201500D01*
X124643500Y-83204652D01*
X124675500Y-83201500D01*
X125508003Y-83201500D01*
X125603716Y-83192073D01*
X125726524Y-83154820D01*
X125839705Y-83094323D01*
X125938909Y-83012909D01*
X126020323Y-82913705D01*
X126080820Y-82800524D01*
X126112293Y-82696770D01*
X126218784Y-82729073D01*
X126314497Y-82738500D01*
X126314507Y-82738500D01*
X126346499Y-82741651D01*
X126378491Y-82738500D01*
X126378503Y-82738500D01*
X126474216Y-82729073D01*
X126597024Y-82691820D01*
X126710205Y-82631323D01*
X126809409Y-82549909D01*
X126890823Y-82450705D01*
X126951320Y-82337524D01*
X126988573Y-82214716D01*
X127001152Y-82087000D01*
X126988573Y-81959284D01*
X126951320Y-81836476D01*
X126890823Y-81723295D01*
X126809409Y-81624091D01*
X126784544Y-81603685D01*
X126617000Y-81436141D01*
X126617000Y-80910062D01*
X126624590Y-80833000D01*
X126624590Y-79383000D01*
X126619173Y-79328000D01*
X126920641Y-79328000D01*
X127240416Y-79647775D01*
G36*
X121599333Y-81193933D02*
G01*
X121674381Y-81234047D01*
X121755813Y-81258749D01*
X121840500Y-81267090D01*
X122064001Y-81267090D01*
X122064001Y-81696511D01*
X121540842Y-82219671D01*
X121525458Y-82196647D01*
X121353855Y-82025044D01*
X121152072Y-81890217D01*
X120927862Y-81797346D01*
X120689842Y-81750001D01*
X120447160Y-81750001D01*
X120209140Y-81797346D01*
X119984930Y-81890217D01*
X119964000Y-81904202D01*
X119964000Y-81519800D01*
X119984930Y-81533785D01*
X120209140Y-81626656D01*
X120447160Y-81674001D01*
X120689842Y-81674001D01*
X120927862Y-81626656D01*
X121152072Y-81533785D01*
X121353855Y-81398958D01*
X121525458Y-81227355D01*
X121566044Y-81166614D01*
X121599333Y-81193933D01*
G37*
X121599333Y-81193933D02*
X121674381Y-81234047D01*
X121755813Y-81258749D01*
X121840500Y-81267090D01*
X122064001Y-81267090D01*
X122064001Y-81696511D01*
X121540842Y-82219671D01*
X121525458Y-82196647D01*
X121353855Y-82025044D01*
X121152072Y-81890217D01*
X120927862Y-81797346D01*
X120689842Y-81750001D01*
X120447160Y-81750001D01*
X120209140Y-81797346D01*
X119984930Y-81890217D01*
X119964000Y-81904202D01*
X119964000Y-81519800D01*
X119984930Y-81533785D01*
X120209140Y-81626656D01*
X120447160Y-81674001D01*
X120689842Y-81674001D01*
X120927862Y-81626656D01*
X121152072Y-81533785D01*
X121353855Y-81398958D01*
X121525458Y-81227355D01*
X121566044Y-81166614D01*
X121599333Y-81193933D01*
G36*
X127403147Y-76945044D02*
G01*
X127231544Y-77116647D01*
X127096717Y-77318430D01*
X127003846Y-77542640D01*
X126956501Y-77780660D01*
X126956501Y-78023342D01*
X126956831Y-78025000D01*
X125931997Y-78025000D01*
X125860926Y-78032000D01*
X125628649Y-78032000D01*
X125596999Y-78028883D01*
X125565350Y-78032000D01*
X125565343Y-78032000D01*
X125483216Y-78040089D01*
X125470655Y-78041326D01*
X125370591Y-78071680D01*
X125349167Y-78078179D01*
X125311749Y-78098180D01*
X125307573Y-78055784D01*
X125270320Y-77932976D01*
X125269259Y-77930991D01*
X125209823Y-77819794D01*
X125148809Y-77745449D01*
X125128409Y-77720591D01*
X125103550Y-77700190D01*
X124314359Y-76911000D01*
X127454097Y-76911000D01*
X127403147Y-76945044D01*
G37*
X127403147Y-76945044D02*
X127231544Y-77116647D01*
X127096717Y-77318430D01*
X127003846Y-77542640D01*
X126956501Y-77780660D01*
X126956501Y-78023342D01*
X126956831Y-78025000D01*
X125931997Y-78025000D01*
X125860926Y-78032000D01*
X125628649Y-78032000D01*
X125596999Y-78028883D01*
X125565350Y-78032000D01*
X125565343Y-78032000D01*
X125483216Y-78040089D01*
X125470655Y-78041326D01*
X125370591Y-78071680D01*
X125349167Y-78078179D01*
X125311749Y-78098180D01*
X125307573Y-78055784D01*
X125270320Y-77932976D01*
X125269259Y-77930991D01*
X125209823Y-77819794D01*
X125148809Y-77745449D01*
X125128409Y-77720591D01*
X125103550Y-77700190D01*
X124314359Y-76911000D01*
X127454097Y-76911000D01*
X127403147Y-76945044D01*
M02*
