%FSLAX45Y45*%
G04 Gerber Fmt 4.5, Leading zero omitted, Abs format (unit mm)*
G04 Created by KiCad (PCBNEW (5.1.5)-3) date 2020-07-23 01:10:51*
%MOMM*%
%LPD*%
G04 APERTURE LIST*
%TA.AperFunction,Profile*%
%ADD10C,0.050000*%
%TD*%
%ADD11C,0.200000*%
%ADD12C,0.300000*%
G04 APERTURE END LIST*
D10*
X11950700Y-9467850D02*
X11950700Y-7645400D01*
X12928600Y-9467850D02*
X11950700Y-9467850D01*
X12928600Y-7645400D02*
X12928600Y-9467850D01*
X11950700Y-7645400D02*
X12928600Y-7645400D01*
D11*
X12154350Y-8154700D02*
X12184350Y-8184700D01*
X12184350Y-8154700D02*
X12154350Y-8184700D01*
X12164300Y-9179800D02*
X12194300Y-9209800D01*
X12194300Y-9179800D02*
X12164300Y-9209800D01*
X12191300Y-8924200D02*
X12221300Y-8954200D01*
X12221300Y-8924200D02*
X12191300Y-8954200D01*
X12196050Y-9325850D02*
X12226050Y-9355850D01*
X12226050Y-9325850D02*
X12196050Y-9355850D01*
X12227800Y-8354300D02*
X12257800Y-8384300D01*
X12257800Y-8354300D02*
X12227800Y-8384300D01*
X12246850Y-7681200D02*
X12276850Y-7711200D01*
X12276850Y-7681200D02*
X12246850Y-7711200D01*
X12278600Y-8843250D02*
X12308600Y-8873250D01*
X12308600Y-8843250D02*
X12278600Y-8873250D01*
X12322649Y-7859000D02*
X12352649Y-7889000D01*
X12352649Y-7859000D02*
X12322649Y-7889000D01*
X12348450Y-8817850D02*
X12378450Y-8847850D01*
X12378450Y-8817850D02*
X12348450Y-8847850D01*
X12373850Y-9154400D02*
X12403850Y-9184400D01*
X12403850Y-9154400D02*
X12373850Y-9184400D01*
X12418300Y-9325850D02*
X12448300Y-9355850D01*
X12448300Y-9325850D02*
X12418300Y-9355850D01*
X12456400Y-9059150D02*
X12486400Y-9089150D01*
X12486400Y-9059150D02*
X12456400Y-9089150D01*
X12532600Y-8240000D02*
X12562600Y-8270000D01*
X12562600Y-8240000D02*
X12532600Y-8270000D01*
X12532600Y-8722600D02*
X12562600Y-8752600D01*
X12562600Y-8722600D02*
X12532600Y-8752600D01*
X12580860Y-8670530D02*
X12610860Y-8700530D01*
X12610860Y-8670530D02*
X12580860Y-8700530D01*
X12596100Y-7681200D02*
X12626100Y-7711200D01*
X12626100Y-7681200D02*
X12596100Y-7711200D01*
X12619650Y-8193700D02*
X12649650Y-8223700D01*
X12649650Y-8193700D02*
X12619650Y-8223700D01*
X12672300Y-7947900D02*
X12702300Y-7977900D01*
X12702300Y-7947900D02*
X12672300Y-7977900D01*
X12096850Y-7790200D02*
G75*
G03X12096850Y-7790200I-40000J0D01*
G01*
X12096850Y-8044200D02*
G75*
G03X12096850Y-8044200I-40000J0D01*
G01*
X12096850Y-8298200D02*
G75*
G03X12096850Y-8298200I-40000J0D01*
G01*
X12096850Y-8552200D02*
G75*
G03X12096850Y-8552200I-40000J0D01*
G01*
X12096850Y-8806200D02*
G75*
G03X12096850Y-8806200I-40000J0D01*
G01*
X12096850Y-9060200D02*
G75*
G03X12096850Y-9060200I-40000J0D01*
G01*
X12096850Y-9314200D02*
G75*
G03X12096850Y-9314200I-40000J0D01*
G01*
X12858850Y-7790200D02*
G75*
G03X12858850Y-7790200I-40000J0D01*
G01*
X12858850Y-8044200D02*
G75*
G03X12858850Y-8044200I-40000J0D01*
G01*
X12858850Y-8298200D02*
G75*
G03X12858850Y-8298200I-40000J0D01*
G01*
X12858850Y-8552200D02*
G75*
G03X12858850Y-8552200I-40000J0D01*
G01*
X12858850Y-8806200D02*
G75*
G03X12858850Y-8806200I-40000J0D01*
G01*
X12858850Y-9060200D02*
G75*
G03X12858850Y-9060200I-40000J0D01*
G01*
X12858850Y-9314200D02*
G75*
G03X12858850Y-9314200I-40000J0D01*
G01*
D12*
X12234628Y-9936064D02*
X12234628Y-9636064D01*
X12306057Y-9636064D01*
X12348914Y-9650350D01*
X12377486Y-9678922D01*
X12391771Y-9707493D01*
X12406057Y-9764636D01*
X12406057Y-9807493D01*
X12391771Y-9864636D01*
X12377486Y-9893207D01*
X12348914Y-9921779D01*
X12306057Y-9936064D01*
X12234628Y-9936064D01*
X12534628Y-9936064D02*
X12534628Y-9736064D01*
X12534628Y-9793207D02*
X12548914Y-9764636D01*
X12563200Y-9750350D01*
X12591771Y-9736064D01*
X12620343Y-9736064D01*
X12720343Y-9936064D02*
X12720343Y-9736064D01*
X12720343Y-9636064D02*
X12706057Y-9650350D01*
X12720343Y-9664636D01*
X12734628Y-9650350D01*
X12720343Y-9636064D01*
X12720343Y-9664636D01*
X12906057Y-9936064D02*
X12877486Y-9921779D01*
X12863200Y-9893207D01*
X12863200Y-9636064D01*
X13063200Y-9936064D02*
X13034628Y-9921779D01*
X13020343Y-9893207D01*
X13020343Y-9636064D01*
X13406057Y-9936064D02*
X13406057Y-9636064D01*
X13506057Y-9850350D01*
X13606057Y-9636064D01*
X13606057Y-9936064D01*
X13877486Y-9936064D02*
X13877486Y-9778922D01*
X13863200Y-9750350D01*
X13834628Y-9736064D01*
X13777486Y-9736064D01*
X13748914Y-9750350D01*
X13877486Y-9921779D02*
X13848914Y-9936064D01*
X13777486Y-9936064D01*
X13748914Y-9921779D01*
X13734628Y-9893207D01*
X13734628Y-9864636D01*
X13748914Y-9836064D01*
X13777486Y-9821779D01*
X13848914Y-9821779D01*
X13877486Y-9807493D01*
X14020343Y-9736064D02*
X14020343Y-10036064D01*
X14020343Y-9750350D02*
X14048914Y-9736064D01*
X14106057Y-9736064D01*
X14134628Y-9750350D01*
X14148914Y-9764636D01*
X14163200Y-9793207D01*
X14163200Y-9878922D01*
X14148914Y-9907493D01*
X14134628Y-9921779D01*
X14106057Y-9936064D01*
X14048914Y-9936064D01*
X14020343Y-9921779D01*
X14291771Y-9907493D02*
X14306057Y-9921779D01*
X14291771Y-9936064D01*
X14277486Y-9921779D01*
X14291771Y-9907493D01*
X14291771Y-9936064D01*
X14291771Y-9750350D02*
X14306057Y-9764636D01*
X14291771Y-9778922D01*
X14277486Y-9764636D01*
X14291771Y-9750350D01*
X14291771Y-9778922D01*
X11918200Y-10415350D02*
X11948200Y-10445350D01*
X11948200Y-10415350D02*
X11918200Y-10445350D01*
X12291771Y-10266064D02*
X12320343Y-10266064D01*
X12348914Y-10280350D01*
X12363200Y-10294636D01*
X12377486Y-10323207D01*
X12391771Y-10380350D01*
X12391771Y-10451779D01*
X12377486Y-10508922D01*
X12363200Y-10537493D01*
X12348914Y-10551779D01*
X12320343Y-10566064D01*
X12291771Y-10566064D01*
X12263200Y-10551779D01*
X12248914Y-10537493D01*
X12234628Y-10508922D01*
X12220343Y-10451779D01*
X12220343Y-10380350D01*
X12234628Y-10323207D01*
X12248914Y-10294636D01*
X12263200Y-10280350D01*
X12291771Y-10266064D01*
X12520343Y-10537493D02*
X12534628Y-10551779D01*
X12520343Y-10566064D01*
X12506057Y-10551779D01*
X12520343Y-10537493D01*
X12520343Y-10566064D01*
X12634628Y-10266064D02*
X12820343Y-10266064D01*
X12720343Y-10380350D01*
X12763200Y-10380350D01*
X12791771Y-10394636D01*
X12806057Y-10408922D01*
X12820343Y-10437493D01*
X12820343Y-10508922D01*
X12806057Y-10537493D01*
X12791771Y-10551779D01*
X12763200Y-10566064D01*
X12677486Y-10566064D01*
X12648914Y-10551779D01*
X12634628Y-10537493D01*
X13006057Y-10266064D02*
X13034628Y-10266064D01*
X13063200Y-10280350D01*
X13077486Y-10294636D01*
X13091771Y-10323207D01*
X13106057Y-10380350D01*
X13106057Y-10451779D01*
X13091771Y-10508922D01*
X13077486Y-10537493D01*
X13063200Y-10551779D01*
X13034628Y-10566064D01*
X13006057Y-10566064D01*
X12977486Y-10551779D01*
X12963200Y-10537493D01*
X12948914Y-10508922D01*
X12934628Y-10451779D01*
X12934628Y-10380350D01*
X12948914Y-10323207D01*
X12963200Y-10294636D01*
X12977486Y-10280350D01*
X13006057Y-10266064D01*
X13234628Y-10566064D02*
X13234628Y-10366064D01*
X13234628Y-10394636D02*
X13248914Y-10380350D01*
X13277486Y-10366064D01*
X13320343Y-10366064D01*
X13348914Y-10380350D01*
X13363200Y-10408922D01*
X13363200Y-10566064D01*
X13363200Y-10408922D02*
X13377486Y-10380350D01*
X13406057Y-10366064D01*
X13448914Y-10366064D01*
X13477486Y-10380350D01*
X13491771Y-10408922D01*
X13491771Y-10566064D01*
X13634628Y-10566064D02*
X13634628Y-10366064D01*
X13634628Y-10394636D02*
X13648914Y-10380350D01*
X13677486Y-10366064D01*
X13720343Y-10366064D01*
X13748914Y-10380350D01*
X13763200Y-10408922D01*
X13763200Y-10566064D01*
X13763200Y-10408922D02*
X13777486Y-10380350D01*
X13806057Y-10366064D01*
X13848914Y-10366064D01*
X13877486Y-10380350D01*
X13891771Y-10408922D01*
X13891771Y-10566064D01*
X14477486Y-10251779D02*
X14220343Y-10637493D01*
X14863200Y-10266064D02*
X14891771Y-10266064D01*
X14920343Y-10280350D01*
X14934628Y-10294636D01*
X14948914Y-10323207D01*
X14963200Y-10380350D01*
X14963200Y-10451779D01*
X14948914Y-10508922D01*
X14934628Y-10537493D01*
X14920343Y-10551779D01*
X14891771Y-10566064D01*
X14863200Y-10566064D01*
X14834628Y-10551779D01*
X14820343Y-10537493D01*
X14806057Y-10508922D01*
X14791771Y-10451779D01*
X14791771Y-10380350D01*
X14806057Y-10323207D01*
X14820343Y-10294636D01*
X14834628Y-10280350D01*
X14863200Y-10266064D01*
X15091771Y-10537493D02*
X15106057Y-10551779D01*
X15091771Y-10566064D01*
X15077486Y-10551779D01*
X15091771Y-10537493D01*
X15091771Y-10566064D01*
X15291771Y-10266064D02*
X15320343Y-10266064D01*
X15348914Y-10280350D01*
X15363200Y-10294636D01*
X15377486Y-10323207D01*
X15391771Y-10380350D01*
X15391771Y-10451779D01*
X15377486Y-10508922D01*
X15363200Y-10537493D01*
X15348914Y-10551779D01*
X15320343Y-10566064D01*
X15291771Y-10566064D01*
X15263200Y-10551779D01*
X15248914Y-10537493D01*
X15234628Y-10508922D01*
X15220343Y-10451779D01*
X15220343Y-10380350D01*
X15234628Y-10323207D01*
X15248914Y-10294636D01*
X15263200Y-10280350D01*
X15291771Y-10266064D01*
X15677486Y-10566064D02*
X15506057Y-10566064D01*
X15591771Y-10566064D02*
X15591771Y-10266064D01*
X15563200Y-10308922D01*
X15534628Y-10337493D01*
X15506057Y-10351779D01*
X15791771Y-10294636D02*
X15806057Y-10280350D01*
X15834628Y-10266064D01*
X15906057Y-10266064D01*
X15934628Y-10280350D01*
X15948914Y-10294636D01*
X15963200Y-10323207D01*
X15963200Y-10351779D01*
X15948914Y-10394636D01*
X15777486Y-10566064D01*
X15963200Y-10566064D01*
X16077486Y-10266064D02*
X16077486Y-10323207D01*
X16191771Y-10266064D02*
X16191771Y-10323207D01*
X16634628Y-10680350D02*
X16620343Y-10666064D01*
X16591771Y-10623207D01*
X16577486Y-10594636D01*
X16563200Y-10551779D01*
X16548914Y-10480350D01*
X16548914Y-10423207D01*
X16563200Y-10351779D01*
X16577486Y-10308922D01*
X16591771Y-10280350D01*
X16620343Y-10237493D01*
X16634628Y-10223207D01*
X16906057Y-10566064D02*
X16734628Y-10566064D01*
X16820343Y-10566064D02*
X16820343Y-10266064D01*
X16791771Y-10308922D01*
X16763200Y-10337493D01*
X16734628Y-10351779D01*
X17077486Y-10394636D02*
X17048914Y-10380350D01*
X17034628Y-10366064D01*
X17020343Y-10337493D01*
X17020343Y-10323207D01*
X17034628Y-10294636D01*
X17048914Y-10280350D01*
X17077486Y-10266064D01*
X17134628Y-10266064D01*
X17163200Y-10280350D01*
X17177486Y-10294636D01*
X17191771Y-10323207D01*
X17191771Y-10337493D01*
X17177486Y-10366064D01*
X17163200Y-10380350D01*
X17134628Y-10394636D01*
X17077486Y-10394636D01*
X17048914Y-10408922D01*
X17034628Y-10423207D01*
X17020343Y-10451779D01*
X17020343Y-10508922D01*
X17034628Y-10537493D01*
X17048914Y-10551779D01*
X17077486Y-10566064D01*
X17134628Y-10566064D01*
X17163200Y-10551779D01*
X17177486Y-10537493D01*
X17191771Y-10508922D01*
X17191771Y-10451779D01*
X17177486Y-10423207D01*
X17163200Y-10408922D01*
X17134628Y-10394636D01*
X17548914Y-10566064D02*
X17548914Y-10266064D01*
X17677486Y-10566064D02*
X17677486Y-10408922D01*
X17663200Y-10380350D01*
X17634628Y-10366064D01*
X17591771Y-10366064D01*
X17563200Y-10380350D01*
X17548914Y-10394636D01*
X17863200Y-10566064D02*
X17834628Y-10551779D01*
X17820343Y-10537493D01*
X17806057Y-10508922D01*
X17806057Y-10423207D01*
X17820343Y-10394636D01*
X17834628Y-10380350D01*
X17863200Y-10366064D01*
X17906057Y-10366064D01*
X17934628Y-10380350D01*
X17948914Y-10394636D01*
X17963200Y-10423207D01*
X17963200Y-10508922D01*
X17948914Y-10537493D01*
X17934628Y-10551779D01*
X17906057Y-10566064D01*
X17863200Y-10566064D01*
X18134628Y-10566064D02*
X18106057Y-10551779D01*
X18091771Y-10523207D01*
X18091771Y-10266064D01*
X18363200Y-10551779D02*
X18334628Y-10566064D01*
X18277486Y-10566064D01*
X18248914Y-10551779D01*
X18234628Y-10523207D01*
X18234628Y-10408922D01*
X18248914Y-10380350D01*
X18277486Y-10366064D01*
X18334628Y-10366064D01*
X18363200Y-10380350D01*
X18377486Y-10408922D01*
X18377486Y-10437493D01*
X18234628Y-10466064D01*
X18491771Y-10551779D02*
X18520343Y-10566064D01*
X18577486Y-10566064D01*
X18606057Y-10551779D01*
X18620343Y-10523207D01*
X18620343Y-10508922D01*
X18606057Y-10480350D01*
X18577486Y-10466064D01*
X18534628Y-10466064D01*
X18506057Y-10451779D01*
X18491771Y-10423207D01*
X18491771Y-10408922D01*
X18506057Y-10380350D01*
X18534628Y-10366064D01*
X18577486Y-10366064D01*
X18606057Y-10380350D01*
X18720343Y-10680350D02*
X18734628Y-10666064D01*
X18763200Y-10623207D01*
X18777486Y-10594636D01*
X18791771Y-10551779D01*
X18806057Y-10480350D01*
X18806057Y-10423207D01*
X18791771Y-10351779D01*
X18777486Y-10308922D01*
X18763200Y-10280350D01*
X18734628Y-10237493D01*
X18720343Y-10223207D01*
X11948200Y-10826350D02*
G75*
G03X11948200Y-10826350I-40000J0D01*
G01*
X12291771Y-10662064D02*
X12320343Y-10662064D01*
X12348914Y-10676350D01*
X12363200Y-10690636D01*
X12377486Y-10719207D01*
X12391771Y-10776350D01*
X12391771Y-10847779D01*
X12377486Y-10904922D01*
X12363200Y-10933493D01*
X12348914Y-10947779D01*
X12320343Y-10962064D01*
X12291771Y-10962064D01*
X12263200Y-10947779D01*
X12248914Y-10933493D01*
X12234628Y-10904922D01*
X12220343Y-10847779D01*
X12220343Y-10776350D01*
X12234628Y-10719207D01*
X12248914Y-10690636D01*
X12263200Y-10676350D01*
X12291771Y-10662064D01*
X12520343Y-10933493D02*
X12534628Y-10947779D01*
X12520343Y-10962064D01*
X12506057Y-10947779D01*
X12520343Y-10933493D01*
X12520343Y-10962064D01*
X12706057Y-10790636D02*
X12677486Y-10776350D01*
X12663200Y-10762064D01*
X12648914Y-10733493D01*
X12648914Y-10719207D01*
X12663200Y-10690636D01*
X12677486Y-10676350D01*
X12706057Y-10662064D01*
X12763200Y-10662064D01*
X12791771Y-10676350D01*
X12806057Y-10690636D01*
X12820343Y-10719207D01*
X12820343Y-10733493D01*
X12806057Y-10762064D01*
X12791771Y-10776350D01*
X12763200Y-10790636D01*
X12706057Y-10790636D01*
X12677486Y-10804922D01*
X12663200Y-10819207D01*
X12648914Y-10847779D01*
X12648914Y-10904922D01*
X12663200Y-10933493D01*
X12677486Y-10947779D01*
X12706057Y-10962064D01*
X12763200Y-10962064D01*
X12791771Y-10947779D01*
X12806057Y-10933493D01*
X12820343Y-10904922D01*
X12820343Y-10847779D01*
X12806057Y-10819207D01*
X12791771Y-10804922D01*
X12763200Y-10790636D01*
X13006057Y-10662064D02*
X13034628Y-10662064D01*
X13063200Y-10676350D01*
X13077486Y-10690636D01*
X13091771Y-10719207D01*
X13106057Y-10776350D01*
X13106057Y-10847779D01*
X13091771Y-10904922D01*
X13077486Y-10933493D01*
X13063200Y-10947779D01*
X13034628Y-10962064D01*
X13006057Y-10962064D01*
X12977486Y-10947779D01*
X12963200Y-10933493D01*
X12948914Y-10904922D01*
X12934628Y-10847779D01*
X12934628Y-10776350D01*
X12948914Y-10719207D01*
X12963200Y-10690636D01*
X12977486Y-10676350D01*
X13006057Y-10662064D01*
X13234628Y-10962064D02*
X13234628Y-10762064D01*
X13234628Y-10790636D02*
X13248914Y-10776350D01*
X13277486Y-10762064D01*
X13320343Y-10762064D01*
X13348914Y-10776350D01*
X13363200Y-10804922D01*
X13363200Y-10962064D01*
X13363200Y-10804922D02*
X13377486Y-10776350D01*
X13406057Y-10762064D01*
X13448914Y-10762064D01*
X13477486Y-10776350D01*
X13491771Y-10804922D01*
X13491771Y-10962064D01*
X13634628Y-10962064D02*
X13634628Y-10762064D01*
X13634628Y-10790636D02*
X13648914Y-10776350D01*
X13677486Y-10762064D01*
X13720343Y-10762064D01*
X13748914Y-10776350D01*
X13763200Y-10804922D01*
X13763200Y-10962064D01*
X13763200Y-10804922D02*
X13777486Y-10776350D01*
X13806057Y-10762064D01*
X13848914Y-10762064D01*
X13877486Y-10776350D01*
X13891771Y-10804922D01*
X13891771Y-10962064D01*
X14477486Y-10647779D02*
X14220343Y-11033493D01*
X14863200Y-10662064D02*
X14891771Y-10662064D01*
X14920343Y-10676350D01*
X14934628Y-10690636D01*
X14948914Y-10719207D01*
X14963200Y-10776350D01*
X14963200Y-10847779D01*
X14948914Y-10904922D01*
X14934628Y-10933493D01*
X14920343Y-10947779D01*
X14891771Y-10962064D01*
X14863200Y-10962064D01*
X14834628Y-10947779D01*
X14820343Y-10933493D01*
X14806057Y-10904922D01*
X14791771Y-10847779D01*
X14791771Y-10776350D01*
X14806057Y-10719207D01*
X14820343Y-10690636D01*
X14834628Y-10676350D01*
X14863200Y-10662064D01*
X15091771Y-10933493D02*
X15106057Y-10947779D01*
X15091771Y-10962064D01*
X15077486Y-10947779D01*
X15091771Y-10933493D01*
X15091771Y-10962064D01*
X15291771Y-10662064D02*
X15320343Y-10662064D01*
X15348914Y-10676350D01*
X15363200Y-10690636D01*
X15377486Y-10719207D01*
X15391771Y-10776350D01*
X15391771Y-10847779D01*
X15377486Y-10904922D01*
X15363200Y-10933493D01*
X15348914Y-10947779D01*
X15320343Y-10962064D01*
X15291771Y-10962064D01*
X15263200Y-10947779D01*
X15248914Y-10933493D01*
X15234628Y-10904922D01*
X15220343Y-10847779D01*
X15220343Y-10776350D01*
X15234628Y-10719207D01*
X15248914Y-10690636D01*
X15263200Y-10676350D01*
X15291771Y-10662064D01*
X15491771Y-10662064D02*
X15677486Y-10662064D01*
X15577486Y-10776350D01*
X15620343Y-10776350D01*
X15648914Y-10790636D01*
X15663200Y-10804922D01*
X15677486Y-10833493D01*
X15677486Y-10904922D01*
X15663200Y-10933493D01*
X15648914Y-10947779D01*
X15620343Y-10962064D01*
X15534628Y-10962064D01*
X15506057Y-10947779D01*
X15491771Y-10933493D01*
X15963200Y-10962064D02*
X15791771Y-10962064D01*
X15877486Y-10962064D02*
X15877486Y-10662064D01*
X15848914Y-10704922D01*
X15820343Y-10733493D01*
X15791771Y-10747779D01*
X16077486Y-10662064D02*
X16077486Y-10719207D01*
X16191771Y-10662064D02*
X16191771Y-10719207D01*
X16634628Y-11076350D02*
X16620343Y-11062064D01*
X16591771Y-11019207D01*
X16577486Y-10990636D01*
X16563200Y-10947779D01*
X16548914Y-10876350D01*
X16548914Y-10819207D01*
X16563200Y-10747779D01*
X16577486Y-10704922D01*
X16591771Y-10676350D01*
X16620343Y-10633493D01*
X16634628Y-10619207D01*
X16906057Y-10962064D02*
X16734628Y-10962064D01*
X16820343Y-10962064D02*
X16820343Y-10662064D01*
X16791771Y-10704922D01*
X16763200Y-10733493D01*
X16734628Y-10747779D01*
X17163200Y-10762064D02*
X17163200Y-10962064D01*
X17091771Y-10647779D02*
X17020343Y-10862064D01*
X17206057Y-10862064D01*
X17548914Y-10962064D02*
X17548914Y-10662064D01*
X17677486Y-10962064D02*
X17677486Y-10804922D01*
X17663200Y-10776350D01*
X17634628Y-10762064D01*
X17591771Y-10762064D01*
X17563200Y-10776350D01*
X17548914Y-10790636D01*
X17863200Y-10962064D02*
X17834628Y-10947779D01*
X17820343Y-10933493D01*
X17806057Y-10904922D01*
X17806057Y-10819207D01*
X17820343Y-10790636D01*
X17834628Y-10776350D01*
X17863200Y-10762064D01*
X17906057Y-10762064D01*
X17934628Y-10776350D01*
X17948914Y-10790636D01*
X17963200Y-10819207D01*
X17963200Y-10904922D01*
X17948914Y-10933493D01*
X17934628Y-10947779D01*
X17906057Y-10962064D01*
X17863200Y-10962064D01*
X18134628Y-10962064D02*
X18106057Y-10947779D01*
X18091771Y-10919207D01*
X18091771Y-10662064D01*
X18363200Y-10947779D02*
X18334628Y-10962064D01*
X18277486Y-10962064D01*
X18248914Y-10947779D01*
X18234628Y-10919207D01*
X18234628Y-10804922D01*
X18248914Y-10776350D01*
X18277486Y-10762064D01*
X18334628Y-10762064D01*
X18363200Y-10776350D01*
X18377486Y-10804922D01*
X18377486Y-10833493D01*
X18234628Y-10862064D01*
X18491771Y-10947779D02*
X18520343Y-10962064D01*
X18577486Y-10962064D01*
X18606057Y-10947779D01*
X18620343Y-10919207D01*
X18620343Y-10904922D01*
X18606057Y-10876350D01*
X18577486Y-10862064D01*
X18534628Y-10862064D01*
X18506057Y-10847779D01*
X18491771Y-10819207D01*
X18491771Y-10804922D01*
X18506057Y-10776350D01*
X18534628Y-10762064D01*
X18577486Y-10762064D01*
X18606057Y-10776350D01*
X18720343Y-11076350D02*
X18734628Y-11062064D01*
X18763200Y-11019207D01*
X18777486Y-10990636D01*
X18791771Y-10947779D01*
X18806057Y-10876350D01*
X18806057Y-10819207D01*
X18791771Y-10747779D01*
X18777486Y-10704922D01*
X18763200Y-10676350D01*
X18734628Y-10633493D01*
X18720343Y-10619207D01*
M02*
