M48
; DRILL file {KiCad (5.1.5)-3} date 7/23/2020 1:10:50 AM
; FORMAT={-:-/ absolute / inch / decimal}
; #@! TF.CreationDate,2020-07-23T01:10:50-04:00
; #@! TF.GenerationSoftware,Kicad,Pcbnew,(5.1.5)-3
; #@! TF.FileFunction,Plated,1,2,PTH
FMAT,2
INCH
T1C0.0118
T2C0.0315
%
G90
G05
T1
X4.7911Y-3.2164
X4.795Y-3.62
X4.8056Y-3.5194
X4.8075Y-3.6775
X4.82Y-3.295
X4.8275Y-3.03
X4.84Y-3.4875
X4.8573Y-3.1
X4.8675Y-3.4775
X4.8775Y-3.61
X4.895Y-3.6775
X4.91Y-3.5725
X4.94Y-3.25
X4.94Y-3.44
X4.959Y-3.4195
X4.965Y-3.03
X4.9743Y-3.2318
X4.995Y-3.135
T2
X4.7468Y-3.067
X4.7468Y-3.167
X4.7468Y-3.267
X4.7468Y-3.367
X4.7468Y-3.467
X4.7468Y-3.567
X4.7468Y-3.667
X5.0468Y-3.067
X5.0468Y-3.167
X5.0468Y-3.267
X5.0468Y-3.367
X5.0468Y-3.467
X5.0468Y-3.567
X5.0468Y-3.667
T0
M30
