%FSLAX45Y45*%
G04 Gerber Fmt 4.5, Leading zero omitted, Abs format (unit mm)*
G04 Created by KiCad (PCBNEW (5.1.5)-3) date 2020-05-06 05:02:33*
%MOMM*%
%LPD*%
G04 APERTURE LIST*
%TA.AperFunction,Profile*%
%ADD10C,0.050000*%
%TD*%
%ADD11C,0.200000*%
%ADD12C,0.300000*%
G04 APERTURE END LIST*
D10*
X14312900Y-5683250D02*
X14312900Y-4184650D01*
X15557500Y-5683250D02*
X14312900Y-5683250D01*
X15557500Y-4184650D02*
X15557500Y-5683250D01*
X14312900Y-4184650D02*
X15557500Y-4184650D01*
D11*
X14355050Y-5426950D02*
X14385050Y-5456950D01*
X14385050Y-5426950D02*
X14355050Y-5456950D01*
X14545550Y-4423650D02*
X14575550Y-4453650D01*
X14575550Y-4423650D02*
X14545550Y-4453650D01*
X14545550Y-5623800D02*
X14575550Y-5653800D01*
X14575550Y-5623800D02*
X14545550Y-5653800D01*
X14564600Y-4214100D02*
X14594600Y-4244100D01*
X14594600Y-4214100D02*
X14564600Y-4244100D01*
X14736050Y-4474450D02*
X14766050Y-4504450D01*
X14766050Y-4474450D02*
X14736050Y-4504450D01*
X14799550Y-4404600D02*
X14829550Y-4434600D01*
X14829550Y-4404600D02*
X14799550Y-4434600D01*
X14932900Y-4474450D02*
X14962900Y-4504450D01*
X14962900Y-4474450D02*
X14932900Y-4504450D01*
X14933551Y-4404600D02*
X14963551Y-4434600D01*
X14963551Y-4404600D02*
X14933551Y-4434600D01*
X14935100Y-4946550D02*
X14965100Y-4976550D01*
X14965100Y-4946550D02*
X14935100Y-4976550D01*
X15129750Y-4709400D02*
X15159750Y-4739400D01*
X15159750Y-4709400D02*
X15129750Y-4739400D01*
X15129750Y-5192000D02*
X15159750Y-5222000D01*
X15159750Y-5192000D02*
X15129750Y-5222000D01*
X15250400Y-4753850D02*
X15280400Y-4783850D01*
X15280400Y-4753850D02*
X15250400Y-4783850D01*
X15288500Y-4214100D02*
X15318500Y-4244100D01*
X15318500Y-4214100D02*
X15288500Y-4244100D01*
X15294850Y-5623800D02*
X15324850Y-5653800D01*
X15324850Y-5623800D02*
X15294850Y-5653800D01*
X15305350Y-4946550D02*
X15335350Y-4976550D01*
X15335350Y-4946550D02*
X15305350Y-4976550D01*
X15485350Y-5426950D02*
X15515350Y-5456950D01*
X15515350Y-5426950D02*
X15485350Y-5456950D01*
X15504400Y-4410950D02*
X15534400Y-4440950D01*
X15534400Y-4410950D02*
X15504400Y-4440950D01*
X14466850Y-4298600D02*
G75*
G03X14466850Y-4298600I-40000J0D01*
G01*
X14466850Y-4552600D02*
G75*
G03X14466850Y-4552600I-40000J0D01*
G01*
X14466850Y-4806600D02*
G75*
G03X14466850Y-4806600I-40000J0D01*
G01*
X14466850Y-5060600D02*
G75*
G03X14466850Y-5060600I-40000J0D01*
G01*
X14466850Y-5314600D02*
G75*
G03X14466850Y-5314600I-40000J0D01*
G01*
X14466850Y-5568600D02*
G75*
G03X14466850Y-5568600I-40000J0D01*
G01*
X15482850Y-4298600D02*
G75*
G03X15482850Y-4298600I-40000J0D01*
G01*
X15482850Y-4552600D02*
G75*
G03X15482850Y-4552600I-40000J0D01*
G01*
X15482850Y-4806600D02*
G75*
G03X15482850Y-4806600I-40000J0D01*
G01*
X15482850Y-5060600D02*
G75*
G03X15482850Y-5060600I-40000J0D01*
G01*
X15482850Y-5314600D02*
G75*
G03X15482850Y-5314600I-40000J0D01*
G01*
X15482850Y-5568600D02*
G75*
G03X15482850Y-5568600I-40000J0D01*
G01*
D12*
X14596828Y-6151464D02*
X14596828Y-5851464D01*
X14668257Y-5851464D01*
X14711114Y-5865750D01*
X14739686Y-5894321D01*
X14753971Y-5922893D01*
X14768257Y-5980036D01*
X14768257Y-6022893D01*
X14753971Y-6080036D01*
X14739686Y-6108607D01*
X14711114Y-6137179D01*
X14668257Y-6151464D01*
X14596828Y-6151464D01*
X14896828Y-6151464D02*
X14896828Y-5951464D01*
X14896828Y-6008607D02*
X14911114Y-5980036D01*
X14925400Y-5965750D01*
X14953971Y-5951464D01*
X14982543Y-5951464D01*
X15082543Y-6151464D02*
X15082543Y-5951464D01*
X15082543Y-5851464D02*
X15068257Y-5865750D01*
X15082543Y-5880036D01*
X15096828Y-5865750D01*
X15082543Y-5851464D01*
X15082543Y-5880036D01*
X15268257Y-6151464D02*
X15239686Y-6137179D01*
X15225400Y-6108607D01*
X15225400Y-5851464D01*
X15425400Y-6151464D02*
X15396828Y-6137179D01*
X15382543Y-6108607D01*
X15382543Y-5851464D01*
X15768257Y-6151464D02*
X15768257Y-5851464D01*
X15868257Y-6065750D01*
X15968257Y-5851464D01*
X15968257Y-6151464D01*
X16239686Y-6151464D02*
X16239686Y-5994321D01*
X16225400Y-5965750D01*
X16196828Y-5951464D01*
X16139686Y-5951464D01*
X16111114Y-5965750D01*
X16239686Y-6137179D02*
X16211114Y-6151464D01*
X16139686Y-6151464D01*
X16111114Y-6137179D01*
X16096828Y-6108607D01*
X16096828Y-6080036D01*
X16111114Y-6051464D01*
X16139686Y-6037179D01*
X16211114Y-6037179D01*
X16239686Y-6022893D01*
X16382543Y-5951464D02*
X16382543Y-6251464D01*
X16382543Y-5965750D02*
X16411114Y-5951464D01*
X16468257Y-5951464D01*
X16496828Y-5965750D01*
X16511114Y-5980036D01*
X16525400Y-6008607D01*
X16525400Y-6094321D01*
X16511114Y-6122893D01*
X16496828Y-6137179D01*
X16468257Y-6151464D01*
X16411114Y-6151464D01*
X16382543Y-6137179D01*
X16653971Y-6122893D02*
X16668257Y-6137179D01*
X16653971Y-6151464D01*
X16639686Y-6137179D01*
X16653971Y-6122893D01*
X16653971Y-6151464D01*
X16653971Y-5965750D02*
X16668257Y-5980036D01*
X16653971Y-5994321D01*
X16639686Y-5980036D01*
X16653971Y-5965750D01*
X16653971Y-5994321D01*
X14280400Y-6630750D02*
X14310400Y-6660750D01*
X14310400Y-6630750D02*
X14280400Y-6660750D01*
X14653971Y-6481464D02*
X14682543Y-6481464D01*
X14711114Y-6495750D01*
X14725400Y-6510036D01*
X14739686Y-6538607D01*
X14753971Y-6595750D01*
X14753971Y-6667179D01*
X14739686Y-6724321D01*
X14725400Y-6752893D01*
X14711114Y-6767179D01*
X14682543Y-6781464D01*
X14653971Y-6781464D01*
X14625400Y-6767179D01*
X14611114Y-6752893D01*
X14596828Y-6724321D01*
X14582543Y-6667179D01*
X14582543Y-6595750D01*
X14596828Y-6538607D01*
X14611114Y-6510036D01*
X14625400Y-6495750D01*
X14653971Y-6481464D01*
X14882543Y-6752893D02*
X14896828Y-6767179D01*
X14882543Y-6781464D01*
X14868257Y-6767179D01*
X14882543Y-6752893D01*
X14882543Y-6781464D01*
X14996828Y-6481464D02*
X15182543Y-6481464D01*
X15082543Y-6595750D01*
X15125400Y-6595750D01*
X15153971Y-6610036D01*
X15168257Y-6624321D01*
X15182543Y-6652893D01*
X15182543Y-6724321D01*
X15168257Y-6752893D01*
X15153971Y-6767179D01*
X15125400Y-6781464D01*
X15039686Y-6781464D01*
X15011114Y-6767179D01*
X14996828Y-6752893D01*
X15368257Y-6481464D02*
X15396828Y-6481464D01*
X15425400Y-6495750D01*
X15439686Y-6510036D01*
X15453971Y-6538607D01*
X15468257Y-6595750D01*
X15468257Y-6667179D01*
X15453971Y-6724321D01*
X15439686Y-6752893D01*
X15425400Y-6767179D01*
X15396828Y-6781464D01*
X15368257Y-6781464D01*
X15339686Y-6767179D01*
X15325400Y-6752893D01*
X15311114Y-6724321D01*
X15296828Y-6667179D01*
X15296828Y-6595750D01*
X15311114Y-6538607D01*
X15325400Y-6510036D01*
X15339686Y-6495750D01*
X15368257Y-6481464D01*
X15596828Y-6781464D02*
X15596828Y-6581464D01*
X15596828Y-6610036D02*
X15611114Y-6595750D01*
X15639686Y-6581464D01*
X15682543Y-6581464D01*
X15711114Y-6595750D01*
X15725400Y-6624321D01*
X15725400Y-6781464D01*
X15725400Y-6624321D02*
X15739686Y-6595750D01*
X15768257Y-6581464D01*
X15811114Y-6581464D01*
X15839686Y-6595750D01*
X15853971Y-6624321D01*
X15853971Y-6781464D01*
X15996828Y-6781464D02*
X15996828Y-6581464D01*
X15996828Y-6610036D02*
X16011114Y-6595750D01*
X16039686Y-6581464D01*
X16082543Y-6581464D01*
X16111114Y-6595750D01*
X16125400Y-6624321D01*
X16125400Y-6781464D01*
X16125400Y-6624321D02*
X16139686Y-6595750D01*
X16168257Y-6581464D01*
X16211114Y-6581464D01*
X16239686Y-6595750D01*
X16253971Y-6624321D01*
X16253971Y-6781464D01*
X16839686Y-6467179D02*
X16582543Y-6852893D01*
X17225400Y-6481464D02*
X17253971Y-6481464D01*
X17282543Y-6495750D01*
X17296828Y-6510036D01*
X17311114Y-6538607D01*
X17325400Y-6595750D01*
X17325400Y-6667179D01*
X17311114Y-6724321D01*
X17296828Y-6752893D01*
X17282543Y-6767179D01*
X17253971Y-6781464D01*
X17225400Y-6781464D01*
X17196828Y-6767179D01*
X17182543Y-6752893D01*
X17168257Y-6724321D01*
X17153971Y-6667179D01*
X17153971Y-6595750D01*
X17168257Y-6538607D01*
X17182543Y-6510036D01*
X17196828Y-6495750D01*
X17225400Y-6481464D01*
X17453971Y-6752893D02*
X17468257Y-6767179D01*
X17453971Y-6781464D01*
X17439686Y-6767179D01*
X17453971Y-6752893D01*
X17453971Y-6781464D01*
X17653971Y-6481464D02*
X17682543Y-6481464D01*
X17711114Y-6495750D01*
X17725400Y-6510036D01*
X17739686Y-6538607D01*
X17753971Y-6595750D01*
X17753971Y-6667179D01*
X17739686Y-6724321D01*
X17725400Y-6752893D01*
X17711114Y-6767179D01*
X17682543Y-6781464D01*
X17653971Y-6781464D01*
X17625400Y-6767179D01*
X17611114Y-6752893D01*
X17596828Y-6724321D01*
X17582543Y-6667179D01*
X17582543Y-6595750D01*
X17596828Y-6538607D01*
X17611114Y-6510036D01*
X17625400Y-6495750D01*
X17653971Y-6481464D01*
X18039686Y-6781464D02*
X17868257Y-6781464D01*
X17953971Y-6781464D02*
X17953971Y-6481464D01*
X17925400Y-6524321D01*
X17896828Y-6552893D01*
X17868257Y-6567179D01*
X18153971Y-6510036D02*
X18168257Y-6495750D01*
X18196828Y-6481464D01*
X18268257Y-6481464D01*
X18296828Y-6495750D01*
X18311114Y-6510036D01*
X18325400Y-6538607D01*
X18325400Y-6567179D01*
X18311114Y-6610036D01*
X18139686Y-6781464D01*
X18325400Y-6781464D01*
X18439686Y-6481464D02*
X18439686Y-6538607D01*
X18553971Y-6481464D02*
X18553971Y-6538607D01*
X18996828Y-6895750D02*
X18982543Y-6881464D01*
X18953971Y-6838607D01*
X18939686Y-6810036D01*
X18925400Y-6767179D01*
X18911114Y-6695750D01*
X18911114Y-6638607D01*
X18925400Y-6567179D01*
X18939686Y-6524321D01*
X18953971Y-6495750D01*
X18982543Y-6452893D01*
X18996828Y-6438607D01*
X19268257Y-6781464D02*
X19096828Y-6781464D01*
X19182543Y-6781464D02*
X19182543Y-6481464D01*
X19153971Y-6524321D01*
X19125400Y-6552893D01*
X19096828Y-6567179D01*
X19368257Y-6481464D02*
X19568257Y-6481464D01*
X19439686Y-6781464D01*
X19911114Y-6781464D02*
X19911114Y-6481464D01*
X20039686Y-6781464D02*
X20039686Y-6624321D01*
X20025400Y-6595750D01*
X19996828Y-6581464D01*
X19953971Y-6581464D01*
X19925400Y-6595750D01*
X19911114Y-6610036D01*
X20225400Y-6781464D02*
X20196828Y-6767179D01*
X20182543Y-6752893D01*
X20168257Y-6724321D01*
X20168257Y-6638607D01*
X20182543Y-6610036D01*
X20196828Y-6595750D01*
X20225400Y-6581464D01*
X20268257Y-6581464D01*
X20296828Y-6595750D01*
X20311114Y-6610036D01*
X20325400Y-6638607D01*
X20325400Y-6724321D01*
X20311114Y-6752893D01*
X20296828Y-6767179D01*
X20268257Y-6781464D01*
X20225400Y-6781464D01*
X20496828Y-6781464D02*
X20468257Y-6767179D01*
X20453971Y-6738607D01*
X20453971Y-6481464D01*
X20725400Y-6767179D02*
X20696828Y-6781464D01*
X20639686Y-6781464D01*
X20611114Y-6767179D01*
X20596828Y-6738607D01*
X20596828Y-6624321D01*
X20611114Y-6595750D01*
X20639686Y-6581464D01*
X20696828Y-6581464D01*
X20725400Y-6595750D01*
X20739686Y-6624321D01*
X20739686Y-6652893D01*
X20596828Y-6681464D01*
X20853971Y-6767179D02*
X20882543Y-6781464D01*
X20939686Y-6781464D01*
X20968257Y-6767179D01*
X20982543Y-6738607D01*
X20982543Y-6724321D01*
X20968257Y-6695750D01*
X20939686Y-6681464D01*
X20896828Y-6681464D01*
X20868257Y-6667179D01*
X20853971Y-6638607D01*
X20853971Y-6624321D01*
X20868257Y-6595750D01*
X20896828Y-6581464D01*
X20939686Y-6581464D01*
X20968257Y-6595750D01*
X21082543Y-6895750D02*
X21096828Y-6881464D01*
X21125400Y-6838607D01*
X21139686Y-6810036D01*
X21153971Y-6767179D01*
X21168257Y-6695750D01*
X21168257Y-6638607D01*
X21153971Y-6567179D01*
X21139686Y-6524321D01*
X21125400Y-6495750D01*
X21096828Y-6452893D01*
X21082543Y-6438607D01*
X14310400Y-7041750D02*
G75*
G03X14310400Y-7041750I-40000J0D01*
G01*
X14653971Y-6877464D02*
X14682543Y-6877464D01*
X14711114Y-6891750D01*
X14725400Y-6906036D01*
X14739686Y-6934607D01*
X14753971Y-6991750D01*
X14753971Y-7063179D01*
X14739686Y-7120321D01*
X14725400Y-7148893D01*
X14711114Y-7163179D01*
X14682543Y-7177464D01*
X14653971Y-7177464D01*
X14625400Y-7163179D01*
X14611114Y-7148893D01*
X14596828Y-7120321D01*
X14582543Y-7063179D01*
X14582543Y-6991750D01*
X14596828Y-6934607D01*
X14611114Y-6906036D01*
X14625400Y-6891750D01*
X14653971Y-6877464D01*
X14882543Y-7148893D02*
X14896828Y-7163179D01*
X14882543Y-7177464D01*
X14868257Y-7163179D01*
X14882543Y-7148893D01*
X14882543Y-7177464D01*
X15068257Y-7006036D02*
X15039686Y-6991750D01*
X15025400Y-6977464D01*
X15011114Y-6948893D01*
X15011114Y-6934607D01*
X15025400Y-6906036D01*
X15039686Y-6891750D01*
X15068257Y-6877464D01*
X15125400Y-6877464D01*
X15153971Y-6891750D01*
X15168257Y-6906036D01*
X15182543Y-6934607D01*
X15182543Y-6948893D01*
X15168257Y-6977464D01*
X15153971Y-6991750D01*
X15125400Y-7006036D01*
X15068257Y-7006036D01*
X15039686Y-7020321D01*
X15025400Y-7034607D01*
X15011114Y-7063179D01*
X15011114Y-7120321D01*
X15025400Y-7148893D01*
X15039686Y-7163179D01*
X15068257Y-7177464D01*
X15125400Y-7177464D01*
X15153971Y-7163179D01*
X15168257Y-7148893D01*
X15182543Y-7120321D01*
X15182543Y-7063179D01*
X15168257Y-7034607D01*
X15153971Y-7020321D01*
X15125400Y-7006036D01*
X15368257Y-6877464D02*
X15396828Y-6877464D01*
X15425400Y-6891750D01*
X15439686Y-6906036D01*
X15453971Y-6934607D01*
X15468257Y-6991750D01*
X15468257Y-7063179D01*
X15453971Y-7120321D01*
X15439686Y-7148893D01*
X15425400Y-7163179D01*
X15396828Y-7177464D01*
X15368257Y-7177464D01*
X15339686Y-7163179D01*
X15325400Y-7148893D01*
X15311114Y-7120321D01*
X15296828Y-7063179D01*
X15296828Y-6991750D01*
X15311114Y-6934607D01*
X15325400Y-6906036D01*
X15339686Y-6891750D01*
X15368257Y-6877464D01*
X15596828Y-7177464D02*
X15596828Y-6977464D01*
X15596828Y-7006036D02*
X15611114Y-6991750D01*
X15639686Y-6977464D01*
X15682543Y-6977464D01*
X15711114Y-6991750D01*
X15725400Y-7020321D01*
X15725400Y-7177464D01*
X15725400Y-7020321D02*
X15739686Y-6991750D01*
X15768257Y-6977464D01*
X15811114Y-6977464D01*
X15839686Y-6991750D01*
X15853971Y-7020321D01*
X15853971Y-7177464D01*
X15996828Y-7177464D02*
X15996828Y-6977464D01*
X15996828Y-7006036D02*
X16011114Y-6991750D01*
X16039686Y-6977464D01*
X16082543Y-6977464D01*
X16111114Y-6991750D01*
X16125400Y-7020321D01*
X16125400Y-7177464D01*
X16125400Y-7020321D02*
X16139686Y-6991750D01*
X16168257Y-6977464D01*
X16211114Y-6977464D01*
X16239686Y-6991750D01*
X16253971Y-7020321D01*
X16253971Y-7177464D01*
X16839686Y-6863179D02*
X16582543Y-7248893D01*
X17225400Y-6877464D02*
X17253971Y-6877464D01*
X17282543Y-6891750D01*
X17296828Y-6906036D01*
X17311114Y-6934607D01*
X17325400Y-6991750D01*
X17325400Y-7063179D01*
X17311114Y-7120321D01*
X17296828Y-7148893D01*
X17282543Y-7163179D01*
X17253971Y-7177464D01*
X17225400Y-7177464D01*
X17196828Y-7163179D01*
X17182543Y-7148893D01*
X17168257Y-7120321D01*
X17153971Y-7063179D01*
X17153971Y-6991750D01*
X17168257Y-6934607D01*
X17182543Y-6906036D01*
X17196828Y-6891750D01*
X17225400Y-6877464D01*
X17453971Y-7148893D02*
X17468257Y-7163179D01*
X17453971Y-7177464D01*
X17439686Y-7163179D01*
X17453971Y-7148893D01*
X17453971Y-7177464D01*
X17653971Y-6877464D02*
X17682543Y-6877464D01*
X17711114Y-6891750D01*
X17725400Y-6906036D01*
X17739686Y-6934607D01*
X17753971Y-6991750D01*
X17753971Y-7063179D01*
X17739686Y-7120321D01*
X17725400Y-7148893D01*
X17711114Y-7163179D01*
X17682543Y-7177464D01*
X17653971Y-7177464D01*
X17625400Y-7163179D01*
X17611114Y-7148893D01*
X17596828Y-7120321D01*
X17582543Y-7063179D01*
X17582543Y-6991750D01*
X17596828Y-6934607D01*
X17611114Y-6906036D01*
X17625400Y-6891750D01*
X17653971Y-6877464D01*
X17853971Y-6877464D02*
X18039686Y-6877464D01*
X17939686Y-6991750D01*
X17982543Y-6991750D01*
X18011114Y-7006036D01*
X18025400Y-7020321D01*
X18039686Y-7048893D01*
X18039686Y-7120321D01*
X18025400Y-7148893D01*
X18011114Y-7163179D01*
X17982543Y-7177464D01*
X17896828Y-7177464D01*
X17868257Y-7163179D01*
X17853971Y-7148893D01*
X18325400Y-7177464D02*
X18153971Y-7177464D01*
X18239686Y-7177464D02*
X18239686Y-6877464D01*
X18211114Y-6920321D01*
X18182543Y-6948893D01*
X18153971Y-6963179D01*
X18439686Y-6877464D02*
X18439686Y-6934607D01*
X18553971Y-6877464D02*
X18553971Y-6934607D01*
X18996828Y-7291750D02*
X18982543Y-7277464D01*
X18953971Y-7234607D01*
X18939686Y-7206036D01*
X18925400Y-7163179D01*
X18911114Y-7091750D01*
X18911114Y-7034607D01*
X18925400Y-6963179D01*
X18939686Y-6920321D01*
X18953971Y-6891750D01*
X18982543Y-6848893D01*
X18996828Y-6834607D01*
X19268257Y-7177464D02*
X19096828Y-7177464D01*
X19182543Y-7177464D02*
X19182543Y-6877464D01*
X19153971Y-6920321D01*
X19125400Y-6948893D01*
X19096828Y-6963179D01*
X19382543Y-6906036D02*
X19396828Y-6891750D01*
X19425400Y-6877464D01*
X19496828Y-6877464D01*
X19525400Y-6891750D01*
X19539686Y-6906036D01*
X19553971Y-6934607D01*
X19553971Y-6963179D01*
X19539686Y-7006036D01*
X19368257Y-7177464D01*
X19553971Y-7177464D01*
X19911114Y-7177464D02*
X19911114Y-6877464D01*
X20039686Y-7177464D02*
X20039686Y-7020321D01*
X20025400Y-6991750D01*
X19996828Y-6977464D01*
X19953971Y-6977464D01*
X19925400Y-6991750D01*
X19911114Y-7006036D01*
X20225400Y-7177464D02*
X20196828Y-7163179D01*
X20182543Y-7148893D01*
X20168257Y-7120321D01*
X20168257Y-7034607D01*
X20182543Y-7006036D01*
X20196828Y-6991750D01*
X20225400Y-6977464D01*
X20268257Y-6977464D01*
X20296828Y-6991750D01*
X20311114Y-7006036D01*
X20325400Y-7034607D01*
X20325400Y-7120321D01*
X20311114Y-7148893D01*
X20296828Y-7163179D01*
X20268257Y-7177464D01*
X20225400Y-7177464D01*
X20496828Y-7177464D02*
X20468257Y-7163179D01*
X20453971Y-7134607D01*
X20453971Y-6877464D01*
X20725400Y-7163179D02*
X20696828Y-7177464D01*
X20639686Y-7177464D01*
X20611114Y-7163179D01*
X20596828Y-7134607D01*
X20596828Y-7020321D01*
X20611114Y-6991750D01*
X20639686Y-6977464D01*
X20696828Y-6977464D01*
X20725400Y-6991750D01*
X20739686Y-7020321D01*
X20739686Y-7048893D01*
X20596828Y-7077464D01*
X20853971Y-7163179D02*
X20882543Y-7177464D01*
X20939686Y-7177464D01*
X20968257Y-7163179D01*
X20982543Y-7134607D01*
X20982543Y-7120321D01*
X20968257Y-7091750D01*
X20939686Y-7077464D01*
X20896828Y-7077464D01*
X20868257Y-7063179D01*
X20853971Y-7034607D01*
X20853971Y-7020321D01*
X20868257Y-6991750D01*
X20896828Y-6977464D01*
X20939686Y-6977464D01*
X20968257Y-6991750D01*
X21082543Y-7291750D02*
X21096828Y-7277464D01*
X21125400Y-7234607D01*
X21139686Y-7206036D01*
X21153971Y-7163179D01*
X21168257Y-7091750D01*
X21168257Y-7034607D01*
X21153971Y-6963179D01*
X21139686Y-6920321D01*
X21125400Y-6891750D01*
X21096828Y-6848893D01*
X21082543Y-6834607D01*
M02*
