G04 #@! TF.GenerationSoftware,KiCad,Pcbnew,(5.1.5)-3*
G04 #@! TF.CreationDate,2020-05-06T05:02:29-04:00*
G04 #@! TF.ProjectId,pi1541translator,70693135-3431-4747-9261-6e736c61746f,rev?*
G04 #@! TF.SameCoordinates,Original*
G04 #@! TF.FileFunction,Legend,Bot*
G04 #@! TF.FilePolarity,Positive*
%FSLAX46Y46*%
G04 Gerber Fmt 4.6, Leading zero omitted, Abs format (unit mm)*
G04 Created by KiCad (PCBNEW (5.1.5)-3) date 2020-05-06 05:02:29*
%MOMM*%
%LPD*%
G04 APERTURE LIST*
%ADD10C,0.275000*%
G04 APERTURE END LIST*
D10*
X150140167Y-43193143D02*
X148390167Y-43193143D01*
X148390167Y-43764572D01*
X148473501Y-43907429D01*
X148556834Y-43978858D01*
X148723501Y-44050286D01*
X148973501Y-44050286D01*
X149140167Y-43978858D01*
X149223501Y-43907429D01*
X149306834Y-43764572D01*
X149306834Y-43193143D01*
X150140167Y-44693143D02*
X148973501Y-44693143D01*
X148390167Y-44693143D02*
X148473501Y-44621715D01*
X148556834Y-44693143D01*
X148473501Y-44764572D01*
X148390167Y-44693143D01*
X148556834Y-44693143D01*
X150140167Y-46193143D02*
X150140167Y-45336001D01*
X150140167Y-45764572D02*
X148390167Y-45764572D01*
X148640167Y-45621715D01*
X148806834Y-45478858D01*
X148890167Y-45336001D01*
X148390167Y-47550286D02*
X148390167Y-46836001D01*
X149223501Y-46764572D01*
X149140167Y-46836001D01*
X149056834Y-46978858D01*
X149056834Y-47336001D01*
X149140167Y-47478858D01*
X149223501Y-47550286D01*
X149390167Y-47621715D01*
X149806834Y-47621715D01*
X149973501Y-47550286D01*
X150056834Y-47478858D01*
X150140167Y-47336001D01*
X150140167Y-46978858D01*
X150056834Y-46836001D01*
X149973501Y-46764572D01*
X148973501Y-48907429D02*
X150140167Y-48907429D01*
X148306834Y-48550286D02*
X149556834Y-48193143D01*
X149556834Y-49121715D01*
X150140167Y-50478858D02*
X150140167Y-49621715D01*
X150140167Y-50050286D02*
X148390167Y-50050286D01*
X148640167Y-49907429D01*
X148806834Y-49764572D01*
X148890167Y-49621715D01*
X148390167Y-50978858D02*
X150140167Y-51978858D01*
X148390167Y-51978858D02*
X150140167Y-50978858D01*
X150140167Y-53264572D02*
X150140167Y-52550286D01*
X148390167Y-52550286D01*
X149640167Y-53693143D02*
X149640167Y-54407429D01*
X150140167Y-53550286D02*
X148390167Y-54050286D01*
X150140167Y-54550286D01*
X148390167Y-54836001D02*
X148390167Y-55693143D01*
X150140167Y-55264572D02*
X148390167Y-55264572D01*
M02*
