M48
; DRILL file {KiCad (5.1.5)-3} date 5/6/2020 5:02:32 AM
; FORMAT={-:-/ absolute / inch / decimal}
; #@! TF.CreationDate,2020-05-06T05:02:32-04:00
; #@! TF.GenerationSoftware,Kicad,Pcbnew,(5.1.5)-3
; #@! TF.FileFunction,Plated,1,2,PTH
FMAT,2
INCH
T1C0.0118
T2C0.0315
%
G90
G05
T1
X5.6575Y-2.1425
X5.7325Y-1.7475
X5.7325Y-2.22
X5.74Y-1.665
X5.8075Y-1.7675
X5.8325Y-1.74
X5.885Y-1.7675
X5.8853Y-1.74
X5.8859Y-1.9534
X5.9625Y-1.86
X5.9625Y-2.05
X6.01Y-1.8775
X6.025Y-1.665
X6.0275Y-2.22
X6.0316Y-1.9534
X6.1025Y-2.1425
X6.11Y-1.7425
T2
X5.6799Y-1.6924
X5.6799Y-1.7924
X5.6799Y-1.8924
X5.6799Y-1.9924
X5.6799Y-2.0924
X5.6799Y-2.1924
X6.0799Y-1.6924
X6.0799Y-1.7924
X6.0799Y-1.8924
X6.0799Y-1.9924
X6.0799Y-2.0924
X6.0799Y-2.1924
T0
M30
