%FSLAX45Y45*%
G04 Gerber Fmt 4.5, Leading zero omitted, Abs format (unit mm)*
G04 Created by KiCad (PCBNEW (5.1.5)-3) date 2020-05-06 05:02:33*
%MOMM*%
%LPD*%
G04 APERTURE LIST*
%TA.AperFunction,Profile*%
%ADD10C,0.050000*%
%TD*%
%ADD11C,0.200000*%
%ADD12C,0.300000*%
G04 APERTURE END LIST*
D10*
X14312900Y-5683250D02*
X14312900Y-4184650D01*
X15557500Y-5683250D02*
X14312900Y-5683250D01*
X15557500Y-4184650D02*
X15557500Y-5683250D01*
X14312900Y-4184650D02*
X15557500Y-4184650D01*
D11*
D12*
X14596828Y-6151464D02*
X14596828Y-5851464D01*
X14668257Y-5851464D01*
X14711114Y-5865750D01*
X14739686Y-5894321D01*
X14753971Y-5922893D01*
X14768257Y-5980036D01*
X14768257Y-6022893D01*
X14753971Y-6080036D01*
X14739686Y-6108607D01*
X14711114Y-6137179D01*
X14668257Y-6151464D01*
X14596828Y-6151464D01*
X14896828Y-6151464D02*
X14896828Y-5951464D01*
X14896828Y-6008607D02*
X14911114Y-5980036D01*
X14925400Y-5965750D01*
X14953971Y-5951464D01*
X14982543Y-5951464D01*
X15082543Y-6151464D02*
X15082543Y-5951464D01*
X15082543Y-5851464D02*
X15068257Y-5865750D01*
X15082543Y-5880036D01*
X15096828Y-5865750D01*
X15082543Y-5851464D01*
X15082543Y-5880036D01*
X15268257Y-6151464D02*
X15239686Y-6137179D01*
X15225400Y-6108607D01*
X15225400Y-5851464D01*
X15425400Y-6151464D02*
X15396828Y-6137179D01*
X15382543Y-6108607D01*
X15382543Y-5851464D01*
X15768257Y-6151464D02*
X15768257Y-5851464D01*
X15868257Y-6065750D01*
X15968257Y-5851464D01*
X15968257Y-6151464D01*
X16239686Y-6151464D02*
X16239686Y-5994321D01*
X16225400Y-5965750D01*
X16196828Y-5951464D01*
X16139686Y-5951464D01*
X16111114Y-5965750D01*
X16239686Y-6137179D02*
X16211114Y-6151464D01*
X16139686Y-6151464D01*
X16111114Y-6137179D01*
X16096828Y-6108607D01*
X16096828Y-6080036D01*
X16111114Y-6051464D01*
X16139686Y-6037179D01*
X16211114Y-6037179D01*
X16239686Y-6022893D01*
X16382543Y-5951464D02*
X16382543Y-6251464D01*
X16382543Y-5965750D02*
X16411114Y-5951464D01*
X16468257Y-5951464D01*
X16496828Y-5965750D01*
X16511114Y-5980036D01*
X16525400Y-6008607D01*
X16525400Y-6094321D01*
X16511114Y-6122893D01*
X16496828Y-6137179D01*
X16468257Y-6151464D01*
X16411114Y-6151464D01*
X16382543Y-6137179D01*
X16653971Y-6122893D02*
X16668257Y-6137179D01*
X16653971Y-6151464D01*
X16639686Y-6137179D01*
X16653971Y-6122893D01*
X16653971Y-6151464D01*
X16653971Y-5965750D02*
X16668257Y-5980036D01*
X16653971Y-5994321D01*
X16639686Y-5980036D01*
X16653971Y-5965750D01*
X16653971Y-5994321D01*
M02*
