G04 #@! TF.GenerationSoftware,KiCad,Pcbnew,(5.1.5)-3*
G04 #@! TF.CreationDate,2020-06-23T04:08:34-04:00*
G04 #@! TF.ProjectId,dip16soic,64697031-3673-46f6-9963-2e6b69636164,rev?*
G04 #@! TF.SameCoordinates,Original*
G04 #@! TF.FileFunction,Soldermask,Bot*
G04 #@! TF.FilePolarity,Negative*
%FSLAX46Y46*%
G04 Gerber Fmt 4.6, Leading zero omitted, Abs format (unit mm)*
G04 Created by KiCad (PCBNEW (5.1.5)-3) date 2020-06-23 04:08:34*
%MOMM*%
%LPD*%
G04 APERTURE LIST*
%ADD10C,0.100000*%
G04 APERTURE END LIST*
D10*
G36*
X114548228Y-88081703D02*
G01*
X114703100Y-88145853D01*
X114842481Y-88238985D01*
X114961015Y-88357519D01*
X115054147Y-88496900D01*
X115118297Y-88651772D01*
X115151000Y-88816184D01*
X115151000Y-88983816D01*
X115118297Y-89148228D01*
X115054147Y-89303100D01*
X114961015Y-89442481D01*
X114842481Y-89561015D01*
X114703100Y-89654147D01*
X114548228Y-89718297D01*
X114383816Y-89751000D01*
X114216184Y-89751000D01*
X114051772Y-89718297D01*
X113896900Y-89654147D01*
X113757519Y-89561015D01*
X113638985Y-89442481D01*
X113545853Y-89303100D01*
X113481703Y-89148228D01*
X113449000Y-88983816D01*
X113449000Y-88816184D01*
X113481703Y-88651772D01*
X113545853Y-88496900D01*
X113638985Y-88357519D01*
X113757519Y-88238985D01*
X113896900Y-88145853D01*
X114051772Y-88081703D01*
X114216184Y-88049000D01*
X114383816Y-88049000D01*
X114548228Y-88081703D01*
G37*
G36*
X106928228Y-88081703D02*
G01*
X107083100Y-88145853D01*
X107222481Y-88238985D01*
X107341015Y-88357519D01*
X107434147Y-88496900D01*
X107498297Y-88651772D01*
X107531000Y-88816184D01*
X107531000Y-88983816D01*
X107498297Y-89148228D01*
X107434147Y-89303100D01*
X107341015Y-89442481D01*
X107222481Y-89561015D01*
X107083100Y-89654147D01*
X106928228Y-89718297D01*
X106763816Y-89751000D01*
X106596184Y-89751000D01*
X106431772Y-89718297D01*
X106276900Y-89654147D01*
X106137519Y-89561015D01*
X106018985Y-89442481D01*
X105925853Y-89303100D01*
X105861703Y-89148228D01*
X105829000Y-88983816D01*
X105829000Y-88816184D01*
X105861703Y-88651772D01*
X105925853Y-88496900D01*
X106018985Y-88357519D01*
X106137519Y-88238985D01*
X106276900Y-88145853D01*
X106431772Y-88081703D01*
X106596184Y-88049000D01*
X106763816Y-88049000D01*
X106928228Y-88081703D01*
G37*
G36*
X106928228Y-85541703D02*
G01*
X107083100Y-85605853D01*
X107222481Y-85698985D01*
X107341015Y-85817519D01*
X107434147Y-85956900D01*
X107498297Y-86111772D01*
X107531000Y-86276184D01*
X107531000Y-86443816D01*
X107498297Y-86608228D01*
X107434147Y-86763100D01*
X107341015Y-86902481D01*
X107222481Y-87021015D01*
X107083100Y-87114147D01*
X106928228Y-87178297D01*
X106763816Y-87211000D01*
X106596184Y-87211000D01*
X106431772Y-87178297D01*
X106276900Y-87114147D01*
X106137519Y-87021015D01*
X106018985Y-86902481D01*
X105925853Y-86763100D01*
X105861703Y-86608228D01*
X105829000Y-86443816D01*
X105829000Y-86276184D01*
X105861703Y-86111772D01*
X105925853Y-85956900D01*
X106018985Y-85817519D01*
X106137519Y-85698985D01*
X106276900Y-85605853D01*
X106431772Y-85541703D01*
X106596184Y-85509000D01*
X106763816Y-85509000D01*
X106928228Y-85541703D01*
G37*
G36*
X114548228Y-85541703D02*
G01*
X114703100Y-85605853D01*
X114842481Y-85698985D01*
X114961015Y-85817519D01*
X115054147Y-85956900D01*
X115118297Y-86111772D01*
X115151000Y-86276184D01*
X115151000Y-86443816D01*
X115118297Y-86608228D01*
X115054147Y-86763100D01*
X114961015Y-86902481D01*
X114842481Y-87021015D01*
X114703100Y-87114147D01*
X114548228Y-87178297D01*
X114383816Y-87211000D01*
X114216184Y-87211000D01*
X114051772Y-87178297D01*
X113896900Y-87114147D01*
X113757519Y-87021015D01*
X113638985Y-86902481D01*
X113545853Y-86763100D01*
X113481703Y-86608228D01*
X113449000Y-86443816D01*
X113449000Y-86276184D01*
X113481703Y-86111772D01*
X113545853Y-85956900D01*
X113638985Y-85817519D01*
X113757519Y-85698985D01*
X113896900Y-85605853D01*
X114051772Y-85541703D01*
X114216184Y-85509000D01*
X114383816Y-85509000D01*
X114548228Y-85541703D01*
G37*
G36*
X114548228Y-83001703D02*
G01*
X114703100Y-83065853D01*
X114842481Y-83158985D01*
X114961015Y-83277519D01*
X115054147Y-83416900D01*
X115118297Y-83571772D01*
X115151000Y-83736184D01*
X115151000Y-83903816D01*
X115118297Y-84068228D01*
X115054147Y-84223100D01*
X114961015Y-84362481D01*
X114842481Y-84481015D01*
X114703100Y-84574147D01*
X114548228Y-84638297D01*
X114383816Y-84671000D01*
X114216184Y-84671000D01*
X114051772Y-84638297D01*
X113896900Y-84574147D01*
X113757519Y-84481015D01*
X113638985Y-84362481D01*
X113545853Y-84223100D01*
X113481703Y-84068228D01*
X113449000Y-83903816D01*
X113449000Y-83736184D01*
X113481703Y-83571772D01*
X113545853Y-83416900D01*
X113638985Y-83277519D01*
X113757519Y-83158985D01*
X113896900Y-83065853D01*
X114051772Y-83001703D01*
X114216184Y-82969000D01*
X114383816Y-82969000D01*
X114548228Y-83001703D01*
G37*
G36*
X106928228Y-83001703D02*
G01*
X107083100Y-83065853D01*
X107222481Y-83158985D01*
X107341015Y-83277519D01*
X107434147Y-83416900D01*
X107498297Y-83571772D01*
X107531000Y-83736184D01*
X107531000Y-83903816D01*
X107498297Y-84068228D01*
X107434147Y-84223100D01*
X107341015Y-84362481D01*
X107222481Y-84481015D01*
X107083100Y-84574147D01*
X106928228Y-84638297D01*
X106763816Y-84671000D01*
X106596184Y-84671000D01*
X106431772Y-84638297D01*
X106276900Y-84574147D01*
X106137519Y-84481015D01*
X106018985Y-84362481D01*
X105925853Y-84223100D01*
X105861703Y-84068228D01*
X105829000Y-83903816D01*
X105829000Y-83736184D01*
X105861703Y-83571772D01*
X105925853Y-83416900D01*
X106018985Y-83277519D01*
X106137519Y-83158985D01*
X106276900Y-83065853D01*
X106431772Y-83001703D01*
X106596184Y-82969000D01*
X106763816Y-82969000D01*
X106928228Y-83001703D01*
G37*
G36*
X114548228Y-80461703D02*
G01*
X114703100Y-80525853D01*
X114842481Y-80618985D01*
X114961015Y-80737519D01*
X115054147Y-80876900D01*
X115118297Y-81031772D01*
X115151000Y-81196184D01*
X115151000Y-81363816D01*
X115118297Y-81528228D01*
X115054147Y-81683100D01*
X114961015Y-81822481D01*
X114842481Y-81941015D01*
X114703100Y-82034147D01*
X114548228Y-82098297D01*
X114383816Y-82131000D01*
X114216184Y-82131000D01*
X114051772Y-82098297D01*
X113896900Y-82034147D01*
X113757519Y-81941015D01*
X113638985Y-81822481D01*
X113545853Y-81683100D01*
X113481703Y-81528228D01*
X113449000Y-81363816D01*
X113449000Y-81196184D01*
X113481703Y-81031772D01*
X113545853Y-80876900D01*
X113638985Y-80737519D01*
X113757519Y-80618985D01*
X113896900Y-80525853D01*
X114051772Y-80461703D01*
X114216184Y-80429000D01*
X114383816Y-80429000D01*
X114548228Y-80461703D01*
G37*
G36*
X106928228Y-80461703D02*
G01*
X107083100Y-80525853D01*
X107222481Y-80618985D01*
X107341015Y-80737519D01*
X107434147Y-80876900D01*
X107498297Y-81031772D01*
X107531000Y-81196184D01*
X107531000Y-81363816D01*
X107498297Y-81528228D01*
X107434147Y-81683100D01*
X107341015Y-81822481D01*
X107222481Y-81941015D01*
X107083100Y-82034147D01*
X106928228Y-82098297D01*
X106763816Y-82131000D01*
X106596184Y-82131000D01*
X106431772Y-82098297D01*
X106276900Y-82034147D01*
X106137519Y-81941015D01*
X106018985Y-81822481D01*
X105925853Y-81683100D01*
X105861703Y-81528228D01*
X105829000Y-81363816D01*
X105829000Y-81196184D01*
X105861703Y-81031772D01*
X105925853Y-80876900D01*
X106018985Y-80737519D01*
X106137519Y-80618985D01*
X106276900Y-80525853D01*
X106431772Y-80461703D01*
X106596184Y-80429000D01*
X106763816Y-80429000D01*
X106928228Y-80461703D01*
G37*
G36*
X111459674Y-80413465D02*
G01*
X111497367Y-80424899D01*
X111532103Y-80443466D01*
X111562548Y-80468452D01*
X111587534Y-80498897D01*
X111606101Y-80533633D01*
X111617535Y-80571326D01*
X111622000Y-80616661D01*
X111622000Y-81453339D01*
X111617535Y-81498674D01*
X111606101Y-81536367D01*
X111587534Y-81571103D01*
X111562548Y-81601548D01*
X111532103Y-81626534D01*
X111497367Y-81645101D01*
X111459674Y-81656535D01*
X111414339Y-81661000D01*
X110327661Y-81661000D01*
X110282326Y-81656535D01*
X110244633Y-81645101D01*
X110209897Y-81626534D01*
X110179452Y-81601548D01*
X110154466Y-81571103D01*
X110135899Y-81536367D01*
X110124465Y-81498674D01*
X110120000Y-81453339D01*
X110120000Y-80616661D01*
X110124465Y-80571326D01*
X110135899Y-80533633D01*
X110154466Y-80498897D01*
X110179452Y-80468452D01*
X110209897Y-80443466D01*
X110244633Y-80424899D01*
X110282326Y-80413465D01*
X110327661Y-80409000D01*
X111414339Y-80409000D01*
X111459674Y-80413465D01*
G37*
G36*
X111459674Y-78363465D02*
G01*
X111497367Y-78374899D01*
X111532103Y-78393466D01*
X111562548Y-78418452D01*
X111587534Y-78448897D01*
X111606101Y-78483633D01*
X111617535Y-78521326D01*
X111622000Y-78566661D01*
X111622000Y-79403339D01*
X111617535Y-79448674D01*
X111606101Y-79486367D01*
X111587534Y-79521103D01*
X111562548Y-79551548D01*
X111532103Y-79576534D01*
X111497367Y-79595101D01*
X111459674Y-79606535D01*
X111414339Y-79611000D01*
X110327661Y-79611000D01*
X110282326Y-79606535D01*
X110244633Y-79595101D01*
X110209897Y-79576534D01*
X110179452Y-79551548D01*
X110154466Y-79521103D01*
X110135899Y-79486367D01*
X110124465Y-79448674D01*
X110120000Y-79403339D01*
X110120000Y-78566661D01*
X110124465Y-78521326D01*
X110135899Y-78483633D01*
X110154466Y-78448897D01*
X110179452Y-78418452D01*
X110209897Y-78393466D01*
X110244633Y-78374899D01*
X110282326Y-78363465D01*
X110327661Y-78359000D01*
X111414339Y-78359000D01*
X111459674Y-78363465D01*
G37*
G36*
X106928228Y-77921703D02*
G01*
X107083100Y-77985853D01*
X107222481Y-78078985D01*
X107341015Y-78197519D01*
X107434147Y-78336900D01*
X107498297Y-78491772D01*
X107531000Y-78656184D01*
X107531000Y-78823816D01*
X107498297Y-78988228D01*
X107434147Y-79143100D01*
X107341015Y-79282481D01*
X107222481Y-79401015D01*
X107083100Y-79494147D01*
X106928228Y-79558297D01*
X106763816Y-79591000D01*
X106596184Y-79591000D01*
X106431772Y-79558297D01*
X106276900Y-79494147D01*
X106137519Y-79401015D01*
X106018985Y-79282481D01*
X105925853Y-79143100D01*
X105861703Y-78988228D01*
X105829000Y-78823816D01*
X105829000Y-78656184D01*
X105861703Y-78491772D01*
X105925853Y-78336900D01*
X106018985Y-78197519D01*
X106137519Y-78078985D01*
X106276900Y-77985853D01*
X106431772Y-77921703D01*
X106596184Y-77889000D01*
X106763816Y-77889000D01*
X106928228Y-77921703D01*
G37*
G36*
X114548228Y-77921703D02*
G01*
X114703100Y-77985853D01*
X114842481Y-78078985D01*
X114961015Y-78197519D01*
X115054147Y-78336900D01*
X115118297Y-78491772D01*
X115151000Y-78656184D01*
X115151000Y-78823816D01*
X115118297Y-78988228D01*
X115054147Y-79143100D01*
X114961015Y-79282481D01*
X114842481Y-79401015D01*
X114703100Y-79494147D01*
X114548228Y-79558297D01*
X114383816Y-79591000D01*
X114216184Y-79591000D01*
X114051772Y-79558297D01*
X113896900Y-79494147D01*
X113757519Y-79401015D01*
X113638985Y-79282481D01*
X113545853Y-79143100D01*
X113481703Y-78988228D01*
X113449000Y-78823816D01*
X113449000Y-78656184D01*
X113481703Y-78491772D01*
X113545853Y-78336900D01*
X113638985Y-78197519D01*
X113757519Y-78078985D01*
X113896900Y-77985853D01*
X114051772Y-77921703D01*
X114216184Y-77889000D01*
X114383816Y-77889000D01*
X114548228Y-77921703D01*
G37*
G36*
X106928228Y-75381703D02*
G01*
X107083100Y-75445853D01*
X107222481Y-75538985D01*
X107341015Y-75657519D01*
X107434147Y-75796900D01*
X107498297Y-75951772D01*
X107531000Y-76116184D01*
X107531000Y-76283816D01*
X107498297Y-76448228D01*
X107434147Y-76603100D01*
X107341015Y-76742481D01*
X107222481Y-76861015D01*
X107083100Y-76954147D01*
X106928228Y-77018297D01*
X106763816Y-77051000D01*
X106596184Y-77051000D01*
X106431772Y-77018297D01*
X106276900Y-76954147D01*
X106137519Y-76861015D01*
X106018985Y-76742481D01*
X105925853Y-76603100D01*
X105861703Y-76448228D01*
X105829000Y-76283816D01*
X105829000Y-76116184D01*
X105861703Y-75951772D01*
X105925853Y-75796900D01*
X106018985Y-75657519D01*
X106137519Y-75538985D01*
X106276900Y-75445853D01*
X106431772Y-75381703D01*
X106596184Y-75349000D01*
X106763816Y-75349000D01*
X106928228Y-75381703D01*
G37*
G36*
X114548228Y-75381703D02*
G01*
X114703100Y-75445853D01*
X114842481Y-75538985D01*
X114961015Y-75657519D01*
X115054147Y-75796900D01*
X115118297Y-75951772D01*
X115151000Y-76116184D01*
X115151000Y-76283816D01*
X115118297Y-76448228D01*
X115054147Y-76603100D01*
X114961015Y-76742481D01*
X114842481Y-76861015D01*
X114703100Y-76954147D01*
X114548228Y-77018297D01*
X114383816Y-77051000D01*
X114216184Y-77051000D01*
X114051772Y-77018297D01*
X113896900Y-76954147D01*
X113757519Y-76861015D01*
X113638985Y-76742481D01*
X113545853Y-76603100D01*
X113481703Y-76448228D01*
X113449000Y-76283816D01*
X113449000Y-76116184D01*
X113481703Y-75951772D01*
X113545853Y-75796900D01*
X113638985Y-75657519D01*
X113757519Y-75538985D01*
X113896900Y-75445853D01*
X114051772Y-75381703D01*
X114216184Y-75349000D01*
X114383816Y-75349000D01*
X114548228Y-75381703D01*
G37*
G36*
X106928228Y-72841703D02*
G01*
X107083100Y-72905853D01*
X107222481Y-72998985D01*
X107341015Y-73117519D01*
X107434147Y-73256900D01*
X107498297Y-73411772D01*
X107531000Y-73576184D01*
X107531000Y-73743816D01*
X107498297Y-73908228D01*
X107434147Y-74063100D01*
X107341015Y-74202481D01*
X107222481Y-74321015D01*
X107083100Y-74414147D01*
X106928228Y-74478297D01*
X106763816Y-74511000D01*
X106596184Y-74511000D01*
X106431772Y-74478297D01*
X106276900Y-74414147D01*
X106137519Y-74321015D01*
X106018985Y-74202481D01*
X105925853Y-74063100D01*
X105861703Y-73908228D01*
X105829000Y-73743816D01*
X105829000Y-73576184D01*
X105861703Y-73411772D01*
X105925853Y-73256900D01*
X106018985Y-73117519D01*
X106137519Y-72998985D01*
X106276900Y-72905853D01*
X106431772Y-72841703D01*
X106596184Y-72809000D01*
X106763816Y-72809000D01*
X106928228Y-72841703D01*
G37*
G36*
X114548228Y-72841703D02*
G01*
X114703100Y-72905853D01*
X114842481Y-72998985D01*
X114961015Y-73117519D01*
X115054147Y-73256900D01*
X115118297Y-73411772D01*
X115151000Y-73576184D01*
X115151000Y-73743816D01*
X115118297Y-73908228D01*
X115054147Y-74063100D01*
X114961015Y-74202481D01*
X114842481Y-74321015D01*
X114703100Y-74414147D01*
X114548228Y-74478297D01*
X114383816Y-74511000D01*
X114216184Y-74511000D01*
X114051772Y-74478297D01*
X113896900Y-74414147D01*
X113757519Y-74321015D01*
X113638985Y-74202481D01*
X113545853Y-74063100D01*
X113481703Y-73908228D01*
X113449000Y-73743816D01*
X113449000Y-73576184D01*
X113481703Y-73411772D01*
X113545853Y-73256900D01*
X113638985Y-73117519D01*
X113757519Y-72998985D01*
X113896900Y-72905853D01*
X114051772Y-72841703D01*
X114216184Y-72809000D01*
X114383816Y-72809000D01*
X114548228Y-72841703D01*
G37*
G36*
X114548228Y-70301703D02*
G01*
X114703100Y-70365853D01*
X114842481Y-70458985D01*
X114961015Y-70577519D01*
X115054147Y-70716900D01*
X115118297Y-70871772D01*
X115151000Y-71036184D01*
X115151000Y-71203816D01*
X115118297Y-71368228D01*
X115054147Y-71523100D01*
X114961015Y-71662481D01*
X114842481Y-71781015D01*
X114703100Y-71874147D01*
X114548228Y-71938297D01*
X114383816Y-71971000D01*
X114216184Y-71971000D01*
X114051772Y-71938297D01*
X113896900Y-71874147D01*
X113757519Y-71781015D01*
X113638985Y-71662481D01*
X113545853Y-71523100D01*
X113481703Y-71368228D01*
X113449000Y-71203816D01*
X113449000Y-71036184D01*
X113481703Y-70871772D01*
X113545853Y-70716900D01*
X113638985Y-70577519D01*
X113757519Y-70458985D01*
X113896900Y-70365853D01*
X114051772Y-70301703D01*
X114216184Y-70269000D01*
X114383816Y-70269000D01*
X114548228Y-70301703D01*
G37*
G36*
X107531000Y-71971000D02*
G01*
X105829000Y-71971000D01*
X105829000Y-70269000D01*
X107531000Y-70269000D01*
X107531000Y-71971000D01*
G37*
M02*
