G04 #@! TF.GenerationSoftware,KiCad,Pcbnew,(5.1.5)-3*
G04 #@! TF.CreationDate,2020-06-23T04:08:34-04:00*
G04 #@! TF.ProjectId,dip16soic,64697031-3673-46f6-9963-2e6b69636164,rev?*
G04 #@! TF.SameCoordinates,Original*
G04 #@! TF.FileFunction,Legend,Top*
G04 #@! TF.FilePolarity,Positive*
%FSLAX46Y46*%
G04 Gerber Fmt 4.6, Leading zero omitted, Abs format (unit mm)*
G04 Created by KiCad (PCBNEW (5.1.5)-3) date 2020-06-23 04:08:34*
%MOMM*%
%LPD*%
G04 APERTURE LIST*
%ADD10C,0.120000*%
%ADD11C,0.150000*%
G04 APERTURE END LIST*
D10*
X111490000Y-69790000D02*
G75*
G02X109490000Y-69790000I-1000000J0D01*
G01*
X109490000Y-69790000D02*
X107840000Y-69790000D01*
X107840000Y-69790000D02*
X107840000Y-90230000D01*
X107840000Y-90230000D02*
X113140000Y-90230000D01*
X113140000Y-90230000D02*
X113140000Y-69790000D01*
X113140000Y-69790000D02*
X111490000Y-69790000D01*
X114300000Y-85070000D02*
X116250000Y-85070000D01*
X114300000Y-85070000D02*
X112350000Y-85070000D01*
X114300000Y-74950000D02*
X116250000Y-74950000D01*
X114300000Y-74950000D02*
X110850000Y-74950000D01*
D11*
X109728095Y-68242380D02*
X109728095Y-69051904D01*
X109775714Y-69147142D01*
X109823333Y-69194761D01*
X109918571Y-69242380D01*
X110109047Y-69242380D01*
X110204285Y-69194761D01*
X110251904Y-69147142D01*
X110299523Y-69051904D01*
X110299523Y-68242380D01*
X111299523Y-69242380D02*
X110728095Y-69242380D01*
X111013809Y-69242380D02*
X111013809Y-68242380D01*
X110918571Y-68385238D01*
X110823333Y-68480476D01*
X110728095Y-68528095D01*
X113538095Y-73562380D02*
X113538095Y-74371904D01*
X113585714Y-74467142D01*
X113633333Y-74514761D01*
X113728571Y-74562380D01*
X113919047Y-74562380D01*
X114014285Y-74514761D01*
X114061904Y-74467142D01*
X114109523Y-74371904D01*
X114109523Y-73562380D01*
X114538095Y-73657619D02*
X114585714Y-73610000D01*
X114680952Y-73562380D01*
X114919047Y-73562380D01*
X115014285Y-73610000D01*
X115061904Y-73657619D01*
X115109523Y-73752857D01*
X115109523Y-73848095D01*
X115061904Y-73990952D01*
X114490476Y-74562380D01*
X115109523Y-74562380D01*
M02*
