G04 #@! TF.GenerationSoftware,KiCad,Pcbnew,(5.1.5)-3*
G04 #@! TF.CreationDate,2020-06-23T04:08:34-04:00*
G04 #@! TF.ProjectId,dip16soic,64697031-3673-46f6-9963-2e6b69636164,rev?*
G04 #@! TF.SameCoordinates,Original*
G04 #@! TF.FileFunction,Copper,L1,Top*
G04 #@! TF.FilePolarity,Positive*
%FSLAX46Y46*%
G04 Gerber Fmt 4.6, Leading zero omitted, Abs format (unit mm)*
G04 Created by KiCad (PCBNEW (5.1.5)-3) date 2020-06-23 04:08:34*
%MOMM*%
%LPD*%
G04 APERTURE LIST*
%ADD10R,1.600000X1.600000*%
%ADD11O,1.600000X1.600000*%
%ADD12C,0.100000*%
%ADD13C,0.800000*%
%ADD14C,0.250000*%
%ADD15C,0.239000*%
G04 APERTURE END LIST*
D10*
X106680000Y-71120000D03*
D11*
X114300000Y-88900000D03*
X106680000Y-73660000D03*
X114300000Y-86360000D03*
X106680000Y-76200000D03*
X114300000Y-83820000D03*
X106680000Y-78740000D03*
X114300000Y-81280000D03*
X106680000Y-81280000D03*
X114300000Y-78740000D03*
X106680000Y-83820000D03*
X114300000Y-76200000D03*
X106680000Y-86360000D03*
X114300000Y-73660000D03*
X106680000Y-88900000D03*
X114300000Y-71120000D03*
G04 #@! TA.AperFunction,SMDPad,CuDef*
D12*
G36*
X112664703Y-75265722D02*
G01*
X112679264Y-75267882D01*
X112693543Y-75271459D01*
X112707403Y-75276418D01*
X112720710Y-75282712D01*
X112733336Y-75290280D01*
X112745159Y-75299048D01*
X112756066Y-75308934D01*
X112765952Y-75319841D01*
X112774720Y-75331664D01*
X112782288Y-75344290D01*
X112788582Y-75357597D01*
X112793541Y-75371457D01*
X112797118Y-75385736D01*
X112799278Y-75400297D01*
X112800000Y-75415000D01*
X112800000Y-75715000D01*
X112799278Y-75729703D01*
X112797118Y-75744264D01*
X112793541Y-75758543D01*
X112788582Y-75772403D01*
X112782288Y-75785710D01*
X112774720Y-75798336D01*
X112765952Y-75810159D01*
X112756066Y-75821066D01*
X112745159Y-75830952D01*
X112733336Y-75839720D01*
X112720710Y-75847288D01*
X112707403Y-75853582D01*
X112693543Y-75858541D01*
X112679264Y-75862118D01*
X112664703Y-75864278D01*
X112650000Y-75865000D01*
X111000000Y-75865000D01*
X110985297Y-75864278D01*
X110970736Y-75862118D01*
X110956457Y-75858541D01*
X110942597Y-75853582D01*
X110929290Y-75847288D01*
X110916664Y-75839720D01*
X110904841Y-75830952D01*
X110893934Y-75821066D01*
X110884048Y-75810159D01*
X110875280Y-75798336D01*
X110867712Y-75785710D01*
X110861418Y-75772403D01*
X110856459Y-75758543D01*
X110852882Y-75744264D01*
X110850722Y-75729703D01*
X110850000Y-75715000D01*
X110850000Y-75415000D01*
X110850722Y-75400297D01*
X110852882Y-75385736D01*
X110856459Y-75371457D01*
X110861418Y-75357597D01*
X110867712Y-75344290D01*
X110875280Y-75331664D01*
X110884048Y-75319841D01*
X110893934Y-75308934D01*
X110904841Y-75299048D01*
X110916664Y-75290280D01*
X110929290Y-75282712D01*
X110942597Y-75276418D01*
X110956457Y-75271459D01*
X110970736Y-75267882D01*
X110985297Y-75265722D01*
X111000000Y-75265000D01*
X112650000Y-75265000D01*
X112664703Y-75265722D01*
G37*
G04 #@! TD.AperFunction*
G04 #@! TA.AperFunction,SMDPad,CuDef*
G36*
X112664703Y-76535722D02*
G01*
X112679264Y-76537882D01*
X112693543Y-76541459D01*
X112707403Y-76546418D01*
X112720710Y-76552712D01*
X112733336Y-76560280D01*
X112745159Y-76569048D01*
X112756066Y-76578934D01*
X112765952Y-76589841D01*
X112774720Y-76601664D01*
X112782288Y-76614290D01*
X112788582Y-76627597D01*
X112793541Y-76641457D01*
X112797118Y-76655736D01*
X112799278Y-76670297D01*
X112800000Y-76685000D01*
X112800000Y-76985000D01*
X112799278Y-76999703D01*
X112797118Y-77014264D01*
X112793541Y-77028543D01*
X112788582Y-77042403D01*
X112782288Y-77055710D01*
X112774720Y-77068336D01*
X112765952Y-77080159D01*
X112756066Y-77091066D01*
X112745159Y-77100952D01*
X112733336Y-77109720D01*
X112720710Y-77117288D01*
X112707403Y-77123582D01*
X112693543Y-77128541D01*
X112679264Y-77132118D01*
X112664703Y-77134278D01*
X112650000Y-77135000D01*
X111000000Y-77135000D01*
X110985297Y-77134278D01*
X110970736Y-77132118D01*
X110956457Y-77128541D01*
X110942597Y-77123582D01*
X110929290Y-77117288D01*
X110916664Y-77109720D01*
X110904841Y-77100952D01*
X110893934Y-77091066D01*
X110884048Y-77080159D01*
X110875280Y-77068336D01*
X110867712Y-77055710D01*
X110861418Y-77042403D01*
X110856459Y-77028543D01*
X110852882Y-77014264D01*
X110850722Y-76999703D01*
X110850000Y-76985000D01*
X110850000Y-76685000D01*
X110850722Y-76670297D01*
X110852882Y-76655736D01*
X110856459Y-76641457D01*
X110861418Y-76627597D01*
X110867712Y-76614290D01*
X110875280Y-76601664D01*
X110884048Y-76589841D01*
X110893934Y-76578934D01*
X110904841Y-76569048D01*
X110916664Y-76560280D01*
X110929290Y-76552712D01*
X110942597Y-76546418D01*
X110956457Y-76541459D01*
X110970736Y-76537882D01*
X110985297Y-76535722D01*
X111000000Y-76535000D01*
X112650000Y-76535000D01*
X112664703Y-76535722D01*
G37*
G04 #@! TD.AperFunction*
G04 #@! TA.AperFunction,SMDPad,CuDef*
G36*
X112664703Y-77805722D02*
G01*
X112679264Y-77807882D01*
X112693543Y-77811459D01*
X112707403Y-77816418D01*
X112720710Y-77822712D01*
X112733336Y-77830280D01*
X112745159Y-77839048D01*
X112756066Y-77848934D01*
X112765952Y-77859841D01*
X112774720Y-77871664D01*
X112782288Y-77884290D01*
X112788582Y-77897597D01*
X112793541Y-77911457D01*
X112797118Y-77925736D01*
X112799278Y-77940297D01*
X112800000Y-77955000D01*
X112800000Y-78255000D01*
X112799278Y-78269703D01*
X112797118Y-78284264D01*
X112793541Y-78298543D01*
X112788582Y-78312403D01*
X112782288Y-78325710D01*
X112774720Y-78338336D01*
X112765952Y-78350159D01*
X112756066Y-78361066D01*
X112745159Y-78370952D01*
X112733336Y-78379720D01*
X112720710Y-78387288D01*
X112707403Y-78393582D01*
X112693543Y-78398541D01*
X112679264Y-78402118D01*
X112664703Y-78404278D01*
X112650000Y-78405000D01*
X111000000Y-78405000D01*
X110985297Y-78404278D01*
X110970736Y-78402118D01*
X110956457Y-78398541D01*
X110942597Y-78393582D01*
X110929290Y-78387288D01*
X110916664Y-78379720D01*
X110904841Y-78370952D01*
X110893934Y-78361066D01*
X110884048Y-78350159D01*
X110875280Y-78338336D01*
X110867712Y-78325710D01*
X110861418Y-78312403D01*
X110856459Y-78298543D01*
X110852882Y-78284264D01*
X110850722Y-78269703D01*
X110850000Y-78255000D01*
X110850000Y-77955000D01*
X110850722Y-77940297D01*
X110852882Y-77925736D01*
X110856459Y-77911457D01*
X110861418Y-77897597D01*
X110867712Y-77884290D01*
X110875280Y-77871664D01*
X110884048Y-77859841D01*
X110893934Y-77848934D01*
X110904841Y-77839048D01*
X110916664Y-77830280D01*
X110929290Y-77822712D01*
X110942597Y-77816418D01*
X110956457Y-77811459D01*
X110970736Y-77807882D01*
X110985297Y-77805722D01*
X111000000Y-77805000D01*
X112650000Y-77805000D01*
X112664703Y-77805722D01*
G37*
G04 #@! TD.AperFunction*
G04 #@! TA.AperFunction,SMDPad,CuDef*
G36*
X112664703Y-79075722D02*
G01*
X112679264Y-79077882D01*
X112693543Y-79081459D01*
X112707403Y-79086418D01*
X112720710Y-79092712D01*
X112733336Y-79100280D01*
X112745159Y-79109048D01*
X112756066Y-79118934D01*
X112765952Y-79129841D01*
X112774720Y-79141664D01*
X112782288Y-79154290D01*
X112788582Y-79167597D01*
X112793541Y-79181457D01*
X112797118Y-79195736D01*
X112799278Y-79210297D01*
X112800000Y-79225000D01*
X112800000Y-79525000D01*
X112799278Y-79539703D01*
X112797118Y-79554264D01*
X112793541Y-79568543D01*
X112788582Y-79582403D01*
X112782288Y-79595710D01*
X112774720Y-79608336D01*
X112765952Y-79620159D01*
X112756066Y-79631066D01*
X112745159Y-79640952D01*
X112733336Y-79649720D01*
X112720710Y-79657288D01*
X112707403Y-79663582D01*
X112693543Y-79668541D01*
X112679264Y-79672118D01*
X112664703Y-79674278D01*
X112650000Y-79675000D01*
X111000000Y-79675000D01*
X110985297Y-79674278D01*
X110970736Y-79672118D01*
X110956457Y-79668541D01*
X110942597Y-79663582D01*
X110929290Y-79657288D01*
X110916664Y-79649720D01*
X110904841Y-79640952D01*
X110893934Y-79631066D01*
X110884048Y-79620159D01*
X110875280Y-79608336D01*
X110867712Y-79595710D01*
X110861418Y-79582403D01*
X110856459Y-79568543D01*
X110852882Y-79554264D01*
X110850722Y-79539703D01*
X110850000Y-79525000D01*
X110850000Y-79225000D01*
X110850722Y-79210297D01*
X110852882Y-79195736D01*
X110856459Y-79181457D01*
X110861418Y-79167597D01*
X110867712Y-79154290D01*
X110875280Y-79141664D01*
X110884048Y-79129841D01*
X110893934Y-79118934D01*
X110904841Y-79109048D01*
X110916664Y-79100280D01*
X110929290Y-79092712D01*
X110942597Y-79086418D01*
X110956457Y-79081459D01*
X110970736Y-79077882D01*
X110985297Y-79075722D01*
X111000000Y-79075000D01*
X112650000Y-79075000D01*
X112664703Y-79075722D01*
G37*
G04 #@! TD.AperFunction*
G04 #@! TA.AperFunction,SMDPad,CuDef*
G36*
X112664703Y-80345722D02*
G01*
X112679264Y-80347882D01*
X112693543Y-80351459D01*
X112707403Y-80356418D01*
X112720710Y-80362712D01*
X112733336Y-80370280D01*
X112745159Y-80379048D01*
X112756066Y-80388934D01*
X112765952Y-80399841D01*
X112774720Y-80411664D01*
X112782288Y-80424290D01*
X112788582Y-80437597D01*
X112793541Y-80451457D01*
X112797118Y-80465736D01*
X112799278Y-80480297D01*
X112800000Y-80495000D01*
X112800000Y-80795000D01*
X112799278Y-80809703D01*
X112797118Y-80824264D01*
X112793541Y-80838543D01*
X112788582Y-80852403D01*
X112782288Y-80865710D01*
X112774720Y-80878336D01*
X112765952Y-80890159D01*
X112756066Y-80901066D01*
X112745159Y-80910952D01*
X112733336Y-80919720D01*
X112720710Y-80927288D01*
X112707403Y-80933582D01*
X112693543Y-80938541D01*
X112679264Y-80942118D01*
X112664703Y-80944278D01*
X112650000Y-80945000D01*
X111000000Y-80945000D01*
X110985297Y-80944278D01*
X110970736Y-80942118D01*
X110956457Y-80938541D01*
X110942597Y-80933582D01*
X110929290Y-80927288D01*
X110916664Y-80919720D01*
X110904841Y-80910952D01*
X110893934Y-80901066D01*
X110884048Y-80890159D01*
X110875280Y-80878336D01*
X110867712Y-80865710D01*
X110861418Y-80852403D01*
X110856459Y-80838543D01*
X110852882Y-80824264D01*
X110850722Y-80809703D01*
X110850000Y-80795000D01*
X110850000Y-80495000D01*
X110850722Y-80480297D01*
X110852882Y-80465736D01*
X110856459Y-80451457D01*
X110861418Y-80437597D01*
X110867712Y-80424290D01*
X110875280Y-80411664D01*
X110884048Y-80399841D01*
X110893934Y-80388934D01*
X110904841Y-80379048D01*
X110916664Y-80370280D01*
X110929290Y-80362712D01*
X110942597Y-80356418D01*
X110956457Y-80351459D01*
X110970736Y-80347882D01*
X110985297Y-80345722D01*
X111000000Y-80345000D01*
X112650000Y-80345000D01*
X112664703Y-80345722D01*
G37*
G04 #@! TD.AperFunction*
G04 #@! TA.AperFunction,SMDPad,CuDef*
G36*
X112664703Y-81615722D02*
G01*
X112679264Y-81617882D01*
X112693543Y-81621459D01*
X112707403Y-81626418D01*
X112720710Y-81632712D01*
X112733336Y-81640280D01*
X112745159Y-81649048D01*
X112756066Y-81658934D01*
X112765952Y-81669841D01*
X112774720Y-81681664D01*
X112782288Y-81694290D01*
X112788582Y-81707597D01*
X112793541Y-81721457D01*
X112797118Y-81735736D01*
X112799278Y-81750297D01*
X112800000Y-81765000D01*
X112800000Y-82065000D01*
X112799278Y-82079703D01*
X112797118Y-82094264D01*
X112793541Y-82108543D01*
X112788582Y-82122403D01*
X112782288Y-82135710D01*
X112774720Y-82148336D01*
X112765952Y-82160159D01*
X112756066Y-82171066D01*
X112745159Y-82180952D01*
X112733336Y-82189720D01*
X112720710Y-82197288D01*
X112707403Y-82203582D01*
X112693543Y-82208541D01*
X112679264Y-82212118D01*
X112664703Y-82214278D01*
X112650000Y-82215000D01*
X111000000Y-82215000D01*
X110985297Y-82214278D01*
X110970736Y-82212118D01*
X110956457Y-82208541D01*
X110942597Y-82203582D01*
X110929290Y-82197288D01*
X110916664Y-82189720D01*
X110904841Y-82180952D01*
X110893934Y-82171066D01*
X110884048Y-82160159D01*
X110875280Y-82148336D01*
X110867712Y-82135710D01*
X110861418Y-82122403D01*
X110856459Y-82108543D01*
X110852882Y-82094264D01*
X110850722Y-82079703D01*
X110850000Y-82065000D01*
X110850000Y-81765000D01*
X110850722Y-81750297D01*
X110852882Y-81735736D01*
X110856459Y-81721457D01*
X110861418Y-81707597D01*
X110867712Y-81694290D01*
X110875280Y-81681664D01*
X110884048Y-81669841D01*
X110893934Y-81658934D01*
X110904841Y-81649048D01*
X110916664Y-81640280D01*
X110929290Y-81632712D01*
X110942597Y-81626418D01*
X110956457Y-81621459D01*
X110970736Y-81617882D01*
X110985297Y-81615722D01*
X111000000Y-81615000D01*
X112650000Y-81615000D01*
X112664703Y-81615722D01*
G37*
G04 #@! TD.AperFunction*
G04 #@! TA.AperFunction,SMDPad,CuDef*
G36*
X112664703Y-82885722D02*
G01*
X112679264Y-82887882D01*
X112693543Y-82891459D01*
X112707403Y-82896418D01*
X112720710Y-82902712D01*
X112733336Y-82910280D01*
X112745159Y-82919048D01*
X112756066Y-82928934D01*
X112765952Y-82939841D01*
X112774720Y-82951664D01*
X112782288Y-82964290D01*
X112788582Y-82977597D01*
X112793541Y-82991457D01*
X112797118Y-83005736D01*
X112799278Y-83020297D01*
X112800000Y-83035000D01*
X112800000Y-83335000D01*
X112799278Y-83349703D01*
X112797118Y-83364264D01*
X112793541Y-83378543D01*
X112788582Y-83392403D01*
X112782288Y-83405710D01*
X112774720Y-83418336D01*
X112765952Y-83430159D01*
X112756066Y-83441066D01*
X112745159Y-83450952D01*
X112733336Y-83459720D01*
X112720710Y-83467288D01*
X112707403Y-83473582D01*
X112693543Y-83478541D01*
X112679264Y-83482118D01*
X112664703Y-83484278D01*
X112650000Y-83485000D01*
X111000000Y-83485000D01*
X110985297Y-83484278D01*
X110970736Y-83482118D01*
X110956457Y-83478541D01*
X110942597Y-83473582D01*
X110929290Y-83467288D01*
X110916664Y-83459720D01*
X110904841Y-83450952D01*
X110893934Y-83441066D01*
X110884048Y-83430159D01*
X110875280Y-83418336D01*
X110867712Y-83405710D01*
X110861418Y-83392403D01*
X110856459Y-83378543D01*
X110852882Y-83364264D01*
X110850722Y-83349703D01*
X110850000Y-83335000D01*
X110850000Y-83035000D01*
X110850722Y-83020297D01*
X110852882Y-83005736D01*
X110856459Y-82991457D01*
X110861418Y-82977597D01*
X110867712Y-82964290D01*
X110875280Y-82951664D01*
X110884048Y-82939841D01*
X110893934Y-82928934D01*
X110904841Y-82919048D01*
X110916664Y-82910280D01*
X110929290Y-82902712D01*
X110942597Y-82896418D01*
X110956457Y-82891459D01*
X110970736Y-82887882D01*
X110985297Y-82885722D01*
X111000000Y-82885000D01*
X112650000Y-82885000D01*
X112664703Y-82885722D01*
G37*
G04 #@! TD.AperFunction*
G04 #@! TA.AperFunction,SMDPad,CuDef*
G36*
X112664703Y-84155722D02*
G01*
X112679264Y-84157882D01*
X112693543Y-84161459D01*
X112707403Y-84166418D01*
X112720710Y-84172712D01*
X112733336Y-84180280D01*
X112745159Y-84189048D01*
X112756066Y-84198934D01*
X112765952Y-84209841D01*
X112774720Y-84221664D01*
X112782288Y-84234290D01*
X112788582Y-84247597D01*
X112793541Y-84261457D01*
X112797118Y-84275736D01*
X112799278Y-84290297D01*
X112800000Y-84305000D01*
X112800000Y-84605000D01*
X112799278Y-84619703D01*
X112797118Y-84634264D01*
X112793541Y-84648543D01*
X112788582Y-84662403D01*
X112782288Y-84675710D01*
X112774720Y-84688336D01*
X112765952Y-84700159D01*
X112756066Y-84711066D01*
X112745159Y-84720952D01*
X112733336Y-84729720D01*
X112720710Y-84737288D01*
X112707403Y-84743582D01*
X112693543Y-84748541D01*
X112679264Y-84752118D01*
X112664703Y-84754278D01*
X112650000Y-84755000D01*
X111000000Y-84755000D01*
X110985297Y-84754278D01*
X110970736Y-84752118D01*
X110956457Y-84748541D01*
X110942597Y-84743582D01*
X110929290Y-84737288D01*
X110916664Y-84729720D01*
X110904841Y-84720952D01*
X110893934Y-84711066D01*
X110884048Y-84700159D01*
X110875280Y-84688336D01*
X110867712Y-84675710D01*
X110861418Y-84662403D01*
X110856459Y-84648543D01*
X110852882Y-84634264D01*
X110850722Y-84619703D01*
X110850000Y-84605000D01*
X110850000Y-84305000D01*
X110850722Y-84290297D01*
X110852882Y-84275736D01*
X110856459Y-84261457D01*
X110861418Y-84247597D01*
X110867712Y-84234290D01*
X110875280Y-84221664D01*
X110884048Y-84209841D01*
X110893934Y-84198934D01*
X110904841Y-84189048D01*
X110916664Y-84180280D01*
X110929290Y-84172712D01*
X110942597Y-84166418D01*
X110956457Y-84161459D01*
X110970736Y-84157882D01*
X110985297Y-84155722D01*
X111000000Y-84155000D01*
X112650000Y-84155000D01*
X112664703Y-84155722D01*
G37*
G04 #@! TD.AperFunction*
G04 #@! TA.AperFunction,SMDPad,CuDef*
G36*
X117614703Y-84155722D02*
G01*
X117629264Y-84157882D01*
X117643543Y-84161459D01*
X117657403Y-84166418D01*
X117670710Y-84172712D01*
X117683336Y-84180280D01*
X117695159Y-84189048D01*
X117706066Y-84198934D01*
X117715952Y-84209841D01*
X117724720Y-84221664D01*
X117732288Y-84234290D01*
X117738582Y-84247597D01*
X117743541Y-84261457D01*
X117747118Y-84275736D01*
X117749278Y-84290297D01*
X117750000Y-84305000D01*
X117750000Y-84605000D01*
X117749278Y-84619703D01*
X117747118Y-84634264D01*
X117743541Y-84648543D01*
X117738582Y-84662403D01*
X117732288Y-84675710D01*
X117724720Y-84688336D01*
X117715952Y-84700159D01*
X117706066Y-84711066D01*
X117695159Y-84720952D01*
X117683336Y-84729720D01*
X117670710Y-84737288D01*
X117657403Y-84743582D01*
X117643543Y-84748541D01*
X117629264Y-84752118D01*
X117614703Y-84754278D01*
X117600000Y-84755000D01*
X115950000Y-84755000D01*
X115935297Y-84754278D01*
X115920736Y-84752118D01*
X115906457Y-84748541D01*
X115892597Y-84743582D01*
X115879290Y-84737288D01*
X115866664Y-84729720D01*
X115854841Y-84720952D01*
X115843934Y-84711066D01*
X115834048Y-84700159D01*
X115825280Y-84688336D01*
X115817712Y-84675710D01*
X115811418Y-84662403D01*
X115806459Y-84648543D01*
X115802882Y-84634264D01*
X115800722Y-84619703D01*
X115800000Y-84605000D01*
X115800000Y-84305000D01*
X115800722Y-84290297D01*
X115802882Y-84275736D01*
X115806459Y-84261457D01*
X115811418Y-84247597D01*
X115817712Y-84234290D01*
X115825280Y-84221664D01*
X115834048Y-84209841D01*
X115843934Y-84198934D01*
X115854841Y-84189048D01*
X115866664Y-84180280D01*
X115879290Y-84172712D01*
X115892597Y-84166418D01*
X115906457Y-84161459D01*
X115920736Y-84157882D01*
X115935297Y-84155722D01*
X115950000Y-84155000D01*
X117600000Y-84155000D01*
X117614703Y-84155722D01*
G37*
G04 #@! TD.AperFunction*
G04 #@! TA.AperFunction,SMDPad,CuDef*
G36*
X117614703Y-82885722D02*
G01*
X117629264Y-82887882D01*
X117643543Y-82891459D01*
X117657403Y-82896418D01*
X117670710Y-82902712D01*
X117683336Y-82910280D01*
X117695159Y-82919048D01*
X117706066Y-82928934D01*
X117715952Y-82939841D01*
X117724720Y-82951664D01*
X117732288Y-82964290D01*
X117738582Y-82977597D01*
X117743541Y-82991457D01*
X117747118Y-83005736D01*
X117749278Y-83020297D01*
X117750000Y-83035000D01*
X117750000Y-83335000D01*
X117749278Y-83349703D01*
X117747118Y-83364264D01*
X117743541Y-83378543D01*
X117738582Y-83392403D01*
X117732288Y-83405710D01*
X117724720Y-83418336D01*
X117715952Y-83430159D01*
X117706066Y-83441066D01*
X117695159Y-83450952D01*
X117683336Y-83459720D01*
X117670710Y-83467288D01*
X117657403Y-83473582D01*
X117643543Y-83478541D01*
X117629264Y-83482118D01*
X117614703Y-83484278D01*
X117600000Y-83485000D01*
X115950000Y-83485000D01*
X115935297Y-83484278D01*
X115920736Y-83482118D01*
X115906457Y-83478541D01*
X115892597Y-83473582D01*
X115879290Y-83467288D01*
X115866664Y-83459720D01*
X115854841Y-83450952D01*
X115843934Y-83441066D01*
X115834048Y-83430159D01*
X115825280Y-83418336D01*
X115817712Y-83405710D01*
X115811418Y-83392403D01*
X115806459Y-83378543D01*
X115802882Y-83364264D01*
X115800722Y-83349703D01*
X115800000Y-83335000D01*
X115800000Y-83035000D01*
X115800722Y-83020297D01*
X115802882Y-83005736D01*
X115806459Y-82991457D01*
X115811418Y-82977597D01*
X115817712Y-82964290D01*
X115825280Y-82951664D01*
X115834048Y-82939841D01*
X115843934Y-82928934D01*
X115854841Y-82919048D01*
X115866664Y-82910280D01*
X115879290Y-82902712D01*
X115892597Y-82896418D01*
X115906457Y-82891459D01*
X115920736Y-82887882D01*
X115935297Y-82885722D01*
X115950000Y-82885000D01*
X117600000Y-82885000D01*
X117614703Y-82885722D01*
G37*
G04 #@! TD.AperFunction*
G04 #@! TA.AperFunction,SMDPad,CuDef*
G36*
X117614703Y-81615722D02*
G01*
X117629264Y-81617882D01*
X117643543Y-81621459D01*
X117657403Y-81626418D01*
X117670710Y-81632712D01*
X117683336Y-81640280D01*
X117695159Y-81649048D01*
X117706066Y-81658934D01*
X117715952Y-81669841D01*
X117724720Y-81681664D01*
X117732288Y-81694290D01*
X117738582Y-81707597D01*
X117743541Y-81721457D01*
X117747118Y-81735736D01*
X117749278Y-81750297D01*
X117750000Y-81765000D01*
X117750000Y-82065000D01*
X117749278Y-82079703D01*
X117747118Y-82094264D01*
X117743541Y-82108543D01*
X117738582Y-82122403D01*
X117732288Y-82135710D01*
X117724720Y-82148336D01*
X117715952Y-82160159D01*
X117706066Y-82171066D01*
X117695159Y-82180952D01*
X117683336Y-82189720D01*
X117670710Y-82197288D01*
X117657403Y-82203582D01*
X117643543Y-82208541D01*
X117629264Y-82212118D01*
X117614703Y-82214278D01*
X117600000Y-82215000D01*
X115950000Y-82215000D01*
X115935297Y-82214278D01*
X115920736Y-82212118D01*
X115906457Y-82208541D01*
X115892597Y-82203582D01*
X115879290Y-82197288D01*
X115866664Y-82189720D01*
X115854841Y-82180952D01*
X115843934Y-82171066D01*
X115834048Y-82160159D01*
X115825280Y-82148336D01*
X115817712Y-82135710D01*
X115811418Y-82122403D01*
X115806459Y-82108543D01*
X115802882Y-82094264D01*
X115800722Y-82079703D01*
X115800000Y-82065000D01*
X115800000Y-81765000D01*
X115800722Y-81750297D01*
X115802882Y-81735736D01*
X115806459Y-81721457D01*
X115811418Y-81707597D01*
X115817712Y-81694290D01*
X115825280Y-81681664D01*
X115834048Y-81669841D01*
X115843934Y-81658934D01*
X115854841Y-81649048D01*
X115866664Y-81640280D01*
X115879290Y-81632712D01*
X115892597Y-81626418D01*
X115906457Y-81621459D01*
X115920736Y-81617882D01*
X115935297Y-81615722D01*
X115950000Y-81615000D01*
X117600000Y-81615000D01*
X117614703Y-81615722D01*
G37*
G04 #@! TD.AperFunction*
G04 #@! TA.AperFunction,SMDPad,CuDef*
G36*
X117614703Y-80345722D02*
G01*
X117629264Y-80347882D01*
X117643543Y-80351459D01*
X117657403Y-80356418D01*
X117670710Y-80362712D01*
X117683336Y-80370280D01*
X117695159Y-80379048D01*
X117706066Y-80388934D01*
X117715952Y-80399841D01*
X117724720Y-80411664D01*
X117732288Y-80424290D01*
X117738582Y-80437597D01*
X117743541Y-80451457D01*
X117747118Y-80465736D01*
X117749278Y-80480297D01*
X117750000Y-80495000D01*
X117750000Y-80795000D01*
X117749278Y-80809703D01*
X117747118Y-80824264D01*
X117743541Y-80838543D01*
X117738582Y-80852403D01*
X117732288Y-80865710D01*
X117724720Y-80878336D01*
X117715952Y-80890159D01*
X117706066Y-80901066D01*
X117695159Y-80910952D01*
X117683336Y-80919720D01*
X117670710Y-80927288D01*
X117657403Y-80933582D01*
X117643543Y-80938541D01*
X117629264Y-80942118D01*
X117614703Y-80944278D01*
X117600000Y-80945000D01*
X115950000Y-80945000D01*
X115935297Y-80944278D01*
X115920736Y-80942118D01*
X115906457Y-80938541D01*
X115892597Y-80933582D01*
X115879290Y-80927288D01*
X115866664Y-80919720D01*
X115854841Y-80910952D01*
X115843934Y-80901066D01*
X115834048Y-80890159D01*
X115825280Y-80878336D01*
X115817712Y-80865710D01*
X115811418Y-80852403D01*
X115806459Y-80838543D01*
X115802882Y-80824264D01*
X115800722Y-80809703D01*
X115800000Y-80795000D01*
X115800000Y-80495000D01*
X115800722Y-80480297D01*
X115802882Y-80465736D01*
X115806459Y-80451457D01*
X115811418Y-80437597D01*
X115817712Y-80424290D01*
X115825280Y-80411664D01*
X115834048Y-80399841D01*
X115843934Y-80388934D01*
X115854841Y-80379048D01*
X115866664Y-80370280D01*
X115879290Y-80362712D01*
X115892597Y-80356418D01*
X115906457Y-80351459D01*
X115920736Y-80347882D01*
X115935297Y-80345722D01*
X115950000Y-80345000D01*
X117600000Y-80345000D01*
X117614703Y-80345722D01*
G37*
G04 #@! TD.AperFunction*
G04 #@! TA.AperFunction,SMDPad,CuDef*
G36*
X117614703Y-79075722D02*
G01*
X117629264Y-79077882D01*
X117643543Y-79081459D01*
X117657403Y-79086418D01*
X117670710Y-79092712D01*
X117683336Y-79100280D01*
X117695159Y-79109048D01*
X117706066Y-79118934D01*
X117715952Y-79129841D01*
X117724720Y-79141664D01*
X117732288Y-79154290D01*
X117738582Y-79167597D01*
X117743541Y-79181457D01*
X117747118Y-79195736D01*
X117749278Y-79210297D01*
X117750000Y-79225000D01*
X117750000Y-79525000D01*
X117749278Y-79539703D01*
X117747118Y-79554264D01*
X117743541Y-79568543D01*
X117738582Y-79582403D01*
X117732288Y-79595710D01*
X117724720Y-79608336D01*
X117715952Y-79620159D01*
X117706066Y-79631066D01*
X117695159Y-79640952D01*
X117683336Y-79649720D01*
X117670710Y-79657288D01*
X117657403Y-79663582D01*
X117643543Y-79668541D01*
X117629264Y-79672118D01*
X117614703Y-79674278D01*
X117600000Y-79675000D01*
X115950000Y-79675000D01*
X115935297Y-79674278D01*
X115920736Y-79672118D01*
X115906457Y-79668541D01*
X115892597Y-79663582D01*
X115879290Y-79657288D01*
X115866664Y-79649720D01*
X115854841Y-79640952D01*
X115843934Y-79631066D01*
X115834048Y-79620159D01*
X115825280Y-79608336D01*
X115817712Y-79595710D01*
X115811418Y-79582403D01*
X115806459Y-79568543D01*
X115802882Y-79554264D01*
X115800722Y-79539703D01*
X115800000Y-79525000D01*
X115800000Y-79225000D01*
X115800722Y-79210297D01*
X115802882Y-79195736D01*
X115806459Y-79181457D01*
X115811418Y-79167597D01*
X115817712Y-79154290D01*
X115825280Y-79141664D01*
X115834048Y-79129841D01*
X115843934Y-79118934D01*
X115854841Y-79109048D01*
X115866664Y-79100280D01*
X115879290Y-79092712D01*
X115892597Y-79086418D01*
X115906457Y-79081459D01*
X115920736Y-79077882D01*
X115935297Y-79075722D01*
X115950000Y-79075000D01*
X117600000Y-79075000D01*
X117614703Y-79075722D01*
G37*
G04 #@! TD.AperFunction*
G04 #@! TA.AperFunction,SMDPad,CuDef*
G36*
X117614703Y-77805722D02*
G01*
X117629264Y-77807882D01*
X117643543Y-77811459D01*
X117657403Y-77816418D01*
X117670710Y-77822712D01*
X117683336Y-77830280D01*
X117695159Y-77839048D01*
X117706066Y-77848934D01*
X117715952Y-77859841D01*
X117724720Y-77871664D01*
X117732288Y-77884290D01*
X117738582Y-77897597D01*
X117743541Y-77911457D01*
X117747118Y-77925736D01*
X117749278Y-77940297D01*
X117750000Y-77955000D01*
X117750000Y-78255000D01*
X117749278Y-78269703D01*
X117747118Y-78284264D01*
X117743541Y-78298543D01*
X117738582Y-78312403D01*
X117732288Y-78325710D01*
X117724720Y-78338336D01*
X117715952Y-78350159D01*
X117706066Y-78361066D01*
X117695159Y-78370952D01*
X117683336Y-78379720D01*
X117670710Y-78387288D01*
X117657403Y-78393582D01*
X117643543Y-78398541D01*
X117629264Y-78402118D01*
X117614703Y-78404278D01*
X117600000Y-78405000D01*
X115950000Y-78405000D01*
X115935297Y-78404278D01*
X115920736Y-78402118D01*
X115906457Y-78398541D01*
X115892597Y-78393582D01*
X115879290Y-78387288D01*
X115866664Y-78379720D01*
X115854841Y-78370952D01*
X115843934Y-78361066D01*
X115834048Y-78350159D01*
X115825280Y-78338336D01*
X115817712Y-78325710D01*
X115811418Y-78312403D01*
X115806459Y-78298543D01*
X115802882Y-78284264D01*
X115800722Y-78269703D01*
X115800000Y-78255000D01*
X115800000Y-77955000D01*
X115800722Y-77940297D01*
X115802882Y-77925736D01*
X115806459Y-77911457D01*
X115811418Y-77897597D01*
X115817712Y-77884290D01*
X115825280Y-77871664D01*
X115834048Y-77859841D01*
X115843934Y-77848934D01*
X115854841Y-77839048D01*
X115866664Y-77830280D01*
X115879290Y-77822712D01*
X115892597Y-77816418D01*
X115906457Y-77811459D01*
X115920736Y-77807882D01*
X115935297Y-77805722D01*
X115950000Y-77805000D01*
X117600000Y-77805000D01*
X117614703Y-77805722D01*
G37*
G04 #@! TD.AperFunction*
G04 #@! TA.AperFunction,SMDPad,CuDef*
G36*
X117614703Y-76535722D02*
G01*
X117629264Y-76537882D01*
X117643543Y-76541459D01*
X117657403Y-76546418D01*
X117670710Y-76552712D01*
X117683336Y-76560280D01*
X117695159Y-76569048D01*
X117706066Y-76578934D01*
X117715952Y-76589841D01*
X117724720Y-76601664D01*
X117732288Y-76614290D01*
X117738582Y-76627597D01*
X117743541Y-76641457D01*
X117747118Y-76655736D01*
X117749278Y-76670297D01*
X117750000Y-76685000D01*
X117750000Y-76985000D01*
X117749278Y-76999703D01*
X117747118Y-77014264D01*
X117743541Y-77028543D01*
X117738582Y-77042403D01*
X117732288Y-77055710D01*
X117724720Y-77068336D01*
X117715952Y-77080159D01*
X117706066Y-77091066D01*
X117695159Y-77100952D01*
X117683336Y-77109720D01*
X117670710Y-77117288D01*
X117657403Y-77123582D01*
X117643543Y-77128541D01*
X117629264Y-77132118D01*
X117614703Y-77134278D01*
X117600000Y-77135000D01*
X115950000Y-77135000D01*
X115935297Y-77134278D01*
X115920736Y-77132118D01*
X115906457Y-77128541D01*
X115892597Y-77123582D01*
X115879290Y-77117288D01*
X115866664Y-77109720D01*
X115854841Y-77100952D01*
X115843934Y-77091066D01*
X115834048Y-77080159D01*
X115825280Y-77068336D01*
X115817712Y-77055710D01*
X115811418Y-77042403D01*
X115806459Y-77028543D01*
X115802882Y-77014264D01*
X115800722Y-76999703D01*
X115800000Y-76985000D01*
X115800000Y-76685000D01*
X115800722Y-76670297D01*
X115802882Y-76655736D01*
X115806459Y-76641457D01*
X115811418Y-76627597D01*
X115817712Y-76614290D01*
X115825280Y-76601664D01*
X115834048Y-76589841D01*
X115843934Y-76578934D01*
X115854841Y-76569048D01*
X115866664Y-76560280D01*
X115879290Y-76552712D01*
X115892597Y-76546418D01*
X115906457Y-76541459D01*
X115920736Y-76537882D01*
X115935297Y-76535722D01*
X115950000Y-76535000D01*
X117600000Y-76535000D01*
X117614703Y-76535722D01*
G37*
G04 #@! TD.AperFunction*
G04 #@! TA.AperFunction,SMDPad,CuDef*
G36*
X117614703Y-75265722D02*
G01*
X117629264Y-75267882D01*
X117643543Y-75271459D01*
X117657403Y-75276418D01*
X117670710Y-75282712D01*
X117683336Y-75290280D01*
X117695159Y-75299048D01*
X117706066Y-75308934D01*
X117715952Y-75319841D01*
X117724720Y-75331664D01*
X117732288Y-75344290D01*
X117738582Y-75357597D01*
X117743541Y-75371457D01*
X117747118Y-75385736D01*
X117749278Y-75400297D01*
X117750000Y-75415000D01*
X117750000Y-75715000D01*
X117749278Y-75729703D01*
X117747118Y-75744264D01*
X117743541Y-75758543D01*
X117738582Y-75772403D01*
X117732288Y-75785710D01*
X117724720Y-75798336D01*
X117715952Y-75810159D01*
X117706066Y-75821066D01*
X117695159Y-75830952D01*
X117683336Y-75839720D01*
X117670710Y-75847288D01*
X117657403Y-75853582D01*
X117643543Y-75858541D01*
X117629264Y-75862118D01*
X117614703Y-75864278D01*
X117600000Y-75865000D01*
X115950000Y-75865000D01*
X115935297Y-75864278D01*
X115920736Y-75862118D01*
X115906457Y-75858541D01*
X115892597Y-75853582D01*
X115879290Y-75847288D01*
X115866664Y-75839720D01*
X115854841Y-75830952D01*
X115843934Y-75821066D01*
X115834048Y-75810159D01*
X115825280Y-75798336D01*
X115817712Y-75785710D01*
X115811418Y-75772403D01*
X115806459Y-75758543D01*
X115802882Y-75744264D01*
X115800722Y-75729703D01*
X115800000Y-75715000D01*
X115800000Y-75415000D01*
X115800722Y-75400297D01*
X115802882Y-75385736D01*
X115806459Y-75371457D01*
X115811418Y-75357597D01*
X115817712Y-75344290D01*
X115825280Y-75331664D01*
X115834048Y-75319841D01*
X115843934Y-75308934D01*
X115854841Y-75299048D01*
X115866664Y-75290280D01*
X115879290Y-75282712D01*
X115892597Y-75276418D01*
X115906457Y-75271459D01*
X115920736Y-75267882D01*
X115935297Y-75265722D01*
X115950000Y-75265000D01*
X117600000Y-75265000D01*
X117614703Y-75265722D01*
G37*
G04 #@! TD.AperFunction*
D13*
X110617000Y-71882000D03*
X108458000Y-73787000D03*
X108458000Y-76708000D03*
X108458000Y-80010000D03*
X108458000Y-83312000D03*
X110998000Y-88011000D03*
X117094000Y-89154000D03*
X117094000Y-70866000D03*
D14*
X109347000Y-74295000D02*
X109347000Y-72737000D01*
X109347000Y-72737000D02*
X107730000Y-71120000D01*
X110617000Y-75565000D02*
X109347000Y-74295000D01*
X107730000Y-71120000D02*
X106680000Y-71120000D01*
X111825000Y-75565000D02*
X110617000Y-75565000D01*
X109855000Y-76835000D02*
X106680000Y-73660000D01*
X111825000Y-76835000D02*
X109855000Y-76835000D01*
X114300000Y-88900000D02*
X116205000Y-88900000D01*
X116775000Y-88330000D02*
X116775000Y-84455000D01*
X116205000Y-88900000D02*
X116775000Y-88330000D01*
X108585000Y-78105000D02*
X106680000Y-76200000D01*
X111825000Y-78105000D02*
X108585000Y-78105000D01*
X115425001Y-85234999D02*
X115099999Y-85560001D01*
X115753242Y-83829990D02*
X115425001Y-84158231D01*
X116130010Y-83829990D02*
X115753242Y-83829990D01*
X115099999Y-85560001D02*
X114300000Y-86360000D01*
X115425001Y-84158231D02*
X115425001Y-85234999D01*
X116775000Y-83185000D02*
X116130010Y-83829990D01*
X108839000Y-78740000D02*
X106680000Y-78740000D01*
X111825000Y-79375000D02*
X109474000Y-79375000D01*
X109474000Y-79375000D02*
X108839000Y-78740000D01*
X114300000Y-82931000D02*
X114300000Y-83820000D01*
X114568002Y-82677000D02*
X114554000Y-82677000D01*
X116775000Y-81915000D02*
X115330002Y-81915000D01*
X114554000Y-82677000D02*
X114300000Y-82931000D01*
X115330002Y-81915000D02*
X114568002Y-82677000D01*
X108966000Y-81280000D02*
X106680000Y-81280000D01*
X111825000Y-80645000D02*
X109601000Y-80645000D01*
X109601000Y-80645000D02*
X108966000Y-81280000D01*
X114935000Y-80645000D02*
X114300000Y-81280000D01*
X116775000Y-80645000D02*
X114935000Y-80645000D01*
X108585000Y-81915000D02*
X106680000Y-83820000D01*
X111825000Y-81915000D02*
X108585000Y-81915000D01*
X116775000Y-79375000D02*
X114935000Y-79375000D01*
X114935000Y-79375000D02*
X114300000Y-78740000D01*
X114300000Y-71120000D02*
X116078000Y-71120000D01*
X116775000Y-71817000D02*
X116775000Y-75565000D01*
X116078000Y-71120000D02*
X116775000Y-71817000D01*
X111825000Y-84455000D02*
X110109000Y-84455000D01*
X110109000Y-84455000D02*
X109474000Y-85090000D01*
X109474000Y-86106000D02*
X106680000Y-88900000D01*
X109474000Y-85090000D02*
X109474000Y-86106000D01*
X114565630Y-77597000D02*
X114300000Y-77331370D01*
X114300000Y-77331370D02*
X114300000Y-76200000D01*
X115062000Y-77597000D02*
X114565630Y-77597000D01*
X115570000Y-78105000D02*
X115062000Y-77597000D01*
X116775000Y-78105000D02*
X115570000Y-78105000D01*
X109855000Y-83185000D02*
X106680000Y-86360000D01*
X111825000Y-83185000D02*
X109855000Y-83185000D01*
X115099999Y-74459999D02*
X114300000Y-73660000D01*
X115425001Y-74785001D02*
X115099999Y-74459999D01*
X115425001Y-75861769D02*
X115425001Y-74785001D01*
X115753242Y-76190010D02*
X115425001Y-75861769D01*
X116130010Y-76190010D02*
X115753242Y-76190010D01*
X116775000Y-76835000D02*
X116130010Y-76190010D01*
D15*
G36*
X110404144Y-83709144D02*
G01*
X110325728Y-83804693D01*
X110267461Y-83913704D01*
X110231580Y-84031989D01*
X110219464Y-84155000D01*
X110222500Y-84163625D01*
X110379375Y-84320500D01*
X111690500Y-84320500D01*
X111690500Y-84300500D01*
X111959500Y-84300500D01*
X111959500Y-84320500D01*
X111979500Y-84320500D01*
X111979500Y-84589500D01*
X111959500Y-84589500D01*
X111959500Y-85225625D01*
X112116375Y-85382500D01*
X112800000Y-85385536D01*
X112923011Y-85373420D01*
X113041296Y-85337539D01*
X113150307Y-85279272D01*
X113245856Y-85200856D01*
X113324272Y-85105307D01*
X113382539Y-84996296D01*
X113418420Y-84878011D01*
X113430536Y-84755000D01*
X113427500Y-84746375D01*
X113270627Y-84589502D01*
X113427500Y-84589502D01*
X113427500Y-84585865D01*
X113561500Y-84719865D01*
X113751245Y-84846649D01*
X113962078Y-84933979D01*
X114185898Y-84978500D01*
X114414102Y-84978500D01*
X114637922Y-84933979D01*
X114848755Y-84846649D01*
X114941502Y-84784678D01*
X114941502Y-85034726D01*
X114703177Y-85273051D01*
X114637922Y-85246021D01*
X114414102Y-85201500D01*
X114185898Y-85201500D01*
X113962078Y-85246021D01*
X113751245Y-85333351D01*
X113561500Y-85460135D01*
X113400135Y-85621500D01*
X113273351Y-85811245D01*
X113186021Y-86022078D01*
X113141500Y-86245898D01*
X113141500Y-86474102D01*
X113186021Y-86697922D01*
X113273351Y-86908755D01*
X113400135Y-87098500D01*
X113561500Y-87259865D01*
X113751245Y-87386649D01*
X113962078Y-87473979D01*
X114185898Y-87518500D01*
X114414102Y-87518500D01*
X114637922Y-87473979D01*
X114848755Y-87386649D01*
X115038500Y-87259865D01*
X115199865Y-87098500D01*
X115326649Y-86908755D01*
X115413979Y-86697922D01*
X115458500Y-86474102D01*
X115458500Y-86245898D01*
X115413979Y-86022078D01*
X115386949Y-85956823D01*
X115750094Y-85593678D01*
X115768541Y-85578539D01*
X115786677Y-85556441D01*
X115828961Y-85504918D01*
X115873858Y-85420922D01*
X115885513Y-85382500D01*
X115901505Y-85329781D01*
X115908501Y-85258748D01*
X115908501Y-85258739D01*
X115910839Y-85235000D01*
X115908501Y-85211261D01*
X115908501Y-85111147D01*
X115950000Y-85115234D01*
X116291501Y-85115234D01*
X116291500Y-88129728D01*
X116004728Y-88416500D01*
X115353679Y-88416500D01*
X115326649Y-88351245D01*
X115199865Y-88161500D01*
X115038500Y-88000135D01*
X114848755Y-87873351D01*
X114637922Y-87786021D01*
X114414102Y-87741500D01*
X114185898Y-87741500D01*
X113962078Y-87786021D01*
X113751245Y-87873351D01*
X113561500Y-88000135D01*
X113400135Y-88161500D01*
X113273351Y-88351245D01*
X113186021Y-88562078D01*
X113141500Y-88785898D01*
X113141500Y-89014102D01*
X113186021Y-89237922D01*
X113273351Y-89448755D01*
X113390780Y-89624500D01*
X107909738Y-89624500D01*
X108026922Y-89372836D01*
X108062613Y-89255161D01*
X107943486Y-89034500D01*
X106814500Y-89034500D01*
X106814500Y-89054500D01*
X106545500Y-89054500D01*
X106545500Y-89034500D01*
X106525500Y-89034500D01*
X106525500Y-88765500D01*
X106545500Y-88765500D01*
X106545500Y-88745500D01*
X106814500Y-88745500D01*
X106814500Y-88765500D01*
X107943486Y-88765500D01*
X108062613Y-88544839D01*
X108026922Y-88427164D01*
X107908796Y-88173478D01*
X107743448Y-87947712D01*
X107537232Y-87758542D01*
X107298073Y-87613237D01*
X107035162Y-87517382D01*
X106814502Y-87635719D01*
X106814502Y-87514442D01*
X107017922Y-87473979D01*
X107228755Y-87386649D01*
X107418500Y-87259865D01*
X107579865Y-87098500D01*
X107706649Y-86908755D01*
X107793979Y-86697922D01*
X107838500Y-86474102D01*
X107838500Y-86245898D01*
X107793979Y-86022078D01*
X107766949Y-85956823D01*
X108968772Y-84755000D01*
X110219464Y-84755000D01*
X110231580Y-84878011D01*
X110267461Y-84996296D01*
X110325728Y-85105307D01*
X110404144Y-85200856D01*
X110499693Y-85279272D01*
X110608704Y-85337539D01*
X110726989Y-85373420D01*
X110850000Y-85385536D01*
X111533625Y-85382500D01*
X111690500Y-85225625D01*
X111690500Y-84589500D01*
X110379375Y-84589500D01*
X110222500Y-84746375D01*
X110219464Y-84755000D01*
X108968772Y-84755000D01*
X110055273Y-83668500D01*
X110453668Y-83668500D01*
X110404144Y-83709144D01*
G37*
X110404144Y-83709144D02*
X110325728Y-83804693D01*
X110267461Y-83913704D01*
X110231580Y-84031989D01*
X110219464Y-84155000D01*
X110222500Y-84163625D01*
X110379375Y-84320500D01*
X111690500Y-84320500D01*
X111690500Y-84300500D01*
X111959500Y-84300500D01*
X111959500Y-84320500D01*
X111979500Y-84320500D01*
X111979500Y-84589500D01*
X111959500Y-84589500D01*
X111959500Y-85225625D01*
X112116375Y-85382500D01*
X112800000Y-85385536D01*
X112923011Y-85373420D01*
X113041296Y-85337539D01*
X113150307Y-85279272D01*
X113245856Y-85200856D01*
X113324272Y-85105307D01*
X113382539Y-84996296D01*
X113418420Y-84878011D01*
X113430536Y-84755000D01*
X113427500Y-84746375D01*
X113270627Y-84589502D01*
X113427500Y-84589502D01*
X113427500Y-84585865D01*
X113561500Y-84719865D01*
X113751245Y-84846649D01*
X113962078Y-84933979D01*
X114185898Y-84978500D01*
X114414102Y-84978500D01*
X114637922Y-84933979D01*
X114848755Y-84846649D01*
X114941502Y-84784678D01*
X114941502Y-85034726D01*
X114703177Y-85273051D01*
X114637922Y-85246021D01*
X114414102Y-85201500D01*
X114185898Y-85201500D01*
X113962078Y-85246021D01*
X113751245Y-85333351D01*
X113561500Y-85460135D01*
X113400135Y-85621500D01*
X113273351Y-85811245D01*
X113186021Y-86022078D01*
X113141500Y-86245898D01*
X113141500Y-86474102D01*
X113186021Y-86697922D01*
X113273351Y-86908755D01*
X113400135Y-87098500D01*
X113561500Y-87259865D01*
X113751245Y-87386649D01*
X113962078Y-87473979D01*
X114185898Y-87518500D01*
X114414102Y-87518500D01*
X114637922Y-87473979D01*
X114848755Y-87386649D01*
X115038500Y-87259865D01*
X115199865Y-87098500D01*
X115326649Y-86908755D01*
X115413979Y-86697922D01*
X115458500Y-86474102D01*
X115458500Y-86245898D01*
X115413979Y-86022078D01*
X115386949Y-85956823D01*
X115750094Y-85593678D01*
X115768541Y-85578539D01*
X115786677Y-85556441D01*
X115828961Y-85504918D01*
X115873858Y-85420922D01*
X115885513Y-85382500D01*
X115901505Y-85329781D01*
X115908501Y-85258748D01*
X115908501Y-85258739D01*
X115910839Y-85235000D01*
X115908501Y-85211261D01*
X115908501Y-85111147D01*
X115950000Y-85115234D01*
X116291501Y-85115234D01*
X116291500Y-88129728D01*
X116004728Y-88416500D01*
X115353679Y-88416500D01*
X115326649Y-88351245D01*
X115199865Y-88161500D01*
X115038500Y-88000135D01*
X114848755Y-87873351D01*
X114637922Y-87786021D01*
X114414102Y-87741500D01*
X114185898Y-87741500D01*
X113962078Y-87786021D01*
X113751245Y-87873351D01*
X113561500Y-88000135D01*
X113400135Y-88161500D01*
X113273351Y-88351245D01*
X113186021Y-88562078D01*
X113141500Y-88785898D01*
X113141500Y-89014102D01*
X113186021Y-89237922D01*
X113273351Y-89448755D01*
X113390780Y-89624500D01*
X107909738Y-89624500D01*
X108026922Y-89372836D01*
X108062613Y-89255161D01*
X107943486Y-89034500D01*
X106814500Y-89034500D01*
X106814500Y-89054500D01*
X106545500Y-89054500D01*
X106545500Y-89034500D01*
X106525500Y-89034500D01*
X106525500Y-88765500D01*
X106545500Y-88765500D01*
X106545500Y-88745500D01*
X106814500Y-88745500D01*
X106814500Y-88765500D01*
X107943486Y-88765500D01*
X108062613Y-88544839D01*
X108026922Y-88427164D01*
X107908796Y-88173478D01*
X107743448Y-87947712D01*
X107537232Y-87758542D01*
X107298073Y-87613237D01*
X107035162Y-87517382D01*
X106814502Y-87635719D01*
X106814502Y-87514442D01*
X107017922Y-87473979D01*
X107228755Y-87386649D01*
X107418500Y-87259865D01*
X107579865Y-87098500D01*
X107706649Y-86908755D01*
X107793979Y-86697922D01*
X107838500Y-86474102D01*
X107838500Y-86245898D01*
X107793979Y-86022078D01*
X107766949Y-85956823D01*
X108968772Y-84755000D01*
X110219464Y-84755000D01*
X110231580Y-84878011D01*
X110267461Y-84996296D01*
X110325728Y-85105307D01*
X110404144Y-85200856D01*
X110499693Y-85279272D01*
X110608704Y-85337539D01*
X110726989Y-85373420D01*
X110850000Y-85385536D01*
X111533625Y-85382500D01*
X111690500Y-85225625D01*
X111690500Y-84589500D01*
X110379375Y-84589500D01*
X110222500Y-84746375D01*
X110219464Y-84755000D01*
X108968772Y-84755000D01*
X110055273Y-83668500D01*
X110453668Y-83668500D01*
X110404144Y-83709144D01*
G36*
X117564500Y-89624500D02*
G01*
X115209220Y-89624500D01*
X115326649Y-89448755D01*
X115353679Y-89383500D01*
X116181261Y-89383500D01*
X116205000Y-89385838D01*
X116228739Y-89383500D01*
X116228749Y-89383500D01*
X116299782Y-89376504D01*
X116390923Y-89348857D01*
X116474918Y-89303960D01*
X116548540Y-89243540D01*
X116563679Y-89225093D01*
X117100093Y-88688679D01*
X117118540Y-88673540D01*
X117154205Y-88630082D01*
X117178960Y-88599919D01*
X117223857Y-88515923D01*
X117229888Y-88496040D01*
X117251504Y-88424782D01*
X117258500Y-88353749D01*
X117258500Y-88353746D01*
X117260839Y-88330000D01*
X117258500Y-88306254D01*
X117258500Y-85115234D01*
X117564500Y-85115234D01*
X117564500Y-89624500D01*
G37*
X117564500Y-89624500D02*
X115209220Y-89624500D01*
X115326649Y-89448755D01*
X115353679Y-89383500D01*
X116181261Y-89383500D01*
X116205000Y-89385838D01*
X116228739Y-89383500D01*
X116228749Y-89383500D01*
X116299782Y-89376504D01*
X116390923Y-89348857D01*
X116474918Y-89303960D01*
X116548540Y-89243540D01*
X116563679Y-89225093D01*
X117100093Y-88688679D01*
X117118540Y-88673540D01*
X117154205Y-88630082D01*
X117178960Y-88599919D01*
X117223857Y-88515923D01*
X117229888Y-88496040D01*
X117251504Y-88424782D01*
X117258500Y-88353749D01*
X117258500Y-88353746D01*
X117260839Y-88330000D01*
X117258500Y-88306254D01*
X117258500Y-85115234D01*
X117564500Y-85115234D01*
X117564500Y-89624500D01*
G36*
X110639210Y-82425790D02*
G01*
X110716529Y-82489244D01*
X110804742Y-82536395D01*
X110849592Y-82550000D01*
X110804742Y-82563605D01*
X110716529Y-82610756D01*
X110639210Y-82674210D01*
X110616814Y-82701500D01*
X109878738Y-82701500D01*
X109854999Y-82699162D01*
X109831260Y-82701500D01*
X109831251Y-82701500D01*
X109760218Y-82708496D01*
X109669077Y-82736143D01*
X109585081Y-82781040D01*
X109529906Y-82826321D01*
X109529902Y-82826325D01*
X109511460Y-82841460D01*
X109496325Y-82859902D01*
X107083177Y-85273051D01*
X107017922Y-85246021D01*
X106794102Y-85201500D01*
X106565898Y-85201500D01*
X106342078Y-85246021D01*
X106131245Y-85333351D01*
X105955500Y-85450780D01*
X105955500Y-84729220D01*
X106131245Y-84846649D01*
X106342078Y-84933979D01*
X106565898Y-84978500D01*
X106794102Y-84978500D01*
X107017922Y-84933979D01*
X107228755Y-84846649D01*
X107418500Y-84719865D01*
X107579865Y-84558500D01*
X107706649Y-84368755D01*
X107793979Y-84157922D01*
X107838500Y-83934102D01*
X107838500Y-83705898D01*
X107793979Y-83482078D01*
X107766949Y-83416823D01*
X108785272Y-82398500D01*
X110616814Y-82398500D01*
X110639210Y-82425790D01*
G37*
X110639210Y-82425790D02*
X110716529Y-82489244D01*
X110804742Y-82536395D01*
X110849592Y-82550000D01*
X110804742Y-82563605D01*
X110716529Y-82610756D01*
X110639210Y-82674210D01*
X110616814Y-82701500D01*
X109878738Y-82701500D01*
X109854999Y-82699162D01*
X109831260Y-82701500D01*
X109831251Y-82701500D01*
X109760218Y-82708496D01*
X109669077Y-82736143D01*
X109585081Y-82781040D01*
X109529906Y-82826321D01*
X109529902Y-82826325D01*
X109511460Y-82841460D01*
X109496325Y-82859902D01*
X107083177Y-85273051D01*
X107017922Y-85246021D01*
X106794102Y-85201500D01*
X106565898Y-85201500D01*
X106342078Y-85246021D01*
X106131245Y-85333351D01*
X105955500Y-85450780D01*
X105955500Y-84729220D01*
X106131245Y-84846649D01*
X106342078Y-84933979D01*
X106565898Y-84978500D01*
X106794102Y-84978500D01*
X107017922Y-84933979D01*
X107228755Y-84846649D01*
X107418500Y-84719865D01*
X107579865Y-84558500D01*
X107706649Y-84368755D01*
X107793979Y-84157922D01*
X107838500Y-83934102D01*
X107838500Y-83705898D01*
X107793979Y-83482078D01*
X107766949Y-83416823D01*
X108785272Y-82398500D01*
X110616814Y-82398500D01*
X110639210Y-82425790D01*
G36*
X113273351Y-70571245D02*
G01*
X113186021Y-70782078D01*
X113141500Y-71005898D01*
X113141500Y-71234102D01*
X113186021Y-71457922D01*
X113273351Y-71668755D01*
X113400135Y-71858500D01*
X113561500Y-72019865D01*
X113751245Y-72146649D01*
X113962078Y-72233979D01*
X114185898Y-72278500D01*
X114414102Y-72278500D01*
X114637922Y-72233979D01*
X114848755Y-72146649D01*
X115038500Y-72019865D01*
X115199865Y-71858500D01*
X115326649Y-71668755D01*
X115353679Y-71603500D01*
X115877728Y-71603500D01*
X116291500Y-72017272D01*
X116291501Y-74904766D01*
X115950000Y-74904766D01*
X115908501Y-74908853D01*
X115908501Y-74808739D01*
X115910839Y-74785000D01*
X115908501Y-74761261D01*
X115908501Y-74761252D01*
X115901505Y-74690219D01*
X115873858Y-74599078D01*
X115852898Y-74559865D01*
X115828961Y-74515082D01*
X115783680Y-74459908D01*
X115768541Y-74441461D01*
X115750094Y-74426322D01*
X115386949Y-74063177D01*
X115413979Y-73997922D01*
X115458500Y-73774102D01*
X115458500Y-73545898D01*
X115413979Y-73322078D01*
X115326649Y-73111245D01*
X115199865Y-72921500D01*
X115038500Y-72760135D01*
X114848755Y-72633351D01*
X114637922Y-72546021D01*
X114414102Y-72501500D01*
X114185898Y-72501500D01*
X113962078Y-72546021D01*
X113751245Y-72633351D01*
X113561500Y-72760135D01*
X113400135Y-72921500D01*
X113273351Y-73111245D01*
X113186021Y-73322078D01*
X113141500Y-73545898D01*
X113141500Y-73774102D01*
X113186021Y-73997922D01*
X113273351Y-74208755D01*
X113400135Y-74398500D01*
X113561500Y-74559865D01*
X113751245Y-74686649D01*
X113962078Y-74773979D01*
X114185898Y-74818500D01*
X114414102Y-74818500D01*
X114637922Y-74773979D01*
X114703177Y-74746949D01*
X114941502Y-74985274D01*
X114941502Y-75235322D01*
X114848755Y-75173351D01*
X114637922Y-75086021D01*
X114414102Y-75041500D01*
X114185898Y-75041500D01*
X113962078Y-75086021D01*
X113751245Y-75173351D01*
X113561500Y-75300135D01*
X113400135Y-75461500D01*
X113273351Y-75651245D01*
X113186021Y-75862078D01*
X113141500Y-76085898D01*
X113141500Y-76314102D01*
X113186021Y-76537922D01*
X113273351Y-76748755D01*
X113400135Y-76938500D01*
X113561500Y-77099865D01*
X113751245Y-77226649D01*
X113816500Y-77253679D01*
X113816500Y-77307631D01*
X113814162Y-77331370D01*
X113816500Y-77355109D01*
X113816500Y-77355118D01*
X113823496Y-77426151D01*
X113851143Y-77517292D01*
X113896040Y-77601288D01*
X113927942Y-77640161D01*
X113751245Y-77713351D01*
X113561500Y-77840135D01*
X113400135Y-78001500D01*
X113273351Y-78191245D01*
X113186021Y-78402078D01*
X113141500Y-78625898D01*
X113141500Y-78854102D01*
X113186021Y-79077922D01*
X113273351Y-79288755D01*
X113400135Y-79478500D01*
X113561500Y-79639865D01*
X113751245Y-79766649D01*
X113962078Y-79853979D01*
X114185898Y-79898500D01*
X114414102Y-79898500D01*
X114637922Y-79853979D01*
X114732297Y-79814888D01*
X114749077Y-79823857D01*
X114840218Y-79851504D01*
X114911251Y-79858500D01*
X114911254Y-79858500D01*
X114935000Y-79860839D01*
X114958746Y-79858500D01*
X115566814Y-79858500D01*
X115589210Y-79885790D01*
X115666529Y-79949244D01*
X115754742Y-79996395D01*
X115799592Y-80010000D01*
X115754742Y-80023605D01*
X115666529Y-80070756D01*
X115589210Y-80134210D01*
X115566814Y-80161500D01*
X114958746Y-80161500D01*
X114935000Y-80159161D01*
X114911254Y-80161500D01*
X114911251Y-80161500D01*
X114840218Y-80168496D01*
X114749077Y-80196143D01*
X114732297Y-80205112D01*
X114637922Y-80166021D01*
X114414102Y-80121500D01*
X114185898Y-80121500D01*
X113962078Y-80166021D01*
X113751245Y-80253351D01*
X113561500Y-80380135D01*
X113400135Y-80541500D01*
X113273351Y-80731245D01*
X113186021Y-80942078D01*
X113141500Y-81165898D01*
X113141500Y-81394102D01*
X113186021Y-81617922D01*
X113273351Y-81828755D01*
X113400135Y-82018500D01*
X113561500Y-82179865D01*
X113751245Y-82306649D01*
X113962078Y-82393979D01*
X114121531Y-82425697D01*
X113974907Y-82572321D01*
X113956460Y-82587460D01*
X113896040Y-82661082D01*
X113851143Y-82745078D01*
X113848751Y-82752963D01*
X113751245Y-82793351D01*
X113561500Y-82920135D01*
X113400135Y-83081500D01*
X113273351Y-83271245D01*
X113186021Y-83482078D01*
X113155590Y-83635064D01*
X113150307Y-83630728D01*
X113086051Y-83596383D01*
X113121395Y-83530258D01*
X113150430Y-83434542D01*
X113160234Y-83335000D01*
X113160234Y-83035000D01*
X113150430Y-82935458D01*
X113121395Y-82839742D01*
X113074244Y-82751529D01*
X113010790Y-82674210D01*
X112933471Y-82610756D01*
X112845258Y-82563605D01*
X112800408Y-82550000D01*
X112845258Y-82536395D01*
X112933471Y-82489244D01*
X113010790Y-82425790D01*
X113074244Y-82348471D01*
X113121395Y-82260258D01*
X113150430Y-82164542D01*
X113160234Y-82065000D01*
X113160234Y-81765000D01*
X113150430Y-81665458D01*
X113121395Y-81569742D01*
X113074244Y-81481529D01*
X113010790Y-81404210D01*
X112933471Y-81340756D01*
X112845258Y-81293605D01*
X112800408Y-81280000D01*
X112845258Y-81266395D01*
X112933471Y-81219244D01*
X113010790Y-81155790D01*
X113074244Y-81078471D01*
X113121395Y-80990258D01*
X113150430Y-80894542D01*
X113160234Y-80795000D01*
X113160234Y-80495000D01*
X113150430Y-80395458D01*
X113121395Y-80299742D01*
X113074244Y-80211529D01*
X113010790Y-80134210D01*
X112933471Y-80070756D01*
X112845258Y-80023605D01*
X112800408Y-80010000D01*
X112845258Y-79996395D01*
X112933471Y-79949244D01*
X113010790Y-79885790D01*
X113074244Y-79808471D01*
X113121395Y-79720258D01*
X113150430Y-79624542D01*
X113160234Y-79525000D01*
X113160234Y-79225000D01*
X113150430Y-79125458D01*
X113121395Y-79029742D01*
X113074244Y-78941529D01*
X113010790Y-78864210D01*
X112933471Y-78800756D01*
X112845258Y-78753605D01*
X112800408Y-78740000D01*
X112845258Y-78726395D01*
X112933471Y-78679244D01*
X113010790Y-78615790D01*
X113074244Y-78538471D01*
X113121395Y-78450258D01*
X113150430Y-78354542D01*
X113160234Y-78255000D01*
X113160234Y-77955000D01*
X113150430Y-77855458D01*
X113121395Y-77759742D01*
X113074244Y-77671529D01*
X113010790Y-77594210D01*
X112933471Y-77530756D01*
X112845258Y-77483605D01*
X112800408Y-77470000D01*
X112845258Y-77456395D01*
X112933471Y-77409244D01*
X113010790Y-77345790D01*
X113074244Y-77268471D01*
X113121395Y-77180258D01*
X113150430Y-77084542D01*
X113160234Y-76985000D01*
X113160234Y-76685000D01*
X113150430Y-76585458D01*
X113121395Y-76489742D01*
X113074244Y-76401529D01*
X113010790Y-76324210D01*
X112933471Y-76260756D01*
X112845258Y-76213605D01*
X112800408Y-76200000D01*
X112845258Y-76186395D01*
X112933471Y-76139244D01*
X113010790Y-76075790D01*
X113074244Y-75998471D01*
X113121395Y-75910258D01*
X113150430Y-75814542D01*
X113160234Y-75715000D01*
X113160234Y-75415000D01*
X113150430Y-75315458D01*
X113121395Y-75219742D01*
X113074244Y-75131529D01*
X113010790Y-75054210D01*
X112933471Y-74990756D01*
X112845258Y-74943605D01*
X112749542Y-74914570D01*
X112650000Y-74904766D01*
X111000000Y-74904766D01*
X110900458Y-74914570D01*
X110804742Y-74943605D01*
X110723046Y-74987273D01*
X109830500Y-74094728D01*
X109830500Y-72760738D01*
X109832838Y-72736999D01*
X109830500Y-72713260D01*
X109830500Y-72713251D01*
X109823504Y-72642218D01*
X109795857Y-72551077D01*
X109750960Y-72467082D01*
X109690540Y-72393460D01*
X109672093Y-72378321D01*
X108088679Y-70794907D01*
X108073540Y-70776460D01*
X107999918Y-70716040D01*
X107915923Y-70671143D01*
X107840234Y-70648183D01*
X107840234Y-70395500D01*
X113390780Y-70395500D01*
X113273351Y-70571245D01*
G37*
X113273351Y-70571245D02*
X113186021Y-70782078D01*
X113141500Y-71005898D01*
X113141500Y-71234102D01*
X113186021Y-71457922D01*
X113273351Y-71668755D01*
X113400135Y-71858500D01*
X113561500Y-72019865D01*
X113751245Y-72146649D01*
X113962078Y-72233979D01*
X114185898Y-72278500D01*
X114414102Y-72278500D01*
X114637922Y-72233979D01*
X114848755Y-72146649D01*
X115038500Y-72019865D01*
X115199865Y-71858500D01*
X115326649Y-71668755D01*
X115353679Y-71603500D01*
X115877728Y-71603500D01*
X116291500Y-72017272D01*
X116291501Y-74904766D01*
X115950000Y-74904766D01*
X115908501Y-74908853D01*
X115908501Y-74808739D01*
X115910839Y-74785000D01*
X115908501Y-74761261D01*
X115908501Y-74761252D01*
X115901505Y-74690219D01*
X115873858Y-74599078D01*
X115852898Y-74559865D01*
X115828961Y-74515082D01*
X115783680Y-74459908D01*
X115768541Y-74441461D01*
X115750094Y-74426322D01*
X115386949Y-74063177D01*
X115413979Y-73997922D01*
X115458500Y-73774102D01*
X115458500Y-73545898D01*
X115413979Y-73322078D01*
X115326649Y-73111245D01*
X115199865Y-72921500D01*
X115038500Y-72760135D01*
X114848755Y-72633351D01*
X114637922Y-72546021D01*
X114414102Y-72501500D01*
X114185898Y-72501500D01*
X113962078Y-72546021D01*
X113751245Y-72633351D01*
X113561500Y-72760135D01*
X113400135Y-72921500D01*
X113273351Y-73111245D01*
X113186021Y-73322078D01*
X113141500Y-73545898D01*
X113141500Y-73774102D01*
X113186021Y-73997922D01*
X113273351Y-74208755D01*
X113400135Y-74398500D01*
X113561500Y-74559865D01*
X113751245Y-74686649D01*
X113962078Y-74773979D01*
X114185898Y-74818500D01*
X114414102Y-74818500D01*
X114637922Y-74773979D01*
X114703177Y-74746949D01*
X114941502Y-74985274D01*
X114941502Y-75235322D01*
X114848755Y-75173351D01*
X114637922Y-75086021D01*
X114414102Y-75041500D01*
X114185898Y-75041500D01*
X113962078Y-75086021D01*
X113751245Y-75173351D01*
X113561500Y-75300135D01*
X113400135Y-75461500D01*
X113273351Y-75651245D01*
X113186021Y-75862078D01*
X113141500Y-76085898D01*
X113141500Y-76314102D01*
X113186021Y-76537922D01*
X113273351Y-76748755D01*
X113400135Y-76938500D01*
X113561500Y-77099865D01*
X113751245Y-77226649D01*
X113816500Y-77253679D01*
X113816500Y-77307631D01*
X113814162Y-77331370D01*
X113816500Y-77355109D01*
X113816500Y-77355118D01*
X113823496Y-77426151D01*
X113851143Y-77517292D01*
X113896040Y-77601288D01*
X113927942Y-77640161D01*
X113751245Y-77713351D01*
X113561500Y-77840135D01*
X113400135Y-78001500D01*
X113273351Y-78191245D01*
X113186021Y-78402078D01*
X113141500Y-78625898D01*
X113141500Y-78854102D01*
X113186021Y-79077922D01*
X113273351Y-79288755D01*
X113400135Y-79478500D01*
X113561500Y-79639865D01*
X113751245Y-79766649D01*
X113962078Y-79853979D01*
X114185898Y-79898500D01*
X114414102Y-79898500D01*
X114637922Y-79853979D01*
X114732297Y-79814888D01*
X114749077Y-79823857D01*
X114840218Y-79851504D01*
X114911251Y-79858500D01*
X114911254Y-79858500D01*
X114935000Y-79860839D01*
X114958746Y-79858500D01*
X115566814Y-79858500D01*
X115589210Y-79885790D01*
X115666529Y-79949244D01*
X115754742Y-79996395D01*
X115799592Y-80010000D01*
X115754742Y-80023605D01*
X115666529Y-80070756D01*
X115589210Y-80134210D01*
X115566814Y-80161500D01*
X114958746Y-80161500D01*
X114935000Y-80159161D01*
X114911254Y-80161500D01*
X114911251Y-80161500D01*
X114840218Y-80168496D01*
X114749077Y-80196143D01*
X114732297Y-80205112D01*
X114637922Y-80166021D01*
X114414102Y-80121500D01*
X114185898Y-80121500D01*
X113962078Y-80166021D01*
X113751245Y-80253351D01*
X113561500Y-80380135D01*
X113400135Y-80541500D01*
X113273351Y-80731245D01*
X113186021Y-80942078D01*
X113141500Y-81165898D01*
X113141500Y-81394102D01*
X113186021Y-81617922D01*
X113273351Y-81828755D01*
X113400135Y-82018500D01*
X113561500Y-82179865D01*
X113751245Y-82306649D01*
X113962078Y-82393979D01*
X114121531Y-82425697D01*
X113974907Y-82572321D01*
X113956460Y-82587460D01*
X113896040Y-82661082D01*
X113851143Y-82745078D01*
X113848751Y-82752963D01*
X113751245Y-82793351D01*
X113561500Y-82920135D01*
X113400135Y-83081500D01*
X113273351Y-83271245D01*
X113186021Y-83482078D01*
X113155590Y-83635064D01*
X113150307Y-83630728D01*
X113086051Y-83596383D01*
X113121395Y-83530258D01*
X113150430Y-83434542D01*
X113160234Y-83335000D01*
X113160234Y-83035000D01*
X113150430Y-82935458D01*
X113121395Y-82839742D01*
X113074244Y-82751529D01*
X113010790Y-82674210D01*
X112933471Y-82610756D01*
X112845258Y-82563605D01*
X112800408Y-82550000D01*
X112845258Y-82536395D01*
X112933471Y-82489244D01*
X113010790Y-82425790D01*
X113074244Y-82348471D01*
X113121395Y-82260258D01*
X113150430Y-82164542D01*
X113160234Y-82065000D01*
X113160234Y-81765000D01*
X113150430Y-81665458D01*
X113121395Y-81569742D01*
X113074244Y-81481529D01*
X113010790Y-81404210D01*
X112933471Y-81340756D01*
X112845258Y-81293605D01*
X112800408Y-81280000D01*
X112845258Y-81266395D01*
X112933471Y-81219244D01*
X113010790Y-81155790D01*
X113074244Y-81078471D01*
X113121395Y-80990258D01*
X113150430Y-80894542D01*
X113160234Y-80795000D01*
X113160234Y-80495000D01*
X113150430Y-80395458D01*
X113121395Y-80299742D01*
X113074244Y-80211529D01*
X113010790Y-80134210D01*
X112933471Y-80070756D01*
X112845258Y-80023605D01*
X112800408Y-80010000D01*
X112845258Y-79996395D01*
X112933471Y-79949244D01*
X113010790Y-79885790D01*
X113074244Y-79808471D01*
X113121395Y-79720258D01*
X113150430Y-79624542D01*
X113160234Y-79525000D01*
X113160234Y-79225000D01*
X113150430Y-79125458D01*
X113121395Y-79029742D01*
X113074244Y-78941529D01*
X113010790Y-78864210D01*
X112933471Y-78800756D01*
X112845258Y-78753605D01*
X112800408Y-78740000D01*
X112845258Y-78726395D01*
X112933471Y-78679244D01*
X113010790Y-78615790D01*
X113074244Y-78538471D01*
X113121395Y-78450258D01*
X113150430Y-78354542D01*
X113160234Y-78255000D01*
X113160234Y-77955000D01*
X113150430Y-77855458D01*
X113121395Y-77759742D01*
X113074244Y-77671529D01*
X113010790Y-77594210D01*
X112933471Y-77530756D01*
X112845258Y-77483605D01*
X112800408Y-77470000D01*
X112845258Y-77456395D01*
X112933471Y-77409244D01*
X113010790Y-77345790D01*
X113074244Y-77268471D01*
X113121395Y-77180258D01*
X113150430Y-77084542D01*
X113160234Y-76985000D01*
X113160234Y-76685000D01*
X113150430Y-76585458D01*
X113121395Y-76489742D01*
X113074244Y-76401529D01*
X113010790Y-76324210D01*
X112933471Y-76260756D01*
X112845258Y-76213605D01*
X112800408Y-76200000D01*
X112845258Y-76186395D01*
X112933471Y-76139244D01*
X113010790Y-76075790D01*
X113074244Y-75998471D01*
X113121395Y-75910258D01*
X113150430Y-75814542D01*
X113160234Y-75715000D01*
X113160234Y-75415000D01*
X113150430Y-75315458D01*
X113121395Y-75219742D01*
X113074244Y-75131529D01*
X113010790Y-75054210D01*
X112933471Y-74990756D01*
X112845258Y-74943605D01*
X112749542Y-74914570D01*
X112650000Y-74904766D01*
X111000000Y-74904766D01*
X110900458Y-74914570D01*
X110804742Y-74943605D01*
X110723046Y-74987273D01*
X109830500Y-74094728D01*
X109830500Y-72760738D01*
X109832838Y-72736999D01*
X109830500Y-72713260D01*
X109830500Y-72713251D01*
X109823504Y-72642218D01*
X109795857Y-72551077D01*
X109750960Y-72467082D01*
X109690540Y-72393460D01*
X109672093Y-72378321D01*
X108088679Y-70794907D01*
X108073540Y-70776460D01*
X107999918Y-70716040D01*
X107915923Y-70671143D01*
X107840234Y-70648183D01*
X107840234Y-70395500D01*
X113390780Y-70395500D01*
X113273351Y-70571245D01*
G36*
X109115321Y-79700093D02*
G01*
X109130460Y-79718540D01*
X109204082Y-79778960D01*
X109288077Y-79823857D01*
X109379218Y-79851504D01*
X109450251Y-79858500D01*
X109450254Y-79858500D01*
X109474000Y-79860839D01*
X109497746Y-79858500D01*
X110616814Y-79858500D01*
X110639210Y-79885790D01*
X110716529Y-79949244D01*
X110804742Y-79996395D01*
X110849592Y-80010000D01*
X110804742Y-80023605D01*
X110716529Y-80070756D01*
X110639210Y-80134210D01*
X110616814Y-80161500D01*
X109624746Y-80161500D01*
X109601000Y-80159161D01*
X109577254Y-80161500D01*
X109577251Y-80161500D01*
X109506218Y-80168496D01*
X109415077Y-80196143D01*
X109331082Y-80241040D01*
X109257460Y-80301460D01*
X109242321Y-80319907D01*
X108765728Y-80796500D01*
X107733679Y-80796500D01*
X107706649Y-80731245D01*
X107579865Y-80541500D01*
X107418500Y-80380135D01*
X107228755Y-80253351D01*
X107017922Y-80166021D01*
X106794102Y-80121500D01*
X106565898Y-80121500D01*
X106342078Y-80166021D01*
X106131245Y-80253351D01*
X105955500Y-80370780D01*
X105955500Y-79649220D01*
X106131245Y-79766649D01*
X106342078Y-79853979D01*
X106565898Y-79898500D01*
X106794102Y-79898500D01*
X107017922Y-79853979D01*
X107228755Y-79766649D01*
X107418500Y-79639865D01*
X107579865Y-79478500D01*
X107706649Y-79288755D01*
X107733679Y-79223500D01*
X108638728Y-79223500D01*
X109115321Y-79700093D01*
G37*
X109115321Y-79700093D02*
X109130460Y-79718540D01*
X109204082Y-79778960D01*
X109288077Y-79823857D01*
X109379218Y-79851504D01*
X109450251Y-79858500D01*
X109450254Y-79858500D01*
X109474000Y-79860839D01*
X109497746Y-79858500D01*
X110616814Y-79858500D01*
X110639210Y-79885790D01*
X110716529Y-79949244D01*
X110804742Y-79996395D01*
X110849592Y-80010000D01*
X110804742Y-80023605D01*
X110716529Y-80070756D01*
X110639210Y-80134210D01*
X110616814Y-80161500D01*
X109624746Y-80161500D01*
X109601000Y-80159161D01*
X109577254Y-80161500D01*
X109577251Y-80161500D01*
X109506218Y-80168496D01*
X109415077Y-80196143D01*
X109331082Y-80241040D01*
X109257460Y-80301460D01*
X109242321Y-80319907D01*
X108765728Y-80796500D01*
X107733679Y-80796500D01*
X107706649Y-80731245D01*
X107579865Y-80541500D01*
X107418500Y-80380135D01*
X107228755Y-80253351D01*
X107017922Y-80166021D01*
X106794102Y-80121500D01*
X106565898Y-80121500D01*
X106342078Y-80166021D01*
X106131245Y-80253351D01*
X105955500Y-80370780D01*
X105955500Y-79649220D01*
X106131245Y-79766649D01*
X106342078Y-79853979D01*
X106565898Y-79898500D01*
X106794102Y-79898500D01*
X107017922Y-79853979D01*
X107228755Y-79766649D01*
X107418500Y-79639865D01*
X107579865Y-79478500D01*
X107706649Y-79288755D01*
X107733679Y-79223500D01*
X108638728Y-79223500D01*
X109115321Y-79700093D01*
G36*
X106131245Y-74686649D02*
G01*
X106342078Y-74773979D01*
X106565898Y-74818500D01*
X106794102Y-74818500D01*
X107017922Y-74773979D01*
X107083177Y-74746949D01*
X109496325Y-77160098D01*
X109511460Y-77178540D01*
X109529902Y-77193675D01*
X109529906Y-77193679D01*
X109585081Y-77238960D01*
X109640292Y-77268471D01*
X109669077Y-77283857D01*
X109760218Y-77311504D01*
X109831251Y-77318500D01*
X109831260Y-77318500D01*
X109854999Y-77320838D01*
X109878738Y-77318500D01*
X110616814Y-77318500D01*
X110639210Y-77345790D01*
X110716529Y-77409244D01*
X110804742Y-77456395D01*
X110849592Y-77470000D01*
X110804742Y-77483605D01*
X110716529Y-77530756D01*
X110639210Y-77594210D01*
X110616814Y-77621500D01*
X108785272Y-77621500D01*
X107766949Y-76603177D01*
X107793979Y-76537922D01*
X107838500Y-76314102D01*
X107838500Y-76085898D01*
X107793979Y-75862078D01*
X107706649Y-75651245D01*
X107579865Y-75461500D01*
X107418500Y-75300135D01*
X107228755Y-75173351D01*
X107017922Y-75086021D01*
X106794102Y-75041500D01*
X106565898Y-75041500D01*
X106342078Y-75086021D01*
X106131245Y-75173351D01*
X105955500Y-75290780D01*
X105955500Y-74569220D01*
X106131245Y-74686649D01*
G37*
X106131245Y-74686649D02*
X106342078Y-74773979D01*
X106565898Y-74818500D01*
X106794102Y-74818500D01*
X107017922Y-74773979D01*
X107083177Y-74746949D01*
X109496325Y-77160098D01*
X109511460Y-77178540D01*
X109529902Y-77193675D01*
X109529906Y-77193679D01*
X109585081Y-77238960D01*
X109640292Y-77268471D01*
X109669077Y-77283857D01*
X109760218Y-77311504D01*
X109831251Y-77318500D01*
X109831260Y-77318500D01*
X109854999Y-77320838D01*
X109878738Y-77318500D01*
X110616814Y-77318500D01*
X110639210Y-77345790D01*
X110716529Y-77409244D01*
X110804742Y-77456395D01*
X110849592Y-77470000D01*
X110804742Y-77483605D01*
X110716529Y-77530756D01*
X110639210Y-77594210D01*
X110616814Y-77621500D01*
X108785272Y-77621500D01*
X107766949Y-76603177D01*
X107793979Y-76537922D01*
X107838500Y-76314102D01*
X107838500Y-76085898D01*
X107793979Y-75862078D01*
X107706649Y-75651245D01*
X107579865Y-75461500D01*
X107418500Y-75300135D01*
X107228755Y-75173351D01*
X107017922Y-75086021D01*
X106794102Y-75041500D01*
X106565898Y-75041500D01*
X106342078Y-75086021D01*
X106131245Y-75173351D01*
X105955500Y-75290780D01*
X105955500Y-74569220D01*
X106131245Y-74686649D01*
G36*
X108863501Y-72937273D02*
G01*
X108863500Y-74271261D01*
X108861162Y-74295000D01*
X108863500Y-74318739D01*
X108863500Y-74318748D01*
X108870496Y-74389781D01*
X108898143Y-74480922D01*
X108943040Y-74564918D01*
X109003460Y-74638540D01*
X109021907Y-74653679D01*
X110258325Y-75890098D01*
X110273460Y-75908540D01*
X110291902Y-75923675D01*
X110291906Y-75923679D01*
X110347081Y-75968960D01*
X110402292Y-75998471D01*
X110431077Y-76013857D01*
X110522218Y-76041504D01*
X110593251Y-76048500D01*
X110593260Y-76048500D01*
X110616999Y-76050838D01*
X110618603Y-76050680D01*
X110639210Y-76075790D01*
X110716529Y-76139244D01*
X110804742Y-76186395D01*
X110849592Y-76200000D01*
X110804742Y-76213605D01*
X110716529Y-76260756D01*
X110639210Y-76324210D01*
X110616814Y-76351500D01*
X110055273Y-76351500D01*
X107766949Y-74063177D01*
X107793979Y-73997922D01*
X107838500Y-73774102D01*
X107838500Y-73545898D01*
X107793979Y-73322078D01*
X107706649Y-73111245D01*
X107579865Y-72921500D01*
X107418500Y-72760135D01*
X107228755Y-72633351D01*
X107017922Y-72546021D01*
X106794102Y-72501500D01*
X106565898Y-72501500D01*
X106342078Y-72546021D01*
X106131245Y-72633351D01*
X105955500Y-72750780D01*
X105955500Y-72280234D01*
X107480000Y-72280234D01*
X107550278Y-72273312D01*
X107617856Y-72252813D01*
X107680135Y-72219524D01*
X107734724Y-72174724D01*
X107779524Y-72120135D01*
X107812813Y-72057856D01*
X107833312Y-71990278D01*
X107840234Y-71920000D01*
X107840234Y-71914006D01*
X108863501Y-72937273D01*
G37*
X108863501Y-72937273D02*
X108863500Y-74271261D01*
X108861162Y-74295000D01*
X108863500Y-74318739D01*
X108863500Y-74318748D01*
X108870496Y-74389781D01*
X108898143Y-74480922D01*
X108943040Y-74564918D01*
X109003460Y-74638540D01*
X109021907Y-74653679D01*
X110258325Y-75890098D01*
X110273460Y-75908540D01*
X110291902Y-75923675D01*
X110291906Y-75923679D01*
X110347081Y-75968960D01*
X110402292Y-75998471D01*
X110431077Y-76013857D01*
X110522218Y-76041504D01*
X110593251Y-76048500D01*
X110593260Y-76048500D01*
X110616999Y-76050838D01*
X110618603Y-76050680D01*
X110639210Y-76075790D01*
X110716529Y-76139244D01*
X110804742Y-76186395D01*
X110849592Y-76200000D01*
X110804742Y-76213605D01*
X110716529Y-76260756D01*
X110639210Y-76324210D01*
X110616814Y-76351500D01*
X110055273Y-76351500D01*
X107766949Y-74063177D01*
X107793979Y-73997922D01*
X107838500Y-73774102D01*
X107838500Y-73545898D01*
X107793979Y-73322078D01*
X107706649Y-73111245D01*
X107579865Y-72921500D01*
X107418500Y-72760135D01*
X107228755Y-72633351D01*
X107017922Y-72546021D01*
X106794102Y-72501500D01*
X106565898Y-72501500D01*
X106342078Y-72546021D01*
X106131245Y-72633351D01*
X105955500Y-72750780D01*
X105955500Y-72280234D01*
X107480000Y-72280234D01*
X107550278Y-72273312D01*
X107617856Y-72252813D01*
X107680135Y-72219524D01*
X107734724Y-72174724D01*
X107779524Y-72120135D01*
X107812813Y-72057856D01*
X107833312Y-71990278D01*
X107840234Y-71920000D01*
X107840234Y-71914006D01*
X108863501Y-72937273D01*
G36*
X117564501Y-74904766D02*
G01*
X117258500Y-74904766D01*
X117258500Y-71840746D01*
X117260839Y-71817000D01*
X117258500Y-71793251D01*
X117251504Y-71722218D01*
X117223857Y-71631077D01*
X117205377Y-71596504D01*
X117178960Y-71547081D01*
X117133679Y-71491907D01*
X117118540Y-71473460D01*
X117100093Y-71458321D01*
X116436679Y-70794907D01*
X116421540Y-70776460D01*
X116347918Y-70716040D01*
X116263923Y-70671143D01*
X116172782Y-70643496D01*
X116101749Y-70636500D01*
X116101739Y-70636500D01*
X116078000Y-70634162D01*
X116054261Y-70636500D01*
X115353679Y-70636500D01*
X115326649Y-70571245D01*
X115209220Y-70395500D01*
X117564501Y-70395500D01*
X117564501Y-74904766D01*
G37*
X117564501Y-74904766D02*
X117258500Y-74904766D01*
X117258500Y-71840746D01*
X117260839Y-71817000D01*
X117258500Y-71793251D01*
X117251504Y-71722218D01*
X117223857Y-71631077D01*
X117205377Y-71596504D01*
X117178960Y-71547081D01*
X117133679Y-71491907D01*
X117118540Y-71473460D01*
X117100093Y-71458321D01*
X116436679Y-70794907D01*
X116421540Y-70776460D01*
X116347918Y-70716040D01*
X116263923Y-70671143D01*
X116172782Y-70643496D01*
X116101749Y-70636500D01*
X116101739Y-70636500D01*
X116078000Y-70634162D01*
X116054261Y-70636500D01*
X115353679Y-70636500D01*
X115326649Y-70571245D01*
X115209220Y-70395500D01*
X117564501Y-70395500D01*
X117564501Y-74904766D01*
M02*
